solid OpenSCAD_Model
  facet normal 0 0 1
    outer loop
      vertex 15.4 4.50333 10
      vertex 15.4 -4.50332 10
      vertex 23.2 5.08687e-06 10
    endloop
  endfacet
  facet normal 0.5 -0.866025 0
    outer loop
      vertex 15.4 -4.50332 3
      vertex 23.2 5.08687e-06 10
      vertex 15.4 -4.50332 10
    endloop
  endfacet
  facet normal 0.5 -0.866025 0
    outer loop
      vertex 23.2 5.08687e-06 10
      vertex 15.4 -4.50332 3
      vertex 23.2 5.08687e-06 3
    endloop
  endfacet
  facet normal 0.5 -0.866025 0
    outer loop
      vertex 18 -3.00221 0
      vertex 15.4 -4.50332 0
      vertex 15.4 -4.50332 -1.15463e-15
    endloop
  endfacet
  facet normal -1 1.05886e-07 0
    outer loop
      vertex 15.4 -4.50332 3
      vertex 15.4 4.50333 10
      vertex 15.4 4.50333 3
    endloop
  endfacet
  facet normal -1 1.05886e-07 0
    outer loop
      vertex 15.4 4.50333 10
      vertex 15.4 -4.50332 3
      vertex 15.4 -4.50332 10
    endloop
  endfacet
  facet normal -1 1.05886e-07 0
    outer loop
      vertex 15.4 -4.50332 -1.15463e-15
      vertex 15.4 4.50333 0
      vertex 15.4 4.50333 -1.15463e-15
    endloop
  endfacet
  facet normal -1 1.05886e-07 0
    outer loop
      vertex 15.4 4.50333 0
      vertex 15.4 -4.50332 -1.15463e-15
      vertex 15.4 -4.50332 0
    endloop
  endfacet
  facet normal 0.5 0.866025 -0
    outer loop
      vertex 23.2 5.08687e-06 3
      vertex 15.4 4.50333 10
      vertex 23.2 5.08687e-06 10
    endloop
  endfacet
  facet normal 0.5 0.866025 0
    outer loop
      vertex 15.4 4.50333 10
      vertex 23.2 5.08687e-06 3
      vertex 15.4 4.50333 3
    endloop
  endfacet
  facet normal 0.5 0.866026 -0
    outer loop
      vertex 15.4 4.50333 -1.15463e-15
      vertex 15.4 4.50333 0
      vertex 18 3.00222 0
    endloop
  endfacet
  facet normal 4.44089e-16 0 -1
    outer loop
      vertex 18 -3.00221 0
      vertex 15.4 4.50333 -1.15463e-15
      vertex 18 3.00222 0
    endloop
  endfacet
  facet normal 4.44089e-16 1.17557e-23 -1
    outer loop
      vertex 15.4 4.50333 -1.15463e-15
      vertex 18 -3.00221 0
      vertex 15.4 -4.50332 -1.15463e-15
    endloop
  endfacet
  facet normal 0 0 1
    outer loop
      vertex -20.6 4.50333 10
      vertex -20.6 -4.50332 10
      vertex -12.8 5.08687e-06 10
    endloop
  endfacet
  facet normal 0.5 -0.866025 0
    outer loop
      vertex -20.6 -4.50332 3
      vertex -12.8 5.08687e-06 10
      vertex -20.6 -4.50332 10
    endloop
  endfacet
  facet normal 0.5 -0.866025 0
    outer loop
      vertex -12.8 5.08687e-06 10
      vertex -20.6 -4.50332 3
      vertex -12.8 5.08687e-06 3
    endloop
  endfacet
  facet normal 0.5 -0.866025 0
    outer loop
      vertex -18 -3.00221 0
      vertex -20.6 -4.50332 0
      vertex -20.6 -4.50332 -1.15463e-15
    endloop
  endfacet
  facet normal -1 2.11771e-07 0
    outer loop
      vertex -20.6 -4.50332 3
      vertex -20.6 4.50333 10
      vertex -20.6 4.50333 3
    endloop
  endfacet
  facet normal -1 2.11771e-07 0
    outer loop
      vertex -20.6 4.50333 10
      vertex -20.6 -4.50332 3
      vertex -20.6 -4.50332 10
    endloop
  endfacet
  facet normal -1 2.11771e-07 0
    outer loop
      vertex -20.6 -4.50332 -1.15463e-15
      vertex -20.6 4.50333 0
      vertex -20.6 4.50333 -1.15463e-15
    endloop
  endfacet
  facet normal -1 2.11771e-07 0
    outer loop
      vertex -20.6 4.50333 0
      vertex -20.6 -4.50332 -1.15463e-15
      vertex -20.6 -4.50332 0
    endloop
  endfacet
  facet normal 0.5 0.866025 -0
    outer loop
      vertex -12.8 5.08687e-06 3
      vertex -20.6 4.50333 10
      vertex -12.8 5.08687e-06 10
    endloop
  endfacet
  facet normal 0.5 0.866025 0
    outer loop
      vertex -20.6 4.50333 10
      vertex -12.8 5.08687e-06 3
      vertex -20.6 4.50333 3
    endloop
  endfacet
  facet normal 0.5 0.866026 -0
    outer loop
      vertex -20.6 4.50333 -1.15463e-15
      vertex -20.6 4.50333 0
      vertex -18 3.00222 0
    endloop
  endfacet
  facet normal 4.44089e-16 0 -1
    outer loop
      vertex -18 -3.00221 0
      vertex -20.6 4.50333 -1.15463e-15
      vertex -18 3.00222 0
    endloop
  endfacet
  facet normal 4.44089e-16 -3.5267e-23 -1
    outer loop
      vertex -20.6 4.50333 -1.15463e-15
      vertex -18 -3.00221 0
      vertex -20.6 -4.50332 -1.15463e-15
    endloop
  endfacet
  facet normal 0.999507 0.0314107 0
    outer loop
      vertex 25 0 3
      vertex 24.9507 1.56976 0
      vertex 24.9507 1.56976 3
    endloop
  endfacet
  facet normal 0.999507 0.0314107 0
    outer loop
      vertex 24.9507 1.56976 0
      vertex 25 0 3
      vertex 25 0 0
    endloop
  endfacet
  facet normal -0.999507 0.0314107 0
    outer loop
      vertex -25 0 0
      vertex -24.9507 1.56976 3
      vertex -24.9507 1.56976 0
    endloop
  endfacet
  facet normal -0.999507 0.0314107 0
    outer loop
      vertex -24.9507 1.56976 3
      vertex -25 0 0
      vertex -25 0 3
    endloop
  endfacet
  facet normal 0.0314107 0.999507 -0
    outer loop
      vertex 1.56976 24.9507 0
      vertex 0 25 3
      vertex 1.56976 24.9507 3
    endloop
  endfacet
  facet normal 0.0314107 0.999507 0
    outer loop
      vertex 0 25 3
      vertex 1.56976 24.9507 0
      vertex 0 25 0
    endloop
  endfacet
  facet normal -0.0314107 -0.999507 0
    outer loop
      vertex -1.56976 -24.9507 0
      vertex 0 -25 3
      vertex -1.56976 -24.9507 3
    endloop
  endfacet
  facet normal -0.0314107 -0.999507 -0
    outer loop
      vertex 0 -25 3
      vertex -1.56976 -24.9507 0
      vertex 0 -25 0
    endloop
  endfacet
  facet normal 0.707107 0.707107 0
    outer loop
      vertex 18.2242 17.1137 3
      vertex 17.1137 18.2242 0
      vertex 17.1137 18.2242 3
    endloop
  endfacet
  facet normal 0.707107 0.707107 0
    outer loop
      vertex 17.1137 18.2242 0
      vertex 18.2242 17.1137 3
      vertex 18.2242 17.1137 0
    endloop
  endfacet
  facet normal -0.661311 0.750112 0
    outer loop
      vertex -15.9356 19.2628 0
      vertex -17.1137 18.2242 3
      vertex -15.9356 19.2628 3
    endloop
  endfacet
  facet normal -0.661311 0.750112 0
    outer loop
      vertex -17.1137 18.2242 3
      vertex -15.9356 19.2628 0
      vertex -17.1137 18.2242 0
    endloop
  endfacet
  facet normal -0.338738 0.940881 0
    outer loop
      vertex -7.72542 23.7764 0
      vertex -9.20311 23.2444 3
      vertex -7.72542 23.7764 3
    endloop
  endfacet
  facet normal -0.338738 0.940881 0
    outer loop
      vertex -9.20311 23.2444 3
      vertex -7.72542 23.7764 0
      vertex -9.20311 23.2444 0
    endloop
  endfacet
  facet normal -0.940881 -0.338738 0
    outer loop
      vertex -23.2444 -9.20311 0
      vertex -23.7764 -7.72542 3
      vertex -23.7764 -7.72542 0
    endloop
  endfacet
  facet normal -0.940881 -0.338738 0
    outer loop
      vertex -23.7764 -7.72542 3
      vertex -23.2444 -9.20311 0
      vertex -23.2444 -9.20311 3
    endloop
  endfacet
  facet normal 0.917755 0.397148 0
    outer loop
      vertex 23.2444 9.20311 3
      vertex 22.6207 10.6445 0
      vertex 22.6207 10.6445 3
    endloop
  endfacet
  facet normal 0.917755 0.397148 0
    outer loop
      vertex 22.6207 10.6445 0
      vertex 23.2444 9.20311 3
      vertex 23.2444 9.20311 0
    endloop
  endfacet
  facet normal 0.397148 0.917755 -0
    outer loop
      vertex 10.6445 22.6207 0
      vertex 9.20311 23.2444 3
      vertex 10.6445 22.6207 3
    endloop
  endfacet
  facet normal 0.397148 0.917755 0
    outer loop
      vertex 9.20311 23.2444 3
      vertex 10.6445 22.6207 0
      vertex 9.20311 23.2444 0
    endloop
  endfacet
  facet normal 0.562082 0.827081 -0
    outer loop
      vertex 14.6946 20.2254 0
      vertex 13.3957 21.1082 3
      vertex 14.6946 20.2254 3
    endloop
  endfacet
  facet normal 0.562082 0.827081 0
    outer loop
      vertex 13.3957 21.1082 3
      vertex 14.6946 20.2254 0
      vertex 13.3957 21.1082 0
    endloop
  endfacet
  facet normal -0.891006 0.453991 0
    outer loop
      vertex -22.6207 10.6445 0
      vertex -21.9077 12.0438 3
      vertex -21.9077 12.0438 0
    endloop
  endfacet
  facet normal -0.891006 0.453991 0
    outer loop
      vertex -21.9077 12.0438 3
      vertex -22.6207 10.6445 0
      vertex -22.6207 10.6445 3
    endloop
  endfacet
  facet normal -0.156435 0.987688 0
    outer loop
      vertex -3.13333 24.8029 0
      vertex -4.68453 24.5572 3
      vertex -3.13333 24.8029 3
    endloop
  endfacet
  facet normal -0.156435 0.987688 0
    outer loop
      vertex -4.68453 24.5572 3
      vertex -3.13333 24.8029 0
      vertex -4.68453 24.5572 0
    endloop
  endfacet
  facet normal 0.975917 0.218143 0
    outer loop
      vertex 24.5572 4.68453 3
      vertex 24.2146 6.21725 0
      vertex 24.2146 6.21725 3
    endloop
  endfacet
  facet normal 0.975917 0.218143 0
    outer loop
      vertex 24.2146 6.21725 0
      vertex 24.5572 4.68453 3
      vertex 24.5572 4.68453 0
    endloop
  endfacet
  facet normal 0.995562 0.0941082 0
    outer loop
      vertex 24.9507 1.56976 3
      vertex 24.8029 3.13333 0
      vertex 24.8029 3.13333 3
    endloop
  endfacet
  facet normal 0.995562 0.0941082 0
    outer loop
      vertex 24.8029 3.13333 0
      vertex 24.9507 1.56976 3
      vertex 24.9507 1.56976 0
    endloop
  endfacet
  facet normal 0.827081 0.562082 0
    outer loop
      vertex 21.1082 13.3957 3
      vertex 20.2254 14.6946 0
      vertex 20.2254 14.6946 3
    endloop
  endfacet
  facet normal 0.827081 0.562082 0
    outer loop
      vertex 20.2254 14.6946 0
      vertex 21.1082 13.3957 3
      vertex 21.1082 13.3957 0
    endloop
  endfacet
  facet normal 0.891006 0.453991 0
    outer loop
      vertex 22.6207 10.6445 3
      vertex 21.9077 12.0438 0
      vertex 21.9077 12.0438 3
    endloop
  endfacet
  facet normal 0.891006 0.453991 0
    outer loop
      vertex 21.9077 12.0438 0
      vertex 22.6207 10.6445 3
      vertex 22.6207 10.6445 0
    endloop
  endfacet
  facet normal 0.218143 0.975917 -0
    outer loop
      vertex 6.21725 24.2146 0
      vertex 4.68453 24.5572 3
      vertex 6.21725 24.2146 3
    endloop
  endfacet
  facet normal 0.218143 0.975917 0
    outer loop
      vertex 4.68453 24.5572 3
      vertex 6.21725 24.2146 0
      vertex 4.68453 24.5572 0
    endloop
  endfacet
  facet normal 0.156435 0.987688 -0
    outer loop
      vertex 4.68453 24.5572 0
      vertex 3.13333 24.8029 3
      vertex 4.68453 24.5572 3
    endloop
  endfacet
  facet normal 0.156435 0.987688 0
    outer loop
      vertex 3.13333 24.8029 3
      vertex 4.68453 24.5572 0
      vertex 3.13333 24.8029 0
    endloop
  endfacet
  facet normal 0.612907 0.790155 -0
    outer loop
      vertex 15.9356 19.2628 0
      vertex 14.6946 20.2254 3
      vertex 15.9356 19.2628 3
    endloop
  endfacet
  facet normal 0.612907 0.790155 0
    outer loop
      vertex 14.6946 20.2254 3
      vertex 15.9356 19.2628 0
      vertex 14.6946 20.2254 0
    endloop
  endfacet
  facet normal -0.960294 0.278991 0
    outer loop
      vertex -24.2146 6.21725 0
      vertex -23.7764 7.72542 3
      vertex -23.7764 7.72542 0
    endloop
  endfacet
  facet normal -0.960294 0.278991 0
    outer loop
      vertex -23.7764 7.72542 3
      vertex -24.2146 6.21725 0
      vertex -24.2146 6.21725 3
    endloop
  endfacet
  facet normal -0.790155 0.612907 0
    outer loop
      vertex -20.2254 14.6946 0
      vertex -19.2628 15.9356 3
      vertex -19.2628 15.9356 0
    endloop
  endfacet
  facet normal -0.790155 0.612907 0
    outer loop
      vertex -19.2628 15.9356 3
      vertex -20.2254 14.6946 0
      vertex -20.2254 14.6946 3
    endloop
  endfacet
  facet normal -0.707107 0.707107 0
    outer loop
      vertex -18.2242 17.1137 0
      vertex -17.1137 18.2242 3
      vertex -17.1137 18.2242 0
    endloop
  endfacet
  facet normal -0.707107 0.707107 0
    outer loop
      vertex -17.1137 18.2242 3
      vertex -18.2242 17.1137 0
      vertex -18.2242 17.1137 3
    endloop
  endfacet
  facet normal -0.917755 0.397148 0
    outer loop
      vertex -23.2444 9.20311 0
      vertex -22.6207 10.6445 3
      vertex -22.6207 10.6445 0
    endloop
  endfacet
  facet normal -0.917755 0.397148 0
    outer loop
      vertex -22.6207 10.6445 3
      vertex -23.2444 9.20311 0
      vertex -23.2444 9.20311 3
    endloop
  endfacet
  facet normal -0.509042 0.860742 0
    outer loop
      vertex -12.0438 21.9077 0
      vertex -13.3957 21.1082 3
      vertex -12.0438 21.9077 3
    endloop
  endfacet
  facet normal -0.509042 0.860742 0
    outer loop
      vertex -13.3957 21.1082 3
      vertex -12.0438 21.9077 0
      vertex -13.3957 21.1082 0
    endloop
  endfacet
  facet normal -0.397148 0.917755 0
    outer loop
      vertex -9.20311 23.2444 0
      vertex -10.6445 22.6207 3
      vertex -9.20311 23.2444 3
    endloop
  endfacet
  facet normal -0.397148 0.917755 0
    outer loop
      vertex -10.6445 22.6207 3
      vertex -9.20311 23.2444 0
      vertex -10.6445 22.6207 0
    endloop
  endfacet
  facet normal -0.562082 0.827081 0
    outer loop
      vertex -13.3957 21.1082 0
      vertex -14.6946 20.2254 3
      vertex -13.3957 21.1082 3
    endloop
  endfacet
  facet normal -0.562082 0.827081 0
    outer loop
      vertex -14.6946 20.2254 3
      vertex -13.3957 21.1082 0
      vertex -14.6946 20.2254 0
    endloop
  endfacet
  facet normal -0.218143 0.975917 0
    outer loop
      vertex -4.68453 24.5572 0
      vertex -6.21725 24.2146 3
      vertex -4.68453 24.5572 3
    endloop
  endfacet
  facet normal -0.218143 0.975917 0
    outer loop
      vertex -6.21725 24.2146 3
      vertex -4.68453 24.5572 0
      vertex -6.21725 24.2146 0
    endloop
  endfacet
  facet normal -0.0941082 0.995562 0
    outer loop
      vertex -1.56976 24.9507 0
      vertex -3.13333 24.8029 3
      vertex -1.56976 24.9507 3
    endloop
  endfacet
  facet normal -0.0941082 0.995562 0
    outer loop
      vertex -3.13333 24.8029 3
      vertex -1.56976 24.9507 0
      vertex -3.13333 24.8029 0
    endloop
  endfacet
  facet normal 0.562082 -0.827081 0
    outer loop
      vertex 13.3957 -21.1082 0
      vertex 14.6946 -20.2254 3
      vertex 13.3957 -21.1082 3
    endloop
  endfacet
  facet normal 0.562082 -0.827081 0
    outer loop
      vertex 14.6946 -20.2254 3
      vertex 13.3957 -21.1082 0
      vertex 14.6946 -20.2254 0
    endloop
  endfacet
  facet normal 0.453991 -0.891006 0
    outer loop
      vertex 10.6445 -22.6207 0
      vertex 12.0438 -21.9077 3
      vertex 10.6445 -22.6207 3
    endloop
  endfacet
  facet normal 0.453991 -0.891006 0
    outer loop
      vertex 12.0438 -21.9077 3
      vertex 10.6445 -22.6207 0
      vertex 12.0438 -21.9077 0
    endloop
  endfacet
  facet normal -0.707107 -0.707107 0
    outer loop
      vertex -17.1137 -18.2242 0
      vertex -18.2242 -17.1137 3
      vertex -18.2242 -17.1137 0
    endloop
  endfacet
  facet normal -0.707107 -0.707107 0
    outer loop
      vertex -18.2242 -17.1137 3
      vertex -17.1137 -18.2242 0
      vertex -17.1137 -18.2242 3
    endloop
  endfacet
  facet normal -0.397148 -0.917755 0
    outer loop
      vertex -10.6445 -22.6207 0
      vertex -9.20311 -23.2444 3
      vertex -10.6445 -22.6207 3
    endloop
  endfacet
  facet normal -0.397148 -0.917755 -0
    outer loop
      vertex -9.20311 -23.2444 3
      vertex -10.6445 -22.6207 0
      vertex -9.20311 -23.2444 0
    endloop
  endfacet
  facet normal -0.917755 -0.397148 0
    outer loop
      vertex -22.6207 -10.6445 0
      vertex -23.2444 -9.20311 3
      vertex -23.2444 -9.20311 0
    endloop
  endfacet
  facet normal -0.917755 -0.397148 0
    outer loop
      vertex -23.2444 -9.20311 3
      vertex -22.6207 -10.6445 0
      vertex -22.6207 -10.6445 3
    endloop
  endfacet
  facet normal -0.827081 -0.562082 0
    outer loop
      vertex -20.2254 -14.6946 0
      vertex -21.1082 -13.3957 3
      vertex -21.1082 -13.3957 0
    endloop
  endfacet
  facet normal -0.827081 -0.562082 0
    outer loop
      vertex -21.1082 -13.3957 3
      vertex -20.2254 -14.6946 0
      vertex -20.2254 -14.6946 3
    endloop
  endfacet
  facet normal -0.975917 -0.218143 0
    outer loop
      vertex -24.2146 -6.21725 0
      vertex -24.5572 -4.68453 3
      vertex -24.5572 -4.68453 0
    endloop
  endfacet
  facet normal -0.975917 -0.218143 0
    outer loop
      vertex -24.5572 -4.68453 3
      vertex -24.2146 -6.21725 0
      vertex -24.2146 -6.21725 3
    endloop
  endfacet
  facet normal 0 0 -1
    outer loop
      vertex -15.9356 19.2628 0
      vertex -18 3.00222 0
      vertex -17.1137 18.2242 0
    endloop
  endfacet
  facet normal 0 0 -1
    outer loop
      vertex -18 3.00222 0
      vertex -18.2242 17.1137 0
      vertex -17.1137 18.2242 0
    endloop
  endfacet
  facet normal 0 0 -1
    outer loop
      vertex -18 3.00222 0
      vertex -19.2628 15.9356 0
      vertex -18.2242 17.1137 0
    endloop
  endfacet
  facet normal 0 0 -1
    outer loop
      vertex -18 3.00222 0
      vertex -20.2254 14.6946 0
      vertex -19.2628 15.9356 0
    endloop
  endfacet
  facet normal 0 0 -1
    outer loop
      vertex -21.9077 12.0438 0
      vertex -18 3.00222 0
      vertex -20.6 4.50333 0
    endloop
  endfacet
  facet normal 0 0 -1
    outer loop
      vertex -18 -3.00221 0
      vertex -21.9077 -12.0438 0
      vertex -20.6 -4.50332 0
    endloop
  endfacet
  facet normal 0 0 -1
    outer loop
      vertex -18 3.00222 0
      vertex -21.1082 13.3957 0
      vertex -20.2254 14.6946 0
    endloop
  endfacet
  facet normal 0 0 -1
    outer loop
      vertex -22.6207 -10.6445 0
      vertex -20.6 -4.50332 0
      vertex -21.9077 -12.0438 0
    endloop
  endfacet
  facet normal 0 0 -1
    outer loop
      vertex -23.2444 -9.20311 0
      vertex -20.6 -4.50332 0
      vertex -22.6207 -10.6445 0
    endloop
  endfacet
  facet normal 0 0 -1
    outer loop
      vertex -18 3.00222 0
      vertex -21.9077 12.0438 0
      vertex -21.1082 13.3957 0
    endloop
  endfacet
  facet normal 0 0 -1
    outer loop
      vertex -23.7764 -7.72542 0
      vertex -20.6 -4.50332 0
      vertex -23.2444 -9.20311 0
    endloop
  endfacet
  facet normal 0 0 -1
    outer loop
      vertex -20.6 4.50333 0
      vertex -22.6207 10.6445 0
      vertex -21.9077 12.0438 0
    endloop
  endfacet
  facet normal 0 0 -1
    outer loop
      vertex -24.2146 -6.21725 0
      vertex -20.6 -4.50332 0
      vertex -23.7764 -7.72542 0
    endloop
  endfacet
  facet normal 0 0 -1
    outer loop
      vertex -20.6 4.50333 0
      vertex -23.2444 9.20311 0
      vertex -22.6207 10.6445 0
    endloop
  endfacet
  facet normal 0 0 -1
    outer loop
      vertex -24.5572 -4.68453 0
      vertex -20.6 -4.50332 0
      vertex -24.2146 -6.21725 0
    endloop
  endfacet
  facet normal 0 0 -1
    outer loop
      vertex -20.6 4.50333 0
      vertex -23.7764 7.72542 0
      vertex -23.2444 9.20311 0
    endloop
  endfacet
  facet normal 0 0 -1
    outer loop
      vertex -24.8029 -3.13333 0
      vertex -20.6 -4.50332 0
      vertex -24.5572 -4.68453 0
    endloop
  endfacet
  facet normal 0 0 -1
    outer loop
      vertex -20.6 4.50333 0
      vertex -24.2146 6.21725 0
      vertex -23.7764 7.72542 0
    endloop
  endfacet
  facet normal 0 0 -1
    outer loop
      vertex -24.9507 -1.56976 0
      vertex -20.6 -4.50332 0
      vertex -24.8029 -3.13333 0
    endloop
  endfacet
  facet normal 0 0 -1
    outer loop
      vertex -20.6 4.50333 0
      vertex -24.5572 4.68453 0
      vertex -24.2146 6.21725 0
    endloop
  endfacet
  facet normal 0 0 -1
    outer loop
      vertex -25 0 0
      vertex -20.6 -4.50332 0
      vertex -24.9507 -1.56976 0
    endloop
  endfacet
  facet normal -0 0 -1
    outer loop
      vertex -20.6 4.50333 0
      vertex -24.8029 3.13333 0
      vertex -24.5572 4.68453 0
    endloop
  endfacet
  facet normal 0 0 -1
    outer loop
      vertex -20.6 -4.50332 0
      vertex -25 0 0
      vertex -20.6 4.50333 0
    endloop
  endfacet
  facet normal 0 0 -1
    outer loop
      vertex -20.6 4.50333 0
      vertex -24.9507 1.56976 0
      vertex -24.8029 3.13333 0
    endloop
  endfacet
  facet normal 0 0 -1
    outer loop
      vertex -20.6 4.50333 0
      vertex -25 0 0
      vertex -24.9507 1.56976 0
    endloop
  endfacet
  facet normal 0 0 -1
    outer loop
      vertex 18 -3.00221 0
      vertex 25 0 0
      vertex 24.9507 -1.56976 0
    endloop
  endfacet
  facet normal 0 0 -1
    outer loop
      vertex 18 -3.00221 0
      vertex 24.9507 -1.56976 0
      vertex 24.8029 -3.13333 0
    endloop
  endfacet
  facet normal 0 0 -1
    outer loop
      vertex 18 3.00222 0
      vertex 25 0 0
      vertex 18 -3.00221 0
    endloop
  endfacet
  facet normal 0 0 -1
    outer loop
      vertex 18 -3.00221 0
      vertex 24.8029 -3.13333 0
      vertex 24.5572 -4.68453 0
    endloop
  endfacet
  facet normal 0 0 -1
    outer loop
      vertex 25 0 0
      vertex 18 3.00222 0
      vertex 24.9507 1.56976 0
    endloop
  endfacet
  facet normal 0 0 -1
    outer loop
      vertex 18 -3.00221 0
      vertex 24.5572 -4.68453 0
      vertex 24.2146 -6.21725 0
    endloop
  endfacet
  facet normal 0 0 -1
    outer loop
      vertex 24.9507 1.56976 0
      vertex 18 3.00222 0
      vertex 24.8029 3.13333 0
    endloop
  endfacet
  facet normal 0 0 -1
    outer loop
      vertex 18 -3.00221 0
      vertex 24.2146 -6.21725 0
      vertex 23.7764 -7.72542 0
    endloop
  endfacet
  facet normal -0 0 -1
    outer loop
      vertex 24.8029 3.13333 0
      vertex 18 3.00222 0
      vertex 24.5572 4.68453 0
    endloop
  endfacet
  facet normal 0 0 -1
    outer loop
      vertex 18 -3.00221 0
      vertex 23.7764 -7.72542 0
      vertex 23.2444 -9.20311 0
    endloop
  endfacet
  facet normal -0 0 -1
    outer loop
      vertex 24.5572 4.68453 0
      vertex 18 3.00222 0
      vertex 24.2146 6.21725 0
    endloop
  endfacet
  facet normal 0 0 -1
    outer loop
      vertex 15.4 -4.50332 0
      vertex 23.2444 -9.20311 0
      vertex 22.6207 -10.6445 0
    endloop
  endfacet
  facet normal -0 0 -1
    outer loop
      vertex 24.2146 6.21725 0
      vertex 18 3.00222 0
      vertex 23.7764 7.72542 0
    endloop
  endfacet
  facet normal 0 0 -1
    outer loop
      vertex 15.4 -4.50332 0
      vertex 22.6207 -10.6445 0
      vertex 21.9077 -12.0438 0
    endloop
  endfacet
  facet normal -0 0 -1
    outer loop
      vertex 23.7764 7.72542 0
      vertex 18 3.00222 0
      vertex 23.2444 9.20311 0
    endloop
  endfacet
  facet normal 0 0 -1
    outer loop
      vertex 15.4 -4.50332 0
      vertex 21.9077 -12.0438 0
      vertex 21.1082 -13.3957 0
    endloop
  endfacet
  facet normal 0 0 -1
    outer loop
      vertex 15.4 4.50333 0
      vertex 23.2444 9.20311 0
      vertex 18 3.00222 0
    endloop
  endfacet
  facet normal 0 0 -1
    outer loop
      vertex 15.4 -4.50332 0
      vertex 21.1082 -13.3957 0
      vertex 20.2254 -14.6946 0
    endloop
  endfacet
  facet normal -0 0 -1
    outer loop
      vertex 23.2444 9.20311 0
      vertex 15.4 4.50333 0
      vertex 22.6207 10.6445 0
    endloop
  endfacet
  facet normal 0 0 -1
    outer loop
      vertex 15.4 -4.50332 0
      vertex 20.2254 -14.6946 0
      vertex 19.2628 -15.9356 0
    endloop
  endfacet
  facet normal -0 0 -1
    outer loop
      vertex 22.6207 10.6445 0
      vertex 15.4 4.50333 0
      vertex 21.9077 12.0438 0
    endloop
  endfacet
  facet normal 0 0 -1
    outer loop
      vertex 15.4 -4.50332 0
      vertex 19.2628 -15.9356 0
      vertex 18.2242 -17.1137 0
    endloop
  endfacet
  facet normal -0 0 -1
    outer loop
      vertex 21.9077 12.0438 0
      vertex 15.4 4.50333 0
      vertex 21.1082 13.3957 0
    endloop
  endfacet
  facet normal -0 0 -1
    outer loop
      vertex 21.1082 13.3957 0
      vertex 15.4 4.50333 0
      vertex 20.2254 14.6946 0
    endloop
  endfacet
  facet normal 0 0 -1
    outer loop
      vertex 15.4 -4.50332 0
      vertex 18.2242 -17.1137 0
      vertex 17.1137 -18.2242 0
    endloop
  endfacet
  facet normal 0 0 -1
    outer loop
      vertex 15.4 -4.50332 0
      vertex 17.1137 -18.2242 0
      vertex 15.9356 -19.2628 0
    endloop
  endfacet
  facet normal 0 0 -1
    outer loop
      vertex 23.2444 -9.20311 0
      vertex 15.4 -4.50332 0
      vertex 18 -3.00221 0
    endloop
  endfacet
  facet normal 0 -0 -1
    outer loop
      vertex 15.4 -4.50332 0
      vertex 15.9356 -19.2628 0
      vertex 14.6946 -20.2254 0
    endloop
  endfacet
  facet normal -0 0 -1
    outer loop
      vertex 20.2254 14.6946 0
      vertex 15.4 4.50333 0
      vertex 19.2628 15.9356 0
    endloop
  endfacet
  facet normal -0 0 -1
    outer loop
      vertex 19.2628 15.9356 0
      vertex 15.4 4.50333 0
      vertex 18.2242 17.1137 0
    endloop
  endfacet
  facet normal -0 0 -1
    outer loop
      vertex 18.2242 17.1137 0
      vertex 15.4 4.50333 0
      vertex 17.1137 18.2242 0
    endloop
  endfacet
  facet normal -0 0 -1
    outer loop
      vertex 17.1137 18.2242 0
      vertex 15.4 4.50333 0
      vertex 15.9356 19.2628 0
    endloop
  endfacet
  facet normal 0 0 -1
    outer loop
      vertex 13.3957 -21.1082 0
      vertex 15.4 -4.50332 0
      vertex 14.6946 -20.2254 0
    endloop
  endfacet
  facet normal 0 0 -1
    outer loop
      vertex 15.4 4.50333 0
      vertex 14.6946 20.2254 0
      vertex 15.9356 19.2628 0
    endloop
  endfacet
  facet normal 0 0 -1
    outer loop
      vertex 12.0438 -21.9077 0
      vertex 15.4 -4.50332 0
      vertex 13.3957 -21.1082 0
    endloop
  endfacet
  facet normal 0 0 -1
    outer loop
      vertex 10.6445 -22.6207 0
      vertex 15.4 -4.50332 0
      vertex 12.0438 -21.9077 0
    endloop
  endfacet
  facet normal 0 0 -1
    outer loop
      vertex -18 3.00222 0
      vertex 15.4 4.50333 0
      vertex -18 -3.00221 0
    endloop
  endfacet
  facet normal 0 0 -1
    outer loop
      vertex 9.20311 -23.2444 0
      vertex 15.4 -4.50332 0
      vertex 10.6445 -22.6207 0
    endloop
  endfacet
  facet normal 0 0 -1
    outer loop
      vertex 15.4 4.50333 0
      vertex 13.3957 21.1082 0
      vertex 14.6946 20.2254 0
    endloop
  endfacet
  facet normal 0 0 -1
    outer loop
      vertex 7.72542 -23.7764 0
      vertex 15.4 -4.50332 0
      vertex 9.20311 -23.2444 0
    endloop
  endfacet
  facet normal 0 0 -1
    outer loop
      vertex 15.4 4.50333 0
      vertex 12.0438 21.9077 0
      vertex 13.3957 21.1082 0
    endloop
  endfacet
  facet normal 0 0 -1
    outer loop
      vertex 6.21725 -24.2146 0
      vertex 15.4 -4.50332 0
      vertex 7.72542 -23.7764 0
    endloop
  endfacet
  facet normal 0 0 -1
    outer loop
      vertex 15.4 4.50333 0
      vertex 10.6445 22.6207 0
      vertex 12.0438 21.9077 0
    endloop
  endfacet
  facet normal 0 0 -1
    outer loop
      vertex 4.68453 -24.5572 0
      vertex 15.4 -4.50332 0
      vertex 6.21725 -24.2146 0
    endloop
  endfacet
  facet normal 0 0 -1
    outer loop
      vertex 15.4 4.50333 0
      vertex 9.20311 23.2444 0
      vertex 10.6445 22.6207 0
    endloop
  endfacet
  facet normal 0 0 -1
    outer loop
      vertex 3.13333 -24.8029 0
      vertex 15.4 -4.50332 0
      vertex 4.68453 -24.5572 0
    endloop
  endfacet
  facet normal 0 0 -1
    outer loop
      vertex 15.4 4.50333 0
      vertex 7.72542 23.7764 0
      vertex 9.20311 23.2444 0
    endloop
  endfacet
  facet normal 0 0 -1
    outer loop
      vertex 1.56976 -24.9507 0
      vertex 15.4 -4.50332 0
      vertex 3.13333 -24.8029 0
    endloop
  endfacet
  facet normal 0 0 -1
    outer loop
      vertex 15.4 4.50333 0
      vertex 6.21725 24.2146 0
      vertex 7.72542 23.7764 0
    endloop
  endfacet
  facet normal 0 0 -1
    outer loop
      vertex 0 -25 0
      vertex 15.4 -4.50332 0
      vertex 1.56976 -24.9507 0
    endloop
  endfacet
  facet normal 0 0 -1
    outer loop
      vertex 15.4 4.50333 0
      vertex 4.68453 24.5572 0
      vertex 6.21725 24.2146 0
    endloop
  endfacet
  facet normal 0 0 -1
    outer loop
      vertex 15.4 -4.50332 0
      vertex -18 -3.00221 0
      vertex 15.4 4.50333 0
    endloop
  endfacet
  facet normal 0 0 -1
    outer loop
      vertex 15.4 4.50333 0
      vertex 3.13333 24.8029 0
      vertex 4.68453 24.5572 0
    endloop
  endfacet
  facet normal 0 0 -1
    outer loop
      vertex -1.56976 -24.9507 0
      vertex 15.4 -4.50332 0
      vertex 0 -25 0
    endloop
  endfacet
  facet normal 0 0 -1
    outer loop
      vertex 15.4 4.50333 0
      vertex 1.56976 24.9507 0
      vertex 3.13333 24.8029 0
    endloop
  endfacet
  facet normal 0 0 -1
    outer loop
      vertex -3.13333 -24.8029 0
      vertex 15.4 -4.50332 0
      vertex -1.56976 -24.9507 0
    endloop
  endfacet
  facet normal 0 0 -1
    outer loop
      vertex 15.4 4.50333 0
      vertex 0 25 0
      vertex 1.56976 24.9507 0
    endloop
  endfacet
  facet normal 0 0 -1
    outer loop
      vertex -4.68453 -24.5572 0
      vertex 15.4 -4.50332 0
      vertex -3.13333 -24.8029 0
    endloop
  endfacet
  facet normal 0 0 -1
    outer loop
      vertex 15.4 4.50333 0
      vertex -1.56976 24.9507 0
      vertex 0 25 0
    endloop
  endfacet
  facet normal -0 0 -1
    outer loop
      vertex 15.4 -4.50332 0
      vertex -4.68453 -24.5572 0
      vertex -18 -3.00221 0
    endloop
  endfacet
  facet normal 0 0 -1
    outer loop
      vertex 15.4 4.50333 0
      vertex -3.13333 24.8029 0
      vertex -1.56976 24.9507 0
    endloop
  endfacet
  facet normal 0 0 -1
    outer loop
      vertex -18 -3.00221 0
      vertex -4.68453 -24.5572 0
      vertex -6.21725 -24.2146 0
    endloop
  endfacet
  facet normal 0 0 -1
    outer loop
      vertex 15.4 4.50333 0
      vertex -4.68453 24.5572 0
      vertex -3.13333 24.8029 0
    endloop
  endfacet
  facet normal 0 0 -1
    outer loop
      vertex -18 -3.00221 0
      vertex -6.21725 -24.2146 0
      vertex -7.72542 -23.7764 0
    endloop
  endfacet
  facet normal 0 0 -1
    outer loop
      vertex -18 3.00222 0
      vertex -4.68453 24.5572 0
      vertex 15.4 4.50333 0
    endloop
  endfacet
  facet normal 0 0 -1
    outer loop
      vertex -18 -3.00221 0
      vertex -7.72542 -23.7764 0
      vertex -9.20311 -23.2444 0
    endloop
  endfacet
  facet normal 0 0 -1
    outer loop
      vertex -4.68453 24.5572 0
      vertex -18 3.00222 0
      vertex -6.21725 24.2146 0
    endloop
  endfacet
  facet normal 0 0 -1
    outer loop
      vertex -18 -3.00221 0
      vertex -9.20311 -23.2444 0
      vertex -10.6445 -22.6207 0
    endloop
  endfacet
  facet normal 0 0 -1
    outer loop
      vertex -6.21725 24.2146 0
      vertex -18 3.00222 0
      vertex -7.72542 23.7764 0
    endloop
  endfacet
  facet normal 0 0 -1
    outer loop
      vertex -18 -3.00221 0
      vertex -10.6445 -22.6207 0
      vertex -12.0438 -21.9077 0
    endloop
  endfacet
  facet normal 0 0 -1
    outer loop
      vertex -7.72542 23.7764 0
      vertex -18 3.00222 0
      vertex -9.20311 23.2444 0
    endloop
  endfacet
  facet normal 0 0 -1
    outer loop
      vertex -18 -3.00221 0
      vertex -12.0438 -21.9077 0
      vertex -13.3957 -21.1082 0
    endloop
  endfacet
  facet normal 0 0 -1
    outer loop
      vertex -9.20311 23.2444 0
      vertex -18 3.00222 0
      vertex -10.6445 22.6207 0
    endloop
  endfacet
  facet normal 0 0 -1
    outer loop
      vertex -18 -3.00221 0
      vertex -13.3957 -21.1082 0
      vertex -14.6946 -20.2254 0
    endloop
  endfacet
  facet normal 0 0 -1
    outer loop
      vertex -10.6445 22.6207 0
      vertex -18 3.00222 0
      vertex -12.0438 21.9077 0
    endloop
  endfacet
  facet normal 0 0 -1
    outer loop
      vertex -18 -3.00221 0
      vertex -14.6946 -20.2254 0
      vertex -15.9356 -19.2628 0
    endloop
  endfacet
  facet normal 0 0 -1
    outer loop
      vertex -12.0438 21.9077 0
      vertex -18 3.00222 0
      vertex -13.3957 21.1082 0
    endloop
  endfacet
  facet normal 0 0 -1
    outer loop
      vertex -18 -3.00221 0
      vertex -15.9356 -19.2628 0
      vertex -17.1137 -18.2242 0
    endloop
  endfacet
  facet normal 0 0 -1
    outer loop
      vertex -13.3957 21.1082 0
      vertex -18 3.00222 0
      vertex -14.6946 20.2254 0
    endloop
  endfacet
  facet normal 0 0 -1
    outer loop
      vertex -14.6946 20.2254 0
      vertex -18 3.00222 0
      vertex -15.9356 19.2628 0
    endloop
  endfacet
  facet normal 0 0 -1
    outer loop
      vertex -18.2242 -17.1137 0
      vertex -18 -3.00221 0
      vertex -17.1137 -18.2242 0
    endloop
  endfacet
  facet normal 0 0 -1
    outer loop
      vertex -19.2628 -15.9356 0
      vertex -18 -3.00221 0
      vertex -18.2242 -17.1137 0
    endloop
  endfacet
  facet normal 0 0 -1
    outer loop
      vertex -20.2254 -14.6946 0
      vertex -18 -3.00221 0
      vertex -19.2628 -15.9356 0
    endloop
  endfacet
  facet normal 0 0 -1
    outer loop
      vertex -21.1082 -13.3957 0
      vertex -18 -3.00221 0
      vertex -20.2254 -14.6946 0
    endloop
  endfacet
  facet normal 0 0 -1
    outer loop
      vertex -21.9077 -12.0438 0
      vertex -18 -3.00221 0
      vertex -21.1082 -13.3957 0
    endloop
  endfacet
  facet normal 0.987688 0.156435 0
    outer loop
      vertex 24.8029 3.13333 3
      vertex 24.5572 4.68453 0
      vertex 24.5572 4.68453 3
    endloop
  endfacet
  facet normal 0.987688 0.156435 0
    outer loop
      vertex 24.5572 4.68453 0
      vertex 24.8029 3.13333 3
      vertex 24.8029 3.13333 0
    endloop
  endfacet
  facet normal 0.940881 0.338738 0
    outer loop
      vertex 23.7764 7.72542 3
      vertex 23.2444 9.20311 0
      vertex 23.2444 9.20311 3
    endloop
  endfacet
  facet normal 0.940881 0.338738 0
    outer loop
      vertex 23.2444 9.20311 0
      vertex 23.7764 7.72542 3
      vertex 23.7764 7.72542 0
    endloop
  endfacet
  facet normal 0.960294 0.278991 0
    outer loop
      vertex 24.2146 6.21725 3
      vertex 23.7764 7.72542 0
      vertex 23.7764 7.72542 3
    endloop
  endfacet
  facet normal 0.960294 0.278991 0
    outer loop
      vertex 23.7764 7.72542 0
      vertex 24.2146 6.21725 3
      vertex 24.2146 6.21725 0
    endloop
  endfacet
  facet normal 0.790155 0.612907 0
    outer loop
      vertex 20.2254 14.6946 3
      vertex 19.2628 15.9356 0
      vertex 19.2628 15.9356 3
    endloop
  endfacet
  facet normal 0.790155 0.612907 0
    outer loop
      vertex 19.2628 15.9356 0
      vertex 20.2254 14.6946 3
      vertex 20.2254 14.6946 0
    endloop
  endfacet
  facet normal 0.750112 0.661311 0
    outer loop
      vertex 19.2628 15.9356 3
      vertex 18.2242 17.1137 0
      vertex 18.2242 17.1137 3
    endloop
  endfacet
  facet normal 0.750112 0.661311 0
    outer loop
      vertex 18.2242 17.1137 0
      vertex 19.2628 15.9356 3
      vertex 19.2628 15.9356 0
    endloop
  endfacet
  facet normal 0.860742 0.509042 0
    outer loop
      vertex 21.9077 12.0438 3
      vertex 21.1082 13.3957 0
      vertex 21.1082 13.3957 3
    endloop
  endfacet
  facet normal 0.860742 0.509042 0
    outer loop
      vertex 21.1082 13.3957 0
      vertex 21.9077 12.0438 3
      vertex 21.9077 12.0438 0
    endloop
  endfacet
  facet normal 0.278991 0.960294 -0
    outer loop
      vertex 7.72542 23.7764 0
      vertex 6.21725 24.2146 3
      vertex 7.72542 23.7764 3
    endloop
  endfacet
  facet normal 0.278991 0.960294 0
    outer loop
      vertex 6.21725 24.2146 3
      vertex 7.72542 23.7764 0
      vertex 6.21725 24.2146 0
    endloop
  endfacet
  facet normal 0.338738 0.940881 -0
    outer loop
      vertex 9.20311 23.2444 0
      vertex 7.72542 23.7764 3
      vertex 9.20311 23.2444 3
    endloop
  endfacet
  facet normal 0.338738 0.940881 0
    outer loop
      vertex 7.72542 23.7764 3
      vertex 9.20311 23.2444 0
      vertex 7.72542 23.7764 0
    endloop
  endfacet
  facet normal 0.0941082 0.995562 -0
    outer loop
      vertex 3.13333 24.8029 0
      vertex 1.56976 24.9507 3
      vertex 3.13333 24.8029 3
    endloop
  endfacet
  facet normal 0.0941082 0.995562 0
    outer loop
      vertex 1.56976 24.9507 3
      vertex 3.13333 24.8029 0
      vertex 1.56976 24.9507 0
    endloop
  endfacet
  facet normal 0.509042 0.860742 -0
    outer loop
      vertex 13.3957 21.1082 0
      vertex 12.0438 21.9077 3
      vertex 13.3957 21.1082 3
    endloop
  endfacet
  facet normal 0.509042 0.860742 0
    outer loop
      vertex 12.0438 21.9077 3
      vertex 13.3957 21.1082 0
      vertex 12.0438 21.9077 0
    endloop
  endfacet
  facet normal 0.453991 0.891006 -0
    outer loop
      vertex 12.0438 21.9077 0
      vertex 10.6445 22.6207 3
      vertex 12.0438 21.9077 3
    endloop
  endfacet
  facet normal 0.453991 0.891006 0
    outer loop
      vertex 10.6445 22.6207 3
      vertex 12.0438 21.9077 0
      vertex 10.6445 22.6207 0
    endloop
  endfacet
  facet normal 0.661311 0.750112 -0
    outer loop
      vertex 17.1137 18.2242 0
      vertex 15.9356 19.2628 3
      vertex 17.1137 18.2242 3
    endloop
  endfacet
  facet normal 0.661311 0.750112 0
    outer loop
      vertex 15.9356 19.2628 3
      vertex 17.1137 18.2242 0
      vertex 15.9356 19.2628 0
    endloop
  endfacet
  facet normal -0.987688 0.156435 0
    outer loop
      vertex -24.8029 3.13333 0
      vertex -24.5572 4.68453 3
      vertex -24.5572 4.68453 0
    endloop
  endfacet
  facet normal -0.987688 0.156435 0
    outer loop
      vertex -24.5572 4.68453 3
      vertex -24.8029 3.13333 0
      vertex -24.8029 3.13333 3
    endloop
  endfacet
  facet normal -0.750112 0.661311 0
    outer loop
      vertex -19.2628 15.9356 0
      vertex -18.2242 17.1137 3
      vertex -18.2242 17.1137 0
    endloop
  endfacet
  facet normal -0.750112 0.661311 0
    outer loop
      vertex -18.2242 17.1137 3
      vertex -19.2628 15.9356 0
      vertex -19.2628 15.9356 3
    endloop
  endfacet
  facet normal -0.860742 0.509042 0
    outer loop
      vertex -21.9077 12.0438 0
      vertex -21.1082 13.3957 3
      vertex -21.1082 13.3957 0
    endloop
  endfacet
  facet normal -0.860742 0.509042 0
    outer loop
      vertex -21.1082 13.3957 3
      vertex -21.9077 12.0438 0
      vertex -21.9077 12.0438 3
    endloop
  endfacet
  facet normal -0.827081 0.562082 0
    outer loop
      vertex -21.1082 13.3957 0
      vertex -20.2254 14.6946 3
      vertex -20.2254 14.6946 0
    endloop
  endfacet
  facet normal -0.827081 0.562082 0
    outer loop
      vertex -20.2254 14.6946 3
      vertex -21.1082 13.3957 0
      vertex -21.1082 13.3957 3
    endloop
  endfacet
  facet normal -0.940881 0.338738 0
    outer loop
      vertex -23.7764 7.72542 0
      vertex -23.2444 9.20311 3
      vertex -23.2444 9.20311 0
    endloop
  endfacet
  facet normal -0.940881 0.338738 0
    outer loop
      vertex -23.2444 9.20311 3
      vertex -23.7764 7.72542 0
      vertex -23.7764 7.72542 3
    endloop
  endfacet
  facet normal -0.975917 0.218143 0
    outer loop
      vertex -24.5572 4.68453 0
      vertex -24.2146 6.21725 3
      vertex -24.2146 6.21725 0
    endloop
  endfacet
  facet normal -0.975917 0.218143 0
    outer loop
      vertex -24.2146 6.21725 3
      vertex -24.5572 4.68453 0
      vertex -24.5572 4.68453 3
    endloop
  endfacet
  facet normal -0.995562 0.0941082 0
    outer loop
      vertex -24.9507 1.56976 0
      vertex -24.8029 3.13333 3
      vertex -24.8029 3.13333 0
    endloop
  endfacet
  facet normal -0.995562 0.0941082 0
    outer loop
      vertex -24.8029 3.13333 3
      vertex -24.9507 1.56976 0
      vertex -24.9507 1.56976 3
    endloop
  endfacet
  facet normal 0 0 1
    outer loop
      vertex -12.8 5.08687e-06 3
      vertex -13.3957 -21.1082 3
      vertex -12.0438 -21.9077 3
    endloop
  endfacet
  facet normal 0 0 1
    outer loop
      vertex -12.8 5.08687e-06 3
      vertex -14.6946 -20.2254 3
      vertex -13.3957 -21.1082 3
    endloop
  endfacet
  facet normal 0 0 1
    outer loop
      vertex -12.8 5.08687e-06 3
      vertex -15.9356 -19.2628 3
      vertex -14.6946 -20.2254 3
    endloop
  endfacet
  facet normal 0 0 1
    outer loop
      vertex -12.8 5.08687e-06 3
      vertex -17.1137 -18.2242 3
      vertex -15.9356 -19.2628 3
    endloop
  endfacet
  facet normal 0 0 1
    outer loop
      vertex -12.8 5.08687e-06 3
      vertex -18.2242 -17.1137 3
      vertex -17.1137 -18.2242 3
    endloop
  endfacet
  facet normal 0 0 1
    outer loop
      vertex -12.8 5.08687e-06 3
      vertex -19.2628 -15.9356 3
      vertex -18.2242 -17.1137 3
    endloop
  endfacet
  facet normal 0 0 1
    outer loop
      vertex -12.8 5.08687e-06 3
      vertex -20.2254 -14.6946 3
      vertex -19.2628 -15.9356 3
    endloop
  endfacet
  facet normal -0 0 1
    outer loop
      vertex -20.6 -4.50332 3
      vertex -20.2254 -14.6946 3
      vertex -12.8 5.08687e-06 3
    endloop
  endfacet
  facet normal 0 0 1
    outer loop
      vertex -20.6 -4.50332 3
      vertex -21.1082 -13.3957 3
      vertex -20.2254 -14.6946 3
    endloop
  endfacet
  facet normal -0 0 1
    outer loop
      vertex -22.6207 10.6445 3
      vertex -20.6 4.50333 3
      vertex -21.9077 12.0438 3
    endloop
  endfacet
  facet normal -0 0 1
    outer loop
      vertex -23.2444 9.20311 3
      vertex -20.6 4.50333 3
      vertex -22.6207 10.6445 3
    endloop
  endfacet
  facet normal 0 0 1
    outer loop
      vertex -20.6 -4.50332 3
      vertex -21.9077 -12.0438 3
      vertex -21.1082 -13.3957 3
    endloop
  endfacet
  facet normal -0 0 1
    outer loop
      vertex -23.7764 7.72542 3
      vertex -20.6 4.50333 3
      vertex -23.2444 9.20311 3
    endloop
  endfacet
  facet normal 0 0 1
    outer loop
      vertex -20.6 -4.50332 3
      vertex -22.6207 -10.6445 3
      vertex -21.9077 -12.0438 3
    endloop
  endfacet
  facet normal -0 0 1
    outer loop
      vertex -24.2146 6.21725 3
      vertex -20.6 4.50333 3
      vertex -23.7764 7.72542 3
    endloop
  endfacet
  facet normal 0 0 1
    outer loop
      vertex -20.6 -4.50332 3
      vertex -23.2444 -9.20311 3
      vertex -22.6207 -10.6445 3
    endloop
  endfacet
  facet normal -0 0 1
    outer loop
      vertex -24.5572 4.68453 3
      vertex -20.6 4.50333 3
      vertex -24.2146 6.21725 3
    endloop
  endfacet
  facet normal 0 0 1
    outer loop
      vertex -20.6 -4.50332 3
      vertex -23.7764 -7.72542 3
      vertex -23.2444 -9.20311 3
    endloop
  endfacet
  facet normal 0 0 1
    outer loop
      vertex -24.8029 3.13333 3
      vertex -20.6 4.50333 3
      vertex -24.5572 4.68453 3
    endloop
  endfacet
  facet normal 0 0 1
    outer loop
      vertex -20.6 -4.50332 3
      vertex -24.2146 -6.21725 3
      vertex -23.7764 -7.72542 3
    endloop
  endfacet
  facet normal 0 0 1
    outer loop
      vertex -24.9507 1.56976 3
      vertex -20.6 4.50333 3
      vertex -24.8029 3.13333 3
    endloop
  endfacet
  facet normal 0 0 1
    outer loop
      vertex -20.6 -4.50332 3
      vertex -24.5572 -4.68453 3
      vertex -24.2146 -6.21725 3
    endloop
  endfacet
  facet normal 0 0 1
    outer loop
      vertex -25 0 3
      vertex -20.6 4.50333 3
      vertex -24.9507 1.56976 3
    endloop
  endfacet
  facet normal 0 0 1
    outer loop
      vertex -20.6 -4.50332 3
      vertex -24.8029 -3.13333 3
      vertex -24.5572 -4.68453 3
    endloop
  endfacet
  facet normal 0 0 1
    outer loop
      vertex -20.6 4.50333 3
      vertex -25 0 3
      vertex -20.6 -4.50332 3
    endloop
  endfacet
  facet normal 0 0 1
    outer loop
      vertex -20.6 -4.50332 3
      vertex -24.9507 -1.56976 3
      vertex -24.8029 -3.13333 3
    endloop
  endfacet
  facet normal 0 0 1
    outer loop
      vertex -20.6 -4.50332 3
      vertex -25 0 3
      vertex -24.9507 -1.56976 3
    endloop
  endfacet
  facet normal -0 0 1
    outer loop
      vertex 23.2 5.08687e-06 3
      vertex 25 0 3
      vertex 24.9507 1.56976 3
    endloop
  endfacet
  facet normal 0 0 1
    outer loop
      vertex 23.2 5.08687e-06 3
      vertex 24.9507 1.56976 3
      vertex 24.8029 3.13333 3
    endloop
  endfacet
  facet normal 0 0 1
    outer loop
      vertex 25 0 3
      vertex 23.2 5.08687e-06 3
      vertex 24.9507 -1.56976 3
    endloop
  endfacet
  facet normal 0 0 1
    outer loop
      vertex 23.2 5.08687e-06 3
      vertex 24.8029 3.13333 3
      vertex 24.5572 4.68453 3
    endloop
  endfacet
  facet normal 0 0 1
    outer loop
      vertex 24.9507 -1.56976 3
      vertex 23.2 5.08687e-06 3
      vertex 24.8029 -3.13333 3
    endloop
  endfacet
  facet normal 0 0 1
    outer loop
      vertex 15.4 4.50333 3
      vertex 24.5572 4.68453 3
      vertex 24.2146 6.21725 3
    endloop
  endfacet
  facet normal 0 0 1
    outer loop
      vertex 24.8029 -3.13333 3
      vertex 23.2 5.08687e-06 3
      vertex 24.5572 -4.68453 3
    endloop
  endfacet
  facet normal 0 0 1
    outer loop
      vertex 15.4 4.50333 3
      vertex 24.2146 6.21725 3
      vertex 23.7764 7.72542 3
    endloop
  endfacet
  facet normal -0 0 1
    outer loop
      vertex 15.4 -4.50332 3
      vertex 24.5572 -4.68453 3
      vertex 23.2 5.08687e-06 3
    endloop
  endfacet
  facet normal 0 0 1
    outer loop
      vertex 15.4 4.50333 3
      vertex 23.7764 7.72542 3
      vertex 23.2444 9.20311 3
    endloop
  endfacet
  facet normal 0 0 1
    outer loop
      vertex 24.5572 -4.68453 3
      vertex 15.4 -4.50332 3
      vertex 24.2146 -6.21725 3
    endloop
  endfacet
  facet normal 0 0 1
    outer loop
      vertex 24.2146 -6.21725 3
      vertex 15.4 -4.50332 3
      vertex 23.7764 -7.72542 3
    endloop
  endfacet
  facet normal 0 0 1
    outer loop
      vertex 15.4 4.50333 3
      vertex 23.2444 9.20311 3
      vertex 22.6207 10.6445 3
    endloop
  endfacet
  facet normal 0 0 1
    outer loop
      vertex 15.4 4.50333 3
      vertex 22.6207 10.6445 3
      vertex 21.9077 12.0438 3
    endloop
  endfacet
  facet normal 0 0 1
    outer loop
      vertex 15.4 4.50333 3
      vertex 21.9077 12.0438 3
      vertex 21.1082 13.3957 3
    endloop
  endfacet
  facet normal 0 0 1
    outer loop
      vertex 15.4 4.50333 3
      vertex 21.1082 13.3957 3
      vertex 20.2254 14.6946 3
    endloop
  endfacet
  facet normal 0 0 1
    outer loop
      vertex 15.4 4.50333 3
      vertex 20.2254 14.6946 3
      vertex 19.2628 15.9356 3
    endloop
  endfacet
  facet normal 0 0 1
    outer loop
      vertex 15.4 4.50333 3
      vertex 19.2628 15.9356 3
      vertex 18.2242 17.1137 3
    endloop
  endfacet
  facet normal 0 0 1
    outer loop
      vertex 15.4 4.50333 3
      vertex 18.2242 17.1137 3
      vertex 17.1137 18.2242 3
    endloop
  endfacet
  facet normal 0 0 1
    outer loop
      vertex 15.4 4.50333 3
      vertex 17.1137 18.2242 3
      vertex 15.9356 19.2628 3
    endloop
  endfacet
  facet normal 0 0 1
    outer loop
      vertex 24.5572 4.68453 3
      vertex 15.4 4.50333 3
      vertex 23.2 5.08687e-06 3
    endloop
  endfacet
  facet normal 0 0 1
    outer loop
      vertex 13.3957 21.1082 3
      vertex 15.4 4.50333 3
      vertex 14.6946 20.2254 3
    endloop
  endfacet
  facet normal 0 0 1
    outer loop
      vertex 14.6946 20.2254 3
      vertex 15.4 4.50333 3
      vertex 15.9356 19.2628 3
    endloop
  endfacet
  facet normal 0 0 1
    outer loop
      vertex 23.7764 -7.72542 3
      vertex 15.4 -4.50332 3
      vertex 23.2444 -9.20311 3
    endloop
  endfacet
  facet normal 0 0 1
    outer loop
      vertex 23.2444 -9.20311 3
      vertex 15.4 -4.50332 3
      vertex 22.6207 -10.6445 3
    endloop
  endfacet
  facet normal 0 0 1
    outer loop
      vertex 22.6207 -10.6445 3
      vertex 15.4 -4.50332 3
      vertex 21.9077 -12.0438 3
    endloop
  endfacet
  facet normal 0 0 1
    outer loop
      vertex 21.9077 -12.0438 3
      vertex 15.4 -4.50332 3
      vertex 21.1082 -13.3957 3
    endloop
  endfacet
  facet normal 0 0 1
    outer loop
      vertex 21.1082 -13.3957 3
      vertex 15.4 -4.50332 3
      vertex 20.2254 -14.6946 3
    endloop
  endfacet
  facet normal 0 0 1
    outer loop
      vertex 20.2254 -14.6946 3
      vertex 15.4 -4.50332 3
      vertex 19.2628 -15.9356 3
    endloop
  endfacet
  facet normal 0 0 1
    outer loop
      vertex 19.2628 -15.9356 3
      vertex 15.4 -4.50332 3
      vertex 18.2242 -17.1137 3
    endloop
  endfacet
  facet normal 0 0 1
    outer loop
      vertex 18.2242 -17.1137 3
      vertex 15.4 -4.50332 3
      vertex 17.1137 -18.2242 3
    endloop
  endfacet
  facet normal 0 0 1
    outer loop
      vertex 17.1137 -18.2242 3
      vertex 15.4 -4.50332 3
      vertex 15.9356 -19.2628 3
    endloop
  endfacet
  facet normal 0 0 1
    outer loop
      vertex 15.4 -4.50332 3
      vertex 14.6946 -20.2254 3
      vertex 15.9356 -19.2628 3
    endloop
  endfacet
  facet normal 0 0 1
    outer loop
      vertex 12.0438 21.9077 3
      vertex 15.4 4.50333 3
      vertex 13.3957 21.1082 3
    endloop
  endfacet
  facet normal 0 0 1
    outer loop
      vertex 10.6445 22.6207 3
      vertex 15.4 4.50333 3
      vertex 12.0438 21.9077 3
    endloop
  endfacet
  facet normal 0 -0 1
    outer loop
      vertex 1.56976 -24.9507 3
      vertex 15.4 -4.50332 3
      vertex -12.8 5.08687e-06 3
    endloop
  endfacet
  facet normal 0 0 1
    outer loop
      vertex 9.20311 23.2444 3
      vertex 15.4 4.50333 3
      vertex 10.6445 22.6207 3
    endloop
  endfacet
  facet normal 0 0 1
    outer loop
      vertex 15.4 -4.50332 3
      vertex 13.3957 -21.1082 3
      vertex 14.6946 -20.2254 3
    endloop
  endfacet
  facet normal 0 0 1
    outer loop
      vertex 7.72542 23.7764 3
      vertex 15.4 4.50333 3
      vertex 9.20311 23.2444 3
    endloop
  endfacet
  facet normal 0 0 1
    outer loop
      vertex 15.4 -4.50332 3
      vertex 12.0438 -21.9077 3
      vertex 13.3957 -21.1082 3
    endloop
  endfacet
  facet normal 0 0 1
    outer loop
      vertex 15.4 4.50333 3
      vertex -12.8 5.08687e-06 3
      vertex 15.4 -4.50332 3
    endloop
  endfacet
  facet normal 0 0 1
    outer loop
      vertex 15.4 -4.50332 3
      vertex 10.6445 -22.6207 3
      vertex 12.0438 -21.9077 3
    endloop
  endfacet
  facet normal 0 0 1
    outer loop
      vertex 6.21725 24.2146 3
      vertex 15.4 4.50333 3
      vertex 7.72542 23.7764 3
    endloop
  endfacet
  facet normal 0 0 1
    outer loop
      vertex 15.4 -4.50332 3
      vertex 9.20311 -23.2444 3
      vertex 10.6445 -22.6207 3
    endloop
  endfacet
  facet normal 0 0 1
    outer loop
      vertex 4.68453 24.5572 3
      vertex 15.4 4.50333 3
      vertex 6.21725 24.2146 3
    endloop
  endfacet
  facet normal 0 0 1
    outer loop
      vertex 15.4 -4.50332 3
      vertex 7.72542 -23.7764 3
      vertex 9.20311 -23.2444 3
    endloop
  endfacet
  facet normal 0 0 1
    outer loop
      vertex 3.13333 24.8029 3
      vertex 15.4 4.50333 3
      vertex 4.68453 24.5572 3
    endloop
  endfacet
  facet normal 0 0 1
    outer loop
      vertex 15.4 -4.50332 3
      vertex 6.21725 -24.2146 3
      vertex 7.72542 -23.7764 3
    endloop
  endfacet
  facet normal 0 0 1
    outer loop
      vertex 1.56976 24.9507 3
      vertex 15.4 4.50333 3
      vertex 3.13333 24.8029 3
    endloop
  endfacet
  facet normal 0 0 1
    outer loop
      vertex 15.4 -4.50332 3
      vertex 4.68453 -24.5572 3
      vertex 6.21725 -24.2146 3
    endloop
  endfacet
  facet normal 0 0 1
    outer loop
      vertex 15.4 4.50333 3
      vertex 1.56976 24.9507 3
      vertex -12.8 5.08687e-06 3
    endloop
  endfacet
  facet normal 0 0 1
    outer loop
      vertex 15.4 -4.50332 3
      vertex 3.13333 -24.8029 3
      vertex 4.68453 -24.5572 3
    endloop
  endfacet
  facet normal 0 0 1
    outer loop
      vertex -12.8 5.08687e-06 3
      vertex 1.56976 24.9507 3
      vertex 0 25 3
    endloop
  endfacet
  facet normal 0 0 1
    outer loop
      vertex 15.4 -4.50332 3
      vertex 1.56976 -24.9507 3
      vertex 3.13333 -24.8029 3
    endloop
  endfacet
  facet normal 0 0 1
    outer loop
      vertex -12.8 5.08687e-06 3
      vertex 0 25 3
      vertex -1.56976 24.9507 3
    endloop
  endfacet
  facet normal 0 0 1
    outer loop
      vertex 1.56976 -24.9507 3
      vertex -12.8 5.08687e-06 3
      vertex 0 -25 3
    endloop
  endfacet
  facet normal 0 0 1
    outer loop
      vertex -12.8 5.08687e-06 3
      vertex -1.56976 24.9507 3
      vertex -3.13333 24.8029 3
    endloop
  endfacet
  facet normal 0 0 1
    outer loop
      vertex 0 -25 3
      vertex -12.8 5.08687e-06 3
      vertex -1.56976 -24.9507 3
    endloop
  endfacet
  facet normal 0 0 1
    outer loop
      vertex -12.8 5.08687e-06 3
      vertex -3.13333 24.8029 3
      vertex -4.68453 24.5572 3
    endloop
  endfacet
  facet normal 0 0 1
    outer loop
      vertex -1.56976 -24.9507 3
      vertex -12.8 5.08687e-06 3
      vertex -3.13333 -24.8029 3
    endloop
  endfacet
  facet normal 0 0 1
    outer loop
      vertex -12.8 5.08687e-06 3
      vertex -4.68453 24.5572 3
      vertex -6.21725 24.2146 3
    endloop
  endfacet
  facet normal 0 0 1
    outer loop
      vertex -3.13333 -24.8029 3
      vertex -12.8 5.08687e-06 3
      vertex -4.68453 -24.5572 3
    endloop
  endfacet
  facet normal 0 0 1
    outer loop
      vertex -12.8 5.08687e-06 3
      vertex -6.21725 24.2146 3
      vertex -7.72542 23.7764 3
    endloop
  endfacet
  facet normal 0 0 1
    outer loop
      vertex -4.68453 -24.5572 3
      vertex -12.8 5.08687e-06 3
      vertex -6.21725 -24.2146 3
    endloop
  endfacet
  facet normal 0 0 1
    outer loop
      vertex -12.8 5.08687e-06 3
      vertex -7.72542 23.7764 3
      vertex -9.20311 23.2444 3
    endloop
  endfacet
  facet normal 0 0 1
    outer loop
      vertex -6.21725 -24.2146 3
      vertex -12.8 5.08687e-06 3
      vertex -7.72542 -23.7764 3
    endloop
  endfacet
  facet normal 0 0 1
    outer loop
      vertex -12.8 5.08687e-06 3
      vertex -9.20311 23.2444 3
      vertex -10.6445 22.6207 3
    endloop
  endfacet
  facet normal 0 0 1
    outer loop
      vertex -7.72542 -23.7764 3
      vertex -12.8 5.08687e-06 3
      vertex -9.20311 -23.2444 3
    endloop
  endfacet
  facet normal 0 0 1
    outer loop
      vertex -12.8 5.08687e-06 3
      vertex -10.6445 22.6207 3
      vertex -12.0438 21.9077 3
    endloop
  endfacet
  facet normal 0 0 1
    outer loop
      vertex -9.20311 -23.2444 3
      vertex -12.8 5.08687e-06 3
      vertex -10.6445 -22.6207 3
    endloop
  endfacet
  facet normal 0 0 1
    outer loop
      vertex -10.6445 -22.6207 3
      vertex -12.8 5.08687e-06 3
      vertex -12.0438 -21.9077 3
    endloop
  endfacet
  facet normal -0 0 1
    outer loop
      vertex -13.3957 21.1082 3
      vertex -12.8 5.08687e-06 3
      vertex -12.0438 21.9077 3
    endloop
  endfacet
  facet normal -0 0 1
    outer loop
      vertex -14.6946 20.2254 3
      vertex -12.8 5.08687e-06 3
      vertex -13.3957 21.1082 3
    endloop
  endfacet
  facet normal -0 0 1
    outer loop
      vertex -15.9356 19.2628 3
      vertex -12.8 5.08687e-06 3
      vertex -14.6946 20.2254 3
    endloop
  endfacet
  facet normal -0 0 1
    outer loop
      vertex -17.1137 18.2242 3
      vertex -12.8 5.08687e-06 3
      vertex -15.9356 19.2628 3
    endloop
  endfacet
  facet normal -0 0 1
    outer loop
      vertex -18.2242 17.1137 3
      vertex -12.8 5.08687e-06 3
      vertex -17.1137 18.2242 3
    endloop
  endfacet
  facet normal -0 0 1
    outer loop
      vertex -19.2628 15.9356 3
      vertex -12.8 5.08687e-06 3
      vertex -18.2242 17.1137 3
    endloop
  endfacet
  facet normal -0 0 1
    outer loop
      vertex -20.2254 14.6946 3
      vertex -12.8 5.08687e-06 3
      vertex -19.2628 15.9356 3
    endloop
  endfacet
  facet normal 0 0 1
    outer loop
      vertex -20.2254 14.6946 3
      vertex -20.6 4.50333 3
      vertex -12.8 5.08687e-06 3
    endloop
  endfacet
  facet normal -0 0 1
    outer loop
      vertex -21.9077 12.0438 3
      vertex -20.6 4.50333 3
      vertex -21.1082 13.3957 3
    endloop
  endfacet
  facet normal -0 0 1
    outer loop
      vertex -21.1082 13.3957 3
      vertex -20.6 4.50333 3
      vertex -20.2254 14.6946 3
    endloop
  endfacet
  facet normal -0.453991 0.891006 0
    outer loop
      vertex -10.6445 22.6207 0
      vertex -12.0438 21.9077 3
      vertex -10.6445 22.6207 3
    endloop
  endfacet
  facet normal -0.453991 0.891006 0
    outer loop
      vertex -12.0438 21.9077 3
      vertex -10.6445 22.6207 0
      vertex -12.0438 21.9077 0
    endloop
  endfacet
  facet normal -0.612907 0.790155 0
    outer loop
      vertex -14.6946 20.2254 0
      vertex -15.9356 19.2628 3
      vertex -14.6946 20.2254 3
    endloop
  endfacet
  facet normal -0.612907 0.790155 0
    outer loop
      vertex -15.9356 19.2628 3
      vertex -14.6946 20.2254 0
      vertex -15.9356 19.2628 0
    endloop
  endfacet
  facet normal -0.278991 0.960294 0
    outer loop
      vertex -6.21725 24.2146 0
      vertex -7.72542 23.7764 3
      vertex -6.21725 24.2146 3
    endloop
  endfacet
  facet normal -0.278991 0.960294 0
    outer loop
      vertex -7.72542 23.7764 3
      vertex -6.21725 24.2146 0
      vertex -7.72542 23.7764 0
    endloop
  endfacet
  facet normal -0.0314107 0.999507 0
    outer loop
      vertex 0 25 0
      vertex -1.56976 24.9507 3
      vertex 0 25 3
    endloop
  endfacet
  facet normal -0.0314107 0.999507 0
    outer loop
      vertex -1.56976 24.9507 3
      vertex 0 25 0
      vertex -1.56976 24.9507 0
    endloop
  endfacet
  facet normal 0.999507 -0.0314107 0
    outer loop
      vertex 24.9507 -1.56976 3
      vertex 25 0 0
      vertex 25 0 3
    endloop
  endfacet
  facet normal 0.999507 -0.0314107 0
    outer loop
      vertex 25 0 0
      vertex 24.9507 -1.56976 3
      vertex 24.9507 -1.56976 0
    endloop
  endfacet
  facet normal 0.0314107 -0.999507 0
    outer loop
      vertex 0 -25 0
      vertex 1.56976 -24.9507 3
      vertex 0 -25 3
    endloop
  endfacet
  facet normal 0.0314107 -0.999507 0
    outer loop
      vertex 1.56976 -24.9507 3
      vertex 0 -25 0
      vertex 1.56976 -24.9507 0
    endloop
  endfacet
  facet normal 0.156435 -0.987688 0
    outer loop
      vertex 3.13333 -24.8029 0
      vertex 4.68453 -24.5572 3
      vertex 3.13333 -24.8029 3
    endloop
  endfacet
  facet normal 0.156435 -0.987688 0
    outer loop
      vertex 4.68453 -24.5572 3
      vertex 3.13333 -24.8029 0
      vertex 4.68453 -24.5572 0
    endloop
  endfacet
  facet normal 0.397148 -0.917755 0
    outer loop
      vertex 9.20311 -23.2444 0
      vertex 10.6445 -22.6207 3
      vertex 9.20311 -23.2444 3
    endloop
  endfacet
  facet normal 0.397148 -0.917755 0
    outer loop
      vertex 10.6445 -22.6207 3
      vertex 9.20311 -23.2444 0
      vertex 10.6445 -22.6207 0
    endloop
  endfacet
  facet normal 0.278991 -0.960294 0
    outer loop
      vertex 6.21725 -24.2146 0
      vertex 7.72542 -23.7764 3
      vertex 6.21725 -24.2146 3
    endloop
  endfacet
  facet normal 0.278991 -0.960294 0
    outer loop
      vertex 7.72542 -23.7764 3
      vertex 6.21725 -24.2146 0
      vertex 7.72542 -23.7764 0
    endloop
  endfacet
  facet normal 0.612907 -0.790155 0
    outer loop
      vertex 14.6946 -20.2254 0
      vertex 15.9356 -19.2628 3
      vertex 14.6946 -20.2254 3
    endloop
  endfacet
  facet normal 0.612907 -0.790155 0
    outer loop
      vertex 15.9356 -19.2628 3
      vertex 14.6946 -20.2254 0
      vertex 15.9356 -19.2628 0
    endloop
  endfacet
  facet normal 0.707107 -0.707107 0
    outer loop
      vertex 17.1137 -18.2242 3
      vertex 18.2242 -17.1137 0
      vertex 18.2242 -17.1137 3
    endloop
  endfacet
  facet normal 0.707107 -0.707107 0
    outer loop
      vertex 18.2242 -17.1137 0
      vertex 17.1137 -18.2242 3
      vertex 17.1137 -18.2242 0
    endloop
  endfacet
  facet normal 0.509042 -0.860742 0
    outer loop
      vertex 12.0438 -21.9077 0
      vertex 13.3957 -21.1082 3
      vertex 12.0438 -21.9077 3
    endloop
  endfacet
  facet normal 0.509042 -0.860742 0
    outer loop
      vertex 13.3957 -21.1082 3
      vertex 12.0438 -21.9077 0
      vertex 13.3957 -21.1082 0
    endloop
  endfacet
  facet normal 0.750112 -0.661311 0
    outer loop
      vertex 18.2242 -17.1137 3
      vertex 19.2628 -15.9356 0
      vertex 19.2628 -15.9356 3
    endloop
  endfacet
  facet normal 0.750112 -0.661311 0
    outer loop
      vertex 19.2628 -15.9356 0
      vertex 18.2242 -17.1137 3
      vertex 18.2242 -17.1137 0
    endloop
  endfacet
  facet normal 0.827081 -0.562082 0
    outer loop
      vertex 20.2254 -14.6946 3
      vertex 21.1082 -13.3957 0
      vertex 21.1082 -13.3957 3
    endloop
  endfacet
  facet normal 0.827081 -0.562082 0
    outer loop
      vertex 21.1082 -13.3957 0
      vertex 20.2254 -14.6946 3
      vertex 20.2254 -14.6946 0
    endloop
  endfacet
  facet normal 0.917755 -0.397148 0
    outer loop
      vertex 22.6207 -10.6445 3
      vertex 23.2444 -9.20311 0
      vertex 23.2444 -9.20311 3
    endloop
  endfacet
  facet normal 0.917755 -0.397148 0
    outer loop
      vertex 23.2444 -9.20311 0
      vertex 22.6207 -10.6445 3
      vertex 22.6207 -10.6445 0
    endloop
  endfacet
  facet normal 0.860742 -0.509042 0
    outer loop
      vertex 21.1082 -13.3957 3
      vertex 21.9077 -12.0438 0
      vertex 21.9077 -12.0438 3
    endloop
  endfacet
  facet normal 0.860742 -0.509042 0
    outer loop
      vertex 21.9077 -12.0438 0
      vertex 21.1082 -13.3957 3
      vertex 21.1082 -13.3957 0
    endloop
  endfacet
  facet normal 0.987688 -0.156435 0
    outer loop
      vertex 24.5572 -4.68453 3
      vertex 24.8029 -3.13333 0
      vertex 24.8029 -3.13333 3
    endloop
  endfacet
  facet normal 0.987688 -0.156435 0
    outer loop
      vertex 24.8029 -3.13333 0
      vertex 24.5572 -4.68453 3
      vertex 24.5572 -4.68453 0
    endloop
  endfacet
  facet normal 0.940881 -0.338738 0
    outer loop
      vertex 23.2444 -9.20311 3
      vertex 23.7764 -7.72542 0
      vertex 23.7764 -7.72542 3
    endloop
  endfacet
  facet normal 0.940881 -0.338738 0
    outer loop
      vertex 23.7764 -7.72542 0
      vertex 23.2444 -9.20311 3
      vertex 23.2444 -9.20311 0
    endloop
  endfacet
  facet normal -0.661311 -0.750112 0
    outer loop
      vertex -17.1137 -18.2242 0
      vertex -15.9356 -19.2628 3
      vertex -17.1137 -18.2242 3
    endloop
  endfacet
  facet normal -0.661311 -0.750112 -0
    outer loop
      vertex -15.9356 -19.2628 3
      vertex -17.1137 -18.2242 0
      vertex -15.9356 -19.2628 0
    endloop
  endfacet
  facet normal -0.453991 -0.891006 0
    outer loop
      vertex -12.0438 -21.9077 0
      vertex -10.6445 -22.6207 3
      vertex -12.0438 -21.9077 3
    endloop
  endfacet
  facet normal -0.453991 -0.891006 -0
    outer loop
      vertex -10.6445 -22.6207 3
      vertex -12.0438 -21.9077 0
      vertex -10.6445 -22.6207 0
    endloop
  endfacet
  facet normal -0.562082 -0.827081 0
    outer loop
      vertex -14.6946 -20.2254 0
      vertex -13.3957 -21.1082 3
      vertex -14.6946 -20.2254 3
    endloop
  endfacet
  facet normal -0.562082 -0.827081 -0
    outer loop
      vertex -13.3957 -21.1082 3
      vertex -14.6946 -20.2254 0
      vertex -13.3957 -21.1082 0
    endloop
  endfacet
  facet normal -0.338738 -0.940881 0
    outer loop
      vertex -9.20311 -23.2444 0
      vertex -7.72542 -23.7764 3
      vertex -9.20311 -23.2444 3
    endloop
  endfacet
  facet normal -0.338738 -0.940881 -0
    outer loop
      vertex -7.72542 -23.7764 3
      vertex -9.20311 -23.2444 0
      vertex -7.72542 -23.7764 0
    endloop
  endfacet
  facet normal -0.218143 -0.975917 0
    outer loop
      vertex -6.21725 -24.2146 0
      vertex -4.68453 -24.5572 3
      vertex -6.21725 -24.2146 3
    endloop
  endfacet
  facet normal -0.218143 -0.975917 -0
    outer loop
      vertex -4.68453 -24.5572 3
      vertex -6.21725 -24.2146 0
      vertex -4.68453 -24.5572 0
    endloop
  endfacet
  facet normal -0.0941082 -0.995562 0
    outer loop
      vertex -3.13333 -24.8029 0
      vertex -1.56976 -24.9507 3
      vertex -3.13333 -24.8029 3
    endloop
  endfacet
  facet normal -0.0941082 -0.995562 -0
    outer loop
      vertex -1.56976 -24.9507 3
      vertex -3.13333 -24.8029 0
      vertex -1.56976 -24.9507 0
    endloop
  endfacet
  facet normal -0.891006 -0.453991 0
    outer loop
      vertex -21.9077 -12.0438 0
      vertex -22.6207 -10.6445 3
      vertex -22.6207 -10.6445 0
    endloop
  endfacet
  facet normal -0.891006 -0.453991 0
    outer loop
      vertex -22.6207 -10.6445 3
      vertex -21.9077 -12.0438 0
      vertex -21.9077 -12.0438 3
    endloop
  endfacet
  facet normal -0.790155 -0.612907 0
    outer loop
      vertex -19.2628 -15.9356 0
      vertex -20.2254 -14.6946 3
      vertex -20.2254 -14.6946 0
    endloop
  endfacet
  facet normal -0.790155 -0.612907 0
    outer loop
      vertex -20.2254 -14.6946 3
      vertex -19.2628 -15.9356 0
      vertex -19.2628 -15.9356 3
    endloop
  endfacet
  facet normal -0.960294 -0.278991 0
    outer loop
      vertex -23.7764 -7.72542 0
      vertex -24.2146 -6.21725 3
      vertex -24.2146 -6.21725 0
    endloop
  endfacet
  facet normal -0.960294 -0.278991 0
    outer loop
      vertex -24.2146 -6.21725 3
      vertex -23.7764 -7.72542 0
      vertex -23.7764 -7.72542 3
    endloop
  endfacet
  facet normal -0.987688 -0.156435 0
    outer loop
      vertex -24.5572 -4.68453 0
      vertex -24.8029 -3.13333 3
      vertex -24.8029 -3.13333 0
    endloop
  endfacet
  facet normal -0.987688 -0.156435 0
    outer loop
      vertex -24.8029 -3.13333 3
      vertex -24.5572 -4.68453 0
      vertex -24.5572 -4.68453 3
    endloop
  endfacet
  facet normal -0.999507 -0.0314107 0
    outer loop
      vertex -24.9507 -1.56976 0
      vertex -25 0 3
      vertex -25 0 0
    endloop
  endfacet
  facet normal -0.999507 -0.0314107 0
    outer loop
      vertex -25 0 3
      vertex -24.9507 -1.56976 0
      vertex -24.9507 -1.56976 3
    endloop
  endfacet
  facet normal 0.0941082 -0.995562 0
    outer loop
      vertex 1.56976 -24.9507 0
      vertex 3.13333 -24.8029 3
      vertex 1.56976 -24.9507 3
    endloop
  endfacet
  facet normal 0.0941082 -0.995562 0
    outer loop
      vertex 3.13333 -24.8029 3
      vertex 1.56976 -24.9507 0
      vertex 3.13333 -24.8029 0
    endloop
  endfacet
  facet normal 0.218143 -0.975917 0
    outer loop
      vertex 4.68453 -24.5572 0
      vertex 6.21725 -24.2146 3
      vertex 4.68453 -24.5572 3
    endloop
  endfacet
  facet normal 0.218143 -0.975917 0
    outer loop
      vertex 6.21725 -24.2146 3
      vertex 4.68453 -24.5572 0
      vertex 6.21725 -24.2146 0
    endloop
  endfacet
  facet normal 0.338738 -0.940881 0
    outer loop
      vertex 7.72542 -23.7764 0
      vertex 9.20311 -23.2444 3
      vertex 7.72542 -23.7764 3
    endloop
  endfacet
  facet normal 0.338738 -0.940881 0
    outer loop
      vertex 9.20311 -23.2444 3
      vertex 7.72542 -23.7764 0
      vertex 9.20311 -23.2444 0
    endloop
  endfacet
  facet normal 0.661311 -0.750112 0
    outer loop
      vertex 15.9356 -19.2628 0
      vertex 17.1137 -18.2242 3
      vertex 15.9356 -19.2628 3
    endloop
  endfacet
  facet normal 0.661311 -0.750112 0
    outer loop
      vertex 17.1137 -18.2242 3
      vertex 15.9356 -19.2628 0
      vertex 17.1137 -18.2242 0
    endloop
  endfacet
  facet normal 0.790155 -0.612907 0
    outer loop
      vertex 19.2628 -15.9356 3
      vertex 20.2254 -14.6946 0
      vertex 20.2254 -14.6946 3
    endloop
  endfacet
  facet normal 0.790155 -0.612907 0
    outer loop
      vertex 20.2254 -14.6946 0
      vertex 19.2628 -15.9356 3
      vertex 19.2628 -15.9356 0
    endloop
  endfacet
  facet normal 0.891006 -0.453991 0
    outer loop
      vertex 21.9077 -12.0438 3
      vertex 22.6207 -10.6445 0
      vertex 22.6207 -10.6445 3
    endloop
  endfacet
  facet normal 0.891006 -0.453991 0
    outer loop
      vertex 22.6207 -10.6445 0
      vertex 21.9077 -12.0438 3
      vertex 21.9077 -12.0438 0
    endloop
  endfacet
  facet normal 0.975917 -0.218143 0
    outer loop
      vertex 24.2146 -6.21725 3
      vertex 24.5572 -4.68453 0
      vertex 24.5572 -4.68453 3
    endloop
  endfacet
  facet normal 0.975917 -0.218143 0
    outer loop
      vertex 24.5572 -4.68453 0
      vertex 24.2146 -6.21725 3
      vertex 24.2146 -6.21725 0
    endloop
  endfacet
  facet normal 0.995562 -0.0941082 0
    outer loop
      vertex 24.8029 -3.13333 3
      vertex 24.9507 -1.56976 0
      vertex 24.9507 -1.56976 3
    endloop
  endfacet
  facet normal 0.995562 -0.0941082 0
    outer loop
      vertex 24.9507 -1.56976 0
      vertex 24.8029 -3.13333 3
      vertex 24.8029 -3.13333 0
    endloop
  endfacet
  facet normal -0.612907 -0.790155 0
    outer loop
      vertex -15.9356 -19.2628 0
      vertex -14.6946 -20.2254 3
      vertex -15.9356 -19.2628 3
    endloop
  endfacet
  facet normal -0.612907 -0.790155 -0
    outer loop
      vertex -14.6946 -20.2254 3
      vertex -15.9356 -19.2628 0
      vertex -14.6946 -20.2254 0
    endloop
  endfacet
  facet normal -0.509042 -0.860742 0
    outer loop
      vertex -13.3957 -21.1082 0
      vertex -12.0438 -21.9077 3
      vertex -13.3957 -21.1082 3
    endloop
  endfacet
  facet normal -0.509042 -0.860742 -0
    outer loop
      vertex -12.0438 -21.9077 3
      vertex -13.3957 -21.1082 0
      vertex -12.0438 -21.9077 0
    endloop
  endfacet
  facet normal -0.278991 -0.960294 0
    outer loop
      vertex -7.72542 -23.7764 0
      vertex -6.21725 -24.2146 3
      vertex -7.72542 -23.7764 3
    endloop
  endfacet
  facet normal -0.278991 -0.960294 -0
    outer loop
      vertex -6.21725 -24.2146 3
      vertex -7.72542 -23.7764 0
      vertex -6.21725 -24.2146 0
    endloop
  endfacet
  facet normal -0.156435 -0.987688 0
    outer loop
      vertex -4.68453 -24.5572 0
      vertex -3.13333 -24.8029 3
      vertex -4.68453 -24.5572 3
    endloop
  endfacet
  facet normal -0.156435 -0.987688 -0
    outer loop
      vertex -3.13333 -24.8029 3
      vertex -4.68453 -24.5572 0
      vertex -3.13333 -24.8029 0
    endloop
  endfacet
  facet normal -0.860742 -0.509042 0
    outer loop
      vertex -21.1082 -13.3957 0
      vertex -21.9077 -12.0438 3
      vertex -21.9077 -12.0438 0
    endloop
  endfacet
  facet normal -0.860742 -0.509042 0
    outer loop
      vertex -21.9077 -12.0438 3
      vertex -21.1082 -13.3957 0
      vertex -21.1082 -13.3957 3
    endloop
  endfacet
  facet normal -0.750112 -0.661311 0
    outer loop
      vertex -18.2242 -17.1137 0
      vertex -19.2628 -15.9356 3
      vertex -19.2628 -15.9356 0
    endloop
  endfacet
  facet normal -0.750112 -0.661311 0
    outer loop
      vertex -19.2628 -15.9356 3
      vertex -18.2242 -17.1137 0
      vertex -18.2242 -17.1137 3
    endloop
  endfacet
  facet normal -0.995562 -0.0941082 0
    outer loop
      vertex -24.8029 -3.13333 0
      vertex -24.9507 -1.56976 3
      vertex -24.9507 -1.56976 0
    endloop
  endfacet
  facet normal -0.995562 -0.0941082 0
    outer loop
      vertex -24.9507 -1.56976 3
      vertex -24.8029 -3.13333 0
      vertex -24.8029 -3.13333 3
    endloop
  endfacet
  facet normal 0.960294 -0.278991 0
    outer loop
      vertex 23.7764 -7.72542 3
      vertex 24.2146 -6.21725 0
      vertex 24.2146 -6.21725 3
    endloop
  endfacet
  facet normal 0.960294 -0.278991 0
    outer loop
      vertex 24.2146 -6.21725 0
      vertex 23.7764 -7.72542 3
      vertex 23.7764 -7.72542 0
    endloop
  endfacet
endsolid OpenSCAD_Model
