solid OpenSCAD_Model
  facet normal -0.500001 0.866025 0
    outer loop
      vertex -2.8 0 -10
      vertex -2.82176 -0.0125637 10
      vertex -2.8 0 10
    endloop
  endfacet
  facet normal -0.500001 0.866025 0
    outer loop
      vertex -2.82176 -0.0125637 10
      vertex -2.8 0 -10
      vertex -2.82176 -0.0125637 -10
    endloop
  endfacet
  facet normal -0.499998 0.866026 0
    outer loop
      vertex 1.42176 2.43744 -10
      vertex 1.4 2.42487 10
      vertex 1.42176 2.43744 10
    endloop
  endfacet
  facet normal -0.499998 0.866026 0
    outer loop
      vertex 1.4 2.42487 10
      vertex 1.42176 2.43744 -10
      vertex 1.4 2.42487 -10
    endloop
  endfacet
  facet normal 0 0 1
    outer loop
      vertex 2.82176 0.0125637 10
      vertex 1.42176 2.43744 10
      vertex 2.8 0 10
    endloop
  endfacet
  facet normal 0 0 1
    outer loop
      vertex 2.8 0 10
      vertex 1.42176 -2.43744 10
      vertex 2.82176 -0.0125637 10
    endloop
  endfacet
  facet normal -0 0 1
    outer loop
      vertex 1.4 2.42487 10
      vertex 2.8 0 10
      vertex 1.42176 2.43744 10
    endloop
  endfacet
  facet normal 0 0 1
    outer loop
      vertex 1.4 -2.42487 10
      vertex 2.8 0 10
      vertex 1.4 2.42487 10
    endloop
  endfacet
  facet normal 0 0 1
    outer loop
      vertex 2.8 0 10
      vertex 1.4 -2.42487 10
      vertex 1.42176 -2.43744 10
    endloop
  endfacet
  facet normal 0 0 1
    outer loop
      vertex -2.8 0 10
      vertex -1.4 2.42487 10
      vertex -1.42176 2.43744 10
    endloop
  endfacet
  facet normal 0 0 1
    outer loop
      vertex -1.4 2.42487 10
      vertex -2.8 0 10
      vertex -1.4 -2.42487 10
    endloop
  endfacet
  facet normal 0 0 1
    outer loop
      vertex -1.4 -2.42487 10
      vertex -2.8 0 10
      vertex -1.42176 -2.43744 10
    endloop
  endfacet
  facet normal 0 -0 1
    outer loop
      vertex -2.8 0 10
      vertex -1.42176 2.43744 10
      vertex -2.82176 0.0125637 10
    endloop
  endfacet
  facet normal 0 0 1
    outer loop
      vertex -1.4 2.42487 10
      vertex 1.4 2.42487 10
      vertex 1.4 2.45 10
    endloop
  endfacet
  facet normal 0 0 1
    outer loop
      vertex 1.4 2.42487 10
      vertex -1.4 2.42487 10
      vertex 1.4 -2.42487 10
    endloop
  endfacet
  facet normal 0 0 1
    outer loop
      vertex -1.4 2.42487 10
      vertex 1.4 2.45 10
      vertex -1.4 2.45 10
    endloop
  endfacet
  facet normal 0 0 1
    outer loop
      vertex -1.4 -2.42487 10
      vertex 1.4 -2.42487 10
      vertex -1.4 2.42487 10
    endloop
  endfacet
  facet normal 0 0 1
    outer loop
      vertex 1.4 -2.42487 10
      vertex -1.4 -2.42487 10
      vertex 1.4 -2.45 10
    endloop
  endfacet
  facet normal 0 0 1
    outer loop
      vertex 1.4 -2.45 10
      vertex -1.4 -2.42487 10
      vertex -1.4 -2.45 10
    endloop
  endfacet
  facet normal 0 0 1
    outer loop
      vertex -1.42176 -2.43744 10
      vertex -2.8 0 10
      vertex -2.82176 -0.0125637 10
    endloop
  endfacet
  facet normal 0.499998 -0.866026 0
    outer loop
      vertex -1.42176 -2.43744 -10
      vertex -1.4 -2.42487 10
      vertex -1.42176 -2.43744 10
    endloop
  endfacet
  facet normal 0.499998 -0.866026 0
    outer loop
      vertex -1.4 -2.42487 10
      vertex -1.42176 -2.43744 -10
      vertex -1.4 -2.42487 -10
    endloop
  endfacet
  facet normal 0.500001 -0.866025 0
    outer loop
      vertex 2.8 0 -10
      vertex 2.82176 0.0125637 10
      vertex 2.8 0 10
    endloop
  endfacet
  facet normal 0.500001 -0.866025 0
    outer loop
      vertex 2.82176 0.0125637 10
      vertex 2.8 0 -10
      vertex 2.82176 0.0125637 -10
    endloop
  endfacet
  facet normal 0.866025 0.5 0
    outer loop
      vertex 2.82176 0.0125637 10
      vertex 1.42176 2.43744 -10
      vertex 1.42176 2.43744 10
    endloop
  endfacet
  facet normal 0.866025 0.5 0
    outer loop
      vertex 1.42176 2.43744 -10
      vertex 2.82176 0.0125637 10
      vertex 2.82176 0.0125637 -10
    endloop
  endfacet
  facet normal -0 0 -1
    outer loop
      vertex 2.82176 -0.0125637 -10
      vertex 1.42176 -2.43744 -10
      vertex 2.8 0 -10
    endloop
  endfacet
  facet normal 0 0 -1
    outer loop
      vertex 2.8 0 -10
      vertex 1.42176 2.43744 -10
      vertex 2.82176 0.0125637 -10
    endloop
  endfacet
  facet normal 0 0 -1
    outer loop
      vertex 1.4 -2.42487 -10
      vertex 2.8 0 -10
      vertex 1.42176 -2.43744 -10
    endloop
  endfacet
  facet normal 0 0 -1
    outer loop
      vertex 1.4 2.42487 -10
      vertex 2.8 0 -10
      vertex 1.4 -2.42487 -10
    endloop
  endfacet
  facet normal 0 0 -1
    outer loop
      vertex 2.8 0 -10
      vertex 1.4 2.42487 -10
      vertex 1.42176 2.43744 -10
    endloop
  endfacet
  facet normal 0 0 -1
    outer loop
      vertex -2.8 0 -10
      vertex -1.4 -2.42487 -10
      vertex -1.42176 -2.43744 -10
    endloop
  endfacet
  facet normal 0 0 -1
    outer loop
      vertex -1.4 -2.42487 -10
      vertex -2.8 0 -10
      vertex -1.4 2.42487 -10
    endloop
  endfacet
  facet normal -0 0 -1
    outer loop
      vertex -1.4 2.42487 -10
      vertex -2.8 0 -10
      vertex -1.42176 2.43744 -10
    endloop
  endfacet
  facet normal 0 -0 -1
    outer loop
      vertex -2.8 0 -10
      vertex -1.42176 -2.43744 -10
      vertex -2.82176 -0.0125637 -10
    endloop
  endfacet
  facet normal 0 0 -1
    outer loop
      vertex -1.4 -2.42487 -10
      vertex 1.4 -2.42487 -10
      vertex 1.4 -2.45 -10
    endloop
  endfacet
  facet normal 0 0 -1
    outer loop
      vertex 1.4 -2.42487 -10
      vertex -1.4 -2.42487 -10
      vertex 1.4 2.42487 -10
    endloop
  endfacet
  facet normal 0 0 -1
    outer loop
      vertex -1.4 -2.42487 -10
      vertex 1.4 -2.45 -10
      vertex -1.4 -2.45 -10
    endloop
  endfacet
  facet normal 0 0 -1
    outer loop
      vertex -1.4 2.42487 -10
      vertex 1.4 2.42487 -10
      vertex -1.4 -2.42487 -10
    endloop
  endfacet
  facet normal 0 0 -1
    outer loop
      vertex 1.4 2.42487 -10
      vertex -1.4 2.42487 -10
      vertex 1.4 2.45 -10
    endloop
  endfacet
  facet normal -0 0 -1
    outer loop
      vertex 1.4 2.45 -10
      vertex -1.4 2.42487 -10
      vertex -1.4 2.45 -10
    endloop
  endfacet
  facet normal 0 0 -1
    outer loop
      vertex -1.42176 2.43744 -10
      vertex -2.8 0 -10
      vertex -2.82176 0.0125637 -10
    endloop
  endfacet
  facet normal -0.866025 -0.5 0
    outer loop
      vertex -1.42176 -2.43744 -10
      vertex -2.82176 -0.0125637 10
      vertex -2.82176 -0.0125637 -10
    endloop
  endfacet
  facet normal -0.866025 -0.5 0
    outer loop
      vertex -2.82176 -0.0125637 10
      vertex -1.42176 -2.43744 -10
      vertex -1.42176 -2.43744 10
    endloop
  endfacet
  facet normal -1 0 0
    outer loop
      vertex -1.4 -2.45 -10
      vertex -1.4 -2.42487 10
      vertex -1.4 -2.42487 -10
    endloop
  endfacet
  facet normal -1 -0 0
    outer loop
      vertex -1.4 -2.42487 10
      vertex -1.4 -2.45 -10
      vertex -1.4 -2.45 10
    endloop
  endfacet
  facet normal -1 0 0
    outer loop
      vertex -1.4 2.42487 -10
      vertex -1.4 2.45 10
      vertex -1.4 2.45 -10
    endloop
  endfacet
  facet normal -1 -0 0
    outer loop
      vertex -1.4 2.45 10
      vertex -1.4 2.42487 -10
      vertex -1.4 2.42487 10
    endloop
  endfacet
  facet normal 1 -0 0
    outer loop
      vertex 1.4 -2.45 10
      vertex 1.4 -2.42487 -10
      vertex 1.4 -2.42487 10
    endloop
  endfacet
  facet normal 1 0 0
    outer loop
      vertex 1.4 -2.42487 -10
      vertex 1.4 -2.45 10
      vertex 1.4 -2.45 -10
    endloop
  endfacet
  facet normal 1 -0 0
    outer loop
      vertex 1.4 2.42487 10
      vertex 1.4 2.45 -10
      vertex 1.4 2.45 10
    endloop
  endfacet
  facet normal 1 0 0
    outer loop
      vertex 1.4 2.45 -10
      vertex 1.4 2.42487 10
      vertex 1.4 2.42487 -10
    endloop
  endfacet
  facet normal 0 1 -0
    outer loop
      vertex 1.4 2.45 -10
      vertex -1.4 2.45 10
      vertex 1.4 2.45 10
    endloop
  endfacet
  facet normal 0 1 0
    outer loop
      vertex -1.4 2.45 10
      vertex 1.4 2.45 -10
      vertex -1.4 2.45 -10
    endloop
  endfacet
  facet normal 0 -1 0
    outer loop
      vertex -1.4 -2.45 -10
      vertex 1.4 -2.45 10
      vertex -1.4 -2.45 10
    endloop
  endfacet
  facet normal 0 -1 -0
    outer loop
      vertex 1.4 -2.45 10
      vertex -1.4 -2.45 -10
      vertex 1.4 -2.45 -10
    endloop
  endfacet
  facet normal 0.500001 0.866025 -0
    outer loop
      vertex 2.82176 -0.0125637 -10
      vertex 2.8 0 10
      vertex 2.82176 -0.0125637 10
    endloop
  endfacet
  facet normal 0.500001 0.866025 0
    outer loop
      vertex 2.8 0 10
      vertex 2.82176 -0.0125637 -10
      vertex 2.8 0 -10
    endloop
  endfacet
  facet normal 0.499998 0.866026 -0
    outer loop
      vertex -1.4 2.42487 -10
      vertex -1.42176 2.43744 10
      vertex -1.4 2.42487 10
    endloop
  endfacet
  facet normal 0.499998 0.866026 0
    outer loop
      vertex -1.42176 2.43744 10
      vertex -1.4 2.42487 -10
      vertex -1.42176 2.43744 -10
    endloop
  endfacet
  facet normal -0.499998 -0.866026 0
    outer loop
      vertex 1.4 -2.42487 -10
      vertex 1.42176 -2.43744 10
      vertex 1.4 -2.42487 10
    endloop
  endfacet
  facet normal -0.499998 -0.866026 -0
    outer loop
      vertex 1.42176 -2.43744 10
      vertex 1.4 -2.42487 -10
      vertex 1.42176 -2.43744 -10
    endloop
  endfacet
  facet normal -0.500001 -0.866025 0
    outer loop
      vertex -2.82176 0.0125637 -10
      vertex -2.8 0 10
      vertex -2.82176 0.0125637 10
    endloop
  endfacet
  facet normal -0.500001 -0.866025 -0
    outer loop
      vertex -2.8 0 10
      vertex -2.82176 0.0125637 -10
      vertex -2.8 0 -10
    endloop
  endfacet
  facet normal 0.866025 -0.5 0
    outer loop
      vertex 1.42176 -2.43744 10
      vertex 2.82176 -0.0125637 -10
      vertex 2.82176 -0.0125637 10
    endloop
  endfacet
  facet normal 0.866025 -0.5 0
    outer loop
      vertex 2.82176 -0.0125637 -10
      vertex 1.42176 -2.43744 10
      vertex 1.42176 -2.43744 -10
    endloop
  endfacet
  facet normal -0.866025 0.5 0
    outer loop
      vertex -2.82176 0.0125637 -10
      vertex -1.42176 2.43744 10
      vertex -1.42176 2.43744 -10
    endloop
  endfacet
  facet normal -0.866025 0.5 0
    outer loop
      vertex -1.42176 2.43744 10
      vertex -2.82176 0.0125637 -10
      vertex -2.82176 0.0125637 10
    endloop
  endfacet
endsolid OpenSCAD_Model
