solid OpenSCAD_Model
  facet normal -0.500001 0.866025 0
    outer loop
      vertex -2.4 0 -5
      vertex -2.41865 -0.0107689 5
      vertex -2.4 0 5
    endloop
  endfacet
  facet normal -0.500001 0.866025 0
    outer loop
      vertex -2.41865 -0.0107689 5
      vertex -2.4 0 -5
      vertex -2.41865 -0.0107689 -5
    endloop
  endfacet
  facet normal -0.500004 0.866023 0
    outer loop
      vertex 1.21865 2.08923 -5
      vertex 1.2 2.07846 5
      vertex 1.21865 2.08923 5
    endloop
  endfacet
  facet normal -0.500004 0.866023 0
    outer loop
      vertex 1.2 2.07846 5
      vertex 1.21865 2.08923 -5
      vertex 1.2 2.07846 -5
    endloop
  endfacet
  facet normal 0 0 1
    outer loop
      vertex 2.41865 0.0107689 5
      vertex 1.21865 2.08923 5
      vertex 2.4 0 5
    endloop
  endfacet
  facet normal 0 0 1
    outer loop
      vertex 2.4 0 5
      vertex 1.21865 -2.08923 5
      vertex 2.41865 -0.0107689 5
    endloop
  endfacet
  facet normal -0 0 1
    outer loop
      vertex 1.2 2.07846 5
      vertex 2.4 0 5
      vertex 1.21865 2.08923 5
    endloop
  endfacet
  facet normal 0 0 1
    outer loop
      vertex 1.2 -2.07846 5
      vertex 2.4 0 5
      vertex 1.2 2.07846 5
    endloop
  endfacet
  facet normal 0 0 1
    outer loop
      vertex 2.4 0 5
      vertex 1.2 -2.07846 5
      vertex 1.21865 -2.08923 5
    endloop
  endfacet
  facet normal 0 0 1
    outer loop
      vertex -2.4 0 5
      vertex -1.2 2.07846 5
      vertex -1.21865 2.08923 5
    endloop
  endfacet
  facet normal 0 0 1
    outer loop
      vertex -1.2 2.07846 5
      vertex -2.4 0 5
      vertex -1.2 -2.07846 5
    endloop
  endfacet
  facet normal 0 0 1
    outer loop
      vertex -1.2 -2.07846 5
      vertex -2.4 0 5
      vertex -1.21865 -2.08923 5
    endloop
  endfacet
  facet normal 0 -0 1
    outer loop
      vertex -2.4 0 5
      vertex -1.21865 2.08923 5
      vertex -2.41865 0.0107689 5
    endloop
  endfacet
  facet normal 0 0 1
    outer loop
      vertex -1.2 2.07846 5
      vertex 1.2 2.07846 5
      vertex 1.2 2.1 5
    endloop
  endfacet
  facet normal 0 0 1
    outer loop
      vertex 1.2 2.07846 5
      vertex -1.2 2.07846 5
      vertex 1.2 -2.07846 5
    endloop
  endfacet
  facet normal 0 0 1
    outer loop
      vertex -1.2 2.07846 5
      vertex 1.2 2.1 5
      vertex -1.2 2.1 5
    endloop
  endfacet
  facet normal 0 0 1
    outer loop
      vertex -1.2 -2.07846 5
      vertex 1.2 -2.07846 5
      vertex -1.2 2.07846 5
    endloop
  endfacet
  facet normal 0 0 1
    outer loop
      vertex 1.2 -2.07846 5
      vertex -1.2 -2.07846 5
      vertex 1.2 -2.1 5
    endloop
  endfacet
  facet normal 0 0 1
    outer loop
      vertex 1.2 -2.1 5
      vertex -1.2 -2.07846 5
      vertex -1.2 -2.1 5
    endloop
  endfacet
  facet normal 0 0 1
    outer loop
      vertex -1.21865 -2.08923 5
      vertex -2.4 0 5
      vertex -2.41865 -0.0107689 5
    endloop
  endfacet
  facet normal 0.500004 -0.866023 0
    outer loop
      vertex -1.21865 -2.08923 -5
      vertex -1.2 -2.07846 5
      vertex -1.21865 -2.08923 5
    endloop
  endfacet
  facet normal 0.500004 -0.866023 0
    outer loop
      vertex -1.2 -2.07846 5
      vertex -1.21865 -2.08923 -5
      vertex -1.2 -2.07846 -5
    endloop
  endfacet
  facet normal 0.500001 -0.866025 0
    outer loop
      vertex 2.4 0 -5
      vertex 2.41865 0.0107689 5
      vertex 2.4 0 5
    endloop
  endfacet
  facet normal 0.500001 -0.866025 0
    outer loop
      vertex 2.41865 0.0107689 5
      vertex 2.4 0 -5
      vertex 2.41865 0.0107689 -5
    endloop
  endfacet
  facet normal 0.866025 0.5 0
    outer loop
      vertex 2.41865 0.0107689 5
      vertex 1.21865 2.08923 -5
      vertex 1.21865 2.08923 5
    endloop
  endfacet
  facet normal 0.866025 0.5 0
    outer loop
      vertex 1.21865 2.08923 -5
      vertex 2.41865 0.0107689 5
      vertex 2.41865 0.0107689 -5
    endloop
  endfacet
  facet normal -0 0 -1
    outer loop
      vertex 2.41865 -0.0107689 -5
      vertex 1.21865 -2.08923 -5
      vertex 2.4 0 -5
    endloop
  endfacet
  facet normal 0 0 -1
    outer loop
      vertex 2.4 0 -5
      vertex 1.21865 2.08923 -5
      vertex 2.41865 0.0107689 -5
    endloop
  endfacet
  facet normal 0 0 -1
    outer loop
      vertex 1.2 -2.07846 -5
      vertex 2.4 0 -5
      vertex 1.21865 -2.08923 -5
    endloop
  endfacet
  facet normal 0 0 -1
    outer loop
      vertex 1.2 2.07846 -5
      vertex 2.4 0 -5
      vertex 1.2 -2.07846 -5
    endloop
  endfacet
  facet normal 0 0 -1
    outer loop
      vertex 2.4 0 -5
      vertex 1.2 2.07846 -5
      vertex 1.21865 2.08923 -5
    endloop
  endfacet
  facet normal 0 0 -1
    outer loop
      vertex -2.4 0 -5
      vertex -1.2 -2.07846 -5
      vertex -1.21865 -2.08923 -5
    endloop
  endfacet
  facet normal 0 0 -1
    outer loop
      vertex -1.2 -2.07846 -5
      vertex -2.4 0 -5
      vertex -1.2 2.07846 -5
    endloop
  endfacet
  facet normal -0 0 -1
    outer loop
      vertex -1.2 2.07846 -5
      vertex -2.4 0 -5
      vertex -1.21865 2.08923 -5
    endloop
  endfacet
  facet normal 0 -0 -1
    outer loop
      vertex -2.4 0 -5
      vertex -1.21865 -2.08923 -5
      vertex -2.41865 -0.0107689 -5
    endloop
  endfacet
  facet normal 0 0 -1
    outer loop
      vertex -1.2 -2.07846 -5
      vertex 1.2 -2.07846 -5
      vertex 1.2 -2.1 -5
    endloop
  endfacet
  facet normal 0 0 -1
    outer loop
      vertex 1.2 -2.07846 -5
      vertex -1.2 -2.07846 -5
      vertex 1.2 2.07846 -5
    endloop
  endfacet
  facet normal 0 0 -1
    outer loop
      vertex -1.2 -2.07846 -5
      vertex 1.2 -2.1 -5
      vertex -1.2 -2.1 -5
    endloop
  endfacet
  facet normal 0 0 -1
    outer loop
      vertex -1.2 2.07846 -5
      vertex 1.2 2.07846 -5
      vertex -1.2 -2.07846 -5
    endloop
  endfacet
  facet normal 0 0 -1
    outer loop
      vertex 1.2 2.07846 -5
      vertex -1.2 2.07846 -5
      vertex 1.2 2.1 -5
    endloop
  endfacet
  facet normal -0 0 -1
    outer loop
      vertex 1.2 2.1 -5
      vertex -1.2 2.07846 -5
      vertex -1.2 2.1 -5
    endloop
  endfacet
  facet normal 0 0 -1
    outer loop
      vertex -1.21865 2.08923 -5
      vertex -2.4 0 -5
      vertex -2.41865 0.0107689 -5
    endloop
  endfacet
  facet normal -0.866025 -0.5 0
    outer loop
      vertex -1.21865 -2.08923 -5
      vertex -2.41865 -0.0107689 5
      vertex -2.41865 -0.0107689 -5
    endloop
  endfacet
  facet normal -0.866025 -0.5 0
    outer loop
      vertex -2.41865 -0.0107689 5
      vertex -1.21865 -2.08923 -5
      vertex -1.21865 -2.08923 5
    endloop
  endfacet
  facet normal -1 0 0
    outer loop
      vertex -1.2 -2.1 -5
      vertex -1.2 -2.07846 5
      vertex -1.2 -2.07846 -5
    endloop
  endfacet
  facet normal -1 -0 0
    outer loop
      vertex -1.2 -2.07846 5
      vertex -1.2 -2.1 -5
      vertex -1.2 -2.1 5
    endloop
  endfacet
  facet normal -1 0 0
    outer loop
      vertex -1.2 2.07846 -5
      vertex -1.2 2.1 5
      vertex -1.2 2.1 -5
    endloop
  endfacet
  facet normal -1 -0 0
    outer loop
      vertex -1.2 2.1 5
      vertex -1.2 2.07846 -5
      vertex -1.2 2.07846 5
    endloop
  endfacet
  facet normal 1 -0 0
    outer loop
      vertex 1.2 -2.1 5
      vertex 1.2 -2.07846 -5
      vertex 1.2 -2.07846 5
    endloop
  endfacet
  facet normal 1 0 0
    outer loop
      vertex 1.2 -2.07846 -5
      vertex 1.2 -2.1 5
      vertex 1.2 -2.1 -5
    endloop
  endfacet
  facet normal 1 -0 0
    outer loop
      vertex 1.2 2.07846 5
      vertex 1.2 2.1 -5
      vertex 1.2 2.1 5
    endloop
  endfacet
  facet normal 1 0 0
    outer loop
      vertex 1.2 2.1 -5
      vertex 1.2 2.07846 5
      vertex 1.2 2.07846 -5
    endloop
  endfacet
  facet normal 0 1 -0
    outer loop
      vertex 1.2 2.1 -5
      vertex -1.2 2.1 5
      vertex 1.2 2.1 5
    endloop
  endfacet
  facet normal 0 1 0
    outer loop
      vertex -1.2 2.1 5
      vertex 1.2 2.1 -5
      vertex -1.2 2.1 -5
    endloop
  endfacet
  facet normal 0 -1 0
    outer loop
      vertex -1.2 -2.1 -5
      vertex 1.2 -2.1 5
      vertex -1.2 -2.1 5
    endloop
  endfacet
  facet normal 0 -1 -0
    outer loop
      vertex 1.2 -2.1 5
      vertex -1.2 -2.1 -5
      vertex 1.2 -2.1 -5
    endloop
  endfacet
  facet normal 0.500001 0.866025 -0
    outer loop
      vertex 2.41865 -0.0107689 -5
      vertex 2.4 0 5
      vertex 2.41865 -0.0107689 5
    endloop
  endfacet
  facet normal 0.500001 0.866025 0
    outer loop
      vertex 2.4 0 5
      vertex 2.41865 -0.0107689 -5
      vertex 2.4 0 -5
    endloop
  endfacet
  facet normal 0.500004 0.866023 -0
    outer loop
      vertex -1.2 2.07846 -5
      vertex -1.21865 2.08923 5
      vertex -1.2 2.07846 5
    endloop
  endfacet
  facet normal 0.500004 0.866023 0
    outer loop
      vertex -1.21865 2.08923 5
      vertex -1.2 2.07846 -5
      vertex -1.21865 2.08923 -5
    endloop
  endfacet
  facet normal -0.500004 -0.866023 0
    outer loop
      vertex 1.2 -2.07846 -5
      vertex 1.21865 -2.08923 5
      vertex 1.2 -2.07846 5
    endloop
  endfacet
  facet normal -0.500004 -0.866023 -0
    outer loop
      vertex 1.21865 -2.08923 5
      vertex 1.2 -2.07846 -5
      vertex 1.21865 -2.08923 -5
    endloop
  endfacet
  facet normal -0.500001 -0.866025 0
    outer loop
      vertex -2.41865 0.0107689 -5
      vertex -2.4 0 5
      vertex -2.41865 0.0107689 5
    endloop
  endfacet
  facet normal -0.500001 -0.866025 -0
    outer loop
      vertex -2.4 0 5
      vertex -2.41865 0.0107689 -5
      vertex -2.4 0 -5
    endloop
  endfacet
  facet normal 0.866025 -0.5 0
    outer loop
      vertex 1.21865 -2.08923 5
      vertex 2.41865 -0.0107689 -5
      vertex 2.41865 -0.0107689 5
    endloop
  endfacet
  facet normal 0.866025 -0.5 0
    outer loop
      vertex 2.41865 -0.0107689 -5
      vertex 1.21865 -2.08923 5
      vertex 1.21865 -2.08923 -5
    endloop
  endfacet
  facet normal -0.866025 0.5 0
    outer loop
      vertex -2.41865 0.0107689 -5
      vertex -1.21865 2.08923 5
      vertex -1.21865 2.08923 -5
    endloop
  endfacet
  facet normal -0.866025 0.5 0
    outer loop
      vertex -1.21865 2.08923 5
      vertex -2.41865 0.0107689 -5
      vertex -2.41865 0.0107689 5
    endloop
  endfacet
endsolid OpenSCAD_Model
