solid OpenSCAD_Model
  facet normal -0.866025 1.92296e-16 0.500001
    outer loop
      vertex -1.11022e-15 -5 2.57143
      vertex 0.0115385 5 2.59141
      vertex 1.11022e-15 5 2.57143
    endloop
  endfacet
  facet normal -0.866025 0 0.500001
    outer loop
      vertex 0.0115385 5 2.59141
      vertex -1.11022e-15 -5 2.57143
      vertex 0.0115385 -5 2.59141
    endloop
  endfacet
  facet normal -0.866025 0 0.500001
    outer loop
      vertex -2.23846 -5 -1.3057
      vertex -2.22692 5 -1.28571
      vertex -2.23846 5 -1.3057
    endloop
  endfacet
  facet normal -0.866025 0 0.500001
    outer loop
      vertex -2.22692 5 -1.28571
      vertex -2.23846 -5 -1.3057
      vertex -2.22692 -5 -1.28571
    endloop
  endfacet
  facet normal 0 1 0
    outer loop
      vertex 1.11022e-15 5 -2.57143
      vertex 2.22692 5 -1.28571
      vertex 2.23846 5 -1.3057
    endloop
  endfacet
  facet normal 0 1 0
    outer loop
      vertex 2.22692 5 -1.28571
      vertex 1.11022e-15 5 -2.57143
      vertex -2.22692 5 -1.28571
    endloop
  endfacet
  facet normal 0 1 0
    outer loop
      vertex -2.22692 5 -1.28571
      vertex 1.11022e-15 5 -2.57143
      vertex -2.23846 5 -1.3057
    endloop
  endfacet
  facet normal -0 1 0
    outer loop
      vertex 1.11022e-15 5 -2.57143
      vertex 2.23846 5 -1.3057
      vertex 0.0115385 5 -2.59141
    endloop
  endfacet
  facet normal 0 1 0
    outer loop
      vertex 2.22692 5 -1.28571
      vertex 2.22692 5 1.28571
      vertex 2.25 5 1.28571
    endloop
  endfacet
  facet normal 0 1 0
    outer loop
      vertex 2.22692 5 1.28571
      vertex 2.22692 5 -1.28571
      vertex -2.22692 5 1.28571
    endloop
  endfacet
  facet normal 0 1 0
    outer loop
      vertex 2.22692 5 -1.28571
      vertex 2.25 5 1.28571
      vertex 2.25 5 -1.28571
    endloop
  endfacet
  facet normal 0 1 0
    outer loop
      vertex -2.22692 5 -1.28571
      vertex -2.22692 5 1.28571
      vertex 2.22692 5 -1.28571
    endloop
  endfacet
  facet normal 0 1 0
    outer loop
      vertex -2.22692 5 1.28571
      vertex -2.22692 5 -1.28571
      vertex -2.25 5 1.28571
    endloop
  endfacet
  facet normal 0 1 0
    outer loop
      vertex -2.25 5 1.28571
      vertex -2.22692 5 -1.28571
      vertex -2.25 5 -1.28571
    endloop
  endfacet
  facet normal 0 1 0
    outer loop
      vertex 1.11022e-15 5 2.57143
      vertex -2.23846 5 1.3057
      vertex -0.0115385 5 2.59141
    endloop
  endfacet
  facet normal 0 1 -0
    outer loop
      vertex 2.22692 5 1.28571
      vertex 1.11022e-15 5 2.57143
      vertex 2.23846 5 1.3057
    endloop
  endfacet
  facet normal 0 1 0
    outer loop
      vertex -2.22692 5 1.28571
      vertex 1.11022e-15 5 2.57143
      vertex 2.22692 5 1.28571
    endloop
  endfacet
  facet normal 0 1 0
    outer loop
      vertex 1.11022e-15 5 2.57143
      vertex -2.22692 5 1.28571
      vertex -2.23846 5 1.3057
    endloop
  endfacet
  facet normal 0 1 0
    outer loop
      vertex 0.0115385 5 2.59141
      vertex 2.23846 5 1.3057
      vertex 1.11022e-15 5 2.57143
    endloop
  endfacet
  facet normal 0 1 0
    outer loop
      vertex -2.23846 5 -1.3057
      vertex 1.11022e-15 5 -2.57143
      vertex -0.0115385 5 -2.59141
    endloop
  endfacet
  facet normal 0.866025 0 -0.500001
    outer loop
      vertex 2.23846 -5 1.3057
      vertex 2.22692 5 1.28571
      vertex 2.23846 5 1.3057
    endloop
  endfacet
  facet normal 0.866025 0 -0.500001
    outer loop
      vertex 2.22692 5 1.28571
      vertex 2.23846 -5 1.3057
      vertex 2.22692 -5 1.28571
    endloop
  endfacet
  facet normal 0.866025 -1.92296e-16 -0.500001
    outer loop
      vertex -1.11022e-15 -5 -2.57143
      vertex -0.0115385 5 -2.59141
      vertex 1.11022e-15 5 -2.57143
    endloop
  endfacet
  facet normal 0.866025 0 -0.500001
    outer loop
      vertex -0.0115385 5 -2.59141
      vertex -1.11022e-15 -5 -2.57143
      vertex -0.0115385 -5 -2.59141
    endloop
  endfacet
  facet normal 0 -1 -0
    outer loop
      vertex -0.0115385 -5 2.59141
      vertex -2.23846 -5 1.3057
      vertex -1.11022e-15 -5 2.57143
    endloop
  endfacet
  facet normal 0 -1 0
    outer loop
      vertex -1.11022e-15 -5 2.57143
      vertex 2.23846 -5 1.3057
      vertex 0.0115385 -5 2.59141
    endloop
  endfacet
  facet normal 0 -1 0
    outer loop
      vertex -2.22692 -5 1.28571
      vertex -1.11022e-15 -5 2.57143
      vertex -2.23846 -5 1.3057
    endloop
  endfacet
  facet normal 0 -1 0
    outer loop
      vertex 2.22692 -5 1.28571
      vertex -1.11022e-15 -5 2.57143
      vertex -2.22692 -5 1.28571
    endloop
  endfacet
  facet normal 0 -1 0
    outer loop
      vertex -1.11022e-15 -5 2.57143
      vertex 2.22692 -5 1.28571
      vertex 2.23846 -5 1.3057
    endloop
  endfacet
  facet normal 0 -1 0
    outer loop
      vertex -1.11022e-15 -5 -2.57143
      vertex -2.22692 -5 -1.28571
      vertex -2.23846 -5 -1.3057
    endloop
  endfacet
  facet normal 0 -1 0
    outer loop
      vertex -2.22692 -5 -1.28571
      vertex -1.11022e-15 -5 -2.57143
      vertex 2.22692 -5 -1.28571
    endloop
  endfacet
  facet normal 0 -1 -0
    outer loop
      vertex 2.22692 -5 -1.28571
      vertex -1.11022e-15 -5 -2.57143
      vertex 2.23846 -5 -1.3057
    endloop
  endfacet
  facet normal -0 -1 0
    outer loop
      vertex -1.11022e-15 -5 -2.57143
      vertex -2.23846 -5 -1.3057
      vertex -0.0115385 -5 -2.59141
    endloop
  endfacet
  facet normal 0 -1 0
    outer loop
      vertex -2.22692 -5 -1.28571
      vertex -2.22692 -5 1.28571
      vertex -2.25 -5 1.28571
    endloop
  endfacet
  facet normal 0 -1 0
    outer loop
      vertex -2.22692 -5 1.28571
      vertex -2.22692 -5 -1.28571
      vertex 2.22692 -5 1.28571
    endloop
  endfacet
  facet normal 0 -1 0
    outer loop
      vertex -2.22692 -5 -1.28571
      vertex -2.25 -5 1.28571
      vertex -2.25 -5 -1.28571
    endloop
  endfacet
  facet normal 0 -1 0
    outer loop
      vertex 2.22692 -5 -1.28571
      vertex 2.22692 -5 1.28571
      vertex -2.22692 -5 -1.28571
    endloop
  endfacet
  facet normal 0 -1 0
    outer loop
      vertex 2.22692 -5 1.28571
      vertex 2.22692 -5 -1.28571
      vertex 2.25 -5 1.28571
    endloop
  endfacet
  facet normal 0 -1 -0
    outer loop
      vertex 2.25 -5 1.28571
      vertex 2.22692 -5 -1.28571
      vertex 2.25 -5 -1.28571
    endloop
  endfacet
  facet normal 0 -1 0
    outer loop
      vertex 2.23846 -5 -1.3057
      vertex -1.11022e-15 -5 -2.57143
      vertex 0.0115385 -5 -2.59141
    endloop
  endfacet
  facet normal 0.5 0 0.866025
    outer loop
      vertex 0.0115385 5 2.59141
      vertex 2.23846 -5 1.3057
      vertex 2.23846 5 1.3057
    endloop
  endfacet
  facet normal 0.5 0 0.866025
    outer loop
      vertex 2.23846 -5 1.3057
      vertex 0.0115385 5 2.59141
      vertex 0.0115385 -5 2.59141
    endloop
  endfacet
  facet normal -0.5 0 -0.866025
    outer loop
      vertex -2.23846 -5 -1.3057
      vertex -0.0115385 5 -2.59141
      vertex -0.0115385 -5 -2.59141
    endloop
  endfacet
  facet normal -0.5 0 -0.866025
    outer loop
      vertex -0.0115385 5 -2.59141
      vertex -2.23846 -5 -1.3057
      vertex -2.23846 5 -1.3057
    endloop
  endfacet
  facet normal -0 0 1
    outer loop
      vertex 2.22692 5 1.28571
      vertex 2.25 -5 1.28571
      vertex 2.25 5 1.28571
    endloop
  endfacet
  facet normal 0 0 1
    outer loop
      vertex 2.25 -5 1.28571
      vertex 2.22692 5 1.28571
      vertex 2.22692 -5 1.28571
    endloop
  endfacet
  facet normal -0 0 1
    outer loop
      vertex -2.25 5 1.28571
      vertex -2.22692 -5 1.28571
      vertex -2.22692 5 1.28571
    endloop
  endfacet
  facet normal 0 0 1
    outer loop
      vertex -2.22692 -5 1.28571
      vertex -2.25 5 1.28571
      vertex -2.25 -5 1.28571
    endloop
  endfacet
  facet normal 0 0 -1
    outer loop
      vertex 2.22692 -5 -1.28571
      vertex 2.25 5 -1.28571
      vertex 2.25 -5 -1.28571
    endloop
  endfacet
  facet normal -0 0 -1
    outer loop
      vertex 2.25 5 -1.28571
      vertex 2.22692 -5 -1.28571
      vertex 2.22692 5 -1.28571
    endloop
  endfacet
  facet normal 0 0 -1
    outer loop
      vertex -2.25 -5 -1.28571
      vertex -2.22692 5 -1.28571
      vertex -2.22692 -5 -1.28571
    endloop
  endfacet
  facet normal -0 0 -1
    outer loop
      vertex -2.22692 5 -1.28571
      vertex -2.25 -5 -1.28571
      vertex -2.25 5 -1.28571
    endloop
  endfacet
  facet normal 1 -0 0
    outer loop
      vertex 2.25 -5 1.28571
      vertex 2.25 5 -1.28571
      vertex 2.25 5 1.28571
    endloop
  endfacet
  facet normal 1 0 0
    outer loop
      vertex 2.25 5 -1.28571
      vertex 2.25 -5 1.28571
      vertex 2.25 -5 -1.28571
    endloop
  endfacet
  facet normal -1 0 0
    outer loop
      vertex -2.25 -5 -1.28571
      vertex -2.25 5 1.28571
      vertex -2.25 5 -1.28571
    endloop
  endfacet
  facet normal -1 -0 0
    outer loop
      vertex -2.25 5 1.28571
      vertex -2.25 -5 -1.28571
      vertex -2.25 -5 1.28571
    endloop
  endfacet
  facet normal -0.866025 0 -0.500001
    outer loop
      vertex 0.0115385 -5 -2.59141
      vertex 1.11022e-15 5 -2.57143
      vertex 0.0115385 5 -2.59141
    endloop
  endfacet
  facet normal -0.866025 1.92296e-16 -0.500001
    outer loop
      vertex 1.11022e-15 5 -2.57143
      vertex 0.0115385 -5 -2.59141
      vertex -1.11022e-15 -5 -2.57143
    endloop
  endfacet
  facet normal -0.866025 0 -0.500001
    outer loop
      vertex -2.22692 -5 1.28571
      vertex -2.23846 5 1.3057
      vertex -2.22692 5 1.28571
    endloop
  endfacet
  facet normal -0.866025 -0 -0.500001
    outer loop
      vertex -2.23846 5 1.3057
      vertex -2.22692 -5 1.28571
      vertex -2.23846 -5 1.3057
    endloop
  endfacet
  facet normal -0.5 0 0.866025
    outer loop
      vertex -2.23846 5 1.3057
      vertex -0.0115385 -5 2.59141
      vertex -0.0115385 5 2.59141
    endloop
  endfacet
  facet normal -0.5 0 0.866025
    outer loop
      vertex -0.0115385 -5 2.59141
      vertex -2.23846 5 1.3057
      vertex -2.23846 -5 1.3057
    endloop
  endfacet
  facet normal 0.866025 -0 0.500001
    outer loop
      vertex 2.22692 -5 -1.28571
      vertex 2.23846 5 -1.3057
      vertex 2.22692 5 -1.28571
    endloop
  endfacet
  facet normal 0.866025 0 0.500001
    outer loop
      vertex 2.23846 5 -1.3057
      vertex 2.22692 -5 -1.28571
      vertex 2.23846 -5 -1.3057
    endloop
  endfacet
  facet normal 0.866025 -0 0.500001
    outer loop
      vertex -0.0115385 -5 2.59141
      vertex 1.11022e-15 5 2.57143
      vertex -0.0115385 5 2.59141
    endloop
  endfacet
  facet normal 0.866025 -1.92296e-16 0.500001
    outer loop
      vertex 1.11022e-15 5 2.57143
      vertex -0.0115385 -5 2.59141
      vertex -1.11022e-15 -5 2.57143
    endloop
  endfacet
  facet normal 0.5 0 -0.866025
    outer loop
      vertex 0.0115385 -5 -2.59141
      vertex 2.23846 5 -1.3057
      vertex 2.23846 -5 -1.3057
    endloop
  endfacet
  facet normal 0.5 0 -0.866025
    outer loop
      vertex 2.23846 5 -1.3057
      vertex 0.0115385 -5 -2.59141
      vertex 0.0115385 5 -2.59141
    endloop
  endfacet
endsolid OpenSCAD_Model
