solid OpenSCAD_Model
  facet normal 0.862459 -0.0906484 0.497942
    outer loop
      vertex -12.8061 0 0
      vertex -12.6355 1.62297 0
      vertex -15 0 3.79999
    endloop
  endfacet
  facet normal 0.862459 -0.0906485 0.497942
    outer loop
      vertex -14.6722 3.11868 3.79999
      vertex -12.6355 1.62297 0
      vertex -12.5262 2.66253 0
    endloop
  endfacet
  facet normal 0.862459 -0.0906483 0.497942
    outer loop
      vertex -12.6355 1.62297 0
      vertex -14.6722 3.11868 3.79999
      vertex -15 0 3.79999
    endloop
  endfacet
  facet normal -0.862459 0.0906485 0.497942
    outer loop
      vertex -15 0 3.79999
      vertex -17.0847 1.03956 0
      vertex -17.1939 0 0
    endloop
  endfacet
  facet normal -0.862459 0.0906483 0.497942
    outer loop
      vertex -17.0847 1.03956 0
      vertex -15 0 3.79999
      vertex -14.6722 3.11868 3.79999
    endloop
  endfacet
  facet normal -0.862459 0.0906487 0.497942
    outer loop
      vertex -14.6722 3.11868 3.79999
      vertex -16.8182 3.57482 0
      vertex -17.0847 1.03956 0
    endloop
  endfacet
  facet normal 0.824766 -0.267983 0.497942
    outer loop
      vertex -12.5262 2.66253 0
      vertex -12.0219 4.21457 0
      vertex -14.6722 3.11868 3.79999
    endloop
  endfacet
  facet normal 0.824766 -0.267983 0.497942
    outer loop
      vertex -13.7032 6.10105 3.79999
      vertex -12.0219 4.21457 0
      vertex -11.6989 5.2087 0
    endloop
  endfacet
  facet normal 0.824766 -0.267983 0.497942
    outer loop
      vertex -12.0219 4.21457 0
      vertex -13.7032 6.10105 3.79999
      vertex -14.6722 3.11868 3.79999
    endloop
  endfacet
  facet normal -0.824766 0.267982 0.497942
    outer loop
      vertex -14.6722 3.11868 3.79999
      vertex -16.4952 4.56894 0
      vertex -16.8182 3.57482 0
    endloop
  endfacet
  facet normal -0.824766 0.267983 0.497942
    outer loop
      vertex -16.4952 4.56894 0
      vertex -14.6722 3.11868 3.79999
      vertex -13.7032 6.10105 3.79999
    endloop
  endfacet
  facet normal -0.824766 0.267983 0.497942
    outer loop
      vertex -13.7032 6.10105 3.79999
      vertex -15.7074 6.9934 0
      vertex -16.4952 4.56894 0
    endloop
  endfacet
  facet normal 0.751026 -0.433605 0.497942
    outer loop
      vertex -11.6989 5.2087 0
      vertex -10.883 6.62198 0
      vertex -13.7032 6.10105 3.79999
    endloop
  endfacet
  facet normal 0.751026 -0.433605 0.497942
    outer loop
      vertex -13.7032 6.10105 3.79999
      vertex -10.3603 7.52722 0
      vertex -12.1353 8.81678 3.79999
    endloop
  endfacet
  facet normal 0.751026 -0.433605 0.497942
    outer loop
      vertex -10.3603 7.52722 0
      vertex -13.7032 6.10105 3.79999
      vertex -10.883 6.62198 0
    endloop
  endfacet
  facet normal -0.751026 0.433605 0.497942
    outer loop
      vertex -15.7074 6.9934 0
      vertex -12.1353 8.81678 3.79999
      vertex -15.1848 7.89864 0
    endloop
  endfacet
  facet normal -0.751026 0.433605 0.497942
    outer loop
      vertex -12.1353 8.81678 3.79999
      vertex -15.7074 6.9934 0
      vertex -13.7032 6.10105 3.79999
    endloop
  endfacet
  facet normal -0.751026 0.433605 0.497942
    outer loop
      vertex -12.1353 8.81678 3.79999
      vertex -13.9102 10.1063 0
      vertex -15.1848 7.89864 0
    endloop
  endfacet
  facet normal 0.644463 -0.580277 0.497942
    outer loop
      vertex -10.3603 7.52722 0
      vertex -9.26837 8.73997 0
      vertex -12.1353 8.81678 3.79999
    endloop
  endfacet
  facet normal 0.644463 -0.580277 0.497942
    outer loop
      vertex -12.1353 8.81678 3.79999
      vertex -8.56893 9.51676 0
      vertex -10.037 11.1472 3.79999
    endloop
  endfacet
  facet normal 0.644463 -0.580277 0.497942
    outer loop
      vertex -8.56893 9.51676 0
      vertex -12.1353 8.81678 3.79999
      vertex -9.26837 8.73997 0
    endloop
  endfacet
  facet normal -0.644462 0.580277 0.497942
    outer loop
      vertex -13.9102 10.1063 0
      vertex -10.037 11.1472 3.79999
      vertex -13.2107 10.8831 0
    endloop
  endfacet
  facet normal -0.644463 0.580277 0.497942
    outer loop
      vertex -10.037 11.1472 3.79999
      vertex -13.9102 10.1063 0
      vertex -12.1353 8.81678 3.79999
    endloop
  endfacet
  facet normal -0.644463 0.580277 0.497942
    outer loop
      vertex -10.037 11.1472 3.79999
      vertex -11.505 12.7776 0
      vertex -13.2107 10.8831 0
    endloop
  endfacet
  facet normal 0.509733 -0.701588 0.497942
    outer loop
      vertex -8.56893 9.51676 0
      vertex -7.24869 10.476 0
      vertex -10.037 11.1472 3.79999
    endloop
  endfacet
  facet normal 0.509733 -0.701588 0.497942
    outer loop
      vertex -7.24869 10.476 0
      vertex -7.5 12.9904 3.79999
      vertex -10.037 11.1472 3.79999
    endloop
  endfacet
  facet normal 0.509733 -0.701588 0.497942
    outer loop
      vertex -7.5 12.9904 3.79999
      vertex -7.24869 10.476 0
      vertex -6.40304 11.0904 0
    endloop
  endfacet
  facet normal -0.509733 0.701588 0.497942
    outer loop
      vertex -10.6593 13.392 0
      vertex -10.037 11.1472 3.79999
      vertex -7.5 12.9904 3.79999
    endloop
  endfacet
  facet normal -0.509733 0.701588 0.497942
    outer loop
      vertex -10.037 11.1472 3.79999
      vertex -10.6593 13.392 0
      vertex -11.505 12.7776 0
    endloop
  endfacet
  facet normal -0.509733 0.701588 0.497942
    outer loop
      vertex -7.5 12.9904 3.79999
      vertex -8.59696 14.8904 0
      vertex -10.6593 13.392 0
    endloop
  endfacet
  facet normal 0.352726 -0.792236 0.497942
    outer loop
      vertex -6.40304 11.0904 0
      vertex -4.91221 11.7541 0
      vertex -7.5 12.9904 3.79999
    endloop
  endfacet
  facet normal 0.352726 -0.792236 0.497942
    outer loop
      vertex -4.91221 11.7541 0
      vertex -4.63525 14.2658 3.79999
      vertex -7.5 12.9904 3.79999
    endloop
  endfacet
  facet normal 0.352726 -0.792236 0.497942
    outer loop
      vertex -4.63525 14.2658 3.79999
      vertex -4.91221 11.7541 0
      vertex -3.95729 12.1793 0
    endloop
  endfacet
  facet normal -0.352726 0.792236 0.497942
    outer loop
      vertex -7.64205 15.3155 0
      vertex -7.5 12.9904 3.79999
      vertex -4.63525 14.2658 3.79999
    endloop
  endfacet
  facet normal -0.352726 0.792236 0.497942
    outer loop
      vertex -7.5 12.9904 3.79999
      vertex -7.64205 15.3155 0
      vertex -8.59696 14.8904 0
    endloop
  endfacet
  facet normal -0.352726 0.792236 0.497942
    outer loop
      vertex -4.63525 14.2658 3.79999
      vertex -5.31322 16.3524 0
      vertex -7.64205 15.3155 0
    endloop
  endfacet
  facet normal 0.180303 -0.848259 0.497942
    outer loop
      vertex -3.95729 12.1793 0
      vertex -2.36104 12.5186 0
      vertex -4.63525 14.2658 3.79999
    endloop
  endfacet
  facet normal 0.180303 -0.84826 0.497942
    outer loop
      vertex -2.36104 12.5186 0
      vertex -1.56793 14.9178 3.79999
      vertex -4.63525 14.2658 3.79999
    endloop
  endfacet
  facet normal 0.180303 -0.84826 0.497942
    outer loop
      vertex -1.56793 14.9178 3.79999
      vertex -2.36104 12.5186 0
      vertex -1.3386 12.7359 0
    endloop
  endfacet
  facet normal -0.180303 0.848259 0.497942
    outer loop
      vertex -4.29077 16.5697 0
      vertex -4.63525 14.2658 3.79999
      vertex -1.56793 14.9178 3.79999
    endloop
  endfacet
  facet normal -0.180303 0.848259 0.497942
    outer loop
      vertex -4.63525 14.2658 3.79999
      vertex -4.29077 16.5697 0
      vertex -5.31322 16.3524 0
    endloop
  endfacet
  facet normal -0.180303 0.848259 0.497943
    outer loop
      vertex -1.56793 14.9178 3.79999
      vertex -1.79725 17.0997 0
      vertex -4.29077 16.5697 0
    endloop
  endfacet
  facet normal 0 -0.867212 0.49794
    outer loop
      vertex -1.56793 14.9178 3.79999
      vertex 0 14.9089 3.78451
      vertex 0.0999994 14.9178 3.79999
    endloop
  endfacet
  facet normal 3.69932e-08 -0.86721 0.497942
    outer loop
      vertex -1.3386 12.7359 0
      vertex 0 14.9089 3.78451
      vertex -1.56793 14.9178 3.79999
    endloop
  endfacet
  facet normal 0 -0.86721 0.497942
    outer loop
      vertex 0 14.9089 3.78451
      vertex -1.3386 12.7359 0
      vertex 0 12.7359 0
    endloop
  endfacet
  facet normal 0 -0.867212 0.49794
    outer loop
      vertex 0.0999994 14.9178 3.79999
      vertex 0 14.9089 3.78451
      vertex 0.0999994 14.9089 3.78451
    endloop
  endfacet
  facet normal 0 0.86721 0.497943
    outer loop
      vertex 0.0999994 17.0997 0
      vertex -1.56793 14.9178 3.79999
      vertex 0.0999994 14.9178 3.79999
    endloop
  endfacet
  facet normal 0 0.86721 0.497943
    outer loop
      vertex -1.56793 14.9178 3.79999
      vertex 0.0999994 17.0997 0
      vertex -1.79725 17.0997 0
    endloop
  endfacet
  facet normal 0.180303 0.848263 0.497937
    outer loop
      vertex -2.12328 -12.5985 0.0499993
      vertex -2.11829 -12.5702 0
      vertex -2.62816 -12.4912 0.0499993
    endloop
  endfacet
  facet normal 0.180304 0.84826 0.497942
    outer loop
      vertex -2.62816 -12.4912 0.0499993
      vertex -2.93485 -12.3966 0
      vertex -2.69084 -12.8467 0.678332
    endloop
  endfacet
  facet normal 0.180303 0.848259 0.497944
    outer loop
      vertex -2.93485 -12.3966 0
      vertex -2.62816 -12.4912 0.0499993
      vertex -2.11829 -12.5702 0
    endloop
  endfacet
  facet normal 0.180302 0.848256 0.497948
    outer loop
      vertex -2.4977 -14.7202 3.79999
      vertex -3.00114 -14.6065 3.78858
      vertex -4.63525 -14.2658 3.79999
    endloop
  endfacet
  facet normal 0.180282 0.848181 0.498084
    outer loop
      vertex -2.4977 -14.7202 3.79999
      vertex -2.97559 -14.6115 3.78779
      vertex -3.00114 -14.6065 3.78858
    endloop
  endfacet
  facet normal 0.180303 0.848257 0.497946
    outer loop
      vertex -2.97559 -14.6115 3.78779
      vertex -2.4977 -14.7202 3.79999
      vertex -2.495 -14.7049 3.77295
    endloop
  endfacet
  facet normal 0.180303 0.848259 0.497942
    outer loop
      vertex -2.69084 -12.8467 0.678332
      vertex -4.63525 -14.2658 3.79999
      vertex -3.00114 -14.6065 3.78858
    endloop
  endfacet
  facet normal 0.180303 0.84826 0.497942
    outer loop
      vertex -3.95729 -12.1793 0
      vertex -2.69084 -12.8467 0.678332
      vertex -2.93485 -12.3966 0
    endloop
  endfacet
  facet normal 0.180303 0.84826 0.497942
    outer loop
      vertex -2.69084 -12.8467 0.678332
      vertex -3.95729 -12.1793 0
      vertex -4.63525 -14.2658 3.79999
    endloop
  endfacet
  facet normal -0.180303 -0.84826 0.497942
    outer loop
      vertex -2.86719 -16.814 0.0994118
      vertex -2.4977 -14.7202 3.79999
      vertex -4.63525 -14.2658 3.79999
    endloop
  endfacet
  facet normal -0.180303 -0.84826 0.497942
    outer loop
      vertex -5.31322 -16.3524 0
      vertex -2.86719 -16.814 0.0994118
      vertex -4.63525 -14.2658 3.79999
    endloop
  endfacet
  facet normal -0.180302 -0.848255 0.49795
    outer loop
      vertex -2.86719 -16.814 0.0994118
      vertex -5.31322 -16.3524 0
      vertex -2.87712 -16.8702 0
    endloop
  endfacet
  facet normal 0.352726 0.792236 0.497942
    outer loop
      vertex -4.63525 -14.2658 3.79999
      vertex -3.95729 -12.1793 0
      vertex -5.44812 -11.5155 0
    endloop
  endfacet
  facet normal 0.352726 0.792236 0.497942
    outer loop
      vertex -6.40304 -11.0904 0
      vertex -4.63525 -14.2658 3.79999
      vertex -5.44812 -11.5155 0
    endloop
  endfacet
  facet normal 0.352726 0.792236 0.497942
    outer loop
      vertex -4.63525 -14.2658 3.79999
      vertex -6.40304 -11.0904 0
      vertex -7.5 -12.9904 3.79999
    endloop
  endfacet
  facet normal -0.352726 -0.792236 0.497942
    outer loop
      vertex -6.26813 -15.9272 0
      vertex -4.63525 -14.2658 3.79999
      vertex -7.5 -12.9904 3.79999
    endloop
  endfacet
  facet normal -0.352726 -0.792236 0.497942
    outer loop
      vertex -4.63525 -14.2658 3.79999
      vertex -6.26813 -15.9272 0
      vertex -5.31322 -16.3524 0
    endloop
  endfacet
  facet normal -0.352726 -0.792236 0.497942
    outer loop
      vertex -6.26813 -15.9272 0
      vertex -7.5 -12.9904 3.79999
      vertex -8.59696 -14.8904 0
    endloop
  endfacet
  facet normal 0.509733 0.701588 0.497942
    outer loop
      vertex -7.5 -12.9904 3.79999
      vertex -6.40304 -11.0904 0
      vertex -7.72328 -10.1312 0
    endloop
  endfacet
  facet normal 0.509733 0.701588 0.497942
    outer loop
      vertex -8.56893 -9.51676 0
      vertex -7.5 -12.9904 3.79999
      vertex -7.72328 -10.1312 0
    endloop
  endfacet
  facet normal 0.509733 0.701588 0.497942
    outer loop
      vertex -7.5 -12.9904 3.79999
      vertex -8.56893 -9.51676 0
      vertex -10.037 -11.1472 3.79999
    endloop
  endfacet
  facet normal -0.509733 -0.701588 0.497942
    outer loop
      vertex -8.59696 -14.8904 0
      vertex -10.037 -11.1472 3.79999
      vertex -9.44262 -14.276 0
    endloop
  endfacet
  facet normal -0.509733 -0.701588 0.497942
    outer loop
      vertex -10.037 -11.1472 3.79999
      vertex -8.59696 -14.8904 0
      vertex -7.5 -12.9904 3.79999
    endloop
  endfacet
  facet normal -0.509734 -0.701588 0.497942
    outer loop
      vertex -9.44262 -14.276 0
      vertex -10.037 -11.1472 3.79999
      vertex -11.505 -12.7776 0
    endloop
  endfacet
  facet normal 0.644462 0.580277 0.497942
    outer loop
      vertex -8.56893 -9.51676 0
      vertex -9.6609 -8.30402 0
      vertex -10.037 -11.1472 3.79999
    endloop
  endfacet
  facet normal 0.644463 0.580277 0.497942
    outer loop
      vertex -12.1353 -8.81678 3.79999
      vertex -9.6609 -8.30402 0
      vertex -10.3603 -7.52722 0
    endloop
  endfacet
  facet normal 0.644463 0.580277 0.497942
    outer loop
      vertex -9.6609 -8.30402 0
      vertex -12.1353 -8.81678 3.79999
      vertex -10.037 -11.1472 3.79999
    endloop
  endfacet
  facet normal -0.644463 -0.580277 0.497942
    outer loop
      vertex -12.2044 -12.0008 0
      vertex -10.037 -11.1472 3.79999
      vertex -12.1353 -8.81678 3.79999
    endloop
  endfacet
  facet normal -0.644462 -0.580277 0.497942
    outer loop
      vertex -10.037 -11.1472 3.79999
      vertex -12.2044 -12.0008 0
      vertex -11.505 -12.7776 0
    endloop
  endfacet
  facet normal -0.644463 -0.580277 0.497942
    outer loop
      vertex -12.2044 -12.0008 0
      vertex -12.1353 -8.81678 3.79999
      vertex -13.9102 -10.1063 0
    endloop
  endfacet
  facet normal 0.751026 0.433605 0.497942
    outer loop
      vertex -10.3603 -7.52722 0
      vertex -11.1763 -6.11394 0
      vertex -12.1353 -8.81678 3.79999
    endloop
  endfacet
  facet normal 0.751026 0.433605 0.497942
    outer loop
      vertex -13.7032 -6.10105 3.79999
      vertex -11.1763 -6.11394 0
      vertex -11.6989 -5.2087 0
    endloop
  endfacet
  facet normal 0.751026 0.433605 0.497942
    outer loop
      vertex -11.1763 -6.11394 0
      vertex -13.7032 -6.10105 3.79999
      vertex -12.1353 -8.81678 3.79999
    endloop
  endfacet
  facet normal -0.751026 -0.433605 0.497942
    outer loop
      vertex -14.4328 -9.20109 0
      vertex -12.1353 -8.81678 3.79999
      vertex -13.7032 -6.10105 3.79999
    endloop
  endfacet
  facet normal -0.751026 -0.433605 0.497942
    outer loop
      vertex -12.1353 -8.81678 3.79999
      vertex -14.4328 -9.20109 0
      vertex -13.9102 -10.1063 0
    endloop
  endfacet
  facet normal -0.751026 -0.433605 0.497942
    outer loop
      vertex -14.4328 -9.20109 0
      vertex -13.7032 -6.10105 3.79999
      vertex -15.7074 -6.9934 0
    endloop
  endfacet
  facet normal 0.824766 0.267983 0.497942
    outer loop
      vertex -11.6989 -5.2087 0
      vertex -12.2032 -3.65666 0
      vertex -13.7032 -6.10105 3.79999
    endloop
  endfacet
  facet normal 0.824766 0.267982 0.497942
    outer loop
      vertex -14.6722 -3.11868 3.79999
      vertex -12.2032 -3.65666 0
      vertex -12.5262 -2.66253 0
    endloop
  endfacet
  facet normal 0.824766 0.267983 0.497942
    outer loop
      vertex -12.2032 -3.65666 0
      vertex -14.6722 -3.11868 3.79999
      vertex -13.7032 -6.10105 3.79999
    endloop
  endfacet
  facet normal -0.824766 -0.267983 0.497942
    outer loop
      vertex -16.0304 -5.99928 0
      vertex -13.7032 -6.10105 3.79999
      vertex -14.6722 -3.11868 3.79999
    endloop
  endfacet
  facet normal -0.824766 -0.267982 0.497942
    outer loop
      vertex -13.7032 -6.10105 3.79999
      vertex -16.0304 -5.99928 0
      vertex -15.7074 -6.9934 0
    endloop
  endfacet
  facet normal -0.824766 -0.267983 0.497942
    outer loop
      vertex -16.0304 -5.99928 0
      vertex -14.6722 -3.11868 3.79999
      vertex -16.8182 -3.57482 0
    endloop
  endfacet
  facet normal 0.862459 0.0906484 0.497942
    outer loop
      vertex -12.5262 -2.66253 0
      vertex -12.6968 -1.03956 0
      vertex -14.6722 -3.11868 3.79999
    endloop
  endfacet
  facet normal 0.862459 0.0906485 0.497942
    outer loop
      vertex -15 0 3.79999
      vertex -12.6968 -1.03956 0
      vertex -12.8061 0 0
    endloop
  endfacet
  facet normal 0.862459 0.0906483 0.497942
    outer loop
      vertex -12.6968 -1.03956 0
      vertex -15 0 3.79999
      vertex -14.6722 -3.11868 3.79999
    endloop
  endfacet
  facet normal -0.86246 -0.0906483 0.497942
    outer loop
      vertex -16.9275 -2.53526 0
      vertex -14.6722 -3.11868 3.79999
      vertex -15 0 3.79999
    endloop
  endfacet
  facet normal -0.862459 -0.0906485 0.497942
    outer loop
      vertex -14.6722 -3.11868 3.79999
      vertex -16.9275 -2.53526 0
      vertex -16.8182 -3.57482 0
    endloop
  endfacet
  facet normal -0.862459 -0.0906486 0.497942
    outer loop
      vertex -16.9275 -2.53526 0
      vertex -15 0 3.79999
      vertex -17.1939 0 0
    endloop
  endfacet
  facet normal 0.984784 -0.173783 -1.79307e-06
    outer loop
      vertex -2.4977 -14.7202 3.79999
      vertex -2.51654 -14.8269 3.55834
      vertex -2.495 -14.7049 3.77295
    endloop
  endfacet
  facet normal 0.984783 -0.173786 -5.13329e-07
    outer loop
      vertex -2.86719 -16.814 0.0994118
      vertex -2.51654 -14.8269 3.55834
      vertex -2.4977 -14.7202 3.79999
    endloop
  endfacet
  facet normal 0.984783 -0.173791 2.628e-06
    outer loop
      vertex -2.86719 -16.814 0.0994118
      vertex -2.86855 -16.8216 0.0500078
      vertex -2.51654 -14.8269 3.55834
    endloop
  endfacet
  facet normal 0.984784 -0.173784 1.47079e-06
    outer loop
      vertex -2.86855 -16.8216 0.0500078
      vertex -2.86719 -16.814 0.0994118
      vertex -2.87712 -16.8702 0
    endloop
  endfacet
  facet normal 0.984783 -0.173787 1.12316e-06
    outer loop
      vertex -2.86855 -16.8216 0.0500078
      vertex -2.11829 -12.5702 0
      vertex -2.12328 -12.5985 0.0499993
    endloop
  endfacet
  facet normal 0.984783 -0.173787 4.11883e-06
    outer loop
      vertex -2.11829 -12.5702 0
      vertex -2.86855 -16.8216 0.0500078
      vertex -2.87712 -16.8702 0
    endloop
  endfacet
  facet normal 1 0 0
    outer loop
      vertex 0.0999994 14.9178 3.79999
      vertex 0.0999994 17.0939 0
      vertex 0.0999994 17.0997 0
    endloop
  endfacet
  facet normal 1 0 0
    outer loop
      vertex 0.0999994 17.0939 0
      vertex 0.0999994 14.9178 3.79999
      vertex 0.0999994 14.9089 3.78451
    endloop
  endfacet
  facet normal 0 0 -1
    outer loop
      vertex 0 12.7359 0
      vertex -1.3386 12.7359 0
      vertex 0 17.0939 0
    endloop
  endfacet
  facet normal 0 0 -1
    outer loop
      vertex 0 17.0939 0
      vertex 0.0999994 17.0997 0
      vertex 0.0999994 17.0939 0
    endloop
  endfacet
  facet normal 0 0 -1
    outer loop
      vertex 0 17.0939 0
      vertex -1.79725 17.0997 0
      vertex 0.0999994 17.0997 0
    endloop
  endfacet
  facet normal 0 0 -1
    outer loop
      vertex -1.3386 12.7359 0
      vertex -1.79725 17.0997 0
      vertex 0 17.0939 0
    endloop
  endfacet
  facet normal 0 0 -1
    outer loop
      vertex -2.36104 12.5186 0
      vertex -1.79725 17.0997 0
      vertex -1.3386 12.7359 0
    endloop
  endfacet
  facet normal 0 0 -1
    outer loop
      vertex -4.29077 16.5697 0
      vertex -2.36104 12.5186 0
      vertex -3.95729 12.1793 0
    endloop
  endfacet
  facet normal 0 0 -1
    outer loop
      vertex -2.36104 12.5186 0
      vertex -4.29077 16.5697 0
      vertex -1.79725 17.0997 0
    endloop
  endfacet
  facet normal 0 0 -1
    outer loop
      vertex -5.31322 16.3524 0
      vertex -3.95729 12.1793 0
      vertex -4.91221 11.7541 0
    endloop
  endfacet
  facet normal 0 0 -1
    outer loop
      vertex -3.95729 12.1793 0
      vertex -5.31322 16.3524 0
      vertex -4.29077 16.5697 0
    endloop
  endfacet
  facet normal 0 0 -1
    outer loop
      vertex -7.64205 15.3155 0
      vertex -4.91221 11.7541 0
      vertex -6.40304 11.0904 0
    endloop
  endfacet
  facet normal 0 0 -1
    outer loop
      vertex -8.59696 14.8904 0
      vertex -6.40304 11.0904 0
      vertex -7.24869 10.476 0
    endloop
  endfacet
  facet normal 0 0 -1
    outer loop
      vertex -4.91221 11.7541 0
      vertex -7.64205 15.3155 0
      vertex -5.31322 16.3524 0
    endloop
  endfacet
  facet normal 0 0 -1
    outer loop
      vertex -10.6593 13.392 0
      vertex -7.24869 10.476 0
      vertex -8.56893 9.51676 0
    endloop
  endfacet
  facet normal 0 0 -1
    outer loop
      vertex -6.40304 11.0904 0
      vertex -8.59696 14.8904 0
      vertex -7.64205 15.3155 0
    endloop
  endfacet
  facet normal 0 0 -1
    outer loop
      vertex -11.505 12.7776 0
      vertex -8.56893 9.51676 0
      vertex -9.26837 8.73997 0
    endloop
  endfacet
  facet normal 0 0 -1
    outer loop
      vertex -13.2107 10.8831 0
      vertex -9.26837 8.73997 0
      vertex -10.3603 7.52722 0
    endloop
  endfacet
  facet normal 0 0 -1
    outer loop
      vertex -7.24869 10.476 0
      vertex -10.6593 13.392 0
      vertex -8.59696 14.8904 0
    endloop
  endfacet
  facet normal 0 0 -1
    outer loop
      vertex -13.9102 10.1063 0
      vertex -10.3603 7.52722 0
      vertex -10.883 6.62198 0
    endloop
  endfacet
  facet normal 0 0 -1
    outer loop
      vertex -8.56893 9.51676 0
      vertex -11.505 12.7776 0
      vertex -10.6593 13.392 0
    endloop
  endfacet
  facet normal 0 0 -1
    outer loop
      vertex -15.1848 7.89864 0
      vertex -10.883 6.62198 0
      vertex -11.6989 5.2087 0
    endloop
  endfacet
  facet normal 0 0 -1
    outer loop
      vertex -15.7074 6.9934 0
      vertex -11.6989 5.2087 0
      vertex -12.0219 4.21457 0
    endloop
  endfacet
  facet normal 0 0 -1
    outer loop
      vertex -16.4952 4.56894 0
      vertex -12.0219 4.21457 0
      vertex -12.5262 2.66253 0
    endloop
  endfacet
  facet normal 0 0 -1
    outer loop
      vertex -16.8182 3.57482 0
      vertex -12.5262 2.66253 0
      vertex -12.6355 1.62297 0
    endloop
  endfacet
  facet normal 0 0 -1
    outer loop
      vertex -17.0847 1.03956 0
      vertex -12.6355 1.62297 0
      vertex -12.8061 0 0
    endloop
  endfacet
  facet normal 0 0 -1
    outer loop
      vertex -9.26837 8.73997 0
      vertex -13.2107 10.8831 0
      vertex -11.505 12.7776 0
    endloop
  endfacet
  facet normal 0 0 -1
    outer loop
      vertex -2.87712 -16.8702 0
      vertex -2.93485 -12.3966 0
      vertex -2.11829 -12.5702 0
    endloop
  endfacet
  facet normal 0 0 -1
    outer loop
      vertex -5.31322 -16.3524 0
      vertex -2.93485 -12.3966 0
      vertex -2.87712 -16.8702 0
    endloop
  endfacet
  facet normal -0 0 -1
    outer loop
      vertex -2.93485 -12.3966 0
      vertex -5.31322 -16.3524 0
      vertex -3.95729 -12.1793 0
    endloop
  endfacet
  facet normal 0 0 -1
    outer loop
      vertex -6.26813 -15.9272 0
      vertex -3.95729 -12.1793 0
      vertex -5.31322 -16.3524 0
    endloop
  endfacet
  facet normal -0 0 -1
    outer loop
      vertex -3.95729 -12.1793 0
      vertex -6.26813 -15.9272 0
      vertex -5.44812 -11.5155 0
    endloop
  endfacet
  facet normal 0 0 -1
    outer loop
      vertex -8.59696 -14.8904 0
      vertex -5.44812 -11.5155 0
      vertex -6.26813 -15.9272 0
    endloop
  endfacet
  facet normal -0 0 -1
    outer loop
      vertex -5.44812 -11.5155 0
      vertex -8.59696 -14.8904 0
      vertex -6.40304 -11.0904 0
    endloop
  endfacet
  facet normal 0 0 -1
    outer loop
      vertex -9.44262 -14.276 0
      vertex -6.40304 -11.0904 0
      vertex -8.59696 -14.8904 0
    endloop
  endfacet
  facet normal -0 0 -1
    outer loop
      vertex -6.40304 -11.0904 0
      vertex -9.44262 -14.276 0
      vertex -7.72328 -10.1312 0
    endloop
  endfacet
  facet normal 0 0 -1
    outer loop
      vertex -11.505 -12.7776 0
      vertex -7.72328 -10.1312 0
      vertex -9.44262 -14.276 0
    endloop
  endfacet
  facet normal -0 0 -1
    outer loop
      vertex -7.72328 -10.1312 0
      vertex -11.505 -12.7776 0
      vertex -8.56893 -9.51676 0
    endloop
  endfacet
  facet normal 0 0 -1
    outer loop
      vertex -12.2044 -12.0008 0
      vertex -8.56893 -9.51676 0
      vertex -11.505 -12.7776 0
    endloop
  endfacet
  facet normal -0 0 -1
    outer loop
      vertex -8.56893 -9.51676 0
      vertex -12.2044 -12.0008 0
      vertex -9.6609 -8.30402 0
    endloop
  endfacet
  facet normal 0 0 -1
    outer loop
      vertex -13.9102 -10.1063 0
      vertex -9.6609 -8.30402 0
      vertex -12.2044 -12.0008 0
    endloop
  endfacet
  facet normal -0 0 -1
    outer loop
      vertex -9.6609 -8.30402 0
      vertex -13.9102 -10.1063 0
      vertex -10.3603 -7.52722 0
    endloop
  endfacet
  facet normal 0 0 -1
    outer loop
      vertex -14.4328 -9.20109 0
      vertex -10.3603 -7.52722 0
      vertex -13.9102 -10.1063 0
    endloop
  endfacet
  facet normal -0 0 -1
    outer loop
      vertex -10.3603 -7.52722 0
      vertex -14.4328 -9.20109 0
      vertex -11.1763 -6.11394 0
    endloop
  endfacet
  facet normal 0 0 -1
    outer loop
      vertex -15.7074 -6.9934 0
      vertex -11.1763 -6.11394 0
      vertex -14.4328 -9.20109 0
    endloop
  endfacet
  facet normal -0 0 -1
    outer loop
      vertex -11.1763 -6.11394 0
      vertex -15.7074 -6.9934 0
      vertex -11.6989 -5.2087 0
    endloop
  endfacet
  facet normal 0 0 -1
    outer loop
      vertex -16.0304 -5.99928 0
      vertex -11.6989 -5.2087 0
      vertex -15.7074 -6.9934 0
    endloop
  endfacet
  facet normal -0 0 -1
    outer loop
      vertex -11.6989 -5.2087 0
      vertex -16.0304 -5.99928 0
      vertex -12.2032 -3.65666 0
    endloop
  endfacet
  facet normal 0 0 -1
    outer loop
      vertex -16.8182 -3.57482 0
      vertex -12.2032 -3.65666 0
      vertex -16.0304 -5.99928 0
    endloop
  endfacet
  facet normal 0 0 -1
    outer loop
      vertex -12.2032 -3.65666 0
      vertex -16.8182 -3.57482 0
      vertex -12.5262 -2.66253 0
    endloop
  endfacet
  facet normal 0 0 -1
    outer loop
      vertex -10.883 6.62198 0
      vertex -15.1848 7.89864 0
      vertex -13.9102 10.1063 0
    endloop
  endfacet
  facet normal 0 0 -1
    outer loop
      vertex -10.3603 7.52722 0
      vertex -13.9102 10.1063 0
      vertex -13.2107 10.8831 0
    endloop
  endfacet
  facet normal 0 0 -1
    outer loop
      vertex -16.9275 -2.53526 0
      vertex -12.5262 -2.66253 0
      vertex -16.8182 -3.57482 0
    endloop
  endfacet
  facet normal 0 0 -1
    outer loop
      vertex -12.5262 -2.66253 0
      vertex -16.9275 -2.53526 0
      vertex -12.6968 -1.03956 0
    endloop
  endfacet
  facet normal 0 0 -1
    outer loop
      vertex -12.0219 4.21457 0
      vertex -16.4952 4.56894 0
      vertex -15.7074 6.9934 0
    endloop
  endfacet
  facet normal 0 0 -1
    outer loop
      vertex -11.6989 5.2087 0
      vertex -15.7074 6.9934 0
      vertex -15.1848 7.89864 0
    endloop
  endfacet
  facet normal 0 0 -1
    outer loop
      vertex -17.1939 0 0
      vertex -12.6968 -1.03956 0
      vertex -16.9275 -2.53526 0
    endloop
  endfacet
  facet normal 0 0 -1
    outer loop
      vertex -12.6968 -1.03956 0
      vertex -17.1939 0 0
      vertex -12.8061 0 0
    endloop
  endfacet
  facet normal -0 0 -1
    outer loop
      vertex -12.6355 1.62297 0
      vertex -17.0847 1.03956 0
      vertex -16.8182 3.57482 0
    endloop
  endfacet
  facet normal 0 0 -1
    outer loop
      vertex -12.5262 2.66253 0
      vertex -16.8182 3.57482 0
      vertex -16.4952 4.56894 0
    endloop
  endfacet
  facet normal 0 0 -1
    outer loop
      vertex -12.8061 0 0
      vertex -17.1939 0 0
      vertex -17.0847 1.03956 0
    endloop
  endfacet
  facet normal 0.862459 -0.0906479 0.497942
    outer loop
      vertex -22.8061 0 0
      vertex -22.4898 3.00905 0
      vertex -25 0 3.79999
    endloop
  endfacet
  facet normal 0.862459 -0.0906485 0.497942
    outer loop
      vertex -24.4537 5.19779 3.79999
      vertex -22.4898 3.00905 0
      vertex -22.3077 4.74165 0
    endloop
  endfacet
  facet normal 0.86246 -0.0906482 0.497942
    outer loop
      vertex -22.4898 3.00905 0
      vertex -24.4537 5.19779 3.79999
      vertex -25 0 3.79999
    endloop
  endfacet
  facet normal -0.862459 0.0906485 0.497942
    outer loop
      vertex -25 0 3.79999
      vertex -27.0118 1.7326 0
      vertex -27.1939 0 0
    endloop
  endfacet
  facet normal -0.862459 0.0906482 0.497942
    outer loop
      vertex -27.0118 1.7326 0
      vertex -25 0 3.79999
      vertex -24.4537 5.19779 3.79999
    endloop
  endfacet
  facet normal -0.862459 0.0906482 0.497942
    outer loop
      vertex -24.4537 5.19779 3.79999
      vertex -26.5997 5.65393 0
      vertex -27.0118 1.7326 0
    endloop
  endfacet
  facet normal 0.824766 -0.267982 0.497942
    outer loop
      vertex -22.3077 4.74165 0
      vertex -21.3727 7.61919 0
      vertex -24.4537 5.19779 3.79999
    endloop
  endfacet
  facet normal 0.824766 -0.267983 0.497942
    outer loop
      vertex -22.8386 10.1684 3.79999
      vertex -21.3727 7.61919 0
      vertex -20.8344 9.27606 0
    endloop
  endfacet
  facet normal 0.824766 -0.267983 0.497942
    outer loop
      vertex -21.3727 7.61919 0
      vertex -22.8386 10.1684 3.79999
      vertex -24.4537 5.19779 3.79999
    endloop
  endfacet
  facet normal -0.824766 0.267983 0.497942
    outer loop
      vertex -24.4537 5.19779 3.79999
      vertex -26.0613 7.31081 0
      vertex -26.5997 5.65393 0
    endloop
  endfacet
  facet normal -0.824766 0.267983 0.497942
    outer loop
      vertex -26.0613 7.31081 0
      vertex -24.4537 5.19779 3.79999
      vertex -22.8386 10.1684 3.79999
    endloop
  endfacet
  facet normal -0.824766 0.267983 0.497942
    outer loop
      vertex -22.8386 10.1684 3.79999
      vertex -24.8429 11.0608 0
      vertex -26.0613 7.31081 0
    endloop
  endfacet
  facet normal 0.751026 -0.433605 0.497942
    outer loop
      vertex -20.8344 9.27606 0
      vertex -19.3216 11.8963 0
      vertex -22.8386 10.1684 3.79999
    endloop
  endfacet
  facet normal 0.751026 -0.433605 0.497943
    outer loop
      vertex -20.2254 14.6946 3.79999
      vertex -19.3216 11.8963 0
      vertex -18.4505 13.4051 0
    endloop
  endfacet
  facet normal 0.751026 -0.433605 0.497942
    outer loop
      vertex -19.3216 11.8963 0
      vertex -20.2254 14.6946 3.79999
      vertex -22.8386 10.1684 3.79999
    endloop
  endfacet
  facet normal -0.751026 0.433605 0.497942
    outer loop
      vertex -22.8386 10.1684 3.79999
      vertex -23.9718 12.5695 0
      vertex -24.8429 11.0608 0
    endloop
  endfacet
  facet normal -0.751026 0.433605 0.497942
    outer loop
      vertex -23.9718 12.5695 0
      vertex -22.8386 10.1684 3.79999
      vertex -20.2254 14.6946 3.79999
    endloop
  endfacet
  facet normal -0.751026 0.433605 0.497942
    outer loop
      vertex -20.2254 14.6946 3.79999
      vertex -22.0004 15.9842 0
      vertex -23.9718 12.5695 0
    endloop
  endfacet
  facet normal 0.644463 -0.580277 0.497943
    outer loop
      vertex -18.4505 13.4051 0
      vertex -16.426 15.6536 0
      vertex -20.2254 14.6946 3.79999
    endloop
  endfacet
  facet normal 0.644463 -0.580277 0.497942
    outer loop
      vertex -20.2254 14.6946 3.79999
      vertex -15.2602 16.9482 0
      vertex -16.7283 18.5786 3.79999
    endloop
  endfacet
  facet normal 0.644463 -0.580277 0.497942
    outer loop
      vertex -15.2602 16.9482 0
      vertex -20.2254 14.6946 3.79999
      vertex -16.426 15.6536 0
    endloop
  endfacet
  facet normal -0.644463 0.580277 0.497942
    outer loop
      vertex -22.0004 15.9842 0
      vertex -16.7283 18.5786 3.79999
      vertex -20.8346 17.2789 0
    endloop
  endfacet
  facet normal -0.644463 0.580277 0.497942
    outer loop
      vertex -16.7283 18.5786 3.79999
      vertex -22.0004 15.9842 0
      vertex -20.2254 14.6946 3.79999
    endloop
  endfacet
  facet normal -0.644463 0.580277 0.497942
    outer loop
      vertex -16.7283 18.5786 3.79999
      vertex -18.1963 20.209 0
      vertex -20.8346 17.2789 0
    endloop
  endfacet
  facet normal 0.509733 -0.701588 0.497942
    outer loop
      vertex -15.2602 16.9482 0
      vertex -12.8125 18.7266 0
      vertex -16.7283 18.5786 3.79999
    endloop
  endfacet
  facet normal 0.509733 -0.701588 0.497942
    outer loop
      vertex -12.8125 18.7266 0
      vertex -12.5 21.6506 3.79999
      vertex -16.7283 18.5786 3.79999
    endloop
  endfacet
  facet normal 0.509734 -0.701588 0.497942
    outer loop
      vertex -12.5 21.6506 3.79999
      vertex -12.8125 18.7266 0
      vertex -11.403 19.7506 0
    endloop
  endfacet
  facet normal -0.509733 0.701588 0.497942
    outer loop
      vertex -16.7869 21.233 0
      vertex -16.7283 18.5786 3.79999
      vertex -12.5 21.6506 3.79999
    endloop
  endfacet
  facet normal -0.509734 0.701587 0.497942
    outer loop
      vertex -16.7283 18.5786 3.79999
      vertex -16.7869 21.233 0
      vertex -18.1963 20.209 0
    endloop
  endfacet
  facet normal -0.509733 0.701588 0.497942
    outer loop
      vertex -12.5 21.6506 3.79999
      vertex -13.597 23.5506 0
      vertex -16.7869 21.233 0
    endloop
  endfacet
  facet normal 0.352726 -0.792236 0.497942
    outer loop
      vertex -11.403 19.7506 0
      vertex -8.63899 20.9813 0
      vertex -12.5 21.6506 3.79999
    endloop
  endfacet
  facet normal 0.352726 -0.792236 0.497942
    outer loop
      vertex -8.63899 20.9813 0
      vertex -7.72542 23.7764 3.79999
      vertex -12.5 21.6506 3.79999
    endloop
  endfacet
  facet normal 0.352726 -0.792236 0.497943
    outer loop
      vertex -7.72542 23.7764 3.79999
      vertex -8.63899 20.9813 0
      vertex -7.04746 21.6899 0
    endloop
  endfacet
  facet normal -0.352726 0.792236 0.497942
    outer loop
      vertex -12.0054 24.2592 0
      vertex -12.5 21.6506 3.79999
      vertex -7.72542 23.7764 3.79999
    endloop
  endfacet
  facet normal -0.352726 0.792236 0.497942
    outer loop
      vertex -12.5 21.6506 3.79999
      vertex -12.0054 24.2592 0
      vertex -13.597 23.5506 0
    endloop
  endfacet
  facet normal -0.352726 0.792236 0.497942
    outer loop
      vertex -7.72542 23.7764 3.79999
      vertex -8.40339 25.863 0
      vertex -12.0054 24.2592 0
    endloop
  endfacet
  facet normal 0.180303 -0.848259 0.497943
    outer loop
      vertex -7.04746 21.6899 0
      vertex -4.08795 22.3189 0
      vertex -7.72542 23.7764 3.79999
    endloop
  endfacet
  facet normal 0.180303 -0.848259 0.497943
    outer loop
      vertex -4.08795 22.3189 0
      vertex -2.61321 24.863 3.79999
      vertex -7.72542 23.7764 3.79999
    endloop
  endfacet
  facet normal 0.180304 -0.848259 0.497942
    outer loop
      vertex -2.61321 24.863 3.79999
      vertex -4.08795 22.3189 0
      vertex -2.38388 22.6811 0
    endloop
  endfacet
  facet normal -0.180303 0.84826 0.497942
    outer loop
      vertex -6.69931 26.2252 0
      vertex -7.72542 23.7764 3.79999
      vertex -2.61321 24.863 3.79999
    endloop
  endfacet
  facet normal -0.180303 0.84826 0.497942
    outer loop
      vertex -7.72542 23.7764 3.79999
      vertex -6.69931 26.2252 0
      vertex -8.40339 25.863 0
    endloop
  endfacet
  facet normal -0.180303 0.848259 0.497943
    outer loop
      vertex -2.61321 24.863 3.79999
      vertex -2.84254 27.045 0
      vertex -6.69931 26.2252 0
    endloop
  endfacet
  facet normal 0 -0.86721 0.497942
    outer loop
      vertex -2.38388 22.6811 0
      vertex 0.0999994 24.863 3.79999
      vertex -2.61321 24.863 3.79999
    endloop
  endfacet
  facet normal 0 -0.86721 0.497942
    outer loop
      vertex 0.0999994 24.863 3.79999
      vertex -2.38388 22.6811 0
      vertex 0.0999994 22.6811 0
    endloop
  endfacet
  facet normal -0 0.867215 0.497933
    outer loop
      vertex 0 24.8815 3.76789
      vertex 0.0999994 24.863 3.79999
      vertex 0.0999994 24.8815 3.76789
    endloop
  endfacet
  facet normal 0 0.867215 0.497933
    outer loop
      vertex 0.0999994 24.863 3.79999
      vertex 0 24.8815 3.76789
      vertex -2.61321 24.863 3.79999
    endloop
  endfacet
  facet normal 1.52185e-07 0.86721 0.497943
    outer loop
      vertex 0 27.045 0
      vertex -2.61321 24.863 3.79999
      vertex 0 24.8815 3.76789
    endloop
  endfacet
  facet normal 0 0.86721 0.497943
    outer loop
      vertex -2.61321 24.863 3.79999
      vertex 0 27.045 0
      vertex -2.84254 27.045 0
    endloop
  endfacet
  facet normal 0.180383 0.848239 0.497948
    outer loop
      vertex -3.85267 -22.3983 0.0499992
      vertex -3.84768 -22.37 0
      vertex -3.85932 -22.3969 0.0499992
    endloop
  endfacet
  facet normal 0.180305 0.848263 0.497936
    outer loop
      vertex -5.34339 -22.0521 0
      vertex -3.86108 -22.4459 0.134189
      vertex -3.85932 -22.3969 0.0499992
    endloop
  endfacet
  facet normal 0.180303 0.848259 0.497943
    outer loop
      vertex -3.86108 -22.4459 0.134189
      vertex -5.34339 -22.0521 0
      vertex -4.03018 -23.4041 1.82779
    endloop
  endfacet
  facet normal 0.180304 0.84826 0.497941
    outer loop
      vertex -5.34339 -22.0521 0
      vertex -3.85932 -22.3969 0.0499992
      vertex -3.84768 -22.37 0
    endloop
  endfacet
  facet normal 0.180303 0.84826 0.497942
    outer loop
      vertex -4.03018 -23.4041 1.82779
      vertex -7.72542 -23.7764 3.79999
      vertex -4.2271 -24.52 3.79999
    endloop
  endfacet
  facet normal 0.180303 0.848259 0.497943
    outer loop
      vertex -7.04746 -21.6899 0
      vertex -4.03018 -23.4041 1.82779
      vertex -5.34339 -22.0521 0
    endloop
  endfacet
  facet normal 0.180303 0.848259 0.497943
    outer loop
      vertex -4.03018 -23.4041 1.82779
      vertex -7.04746 -21.6899 0
      vertex -7.72542 -23.7764 3.79999
    endloop
  endfacet
  facet normal -0.180296 -0.848228 0.497999
    outer loop
      vertex -4.39857 -24.4919 3.78576
      vertex -4.2271 -24.52 3.79999
      vertex -7.72542 -23.7764 3.79999
    endloop
  endfacet
  facet normal -0.180302 -0.848265 0.497933
    outer loop
      vertex -4.2271 -24.52 3.79999
      vertex -4.37057 -24.4974 3.78662
      vertex -4.22799 -24.5251 3.79102
    endloop
  endfacet
  facet normal -0.180301 -0.848477 0.497572
    outer loop
      vertex -4.2271 -24.52 3.79999
      vertex -4.39857 -24.4919 3.78576
      vertex -4.37057 -24.4974 3.78662
    endloop
  endfacet
  facet normal -0.180303 -0.84826 0.497942
    outer loop
      vertex -4.39857 -24.4919 3.78576
      vertex -7.72542 -23.7764 3.79999
      vertex -4.7518 -26.4951 0.245283
    endloop
  endfacet
  facet normal -0.180303 -0.84826 0.497942
    outer loop
      vertex -8.40339 -25.863 0
      vertex -4.7518 -26.4951 0.245283
      vertex -7.72542 -23.7764 3.79999
    endloop
  endfacet
  facet normal -0.180303 -0.84826 0.497942
    outer loop
      vertex -4.7518 -26.4951 0.245283
      vertex -8.40339 -25.863 0
      vertex -4.77128 -26.6056 0.0500078
    endloop
  endfacet
  facet normal -0.180302 -0.848253 0.497954
    outer loop
      vertex -4.60651 -26.67 0
      vertex -4.77128 -26.6056 0.0500078
      vertex -8.40339 -25.863 0
    endloop
  endfacet
  facet normal -0.180311 -0.848262 0.497936
    outer loop
      vertex -4.77128 -26.6056 0.0500078
      vertex -4.60651 -26.67 0
      vertex -4.60152 -26.6417 0.0500078
    endloop
  endfacet
  facet normal 0.352726 0.792236 0.497943
    outer loop
      vertex -7.72542 -23.7764 3.79999
      vertex -7.04746 -21.6899 0
      vertex -9.81151 -20.4592 0
    endloop
  endfacet
  facet normal 0.352726 0.792236 0.497942
    outer loop
      vertex -9.81151 -20.4592 0
      vertex -12.5 -21.6506 3.79999
      vertex -7.72542 -23.7764 3.79999
    endloop
  endfacet
  facet normal 0.352726 0.792236 0.497942
    outer loop
      vertex -12.5 -21.6506 3.79999
      vertex -9.81151 -20.4592 0
      vertex -11.403 -19.7506 0
    endloop
  endfacet
  facet normal -0.352726 -0.792236 0.497942
    outer loop
      vertex -9.99491 -25.1544 0
      vertex -7.72542 -23.7764 3.79999
      vertex -12.5 -21.6506 3.79999
    endloop
  endfacet
  facet normal -0.352726 -0.792236 0.497942
    outer loop
      vertex -7.72542 -23.7764 3.79999
      vertex -9.99491 -25.1544 0
      vertex -8.40339 -25.863 0
    endloop
  endfacet
  facet normal -0.352726 -0.792236 0.497942
    outer loop
      vertex -9.99491 -25.1544 0
      vertex -12.5 -21.6506 3.79999
      vertex -13.597 -23.5506 0
    endloop
  endfacet
  facet normal 0.509734 0.701588 0.497942
    outer loop
      vertex -12.5 -21.6506 3.79999
      vertex -11.403 -19.7506 0
      vertex -13.8508 -17.9722 0
    endloop
  endfacet
  facet normal 0.509733 0.701588 0.497943
    outer loop
      vertex -15.2602 -16.9482 0
      vertex -12.5 -21.6506 3.79999
      vertex -13.8508 -17.9722 0
    endloop
  endfacet
  facet normal 0.509733 0.701588 0.497942
    outer loop
      vertex -12.5 -21.6506 3.79999
      vertex -15.2602 -16.9482 0
      vertex -16.7283 -18.5786 3.79999
    endloop
  endfacet
  facet normal -0.509733 -0.701588 0.497942
    outer loop
      vertex -15.0064 -22.5266 0
      vertex -12.5 -21.6506 3.79999
      vertex -16.7283 -18.5786 3.79999
    endloop
  endfacet
  facet normal -0.509733 -0.701588 0.497942
    outer loop
      vertex -12.5 -21.6506 3.79999
      vertex -15.0064 -22.5266 0
      vertex -13.597 -23.5506 0
    endloop
  endfacet
  facet normal -0.509734 -0.701588 0.497942
    outer loop
      vertex -15.0064 -22.5266 0
      vertex -16.7283 -18.5786 3.79999
      vertex -18.1963 -20.209 0
    endloop
  endfacet
  facet normal 0.644463 0.580277 0.497942
    outer loop
      vertex -16.7283 -18.5786 3.79999
      vertex -15.2602 -16.9482 0
      vertex -17.2848 -14.6997 0
    endloop
  endfacet
  facet normal 0.644463 0.580277 0.497943
    outer loop
      vertex -20.2254 -14.6946 3.79999
      vertex -17.2848 -14.6997 0
      vertex -18.4505 -13.4051 0
    endloop
  endfacet
  facet normal 0.644463 0.580277 0.497942
    outer loop
      vertex -17.2848 -14.6997 0
      vertex -20.2254 -14.6946 3.79999
      vertex -16.7283 -18.5786 3.79999
    endloop
  endfacet
  facet normal -0.644463 -0.580277 0.497942
    outer loop
      vertex -19.362 -18.9144 0
      vertex -16.7283 -18.5786 3.79999
      vertex -20.2254 -14.6946 3.79999
    endloop
  endfacet
  facet normal -0.644462 -0.580278 0.497942
    outer loop
      vertex -16.7283 -18.5786 3.79999
      vertex -19.362 -18.9144 0
      vertex -18.1963 -20.209 0
    endloop
  endfacet
  facet normal -0.644463 -0.580277 0.497942
    outer loop
      vertex -19.362 -18.9144 0
      vertex -20.2254 -14.6946 3.79999
      vertex -22.0004 -15.9842 0
    endloop
  endfacet
  facet normal 0.751026 0.433605 0.497943
    outer loop
      vertex -18.4505 -13.4051 0
      vertex -19.9633 -10.7848 0
      vertex -20.2254 -14.6946 3.79999
    endloop
  endfacet
  facet normal 0.751026 0.433605 0.497942
    outer loop
      vertex -22.8386 -10.1684 3.79999
      vertex -19.9633 -10.7848 0
      vertex -20.8344 -9.27606 0
    endloop
  endfacet
  facet normal 0.751026 0.433605 0.497942
    outer loop
      vertex -19.9633 -10.7848 0
      vertex -22.8386 -10.1684 3.79999
      vertex -20.2254 -14.6946 3.79999
    endloop
  endfacet
  facet normal -0.751026 -0.433605 0.497942
    outer loop
      vertex -22.8714 -14.4755 0
      vertex -20.2254 -14.6946 3.79999
      vertex -22.8386 -10.1684 3.79999
    endloop
  endfacet
  facet normal -0.751026 -0.433605 0.497942
    outer loop
      vertex -20.2254 -14.6946 3.79999
      vertex -22.8714 -14.4755 0
      vertex -22.0004 -15.9842 0
    endloop
  endfacet
  facet normal -0.751026 -0.433605 0.497942
    outer loop
      vertex -22.8714 -14.4755 0
      vertex -22.8386 -10.1684 3.79999
      vertex -24.8429 -11.0608 0
    endloop
  endfacet
  facet normal 0.824766 0.267982 0.497942
    outer loop
      vertex -20.8344 -9.27606 0
      vertex -21.7694 -6.39852 0
      vertex -22.8386 -10.1684 3.79999
    endloop
  endfacet
  facet normal 0.824766 0.267983 0.497942
    outer loop
      vertex -24.4537 -5.19779 3.79999
      vertex -21.7694 -6.39852 0
      vertex -22.3077 -4.74165 0
    endloop
  endfacet
  facet normal 0.824766 0.267983 0.497942
    outer loop
      vertex -21.7694 -6.39852 0
      vertex -24.4537 -5.19779 3.79999
      vertex -22.8386 -10.1684 3.79999
    endloop
  endfacet
  facet normal -0.824766 -0.267983 0.497942
    outer loop
      vertex -25.3812 -9.40389 0
      vertex -22.8386 -10.1684 3.79999
      vertex -24.4537 -5.19779 3.79999
    endloop
  endfacet
  facet normal -0.824766 -0.267983 0.497942
    outer loop
      vertex -22.8386 -10.1684 3.79999
      vertex -25.3812 -9.40389 0
      vertex -24.8429 -11.0608 0
    endloop
  endfacet
  facet normal -0.824766 -0.267983 0.497942
    outer loop
      vertex -25.3812 -9.40389 0
      vertex -24.4537 -5.19779 3.79999
      vertex -26.5997 -5.65393 0
    endloop
  endfacet
  facet normal 0.862459 0.0906485 0.497942
    outer loop
      vertex -22.3077 -4.74165 0
      vertex -22.624 -1.7326 0
      vertex -24.4537 -5.19779 3.79999
    endloop
  endfacet
  facet normal 0.862459 0.0906476 0.497942
    outer loop
      vertex -25 0 3.79999
      vertex -22.624 -1.7326 0
      vertex -22.8061 0 0
    endloop
  endfacet
  facet normal 0.86246 0.0906482 0.497942
    outer loop
      vertex -22.624 -1.7326 0
      vertex -25 0 3.79999
      vertex -24.4537 -5.19779 3.79999
    endloop
  endfacet
  facet normal -0.862459 -0.0906482 0.497942
    outer loop
      vertex -26.7818 -3.92134 0
      vertex -24.4537 -5.19779 3.79999
      vertex -25 0 3.79999
    endloop
  endfacet
  facet normal -0.862459 -0.0906485 0.497942
    outer loop
      vertex -24.4537 -5.19779 3.79999
      vertex -26.7818 -3.92134 0
      vertex -26.5997 -5.65393 0
    endloop
  endfacet
  facet normal -0.862459 -0.0906482 0.497942
    outer loop
      vertex -26.7818 -3.92134 0
      vertex -25 0 3.79999
      vertex -27.1939 0 0
    endloop
  endfacet
  facet normal 0.984771 -0.173857 -4.13635e-05
    outer loop
      vertex -4.03018 -23.4041 1.82779
      vertex -4.22072 -24.4839 3.71854
      vertex -3.86108 -22.4459 0.134189
    endloop
  endfacet
  facet normal 0.984787 -0.173764 1.32698e-05
    outer loop
      vertex -4.2271 -24.52 3.79999
      vertex -4.22072 -24.4839 3.71854
      vertex -4.03018 -23.4041 1.82779
    endloop
  endfacet
  facet normal 0.984791 -0.173742 2.37625e-05
    outer loop
      vertex -4.22072 -24.4839 3.71854
      vertex -4.2271 -24.52 3.79999
      vertex -4.22799 -24.5251 3.79102
    endloop
  endfacet
  facet normal 0.984783 -0.173786 -1.71894e-06
    outer loop
      vertex -3.869 -22.4908 0.0499994
      vertex -3.84768 -22.37 0
      vertex -3.85267 -22.3983 0.0499992
    endloop
  endfacet
  facet normal 0.984783 -0.173787 1.36749e-06
    outer loop
      vertex -4.60651 -26.67 0
      vertex -3.869 -22.4908 0.0499994
      vertex -4.60152 -26.6417 0.0500078
    endloop
  endfacet
  facet normal 0.984783 -0.173787 -3.61373e-06
    outer loop
      vertex -3.869 -22.4908 0.0499994
      vertex -4.60651 -26.67 0
      vertex -3.84768 -22.37 0
    endloop
  endfacet
  facet normal 1 0 0
    outer loop
      vertex 0.0999994 24.863 3.79999
      vertex 0.0999994 22.7061 0
      vertex 0.0999994 24.8815 3.76789
    endloop
  endfacet
  facet normal 1 0 -0
    outer loop
      vertex 0.0999994 22.7061 0
      vertex 0.0999994 24.863 3.79999
      vertex 0.0999994 22.6811 0
    endloop
  endfacet
  facet normal 0 0 -1
    outer loop
      vertex -4.60651 -26.67 0
      vertex -5.34339 -22.0521 0
      vertex -3.84768 -22.37 0
    endloop
  endfacet
  facet normal 0 0 -1
    outer loop
      vertex -8.40339 -25.863 0
      vertex -5.34339 -22.0521 0
      vertex -4.60651 -26.67 0
    endloop
  endfacet
  facet normal -0 0 -1
    outer loop
      vertex -5.34339 -22.0521 0
      vertex -8.40339 -25.863 0
      vertex -7.04746 -21.6899 0
    endloop
  endfacet
  facet normal 0 0 -1
    outer loop
      vertex -9.99491 -25.1544 0
      vertex -7.04746 -21.6899 0
      vertex -8.40339 -25.863 0
    endloop
  endfacet
  facet normal -0 0 -1
    outer loop
      vertex -7.04746 -21.6899 0
      vertex -9.99491 -25.1544 0
      vertex -9.81151 -20.4592 0
    endloop
  endfacet
  facet normal 0 0 -1
    outer loop
      vertex -13.597 -23.5506 0
      vertex -9.81151 -20.4592 0
      vertex -9.99491 -25.1544 0
    endloop
  endfacet
  facet normal -0 0 -1
    outer loop
      vertex -9.81151 -20.4592 0
      vertex -13.597 -23.5506 0
      vertex -11.403 -19.7506 0
    endloop
  endfacet
  facet normal 0 0 -1
    outer loop
      vertex -15.0064 -22.5266 0
      vertex -11.403 -19.7506 0
      vertex -13.597 -23.5506 0
    endloop
  endfacet
  facet normal -0 0 -1
    outer loop
      vertex -11.403 -19.7506 0
      vertex -15.0064 -22.5266 0
      vertex -13.8508 -17.9722 0
    endloop
  endfacet
  facet normal 0 0 -1
    outer loop
      vertex -18.1963 -20.209 0
      vertex -13.8508 -17.9722 0
      vertex -15.0064 -22.5266 0
    endloop
  endfacet
  facet normal -0 0 -1
    outer loop
      vertex -13.8508 -17.9722 0
      vertex -18.1963 -20.209 0
      vertex -15.2602 -16.9482 0
    endloop
  endfacet
  facet normal 0 0 -1
    outer loop
      vertex -19.362 -18.9144 0
      vertex -15.2602 -16.9482 0
      vertex -18.1963 -20.209 0
    endloop
  endfacet
  facet normal -0 0 -1
    outer loop
      vertex -15.2602 -16.9482 0
      vertex -19.362 -18.9144 0
      vertex -17.2848 -14.6997 0
    endloop
  endfacet
  facet normal 0 0 -1
    outer loop
      vertex -22.0004 -15.9842 0
      vertex -17.2848 -14.6997 0
      vertex -19.362 -18.9144 0
    endloop
  endfacet
  facet normal -0 0 -1
    outer loop
      vertex -17.2848 -14.6997 0
      vertex -22.0004 -15.9842 0
      vertex -18.4505 -13.4051 0
    endloop
  endfacet
  facet normal 0 0 -1
    outer loop
      vertex -22.8714 -14.4755 0
      vertex -18.4505 -13.4051 0
      vertex -22.0004 -15.9842 0
    endloop
  endfacet
  facet normal -0 0 -1
    outer loop
      vertex -18.4505 -13.4051 0
      vertex -22.8714 -14.4755 0
      vertex -19.9633 -10.7848 0
    endloop
  endfacet
  facet normal 0 0 -1
    outer loop
      vertex -24.8429 -11.0608 0
      vertex -19.9633 -10.7848 0
      vertex -22.8714 -14.4755 0
    endloop
  endfacet
  facet normal -0 0 -1
    outer loop
      vertex -19.9633 -10.7848 0
      vertex -24.8429 -11.0608 0
      vertex -20.8344 -9.27606 0
    endloop
  endfacet
  facet normal 0 0 -1
    outer loop
      vertex -25.3812 -9.40389 0
      vertex -20.8344 -9.27606 0
      vertex -24.8429 -11.0608 0
    endloop
  endfacet
  facet normal -0 0 -1
    outer loop
      vertex -20.8344 -9.27606 0
      vertex -25.3812 -9.40389 0
      vertex -21.7694 -6.39852 0
    endloop
  endfacet
  facet normal 0 0 -1
    outer loop
      vertex -26.5997 -5.65393 0
      vertex -21.7694 -6.39852 0
      vertex -25.3812 -9.40389 0
    endloop
  endfacet
  facet normal 0 0 -1
    outer loop
      vertex 0.0999994 22.6811 0
      vertex 0 22.7061 0
      vertex 0.0999994 22.7061 0
    endloop
  endfacet
  facet normal 0 0 -1
    outer loop
      vertex -2.38388 22.6811 0
      vertex 0 22.7061 0
      vertex 0.0999994 22.6811 0
    endloop
  endfacet
  facet normal 0 0 -1
    outer loop
      vertex -2.38388 22.6811 0
      vertex 0 27.045 0
      vertex 0 22.7061 0
    endloop
  endfacet
  facet normal 0 0 -1
    outer loop
      vertex -2.38388 22.6811 0
      vertex -2.84254 27.045 0
      vertex 0 27.045 0
    endloop
  endfacet
  facet normal 0 0 -1
    outer loop
      vertex -4.08795 22.3189 0
      vertex -2.84254 27.045 0
      vertex -2.38388 22.6811 0
    endloop
  endfacet
  facet normal 0 0 -1
    outer loop
      vertex -4.08795 22.3189 0
      vertex -6.69931 26.2252 0
      vertex -2.84254 27.045 0
    endloop
  endfacet
  facet normal 0 0 -1
    outer loop
      vertex -7.04746 21.6899 0
      vertex -6.69931 26.2252 0
      vertex -4.08795 22.3189 0
    endloop
  endfacet
  facet normal 0 0 -1
    outer loop
      vertex -7.04746 21.6899 0
      vertex -8.40339 25.863 0
      vertex -6.69931 26.2252 0
    endloop
  endfacet
  facet normal 0 0 -1
    outer loop
      vertex -8.63899 20.9813 0
      vertex -8.40339 25.863 0
      vertex -7.04746 21.6899 0
    endloop
  endfacet
  facet normal 0 0 -1
    outer loop
      vertex -12.0054 24.2592 0
      vertex -8.63899 20.9813 0
      vertex -11.403 19.7506 0
    endloop
  endfacet
  facet normal 0 0 -1
    outer loop
      vertex -8.63899 20.9813 0
      vertex -12.0054 24.2592 0
      vertex -8.40339 25.863 0
    endloop
  endfacet
  facet normal 0 0 -1
    outer loop
      vertex -13.597 23.5506 0
      vertex -11.403 19.7506 0
      vertex -12.8125 18.7266 0
    endloop
  endfacet
  facet normal 0 0 -1
    outer loop
      vertex -11.403 19.7506 0
      vertex -13.597 23.5506 0
      vertex -12.0054 24.2592 0
    endloop
  endfacet
  facet normal 0 0 -1
    outer loop
      vertex -16.7869 21.233 0
      vertex -12.8125 18.7266 0
      vertex -15.2602 16.9482 0
    endloop
  endfacet
  facet normal 0 0 -1
    outer loop
      vertex -18.1963 20.209 0
      vertex -15.2602 16.9482 0
      vertex -16.426 15.6536 0
    endloop
  endfacet
  facet normal 0 0 -1
    outer loop
      vertex -12.8125 18.7266 0
      vertex -16.7869 21.233 0
      vertex -13.597 23.5506 0
    endloop
  endfacet
  facet normal 0 0 -1
    outer loop
      vertex -15.2602 16.9482 0
      vertex -18.1963 20.209 0
      vertex -16.7869 21.233 0
    endloop
  endfacet
  facet normal 0 0 -1
    outer loop
      vertex -20.8346 17.2789 0
      vertex -16.426 15.6536 0
      vertex -18.4505 13.4051 0
    endloop
  endfacet
  facet normal 0 0 -1
    outer loop
      vertex -22.0004 15.9842 0
      vertex -18.4505 13.4051 0
      vertex -19.3216 11.8963 0
    endloop
  endfacet
  facet normal 0 0 -1
    outer loop
      vertex -23.9718 12.5695 0
      vertex -19.3216 11.8963 0
      vertex -20.8344 9.27606 0
    endloop
  endfacet
  facet normal 0 0 -1
    outer loop
      vertex -16.426 15.6536 0
      vertex -20.8346 17.2789 0
      vertex -18.1963 20.209 0
    endloop
  endfacet
  facet normal 0 0 -1
    outer loop
      vertex -24.8429 11.0608 0
      vertex -20.8344 9.27606 0
      vertex -21.3727 7.61919 0
    endloop
  endfacet
  facet normal 0 0 -1
    outer loop
      vertex -18.4505 13.4051 0
      vertex -22.0004 15.9842 0
      vertex -20.8346 17.2789 0
    endloop
  endfacet
  facet normal 0 0 -1
    outer loop
      vertex -26.0613 7.31081 0
      vertex -21.3727 7.61919 0
      vertex -22.3077 4.74165 0
    endloop
  endfacet
  facet normal 0 0 -1
    outer loop
      vertex -26.5997 5.65393 0
      vertex -22.3077 4.74165 0
      vertex -22.4898 3.00905 0
    endloop
  endfacet
  facet normal 0 0 -1
    outer loop
      vertex -27.0118 1.7326 0
      vertex -22.4898 3.00905 0
      vertex -22.8061 0 0
    endloop
  endfacet
  facet normal 0 0 -1
    outer loop
      vertex -19.3216 11.8963 0
      vertex -23.9718 12.5695 0
      vertex -22.0004 15.9842 0
    endloop
  endfacet
  facet normal 0 0 -1
    outer loop
      vertex -21.7694 -6.39852 0
      vertex -26.5997 -5.65393 0
      vertex -22.3077 -4.74165 0
    endloop
  endfacet
  facet normal 0 0 -1
    outer loop
      vertex -26.7818 -3.92134 0
      vertex -22.3077 -4.74165 0
      vertex -26.5997 -5.65393 0
    endloop
  endfacet
  facet normal 0 0 -1
    outer loop
      vertex -22.3077 -4.74165 0
      vertex -26.7818 -3.92134 0
      vertex -22.624 -1.7326 0
    endloop
  endfacet
  facet normal -0 0 -1
    outer loop
      vertex -21.3727 7.61919 0
      vertex -26.0613 7.31081 0
      vertex -24.8429 11.0608 0
    endloop
  endfacet
  facet normal 0 0 -1
    outer loop
      vertex -20.8344 9.27606 0
      vertex -24.8429 11.0608 0
      vertex -23.9718 12.5695 0
    endloop
  endfacet
  facet normal 0 0 -1
    outer loop
      vertex -27.1939 0 0
      vertex -22.624 -1.7326 0
      vertex -26.7818 -3.92134 0
    endloop
  endfacet
  facet normal 0 0 -1
    outer loop
      vertex -22.624 -1.7326 0
      vertex -27.1939 0 0
      vertex -22.8061 0 0
    endloop
  endfacet
  facet normal -0 0 -1
    outer loop
      vertex -22.4898 3.00905 0
      vertex -27.0118 1.7326 0
      vertex -26.5997 5.65393 0
    endloop
  endfacet
  facet normal 0 0 -1
    outer loop
      vertex -22.3077 4.74165 0
      vertex -26.5997 5.65393 0
      vertex -26.0613 7.31081 0
    endloop
  endfacet
  facet normal 0 0 -1
    outer loop
      vertex -22.8061 0 0
      vertex -27.1939 0 0
      vertex -27.0118 1.7326 0
    endloop
  endfacet
  facet normal -1 0 0
    outer loop
      vertex 0 17.1517 -0.0999947
      vertex 0 12.7359 0
      vertex 0 17.0939 0
    endloop
  endfacet
  facet normal -1 0 -0
    outer loop
      vertex 0 12.7359 0
      vertex 0 17.1517 -0.0999947
      vertex 0 12.6483 -0.100003
    endloop
  endfacet
  facet normal -1 0 0
    outer loop
      vertex 0 12.7359 0
      vertex 0 14.9 3.79999
      vertex 0 14.9089 3.78451
    endloop
  endfacet
  facet normal -1 0 0
    outer loop
      vertex 0 14.9 3.79999
      vertex 0 12.7359 0
      vertex 0 12.6483 -0.100003
    endloop
  endfacet
  facet normal 0 1.90595e-06 -1
    outer loop
      vertex 0 12.6483 -0.100003
      vertex 6 17.1517 -0.0999947
      vertex 6 12.6483 -0.100003
    endloop
  endfacet
  facet normal 0 1.90595e-06 -1
    outer loop
      vertex 6 17.1517 -0.0999947
      vertex 0 12.6483 -0.100003
      vertex 0 17.1517 -0.0999947
    endloop
  endfacet
  facet normal 0 -0.866025 0.5
    outer loop
      vertex 0 12.6483 -0.100003
      vertex 6 14.9 3.79999
      vertex 0 14.9 3.79999
    endloop
  endfacet
  facet normal 0 -0.866025 0.5
    outer loop
      vertex 6 14.9 3.79999
      vertex 0 12.6483 -0.100003
      vertex 6 12.6483 -0.100003
    endloop
  endfacet
  facet normal 0 0.866028 0.499996
    outer loop
      vertex 6 14.9 3.79999
      vertex 0.0999994 14.9089 3.78451
      vertex 0 14.9 3.79999
    endloop
  endfacet
  facet normal -8.45612e-09 0.866026 0.499999
    outer loop
      vertex 6 14.9 3.79999
      vertex 0.0999994 17.0939 0
      vertex 0.0999994 14.9089 3.78451
    endloop
  endfacet
  facet normal 1.36336e-08 0.866026 0.499999
    outer loop
      vertex 6 17.1517 -0.0999947
      vertex 0.0999994 17.0939 0
      vertex 6 14.9 3.79999
    endloop
  endfacet
  facet normal -0 0.866027 0.499998
    outer loop
      vertex 0 17.1517 -0.0999947
      vertex 0.0999994 17.0939 0
      vertex 6 17.1517 -0.0999947
    endloop
  endfacet
  facet normal 0 0.866027 0.499998
    outer loop
      vertex 0.0999994 17.0939 0
      vertex 0 17.1517 -0.0999947
      vertex 0 17.0939 0
    endloop
  endfacet
  facet normal 0 0.866028 0.499996
    outer loop
      vertex 0 14.9 3.79999
      vertex 0.0999994 14.9089 3.78451
      vertex 0 14.9089 3.78451
    endloop
  endfacet
  facet normal 1 -4.66066e-13 2.44533e-07
    outer loop
      vertex 6 17.1517 -0.0999947
      vertex 6 14.9 3.79999
      vertex 6 12.6483 -0.100003
    endloop
  endfacet
  facet normal -0.984808 0.173649 6.25257e-07
    outer loop
      vertex -2.69084 -12.8467 0.678332
      vertex -2.62404 -12.4678 0.0499992
      vertex -2.62816 -12.4912 0.0499993
    endloop
  endfacet
  facet normal -0.984806 0.173656 5.03664e-06
    outer loop
      vertex -2.69084 -12.8467 0.678332
      vertex -3 -14.6 3.79999
      vertex -2.62404 -12.4678 0.0499992
    endloop
  endfacet
  facet normal -0.984808 0.173644 -2.0061e-06
    outer loop
      vertex -3 -14.6 3.79999
      vertex -2.69084 -12.8467 0.678332
      vertex -3.00114 -14.6065 3.78858
    endloop
  endfacet
  facet normal -0.150386 -0.852877 0.499984
    outer loop
      vertex -2.495 -14.7049 3.77295
      vertex -3 -14.6 3.79999
      vertex -2.97559 -14.6115 3.78779
    endloop
  endfacet
  facet normal -0.150384 -0.852869 0.499999
    outer loop
      vertex -3 -14.6 3.79999
      vertex -2.495 -14.7049 3.77295
      vertex 4.87846 -15.9892 3.79999
    endloop
  endfacet
  facet normal -0.150384 -0.852868 0.5
    outer loop
      vertex -2.51654 -14.8269 3.55834
      vertex 4.87846 -15.9892 3.79999
      vertex -2.495 -14.7049 3.77295
    endloop
  endfacet
  facet normal -0.150384 -0.852868 0.5
    outer loop
      vertex 4.87846 -15.9892 3.79999
      vertex -2.51654 -14.8269 3.55834
      vertex 4.5025 -18.1214 0.0500078
    endloop
  endfacet
  facet normal -3.44231e-07 -1.95223e-06 -1
    outer loop
      vertex 4.5025 -18.1214 0.0500078
      vertex -2.86855 -16.8216 0.0500078
      vertex -2.12328 -12.5985 0.0499993
    endloop
  endfacet
  facet normal -3.44107e-07 -1.95208e-06 -1
    outer loop
      vertex -2.12328 -12.5985 0.0499993
      vertex 5.25442 -13.857 0.0499992
      vertex 4.5025 -18.1214 0.0500078
    endloop
  endfacet
  facet normal -3.41208e-07 -1.93509e-06 -1
    outer loop
      vertex -2.12328 -12.5985 0.0499993
      vertex -2.62404 -12.4678 0.0499992
      vertex 5.25442 -13.857 0.0499992
    endloop
  endfacet
  facet normal -3.61161e-07 -2.01156e-06 -1
    outer loop
      vertex -2.62404 -12.4678 0.0499992
      vertex -2.12328 -12.5985 0.0499993
      vertex -2.62816 -12.4912 0.0499993
    endloop
  endfacet
  facet normal -0.150377 -0.852871 0.499997
    outer loop
      vertex -3 -14.6 3.79999
      vertex -3.00114 -14.6065 3.78858
      vertex -2.97559 -14.6115 3.78779
    endloop
  endfacet
  facet normal -0.150384 -0.852869 0.5
    outer loop
      vertex -2.51654 -14.8269 3.55834
      vertex -2.86855 -16.8216 0.0500078
      vertex 4.5025 -18.1214 0.0500078
    endloop
  endfacet
  facet normal 0.150384 0.852868 0.500001
    outer loop
      vertex 5.25442 -13.857 0.0499992
      vertex -2.62404 -12.4678 0.0499992
      vertex 4.87846 -15.9892 3.79999
    endloop
  endfacet
  facet normal 0.150384 0.852868 0.500002
    outer loop
      vertex -2.62404 -12.4678 0.0499992
      vertex -3 -14.6 3.79999
      vertex 4.87846 -15.9892 3.79999
    endloop
  endfacet
  facet normal 0.984808 -0.173648 1.10709e-07
    outer loop
      vertex 4.87846 -15.9892 3.79999
      vertex 4.5025 -18.1214 0.0500078
      vertex 5.25442 -13.857 0.0499992
    endloop
  endfacet
  facet normal -0.984806 0.173659 -6.23871e-06
    outer loop
      vertex -4.7518 -26.4951 0.245283
      vertex -4.4 -24.5 3.79999
      vertex -4.39857 -24.4919 3.78576
    endloop
  endfacet
  facet normal -0.984807 0.173651 -1.85639e-06
    outer loop
      vertex -4.77596 -26.6322 0.0500078
      vertex -4.7518 -26.4951 0.245283
      vertex -4.77128 -26.6056 0.0500078
    endloop
  endfacet
  facet normal -0.984807 0.17365 -1.21706e-06
    outer loop
      vertex -4.7518 -26.4951 0.245283
      vertex -4.77596 -26.6322 0.0500078
      vertex -4.4 -24.5 3.79999
    endloop
  endfacet
  facet normal -3.4429e-07 -1.95226e-06 -1
    outer loop
      vertex 3.1025 -28.0214 0.0500078
      vertex -4.60152 -26.6417 0.0500078
      vertex -3.869 -22.4908 0.0499994
    endloop
  endfacet
  facet normal -3.39301e-07 -1.90593e-06 -1
    outer loop
      vertex -4.60152 -26.6417 0.0500078
      vertex -4.77596 -26.6322 0.0500078
      vertex -4.77128 -26.6056 0.0500078
    endloop
  endfacet
  facet normal -3.40758e-07 -1.93253e-06 -1
    outer loop
      vertex -4.77596 -26.6322 0.0500078
      vertex -4.60152 -26.6417 0.0500078
      vertex 3.1025 -28.0214 0.0500078
    endloop
  endfacet
  facet normal -0.150384 -0.852869 0.5
    outer loop
      vertex 3.1025 -28.0214 0.0500078
      vertex -4.4 -24.5 3.79999
      vertex -4.77596 -26.6322 0.0500078
    endloop
  endfacet
  facet normal -0.150384 -0.852869 0.5
    outer loop
      vertex -4.4 -24.5 3.79999
      vertex 3.1025 -28.0214 0.0500078
      vertex 3.47846 -25.8892 3.79999
    endloop
  endfacet
  facet normal -3.4416e-07 -1.95217e-06 -1
    outer loop
      vertex 3.85442 -23.757 0.0499992
      vertex -3.869 -22.4908 0.0499994
      vertex -3.85267 -22.3983 0.0499992
    endloop
  endfacet
  facet normal -3.44143e-07 -1.95207e-06 -1
    outer loop
      vertex -3.869 -22.4908 0.0499994
      vertex 3.85442 -23.757 0.0499992
      vertex 3.1025 -28.0214 0.0500078
    endloop
  endfacet
  facet normal 0 0 -1
    outer loop
      vertex 3.85442 -23.757 0.0499992
      vertex -3.85267 -22.3983 0.0499992
      vertex -3.85932 -22.3969 0.0499992
    endloop
  endfacet
  facet normal 0.150356 0.852896 0.499962
    outer loop
      vertex -4.39857 -24.4919 3.78576
      vertex -4.4 -24.5 3.79999
      vertex -4.37057 -24.4974 3.78662
    endloop
  endfacet
  facet normal 0.150384 0.852868 0.500002
    outer loop
      vertex 3.85442 -23.757 0.0499992
      vertex -3.86108 -22.4459 0.134189
      vertex -4.22072 -24.4839 3.71854
    endloop
  endfacet
  facet normal 0.150384 0.852872 0.499995
    outer loop
      vertex -3.86108 -22.4459 0.134189
      vertex 3.85442 -23.757 0.0499992
      vertex -3.85932 -22.3969 0.0499992
    endloop
  endfacet
  facet normal 0.984808 -0.173648 -2.17749e-08
    outer loop
      vertex 3.47846 -25.8892 3.79999
      vertex 3.1025 -28.0214 0.0500078
      vertex 3.85442 -23.757 0.0499992
    endloop
  endfacet
  facet normal 0.15038 0.852844 0.500042
    outer loop
      vertex 3.47846 -25.8892 3.79999
      vertex -4.22799 -24.5251 3.79102
      vertex -4.4 -24.5 3.79999
    endloop
  endfacet
  facet normal 0.150384 0.852867 0.500003
    outer loop
      vertex 3.47846 -25.8892 3.79999
      vertex -4.22072 -24.4839 3.71854
      vertex -4.22799 -24.5251 3.79102
    endloop
  endfacet
  facet normal 0.150384 0.852867 0.500002
    outer loop
      vertex -4.22072 -24.4839 3.71854
      vertex 3.47846 -25.8892 3.79999
      vertex 3.85442 -23.757 0.0499992
    endloop
  endfacet
  facet normal 0.150381 0.852864 0.500009
    outer loop
      vertex -4.4 -24.5 3.79999
      vertex -4.22799 -24.5251 3.79102
      vertex -4.37057 -24.4974 3.78662
    endloop
  endfacet
  facet normal -1 0 0
    outer loop
      vertex 0 22.6483 -0.100003
      vertex 0 27.045 0
      vertex 0 27.1517 -0.0999947
    endloop
  endfacet
  facet normal -1 -0 0
    outer loop
      vertex 0 27.045 0
      vertex 0 22.6483 -0.100003
      vertex 0 22.7061 0
    endloop
  endfacet
  facet normal -1 0 0
    outer loop
      vertex 0 27.045 0
      vertex 0 24.9 3.79999
      vertex 0 27.1517 -0.0999947
    endloop
  endfacet
  facet normal -1 0 -0
    outer loop
      vertex 0 24.9 3.79999
      vertex 0 27.045 0
      vertex 0 24.8815 3.76789
    endloop
  endfacet
  facet normal 0 1.90595e-06 -1
    outer loop
      vertex 0 22.6483 -0.100003
      vertex 6 27.1517 -0.0999947
      vertex 6 22.6483 -0.100003
    endloop
  endfacet
  facet normal 0 1.90595e-06 -1
    outer loop
      vertex 6 27.1517 -0.0999947
      vertex 0 22.6483 -0.100003
      vertex 0 27.1517 -0.0999947
    endloop
  endfacet
  facet normal 0 -0.866031 0.499991
    outer loop
      vertex 0 22.7061 0
      vertex 0 22.6483 -0.100003
      vertex 0.0999994 22.7061 0
    endloop
  endfacet
  facet normal 0 -0.86601 0.500027
    outer loop
      vertex 0.0999994 24.8815 3.76789
      vertex 0 24.9 3.79999
      vertex 0 24.8815 3.76789
    endloop
  endfacet
  facet normal 0 -0.86601 0.500027
    outer loop
      vertex 0 24.9 3.79999
      vertex 0.0999994 24.8815 3.76789
      vertex 6 24.9 3.79999
    endloop
  endfacet
  facet normal 1.95017e-07 -0.866025 0.5
    outer loop
      vertex 0.0999994 22.7061 0
      vertex 6 24.9 3.79999
      vertex 0.0999994 24.8815 3.76789
    endloop
  endfacet
  facet normal 0 -0.866031 0.499991
    outer loop
      vertex 6 22.6483 -0.100003
      vertex 0.0999994 22.7061 0
      vertex 0 22.6483 -0.100003
    endloop
  endfacet
  facet normal 2.16264e-07 -0.866025 0.5
    outer loop
      vertex 0.0999994 22.7061 0
      vertex 6 22.6483 -0.100003
      vertex 6 24.9 3.79999
    endloop
  endfacet
  facet normal 0 0.866026 0.499998
    outer loop
      vertex 6 27.1517 -0.0999947
      vertex 0 24.9 3.79999
      vertex 6 24.9 3.79999
    endloop
  endfacet
  facet normal 0 0.866026 0.499998
    outer loop
      vertex 0 24.9 3.79999
      vertex 6 27.1517 -0.0999947
      vertex 0 27.1517 -0.0999947
    endloop
  endfacet
  facet normal 1 -4.66066e-13 2.44533e-07
    outer loop
      vertex 6 27.1517 -0.0999947
      vertex 6 24.9 3.79999
      vertex 6 22.6483 -0.100003
    endloop
  endfacet
endsolid OpenSCAD_Model
