solid OpenSCAD_Model
  facet normal -1 0 0
    outer loop
      vertex -7.5 -7.5 1
      vertex -7.5 7.5 4
      vertex -7.5 7.5 1
    endloop
  endfacet
  facet normal -1 -0 0
    outer loop
      vertex -7.5 7.5 4
      vertex -7.5 -7.5 1
      vertex -7.5 -7.5 4
    endloop
  endfacet
  facet normal 0 0 1
    outer loop
      vertex 7.5 7.5 4
      vertex 5 5 4
      vertex 7.5 -7.5 4
    endloop
  endfacet
  facet normal 0 0 1
    outer loop
      vertex 7.5 7.5 4
      vertex -5 5 4
      vertex 5 5 4
    endloop
  endfacet
  facet normal 0 0 1
    outer loop
      vertex -5 5 4
      vertex -7.5 7.5 4
      vertex -5 -5 4
    endloop
  endfacet
  facet normal -0 0 1
    outer loop
      vertex -7.5 7.5 4
      vertex -5 5 4
      vertex 7.5 7.5 4
    endloop
  endfacet
  facet normal -0 0 1
    outer loop
      vertex 5 -5 4
      vertex 7.5 -7.5 4
      vertex 5 5 4
    endloop
  endfacet
  facet normal -0 0 1
    outer loop
      vertex -5 -5 4
      vertex 7.5 -7.5 4
      vertex 5 -5 4
    endloop
  endfacet
  facet normal 0 0 1
    outer loop
      vertex -5 -5 4
      vertex -7.5 -7.5 4
      vertex 7.5 -7.5 4
    endloop
  endfacet
  facet normal 0 0 1
    outer loop
      vertex -7.5 -7.5 4
      vertex -5 -5 4
      vertex -7.5 7.5 4
    endloop
  endfacet
  facet normal 1 -0 0
    outer loop
      vertex 7.5 -7.5 4
      vertex 7.5 7.5 1
      vertex 7.5 7.5 4
    endloop
  endfacet
  facet normal 1 0 0
    outer loop
      vertex 7.5 7.5 1
      vertex 7.5 -7.5 4
      vertex 7.5 -7.5 1
    endloop
  endfacet
  facet normal 0 1 -0
    outer loop
      vertex 7.5 7.5 1
      vertex -7.5 7.5 4
      vertex 7.5 7.5 4
    endloop
  endfacet
  facet normal 0 1 0
    outer loop
      vertex -7.5 7.5 4
      vertex 7.5 7.5 1
      vertex -7.5 7.5 1
    endloop
  endfacet
  facet normal 0 0 1
    outer loop
      vertex 12.5 12.5 1
      vertex 7.5 7.5 1
      vertex 12.5 -12.5 1
    endloop
  endfacet
  facet normal 0 0 1
    outer loop
      vertex 12.5 12.5 1
      vertex -7.5 7.5 1
      vertex 7.5 7.5 1
    endloop
  endfacet
  facet normal 0 0 1
    outer loop
      vertex -7.5 7.5 1
      vertex -12.5 12.5 1
      vertex -7.5 -7.5 1
    endloop
  endfacet
  facet normal -0 0 1
    outer loop
      vertex -12.5 12.5 1
      vertex -7.5 7.5 1
      vertex 12.5 12.5 1
    endloop
  endfacet
  facet normal -0 0 1
    outer loop
      vertex 7.5 -7.5 1
      vertex 12.5 -12.5 1
      vertex 7.5 7.5 1
    endloop
  endfacet
  facet normal -0 0 1
    outer loop
      vertex -7.5 -7.5 1
      vertex 12.5 -12.5 1
      vertex 7.5 -7.5 1
    endloop
  endfacet
  facet normal 0 0 1
    outer loop
      vertex -7.5 -7.5 1
      vertex -12.5 -12.5 1
      vertex 12.5 -12.5 1
    endloop
  endfacet
  facet normal 0 0 1
    outer loop
      vertex -12.5 -12.5 1
      vertex -7.5 -7.5 1
      vertex -12.5 12.5 1
    endloop
  endfacet
  facet normal 0 -1 0
    outer loop
      vertex -7.5 -7.5 1
      vertex 7.5 -7.5 4
      vertex -7.5 -7.5 4
    endloop
  endfacet
  facet normal 0 -1 -0
    outer loop
      vertex 7.5 -7.5 4
      vertex -7.5 -7.5 1
      vertex 7.5 -7.5 1
    endloop
  endfacet
  facet normal -1 0 0
    outer loop
      vertex -5 -5 4
      vertex -5 5 8
      vertex -5 5 4
    endloop
  endfacet
  facet normal -1 -0 0
    outer loop
      vertex -5 5 8
      vertex -5 -5 4
      vertex -5 -5 8
    endloop
  endfacet
  facet normal 0 0 1
    outer loop
      vertex 5 5 8
      vertex 2.7 0 8
      vertex 5 -5 8
    endloop
  endfacet
  facet normal 0 0 1
    outer loop
      vertex 5 5 8
      vertex 2.69467 0.169534 8
      vertex 2.7 0 8
    endloop
  endfacet
  facet normal 0 0 1
    outer loop
      vertex 5 5 8
      vertex 2.67871 0.338399 8
      vertex 2.69467 0.169534 8
    endloop
  endfacet
  facet normal 0 0 1
    outer loop
      vertex 5 5 8
      vertex 2.65217 0.505929 8
      vertex 2.67871 0.338399 8
    endloop
  endfacet
  facet normal 0 0 1
    outer loop
      vertex 5 5 8
      vertex 2.61517 0.671462 8
      vertex 2.65217 0.505929 8
    endloop
  endfacet
  facet normal 0 0 1
    outer loop
      vertex 5 5 8
      vertex 2.56785 0.834346 8
      vertex 2.61517 0.671462 8
    endloop
  endfacet
  facet normal 0 0 1
    outer loop
      vertex 5 5 8
      vertex 2.5104 0.993936 8
      vertex 2.56785 0.834346 8
    endloop
  endfacet
  facet normal 0 0 1
    outer loop
      vertex 5 5 8
      vertex 2.44303 1.1496 8
      vertex 2.5104 0.993936 8
    endloop
  endfacet
  facet normal 0 0 1
    outer loop
      vertex 5 5 8
      vertex 2.36603 1.30073 8
      vertex 2.44303 1.1496 8
    endloop
  endfacet
  facet normal 0 0 1
    outer loop
      vertex 5 5 8
      vertex 2.27969 1.44673 8
      vertex 2.36603 1.30073 8
    endloop
  endfacet
  facet normal 0 0 1
    outer loop
      vertex 5 5 8
      vertex 2.18435 1.58702 8
      vertex 2.27969 1.44673 8
    endloop
  endfacet
  facet normal 0 0 1
    outer loop
      vertex 5 5 8
      vertex 2.08039 1.72104 8
      vertex 2.18435 1.58702 8
    endloop
  endfacet
  facet normal 0 0 1
    outer loop
      vertex 5 5 8
      vertex 1.96821 1.84828 8
      vertex 2.08039 1.72104 8
    endloop
  endfacet
  facet normal 0 0 1
    outer loop
      vertex 5 5 8
      vertex 1.84828 1.96821 8
      vertex 1.96821 1.84828 8
    endloop
  endfacet
  facet normal 0 0 1
    outer loop
      vertex 5 5 8
      vertex 1.72104 2.08039 8
      vertex 1.84828 1.96821 8
    endloop
  endfacet
  facet normal 0 0 1
    outer loop
      vertex 5 5 8
      vertex 1.58702 2.18435 8
      vertex 1.72104 2.08039 8
    endloop
  endfacet
  facet normal 0 0 1
    outer loop
      vertex 5 5 8
      vertex 1.44673 2.27969 8
      vertex 1.58702 2.18435 8
    endloop
  endfacet
  facet normal 0 0 1
    outer loop
      vertex 5 5 8
      vertex 1.30073 2.36603 8
      vertex 1.44673 2.27969 8
    endloop
  endfacet
  facet normal 0 0 1
    outer loop
      vertex 5 5 8
      vertex 1.1496 2.44303 8
      vertex 1.30073 2.36603 8
    endloop
  endfacet
  facet normal 0 0 1
    outer loop
      vertex 5 5 8
      vertex 0.993936 2.5104 8
      vertex 1.1496 2.44303 8
    endloop
  endfacet
  facet normal 0 0 1
    outer loop
      vertex 5 5 8
      vertex 0.834346 2.56785 8
      vertex 0.993936 2.5104 8
    endloop
  endfacet
  facet normal 0 0 1
    outer loop
      vertex 5 5 8
      vertex 0.671462 2.61517 8
      vertex 0.834346 2.56785 8
    endloop
  endfacet
  facet normal 0 0 1
    outer loop
      vertex 5 5 8
      vertex 0.505929 2.65217 8
      vertex 0.671462 2.61517 8
    endloop
  endfacet
  facet normal 0 0 1
    outer loop
      vertex 5 5 8
      vertex 0.338399 2.67871 8
      vertex 0.505929 2.65217 8
    endloop
  endfacet
  facet normal 0 0 1
    outer loop
      vertex 5 5 8
      vertex 0.169534 2.69467 8
      vertex 0.338399 2.67871 8
    endloop
  endfacet
  facet normal 0 0 1
    outer loop
      vertex 5 5 8
      vertex 0 2.7 8
      vertex 0.169534 2.69467 8
    endloop
  endfacet
  facet normal -0 0 1
    outer loop
      vertex -5 5 8
      vertex 0 2.7 8
      vertex 5 5 8
    endloop
  endfacet
  facet normal 0 0 1
    outer loop
      vertex 0 2.7 8
      vertex -5 5 8
      vertex -0.169534 2.69467 8
    endloop
  endfacet
  facet normal 0 0 1
    outer loop
      vertex -0.169534 2.69467 8
      vertex -5 5 8
      vertex -0.338399 2.67871 8
    endloop
  endfacet
  facet normal 0 0 1
    outer loop
      vertex -0.338399 2.67871 8
      vertex -5 5 8
      vertex -0.505929 2.65217 8
    endloop
  endfacet
  facet normal 0 0 1
    outer loop
      vertex -0.505929 2.65217 8
      vertex -5 5 8
      vertex -0.671462 2.61517 8
    endloop
  endfacet
  facet normal 0 0 1
    outer loop
      vertex -0.671462 2.61517 8
      vertex -5 5 8
      vertex -0.834346 2.56785 8
    endloop
  endfacet
  facet normal 0 0 1
    outer loop
      vertex -2.69467 0.169534 8
      vertex -5 5 8
      vertex -2.7 0 8
    endloop
  endfacet
  facet normal 0 0 1
    outer loop
      vertex -2.67871 0.338399 8
      vertex -5 5 8
      vertex -2.69467 0.169534 8
    endloop
  endfacet
  facet normal 0 0 1
    outer loop
      vertex -2.65217 0.505929 8
      vertex -5 5 8
      vertex -2.67871 0.338399 8
    endloop
  endfacet
  facet normal 0 0 1
    outer loop
      vertex -2.61517 0.671462 8
      vertex -5 5 8
      vertex -2.65217 0.505929 8
    endloop
  endfacet
  facet normal 0 0 1
    outer loop
      vertex -2.56785 0.834346 8
      vertex -5 5 8
      vertex -2.61517 0.671462 8
    endloop
  endfacet
  facet normal 0 0 1
    outer loop
      vertex -2.5104 0.993936 8
      vertex -5 5 8
      vertex -2.56785 0.834346 8
    endloop
  endfacet
  facet normal 0 0 1
    outer loop
      vertex -2.44303 1.1496 8
      vertex -5 5 8
      vertex -2.5104 0.993936 8
    endloop
  endfacet
  facet normal 0 0 1
    outer loop
      vertex -2.36603 1.30073 8
      vertex -5 5 8
      vertex -2.44303 1.1496 8
    endloop
  endfacet
  facet normal 0 0 1
    outer loop
      vertex -2.27969 1.44673 8
      vertex -5 5 8
      vertex -2.36603 1.30073 8
    endloop
  endfacet
  facet normal 0 0 1
    outer loop
      vertex -2.18435 1.58702 8
      vertex -5 5 8
      vertex -2.27969 1.44673 8
    endloop
  endfacet
  facet normal 0 0 1
    outer loop
      vertex -2.08039 1.72104 8
      vertex -5 5 8
      vertex -2.18435 1.58702 8
    endloop
  endfacet
  facet normal 0 0 1
    outer loop
      vertex -1.96821 1.84828 8
      vertex -5 5 8
      vertex -2.08039 1.72104 8
    endloop
  endfacet
  facet normal 0 0 1
    outer loop
      vertex -1.84828 1.96821 8
      vertex -5 5 8
      vertex -1.96821 1.84828 8
    endloop
  endfacet
  facet normal 0 0 1
    outer loop
      vertex -1.72104 2.08039 8
      vertex -5 5 8
      vertex -1.84828 1.96821 8
    endloop
  endfacet
  facet normal 0 0 1
    outer loop
      vertex -1.58702 2.18435 8
      vertex -5 5 8
      vertex -1.72104 2.08039 8
    endloop
  endfacet
  facet normal 0 0 1
    outer loop
      vertex -1.44673 2.27969 8
      vertex -5 5 8
      vertex -1.58702 2.18435 8
    endloop
  endfacet
  facet normal 0 0 1
    outer loop
      vertex -1.30073 2.36603 8
      vertex -5 5 8
      vertex -1.44673 2.27969 8
    endloop
  endfacet
  facet normal 0 0 1
    outer loop
      vertex -1.1496 2.44303 8
      vertex -5 5 8
      vertex -1.30073 2.36603 8
    endloop
  endfacet
  facet normal 0 0 1
    outer loop
      vertex -0.993936 2.5104 8
      vertex -5 5 8
      vertex -1.1496 2.44303 8
    endloop
  endfacet
  facet normal 0 0 1
    outer loop
      vertex -0.834346 2.56785 8
      vertex -5 5 8
      vertex -0.993936 2.5104 8
    endloop
  endfacet
  facet normal -0 0 1
    outer loop
      vertex 2.69467 -0.169534 8
      vertex 5 -5 8
      vertex 2.7 0 8
    endloop
  endfacet
  facet normal -0 0 1
    outer loop
      vertex 2.67871 -0.338399 8
      vertex 5 -5 8
      vertex 2.69467 -0.169534 8
    endloop
  endfacet
  facet normal -0 0 1
    outer loop
      vertex 2.65217 -0.505929 8
      vertex 5 -5 8
      vertex 2.67871 -0.338399 8
    endloop
  endfacet
  facet normal -0 0 1
    outer loop
      vertex 2.61517 -0.671462 8
      vertex 5 -5 8
      vertex 2.65217 -0.505929 8
    endloop
  endfacet
  facet normal -0 0 1
    outer loop
      vertex 2.56785 -0.834346 8
      vertex 5 -5 8
      vertex 2.61517 -0.671462 8
    endloop
  endfacet
  facet normal -0 0 1
    outer loop
      vertex 2.5104 -0.993936 8
      vertex 5 -5 8
      vertex 2.56785 -0.834346 8
    endloop
  endfacet
  facet normal -0 0 1
    outer loop
      vertex 2.44303 -1.1496 8
      vertex 5 -5 8
      vertex 2.5104 -0.993936 8
    endloop
  endfacet
  facet normal -0 0 1
    outer loop
      vertex 2.36603 -1.30073 8
      vertex 5 -5 8
      vertex 2.44303 -1.1496 8
    endloop
  endfacet
  facet normal -0 0 1
    outer loop
      vertex 2.27969 -1.44673 8
      vertex 5 -5 8
      vertex 2.36603 -1.30073 8
    endloop
  endfacet
  facet normal -0 0 1
    outer loop
      vertex 2.18435 -1.58702 8
      vertex 5 -5 8
      vertex 2.27969 -1.44673 8
    endloop
  endfacet
  facet normal -0 0 1
    outer loop
      vertex 2.08039 -1.72104 8
      vertex 5 -5 8
      vertex 2.18435 -1.58702 8
    endloop
  endfacet
  facet normal -0 0 1
    outer loop
      vertex 1.96821 -1.84828 8
      vertex 5 -5 8
      vertex 2.08039 -1.72104 8
    endloop
  endfacet
  facet normal -0 0 1
    outer loop
      vertex 1.84828 -1.96821 8
      vertex 5 -5 8
      vertex 1.96821 -1.84828 8
    endloop
  endfacet
  facet normal -0 0 1
    outer loop
      vertex 1.72104 -2.08039 8
      vertex 5 -5 8
      vertex 1.84828 -1.96821 8
    endloop
  endfacet
  facet normal -0 0 1
    outer loop
      vertex 1.58702 -2.18435 8
      vertex 5 -5 8
      vertex 1.72104 -2.08039 8
    endloop
  endfacet
  facet normal -0 0 1
    outer loop
      vertex 1.44673 -2.27969 8
      vertex 5 -5 8
      vertex 1.58702 -2.18435 8
    endloop
  endfacet
  facet normal -0 0 1
    outer loop
      vertex 1.30073 -2.36603 8
      vertex 5 -5 8
      vertex 1.44673 -2.27969 8
    endloop
  endfacet
  facet normal -0 0 1
    outer loop
      vertex 1.1496 -2.44303 8
      vertex 5 -5 8
      vertex 1.30073 -2.36603 8
    endloop
  endfacet
  facet normal -0 0 1
    outer loop
      vertex 0.993936 -2.5104 8
      vertex 5 -5 8
      vertex 1.1496 -2.44303 8
    endloop
  endfacet
  facet normal -0 0 1
    outer loop
      vertex 0.834346 -2.56785 8
      vertex 5 -5 8
      vertex 0.993936 -2.5104 8
    endloop
  endfacet
  facet normal -0 0 1
    outer loop
      vertex 0.671462 -2.61517 8
      vertex 5 -5 8
      vertex 0.834346 -2.56785 8
    endloop
  endfacet
  facet normal -0 0 1
    outer loop
      vertex 0.505929 -2.65217 8
      vertex 5 -5 8
      vertex 0.671462 -2.61517 8
    endloop
  endfacet
  facet normal -0 0 1
    outer loop
      vertex 0.338399 -2.67871 8
      vertex 5 -5 8
      vertex 0.505929 -2.65217 8
    endloop
  endfacet
  facet normal -0 0 1
    outer loop
      vertex 0.169534 -2.69467 8
      vertex 5 -5 8
      vertex 0.338399 -2.67871 8
    endloop
  endfacet
  facet normal -0 0 1
    outer loop
      vertex 0 -2.7 8
      vertex 5 -5 8
      vertex 0.169534 -2.69467 8
    endloop
  endfacet
  facet normal 0 0 1
    outer loop
      vertex -5 -5 8
      vertex 0 -2.7 8
      vertex -0.169534 -2.69467 8
    endloop
  endfacet
  facet normal 0 0 1
    outer loop
      vertex -5 -5 8
      vertex -0.169534 -2.69467 8
      vertex -0.338399 -2.67871 8
    endloop
  endfacet
  facet normal 0 0 1
    outer loop
      vertex -5 -5 8
      vertex -0.338399 -2.67871 8
      vertex -0.505929 -2.65217 8
    endloop
  endfacet
  facet normal 0 0 1
    outer loop
      vertex -5 -5 8
      vertex -0.505929 -2.65217 8
      vertex -0.671462 -2.61517 8
    endloop
  endfacet
  facet normal 0 0 1
    outer loop
      vertex -5 -5 8
      vertex -0.671462 -2.61517 8
      vertex -0.834346 -2.56785 8
    endloop
  endfacet
  facet normal 0 0 1
    outer loop
      vertex -5 -5 8
      vertex -0.834346 -2.56785 8
      vertex -0.993936 -2.5104 8
    endloop
  endfacet
  facet normal 0 0 1
    outer loop
      vertex -5 -5 8
      vertex -2.7 0 8
      vertex -5 5 8
    endloop
  endfacet
  facet normal 0 0 1
    outer loop
      vertex -2.7 0 8
      vertex -5 -5 8
      vertex -2.69467 -0.169534 8
    endloop
  endfacet
  facet normal 0 0 1
    outer loop
      vertex -2.69467 -0.169534 8
      vertex -5 -5 8
      vertex -2.67871 -0.338399 8
    endloop
  endfacet
  facet normal 0 0 1
    outer loop
      vertex -2.67871 -0.338399 8
      vertex -5 -5 8
      vertex -2.65217 -0.505929 8
    endloop
  endfacet
  facet normal 0 0 1
    outer loop
      vertex -2.65217 -0.505929 8
      vertex -5 -5 8
      vertex -2.61517 -0.671462 8
    endloop
  endfacet
  facet normal 0 0 1
    outer loop
      vertex -2.61517 -0.671462 8
      vertex -5 -5 8
      vertex -2.56785 -0.834346 8
    endloop
  endfacet
  facet normal 0 0 1
    outer loop
      vertex 0 -2.7 8
      vertex -5 -5 8
      vertex 5 -5 8
    endloop
  endfacet
  facet normal 0 0 1
    outer loop
      vertex -1.1496 -2.44303 8
      vertex -5 -5 8
      vertex -0.993936 -2.5104 8
    endloop
  endfacet
  facet normal 0 0 1
    outer loop
      vertex -1.30073 -2.36603 8
      vertex -5 -5 8
      vertex -1.1496 -2.44303 8
    endloop
  endfacet
  facet normal 0 0 1
    outer loop
      vertex -1.44673 -2.27969 8
      vertex -5 -5 8
      vertex -1.30073 -2.36603 8
    endloop
  endfacet
  facet normal 0 0 1
    outer loop
      vertex -1.58702 -2.18435 8
      vertex -5 -5 8
      vertex -1.44673 -2.27969 8
    endloop
  endfacet
  facet normal 0 0 1
    outer loop
      vertex -1.72104 -2.08039 8
      vertex -5 -5 8
      vertex -1.58702 -2.18435 8
    endloop
  endfacet
  facet normal 0 0 1
    outer loop
      vertex -1.84828 -1.96821 8
      vertex -5 -5 8
      vertex -1.72104 -2.08039 8
    endloop
  endfacet
  facet normal 0 0 1
    outer loop
      vertex -1.96821 -1.84828 8
      vertex -5 -5 8
      vertex -1.84828 -1.96821 8
    endloop
  endfacet
  facet normal 0 0 1
    outer loop
      vertex -2.08039 -1.72104 8
      vertex -5 -5 8
      vertex -1.96821 -1.84828 8
    endloop
  endfacet
  facet normal 0 0 1
    outer loop
      vertex -2.18435 -1.58702 8
      vertex -5 -5 8
      vertex -2.08039 -1.72104 8
    endloop
  endfacet
  facet normal 0 0 1
    outer loop
      vertex -2.27969 -1.44673 8
      vertex -5 -5 8
      vertex -2.18435 -1.58702 8
    endloop
  endfacet
  facet normal 0 0 1
    outer loop
      vertex -2.36603 -1.30073 8
      vertex -5 -5 8
      vertex -2.27969 -1.44673 8
    endloop
  endfacet
  facet normal 0 0 1
    outer loop
      vertex -2.44303 -1.1496 8
      vertex -5 -5 8
      vertex -2.36603 -1.30073 8
    endloop
  endfacet
  facet normal 0 0 1
    outer loop
      vertex -2.5104 -0.993936 8
      vertex -5 -5 8
      vertex -2.44303 -1.1496 8
    endloop
  endfacet
  facet normal 0 0 1
    outer loop
      vertex -2.56785 -0.834346 8
      vertex -5 -5 8
      vertex -2.5104 -0.993936 8
    endloop
  endfacet
  facet normal 1 -0 0
    outer loop
      vertex 5 -5 8
      vertex 5 5 4
      vertex 5 5 8
    endloop
  endfacet
  facet normal 1 0 0
    outer loop
      vertex 5 5 4
      vertex 5 -5 8
      vertex 5 -5 4
    endloop
  endfacet
  facet normal 0 -1 0
    outer loop
      vertex -5 -5 4
      vertex 5 -5 8
      vertex -5 -5 8
    endloop
  endfacet
  facet normal 0 -1 -0
    outer loop
      vertex 5 -5 8
      vertex -5 -5 4
      vertex 5 -5 4
    endloop
  endfacet
  facet normal 0 1 -0
    outer loop
      vertex 5 5 4
      vertex -5 5 8
      vertex 5 5 8
    endloop
  endfacet
  facet normal 0 1 0
    outer loop
      vertex -5 5 8
      vertex 5 5 4
      vertex -5 5 4
    endloop
  endfacet
  facet normal -1 0 0
    outer loop
      vertex -12.5 -12.5 -1
      vertex -12.5 12.5 1
      vertex -12.5 12.5 -1
    endloop
  endfacet
  facet normal -1 -0 0
    outer loop
      vertex -12.5 12.5 1
      vertex -12.5 -12.5 -1
      vertex -12.5 -12.5 1
    endloop
  endfacet
  facet normal 1 -0 0
    outer loop
      vertex 12.5 -12.5 1
      vertex 12.5 12.5 -1
      vertex 12.5 12.5 1
    endloop
  endfacet
  facet normal 1 0 0
    outer loop
      vertex 12.5 12.5 -1
      vertex 12.5 -12.5 1
      vertex 12.5 -12.5 -1
    endloop
  endfacet
  facet normal 0 0 -1
    outer loop
      vertex -12.5 -12.5 -1
      vertex 12.5 12.5 -1
      vertex 12.5 -12.5 -1
    endloop
  endfacet
  facet normal -0 0 -1
    outer loop
      vertex 12.5 12.5 -1
      vertex -12.5 -12.5 -1
      vertex -12.5 12.5 -1
    endloop
  endfacet
  facet normal 0 -1 0
    outer loop
      vertex -12.5 -12.5 -1
      vertex 12.5 -12.5 1
      vertex -12.5 -12.5 1
    endloop
  endfacet
  facet normal 0 -1 -0
    outer loop
      vertex 12.5 -12.5 1
      vertex -12.5 -12.5 -1
      vertex 12.5 -12.5 -1
    endloop
  endfacet
  facet normal 0 1 -0
    outer loop
      vertex 12.5 12.5 -1
      vertex -12.5 12.5 1
      vertex 12.5 12.5 1
    endloop
  endfacet
  facet normal 0 1 0
    outer loop
      vertex -12.5 12.5 1
      vertex 12.5 12.5 -1
      vertex -12.5 12.5 -1
    endloop
  endfacet
  facet normal -0.999506 -0.0314129 0
    outer loop
      vertex 2.7 0 0
      vertex 2.69467 0.169534 8
      vertex 2.69467 0.169534 0
    endloop
  endfacet
  facet normal -0.999506 -0.0314129 0
    outer loop
      vertex 2.69467 0.169534 8
      vertex 2.7 0 0
      vertex 2.7 0 8
    endloop
  endfacet
  facet normal 0.999506 -0.0314129 0
    outer loop
      vertex -2.7 0 8
      vertex -2.69467 0.169534 0
      vertex -2.69467 0.169534 8
    endloop
  endfacet
  facet normal 0.999506 -0.0314129 0
    outer loop
      vertex -2.69467 0.169534 0
      vertex -2.7 0 8
      vertex -2.7 0 0
    endloop
  endfacet
  facet normal -0.0314129 -0.999506 0
    outer loop
      vertex 0 2.7 0
      vertex 0.169534 2.69467 8
      vertex 0 2.7 8
    endloop
  endfacet
  facet normal -0.0314129 -0.999506 -0
    outer loop
      vertex 0.169534 2.69467 8
      vertex 0 2.7 0
      vertex 0.169534 2.69467 0
    endloop
  endfacet
  facet normal 0.0314129 0.999506 -0
    outer loop
      vertex 0 -2.7 0
      vertex -0.169534 -2.69467 8
      vertex 0 -2.7 8
    endloop
  endfacet
  facet normal 0.0314129 0.999506 0
    outer loop
      vertex -0.169534 -2.69467 8
      vertex 0 -2.7 0
      vertex -0.169534 -2.69467 0
    endloop
  endfacet
  facet normal -0.707107 -0.707107 0
    outer loop
      vertex 1.96821 1.84828 0
      vertex 1.84828 1.96821 8
      vertex 1.84828 1.96821 0
    endloop
  endfacet
  facet normal -0.707107 -0.707107 0
    outer loop
      vertex 1.84828 1.96821 8
      vertex 1.96821 1.84828 0
      vertex 1.96821 1.84828 8
    endloop
  endfacet
  facet normal 0.661311 -0.750112 0
    outer loop
      vertex -1.84828 1.96821 0
      vertex -1.72104 2.08039 8
      vertex -1.84828 1.96821 8
    endloop
  endfacet
  facet normal 0.661311 -0.750112 0
    outer loop
      vertex -1.72104 2.08039 8
      vertex -1.84828 1.96821 0
      vertex -1.72104 2.08039 0
    endloop
  endfacet
  facet normal 0.975917 0.218141 0
    outer loop
      vertex -2.61517 -0.671462 8
      vertex -2.65217 -0.505929 0
      vertex -2.65217 -0.505929 8
    endloop
  endfacet
  facet normal 0.975917 0.218141 0
    outer loop
      vertex -2.65217 -0.505929 0
      vertex -2.61517 -0.671462 8
      vertex -2.61517 -0.671462 0
    endloop
  endfacet
  facet normal -0.917754 -0.397148 0
    outer loop
      vertex 2.5104 0.993936 0
      vertex 2.44303 1.1496 8
      vertex 2.44303 1.1496 0
    endloop
  endfacet
  facet normal -0.917754 -0.397148 0
    outer loop
      vertex 2.44303 1.1496 8
      vertex 2.5104 0.993936 0
      vertex 2.5104 0.993936 8
    endloop
  endfacet
  facet normal 0.860741 -0.509043 0
    outer loop
      vertex -2.36603 1.30073 8
      vertex -2.27969 1.44673 0
      vertex -2.27969 1.44673 8
    endloop
  endfacet
  facet normal 0.860741 -0.509043 0
    outer loop
      vertex -2.27969 1.44673 0
      vertex -2.36603 1.30073 8
      vertex -2.36603 1.30073 0
    endloop
  endfacet
  facet normal 0.156434 -0.987688 0
    outer loop
      vertex -0.505929 2.65217 0
      vertex -0.338399 2.67871 8
      vertex -0.505929 2.65217 8
    endloop
  endfacet
  facet normal 0.156434 -0.987688 0
    outer loop
      vertex -0.338399 2.67871 8
      vertex -0.505929 2.65217 0
      vertex -0.338399 2.67871 0
    endloop
  endfacet
  facet normal -0.891008 0.453988 0
    outer loop
      vertex 2.36603 -1.30073 0
      vertex 2.44303 -1.1496 8
      vertex 2.44303 -1.1496 0
    endloop
  endfacet
  facet normal -0.891008 0.453988 0
    outer loop
      vertex 2.44303 -1.1496 8
      vertex 2.36603 -1.30073 0
      vertex 2.36603 -1.30073 8
    endloop
  endfacet
  facet normal -0.218141 0.975917 0
    outer loop
      vertex 0.671462 -2.61517 0
      vertex 0.505929 -2.65217 8
      vertex 0.671462 -2.61517 8
    endloop
  endfacet
  facet normal -0.218141 0.975917 0
    outer loop
      vertex 0.505929 -2.65217 8
      vertex 0.671462 -2.61517 0
      vertex 0.505929 -2.65217 0
    endloop
  endfacet
  facet normal -0.661311 0.750112 0
    outer loop
      vertex 1.84828 -1.96821 0
      vertex 1.72104 -2.08039 8
      vertex 1.84828 -1.96821 8
    endloop
  endfacet
  facet normal -0.661311 0.750112 0
    outer loop
      vertex 1.72104 -2.08039 8
      vertex 1.84828 -1.96821 0
      vertex 1.72104 -2.08039 0
    endloop
  endfacet
  facet normal -0.960293 0.278992 0
    outer loop
      vertex 2.56785 -0.834346 0
      vertex 2.61517 -0.671462 8
      vertex 2.61517 -0.671462 0
    endloop
  endfacet
  facet normal -0.960293 0.278992 0
    outer loop
      vertex 2.61517 -0.671462 8
      vertex 2.56785 -0.834346 0
      vertex 2.56785 -0.834346 8
    endloop
  endfacet
  facet normal 0.338739 0.94088 -0
    outer loop
      vertex -0.834346 -2.56785 0
      vertex -0.993936 -2.5104 8
      vertex -0.834346 -2.56785 8
    endloop
  endfacet
  facet normal 0.338739 0.94088 0
    outer loop
      vertex -0.993936 -2.5104 8
      vertex -0.834346 -2.56785 0
      vertex -0.993936 -2.5104 0
    endloop
  endfacet
  facet normal 0.790155 0.612907 0
    outer loop
      vertex -2.08039 -1.72104 8
      vertex -2.18435 -1.58702 0
      vertex -2.18435 -1.58702 8
    endloop
  endfacet
  facet normal 0.790155 0.612907 0
    outer loop
      vertex -2.18435 -1.58702 0
      vertex -2.08039 -1.72104 8
      vertex -2.08039 -1.72104 0
    endloop
  endfacet
  facet normal 0.827081 0.562083 0
    outer loop
      vertex -2.18435 -1.58702 8
      vertex -2.27969 -1.44673 0
      vertex -2.27969 -1.44673 8
    endloop
  endfacet
  facet normal 0.827081 0.562083 0
    outer loop
      vertex -2.27969 -1.44673 0
      vertex -2.18435 -1.58702 8
      vertex -2.18435 -1.58702 0
    endloop
  endfacet
  facet normal -0.995562 -0.0941091 0
    outer loop
      vertex 2.69467 0.169534 0
      vertex 2.67871 0.338399 8
      vertex 2.67871 0.338399 0
    endloop
  endfacet
  facet normal -0.995562 -0.0941091 0
    outer loop
      vertex 2.67871 0.338399 8
      vertex 2.69467 0.169534 0
      vertex 2.69467 0.169534 8
    endloop
  endfacet
  facet normal -0.960293 -0.278992 0
    outer loop
      vertex 2.61517 0.671462 0
      vertex 2.56785 0.834346 8
      vertex 2.56785 0.834346 0
    endloop
  endfacet
  facet normal -0.960293 -0.278992 0
    outer loop
      vertex 2.56785 0.834346 8
      vertex 2.61517 0.671462 0
      vertex 2.61517 0.671462 8
    endloop
  endfacet
  facet normal -0.750112 -0.661311 0
    outer loop
      vertex 2.08039 1.72104 0
      vertex 1.96821 1.84828 8
      vertex 1.96821 1.84828 0
    endloop
  endfacet
  facet normal -0.750112 -0.661311 0
    outer loop
      vertex 1.96821 1.84828 8
      vertex 2.08039 1.72104 0
      vertex 2.08039 1.72104 8
    endloop
  endfacet
  facet normal -0.891008 -0.453988 0
    outer loop
      vertex 2.44303 1.1496 0
      vertex 2.36603 1.30073 8
      vertex 2.36603 1.30073 0
    endloop
  endfacet
  facet normal -0.891008 -0.453988 0
    outer loop
      vertex 2.36603 1.30073 8
      vertex 2.44303 1.1496 0
      vertex 2.44303 1.1496 8
    endloop
  endfacet
  facet normal -0.218141 -0.975917 0
    outer loop
      vertex 0.505929 2.65217 0
      vertex 0.671462 2.61517 8
      vertex 0.505929 2.65217 8
    endloop
  endfacet
  facet normal -0.218141 -0.975917 -0
    outer loop
      vertex 0.671462 2.61517 8
      vertex 0.505929 2.65217 0
      vertex 0.671462 2.61517 0
    endloop
  endfacet
  facet normal -0.156434 -0.987688 0
    outer loop
      vertex 0.338399 2.67871 0
      vertex 0.505929 2.65217 8
      vertex 0.338399 2.67871 8
    endloop
  endfacet
  facet normal -0.156434 -0.987688 -0
    outer loop
      vertex 0.505929 2.65217 8
      vertex 0.338399 2.67871 0
      vertex 0.505929 2.65217 0
    endloop
  endfacet
  facet normal -0.562083 -0.827081 0
    outer loop
      vertex 1.44673 2.27969 0
      vertex 1.58702 2.18435 8
      vertex 1.44673 2.27969 8
    endloop
  endfacet
  facet normal -0.562083 -0.827081 -0
    outer loop
      vertex 1.58702 2.18435 8
      vertex 1.44673 2.27969 0
      vertex 1.58702 2.18435 0
    endloop
  endfacet
  facet normal -0.509043 -0.860741 0
    outer loop
      vertex 1.30073 2.36603 0
      vertex 1.44673 2.27969 8
      vertex 1.30073 2.36603 8
    endloop
  endfacet
  facet normal -0.509043 -0.860741 -0
    outer loop
      vertex 1.44673 2.27969 8
      vertex 1.30073 2.36603 0
      vertex 1.44673 2.27969 0
    endloop
  endfacet
  facet normal 0.975917 -0.218141 0
    outer loop
      vertex -2.65217 0.505929 8
      vertex -2.61517 0.671462 0
      vertex -2.61517 0.671462 8
    endloop
  endfacet
  facet normal 0.975917 -0.218141 0
    outer loop
      vertex -2.61517 0.671462 0
      vertex -2.65217 0.505929 8
      vertex -2.65217 0.505929 0
    endloop
  endfacet
  facet normal 0.987688 -0.156434 0
    outer loop
      vertex -2.67871 0.338399 8
      vertex -2.65217 0.505929 0
      vertex -2.65217 0.505929 8
    endloop
  endfacet
  facet normal 0.987688 -0.156434 0
    outer loop
      vertex -2.65217 0.505929 0
      vertex -2.67871 0.338399 8
      vertex -2.67871 0.338399 0
    endloop
  endfacet
  facet normal 0.509043 -0.860741 0
    outer loop
      vertex -1.44673 2.27969 0
      vertex -1.30073 2.36603 8
      vertex -1.44673 2.27969 8
    endloop
  endfacet
  facet normal 0.509043 -0.860741 0
    outer loop
      vertex -1.30073 2.36603 8
      vertex -1.44673 2.27969 0
      vertex -1.30073 2.36603 0
    endloop
  endfacet
  facet normal 0.0941091 -0.995562 0
    outer loop
      vertex -0.338399 2.67871 0
      vertex -0.169534 2.69467 8
      vertex -0.338399 2.67871 8
    endloop
  endfacet
  facet normal 0.0941091 -0.995562 0
    outer loop
      vertex -0.169534 2.69467 8
      vertex -0.338399 2.67871 0
      vertex -0.169534 2.69467 0
    endloop
  endfacet
  facet normal -0.453988 0.891008 0
    outer loop
      vertex 1.30073 -2.36603 0
      vertex 1.1496 -2.44303 8
      vertex 1.30073 -2.36603 8
    endloop
  endfacet
  facet normal -0.453988 0.891008 0
    outer loop
      vertex 1.1496 -2.44303 8
      vertex 1.30073 -2.36603 0
      vertex 1.1496 -2.44303 0
    endloop
  endfacet
  facet normal 0.562083 0.827081 -0
    outer loop
      vertex -1.44673 -2.27969 0
      vertex -1.58702 -2.18435 8
      vertex -1.44673 -2.27969 8
    endloop
  endfacet
  facet normal 0.562083 0.827081 0
    outer loop
      vertex -1.58702 -2.18435 8
      vertex -1.44673 -2.27969 0
      vertex -1.58702 -2.18435 0
    endloop
  endfacet
  facet normal 0.509043 0.860741 -0
    outer loop
      vertex -1.30073 -2.36603 0
      vertex -1.44673 -2.27969 8
      vertex -1.30073 -2.36603 8
    endloop
  endfacet
  facet normal 0.509043 0.860741 0
    outer loop
      vertex -1.44673 -2.27969 8
      vertex -1.30073 -2.36603 0
      vertex -1.44673 -2.27969 0
    endloop
  endfacet
  facet normal 0.156434 0.987688 -0
    outer loop
      vertex -0.338399 -2.67871 0
      vertex -0.505929 -2.65217 8
      vertex -0.338399 -2.67871 8
    endloop
  endfacet
  facet normal 0.156434 0.987688 0
    outer loop
      vertex -0.505929 -2.65217 8
      vertex -0.338399 -2.67871 0
      vertex -0.505929 -2.65217 0
    endloop
  endfacet
  facet normal 0.917754 0.397148 0
    outer loop
      vertex -2.44303 -1.1496 8
      vertex -2.5104 -0.993936 0
      vertex -2.5104 -0.993936 8
    endloop
  endfacet
  facet normal 0.917754 0.397148 0
    outer loop
      vertex -2.5104 -0.993936 0
      vertex -2.44303 -1.1496 8
      vertex -2.44303 -1.1496 0
    endloop
  endfacet
  facet normal 0 0 1
    outer loop
      vertex 2.69467 0.169534 0
      vertex 2.69467 -0.169534 0
      vertex 2.7 0 0
    endloop
  endfacet
  facet normal 0 0 1
    outer loop
      vertex 2.67871 0.338399 0
      vertex 2.69467 -0.169534 0
      vertex 2.69467 0.169534 0
    endloop
  endfacet
  facet normal 0 0 1
    outer loop
      vertex 2.67871 0.338399 0
      vertex 2.67871 -0.338399 0
      vertex 2.69467 -0.169534 0
    endloop
  endfacet
  facet normal 0 0 1
    outer loop
      vertex 2.65217 0.505929 0
      vertex 2.67871 -0.338399 0
      vertex 2.67871 0.338399 0
    endloop
  endfacet
  facet normal 0 0 1
    outer loop
      vertex 2.65217 0.505929 0
      vertex 2.65217 -0.505929 0
      vertex 2.67871 -0.338399 0
    endloop
  endfacet
  facet normal 0 0 1
    outer loop
      vertex 2.61517 0.671462 0
      vertex 2.65217 -0.505929 0
      vertex 2.65217 0.505929 0
    endloop
  endfacet
  facet normal 0 0 1
    outer loop
      vertex 2.61517 0.671462 0
      vertex 2.61517 -0.671462 0
      vertex 2.65217 -0.505929 0
    endloop
  endfacet
  facet normal 0 0 1
    outer loop
      vertex 2.56785 0.834346 0
      vertex 2.61517 -0.671462 0
      vertex 2.61517 0.671462 0
    endloop
  endfacet
  facet normal 0 0 1
    outer loop
      vertex 2.56785 0.834346 0
      vertex 2.56785 -0.834346 0
      vertex 2.61517 -0.671462 0
    endloop
  endfacet
  facet normal 0 0 1
    outer loop
      vertex 2.5104 0.993936 0
      vertex 2.56785 -0.834346 0
      vertex 2.56785 0.834346 0
    endloop
  endfacet
  facet normal 0 0 1
    outer loop
      vertex 2.5104 0.993936 0
      vertex 2.5104 -0.993936 0
      vertex 2.56785 -0.834346 0
    endloop
  endfacet
  facet normal 0 0 1
    outer loop
      vertex 2.44303 1.1496 0
      vertex 2.5104 -0.993936 0
      vertex 2.5104 0.993936 0
    endloop
  endfacet
  facet normal 0 0 1
    outer loop
      vertex 2.44303 1.1496 0
      vertex 2.44303 -1.1496 0
      vertex 2.5104 -0.993936 0
    endloop
  endfacet
  facet normal 0 0 1
    outer loop
      vertex 2.36603 1.30073 0
      vertex 2.44303 -1.1496 0
      vertex 2.44303 1.1496 0
    endloop
  endfacet
  facet normal 0 0 1
    outer loop
      vertex 2.36603 1.30073 0
      vertex 2.36603 -1.30073 0
      vertex 2.44303 -1.1496 0
    endloop
  endfacet
  facet normal 0 0 1
    outer loop
      vertex 2.27969 1.44673 0
      vertex 2.36603 -1.30073 0
      vertex 2.36603 1.30073 0
    endloop
  endfacet
  facet normal 0 0 1
    outer loop
      vertex 2.27969 1.44673 0
      vertex 2.27969 -1.44673 0
      vertex 2.36603 -1.30073 0
    endloop
  endfacet
  facet normal 0 0 1
    outer loop
      vertex 2.18435 1.58702 0
      vertex 2.27969 -1.44673 0
      vertex 2.27969 1.44673 0
    endloop
  endfacet
  facet normal 0 0 1
    outer loop
      vertex 2.18435 1.58702 0
      vertex 2.18435 -1.58702 0
      vertex 2.27969 -1.44673 0
    endloop
  endfacet
  facet normal 0 0 1
    outer loop
      vertex 2.08039 1.72104 0
      vertex 2.18435 -1.58702 0
      vertex 2.18435 1.58702 0
    endloop
  endfacet
  facet normal 0 0 1
    outer loop
      vertex 2.08039 1.72104 0
      vertex 2.08039 -1.72104 0
      vertex 2.18435 -1.58702 0
    endloop
  endfacet
  facet normal 0 0 1
    outer loop
      vertex 1.96821 1.84828 0
      vertex 2.08039 -1.72104 0
      vertex 2.08039 1.72104 0
    endloop
  endfacet
  facet normal 0 0 1
    outer loop
      vertex 1.96821 1.84828 0
      vertex 1.96821 -1.84828 0
      vertex 2.08039 -1.72104 0
    endloop
  endfacet
  facet normal 0 0 1
    outer loop
      vertex 1.84828 1.96821 0
      vertex 1.96821 -1.84828 0
      vertex 1.96821 1.84828 0
    endloop
  endfacet
  facet normal 0 0 1
    outer loop
      vertex 1.84828 1.96821 0
      vertex 1.84828 -1.96821 0
      vertex 1.96821 -1.84828 0
    endloop
  endfacet
  facet normal 0 0 1
    outer loop
      vertex 1.72104 2.08039 0
      vertex 1.84828 -1.96821 0
      vertex 1.84828 1.96821 0
    endloop
  endfacet
  facet normal 0 0 1
    outer loop
      vertex 1.72104 2.08039 0
      vertex 1.72104 -2.08039 0
      vertex 1.84828 -1.96821 0
    endloop
  endfacet
  facet normal 0 0 1
    outer loop
      vertex 1.58702 2.18435 0
      vertex 1.72104 -2.08039 0
      vertex 1.72104 2.08039 0
    endloop
  endfacet
  facet normal 0 0 1
    outer loop
      vertex 1.58702 2.18435 0
      vertex 1.58702 -2.18435 0
      vertex 1.72104 -2.08039 0
    endloop
  endfacet
  facet normal 0 0 1
    outer loop
      vertex 1.44673 2.27969 0
      vertex 1.58702 -2.18435 0
      vertex 1.58702 2.18435 0
    endloop
  endfacet
  facet normal 0 0 1
    outer loop
      vertex 1.44673 2.27969 0
      vertex 1.44673 -2.27969 0
      vertex 1.58702 -2.18435 0
    endloop
  endfacet
  facet normal 0 0 1
    outer loop
      vertex 1.30073 2.36603 0
      vertex 1.44673 -2.27969 0
      vertex 1.44673 2.27969 0
    endloop
  endfacet
  facet normal 0 0 1
    outer loop
      vertex 1.30073 2.36603 0
      vertex 1.30073 -2.36603 0
      vertex 1.44673 -2.27969 0
    endloop
  endfacet
  facet normal 0 0 1
    outer loop
      vertex 1.1496 2.44303 0
      vertex 1.30073 -2.36603 0
      vertex 1.30073 2.36603 0
    endloop
  endfacet
  facet normal 0 0 1
    outer loop
      vertex 1.1496 2.44303 0
      vertex 1.1496 -2.44303 0
      vertex 1.30073 -2.36603 0
    endloop
  endfacet
  facet normal 0 0 1
    outer loop
      vertex 0.993936 2.5104 0
      vertex 1.1496 -2.44303 0
      vertex 1.1496 2.44303 0
    endloop
  endfacet
  facet normal 0 0 1
    outer loop
      vertex 0.993936 2.5104 0
      vertex 0.993936 -2.5104 0
      vertex 1.1496 -2.44303 0
    endloop
  endfacet
  facet normal 0 0 1
    outer loop
      vertex 0.834346 2.56785 0
      vertex 0.993936 -2.5104 0
      vertex 0.993936 2.5104 0
    endloop
  endfacet
  facet normal 0 0 1
    outer loop
      vertex 0.834346 2.56785 0
      vertex 0.834346 -2.56785 0
      vertex 0.993936 -2.5104 0
    endloop
  endfacet
  facet normal 0 0 1
    outer loop
      vertex 0.671462 2.61517 0
      vertex 0.834346 -2.56785 0
      vertex 0.834346 2.56785 0
    endloop
  endfacet
  facet normal 0 0 1
    outer loop
      vertex 0.671462 2.61517 0
      vertex 0.671462 -2.61517 0
      vertex 0.834346 -2.56785 0
    endloop
  endfacet
  facet normal 0 0 1
    outer loop
      vertex 0.505929 2.65217 0
      vertex 0.671462 -2.61517 0
      vertex 0.671462 2.61517 0
    endloop
  endfacet
  facet normal 0 0 1
    outer loop
      vertex 0.505929 2.65217 0
      vertex 0.505929 -2.65217 0
      vertex 0.671462 -2.61517 0
    endloop
  endfacet
  facet normal 0 0 1
    outer loop
      vertex 0.338399 2.67871 0
      vertex 0.505929 -2.65217 0
      vertex 0.505929 2.65217 0
    endloop
  endfacet
  facet normal 0 0 1
    outer loop
      vertex 0.338399 2.67871 0
      vertex 0.338399 -2.67871 0
      vertex 0.505929 -2.65217 0
    endloop
  endfacet
  facet normal 0 0 1
    outer loop
      vertex 0.169534 2.69467 0
      vertex 0.338399 -2.67871 0
      vertex 0.338399 2.67871 0
    endloop
  endfacet
  facet normal 0 0 1
    outer loop
      vertex 0.169534 2.69467 0
      vertex 0.169534 -2.69467 0
      vertex 0.338399 -2.67871 0
    endloop
  endfacet
  facet normal 0 0 1
    outer loop
      vertex 0 2.7 0
      vertex 0.169534 -2.69467 0
      vertex 0.169534 2.69467 0
    endloop
  endfacet
  facet normal 0 0 1
    outer loop
      vertex 0 2.7 0
      vertex 0 -2.7 0
      vertex 0.169534 -2.69467 0
    endloop
  endfacet
  facet normal -0 0 1
    outer loop
      vertex -0.169534 2.69467 0
      vertex 0 -2.7 0
      vertex 0 2.7 0
    endloop
  endfacet
  facet normal 0 0 1
    outer loop
      vertex -0.169534 2.69467 0
      vertex -0.169534 -2.69467 0
      vertex 0 -2.7 0
    endloop
  endfacet
  facet normal -0 0 1
    outer loop
      vertex -0.338399 2.67871 0
      vertex -0.169534 -2.69467 0
      vertex -0.169534 2.69467 0
    endloop
  endfacet
  facet normal 0 0 1
    outer loop
      vertex -0.338399 2.67871 0
      vertex -0.338399 -2.67871 0
      vertex -0.169534 -2.69467 0
    endloop
  endfacet
  facet normal -0 0 1
    outer loop
      vertex -0.505929 2.65217 0
      vertex -0.338399 -2.67871 0
      vertex -0.338399 2.67871 0
    endloop
  endfacet
  facet normal 0 0 1
    outer loop
      vertex -0.505929 2.65217 0
      vertex -0.505929 -2.65217 0
      vertex -0.338399 -2.67871 0
    endloop
  endfacet
  facet normal -0 0 1
    outer loop
      vertex -0.671462 2.61517 0
      vertex -0.505929 -2.65217 0
      vertex -0.505929 2.65217 0
    endloop
  endfacet
  facet normal 0 0 1
    outer loop
      vertex -0.671462 2.61517 0
      vertex -0.671462 -2.61517 0
      vertex -0.505929 -2.65217 0
    endloop
  endfacet
  facet normal -0 0 1
    outer loop
      vertex -0.834346 2.56785 0
      vertex -0.671462 -2.61517 0
      vertex -0.671462 2.61517 0
    endloop
  endfacet
  facet normal 0 0 1
    outer loop
      vertex -0.834346 2.56785 0
      vertex -0.834346 -2.56785 0
      vertex -0.671462 -2.61517 0
    endloop
  endfacet
  facet normal -0 0 1
    outer loop
      vertex -0.993936 2.5104 0
      vertex -0.834346 -2.56785 0
      vertex -0.834346 2.56785 0
    endloop
  endfacet
  facet normal 0 0 1
    outer loop
      vertex -0.993936 2.5104 0
      vertex -0.993936 -2.5104 0
      vertex -0.834346 -2.56785 0
    endloop
  endfacet
  facet normal -0 0 1
    outer loop
      vertex -1.1496 2.44303 0
      vertex -0.993936 -2.5104 0
      vertex -0.993936 2.5104 0
    endloop
  endfacet
  facet normal 0 0 1
    outer loop
      vertex -1.1496 2.44303 0
      vertex -1.1496 -2.44303 0
      vertex -0.993936 -2.5104 0
    endloop
  endfacet
  facet normal -0 0 1
    outer loop
      vertex -1.30073 2.36603 0
      vertex -1.1496 -2.44303 0
      vertex -1.1496 2.44303 0
    endloop
  endfacet
  facet normal 0 0 1
    outer loop
      vertex -1.30073 2.36603 0
      vertex -1.30073 -2.36603 0
      vertex -1.1496 -2.44303 0
    endloop
  endfacet
  facet normal -0 0 1
    outer loop
      vertex -1.44673 2.27969 0
      vertex -1.30073 -2.36603 0
      vertex -1.30073 2.36603 0
    endloop
  endfacet
  facet normal 0 0 1
    outer loop
      vertex -1.44673 2.27969 0
      vertex -1.44673 -2.27969 0
      vertex -1.30073 -2.36603 0
    endloop
  endfacet
  facet normal -0 0 1
    outer loop
      vertex -1.58702 2.18435 0
      vertex -1.44673 -2.27969 0
      vertex -1.44673 2.27969 0
    endloop
  endfacet
  facet normal 0 0 1
    outer loop
      vertex -1.58702 2.18435 0
      vertex -1.58702 -2.18435 0
      vertex -1.44673 -2.27969 0
    endloop
  endfacet
  facet normal -0 0 1
    outer loop
      vertex -1.72104 2.08039 0
      vertex -1.58702 -2.18435 0
      vertex -1.58702 2.18435 0
    endloop
  endfacet
  facet normal 0 0 1
    outer loop
      vertex -1.72104 2.08039 0
      vertex -1.72104 -2.08039 0
      vertex -1.58702 -2.18435 0
    endloop
  endfacet
  facet normal -0 0 1
    outer loop
      vertex -1.84828 1.96821 0
      vertex -1.72104 -2.08039 0
      vertex -1.72104 2.08039 0
    endloop
  endfacet
  facet normal 0 0 1
    outer loop
      vertex -1.84828 1.96821 0
      vertex -1.84828 -1.96821 0
      vertex -1.72104 -2.08039 0
    endloop
  endfacet
  facet normal -0 0 1
    outer loop
      vertex -1.96821 1.84828 0
      vertex -1.84828 -1.96821 0
      vertex -1.84828 1.96821 0
    endloop
  endfacet
  facet normal 0 0 1
    outer loop
      vertex -1.96821 1.84828 0
      vertex -1.96821 -1.84828 0
      vertex -1.84828 -1.96821 0
    endloop
  endfacet
  facet normal -0 0 1
    outer loop
      vertex -2.08039 1.72104 0
      vertex -1.96821 -1.84828 0
      vertex -1.96821 1.84828 0
    endloop
  endfacet
  facet normal 0 0 1
    outer loop
      vertex -2.08039 1.72104 0
      vertex -2.08039 -1.72104 0
      vertex -1.96821 -1.84828 0
    endloop
  endfacet
  facet normal -0 0 1
    outer loop
      vertex -2.18435 1.58702 0
      vertex -2.08039 -1.72104 0
      vertex -2.08039 1.72104 0
    endloop
  endfacet
  facet normal 0 0 1
    outer loop
      vertex -2.18435 1.58702 0
      vertex -2.18435 -1.58702 0
      vertex -2.08039 -1.72104 0
    endloop
  endfacet
  facet normal -0 0 1
    outer loop
      vertex -2.27969 1.44673 0
      vertex -2.18435 -1.58702 0
      vertex -2.18435 1.58702 0
    endloop
  endfacet
  facet normal 0 0 1
    outer loop
      vertex -2.27969 1.44673 0
      vertex -2.27969 -1.44673 0
      vertex -2.18435 -1.58702 0
    endloop
  endfacet
  facet normal -0 0 1
    outer loop
      vertex -2.36603 1.30073 0
      vertex -2.27969 -1.44673 0
      vertex -2.27969 1.44673 0
    endloop
  endfacet
  facet normal 0 0 1
    outer loop
      vertex -2.36603 1.30073 0
      vertex -2.36603 -1.30073 0
      vertex -2.27969 -1.44673 0
    endloop
  endfacet
  facet normal -0 0 1
    outer loop
      vertex -2.44303 1.1496 0
      vertex -2.36603 -1.30073 0
      vertex -2.36603 1.30073 0
    endloop
  endfacet
  facet normal 0 0 1
    outer loop
      vertex -2.44303 1.1496 0
      vertex -2.44303 -1.1496 0
      vertex -2.36603 -1.30073 0
    endloop
  endfacet
  facet normal -0 0 1
    outer loop
      vertex -2.5104 0.993936 0
      vertex -2.44303 -1.1496 0
      vertex -2.44303 1.1496 0
    endloop
  endfacet
  facet normal 0 0 1
    outer loop
      vertex -2.5104 0.993936 0
      vertex -2.5104 -0.993936 0
      vertex -2.44303 -1.1496 0
    endloop
  endfacet
  facet normal -0 0 1
    outer loop
      vertex -2.56785 0.834346 0
      vertex -2.5104 -0.993936 0
      vertex -2.5104 0.993936 0
    endloop
  endfacet
  facet normal 0 0 1
    outer loop
      vertex -2.56785 0.834346 0
      vertex -2.56785 -0.834346 0
      vertex -2.5104 -0.993936 0
    endloop
  endfacet
  facet normal -0 0 1
    outer loop
      vertex -2.61517 0.671462 0
      vertex -2.56785 -0.834346 0
      vertex -2.56785 0.834346 0
    endloop
  endfacet
  facet normal 0 0 1
    outer loop
      vertex -2.61517 0.671462 0
      vertex -2.61517 -0.671462 0
      vertex -2.56785 -0.834346 0
    endloop
  endfacet
  facet normal -0 0 1
    outer loop
      vertex -2.65217 0.505929 0
      vertex -2.61517 -0.671462 0
      vertex -2.61517 0.671462 0
    endloop
  endfacet
  facet normal 0 0 1
    outer loop
      vertex -2.65217 0.505929 0
      vertex -2.65217 -0.505929 0
      vertex -2.61517 -0.671462 0
    endloop
  endfacet
  facet normal -0 0 1
    outer loop
      vertex -2.67871 0.338399 0
      vertex -2.65217 -0.505929 0
      vertex -2.65217 0.505929 0
    endloop
  endfacet
  facet normal 0 0 1
    outer loop
      vertex -2.67871 0.338399 0
      vertex -2.67871 -0.338399 0
      vertex -2.65217 -0.505929 0
    endloop
  endfacet
  facet normal -0 0 1
    outer loop
      vertex -2.69467 0.169534 0
      vertex -2.67871 -0.338399 0
      vertex -2.67871 0.338399 0
    endloop
  endfacet
  facet normal 0 0 1
    outer loop
      vertex -2.69467 0.169534 0
      vertex -2.69467 -0.169534 0
      vertex -2.67871 -0.338399 0
    endloop
  endfacet
  facet normal 0 -0 1
    outer loop
      vertex -2.69467 -0.169534 0
      vertex -2.69467 0.169534 0
      vertex -2.7 0 0
    endloop
  endfacet
  facet normal -0.975917 -0.218141 0
    outer loop
      vertex 2.65217 0.505929 0
      vertex 2.61517 0.671462 8
      vertex 2.61517 0.671462 0
    endloop
  endfacet
  facet normal -0.975917 -0.218141 0
    outer loop
      vertex 2.61517 0.671462 8
      vertex 2.65217 0.505929 0
      vertex 2.65217 0.505929 8
    endloop
  endfacet
  facet normal -0.987688 -0.156434 0
    outer loop
      vertex 2.67871 0.338399 0
      vertex 2.65217 0.505929 8
      vertex 2.65217 0.505929 0
    endloop
  endfacet
  facet normal -0.987688 -0.156434 0
    outer loop
      vertex 2.65217 0.505929 8
      vertex 2.67871 0.338399 0
      vertex 2.67871 0.338399 8
    endloop
  endfacet
  facet normal -0.94088 -0.338739 0
    outer loop
      vertex 2.56785 0.834346 0
      vertex 2.5104 0.993936 8
      vertex 2.5104 0.993936 0
    endloop
  endfacet
  facet normal -0.94088 -0.338739 0
    outer loop
      vertex 2.5104 0.993936 8
      vertex 2.56785 0.834346 0
      vertex 2.56785 0.834346 8
    endloop
  endfacet
  facet normal -0.790155 -0.612907 0
    outer loop
      vertex 2.18435 1.58702 0
      vertex 2.08039 1.72104 8
      vertex 2.08039 1.72104 0
    endloop
  endfacet
  facet normal -0.790155 -0.612907 0
    outer loop
      vertex 2.08039 1.72104 8
      vertex 2.18435 1.58702 0
      vertex 2.18435 1.58702 8
    endloop
  endfacet
  facet normal -0.827081 -0.562083 0
    outer loop
      vertex 2.27969 1.44673 0
      vertex 2.18435 1.58702 8
      vertex 2.18435 1.58702 0
    endloop
  endfacet
  facet normal -0.827081 -0.562083 0
    outer loop
      vertex 2.18435 1.58702 8
      vertex 2.27969 1.44673 0
      vertex 2.27969 1.44673 8
    endloop
  endfacet
  facet normal -0.860741 -0.509043 0
    outer loop
      vertex 2.36603 1.30073 0
      vertex 2.27969 1.44673 8
      vertex 2.27969 1.44673 0
    endloop
  endfacet
  facet normal -0.860741 -0.509043 0
    outer loop
      vertex 2.27969 1.44673 8
      vertex 2.36603 1.30073 0
      vertex 2.36603 1.30073 8
    endloop
  endfacet
  facet normal -0.338739 -0.94088 0
    outer loop
      vertex 0.834346 2.56785 0
      vertex 0.993936 2.5104 8
      vertex 0.834346 2.56785 8
    endloop
  endfacet
  facet normal -0.338739 -0.94088 -0
    outer loop
      vertex 0.993936 2.5104 8
      vertex 0.834346 2.56785 0
      vertex 0.993936 2.5104 0
    endloop
  endfacet
  facet normal -0.278992 -0.960293 0
    outer loop
      vertex 0.671462 2.61517 0
      vertex 0.834346 2.56785 8
      vertex 0.671462 2.61517 8
    endloop
  endfacet
  facet normal -0.278992 -0.960293 -0
    outer loop
      vertex 0.834346 2.56785 8
      vertex 0.671462 2.61517 0
      vertex 0.834346 2.56785 0
    endloop
  endfacet
  facet normal -0.0941091 -0.995562 0
    outer loop
      vertex 0.169534 2.69467 0
      vertex 0.338399 2.67871 8
      vertex 0.169534 2.69467 8
    endloop
  endfacet
  facet normal -0.0941091 -0.995562 -0
    outer loop
      vertex 0.338399 2.67871 8
      vertex 0.169534 2.69467 0
      vertex 0.338399 2.67871 0
    endloop
  endfacet
  facet normal -0.397148 -0.917754 0
    outer loop
      vertex 0.993936 2.5104 0
      vertex 1.1496 2.44303 8
      vertex 0.993936 2.5104 8
    endloop
  endfacet
  facet normal -0.397148 -0.917754 -0
    outer loop
      vertex 1.1496 2.44303 8
      vertex 0.993936 2.5104 0
      vertex 1.1496 2.44303 0
    endloop
  endfacet
  facet normal -0.612907 -0.790155 0
    outer loop
      vertex 1.58702 2.18435 0
      vertex 1.72104 2.08039 8
      vertex 1.58702 2.18435 8
    endloop
  endfacet
  facet normal -0.612907 -0.790155 -0
    outer loop
      vertex 1.72104 2.08039 8
      vertex 1.58702 2.18435 0
      vertex 1.72104 2.08039 0
    endloop
  endfacet
  facet normal -0.661311 -0.750112 0
    outer loop
      vertex 1.72104 2.08039 0
      vertex 1.84828 1.96821 8
      vertex 1.72104 2.08039 8
    endloop
  endfacet
  facet normal -0.661311 -0.750112 -0
    outer loop
      vertex 1.84828 1.96821 8
      vertex 1.72104 2.08039 0
      vertex 1.84828 1.96821 0
    endloop
  endfacet
  facet normal 0.707107 -0.707107 0
    outer loop
      vertex -1.96821 1.84828 8
      vertex -1.84828 1.96821 0
      vertex -1.84828 1.96821 8
    endloop
  endfacet
  facet normal 0.707107 -0.707107 0
    outer loop
      vertex -1.84828 1.96821 0
      vertex -1.96821 1.84828 8
      vertex -1.96821 1.84828 0
    endloop
  endfacet
  facet normal 0.917754 -0.397148 0
    outer loop
      vertex -2.5104 0.993936 8
      vertex -2.44303 1.1496 0
      vertex -2.44303 1.1496 8
    endloop
  endfacet
  facet normal 0.917754 -0.397148 0
    outer loop
      vertex -2.44303 1.1496 0
      vertex -2.5104 0.993936 8
      vertex -2.5104 0.993936 0
    endloop
  endfacet
  facet normal 0.94088 -0.338739 0
    outer loop
      vertex -2.56785 0.834346 8
      vertex -2.5104 0.993936 0
      vertex -2.5104 0.993936 8
    endloop
  endfacet
  facet normal 0.94088 -0.338739 0
    outer loop
      vertex -2.5104 0.993936 0
      vertex -2.56785 0.834346 8
      vertex -2.56785 0.834346 0
    endloop
  endfacet
  facet normal 0.960293 -0.278992 0
    outer loop
      vertex -2.61517 0.671462 8
      vertex -2.56785 0.834346 0
      vertex -2.56785 0.834346 8
    endloop
  endfacet
  facet normal 0.960293 -0.278992 0
    outer loop
      vertex -2.56785 0.834346 0
      vertex -2.61517 0.671462 8
      vertex -2.61517 0.671462 0
    endloop
  endfacet
  facet normal 0.995562 -0.0941091 0
    outer loop
      vertex -2.69467 0.169534 8
      vertex -2.67871 0.338399 0
      vertex -2.67871 0.338399 8
    endloop
  endfacet
  facet normal 0.995562 -0.0941091 0
    outer loop
      vertex -2.67871 0.338399 0
      vertex -2.69467 0.169534 8
      vertex -2.69467 0.169534 0
    endloop
  endfacet
  facet normal 0.397148 -0.917754 0
    outer loop
      vertex -1.1496 2.44303 0
      vertex -0.993936 2.5104 8
      vertex -1.1496 2.44303 8
    endloop
  endfacet
  facet normal 0.397148 -0.917754 0
    outer loop
      vertex -0.993936 2.5104 8
      vertex -1.1496 2.44303 0
      vertex -0.993936 2.5104 0
    endloop
  endfacet
  facet normal 0.562083 -0.827081 0
    outer loop
      vertex -1.58702 2.18435 0
      vertex -1.44673 2.27969 8
      vertex -1.58702 2.18435 8
    endloop
  endfacet
  facet normal 0.562083 -0.827081 0
    outer loop
      vertex -1.44673 2.27969 8
      vertex -1.58702 2.18435 0
      vertex -1.44673 2.27969 0
    endloop
  endfacet
  facet normal 0.453988 -0.891008 0
    outer loop
      vertex -1.30073 2.36603 0
      vertex -1.1496 2.44303 8
      vertex -1.30073 2.36603 8
    endloop
  endfacet
  facet normal 0.453988 -0.891008 0
    outer loop
      vertex -1.1496 2.44303 8
      vertex -1.30073 2.36603 0
      vertex -1.1496 2.44303 0
    endloop
  endfacet
  facet normal 0.338739 -0.94088 0
    outer loop
      vertex -0.993936 2.5104 0
      vertex -0.834346 2.56785 8
      vertex -0.993936 2.5104 8
    endloop
  endfacet
  facet normal 0.338739 -0.94088 0
    outer loop
      vertex -0.834346 2.56785 8
      vertex -0.993936 2.5104 0
      vertex -0.834346 2.56785 0
    endloop
  endfacet
  facet normal 0.218141 -0.975917 0
    outer loop
      vertex -0.671462 2.61517 0
      vertex -0.505929 2.65217 8
      vertex -0.671462 2.61517 8
    endloop
  endfacet
  facet normal 0.218141 -0.975917 0
    outer loop
      vertex -0.505929 2.65217 8
      vertex -0.671462 2.61517 0
      vertex -0.505929 2.65217 0
    endloop
  endfacet
  facet normal 0.0314129 -0.999506 0
    outer loop
      vertex -0.169534 2.69467 0
      vertex 0 2.7 8
      vertex -0.169534 2.69467 8
    endloop
  endfacet
  facet normal 0.0314129 -0.999506 0
    outer loop
      vertex 0 2.7 8
      vertex -0.169534 2.69467 0
      vertex 0 2.7 0
    endloop
  endfacet
  facet normal -0.999506 0.0314129 0
    outer loop
      vertex 2.69467 -0.169534 0
      vertex 2.7 0 8
      vertex 2.7 0 0
    endloop
  endfacet
  facet normal -0.999506 0.0314129 0
    outer loop
      vertex 2.7 0 8
      vertex 2.69467 -0.169534 0
      vertex 2.69467 -0.169534 8
    endloop
  endfacet
  facet normal -0.0314129 0.999506 0
    outer loop
      vertex 0.169534 -2.69467 0
      vertex 0 -2.7 8
      vertex 0.169534 -2.69467 8
    endloop
  endfacet
  facet normal -0.0314129 0.999506 0
    outer loop
      vertex 0 -2.7 8
      vertex 0.169534 -2.69467 0
      vertex 0 -2.7 0
    endloop
  endfacet
  facet normal -0.156434 0.987688 0
    outer loop
      vertex 0.505929 -2.65217 0
      vertex 0.338399 -2.67871 8
      vertex 0.505929 -2.65217 8
    endloop
  endfacet
  facet normal -0.156434 0.987688 0
    outer loop
      vertex 0.338399 -2.67871 8
      vertex 0.505929 -2.65217 0
      vertex 0.338399 -2.67871 0
    endloop
  endfacet
  facet normal -0.278992 0.960293 0
    outer loop
      vertex 0.834346 -2.56785 0
      vertex 0.671462 -2.61517 8
      vertex 0.834346 -2.56785 8
    endloop
  endfacet
  facet normal -0.278992 0.960293 0
    outer loop
      vertex 0.671462 -2.61517 8
      vertex 0.834346 -2.56785 0
      vertex 0.671462 -2.61517 0
    endloop
  endfacet
  facet normal -0.338739 0.94088 0
    outer loop
      vertex 0.993936 -2.5104 0
      vertex 0.834346 -2.56785 8
      vertex 0.993936 -2.5104 8
    endloop
  endfacet
  facet normal -0.338739 0.94088 0
    outer loop
      vertex 0.834346 -2.56785 8
      vertex 0.993936 -2.5104 0
      vertex 0.834346 -2.56785 0
    endloop
  endfacet
  facet normal -0.707107 0.707107 0
    outer loop
      vertex 1.84828 -1.96821 0
      vertex 1.96821 -1.84828 8
      vertex 1.96821 -1.84828 0
    endloop
  endfacet
  facet normal -0.707107 0.707107 0
    outer loop
      vertex 1.96821 -1.84828 8
      vertex 1.84828 -1.96821 0
      vertex 1.84828 -1.96821 8
    endloop
  endfacet
  facet normal -0.562083 0.827081 0
    outer loop
      vertex 1.58702 -2.18435 0
      vertex 1.44673 -2.27969 8
      vertex 1.58702 -2.18435 8
    endloop
  endfacet
  facet normal -0.562083 0.827081 0
    outer loop
      vertex 1.44673 -2.27969 8
      vertex 1.58702 -2.18435 0
      vertex 1.44673 -2.27969 0
    endloop
  endfacet
  facet normal -0.509043 0.860741 0
    outer loop
      vertex 1.44673 -2.27969 0
      vertex 1.30073 -2.36603 8
      vertex 1.44673 -2.27969 8
    endloop
  endfacet
  facet normal -0.509043 0.860741 0
    outer loop
      vertex 1.30073 -2.36603 8
      vertex 1.44673 -2.27969 0
      vertex 1.30073 -2.36603 0
    endloop
  endfacet
  facet normal -0.397148 0.917754 0
    outer loop
      vertex 1.1496 -2.44303 0
      vertex 0.993936 -2.5104 8
      vertex 1.1496 -2.44303 8
    endloop
  endfacet
  facet normal -0.397148 0.917754 0
    outer loop
      vertex 0.993936 -2.5104 8
      vertex 1.1496 -2.44303 0
      vertex 0.993936 -2.5104 0
    endloop
  endfacet
  facet normal -0.750112 0.661311 0
    outer loop
      vertex 1.96821 -1.84828 0
      vertex 2.08039 -1.72104 8
      vertex 2.08039 -1.72104 0
    endloop
  endfacet
  facet normal -0.750112 0.661311 0
    outer loop
      vertex 2.08039 -1.72104 8
      vertex 1.96821 -1.84828 0
      vertex 1.96821 -1.84828 8
    endloop
  endfacet
  facet normal -0.827081 0.562083 0
    outer loop
      vertex 2.18435 -1.58702 0
      vertex 2.27969 -1.44673 8
      vertex 2.27969 -1.44673 0
    endloop
  endfacet
  facet normal -0.827081 0.562083 0
    outer loop
      vertex 2.27969 -1.44673 8
      vertex 2.18435 -1.58702 0
      vertex 2.18435 -1.58702 8
    endloop
  endfacet
  facet normal -0.94088 0.338739 0
    outer loop
      vertex 2.5104 -0.993936 0
      vertex 2.56785 -0.834346 8
      vertex 2.56785 -0.834346 0
    endloop
  endfacet
  facet normal -0.94088 0.338739 0
    outer loop
      vertex 2.56785 -0.834346 8
      vertex 2.5104 -0.993936 0
      vertex 2.5104 -0.993936 8
    endloop
  endfacet
  facet normal -0.975917 0.218141 0
    outer loop
      vertex 2.61517 -0.671462 0
      vertex 2.65217 -0.505929 8
      vertex 2.65217 -0.505929 0
    endloop
  endfacet
  facet normal -0.975917 0.218141 0
    outer loop
      vertex 2.65217 -0.505929 8
      vertex 2.61517 -0.671462 0
      vertex 2.61517 -0.671462 8
    endloop
  endfacet
  facet normal -0.995562 0.0941091 0
    outer loop
      vertex 2.67871 -0.338399 0
      vertex 2.69467 -0.169534 8
      vertex 2.69467 -0.169534 0
    endloop
  endfacet
  facet normal -0.995562 0.0941091 0
    outer loop
      vertex 2.69467 -0.169534 8
      vertex 2.67871 -0.338399 0
      vertex 2.67871 -0.338399 8
    endloop
  endfacet
  facet normal 0.707107 0.707107 0
    outer loop
      vertex -1.84828 -1.96821 8
      vertex -1.96821 -1.84828 0
      vertex -1.96821 -1.84828 8
    endloop
  endfacet
  facet normal 0.707107 0.707107 0
    outer loop
      vertex -1.96821 -1.84828 0
      vertex -1.84828 -1.96821 8
      vertex -1.84828 -1.96821 0
    endloop
  endfacet
  facet normal 0.661311 0.750112 -0
    outer loop
      vertex -1.72104 -2.08039 0
      vertex -1.84828 -1.96821 8
      vertex -1.72104 -2.08039 8
    endloop
  endfacet
  facet normal 0.661311 0.750112 0
    outer loop
      vertex -1.84828 -1.96821 8
      vertex -1.72104 -2.08039 0
      vertex -1.84828 -1.96821 0
    endloop
  endfacet
  facet normal 0.612907 0.790155 -0
    outer loop
      vertex -1.58702 -2.18435 0
      vertex -1.72104 -2.08039 8
      vertex -1.58702 -2.18435 8
    endloop
  endfacet
  facet normal 0.612907 0.790155 0
    outer loop
      vertex -1.72104 -2.08039 8
      vertex -1.58702 -2.18435 0
      vertex -1.72104 -2.08039 0
    endloop
  endfacet
  facet normal 0.453988 0.891008 -0
    outer loop
      vertex -1.1496 -2.44303 0
      vertex -1.30073 -2.36603 8
      vertex -1.1496 -2.44303 8
    endloop
  endfacet
  facet normal 0.453988 0.891008 0
    outer loop
      vertex -1.30073 -2.36603 8
      vertex -1.1496 -2.44303 0
      vertex -1.30073 -2.36603 0
    endloop
  endfacet
  facet normal 0.218141 0.975917 -0
    outer loop
      vertex -0.505929 -2.65217 0
      vertex -0.671462 -2.61517 8
      vertex -0.505929 -2.65217 8
    endloop
  endfacet
  facet normal 0.218141 0.975917 0
    outer loop
      vertex -0.671462 -2.61517 8
      vertex -0.505929 -2.65217 0
      vertex -0.671462 -2.61517 0
    endloop
  endfacet
  facet normal 0.0941091 0.995562 -0
    outer loop
      vertex -0.169534 -2.69467 0
      vertex -0.338399 -2.67871 8
      vertex -0.169534 -2.69467 8
    endloop
  endfacet
  facet normal 0.0941091 0.995562 0
    outer loop
      vertex -0.338399 -2.67871 8
      vertex -0.169534 -2.69467 0
      vertex -0.338399 -2.67871 0
    endloop
  endfacet
  facet normal 0.750112 0.661311 0
    outer loop
      vertex -1.96821 -1.84828 8
      vertex -2.08039 -1.72104 0
      vertex -2.08039 -1.72104 8
    endloop
  endfacet
  facet normal 0.750112 0.661311 0
    outer loop
      vertex -2.08039 -1.72104 0
      vertex -1.96821 -1.84828 8
      vertex -1.96821 -1.84828 0
    endloop
  endfacet
  facet normal 0.860741 0.509043 0
    outer loop
      vertex -2.27969 -1.44673 8
      vertex -2.36603 -1.30073 0
      vertex -2.36603 -1.30073 8
    endloop
  endfacet
  facet normal 0.860741 0.509043 0
    outer loop
      vertex -2.36603 -1.30073 0
      vertex -2.27969 -1.44673 8
      vertex -2.27969 -1.44673 0
    endloop
  endfacet
  facet normal 0.94088 0.338739 0
    outer loop
      vertex -2.5104 -0.993936 8
      vertex -2.56785 -0.834346 0
      vertex -2.56785 -0.834346 8
    endloop
  endfacet
  facet normal 0.94088 0.338739 0
    outer loop
      vertex -2.56785 -0.834346 0
      vertex -2.5104 -0.993936 8
      vertex -2.5104 -0.993936 0
    endloop
  endfacet
  facet normal 0.960293 0.278992 0
    outer loop
      vertex -2.56785 -0.834346 8
      vertex -2.61517 -0.671462 0
      vertex -2.61517 -0.671462 8
    endloop
  endfacet
  facet normal 0.960293 0.278992 0
    outer loop
      vertex -2.61517 -0.671462 0
      vertex -2.56785 -0.834346 8
      vertex -2.56785 -0.834346 0
    endloop
  endfacet
  facet normal 0.987688 0.156434 0
    outer loop
      vertex -2.65217 -0.505929 8
      vertex -2.67871 -0.338399 0
      vertex -2.67871 -0.338399 8
    endloop
  endfacet
  facet normal 0.987688 0.156434 0
    outer loop
      vertex -2.67871 -0.338399 0
      vertex -2.65217 -0.505929 8
      vertex -2.65217 -0.505929 0
    endloop
  endfacet
  facet normal 0.999506 0.0314129 0
    outer loop
      vertex -2.69467 -0.169534 8
      vertex -2.7 0 0
      vertex -2.7 0 8
    endloop
  endfacet
  facet normal 0.999506 0.0314129 0
    outer loop
      vertex -2.7 0 0
      vertex -2.69467 -0.169534 8
      vertex -2.69467 -0.169534 0
    endloop
  endfacet
  facet normal -0.453988 -0.891008 0
    outer loop
      vertex 1.1496 2.44303 0
      vertex 1.30073 2.36603 8
      vertex 1.1496 2.44303 8
    endloop
  endfacet
  facet normal -0.453988 -0.891008 -0
    outer loop
      vertex 1.30073 2.36603 8
      vertex 1.1496 2.44303 0
      vertex 1.30073 2.36603 0
    endloop
  endfacet
  facet normal 0.827081 -0.562083 0
    outer loop
      vertex -2.27969 1.44673 8
      vertex -2.18435 1.58702 0
      vertex -2.18435 1.58702 8
    endloop
  endfacet
  facet normal 0.827081 -0.562083 0
    outer loop
      vertex -2.18435 1.58702 0
      vertex -2.27969 1.44673 8
      vertex -2.27969 1.44673 0
    endloop
  endfacet
  facet normal 0.790155 -0.612907 0
    outer loop
      vertex -2.18435 1.58702 8
      vertex -2.08039 1.72104 0
      vertex -2.08039 1.72104 8
    endloop
  endfacet
  facet normal 0.790155 -0.612907 0
    outer loop
      vertex -2.08039 1.72104 0
      vertex -2.18435 1.58702 8
      vertex -2.18435 1.58702 0
    endloop
  endfacet
  facet normal 0.750112 -0.661311 0
    outer loop
      vertex -2.08039 1.72104 8
      vertex -1.96821 1.84828 0
      vertex -1.96821 1.84828 8
    endloop
  endfacet
  facet normal 0.750112 -0.661311 0
    outer loop
      vertex -1.96821 1.84828 0
      vertex -2.08039 1.72104 8
      vertex -2.08039 1.72104 0
    endloop
  endfacet
  facet normal 0.891008 -0.453988 0
    outer loop
      vertex -2.44303 1.1496 8
      vertex -2.36603 1.30073 0
      vertex -2.36603 1.30073 8
    endloop
  endfacet
  facet normal 0.891008 -0.453988 0
    outer loop
      vertex -2.36603 1.30073 0
      vertex -2.44303 1.1496 8
      vertex -2.44303 1.1496 0
    endloop
  endfacet
  facet normal 0.612907 -0.790155 0
    outer loop
      vertex -1.72104 2.08039 0
      vertex -1.58702 2.18435 8
      vertex -1.72104 2.08039 8
    endloop
  endfacet
  facet normal 0.612907 -0.790155 0
    outer loop
      vertex -1.58702 2.18435 8
      vertex -1.72104 2.08039 0
      vertex -1.58702 2.18435 0
    endloop
  endfacet
  facet normal 0.278992 -0.960293 0
    outer loop
      vertex -0.834346 2.56785 0
      vertex -0.671462 2.61517 8
      vertex -0.834346 2.56785 8
    endloop
  endfacet
  facet normal 0.278992 -0.960293 0
    outer loop
      vertex -0.671462 2.61517 8
      vertex -0.834346 2.56785 0
      vertex -0.671462 2.61517 0
    endloop
  endfacet
  facet normal -0.0941091 0.995562 0
    outer loop
      vertex 0.338399 -2.67871 0
      vertex 0.169534 -2.69467 8
      vertex 0.338399 -2.67871 8
    endloop
  endfacet
  facet normal -0.0941091 0.995562 0
    outer loop
      vertex 0.169534 -2.69467 8
      vertex 0.338399 -2.67871 0
      vertex 0.169534 -2.69467 0
    endloop
  endfacet
  facet normal -0.612907 0.790155 0
    outer loop
      vertex 1.72104 -2.08039 0
      vertex 1.58702 -2.18435 8
      vertex 1.72104 -2.08039 8
    endloop
  endfacet
  facet normal -0.612907 0.790155 0
    outer loop
      vertex 1.58702 -2.18435 8
      vertex 1.72104 -2.08039 0
      vertex 1.58702 -2.18435 0
    endloop
  endfacet
  facet normal -0.860741 0.509043 0
    outer loop
      vertex 2.27969 -1.44673 0
      vertex 2.36603 -1.30073 8
      vertex 2.36603 -1.30073 0
    endloop
  endfacet
  facet normal -0.860741 0.509043 0
    outer loop
      vertex 2.36603 -1.30073 8
      vertex 2.27969 -1.44673 0
      vertex 2.27969 -1.44673 8
    endloop
  endfacet
  facet normal -0.790155 0.612907 0
    outer loop
      vertex 2.08039 -1.72104 0
      vertex 2.18435 -1.58702 8
      vertex 2.18435 -1.58702 0
    endloop
  endfacet
  facet normal -0.790155 0.612907 0
    outer loop
      vertex 2.18435 -1.58702 8
      vertex 2.08039 -1.72104 0
      vertex 2.08039 -1.72104 8
    endloop
  endfacet
  facet normal -0.917754 0.397148 0
    outer loop
      vertex 2.44303 -1.1496 0
      vertex 2.5104 -0.993936 8
      vertex 2.5104 -0.993936 0
    endloop
  endfacet
  facet normal -0.917754 0.397148 0
    outer loop
      vertex 2.5104 -0.993936 8
      vertex 2.44303 -1.1496 0
      vertex 2.44303 -1.1496 8
    endloop
  endfacet
  facet normal 0.397148 0.917754 -0
    outer loop
      vertex -0.993936 -2.5104 0
      vertex -1.1496 -2.44303 8
      vertex -0.993936 -2.5104 8
    endloop
  endfacet
  facet normal 0.397148 0.917754 0
    outer loop
      vertex -1.1496 -2.44303 8
      vertex -0.993936 -2.5104 0
      vertex -1.1496 -2.44303 0
    endloop
  endfacet
  facet normal 0.278992 0.960293 -0
    outer loop
      vertex -0.671462 -2.61517 0
      vertex -0.834346 -2.56785 8
      vertex -0.671462 -2.61517 8
    endloop
  endfacet
  facet normal 0.278992 0.960293 0
    outer loop
      vertex -0.834346 -2.56785 8
      vertex -0.671462 -2.61517 0
      vertex -0.834346 -2.56785 0
    endloop
  endfacet
  facet normal 0.891008 0.453988 0
    outer loop
      vertex -2.36603 -1.30073 8
      vertex -2.44303 -1.1496 0
      vertex -2.44303 -1.1496 8
    endloop
  endfacet
  facet normal 0.891008 0.453988 0
    outer loop
      vertex -2.44303 -1.1496 0
      vertex -2.36603 -1.30073 8
      vertex -2.36603 -1.30073 0
    endloop
  endfacet
  facet normal 0.995562 0.0941091 0
    outer loop
      vertex -2.67871 -0.338399 8
      vertex -2.69467 -0.169534 0
      vertex -2.69467 -0.169534 8
    endloop
  endfacet
  facet normal 0.995562 0.0941091 0
    outer loop
      vertex -2.69467 -0.169534 0
      vertex -2.67871 -0.338399 8
      vertex -2.67871 -0.338399 0
    endloop
  endfacet
  facet normal -0.987688 0.156434 0
    outer loop
      vertex 2.65217 -0.505929 0
      vertex 2.67871 -0.338399 8
      vertex 2.67871 -0.338399 0
    endloop
  endfacet
  facet normal -0.987688 0.156434 0
    outer loop
      vertex 2.67871 -0.338399 8
      vertex 2.65217 -0.505929 0
      vertex 2.65217 -0.505929 8
    endloop
  endfacet
endsolid OpenSCAD_Model
