solid OpenSCAD_Model
  facet normal -1 0 0
    outer loop
      vertex -7.5 -7.5 1
      vertex -7.5 7.5 3
      vertex -7.5 7.5 1
    endloop
  endfacet
  facet normal -1 -0 0
    outer loop
      vertex -7.5 7.5 3
      vertex -7.5 -7.5 1
      vertex -7.5 -7.5 3
    endloop
  endfacet
  facet normal 0 0 1
    outer loop
      vertex 7.5 7.5 3
      vertex 5 5 3
      vertex 7.5 -7.5 3
    endloop
  endfacet
  facet normal 0 0 1
    outer loop
      vertex 7.5 7.5 3
      vertex -5 5 3
      vertex 5 5 3
    endloop
  endfacet
  facet normal 0 0 1
    outer loop
      vertex -5 5 3
      vertex -7.5 7.5 3
      vertex -5 -5 3
    endloop
  endfacet
  facet normal -0 0 1
    outer loop
      vertex -7.5 7.5 3
      vertex -5 5 3
      vertex 7.5 7.5 3
    endloop
  endfacet
  facet normal -0 0 1
    outer loop
      vertex 5 -5 3
      vertex 7.5 -7.5 3
      vertex 5 5 3
    endloop
  endfacet
  facet normal -0 0 1
    outer loop
      vertex -5 -5 3
      vertex 7.5 -7.5 3
      vertex 5 -5 3
    endloop
  endfacet
  facet normal 0 0 1
    outer loop
      vertex -5 -5 3
      vertex -7.5 -7.5 3
      vertex 7.5 -7.5 3
    endloop
  endfacet
  facet normal 0 0 1
    outer loop
      vertex -7.5 -7.5 3
      vertex -5 -5 3
      vertex -7.5 7.5 3
    endloop
  endfacet
  facet normal 1 -0 0
    outer loop
      vertex 7.5 -7.5 3
      vertex 7.5 7.5 1
      vertex 7.5 7.5 3
    endloop
  endfacet
  facet normal 1 0 0
    outer loop
      vertex 7.5 7.5 1
      vertex 7.5 -7.5 3
      vertex 7.5 -7.5 1
    endloop
  endfacet
  facet normal 0 1 -0
    outer loop
      vertex 7.5 7.5 1
      vertex -7.5 7.5 3
      vertex 7.5 7.5 3
    endloop
  endfacet
  facet normal 0 1 0
    outer loop
      vertex -7.5 7.5 3
      vertex 7.5 7.5 1
      vertex -7.5 7.5 1
    endloop
  endfacet
  facet normal 0 -1 0
    outer loop
      vertex -7.5 -7.5 1
      vertex 7.5 -7.5 3
      vertex -7.5 -7.5 3
    endloop
  endfacet
  facet normal 0 -1 -0
    outer loop
      vertex 7.5 -7.5 3
      vertex -7.5 -7.5 1
      vertex 7.5 -7.5 1
    endloop
  endfacet
  facet normal -1 0 0
    outer loop
      vertex -5 -5 3
      vertex -5 5 7
      vertex -5 5 3
    endloop
  endfacet
  facet normal -1 -0 0
    outer loop
      vertex -5 5 7
      vertex -5 -5 3
      vertex -5 -5 7
    endloop
  endfacet
  facet normal 0 0 1
    outer loop
      vertex 5 5 7
      vertex 2.7 0 7
      vertex 5 -5 7
    endloop
  endfacet
  facet normal 0 0 1
    outer loop
      vertex 5 5 7
      vertex 2.69467 0.169534 7
      vertex 2.7 0 7
    endloop
  endfacet
  facet normal 0 0 1
    outer loop
      vertex 5 5 7
      vertex 2.67871 0.338399 7
      vertex 2.69467 0.169534 7
    endloop
  endfacet
  facet normal 0 0 1
    outer loop
      vertex 5 5 7
      vertex 2.65217 0.505929 7
      vertex 2.67871 0.338399 7
    endloop
  endfacet
  facet normal 0 0 1
    outer loop
      vertex 5 5 7
      vertex 2.61517 0.671462 7
      vertex 2.65217 0.505929 7
    endloop
  endfacet
  facet normal 0 0 1
    outer loop
      vertex 5 5 7
      vertex 2.56785 0.834346 7
      vertex 2.61517 0.671462 7
    endloop
  endfacet
  facet normal 0 0 1
    outer loop
      vertex 5 5 7
      vertex 2.5104 0.993936 7
      vertex 2.56785 0.834346 7
    endloop
  endfacet
  facet normal 0 0 1
    outer loop
      vertex 5 5 7
      vertex 2.44303 1.1496 7
      vertex 2.5104 0.993936 7
    endloop
  endfacet
  facet normal 0 0 1
    outer loop
      vertex 5 5 7
      vertex 2.36603 1.30073 7
      vertex 2.44303 1.1496 7
    endloop
  endfacet
  facet normal 0 0 1
    outer loop
      vertex 5 5 7
      vertex 2.27969 1.44673 7
      vertex 2.36603 1.30073 7
    endloop
  endfacet
  facet normal 0 0 1
    outer loop
      vertex 5 5 7
      vertex 2.18435 1.58702 7
      vertex 2.27969 1.44673 7
    endloop
  endfacet
  facet normal 0 0 1
    outer loop
      vertex 5 5 7
      vertex 2.08039 1.72104 7
      vertex 2.18435 1.58702 7
    endloop
  endfacet
  facet normal 0 0 1
    outer loop
      vertex 5 5 7
      vertex 1.96821 1.84828 7
      vertex 2.08039 1.72104 7
    endloop
  endfacet
  facet normal 0 0 1
    outer loop
      vertex 5 5 7
      vertex 1.84828 1.96821 7
      vertex 1.96821 1.84828 7
    endloop
  endfacet
  facet normal 0 0 1
    outer loop
      vertex 5 5 7
      vertex 1.72104 2.08039 7
      vertex 1.84828 1.96821 7
    endloop
  endfacet
  facet normal 0 0 1
    outer loop
      vertex 5 5 7
      vertex 1.58702 2.18435 7
      vertex 1.72104 2.08039 7
    endloop
  endfacet
  facet normal 0 0 1
    outer loop
      vertex 5 5 7
      vertex 1.44673 2.27969 7
      vertex 1.58702 2.18435 7
    endloop
  endfacet
  facet normal 0 0 1
    outer loop
      vertex 5 5 7
      vertex 1.30073 2.36603 7
      vertex 1.44673 2.27969 7
    endloop
  endfacet
  facet normal 0 0 1
    outer loop
      vertex 5 5 7
      vertex 1.1496 2.44303 7
      vertex 1.30073 2.36603 7
    endloop
  endfacet
  facet normal 0 0 1
    outer loop
      vertex 5 5 7
      vertex 0.993936 2.5104 7
      vertex 1.1496 2.44303 7
    endloop
  endfacet
  facet normal 0 0 1
    outer loop
      vertex 5 5 7
      vertex 0.834346 2.56785 7
      vertex 0.993936 2.5104 7
    endloop
  endfacet
  facet normal 0 0 1
    outer loop
      vertex 5 5 7
      vertex 0.671462 2.61517 7
      vertex 0.834346 2.56785 7
    endloop
  endfacet
  facet normal 0 0 1
    outer loop
      vertex 5 5 7
      vertex 0.505929 2.65217 7
      vertex 0.671462 2.61517 7
    endloop
  endfacet
  facet normal 0 0 1
    outer loop
      vertex 5 5 7
      vertex 0.338399 2.67871 7
      vertex 0.505929 2.65217 7
    endloop
  endfacet
  facet normal 0 0 1
    outer loop
      vertex 5 5 7
      vertex 0.169534 2.69467 7
      vertex 0.338399 2.67871 7
    endloop
  endfacet
  facet normal 0 0 1
    outer loop
      vertex 5 5 7
      vertex 0 2.7 7
      vertex 0.169534 2.69467 7
    endloop
  endfacet
  facet normal -0 0 1
    outer loop
      vertex -5 5 7
      vertex 0 2.7 7
      vertex 5 5 7
    endloop
  endfacet
  facet normal 0 0 1
    outer loop
      vertex 0 2.7 7
      vertex -5 5 7
      vertex -0.169534 2.69467 7
    endloop
  endfacet
  facet normal 0 0 1
    outer loop
      vertex -0.169534 2.69467 7
      vertex -5 5 7
      vertex -0.338399 2.67871 7
    endloop
  endfacet
  facet normal 0 0 1
    outer loop
      vertex -0.338399 2.67871 7
      vertex -5 5 7
      vertex -0.505929 2.65217 7
    endloop
  endfacet
  facet normal 0 0 1
    outer loop
      vertex -0.505929 2.65217 7
      vertex -5 5 7
      vertex -0.671462 2.61517 7
    endloop
  endfacet
  facet normal 0 0 1
    outer loop
      vertex -0.671462 2.61517 7
      vertex -5 5 7
      vertex -0.834346 2.56785 7
    endloop
  endfacet
  facet normal 0 0 1
    outer loop
      vertex -2.69467 0.169534 7
      vertex -5 5 7
      vertex -2.7 0 7
    endloop
  endfacet
  facet normal 0 0 1
    outer loop
      vertex -2.67871 0.338399 7
      vertex -5 5 7
      vertex -2.69467 0.169534 7
    endloop
  endfacet
  facet normal 0 0 1
    outer loop
      vertex -2.65217 0.505929 7
      vertex -5 5 7
      vertex -2.67871 0.338399 7
    endloop
  endfacet
  facet normal 0 0 1
    outer loop
      vertex -2.61517 0.671462 7
      vertex -5 5 7
      vertex -2.65217 0.505929 7
    endloop
  endfacet
  facet normal 0 0 1
    outer loop
      vertex -2.56785 0.834346 7
      vertex -5 5 7
      vertex -2.61517 0.671462 7
    endloop
  endfacet
  facet normal 0 0 1
    outer loop
      vertex -2.5104 0.993936 7
      vertex -5 5 7
      vertex -2.56785 0.834346 7
    endloop
  endfacet
  facet normal 0 0 1
    outer loop
      vertex -2.44303 1.1496 7
      vertex -5 5 7
      vertex -2.5104 0.993936 7
    endloop
  endfacet
  facet normal 0 0 1
    outer loop
      vertex -2.36603 1.30073 7
      vertex -5 5 7
      vertex -2.44303 1.1496 7
    endloop
  endfacet
  facet normal 0 0 1
    outer loop
      vertex -2.27969 1.44673 7
      vertex -5 5 7
      vertex -2.36603 1.30073 7
    endloop
  endfacet
  facet normal 0 0 1
    outer loop
      vertex -2.18435 1.58702 7
      vertex -5 5 7
      vertex -2.27969 1.44673 7
    endloop
  endfacet
  facet normal 0 0 1
    outer loop
      vertex -2.08039 1.72104 7
      vertex -5 5 7
      vertex -2.18435 1.58702 7
    endloop
  endfacet
  facet normal 0 0 1
    outer loop
      vertex -1.96821 1.84828 7
      vertex -5 5 7
      vertex -2.08039 1.72104 7
    endloop
  endfacet
  facet normal 0 0 1
    outer loop
      vertex -1.84828 1.96821 7
      vertex -5 5 7
      vertex -1.96821 1.84828 7
    endloop
  endfacet
  facet normal 0 0 1
    outer loop
      vertex -1.72104 2.08039 7
      vertex -5 5 7
      vertex -1.84828 1.96821 7
    endloop
  endfacet
  facet normal 0 0 1
    outer loop
      vertex -1.58702 2.18435 7
      vertex -5 5 7
      vertex -1.72104 2.08039 7
    endloop
  endfacet
  facet normal 0 0 1
    outer loop
      vertex -1.44673 2.27969 7
      vertex -5 5 7
      vertex -1.58702 2.18435 7
    endloop
  endfacet
  facet normal 0 0 1
    outer loop
      vertex -1.30073 2.36603 7
      vertex -5 5 7
      vertex -1.44673 2.27969 7
    endloop
  endfacet
  facet normal 0 0 1
    outer loop
      vertex -1.1496 2.44303 7
      vertex -5 5 7
      vertex -1.30073 2.36603 7
    endloop
  endfacet
  facet normal 0 0 1
    outer loop
      vertex -0.993936 2.5104 7
      vertex -5 5 7
      vertex -1.1496 2.44303 7
    endloop
  endfacet
  facet normal 0 0 1
    outer loop
      vertex -0.834346 2.56785 7
      vertex -5 5 7
      vertex -0.993936 2.5104 7
    endloop
  endfacet
  facet normal -0 0 1
    outer loop
      vertex 2.69467 -0.169534 7
      vertex 5 -5 7
      vertex 2.7 0 7
    endloop
  endfacet
  facet normal -0 0 1
    outer loop
      vertex 2.67871 -0.338399 7
      vertex 5 -5 7
      vertex 2.69467 -0.169534 7
    endloop
  endfacet
  facet normal -0 0 1
    outer loop
      vertex 2.65217 -0.505929 7
      vertex 5 -5 7
      vertex 2.67871 -0.338399 7
    endloop
  endfacet
  facet normal -0 0 1
    outer loop
      vertex 2.61517 -0.671462 7
      vertex 5 -5 7
      vertex 2.65217 -0.505929 7
    endloop
  endfacet
  facet normal -0 0 1
    outer loop
      vertex 2.56785 -0.834346 7
      vertex 5 -5 7
      vertex 2.61517 -0.671462 7
    endloop
  endfacet
  facet normal -0 0 1
    outer loop
      vertex 2.5104 -0.993936 7
      vertex 5 -5 7
      vertex 2.56785 -0.834346 7
    endloop
  endfacet
  facet normal -0 0 1
    outer loop
      vertex 2.44303 -1.1496 7
      vertex 5 -5 7
      vertex 2.5104 -0.993936 7
    endloop
  endfacet
  facet normal -0 0 1
    outer loop
      vertex 2.36603 -1.30073 7
      vertex 5 -5 7
      vertex 2.44303 -1.1496 7
    endloop
  endfacet
  facet normal -0 0 1
    outer loop
      vertex 2.27969 -1.44673 7
      vertex 5 -5 7
      vertex 2.36603 -1.30073 7
    endloop
  endfacet
  facet normal -0 0 1
    outer loop
      vertex 2.18435 -1.58702 7
      vertex 5 -5 7
      vertex 2.27969 -1.44673 7
    endloop
  endfacet
  facet normal -0 0 1
    outer loop
      vertex 2.08039 -1.72104 7
      vertex 5 -5 7
      vertex 2.18435 -1.58702 7
    endloop
  endfacet
  facet normal -0 0 1
    outer loop
      vertex 1.96821 -1.84828 7
      vertex 5 -5 7
      vertex 2.08039 -1.72104 7
    endloop
  endfacet
  facet normal -0 0 1
    outer loop
      vertex 1.84828 -1.96821 7
      vertex 5 -5 7
      vertex 1.96821 -1.84828 7
    endloop
  endfacet
  facet normal -0 0 1
    outer loop
      vertex 1.72104 -2.08039 7
      vertex 5 -5 7
      vertex 1.84828 -1.96821 7
    endloop
  endfacet
  facet normal -0 0 1
    outer loop
      vertex 1.58702 -2.18435 7
      vertex 5 -5 7
      vertex 1.72104 -2.08039 7
    endloop
  endfacet
  facet normal -0 0 1
    outer loop
      vertex 1.44673 -2.27969 7
      vertex 5 -5 7
      vertex 1.58702 -2.18435 7
    endloop
  endfacet
  facet normal -0 0 1
    outer loop
      vertex 1.30073 -2.36603 7
      vertex 5 -5 7
      vertex 1.44673 -2.27969 7
    endloop
  endfacet
  facet normal -0 0 1
    outer loop
      vertex 1.1496 -2.44303 7
      vertex 5 -5 7
      vertex 1.30073 -2.36603 7
    endloop
  endfacet
  facet normal -0 0 1
    outer loop
      vertex 0.993936 -2.5104 7
      vertex 5 -5 7
      vertex 1.1496 -2.44303 7
    endloop
  endfacet
  facet normal -0 0 1
    outer loop
      vertex 0.834346 -2.56785 7
      vertex 5 -5 7
      vertex 0.993936 -2.5104 7
    endloop
  endfacet
  facet normal -0 0 1
    outer loop
      vertex 0.671462 -2.61517 7
      vertex 5 -5 7
      vertex 0.834346 -2.56785 7
    endloop
  endfacet
  facet normal -0 0 1
    outer loop
      vertex 0.505929 -2.65217 7
      vertex 5 -5 7
      vertex 0.671462 -2.61517 7
    endloop
  endfacet
  facet normal -0 0 1
    outer loop
      vertex 0.338399 -2.67871 7
      vertex 5 -5 7
      vertex 0.505929 -2.65217 7
    endloop
  endfacet
  facet normal -0 0 1
    outer loop
      vertex 0.169534 -2.69467 7
      vertex 5 -5 7
      vertex 0.338399 -2.67871 7
    endloop
  endfacet
  facet normal -0 0 1
    outer loop
      vertex 0 -2.7 7
      vertex 5 -5 7
      vertex 0.169534 -2.69467 7
    endloop
  endfacet
  facet normal 0 0 1
    outer loop
      vertex -5 -5 7
      vertex 0 -2.7 7
      vertex -0.169534 -2.69467 7
    endloop
  endfacet
  facet normal 0 0 1
    outer loop
      vertex -5 -5 7
      vertex -0.169534 -2.69467 7
      vertex -0.338399 -2.67871 7
    endloop
  endfacet
  facet normal 0 0 1
    outer loop
      vertex -5 -5 7
      vertex -0.338399 -2.67871 7
      vertex -0.505929 -2.65217 7
    endloop
  endfacet
  facet normal 0 0 1
    outer loop
      vertex -5 -5 7
      vertex -0.505929 -2.65217 7
      vertex -0.671462 -2.61517 7
    endloop
  endfacet
  facet normal 0 0 1
    outer loop
      vertex -5 -5 7
      vertex -0.671462 -2.61517 7
      vertex -0.834346 -2.56785 7
    endloop
  endfacet
  facet normal 0 0 1
    outer loop
      vertex -5 -5 7
      vertex -0.834346 -2.56785 7
      vertex -0.993936 -2.5104 7
    endloop
  endfacet
  facet normal 0 0 1
    outer loop
      vertex -5 -5 7
      vertex -2.7 0 7
      vertex -5 5 7
    endloop
  endfacet
  facet normal 0 0 1
    outer loop
      vertex -2.7 0 7
      vertex -5 -5 7
      vertex -2.69467 -0.169534 7
    endloop
  endfacet
  facet normal 0 0 1
    outer loop
      vertex -2.69467 -0.169534 7
      vertex -5 -5 7
      vertex -2.67871 -0.338399 7
    endloop
  endfacet
  facet normal 0 0 1
    outer loop
      vertex -2.67871 -0.338399 7
      vertex -5 -5 7
      vertex -2.65217 -0.505929 7
    endloop
  endfacet
  facet normal 0 0 1
    outer loop
      vertex -2.65217 -0.505929 7
      vertex -5 -5 7
      vertex -2.61517 -0.671462 7
    endloop
  endfacet
  facet normal 0 0 1
    outer loop
      vertex -2.61517 -0.671462 7
      vertex -5 -5 7
      vertex -2.56785 -0.834346 7
    endloop
  endfacet
  facet normal 0 0 1
    outer loop
      vertex 0 -2.7 7
      vertex -5 -5 7
      vertex 5 -5 7
    endloop
  endfacet
  facet normal 0 0 1
    outer loop
      vertex -1.1496 -2.44303 7
      vertex -5 -5 7
      vertex -0.993936 -2.5104 7
    endloop
  endfacet
  facet normal 0 0 1
    outer loop
      vertex -1.30073 -2.36603 7
      vertex -5 -5 7
      vertex -1.1496 -2.44303 7
    endloop
  endfacet
  facet normal 0 0 1
    outer loop
      vertex -1.44673 -2.27969 7
      vertex -5 -5 7
      vertex -1.30073 -2.36603 7
    endloop
  endfacet
  facet normal 0 0 1
    outer loop
      vertex -1.58702 -2.18435 7
      vertex -5 -5 7
      vertex -1.44673 -2.27969 7
    endloop
  endfacet
  facet normal 0 0 1
    outer loop
      vertex -1.72104 -2.08039 7
      vertex -5 -5 7
      vertex -1.58702 -2.18435 7
    endloop
  endfacet
  facet normal 0 0 1
    outer loop
      vertex -1.84828 -1.96821 7
      vertex -5 -5 7
      vertex -1.72104 -2.08039 7
    endloop
  endfacet
  facet normal 0 0 1
    outer loop
      vertex -1.96821 -1.84828 7
      vertex -5 -5 7
      vertex -1.84828 -1.96821 7
    endloop
  endfacet
  facet normal 0 0 1
    outer loop
      vertex -2.08039 -1.72104 7
      vertex -5 -5 7
      vertex -1.96821 -1.84828 7
    endloop
  endfacet
  facet normal 0 0 1
    outer loop
      vertex -2.18435 -1.58702 7
      vertex -5 -5 7
      vertex -2.08039 -1.72104 7
    endloop
  endfacet
  facet normal 0 0 1
    outer loop
      vertex -2.27969 -1.44673 7
      vertex -5 -5 7
      vertex -2.18435 -1.58702 7
    endloop
  endfacet
  facet normal 0 0 1
    outer loop
      vertex -2.36603 -1.30073 7
      vertex -5 -5 7
      vertex -2.27969 -1.44673 7
    endloop
  endfacet
  facet normal 0 0 1
    outer loop
      vertex -2.44303 -1.1496 7
      vertex -5 -5 7
      vertex -2.36603 -1.30073 7
    endloop
  endfacet
  facet normal 0 0 1
    outer loop
      vertex -2.5104 -0.993936 7
      vertex -5 -5 7
      vertex -2.44303 -1.1496 7
    endloop
  endfacet
  facet normal 0 0 1
    outer loop
      vertex -2.56785 -0.834346 7
      vertex -5 -5 7
      vertex -2.5104 -0.993936 7
    endloop
  endfacet
  facet normal 1 -0 0
    outer loop
      vertex 5 -5 7
      vertex 5 5 3
      vertex 5 5 7
    endloop
  endfacet
  facet normal 1 0 0
    outer loop
      vertex 5 5 3
      vertex 5 -5 7
      vertex 5 -5 3
    endloop
  endfacet
  facet normal 0 1 -0
    outer loop
      vertex 5 5 3
      vertex -5 5 7
      vertex 5 5 7
    endloop
  endfacet
  facet normal 0 1 0
    outer loop
      vertex -5 5 7
      vertex 5 5 3
      vertex -5 5 3
    endloop
  endfacet
  facet normal 0 -1 0
    outer loop
      vertex -5 -5 3
      vertex 5 -5 7
      vertex -5 -5 7
    endloop
  endfacet
  facet normal 0 -1 -0
    outer loop
      vertex 5 -5 7
      vertex -5 -5 3
      vertex 5 -5 3
    endloop
  endfacet
  facet normal -1 0 0
    outer loop
      vertex -12.5 -25 -1
      vertex -12.5 25 1
      vertex -12.5 25 -1
    endloop
  endfacet
  facet normal -1 -0 0
    outer loop
      vertex -12.5 25 1
      vertex -12.5 -25 -1
      vertex -12.5 -25 1
    endloop
  endfacet
  facet normal 0 0 1
    outer loop
      vertex 10 10 1
      vertex 7.5 7.5 1
      vertex 10 -10 1
    endloop
  endfacet
  facet normal 0 0 1
    outer loop
      vertex 10 10 1
      vertex -7.5 7.5 1
      vertex 7.5 7.5 1
    endloop
  endfacet
  facet normal 0 0 1
    outer loop
      vertex -7.5 7.5 1
      vertex -10 10 1
      vertex -7.5 -7.5 1
    endloop
  endfacet
  facet normal -0 0 1
    outer loop
      vertex -10 10 1
      vertex -7.5 7.5 1
      vertex 10 10 1
    endloop
  endfacet
  facet normal 0 0 1
    outer loop
      vertex 10 10 1
      vertex 12.5 25 1
      vertex 10 23.5 1
    endloop
  endfacet
  facet normal 0 0 1
    outer loop
      vertex 12.5 25 1
      vertex -10 23.5 1
      vertex 10 23.5 1
    endloop
  endfacet
  facet normal 0 0 1
    outer loop
      vertex -12.5 25 1
      vertex -10 10 1
      vertex -10 23.5 1
    endloop
  endfacet
  facet normal 0 0 1
    outer loop
      vertex -10 10 1
      vertex -12.5 25 1
      vertex -10 -10 1
    endloop
  endfacet
  facet normal 0 0 1
    outer loop
      vertex -12.5 -25 1
      vertex -10 -10 1
      vertex -12.5 25 1
    endloop
  endfacet
  facet normal -0 0 1
    outer loop
      vertex -12.5 25 1
      vertex -10 23.5 1
      vertex 12.5 25 1
    endloop
  endfacet
  facet normal 0 0 1
    outer loop
      vertex 12.5 25 1
      vertex 10 10 1
      vertex 12.5 -25 1
    endloop
  endfacet
  facet normal -0 0 1
    outer loop
      vertex 10 -10 1
      vertex 12.5 -25 1
      vertex 10 10 1
    endloop
  endfacet
  facet normal -0 0 1
    outer loop
      vertex 10 -23.5 1
      vertex 12.5 -25 1
      vertex 10 -10 1
    endloop
  endfacet
  facet normal -0 0 1
    outer loop
      vertex -10 -23.5 1
      vertex 12.5 -25 1
      vertex 10 -23.5 1
    endloop
  endfacet
  facet normal 0 0 1
    outer loop
      vertex -10 -23.5 1
      vertex -12.5 -25 1
      vertex 12.5 -25 1
    endloop
  endfacet
  facet normal 0 0 1
    outer loop
      vertex -10 -10 1
      vertex -12.5 -25 1
      vertex -10 -23.5 1
    endloop
  endfacet
  facet normal -0 0 1
    outer loop
      vertex 7.5 -7.5 1
      vertex 10 -10 1
      vertex 7.5 7.5 1
    endloop
  endfacet
  facet normal -0 0 1
    outer loop
      vertex -7.5 -7.5 1
      vertex 10 -10 1
      vertex 7.5 -7.5 1
    endloop
  endfacet
  facet normal 0 0 1
    outer loop
      vertex -7.5 -7.5 1
      vertex -10 -10 1
      vertex 10 -10 1
    endloop
  endfacet
  facet normal 0 0 1
    outer loop
      vertex -10 -10 1
      vertex -7.5 -7.5 1
      vertex -10 10 1
    endloop
  endfacet
  facet normal 0 0 1
    outer loop
      vertex 2.69467 0.169534 1
      vertex 2.69467 -0.169534 1
      vertex 2.7 0 1
    endloop
  endfacet
  facet normal 0 0 1
    outer loop
      vertex 2.67871 0.338399 1
      vertex 2.69467 -0.169534 1
      vertex 2.69467 0.169534 1
    endloop
  endfacet
  facet normal 0 0 1
    outer loop
      vertex 2.67871 0.338399 1
      vertex 2.67871 -0.338399 1
      vertex 2.69467 -0.169534 1
    endloop
  endfacet
  facet normal 0 0 1
    outer loop
      vertex 2.65217 0.505929 1
      vertex 2.67871 -0.338399 1
      vertex 2.67871 0.338399 1
    endloop
  endfacet
  facet normal 0 0 1
    outer loop
      vertex 2.65217 0.505929 1
      vertex 2.65217 -0.505929 1
      vertex 2.67871 -0.338399 1
    endloop
  endfacet
  facet normal 0 0 1
    outer loop
      vertex 2.61517 0.671462 1
      vertex 2.65217 -0.505929 1
      vertex 2.65217 0.505929 1
    endloop
  endfacet
  facet normal 0 0 1
    outer loop
      vertex 2.61517 0.671462 1
      vertex 2.61517 -0.671462 1
      vertex 2.65217 -0.505929 1
    endloop
  endfacet
  facet normal 0 0 1
    outer loop
      vertex 2.56785 0.834346 1
      vertex 2.61517 -0.671462 1
      vertex 2.61517 0.671462 1
    endloop
  endfacet
  facet normal 0 0 1
    outer loop
      vertex 2.56785 0.834346 1
      vertex 2.56785 -0.834346 1
      vertex 2.61517 -0.671462 1
    endloop
  endfacet
  facet normal 0 0 1
    outer loop
      vertex 2.5104 0.993936 1
      vertex 2.56785 -0.834346 1
      vertex 2.56785 0.834346 1
    endloop
  endfacet
  facet normal 0 0 1
    outer loop
      vertex 2.5104 0.993936 1
      vertex 2.5104 -0.993936 1
      vertex 2.56785 -0.834346 1
    endloop
  endfacet
  facet normal 0 0 1
    outer loop
      vertex 2.44303 1.1496 1
      vertex 2.5104 -0.993936 1
      vertex 2.5104 0.993936 1
    endloop
  endfacet
  facet normal 0 0 1
    outer loop
      vertex 2.44303 1.1496 1
      vertex 2.44303 -1.1496 1
      vertex 2.5104 -0.993936 1
    endloop
  endfacet
  facet normal 0 0 1
    outer loop
      vertex 2.36603 1.30073 1
      vertex 2.44303 -1.1496 1
      vertex 2.44303 1.1496 1
    endloop
  endfacet
  facet normal 0 0 1
    outer loop
      vertex 2.36603 1.30073 1
      vertex 2.36603 -1.30073 1
      vertex 2.44303 -1.1496 1
    endloop
  endfacet
  facet normal 0 0 1
    outer loop
      vertex 2.27969 1.44673 1
      vertex 2.36603 -1.30073 1
      vertex 2.36603 1.30073 1
    endloop
  endfacet
  facet normal 0 0 1
    outer loop
      vertex 2.27969 1.44673 1
      vertex 2.27969 -1.44673 1
      vertex 2.36603 -1.30073 1
    endloop
  endfacet
  facet normal 0 0 1
    outer loop
      vertex 2.18435 1.58702 1
      vertex 2.27969 -1.44673 1
      vertex 2.27969 1.44673 1
    endloop
  endfacet
  facet normal 0 0 1
    outer loop
      vertex 2.18435 1.58702 1
      vertex 2.18435 -1.58702 1
      vertex 2.27969 -1.44673 1
    endloop
  endfacet
  facet normal 0 0 1
    outer loop
      vertex 2.08039 1.72104 1
      vertex 2.18435 -1.58702 1
      vertex 2.18435 1.58702 1
    endloop
  endfacet
  facet normal 0 0 1
    outer loop
      vertex 2.08039 1.72104 1
      vertex 2.08039 -1.72104 1
      vertex 2.18435 -1.58702 1
    endloop
  endfacet
  facet normal 0 0 1
    outer loop
      vertex 1.96821 1.84828 1
      vertex 2.08039 -1.72104 1
      vertex 2.08039 1.72104 1
    endloop
  endfacet
  facet normal 0 0 1
    outer loop
      vertex 1.96821 1.84828 1
      vertex 1.96821 -1.84828 1
      vertex 2.08039 -1.72104 1
    endloop
  endfacet
  facet normal 0 0 1
    outer loop
      vertex 1.84828 1.96821 1
      vertex 1.96821 -1.84828 1
      vertex 1.96821 1.84828 1
    endloop
  endfacet
  facet normal 0 0 1
    outer loop
      vertex 1.84828 1.96821 1
      vertex 1.84828 -1.96821 1
      vertex 1.96821 -1.84828 1
    endloop
  endfacet
  facet normal 0 0 1
    outer loop
      vertex 1.72104 2.08039 1
      vertex 1.84828 -1.96821 1
      vertex 1.84828 1.96821 1
    endloop
  endfacet
  facet normal 0 0 1
    outer loop
      vertex 1.72104 2.08039 1
      vertex 1.72104 -2.08039 1
      vertex 1.84828 -1.96821 1
    endloop
  endfacet
  facet normal 0 0 1
    outer loop
      vertex 1.58702 2.18435 1
      vertex 1.72104 -2.08039 1
      vertex 1.72104 2.08039 1
    endloop
  endfacet
  facet normal 0 0 1
    outer loop
      vertex 1.58702 2.18435 1
      vertex 1.58702 -2.18435 1
      vertex 1.72104 -2.08039 1
    endloop
  endfacet
  facet normal 0 0 1
    outer loop
      vertex 1.44673 2.27969 1
      vertex 1.58702 -2.18435 1
      vertex 1.58702 2.18435 1
    endloop
  endfacet
  facet normal 0 0 1
    outer loop
      vertex 1.44673 2.27969 1
      vertex 1.44673 -2.27969 1
      vertex 1.58702 -2.18435 1
    endloop
  endfacet
  facet normal 0 0 1
    outer loop
      vertex 1.30073 2.36603 1
      vertex 1.44673 -2.27969 1
      vertex 1.44673 2.27969 1
    endloop
  endfacet
  facet normal 0 0 1
    outer loop
      vertex 1.30073 2.36603 1
      vertex 1.30073 -2.36603 1
      vertex 1.44673 -2.27969 1
    endloop
  endfacet
  facet normal 0 0 1
    outer loop
      vertex 1.1496 2.44303 1
      vertex 1.30073 -2.36603 1
      vertex 1.30073 2.36603 1
    endloop
  endfacet
  facet normal 0 0 1
    outer loop
      vertex 1.1496 2.44303 1
      vertex 1.1496 -2.44303 1
      vertex 1.30073 -2.36603 1
    endloop
  endfacet
  facet normal 0 0 1
    outer loop
      vertex 0.993936 2.5104 1
      vertex 1.1496 -2.44303 1
      vertex 1.1496 2.44303 1
    endloop
  endfacet
  facet normal 0 0 1
    outer loop
      vertex 0.993936 2.5104 1
      vertex 0.993936 -2.5104 1
      vertex 1.1496 -2.44303 1
    endloop
  endfacet
  facet normal 0 0 1
    outer loop
      vertex 0.834346 2.56785 1
      vertex 0.993936 -2.5104 1
      vertex 0.993936 2.5104 1
    endloop
  endfacet
  facet normal 0 0 1
    outer loop
      vertex 0.834346 2.56785 1
      vertex 0.834346 -2.56785 1
      vertex 0.993936 -2.5104 1
    endloop
  endfacet
  facet normal 0 0 1
    outer loop
      vertex 0.671462 2.61517 1
      vertex 0.834346 -2.56785 1
      vertex 0.834346 2.56785 1
    endloop
  endfacet
  facet normal 0 0 1
    outer loop
      vertex 0.671462 2.61517 1
      vertex 0.671462 -2.61517 1
      vertex 0.834346 -2.56785 1
    endloop
  endfacet
  facet normal 0 0 1
    outer loop
      vertex 0.505929 2.65217 1
      vertex 0.671462 -2.61517 1
      vertex 0.671462 2.61517 1
    endloop
  endfacet
  facet normal 0 0 1
    outer loop
      vertex 0.505929 2.65217 1
      vertex 0.505929 -2.65217 1
      vertex 0.671462 -2.61517 1
    endloop
  endfacet
  facet normal 0 0 1
    outer loop
      vertex 0.338399 2.67871 1
      vertex 0.505929 -2.65217 1
      vertex 0.505929 2.65217 1
    endloop
  endfacet
  facet normal 0 0 1
    outer loop
      vertex 0.338399 2.67871 1
      vertex 0.338399 -2.67871 1
      vertex 0.505929 -2.65217 1
    endloop
  endfacet
  facet normal 0 0 1
    outer loop
      vertex 0.169534 2.69467 1
      vertex 0.338399 -2.67871 1
      vertex 0.338399 2.67871 1
    endloop
  endfacet
  facet normal 0 0 1
    outer loop
      vertex 0.169534 2.69467 1
      vertex 0.169534 -2.69467 1
      vertex 0.338399 -2.67871 1
    endloop
  endfacet
  facet normal 0 0 1
    outer loop
      vertex 0 2.7 1
      vertex 0.169534 -2.69467 1
      vertex 0.169534 2.69467 1
    endloop
  endfacet
  facet normal 0 0 1
    outer loop
      vertex 0 2.7 1
      vertex 0 -2.7 1
      vertex 0.169534 -2.69467 1
    endloop
  endfacet
  facet normal -0 0 1
    outer loop
      vertex -0.169534 2.69467 1
      vertex 0 -2.7 1
      vertex 0 2.7 1
    endloop
  endfacet
  facet normal 0 0 1
    outer loop
      vertex -0.169534 2.69467 1
      vertex -0.169534 -2.69467 1
      vertex 0 -2.7 1
    endloop
  endfacet
  facet normal -0 0 1
    outer loop
      vertex -0.338399 2.67871 1
      vertex -0.169534 -2.69467 1
      vertex -0.169534 2.69467 1
    endloop
  endfacet
  facet normal 0 0 1
    outer loop
      vertex -0.338399 2.67871 1
      vertex -0.338399 -2.67871 1
      vertex -0.169534 -2.69467 1
    endloop
  endfacet
  facet normal -0 0 1
    outer loop
      vertex -0.505929 2.65217 1
      vertex -0.338399 -2.67871 1
      vertex -0.338399 2.67871 1
    endloop
  endfacet
  facet normal 0 0 1
    outer loop
      vertex -0.505929 2.65217 1
      vertex -0.505929 -2.65217 1
      vertex -0.338399 -2.67871 1
    endloop
  endfacet
  facet normal -0 0 1
    outer loop
      vertex -0.671462 2.61517 1
      vertex -0.505929 -2.65217 1
      vertex -0.505929 2.65217 1
    endloop
  endfacet
  facet normal 0 0 1
    outer loop
      vertex -0.671462 2.61517 1
      vertex -0.671462 -2.61517 1
      vertex -0.505929 -2.65217 1
    endloop
  endfacet
  facet normal -0 0 1
    outer loop
      vertex -0.834346 2.56785 1
      vertex -0.671462 -2.61517 1
      vertex -0.671462 2.61517 1
    endloop
  endfacet
  facet normal 0 0 1
    outer loop
      vertex -0.834346 2.56785 1
      vertex -0.834346 -2.56785 1
      vertex -0.671462 -2.61517 1
    endloop
  endfacet
  facet normal -0 0 1
    outer loop
      vertex -0.993936 2.5104 1
      vertex -0.834346 -2.56785 1
      vertex -0.834346 2.56785 1
    endloop
  endfacet
  facet normal 0 0 1
    outer loop
      vertex -0.993936 2.5104 1
      vertex -0.993936 -2.5104 1
      vertex -0.834346 -2.56785 1
    endloop
  endfacet
  facet normal -0 0 1
    outer loop
      vertex -1.1496 2.44303 1
      vertex -0.993936 -2.5104 1
      vertex -0.993936 2.5104 1
    endloop
  endfacet
  facet normal 0 0 1
    outer loop
      vertex -1.1496 2.44303 1
      vertex -1.1496 -2.44303 1
      vertex -0.993936 -2.5104 1
    endloop
  endfacet
  facet normal -0 0 1
    outer loop
      vertex -1.30073 2.36603 1
      vertex -1.1496 -2.44303 1
      vertex -1.1496 2.44303 1
    endloop
  endfacet
  facet normal 0 0 1
    outer loop
      vertex -1.30073 2.36603 1
      vertex -1.30073 -2.36603 1
      vertex -1.1496 -2.44303 1
    endloop
  endfacet
  facet normal -0 0 1
    outer loop
      vertex -1.44673 2.27969 1
      vertex -1.30073 -2.36603 1
      vertex -1.30073 2.36603 1
    endloop
  endfacet
  facet normal 0 0 1
    outer loop
      vertex -1.44673 2.27969 1
      vertex -1.44673 -2.27969 1
      vertex -1.30073 -2.36603 1
    endloop
  endfacet
  facet normal -0 0 1
    outer loop
      vertex -1.58702 2.18435 1
      vertex -1.44673 -2.27969 1
      vertex -1.44673 2.27969 1
    endloop
  endfacet
  facet normal 0 0 1
    outer loop
      vertex -1.58702 2.18435 1
      vertex -1.58702 -2.18435 1
      vertex -1.44673 -2.27969 1
    endloop
  endfacet
  facet normal -0 0 1
    outer loop
      vertex -1.72104 2.08039 1
      vertex -1.58702 -2.18435 1
      vertex -1.58702 2.18435 1
    endloop
  endfacet
  facet normal 0 0 1
    outer loop
      vertex -1.72104 2.08039 1
      vertex -1.72104 -2.08039 1
      vertex -1.58702 -2.18435 1
    endloop
  endfacet
  facet normal -0 0 1
    outer loop
      vertex -1.84828 1.96821 1
      vertex -1.72104 -2.08039 1
      vertex -1.72104 2.08039 1
    endloop
  endfacet
  facet normal 0 0 1
    outer loop
      vertex -1.84828 1.96821 1
      vertex -1.84828 -1.96821 1
      vertex -1.72104 -2.08039 1
    endloop
  endfacet
  facet normal -0 0 1
    outer loop
      vertex -1.96821 1.84828 1
      vertex -1.84828 -1.96821 1
      vertex -1.84828 1.96821 1
    endloop
  endfacet
  facet normal 0 0 1
    outer loop
      vertex -1.96821 1.84828 1
      vertex -1.96821 -1.84828 1
      vertex -1.84828 -1.96821 1
    endloop
  endfacet
  facet normal -0 0 1
    outer loop
      vertex -2.08039 1.72104 1
      vertex -1.96821 -1.84828 1
      vertex -1.96821 1.84828 1
    endloop
  endfacet
  facet normal 0 0 1
    outer loop
      vertex -2.08039 1.72104 1
      vertex -2.08039 -1.72104 1
      vertex -1.96821 -1.84828 1
    endloop
  endfacet
  facet normal -0 0 1
    outer loop
      vertex -2.18435 1.58702 1
      vertex -2.08039 -1.72104 1
      vertex -2.08039 1.72104 1
    endloop
  endfacet
  facet normal 0 0 1
    outer loop
      vertex -2.18435 1.58702 1
      vertex -2.18435 -1.58702 1
      vertex -2.08039 -1.72104 1
    endloop
  endfacet
  facet normal -0 0 1
    outer loop
      vertex -2.27969 1.44673 1
      vertex -2.18435 -1.58702 1
      vertex -2.18435 1.58702 1
    endloop
  endfacet
  facet normal 0 0 1
    outer loop
      vertex -2.27969 1.44673 1
      vertex -2.27969 -1.44673 1
      vertex -2.18435 -1.58702 1
    endloop
  endfacet
  facet normal -0 0 1
    outer loop
      vertex -2.36603 1.30073 1
      vertex -2.27969 -1.44673 1
      vertex -2.27969 1.44673 1
    endloop
  endfacet
  facet normal 0 0 1
    outer loop
      vertex -2.36603 1.30073 1
      vertex -2.36603 -1.30073 1
      vertex -2.27969 -1.44673 1
    endloop
  endfacet
  facet normal -0 0 1
    outer loop
      vertex -2.44303 1.1496 1
      vertex -2.36603 -1.30073 1
      vertex -2.36603 1.30073 1
    endloop
  endfacet
  facet normal 0 0 1
    outer loop
      vertex -2.44303 1.1496 1
      vertex -2.44303 -1.1496 1
      vertex -2.36603 -1.30073 1
    endloop
  endfacet
  facet normal -0 0 1
    outer loop
      vertex -2.5104 0.993936 1
      vertex -2.44303 -1.1496 1
      vertex -2.44303 1.1496 1
    endloop
  endfacet
  facet normal 0 0 1
    outer loop
      vertex -2.5104 0.993936 1
      vertex -2.5104 -0.993936 1
      vertex -2.44303 -1.1496 1
    endloop
  endfacet
  facet normal -0 0 1
    outer loop
      vertex -2.56785 0.834346 1
      vertex -2.5104 -0.993936 1
      vertex -2.5104 0.993936 1
    endloop
  endfacet
  facet normal 0 0 1
    outer loop
      vertex -2.56785 0.834346 1
      vertex -2.56785 -0.834346 1
      vertex -2.5104 -0.993936 1
    endloop
  endfacet
  facet normal -0 0 1
    outer loop
      vertex -2.61517 0.671462 1
      vertex -2.56785 -0.834346 1
      vertex -2.56785 0.834346 1
    endloop
  endfacet
  facet normal 0 0 1
    outer loop
      vertex -2.61517 0.671462 1
      vertex -2.61517 -0.671462 1
      vertex -2.56785 -0.834346 1
    endloop
  endfacet
  facet normal -0 0 1
    outer loop
      vertex -2.65217 0.505929 1
      vertex -2.61517 -0.671462 1
      vertex -2.61517 0.671462 1
    endloop
  endfacet
  facet normal 0 0 1
    outer loop
      vertex -2.65217 0.505929 1
      vertex -2.65217 -0.505929 1
      vertex -2.61517 -0.671462 1
    endloop
  endfacet
  facet normal -0 0 1
    outer loop
      vertex -2.67871 0.338399 1
      vertex -2.65217 -0.505929 1
      vertex -2.65217 0.505929 1
    endloop
  endfacet
  facet normal 0 0 1
    outer loop
      vertex -2.67871 0.338399 1
      vertex -2.67871 -0.338399 1
      vertex -2.65217 -0.505929 1
    endloop
  endfacet
  facet normal -0 0 1
    outer loop
      vertex -2.69467 0.169534 1
      vertex -2.67871 -0.338399 1
      vertex -2.67871 0.338399 1
    endloop
  endfacet
  facet normal 0 0 1
    outer loop
      vertex -2.69467 0.169534 1
      vertex -2.69467 -0.169534 1
      vertex -2.67871 -0.338399 1
    endloop
  endfacet
  facet normal 0 -0 1
    outer loop
      vertex -2.69467 -0.169534 1
      vertex -2.69467 0.169534 1
      vertex -2.7 0 1
    endloop
  endfacet
  facet normal 1 -0 0
    outer loop
      vertex 12.5 -25 1
      vertex 12.5 25 -1
      vertex 12.5 25 1
    endloop
  endfacet
  facet normal 1 0 0
    outer loop
      vertex 12.5 25 -1
      vertex 12.5 -25 1
      vertex 12.5 -25 -1
    endloop
  endfacet
  facet normal 0 1 -0
    outer loop
      vertex 10 10 -1
      vertex -10 10 1
      vertex 10 10 1
    endloop
  endfacet
  facet normal 0 1 0
    outer loop
      vertex -10 10 1
      vertex 10 10 -1
      vertex -10 10 -1
    endloop
  endfacet
  facet normal 0 0 -1
    outer loop
      vertex -10 -10 -1
      vertex 10 10 -1
      vertex 10 -10 -1
    endloop
  endfacet
  facet normal -0 0 -1
    outer loop
      vertex 10 10 -1
      vertex -10 -10 -1
      vertex -10 10 -1
    endloop
  endfacet
  facet normal 0 0 -1
    outer loop
      vertex 10 -10 -1
      vertex 12.5 -25 -1
      vertex 10 -23.5 -1
    endloop
  endfacet
  facet normal 0 0 -1
    outer loop
      vertex 12.5 -25 -1
      vertex -10 -23.5 -1
      vertex 10 -23.5 -1
    endloop
  endfacet
  facet normal 0 0 -1
    outer loop
      vertex -12.5 -25 -1
      vertex -10 -10 -1
      vertex -10 -23.5 -1
    endloop
  endfacet
  facet normal -0 0 -1
    outer loop
      vertex -10 -10 -1
      vertex -12.5 -25 -1
      vertex -10 10 -1
    endloop
  endfacet
  facet normal 0 0 -1
    outer loop
      vertex -12.5 25 -1
      vertex -10 10 -1
      vertex -12.5 -25 -1
    endloop
  endfacet
  facet normal 0 0 -1
    outer loop
      vertex -12.5 -25 -1
      vertex -10 -23.5 -1
      vertex 12.5 -25 -1
    endloop
  endfacet
  facet normal 0 0 -1
    outer loop
      vertex 12.5 -25 -1
      vertex 10 -10 -1
      vertex 12.5 25 -1
    endloop
  endfacet
  facet normal 0 0 -1
    outer loop
      vertex 10 10 -1
      vertex 12.5 25 -1
      vertex 10 -10 -1
    endloop
  endfacet
  facet normal 0 0 -1
    outer loop
      vertex 10 23.5 -1
      vertex 12.5 25 -1
      vertex 10 10 -1
    endloop
  endfacet
  facet normal 0 0 -1
    outer loop
      vertex -10 23.5 -1
      vertex 12.5 25 -1
      vertex 10 23.5 -1
    endloop
  endfacet
  facet normal 0 0 -1
    outer loop
      vertex -10 23.5 -1
      vertex -12.5 25 -1
      vertex 12.5 25 -1
    endloop
  endfacet
  facet normal 0 0 -1
    outer loop
      vertex -10 10 -1
      vertex -12.5 25 -1
      vertex -10 23.5 -1
    endloop
  endfacet
  facet normal 0 -1 0
    outer loop
      vertex -10 -10 -1
      vertex 10 -10 1
      vertex -10 -10 1
    endloop
  endfacet
  facet normal 0 -1 -0
    outer loop
      vertex 10 -10 1
      vertex -10 -10 -1
      vertex 10 -10 -1
    endloop
  endfacet
  facet normal -0.661311 -0.750112 0
    outer loop
      vertex 1.72104 2.08039 1
      vertex 1.84828 1.96821 7
      vertex 1.72104 2.08039 7
    endloop
  endfacet
  facet normal -0.661311 -0.750112 -0
    outer loop
      vertex 1.84828 1.96821 7
      vertex 1.72104 2.08039 1
      vertex 1.84828 1.96821 1
    endloop
  endfacet
  facet normal 0.338739 -0.94088 0
    outer loop
      vertex -0.993936 2.5104 1
      vertex -0.834346 2.56785 7
      vertex -0.993936 2.5104 7
    endloop
  endfacet
  facet normal 0.338739 -0.94088 0
    outer loop
      vertex -0.834346 2.56785 7
      vertex -0.993936 2.5104 1
      vertex -0.834346 2.56785 1
    endloop
  endfacet
  facet normal 0.917754 -0.397148 0
    outer loop
      vertex -2.5104 0.993936 7
      vertex -2.44303 1.1496 1
      vertex -2.44303 1.1496 7
    endloop
  endfacet
  facet normal 0.917754 -0.397148 0
    outer loop
      vertex -2.44303 1.1496 1
      vertex -2.5104 0.993936 7
      vertex -2.5104 0.993936 1
    endloop
  endfacet
  facet normal -0.995562 0.0941091 0
    outer loop
      vertex 2.67871 -0.338399 1
      vertex 2.69467 -0.169534 7
      vertex 2.69467 -0.169534 1
    endloop
  endfacet
  facet normal -0.995562 0.0941091 0
    outer loop
      vertex 2.69467 -0.169534 7
      vertex 2.67871 -0.338399 1
      vertex 2.67871 -0.338399 7
    endloop
  endfacet
  facet normal 0.397148 0.917754 -0
    outer loop
      vertex -0.993936 -2.5104 1
      vertex -1.1496 -2.44303 7
      vertex -0.993936 -2.5104 7
    endloop
  endfacet
  facet normal 0.397148 0.917754 0
    outer loop
      vertex -1.1496 -2.44303 7
      vertex -0.993936 -2.5104 1
      vertex -1.1496 -2.44303 1
    endloop
  endfacet
  facet normal -0.891008 -0.453988 0
    outer loop
      vertex 2.44303 1.1496 1
      vertex 2.36603 1.30073 7
      vertex 2.36603 1.30073 1
    endloop
  endfacet
  facet normal -0.891008 -0.453988 0
    outer loop
      vertex 2.36603 1.30073 7
      vertex 2.44303 1.1496 1
      vertex 2.44303 1.1496 7
    endloop
  endfacet
  facet normal -0.397148 -0.917754 0
    outer loop
      vertex 0.993936 2.5104 1
      vertex 1.1496 2.44303 7
      vertex 0.993936 2.5104 7
    endloop
  endfacet
  facet normal -0.397148 -0.917754 -0
    outer loop
      vertex 1.1496 2.44303 7
      vertex 0.993936 2.5104 1
      vertex 1.1496 2.44303 1
    endloop
  endfacet
  facet normal -0.156434 -0.987688 0
    outer loop
      vertex 0.338399 2.67871 1
      vertex 0.505929 2.65217 7
      vertex 0.338399 2.67871 7
    endloop
  endfacet
  facet normal -0.156434 -0.987688 -0
    outer loop
      vertex 0.505929 2.65217 7
      vertex 0.338399 2.67871 1
      vertex 0.505929 2.65217 1
    endloop
  endfacet
  facet normal 0.987688 -0.156434 0
    outer loop
      vertex -2.67871 0.338399 7
      vertex -2.65217 0.505929 1
      vertex -2.65217 0.505929 7
    endloop
  endfacet
  facet normal 0.987688 -0.156434 0
    outer loop
      vertex -2.65217 0.505929 1
      vertex -2.67871 0.338399 7
      vertex -2.67871 0.338399 1
    endloop
  endfacet
  facet normal 0.707107 -0.707107 0
    outer loop
      vertex -1.96821 1.84828 7
      vertex -1.84828 1.96821 1
      vertex -1.84828 1.96821 7
    endloop
  endfacet
  facet normal 0.707107 -0.707107 0
    outer loop
      vertex -1.84828 1.96821 1
      vertex -1.96821 1.84828 7
      vertex -1.96821 1.84828 1
    endloop
  endfacet
  facet normal 0.156434 -0.987688 0
    outer loop
      vertex -0.505929 2.65217 1
      vertex -0.338399 2.67871 7
      vertex -0.505929 2.65217 7
    endloop
  endfacet
  facet normal 0.156434 -0.987688 0
    outer loop
      vertex -0.338399 2.67871 7
      vertex -0.505929 2.65217 1
      vertex -0.338399 2.67871 1
    endloop
  endfacet
  facet normal -0.94088 0.338739 0
    outer loop
      vertex 2.5104 -0.993936 1
      vertex 2.56785 -0.834346 7
      vertex 2.56785 -0.834346 1
    endloop
  endfacet
  facet normal -0.94088 0.338739 0
    outer loop
      vertex 2.56785 -0.834346 7
      vertex 2.5104 -0.993936 1
      vertex 2.5104 -0.993936 7
    endloop
  endfacet
  facet normal 0.156434 0.987688 -0
    outer loop
      vertex -0.338399 -2.67871 1
      vertex -0.505929 -2.65217 7
      vertex -0.338399 -2.67871 7
    endloop
  endfacet
  facet normal 0.156434 0.987688 0
    outer loop
      vertex -0.505929 -2.65217 7
      vertex -0.338399 -2.67871 1
      vertex -0.505929 -2.65217 1
    endloop
  endfacet
  facet normal 0.707107 0.707107 0
    outer loop
      vertex -1.84828 -1.96821 7
      vertex -1.96821 -1.84828 1
      vertex -1.96821 -1.84828 7
    endloop
  endfacet
  facet normal 0.707107 0.707107 0
    outer loop
      vertex -1.96821 -1.84828 1
      vertex -1.84828 -1.96821 7
      vertex -1.84828 -1.96821 1
    endloop
  endfacet
  facet normal 0.987688 0.156434 0
    outer loop
      vertex -2.65217 -0.505929 7
      vertex -2.67871 -0.338399 1
      vertex -2.67871 -0.338399 7
    endloop
  endfacet
  facet normal 0.987688 0.156434 0
    outer loop
      vertex -2.67871 -0.338399 1
      vertex -2.65217 -0.505929 7
      vertex -2.65217 -0.505929 1
    endloop
  endfacet
  facet normal -0.995562 -0.0941091 0
    outer loop
      vertex 2.69467 0.169534 1
      vertex 2.67871 0.338399 7
      vertex 2.67871 0.338399 1
    endloop
  endfacet
  facet normal -0.995562 -0.0941091 0
    outer loop
      vertex 2.67871 0.338399 7
      vertex 2.69467 0.169534 1
      vertex 2.69467 0.169534 7
    endloop
  endfacet
  facet normal -0.975917 -0.218141 0
    outer loop
      vertex 2.65217 0.505929 1
      vertex 2.61517 0.671462 7
      vertex 2.61517 0.671462 1
    endloop
  endfacet
  facet normal -0.975917 -0.218141 0
    outer loop
      vertex 2.61517 0.671462 7
      vertex 2.65217 0.505929 1
      vertex 2.65217 0.505929 7
    endloop
  endfacet
  facet normal -0.960293 -0.278992 0
    outer loop
      vertex 2.61517 0.671462 1
      vertex 2.56785 0.834346 7
      vertex 2.56785 0.834346 1
    endloop
  endfacet
  facet normal -0.960293 -0.278992 0
    outer loop
      vertex 2.56785 0.834346 7
      vertex 2.61517 0.671462 1
      vertex 2.61517 0.671462 7
    endloop
  endfacet
  facet normal -0.827081 -0.562083 0
    outer loop
      vertex 2.27969 1.44673 1
      vertex 2.18435 1.58702 7
      vertex 2.18435 1.58702 1
    endloop
  endfacet
  facet normal -0.827081 -0.562083 0
    outer loop
      vertex 2.18435 1.58702 7
      vertex 2.27969 1.44673 1
      vertex 2.27969 1.44673 7
    endloop
  endfacet
  facet normal -0.707107 -0.707107 0
    outer loop
      vertex 1.96821 1.84828 1
      vertex 1.84828 1.96821 7
      vertex 1.84828 1.96821 1
    endloop
  endfacet
  facet normal -0.707107 -0.707107 0
    outer loop
      vertex 1.84828 1.96821 7
      vertex 1.96821 1.84828 1
      vertex 1.96821 1.84828 7
    endloop
  endfacet
  facet normal -0.562083 -0.827081 0
    outer loop
      vertex 1.44673 2.27969 1
      vertex 1.58702 2.18435 7
      vertex 1.44673 2.27969 7
    endloop
  endfacet
  facet normal -0.562083 -0.827081 -0
    outer loop
      vertex 1.58702 2.18435 7
      vertex 1.44673 2.27969 1
      vertex 1.58702 2.18435 1
    endloop
  endfacet
  facet normal -0.509043 -0.860741 0
    outer loop
      vertex 1.30073 2.36603 1
      vertex 1.44673 2.27969 7
      vertex 1.30073 2.36603 7
    endloop
  endfacet
  facet normal -0.509043 -0.860741 -0
    outer loop
      vertex 1.44673 2.27969 7
      vertex 1.30073 2.36603 1
      vertex 1.44673 2.27969 1
    endloop
  endfacet
  facet normal -0.218141 -0.975917 0
    outer loop
      vertex 0.505929 2.65217 1
      vertex 0.671462 2.61517 7
      vertex 0.505929 2.65217 7
    endloop
  endfacet
  facet normal -0.218141 -0.975917 -0
    outer loop
      vertex 0.671462 2.61517 7
      vertex 0.505929 2.65217 1
      vertex 0.671462 2.61517 1
    endloop
  endfacet
  facet normal 0.975917 -0.218141 0
    outer loop
      vertex -2.65217 0.505929 7
      vertex -2.61517 0.671462 1
      vertex -2.61517 0.671462 7
    endloop
  endfacet
  facet normal 0.975917 -0.218141 0
    outer loop
      vertex -2.61517 0.671462 1
      vertex -2.65217 0.505929 7
      vertex -2.65217 0.505929 1
    endloop
  endfacet
  facet normal 0.860741 -0.509043 0
    outer loop
      vertex -2.36603 1.30073 7
      vertex -2.27969 1.44673 1
      vertex -2.27969 1.44673 7
    endloop
  endfacet
  facet normal 0.860741 -0.509043 0
    outer loop
      vertex -2.27969 1.44673 1
      vertex -2.36603 1.30073 7
      vertex -2.36603 1.30073 1
    endloop
  endfacet
  facet normal 0.827081 -0.562083 0
    outer loop
      vertex -2.27969 1.44673 7
      vertex -2.18435 1.58702 1
      vertex -2.18435 1.58702 7
    endloop
  endfacet
  facet normal 0.827081 -0.562083 0
    outer loop
      vertex -2.18435 1.58702 1
      vertex -2.27969 1.44673 7
      vertex -2.27969 1.44673 1
    endloop
  endfacet
  facet normal 0.218141 -0.975917 0
    outer loop
      vertex -0.671462 2.61517 1
      vertex -0.505929 2.65217 7
      vertex -0.671462 2.61517 7
    endloop
  endfacet
  facet normal 0.218141 -0.975917 0
    outer loop
      vertex -0.505929 2.65217 7
      vertex -0.671462 2.61517 1
      vertex -0.505929 2.65217 1
    endloop
  endfacet
  facet normal 0.0941091 -0.995562 0
    outer loop
      vertex -0.338399 2.67871 1
      vertex -0.169534 2.69467 7
      vertex -0.338399 2.67871 7
    endloop
  endfacet
  facet normal 0.0941091 -0.995562 0
    outer loop
      vertex -0.169534 2.69467 7
      vertex -0.338399 2.67871 1
      vertex -0.169534 2.69467 1
    endloop
  endfacet
  facet normal 0.509043 -0.860741 0
    outer loop
      vertex -1.44673 2.27969 1
      vertex -1.30073 2.36603 7
      vertex -1.44673 2.27969 7
    endloop
  endfacet
  facet normal 0.509043 -0.860741 0
    outer loop
      vertex -1.30073 2.36603 7
      vertex -1.44673 2.27969 1
      vertex -1.30073 2.36603 1
    endloop
  endfacet
  facet normal 0.562083 -0.827081 0
    outer loop
      vertex -1.58702 2.18435 1
      vertex -1.44673 2.27969 7
      vertex -1.58702 2.18435 7
    endloop
  endfacet
  facet normal 0.562083 -0.827081 0
    outer loop
      vertex -1.44673 2.27969 7
      vertex -1.58702 2.18435 1
      vertex -1.44673 2.27969 1
    endloop
  endfacet
  facet normal 0.453988 -0.891008 0
    outer loop
      vertex -1.30073 2.36603 1
      vertex -1.1496 2.44303 7
      vertex -1.30073 2.36603 7
    endloop
  endfacet
  facet normal 0.453988 -0.891008 0
    outer loop
      vertex -1.1496 2.44303 7
      vertex -1.30073 2.36603 1
      vertex -1.1496 2.44303 1
    endloop
  endfacet
  facet normal -0.999506 -0.0314129 0
    outer loop
      vertex 2.7 0 1
      vertex 2.69467 0.169534 7
      vertex 2.69467 0.169534 1
    endloop
  endfacet
  facet normal -0.999506 -0.0314129 0
    outer loop
      vertex 2.69467 0.169534 7
      vertex 2.7 0 1
      vertex 2.7 0 7
    endloop
  endfacet
  facet normal -0.960293 0.278992 0
    outer loop
      vertex 2.56785 -0.834346 1
      vertex 2.61517 -0.671462 7
      vertex 2.61517 -0.671462 1
    endloop
  endfacet
  facet normal -0.960293 0.278992 0
    outer loop
      vertex 2.61517 -0.671462 7
      vertex 2.56785 -0.834346 1
      vertex 2.56785 -0.834346 7
    endloop
  endfacet
  facet normal -0.750112 0.661311 0
    outer loop
      vertex 1.96821 -1.84828 1
      vertex 2.08039 -1.72104 7
      vertex 2.08039 -1.72104 1
    endloop
  endfacet
  facet normal -0.750112 0.661311 0
    outer loop
      vertex 2.08039 -1.72104 7
      vertex 1.96821 -1.84828 1
      vertex 1.96821 -1.84828 7
    endloop
  endfacet
  facet normal -0.156434 0.987688 0
    outer loop
      vertex 0.505929 -2.65217 1
      vertex 0.338399 -2.67871 7
      vertex 0.505929 -2.65217 7
    endloop
  endfacet
  facet normal -0.156434 0.987688 0
    outer loop
      vertex 0.338399 -2.67871 7
      vertex 0.505929 -2.65217 1
      vertex 0.338399 -2.67871 1
    endloop
  endfacet
  facet normal -0.218141 0.975917 0
    outer loop
      vertex 0.671462 -2.61517 1
      vertex 0.505929 -2.65217 7
      vertex 0.671462 -2.61517 7
    endloop
  endfacet
  facet normal -0.218141 0.975917 0
    outer loop
      vertex 0.505929 -2.65217 7
      vertex 0.671462 -2.61517 1
      vertex 0.505929 -2.65217 1
    endloop
  endfacet
  facet normal 0.0941091 0.995562 -0
    outer loop
      vertex -0.169534 -2.69467 1
      vertex -0.338399 -2.67871 7
      vertex -0.169534 -2.69467 7
    endloop
  endfacet
  facet normal 0.0941091 0.995562 0
    outer loop
      vertex -0.338399 -2.67871 7
      vertex -0.169534 -2.69467 1
      vertex -0.338399 -2.67871 1
    endloop
  endfacet
  facet normal 0.509043 0.860741 -0
    outer loop
      vertex -1.30073 -2.36603 1
      vertex -1.44673 -2.27969 7
      vertex -1.30073 -2.36603 7
    endloop
  endfacet
  facet normal 0.509043 0.860741 0
    outer loop
      vertex -1.44673 -2.27969 7
      vertex -1.30073 -2.36603 1
      vertex -1.44673 -2.27969 1
    endloop
  endfacet
  facet normal 0.562083 0.827081 -0
    outer loop
      vertex -1.44673 -2.27969 1
      vertex -1.58702 -2.18435 7
      vertex -1.44673 -2.27969 7
    endloop
  endfacet
  facet normal 0.562083 0.827081 0
    outer loop
      vertex -1.58702 -2.18435 7
      vertex -1.44673 -2.27969 1
      vertex -1.58702 -2.18435 1
    endloop
  endfacet
  facet normal 0.975917 0.218141 0
    outer loop
      vertex -2.61517 -0.671462 7
      vertex -2.65217 -0.505929 1
      vertex -2.65217 -0.505929 7
    endloop
  endfacet
  facet normal 0.975917 0.218141 0
    outer loop
      vertex -2.65217 -0.505929 1
      vertex -2.61517 -0.671462 7
      vertex -2.61517 -0.671462 1
    endloop
  endfacet
  facet normal 0.995562 0.0941091 0
    outer loop
      vertex -2.67871 -0.338399 7
      vertex -2.69467 -0.169534 1
      vertex -2.69467 -0.169534 7
    endloop
  endfacet
  facet normal 0.995562 0.0941091 0
    outer loop
      vertex -2.69467 -0.169534 1
      vertex -2.67871 -0.338399 7
      vertex -2.67871 -0.338399 1
    endloop
  endfacet
  facet normal 0.827081 0.562083 0
    outer loop
      vertex -2.18435 -1.58702 7
      vertex -2.27969 -1.44673 1
      vertex -2.27969 -1.44673 7
    endloop
  endfacet
  facet normal 0.827081 0.562083 0
    outer loop
      vertex -2.27969 -1.44673 1
      vertex -2.18435 -1.58702 7
      vertex -2.18435 -1.58702 1
    endloop
  endfacet
  facet normal -0.987688 -0.156434 0
    outer loop
      vertex 2.67871 0.338399 1
      vertex 2.65217 0.505929 7
      vertex 2.65217 0.505929 1
    endloop
  endfacet
  facet normal -0.987688 -0.156434 0
    outer loop
      vertex 2.65217 0.505929 7
      vertex 2.67871 0.338399 1
      vertex 2.67871 0.338399 7
    endloop
  endfacet
  facet normal -0.917754 -0.397148 0
    outer loop
      vertex 2.5104 0.993936 1
      vertex 2.44303 1.1496 7
      vertex 2.44303 1.1496 1
    endloop
  endfacet
  facet normal -0.917754 -0.397148 0
    outer loop
      vertex 2.44303 1.1496 7
      vertex 2.5104 0.993936 1
      vertex 2.5104 0.993936 7
    endloop
  endfacet
  facet normal -0.94088 -0.338739 0
    outer loop
      vertex 2.56785 0.834346 1
      vertex 2.5104 0.993936 7
      vertex 2.5104 0.993936 1
    endloop
  endfacet
  facet normal -0.94088 -0.338739 0
    outer loop
      vertex 2.5104 0.993936 7
      vertex 2.56785 0.834346 1
      vertex 2.56785 0.834346 7
    endloop
  endfacet
  facet normal -0.860741 -0.509043 0
    outer loop
      vertex 2.36603 1.30073 1
      vertex 2.27969 1.44673 7
      vertex 2.27969 1.44673 1
    endloop
  endfacet
  facet normal -0.860741 -0.509043 0
    outer loop
      vertex 2.27969 1.44673 7
      vertex 2.36603 1.30073 1
      vertex 2.36603 1.30073 7
    endloop
  endfacet
  facet normal -0.750112 -0.661311 0
    outer loop
      vertex 2.08039 1.72104 1
      vertex 1.96821 1.84828 7
      vertex 1.96821 1.84828 1
    endloop
  endfacet
  facet normal -0.750112 -0.661311 0
    outer loop
      vertex 1.96821 1.84828 7
      vertex 2.08039 1.72104 1
      vertex 2.08039 1.72104 7
    endloop
  endfacet
  facet normal -0.790155 -0.612907 0
    outer loop
      vertex 2.18435 1.58702 1
      vertex 2.08039 1.72104 7
      vertex 2.08039 1.72104 1
    endloop
  endfacet
  facet normal -0.790155 -0.612907 0
    outer loop
      vertex 2.08039 1.72104 7
      vertex 2.18435 1.58702 1
      vertex 2.18435 1.58702 7
    endloop
  endfacet
  facet normal -0.612907 -0.790155 0
    outer loop
      vertex 1.58702 2.18435 1
      vertex 1.72104 2.08039 7
      vertex 1.58702 2.18435 7
    endloop
  endfacet
  facet normal -0.612907 -0.790155 -0
    outer loop
      vertex 1.72104 2.08039 7
      vertex 1.58702 2.18435 1
      vertex 1.72104 2.08039 1
    endloop
  endfacet
  facet normal -0.0314129 -0.999506 0
    outer loop
      vertex 0 2.7 1
      vertex 0.169534 2.69467 7
      vertex 0 2.7 7
    endloop
  endfacet
  facet normal -0.0314129 -0.999506 -0
    outer loop
      vertex 0.169534 2.69467 7
      vertex 0 2.7 1
      vertex 0.169534 2.69467 1
    endloop
  endfacet
  facet normal -0.453988 -0.891008 0
    outer loop
      vertex 1.1496 2.44303 1
      vertex 1.30073 2.36603 7
      vertex 1.1496 2.44303 7
    endloop
  endfacet
  facet normal -0.453988 -0.891008 -0
    outer loop
      vertex 1.30073 2.36603 7
      vertex 1.1496 2.44303 1
      vertex 1.30073 2.36603 1
    endloop
  endfacet
  facet normal -0.278992 -0.960293 0
    outer loop
      vertex 0.671462 2.61517 1
      vertex 0.834346 2.56785 7
      vertex 0.671462 2.61517 7
    endloop
  endfacet
  facet normal -0.278992 -0.960293 -0
    outer loop
      vertex 0.834346 2.56785 7
      vertex 0.671462 2.61517 1
      vertex 0.834346 2.56785 1
    endloop
  endfacet
  facet normal -0.338739 -0.94088 0
    outer loop
      vertex 0.834346 2.56785 1
      vertex 0.993936 2.5104 7
      vertex 0.834346 2.56785 7
    endloop
  endfacet
  facet normal -0.338739 -0.94088 -0
    outer loop
      vertex 0.993936 2.5104 7
      vertex 0.834346 2.56785 1
      vertex 0.993936 2.5104 1
    endloop
  endfacet
  facet normal 0.999506 -0.0314129 0
    outer loop
      vertex -2.7 0 7
      vertex -2.69467 0.169534 1
      vertex -2.69467 0.169534 7
    endloop
  endfacet
  facet normal 0.999506 -0.0314129 0
    outer loop
      vertex -2.69467 0.169534 1
      vertex -2.7 0 7
      vertex -2.7 0 1
    endloop
  endfacet
  facet normal 0.960293 -0.278992 0
    outer loop
      vertex -2.61517 0.671462 7
      vertex -2.56785 0.834346 1
      vertex -2.56785 0.834346 7
    endloop
  endfacet
  facet normal 0.960293 -0.278992 0
    outer loop
      vertex -2.56785 0.834346 1
      vertex -2.61517 0.671462 7
      vertex -2.61517 0.671462 1
    endloop
  endfacet
  facet normal 0.94088 -0.338739 0
    outer loop
      vertex -2.56785 0.834346 7
      vertex -2.5104 0.993936 1
      vertex -2.5104 0.993936 7
    endloop
  endfacet
  facet normal 0.94088 -0.338739 0
    outer loop
      vertex -2.5104 0.993936 1
      vertex -2.56785 0.834346 7
      vertex -2.56785 0.834346 1
    endloop
  endfacet
  facet normal 0.891008 -0.453988 0
    outer loop
      vertex -2.44303 1.1496 7
      vertex -2.36603 1.30073 1
      vertex -2.36603 1.30073 7
    endloop
  endfacet
  facet normal 0.891008 -0.453988 0
    outer loop
      vertex -2.36603 1.30073 1
      vertex -2.44303 1.1496 7
      vertex -2.44303 1.1496 1
    endloop
  endfacet
  facet normal 0.750112 -0.661311 0
    outer loop
      vertex -2.08039 1.72104 7
      vertex -1.96821 1.84828 1
      vertex -1.96821 1.84828 7
    endloop
  endfacet
  facet normal 0.750112 -0.661311 0
    outer loop
      vertex -1.96821 1.84828 1
      vertex -2.08039 1.72104 7
      vertex -2.08039 1.72104 1
    endloop
  endfacet
  facet normal 0.790155 -0.612907 0
    outer loop
      vertex -2.18435 1.58702 7
      vertex -2.08039 1.72104 1
      vertex -2.08039 1.72104 7
    endloop
  endfacet
  facet normal 0.790155 -0.612907 0
    outer loop
      vertex -2.08039 1.72104 1
      vertex -2.18435 1.58702 7
      vertex -2.18435 1.58702 1
    endloop
  endfacet
  facet normal 0.278992 -0.960293 0
    outer loop
      vertex -0.834346 2.56785 1
      vertex -0.671462 2.61517 7
      vertex -0.834346 2.56785 7
    endloop
  endfacet
  facet normal 0.278992 -0.960293 0
    outer loop
      vertex -0.671462 2.61517 7
      vertex -0.834346 2.56785 1
      vertex -0.671462 2.61517 1
    endloop
  endfacet
  facet normal 0.0314129 -0.999506 0
    outer loop
      vertex -0.169534 2.69467 1
      vertex 0 2.7 7
      vertex -0.169534 2.69467 7
    endloop
  endfacet
  facet normal 0.0314129 -0.999506 0
    outer loop
      vertex 0 2.7 7
      vertex -0.169534 2.69467 1
      vertex 0 2.7 1
    endloop
  endfacet
  facet normal 0.397148 -0.917754 0
    outer loop
      vertex -1.1496 2.44303 1
      vertex -0.993936 2.5104 7
      vertex -1.1496 2.44303 7
    endloop
  endfacet
  facet normal 0.397148 -0.917754 0
    outer loop
      vertex -0.993936 2.5104 7
      vertex -1.1496 2.44303 1
      vertex -0.993936 2.5104 1
    endloop
  endfacet
  facet normal 0.612907 -0.790155 0
    outer loop
      vertex -1.72104 2.08039 1
      vertex -1.58702 2.18435 7
      vertex -1.72104 2.08039 7
    endloop
  endfacet
  facet normal 0.612907 -0.790155 0
    outer loop
      vertex -1.58702 2.18435 7
      vertex -1.72104 2.08039 1
      vertex -1.58702 2.18435 1
    endloop
  endfacet
  facet normal 0.661311 -0.750112 0
    outer loop
      vertex -1.84828 1.96821 1
      vertex -1.72104 2.08039 7
      vertex -1.84828 1.96821 7
    endloop
  endfacet
  facet normal 0.661311 -0.750112 0
    outer loop
      vertex -1.72104 2.08039 7
      vertex -1.84828 1.96821 1
      vertex -1.72104 2.08039 1
    endloop
  endfacet
  facet normal -0.999506 0.0314129 0
    outer loop
      vertex 2.69467 -0.169534 1
      vertex 2.7 0 7
      vertex 2.7 0 1
    endloop
  endfacet
  facet normal -0.999506 0.0314129 0
    outer loop
      vertex 2.7 0 7
      vertex 2.69467 -0.169534 1
      vertex 2.69467 -0.169534 7
    endloop
  endfacet
  facet normal -0.0314129 0.999506 0
    outer loop
      vertex 0.169534 -2.69467 1
      vertex 0 -2.7 7
      vertex 0.169534 -2.69467 7
    endloop
  endfacet
  facet normal -0.0314129 0.999506 0
    outer loop
      vertex 0 -2.7 7
      vertex 0.169534 -2.69467 1
      vertex 0 -2.7 1
    endloop
  endfacet
  facet normal -0.827081 0.562083 0
    outer loop
      vertex 2.18435 -1.58702 1
      vertex 2.27969 -1.44673 7
      vertex 2.27969 -1.44673 1
    endloop
  endfacet
  facet normal -0.827081 0.562083 0
    outer loop
      vertex 2.27969 -1.44673 7
      vertex 2.18435 -1.58702 1
      vertex 2.18435 -1.58702 7
    endloop
  endfacet
  facet normal -0.0941091 0.995562 0
    outer loop
      vertex 0.338399 -2.67871 1
      vertex 0.169534 -2.69467 7
      vertex 0.338399 -2.67871 7
    endloop
  endfacet
  facet normal -0.0941091 0.995562 0
    outer loop
      vertex 0.169534 -2.69467 7
      vertex 0.338399 -2.67871 1
      vertex 0.169534 -2.69467 1
    endloop
  endfacet
  facet normal -0.278992 0.960293 0
    outer loop
      vertex 0.834346 -2.56785 1
      vertex 0.671462 -2.61517 7
      vertex 0.834346 -2.56785 7
    endloop
  endfacet
  facet normal -0.278992 0.960293 0
    outer loop
      vertex 0.671462 -2.61517 7
      vertex 0.834346 -2.56785 1
      vertex 0.671462 -2.61517 1
    endloop
  endfacet
  facet normal -0.562083 0.827081 0
    outer loop
      vertex 1.58702 -2.18435 1
      vertex 1.44673 -2.27969 7
      vertex 1.58702 -2.18435 7
    endloop
  endfacet
  facet normal -0.562083 0.827081 0
    outer loop
      vertex 1.44673 -2.27969 7
      vertex 1.58702 -2.18435 1
      vertex 1.44673 -2.27969 1
    endloop
  endfacet
  facet normal -0.661311 0.750112 0
    outer loop
      vertex 1.84828 -1.96821 1
      vertex 1.72104 -2.08039 7
      vertex 1.84828 -1.96821 7
    endloop
  endfacet
  facet normal -0.661311 0.750112 0
    outer loop
      vertex 1.72104 -2.08039 7
      vertex 1.84828 -1.96821 1
      vertex 1.72104 -2.08039 1
    endloop
  endfacet
  facet normal -0.509043 0.860741 0
    outer loop
      vertex 1.44673 -2.27969 1
      vertex 1.30073 -2.36603 7
      vertex 1.44673 -2.27969 7
    endloop
  endfacet
  facet normal -0.509043 0.860741 0
    outer loop
      vertex 1.30073 -2.36603 7
      vertex 1.44673 -2.27969 1
      vertex 1.30073 -2.36603 1
    endloop
  endfacet
  facet normal -0.397148 0.917754 0
    outer loop
      vertex 1.1496 -2.44303 1
      vertex 0.993936 -2.5104 7
      vertex 1.1496 -2.44303 7
    endloop
  endfacet
  facet normal -0.397148 0.917754 0
    outer loop
      vertex 0.993936 -2.5104 7
      vertex 1.1496 -2.44303 1
      vertex 0.993936 -2.5104 1
    endloop
  endfacet
  facet normal 0.0314129 0.999506 -0
    outer loop
      vertex 0 -2.7 1
      vertex -0.169534 -2.69467 7
      vertex 0 -2.7 7
    endloop
  endfacet
  facet normal 0.0314129 0.999506 0
    outer loop
      vertex -0.169534 -2.69467 7
      vertex 0 -2.7 1
      vertex -0.169534 -2.69467 1
    endloop
  endfacet
  facet normal 0.338739 0.94088 -0
    outer loop
      vertex -0.834346 -2.56785 1
      vertex -0.993936 -2.5104 7
      vertex -0.834346 -2.56785 7
    endloop
  endfacet
  facet normal 0.338739 0.94088 0
    outer loop
      vertex -0.993936 -2.5104 7
      vertex -0.834346 -2.56785 1
      vertex -0.993936 -2.5104 1
    endloop
  endfacet
  facet normal 0.218141 0.975917 -0
    outer loop
      vertex -0.505929 -2.65217 1
      vertex -0.671462 -2.61517 7
      vertex -0.505929 -2.65217 7
    endloop
  endfacet
  facet normal 0.218141 0.975917 0
    outer loop
      vertex -0.671462 -2.61517 7
      vertex -0.505929 -2.65217 1
      vertex -0.671462 -2.61517 1
    endloop
  endfacet
  facet normal 0.453988 0.891008 -0
    outer loop
      vertex -1.1496 -2.44303 1
      vertex -1.30073 -2.36603 7
      vertex -1.1496 -2.44303 7
    endloop
  endfacet
  facet normal 0.453988 0.891008 0
    outer loop
      vertex -1.30073 -2.36603 7
      vertex -1.1496 -2.44303 1
      vertex -1.30073 -2.36603 1
    endloop
  endfacet
  facet normal 0.612907 0.790155 -0
    outer loop
      vertex -1.58702 -2.18435 1
      vertex -1.72104 -2.08039 7
      vertex -1.58702 -2.18435 7
    endloop
  endfacet
  facet normal 0.612907 0.790155 0
    outer loop
      vertex -1.72104 -2.08039 7
      vertex -1.58702 -2.18435 1
      vertex -1.72104 -2.08039 1
    endloop
  endfacet
  facet normal 0.960293 0.278992 0
    outer loop
      vertex -2.56785 -0.834346 7
      vertex -2.61517 -0.671462 1
      vertex -2.61517 -0.671462 7
    endloop
  endfacet
  facet normal 0.960293 0.278992 0
    outer loop
      vertex -2.61517 -0.671462 1
      vertex -2.56785 -0.834346 7
      vertex -2.56785 -0.834346 1
    endloop
  endfacet
  facet normal 0.999506 0.0314129 0
    outer loop
      vertex -2.69467 -0.169534 7
      vertex -2.7 0 1
      vertex -2.7 0 7
    endloop
  endfacet
  facet normal 0.999506 0.0314129 0
    outer loop
      vertex -2.7 0 1
      vertex -2.69467 -0.169534 7
      vertex -2.69467 -0.169534 1
    endloop
  endfacet
  facet normal 0.860741 0.509043 0
    outer loop
      vertex -2.27969 -1.44673 7
      vertex -2.36603 -1.30073 1
      vertex -2.36603 -1.30073 7
    endloop
  endfacet
  facet normal 0.860741 0.509043 0
    outer loop
      vertex -2.36603 -1.30073 1
      vertex -2.27969 -1.44673 7
      vertex -2.27969 -1.44673 1
    endloop
  endfacet
  facet normal 0.917754 0.397148 0
    outer loop
      vertex -2.44303 -1.1496 7
      vertex -2.5104 -0.993936 1
      vertex -2.5104 -0.993936 7
    endloop
  endfacet
  facet normal 0.917754 0.397148 0
    outer loop
      vertex -2.5104 -0.993936 1
      vertex -2.44303 -1.1496 7
      vertex -2.44303 -1.1496 1
    endloop
  endfacet
  facet normal 0.790155 0.612907 0
    outer loop
      vertex -2.08039 -1.72104 7
      vertex -2.18435 -1.58702 1
      vertex -2.18435 -1.58702 7
    endloop
  endfacet
  facet normal 0.790155 0.612907 0
    outer loop
      vertex -2.18435 -1.58702 1
      vertex -2.08039 -1.72104 7
      vertex -2.08039 -1.72104 1
    endloop
  endfacet
  facet normal -0.0941091 -0.995562 0
    outer loop
      vertex 0.169534 2.69467 1
      vertex 0.338399 2.67871 7
      vertex 0.169534 2.69467 7
    endloop
  endfacet
  facet normal -0.0941091 -0.995562 -0
    outer loop
      vertex 0.338399 2.67871 7
      vertex 0.169534 2.69467 1
      vertex 0.338399 2.67871 1
    endloop
  endfacet
  facet normal 0.995562 -0.0941091 0
    outer loop
      vertex -2.69467 0.169534 7
      vertex -2.67871 0.338399 1
      vertex -2.67871 0.338399 7
    endloop
  endfacet
  facet normal 0.995562 -0.0941091 0
    outer loop
      vertex -2.67871 0.338399 1
      vertex -2.69467 0.169534 7
      vertex -2.69467 0.169534 1
    endloop
  endfacet
  facet normal -0.975917 0.218141 0
    outer loop
      vertex 2.61517 -0.671462 1
      vertex 2.65217 -0.505929 7
      vertex 2.65217 -0.505929 1
    endloop
  endfacet
  facet normal -0.975917 0.218141 0
    outer loop
      vertex 2.65217 -0.505929 7
      vertex 2.61517 -0.671462 1
      vertex 2.61517 -0.671462 7
    endloop
  endfacet
  facet normal -0.891008 0.453988 0
    outer loop
      vertex 2.36603 -1.30073 1
      vertex 2.44303 -1.1496 7
      vertex 2.44303 -1.1496 1
    endloop
  endfacet
  facet normal -0.891008 0.453988 0
    outer loop
      vertex 2.44303 -1.1496 7
      vertex 2.36603 -1.30073 1
      vertex 2.36603 -1.30073 7
    endloop
  endfacet
  facet normal -0.338739 0.94088 0
    outer loop
      vertex 0.993936 -2.5104 1
      vertex 0.834346 -2.56785 7
      vertex 0.993936 -2.5104 7
    endloop
  endfacet
  facet normal -0.338739 0.94088 0
    outer loop
      vertex 0.834346 -2.56785 7
      vertex 0.993936 -2.5104 1
      vertex 0.834346 -2.56785 1
    endloop
  endfacet
  facet normal -0.612907 0.790155 0
    outer loop
      vertex 1.72104 -2.08039 1
      vertex 1.58702 -2.18435 7
      vertex 1.72104 -2.08039 7
    endloop
  endfacet
  facet normal -0.612907 0.790155 0
    outer loop
      vertex 1.58702 -2.18435 7
      vertex 1.72104 -2.08039 1
      vertex 1.58702 -2.18435 1
    endloop
  endfacet
  facet normal -0.707107 0.707107 0
    outer loop
      vertex 1.84828 -1.96821 1
      vertex 1.96821 -1.84828 7
      vertex 1.96821 -1.84828 1
    endloop
  endfacet
  facet normal -0.707107 0.707107 0
    outer loop
      vertex 1.96821 -1.84828 7
      vertex 1.84828 -1.96821 1
      vertex 1.84828 -1.96821 7
    endloop
  endfacet
  facet normal -0.453988 0.891008 0
    outer loop
      vertex 1.30073 -2.36603 1
      vertex 1.1496 -2.44303 7
      vertex 1.30073 -2.36603 7
    endloop
  endfacet
  facet normal -0.453988 0.891008 0
    outer loop
      vertex 1.1496 -2.44303 7
      vertex 1.30073 -2.36603 1
      vertex 1.1496 -2.44303 1
    endloop
  endfacet
  facet normal 0.278992 0.960293 -0
    outer loop
      vertex -0.671462 -2.61517 1
      vertex -0.834346 -2.56785 7
      vertex -0.671462 -2.61517 7
    endloop
  endfacet
  facet normal 0.278992 0.960293 0
    outer loop
      vertex -0.834346 -2.56785 7
      vertex -0.671462 -2.61517 1
      vertex -0.834346 -2.56785 1
    endloop
  endfacet
  facet normal 0.661311 0.750112 -0
    outer loop
      vertex -1.72104 -2.08039 1
      vertex -1.84828 -1.96821 7
      vertex -1.72104 -2.08039 7
    endloop
  endfacet
  facet normal 0.661311 0.750112 0
    outer loop
      vertex -1.84828 -1.96821 7
      vertex -1.72104 -2.08039 1
      vertex -1.84828 -1.96821 1
    endloop
  endfacet
  facet normal 0.94088 0.338739 0
    outer loop
      vertex -2.5104 -0.993936 7
      vertex -2.56785 -0.834346 1
      vertex -2.56785 -0.834346 7
    endloop
  endfacet
  facet normal 0.94088 0.338739 0
    outer loop
      vertex -2.56785 -0.834346 1
      vertex -2.5104 -0.993936 7
      vertex -2.5104 -0.993936 1
    endloop
  endfacet
  facet normal 0.891008 0.453988 0
    outer loop
      vertex -2.36603 -1.30073 7
      vertex -2.44303 -1.1496 1
      vertex -2.44303 -1.1496 7
    endloop
  endfacet
  facet normal 0.891008 0.453988 0
    outer loop
      vertex -2.44303 -1.1496 1
      vertex -2.36603 -1.30073 7
      vertex -2.36603 -1.30073 1
    endloop
  endfacet
  facet normal 0.750112 0.661311 0
    outer loop
      vertex -1.96821 -1.84828 7
      vertex -2.08039 -1.72104 1
      vertex -2.08039 -1.72104 7
    endloop
  endfacet
  facet normal 0.750112 0.661311 0
    outer loop
      vertex -2.08039 -1.72104 1
      vertex -1.96821 -1.84828 7
      vertex -1.96821 -1.84828 1
    endloop
  endfacet
  facet normal -0.987688 0.156434 0
    outer loop
      vertex 2.65217 -0.505929 1
      vertex 2.67871 -0.338399 7
      vertex 2.67871 -0.338399 1
    endloop
  endfacet
  facet normal -0.987688 0.156434 0
    outer loop
      vertex 2.67871 -0.338399 7
      vertex 2.65217 -0.505929 1
      vertex 2.65217 -0.505929 7
    endloop
  endfacet
  facet normal -0.917754 0.397148 0
    outer loop
      vertex 2.44303 -1.1496 1
      vertex 2.5104 -0.993936 7
      vertex 2.5104 -0.993936 1
    endloop
  endfacet
  facet normal -0.917754 0.397148 0
    outer loop
      vertex 2.5104 -0.993936 7
      vertex 2.44303 -1.1496 1
      vertex 2.44303 -1.1496 7
    endloop
  endfacet
  facet normal -0.790155 0.612907 0
    outer loop
      vertex 2.08039 -1.72104 1
      vertex 2.18435 -1.58702 7
      vertex 2.18435 -1.58702 1
    endloop
  endfacet
  facet normal -0.790155 0.612907 0
    outer loop
      vertex 2.18435 -1.58702 7
      vertex 2.08039 -1.72104 1
      vertex 2.08039 -1.72104 7
    endloop
  endfacet
  facet normal -0.860741 0.509043 0
    outer loop
      vertex 2.27969 -1.44673 1
      vertex 2.36603 -1.30073 7
      vertex 2.36603 -1.30073 1
    endloop
  endfacet
  facet normal -0.860741 0.509043 0
    outer loop
      vertex 2.36603 -1.30073 7
      vertex 2.27969 -1.44673 1
      vertex 2.27969 -1.44673 7
    endloop
  endfacet
  facet normal 1 -0 0
    outer loop
      vertex -10 10 1
      vertex -10 23.5 -1
      vertex -10 23.5 1
    endloop
  endfacet
  facet normal 1 0 0
    outer loop
      vertex -10 23.5 -1
      vertex -10 10 1
      vertex -10 10 -1
    endloop
  endfacet
  facet normal -1 0 0
    outer loop
      vertex 10 10 -1
      vertex 10 23.5 1
      vertex 10 23.5 -1
    endloop
  endfacet
  facet normal -1 -0 0
    outer loop
      vertex 10 23.5 1
      vertex 10 10 -1
      vertex 10 10 1
    endloop
  endfacet
  facet normal 0 -1 0
    outer loop
      vertex -10 23.5 -1
      vertex 10 23.5 1
      vertex -10 23.5 1
    endloop
  endfacet
  facet normal 0 -1 -0
    outer loop
      vertex 10 23.5 1
      vertex -10 23.5 -1
      vertex 10 23.5 -1
    endloop
  endfacet
  facet normal 1 -0 0
    outer loop
      vertex -10 -23.5 1
      vertex -10 -10 -1
      vertex -10 -10 1
    endloop
  endfacet
  facet normal 1 0 0
    outer loop
      vertex -10 -10 -1
      vertex -10 -23.5 1
      vertex -10 -23.5 -1
    endloop
  endfacet
  facet normal -1 0 0
    outer loop
      vertex 10 -23.5 -1
      vertex 10 -10 1
      vertex 10 -10 -1
    endloop
  endfacet
  facet normal -1 -0 0
    outer loop
      vertex 10 -10 1
      vertex 10 -23.5 -1
      vertex 10 -23.5 1
    endloop
  endfacet
  facet normal 0 1 -0
    outer loop
      vertex 10 -23.5 -1
      vertex -10 -23.5 1
      vertex 10 -23.5 1
    endloop
  endfacet
  facet normal 0 1 0
    outer loop
      vertex -10 -23.5 1
      vertex 10 -23.5 -1
      vertex -10 -23.5 -1
    endloop
  endfacet
  facet normal 0 -1 0
    outer loop
      vertex -12.5 -25 -1
      vertex 12.5 -25 1
      vertex -12.5 -25 1
    endloop
  endfacet
  facet normal 0 -1 -0
    outer loop
      vertex 12.5 -25 1
      vertex -12.5 -25 -1
      vertex 12.5 -25 -1
    endloop
  endfacet
  facet normal 0 1 -0
    outer loop
      vertex 12.5 25 -1
      vertex -12.5 25 1
      vertex 12.5 25 1
    endloop
  endfacet
  facet normal 0 1 0
    outer loop
      vertex -12.5 25 1
      vertex 12.5 25 -1
      vertex -12.5 25 -1
    endloop
  endfacet
endsolid OpenSCAD_Model
