solid OpenSCAD_Model
  facet normal -1 0 0
    outer loop
      vertex 0 9.5 0
      vertex 0 5 10
      vertex 0 9.5 10
    endloop
  endfacet
  facet normal -1 0 0
    outer loop
      vertex 0 5 10
      vertex 0 1 10
      vertex 0 5 20
    endloop
  endfacet
  facet normal -1 0 0
    outer loop
      vertex 0 -3 0
      vertex 0 5 10
      vertex 0 9.5 0
    endloop
  endfacet
  facet normal -1 -0 0
    outer loop
      vertex 0 5 10
      vertex 0 -3 0
      vertex 0 1 10
    endloop
  endfacet
  facet normal -1 -0 0
    outer loop
      vertex 0 1 10
      vertex 0 -3 0
      vertex 0 -3 10
    endloop
  endfacet
  facet normal -1 -0 0
    outer loop
      vertex 0 5 20
      vertex 0 1 10
      vertex 0 1 20
    endloop
  endfacet
  facet normal -0 0 1
    outer loop
      vertex 0 1 10
      vertex 1.5 -3 10
      vertex 1.5 1 10
    endloop
  endfacet
  facet normal 0 0 1
    outer loop
      vertex 1.5 -3 10
      vertex 0 1 10
      vertex 0 -3 10
    endloop
  endfacet
  facet normal 0 0 1
    outer loop
      vertex 8 9.5 10
      vertex 1.5 8 10
      vertex 8 8 10
    endloop
  endfacet
  facet normal -0 0 1
    outer loop
      vertex 0 9.5 10
      vertex 1.5 8 10
      vertex 8 9.5 10
    endloop
  endfacet
  facet normal 0 0 1
    outer loop
      vertex 0 5 10
      vertex 1.5 8 10
      vertex 0 9.5 10
    endloop
  endfacet
  facet normal 0 0 1
    outer loop
      vertex 1.5 8 10
      vertex 0 5 10
      vertex 1.5 5 10
    endloop
  endfacet
  facet normal 1 0 0
    outer loop
      vertex 1.5 1 10
      vertex 1.5 5 10
      vertex 1.5 5 20
    endloop
  endfacet
  facet normal 1 0 0
    outer loop
      vertex 1.5 5 10
      vertex 1.5 1 10
      vertex 1.5 5 6.01796
    endloop
  endfacet
  facet normal 1 0 0
    outer loop
      vertex 1.5 5 6.01796
      vertex 1.5 1 10
      vertex 1.5 5 5.95344
    endloop
  endfacet
  facet normal 1 0 0
    outer loop
      vertex 1.5 5 5.95344
      vertex 1.5 1 10
      vertex 1.5 5 5.60079
    endloop
  endfacet
  facet normal 1 0 0
    outer loop
      vertex 1.5 5 5.60079
      vertex 1.5 1 10
      vertex 1.5 5 5.31699
    endloop
  endfacet
  facet normal 1 0 0
    outer loop
      vertex 1.5 5 5.31699
      vertex 1.5 1 10
      vertex 1.5 5 5.08324
    endloop
  endfacet
  facet normal 1 0 0
    outer loop
      vertex 1.5 5 5.08324
      vertex 1.5 1 10
      vertex 1.5 5 4.88703
    endloop
  endfacet
  facet normal 1 0 0
    outer loop
      vertex 1.5 5 4.88703
      vertex 1.5 1 10
      vertex 1.5 5 4.71967
    endloop
  endfacet
  facet normal 1 0 0
    outer loop
      vertex 1.5 -3 0
      vertex 1.5 5 4.71967
      vertex 1.5 1 10
    endloop
  endfacet
  facet normal 1 0 0
    outer loop
      vertex 1.5 5 4.71967
      vertex 1.5 -3 0
      vertex 1.5 5 4.57498
    endloop
  endfacet
  facet normal 1 0 0
    outer loop
      vertex 1.5 5 4.57498
      vertex 1.5 -3 0
      vertex 1.5 5 4.4484
    endloop
  endfacet
  facet normal 1 0 0
    outer loop
      vertex 1.5 5 4.4484
      vertex 1.5 -3 0
      vertex 1.5 5 4.33653
    endloop
  endfacet
  facet normal 1 0 0
    outer loop
      vertex 1.5 5 4.33653
      vertex 1.5 -3 0
      vertex 1.5 5 4.23675
    endloop
  endfacet
  facet normal 1 0 0
    outer loop
      vertex 1.5 5 4.23675
      vertex 1.5 -3 0
      vertex 1.5 5 4.14705
    endloop
  endfacet
  facet normal 1 0 0
    outer loop
      vertex 1.5 5 4.14705
      vertex 1.5 -3 0
      vertex 1.5 5 4.06581
    endloop
  endfacet
  facet normal 1 0 0
    outer loop
      vertex 1.5 1 10
      vertex 1.5 5 20
      vertex 1.5 1 20
    endloop
  endfacet
  facet normal 1 -0 0
    outer loop
      vertex 1.5 5 10
      vertex 1.5 8 6.01796
      vertex 1.5 8 10
    endloop
  endfacet
  facet normal 1 0 0
    outer loop
      vertex 1.5 8 6.01796
      vertex 1.5 5 10
      vertex 1.5 5 6.01796
    endloop
  endfacet
  facet normal 1 -0 0
    outer loop
      vertex 1.5 5 3.98204
      vertex 1.5 8 0
      vertex 1.5 8 3.98204
    endloop
  endfacet
  facet normal 1 0 0
    outer loop
      vertex 1.5 5 4.06581
      vertex 1.5 -3 0
      vertex 1.5 5 3.99175
    endloop
  endfacet
  facet normal 1 0 0
    outer loop
      vertex 1.5 -3 0
      vertex 1.5 1 10
      vertex 1.5 -3 10
    endloop
  endfacet
  facet normal 1 0 0
    outer loop
      vertex 1.5 5 3.99175
      vertex 1.5 -3 0
      vertex 1.5 5 3.98204
    endloop
  endfacet
  facet normal 1 0 0
    outer loop
      vertex 1.5 5 3.98204
      vertex 1.5 -3 0
      vertex 1.5 8 0
    endloop
  endfacet
  facet normal 0 0 -1
    outer loop
      vertex 1.5 -3 0
      vertex 0 -3 0
      vertex 1.5 8 0
    endloop
  endfacet
  facet normal 0 0 -1
    outer loop
      vertex 1.5 8 0
      vertex 8 9.5 0
      vertex 8 8 0
    endloop
  endfacet
  facet normal 0 0 -1
    outer loop
      vertex 1.5 8 0
      vertex 0 9.5 0
      vertex 8 9.5 0
    endloop
  endfacet
  facet normal 0 0 -1
    outer loop
      vertex 0 9.5 0
      vertex 1.5 8 0
      vertex 0 -3 0
    endloop
  endfacet
  facet normal 0 -1 0
    outer loop
      vertex 0 -3 0
      vertex 1.5 -3 10
      vertex 0 -3 10
    endloop
  endfacet
  facet normal 0 -1 -0
    outer loop
      vertex 1.5 -3 10
      vertex 0 -3 0
      vertex 1.5 -3 0
    endloop
  endfacet
  facet normal -0 0 1
    outer loop
      vertex 0 5 20
      vertex 1.5 1 20
      vertex 1.5 5 20
    endloop
  endfacet
  facet normal 0 0 1
    outer loop
      vertex 1.5 1 20
      vertex 0 5 20
      vertex 0 1 20
    endloop
  endfacet
  facet normal 0 -1 0
    outer loop
      vertex 0 1 10
      vertex 1.5 1 20
      vertex 0 1 20
    endloop
  endfacet
  facet normal 0 -1 -0
    outer loop
      vertex 1.5 1 20
      vertex 0 1 10
      vertex 1.5 1 10
    endloop
  endfacet
  facet normal 0 1 -0
    outer loop
      vertex 1.5 5 10
      vertex 0 5 20
      vertex 1.5 5 20
    endloop
  endfacet
  facet normal 0 1 0
    outer loop
      vertex 0 5 20
      vertex 1.5 5 10
      vertex 0 5 10
    endloop
  endfacet
  facet normal 0 1 0
    outer loop
      vertex 8 9.5 10
      vertex 4 9.5 7.7
      vertex 0 9.5 10
    endloop
  endfacet
  facet normal 0 1 0
    outer loop
      vertex 8 9.5 10
      vertex 4.16953 9.5 7.69467
      vertex 4 9.5 7.7
    endloop
  endfacet
  facet normal 0 1 0
    outer loop
      vertex 8 9.5 10
      vertex 4.3384 9.5 7.67871
      vertex 4.16953 9.5 7.69467
    endloop
  endfacet
  facet normal 0 1 0
    outer loop
      vertex 8 9.5 10
      vertex 4.50593 9.5 7.65217
      vertex 4.3384 9.5 7.67871
    endloop
  endfacet
  facet normal 0 1 0
    outer loop
      vertex 8 9.5 10
      vertex 4.67146 9.5 7.61517
      vertex 4.50593 9.5 7.65217
    endloop
  endfacet
  facet normal 0 1 0
    outer loop
      vertex 8 9.5 10
      vertex 4.83435 9.5 7.56785
      vertex 4.67146 9.5 7.61517
    endloop
  endfacet
  facet normal 0 1 0
    outer loop
      vertex 8 9.5 10
      vertex 4.99394 9.5 7.5104
      vertex 4.83435 9.5 7.56785
    endloop
  endfacet
  facet normal 0 1 0
    outer loop
      vertex 8 9.5 10
      vertex 5.1496 9.5 7.44303
      vertex 4.99394 9.5 7.5104
    endloop
  endfacet
  facet normal 0 1 0
    outer loop
      vertex 8 9.5 10
      vertex 5.30073 9.5 7.36603
      vertex 5.1496 9.5 7.44303
    endloop
  endfacet
  facet normal 0 1 0
    outer loop
      vertex 8 9.5 10
      vertex 5.44673 9.5 7.27969
      vertex 5.30073 9.5 7.36603
    endloop
  endfacet
  facet normal 0 1 0
    outer loop
      vertex 8 9.5 10
      vertex 5.58702 9.5 7.18435
      vertex 5.44673 9.5 7.27969
    endloop
  endfacet
  facet normal 0 1 0
    outer loop
      vertex 8 9.5 10
      vertex 5.72104 9.5 7.08039
      vertex 5.58702 9.5 7.18435
    endloop
  endfacet
  facet normal 0 1 0
    outer loop
      vertex 8 9.5 10
      vertex 5.84828 9.5 6.96821
      vertex 5.72104 9.5 7.08039
    endloop
  endfacet
  facet normal 0 1 0
    outer loop
      vertex 8 9.5 10
      vertex 5.96821 9.5 6.84828
      vertex 5.84828 9.5 6.96821
    endloop
  endfacet
  facet normal 0 1 0
    outer loop
      vertex 8 9.5 10
      vertex 6.08039 9.5 6.72104
      vertex 5.96821 9.5 6.84828
    endloop
  endfacet
  facet normal 0 1 0
    outer loop
      vertex 8 9.5 10
      vertex 6.18435 9.5 6.58702
      vertex 6.08039 9.5 6.72104
    endloop
  endfacet
  facet normal 0 1 0
    outer loop
      vertex 8 9.5 10
      vertex 6.27969 9.5 6.44673
      vertex 6.18435 9.5 6.58702
    endloop
  endfacet
  facet normal 0 1 0
    outer loop
      vertex 8 9.5 10
      vertex 6.36603 9.5 6.30073
      vertex 6.27969 9.5 6.44673
    endloop
  endfacet
  facet normal 0 1 0
    outer loop
      vertex 8 9.5 10
      vertex 6.44303 9.5 6.1496
      vertex 6.36603 9.5 6.30073
    endloop
  endfacet
  facet normal 0 1 0
    outer loop
      vertex 8 9.5 10
      vertex 6.5104 9.5 5.99394
      vertex 6.44303 9.5 6.1496
    endloop
  endfacet
  facet normal 0 1 0
    outer loop
      vertex 8 9.5 10
      vertex 6.56785 9.5 5.83435
      vertex 6.5104 9.5 5.99394
    endloop
  endfacet
  facet normal 0 1 0
    outer loop
      vertex 8 9.5 10
      vertex 6.61517 9.5 5.67146
      vertex 6.56785 9.5 5.83435
    endloop
  endfacet
  facet normal 0 1 0
    outer loop
      vertex 8 9.5 10
      vertex 6.65217 9.5 5.50593
      vertex 6.61517 9.5 5.67146
    endloop
  endfacet
  facet normal 0 1 0
    outer loop
      vertex 8 9.5 10
      vertex 6.67871 9.5 5.3384
      vertex 6.65217 9.5 5.50593
    endloop
  endfacet
  facet normal 0 1 0
    outer loop
      vertex 8 9.5 10
      vertex 6.69467 9.5 5.16953
      vertex 6.67871 9.5 5.3384
    endloop
  endfacet
  facet normal 0 1 0
    outer loop
      vertex 8 9.5 10
      vertex 6.7 9.5 5
      vertex 6.69467 9.5 5.16953
    endloop
  endfacet
  facet normal 0 1 -0
    outer loop
      vertex 8 9.5 0
      vertex 6.7 9.5 5
      vertex 8 9.5 10
    endloop
  endfacet
  facet normal 0 1 0
    outer loop
      vertex 6.7 9.5 5
      vertex 8 9.5 0
      vertex 6.69467 9.5 4.83047
    endloop
  endfacet
  facet normal 0 1 0
    outer loop
      vertex 6.69467 9.5 4.83047
      vertex 8 9.5 0
      vertex 6.67871 9.5 4.6616
    endloop
  endfacet
  facet normal 0 1 0
    outer loop
      vertex 6.67871 9.5 4.6616
      vertex 8 9.5 0
      vertex 6.65217 9.5 4.49407
    endloop
  endfacet
  facet normal 0 1 0
    outer loop
      vertex 4.16953 9.5 2.30533
      vertex 8 9.5 0
      vertex 4 9.5 2.3
    endloop
  endfacet
  facet normal 0 1 0
    outer loop
      vertex 4.3384 9.5 2.32129
      vertex 8 9.5 0
      vertex 4.16953 9.5 2.30533
    endloop
  endfacet
  facet normal 0 1 0
    outer loop
      vertex 4.50593 9.5 2.34782
      vertex 8 9.5 0
      vertex 4.3384 9.5 2.32129
    endloop
  endfacet
  facet normal 0 1 0
    outer loop
      vertex 4.67146 9.5 2.38482
      vertex 8 9.5 0
      vertex 4.50593 9.5 2.34782
    endloop
  endfacet
  facet normal 0 1 0
    outer loop
      vertex 4.83435 9.5 2.43215
      vertex 8 9.5 0
      vertex 4.67146 9.5 2.38482
    endloop
  endfacet
  facet normal 0 1 0
    outer loop
      vertex 4.99394 9.5 2.4896
      vertex 8 9.5 0
      vertex 4.83435 9.5 2.43215
    endloop
  endfacet
  facet normal 0 1 0
    outer loop
      vertex 5.1496 9.5 2.55697
      vertex 8 9.5 0
      vertex 4.99394 9.5 2.4896
    endloop
  endfacet
  facet normal 0 1 0
    outer loop
      vertex 5.30073 9.5 2.63397
      vertex 8 9.5 0
      vertex 5.1496 9.5 2.55697
    endloop
  endfacet
  facet normal 0 1 0
    outer loop
      vertex 5.44673 9.5 2.72031
      vertex 8 9.5 0
      vertex 5.30073 9.5 2.63397
    endloop
  endfacet
  facet normal 0 1 0
    outer loop
      vertex 5.58702 9.5 2.81565
      vertex 8 9.5 0
      vertex 5.44673 9.5 2.72031
    endloop
  endfacet
  facet normal 0 1 0
    outer loop
      vertex 5.72104 9.5 2.91961
      vertex 8 9.5 0
      vertex 5.58702 9.5 2.81565
    endloop
  endfacet
  facet normal 0 1 0
    outer loop
      vertex 5.84828 9.5 3.03178
      vertex 8 9.5 0
      vertex 5.72104 9.5 2.91961
    endloop
  endfacet
  facet normal 0 1 0
    outer loop
      vertex 5.96821 9.5 3.15172
      vertex 8 9.5 0
      vertex 5.84828 9.5 3.03178
    endloop
  endfacet
  facet normal 0 1 0
    outer loop
      vertex 6.08039 9.5 3.27895
      vertex 8 9.5 0
      vertex 5.96821 9.5 3.15172
    endloop
  endfacet
  facet normal 0 1 0
    outer loop
      vertex 6.18435 9.5 3.41298
      vertex 8 9.5 0
      vertex 6.08039 9.5 3.27895
    endloop
  endfacet
  facet normal 0 1 0
    outer loop
      vertex 6.27969 9.5 3.55327
      vertex 8 9.5 0
      vertex 6.18435 9.5 3.41298
    endloop
  endfacet
  facet normal 0 1 0
    outer loop
      vertex 6.36603 9.5 3.69926
      vertex 8 9.5 0
      vertex 6.27969 9.5 3.55327
    endloop
  endfacet
  facet normal 0 1 0
    outer loop
      vertex 6.44303 9.5 3.8504
      vertex 8 9.5 0
      vertex 6.36603 9.5 3.69926
    endloop
  endfacet
  facet normal 0 1 0
    outer loop
      vertex 6.5104 9.5 4.00606
      vertex 8 9.5 0
      vertex 6.44303 9.5 3.8504
    endloop
  endfacet
  facet normal 0 1 0
    outer loop
      vertex 6.56785 9.5 4.16565
      vertex 8 9.5 0
      vertex 6.5104 9.5 4.00606
    endloop
  endfacet
  facet normal 0 1 0
    outer loop
      vertex 6.61517 9.5 4.32854
      vertex 8 9.5 0
      vertex 6.56785 9.5 4.16565
    endloop
  endfacet
  facet normal 0 1 0
    outer loop
      vertex 6.65217 9.5 4.49407
      vertex 8 9.5 0
      vertex 6.61517 9.5 4.32854
    endloop
  endfacet
  facet normal 0 1 -0
    outer loop
      vertex 3.83047 9.5 7.69467
      vertex 0 9.5 10
      vertex 4 9.5 7.7
    endloop
  endfacet
  facet normal 0 1 -0
    outer loop
      vertex 3.6616 9.5 7.67871
      vertex 0 9.5 10
      vertex 3.83047 9.5 7.69467
    endloop
  endfacet
  facet normal 0 1 -0
    outer loop
      vertex 3.49407 9.5 7.65217
      vertex 0 9.5 10
      vertex 3.6616 9.5 7.67871
    endloop
  endfacet
  facet normal 0 1 -0
    outer loop
      vertex 3.32854 9.5 7.61517
      vertex 0 9.5 10
      vertex 3.49407 9.5 7.65217
    endloop
  endfacet
  facet normal 0 1 -0
    outer loop
      vertex 3.16565 9.5 7.56785
      vertex 0 9.5 10
      vertex 3.32854 9.5 7.61517
    endloop
  endfacet
  facet normal 0 1 -0
    outer loop
      vertex 3.00606 9.5 7.5104
      vertex 0 9.5 10
      vertex 3.16565 9.5 7.56785
    endloop
  endfacet
  facet normal 0 1 -0
    outer loop
      vertex 2.8504 9.5 7.44303
      vertex 0 9.5 10
      vertex 3.00606 9.5 7.5104
    endloop
  endfacet
  facet normal 0 1 -0
    outer loop
      vertex 2.69926 9.5 7.36603
      vertex 0 9.5 10
      vertex 2.8504 9.5 7.44303
    endloop
  endfacet
  facet normal 0 1 -0
    outer loop
      vertex 2.55327 9.5 7.27969
      vertex 0 9.5 10
      vertex 2.69926 9.5 7.36603
    endloop
  endfacet
  facet normal 0 1 -0
    outer loop
      vertex 2.41298 9.5 7.18435
      vertex 0 9.5 10
      vertex 2.55327 9.5 7.27969
    endloop
  endfacet
  facet normal 0 1 -0
    outer loop
      vertex 2.27895 9.5 7.08039
      vertex 0 9.5 10
      vertex 2.41298 9.5 7.18435
    endloop
  endfacet
  facet normal 0 1 -0
    outer loop
      vertex 2.15172 9.5 6.96821
      vertex 0 9.5 10
      vertex 2.27895 9.5 7.08039
    endloop
  endfacet
  facet normal 0 1 -0
    outer loop
      vertex 2.03178 9.5 6.84828
      vertex 0 9.5 10
      vertex 2.15172 9.5 6.96821
    endloop
  endfacet
  facet normal 0 1 -0
    outer loop
      vertex 1.91961 9.5 6.72104
      vertex 0 9.5 10
      vertex 2.03178 9.5 6.84828
    endloop
  endfacet
  facet normal 0 1 -0
    outer loop
      vertex 1.81565 9.5 6.58702
      vertex 0 9.5 10
      vertex 1.91961 9.5 6.72104
    endloop
  endfacet
  facet normal 0 1 -0
    outer loop
      vertex 1.72031 9.5 6.44673
      vertex 0 9.5 10
      vertex 1.81565 9.5 6.58702
    endloop
  endfacet
  facet normal 0 1 -0
    outer loop
      vertex 1.63397 9.5 6.30073
      vertex 0 9.5 10
      vertex 1.72031 9.5 6.44673
    endloop
  endfacet
  facet normal 0 1 -0
    outer loop
      vertex 1.55697 9.5 6.1496
      vertex 0 9.5 10
      vertex 1.63397 9.5 6.30073
    endloop
  endfacet
  facet normal 0 1 -0
    outer loop
      vertex 1.4896 9.5 5.99394
      vertex 0 9.5 10
      vertex 1.55697 9.5 6.1496
    endloop
  endfacet
  facet normal 0 1 -0
    outer loop
      vertex 1.43215 9.5 5.83435
      vertex 0 9.5 10
      vertex 1.4896 9.5 5.99394
    endloop
  endfacet
  facet normal 0 1 -0
    outer loop
      vertex 1.38482 9.5 5.67146
      vertex 0 9.5 10
      vertex 1.43215 9.5 5.83435
    endloop
  endfacet
  facet normal 0 1 -0
    outer loop
      vertex 1.34782 9.5 5.50593
      vertex 0 9.5 10
      vertex 1.38482 9.5 5.67146
    endloop
  endfacet
  facet normal 0 1 -0
    outer loop
      vertex 1.32129 9.5 5.3384
      vertex 0 9.5 10
      vertex 1.34782 9.5 5.50593
    endloop
  endfacet
  facet normal 0 1 -0
    outer loop
      vertex 1.30533 9.5 5.16953
      vertex 0 9.5 10
      vertex 1.32129 9.5 5.3384
    endloop
  endfacet
  facet normal 0 1 -0
    outer loop
      vertex 1.3 9.5 5
      vertex 0 9.5 10
      vertex 1.30533 9.5 5.16953
    endloop
  endfacet
  facet normal 0 1 0
    outer loop
      vertex 0 9.5 0
      vertex 1.3 9.5 5
      vertex 1.30533 9.5 4.83047
    endloop
  endfacet
  facet normal 0 1 0
    outer loop
      vertex 0 9.5 0
      vertex 1.30533 9.5 4.83047
      vertex 1.32129 9.5 4.6616
    endloop
  endfacet
  facet normal 0 1 0
    outer loop
      vertex 0 9.5 0
      vertex 1.32129 9.5 4.6616
      vertex 1.34782 9.5 4.49407
    endloop
  endfacet
  facet normal 0 1 0
    outer loop
      vertex 0 9.5 0
      vertex 1.34782 9.5 4.49407
      vertex 1.38482 9.5 4.32854
    endloop
  endfacet
  facet normal 0 1 0
    outer loop
      vertex 0 9.5 0
      vertex 4 9.5 2.3
      vertex 8 9.5 0
    endloop
  endfacet
  facet normal 0 1 0
    outer loop
      vertex 4 9.5 2.3
      vertex 0 9.5 0
      vertex 3.83047 9.5 2.30533
    endloop
  endfacet
  facet normal 0 1 0
    outer loop
      vertex 3.83047 9.5 2.30533
      vertex 0 9.5 0
      vertex 3.6616 9.5 2.32129
    endloop
  endfacet
  facet normal 0 1 0
    outer loop
      vertex 3.6616 9.5 2.32129
      vertex 0 9.5 0
      vertex 3.49407 9.5 2.34782
    endloop
  endfacet
  facet normal 0 1 0
    outer loop
      vertex 3.49407 9.5 2.34782
      vertex 0 9.5 0
      vertex 3.32854 9.5 2.38482
    endloop
  endfacet
  facet normal 0 1 0
    outer loop
      vertex 3.32854 9.5 2.38482
      vertex 0 9.5 0
      vertex 3.16565 9.5 2.43215
    endloop
  endfacet
  facet normal 0 1 0
    outer loop
      vertex 3.16565 9.5 2.43215
      vertex 0 9.5 0
      vertex 3.00606 9.5 2.4896
    endloop
  endfacet
  facet normal 0 1 0
    outer loop
      vertex 1.3 9.5 5
      vertex 0 9.5 0
      vertex 0 9.5 10
    endloop
  endfacet
  facet normal 0 1 0
    outer loop
      vertex 1.43215 9.5 4.16565
      vertex 0 9.5 0
      vertex 1.38482 9.5 4.32854
    endloop
  endfacet
  facet normal 0 1 0
    outer loop
      vertex 1.4896 9.5 4.00606
      vertex 0 9.5 0
      vertex 1.43215 9.5 4.16565
    endloop
  endfacet
  facet normal 0 1 0
    outer loop
      vertex 1.55697 9.5 3.8504
      vertex 0 9.5 0
      vertex 1.4896 9.5 4.00606
    endloop
  endfacet
  facet normal 0 1 0
    outer loop
      vertex 1.63397 9.5 3.69926
      vertex 0 9.5 0
      vertex 1.55697 9.5 3.8504
    endloop
  endfacet
  facet normal 0 1 0
    outer loop
      vertex 1.72031 9.5 3.55327
      vertex 0 9.5 0
      vertex 1.63397 9.5 3.69926
    endloop
  endfacet
  facet normal 0 1 0
    outer loop
      vertex 1.81565 9.5 3.41298
      vertex 0 9.5 0
      vertex 1.72031 9.5 3.55327
    endloop
  endfacet
  facet normal 0 1 0
    outer loop
      vertex 1.91961 9.5 3.27895
      vertex 0 9.5 0
      vertex 1.81565 9.5 3.41298
    endloop
  endfacet
  facet normal 0 1 0
    outer loop
      vertex 2.03178 9.5 3.15172
      vertex 0 9.5 0
      vertex 1.91961 9.5 3.27895
    endloop
  endfacet
  facet normal 0 1 0
    outer loop
      vertex 2.15172 9.5 3.03178
      vertex 0 9.5 0
      vertex 2.03178 9.5 3.15172
    endloop
  endfacet
  facet normal 0 1 0
    outer loop
      vertex 2.27895 9.5 2.91961
      vertex 0 9.5 0
      vertex 2.15172 9.5 3.03178
    endloop
  endfacet
  facet normal 0 1 0
    outer loop
      vertex 2.41298 9.5 2.81565
      vertex 0 9.5 0
      vertex 2.27895 9.5 2.91961
    endloop
  endfacet
  facet normal 0 1 0
    outer loop
      vertex 2.55327 9.5 2.72031
      vertex 0 9.5 0
      vertex 2.41298 9.5 2.81565
    endloop
  endfacet
  facet normal 0 1 0
    outer loop
      vertex 2.69926 9.5 2.63397
      vertex 0 9.5 0
      vertex 2.55327 9.5 2.72031
    endloop
  endfacet
  facet normal 0 1 0
    outer loop
      vertex 2.8504 9.5 2.55697
      vertex 0 9.5 0
      vertex 2.69926 9.5 2.63397
    endloop
  endfacet
  facet normal 0 1 0
    outer loop
      vertex 3.00606 9.5 2.4896
      vertex 0 9.5 0
      vertex 2.8504 9.5 2.55697
    endloop
  endfacet
  facet normal 0 -1 -0
    outer loop
      vertex 3.83047 8 2.30533
      vertex 1.5 8 0
      vertex 4 8 2.3
    endloop
  endfacet
  facet normal 0 -1 -0
    outer loop
      vertex 3.6616 8 2.32129
      vertex 1.5 8 0
      vertex 3.83047 8 2.30533
    endloop
  endfacet
  facet normal 0 -1 -0
    outer loop
      vertex 3.49407 8 2.34782
      vertex 1.5 8 0
      vertex 3.6616 8 2.32129
    endloop
  endfacet
  facet normal 0 -1 -0
    outer loop
      vertex 3.32854 8 2.38482
      vertex 1.5 8 0
      vertex 3.49407 8 2.34782
    endloop
  endfacet
  facet normal 0 -1 -0
    outer loop
      vertex 3.16565 8 2.43215
      vertex 1.5 8 0
      vertex 3.32854 8 2.38482
    endloop
  endfacet
  facet normal 0 -1 -0
    outer loop
      vertex 3.00606 8 2.4896
      vertex 1.5 8 0
      vertex 3.16565 8 2.43215
    endloop
  endfacet
  facet normal 0 -1 -0
    outer loop
      vertex 2.8504 8 2.55697
      vertex 1.5 8 0
      vertex 3.00606 8 2.4896
    endloop
  endfacet
  facet normal 0 -1 -0
    outer loop
      vertex 2.69926 8 2.63397
      vertex 1.5 8 0
      vertex 2.8504 8 2.55697
    endloop
  endfacet
  facet normal 0 -1 -0
    outer loop
      vertex 2.55327 8 2.72031
      vertex 1.5 8 0
      vertex 2.69926 8 2.63397
    endloop
  endfacet
  facet normal 0 -1 -0
    outer loop
      vertex 2.41298 8 2.81565
      vertex 1.5 8 0
      vertex 2.55327 8 2.72031
    endloop
  endfacet
  facet normal 0 -1 -0
    outer loop
      vertex 2.27895 8 2.91961
      vertex 1.5 8 0
      vertex 2.41298 8 2.81565
    endloop
  endfacet
  facet normal 0 -1 -0
    outer loop
      vertex 2.15172 8 3.03178
      vertex 1.5 8 0
      vertex 2.27895 8 2.91961
    endloop
  endfacet
  facet normal 0 -1 -0
    outer loop
      vertex 2.03178 8 3.15172
      vertex 1.5 8 0
      vertex 2.15172 8 3.03178
    endloop
  endfacet
  facet normal 0 -1 -0
    outer loop
      vertex 1.91961 8 3.27895
      vertex 1.5 8 0
      vertex 2.03178 8 3.15172
    endloop
  endfacet
  facet normal 0 -1 -0
    outer loop
      vertex 1.81565 8 3.41298
      vertex 1.5 8 0
      vertex 1.91961 8 3.27895
    endloop
  endfacet
  facet normal 0 -1 -0
    outer loop
      vertex 1.72031 8 3.55327
      vertex 1.5 8 0
      vertex 1.81565 8 3.41298
    endloop
  endfacet
  facet normal 0 -1 -0
    outer loop
      vertex 1.63397 8 3.69926
      vertex 1.5 8 0
      vertex 1.72031 8 3.55327
    endloop
  endfacet
  facet normal 0 -1 -0
    outer loop
      vertex 1.55697 8 3.8504
      vertex 1.5 8 0
      vertex 1.63397 8 3.69926
    endloop
  endfacet
  facet normal 0 -1 0
    outer loop
      vertex 1.5 8 0
      vertex 1.55697 8 3.8504
      vertex 1.5 8 3.98204
    endloop
  endfacet
  facet normal 0 -1 0
    outer loop
      vertex 4.16953 8 7.69467
      vertex 1.5 8 10
      vertex 4 8 7.7
    endloop
  endfacet
  facet normal 0 -1 0
    outer loop
      vertex 1.5 8 10
      vertex 3.83047 8 7.69467
      vertex 4 8 7.7
    endloop
  endfacet
  facet normal 0 -1 0
    outer loop
      vertex 1.5 8 10
      vertex 3.6616 8 7.67871
      vertex 3.83047 8 7.69467
    endloop
  endfacet
  facet normal 0 -1 0
    outer loop
      vertex 1.5 8 10
      vertex 3.49407 8 7.65217
      vertex 3.6616 8 7.67871
    endloop
  endfacet
  facet normal 0 -1 0
    outer loop
      vertex 1.5 8 10
      vertex 3.32854 8 7.61517
      vertex 3.49407 8 7.65217
    endloop
  endfacet
  facet normal 0 -1 0
    outer loop
      vertex 1.5 8 10
      vertex 3.16565 8 7.56785
      vertex 3.32854 8 7.61517
    endloop
  endfacet
  facet normal 0 -1 0
    outer loop
      vertex 1.5 8 10
      vertex 3.00606 8 7.5104
      vertex 3.16565 8 7.56785
    endloop
  endfacet
  facet normal 0 -1 0
    outer loop
      vertex 1.5 8 10
      vertex 2.8504 8 7.44303
      vertex 3.00606 8 7.5104
    endloop
  endfacet
  facet normal 0 -1 0
    outer loop
      vertex 1.5 8 10
      vertex 2.69926 8 7.36603
      vertex 2.8504 8 7.44303
    endloop
  endfacet
  facet normal 0 -1 0
    outer loop
      vertex 1.5 8 10
      vertex 2.55327 8 7.27969
      vertex 2.69926 8 7.36603
    endloop
  endfacet
  facet normal 0 -1 0
    outer loop
      vertex 1.5 8 10
      vertex 2.41298 8 7.18435
      vertex 2.55327 8 7.27969
    endloop
  endfacet
  facet normal 0 -1 0
    outer loop
      vertex 1.5 8 10
      vertex 2.27895 8 7.08039
      vertex 2.41298 8 7.18435
    endloop
  endfacet
  facet normal 0 -1 0
    outer loop
      vertex 1.5 8 10
      vertex 2.15172 8 6.96821
      vertex 2.27895 8 7.08039
    endloop
  endfacet
  facet normal 0 -1 0
    outer loop
      vertex 1.5 8 10
      vertex 2.03178 8 6.84828
      vertex 2.15172 8 6.96821
    endloop
  endfacet
  facet normal 0 -1 0
    outer loop
      vertex 1.5 8 10
      vertex 1.91961 8 6.72104
      vertex 2.03178 8 6.84828
    endloop
  endfacet
  facet normal 0 -1 0
    outer loop
      vertex 1.5 8 10
      vertex 1.81565 8 6.58702
      vertex 1.91961 8 6.72104
    endloop
  endfacet
  facet normal 0 -1 0
    outer loop
      vertex 1.5 8 10
      vertex 1.72031 8 6.44673
      vertex 1.81565 8 6.58702
    endloop
  endfacet
  facet normal 0 -1 0
    outer loop
      vertex 1.5 8 10
      vertex 1.63397 8 6.30073
      vertex 1.72031 8 6.44673
    endloop
  endfacet
  facet normal 0 -1 0
    outer loop
      vertex 1.5 8 10
      vertex 1.55697 8 6.1496
      vertex 1.63397 8 6.30073
    endloop
  endfacet
  facet normal -0 -1 0
    outer loop
      vertex 1.55697 8 6.1496
      vertex 1.5 8 10
      vertex 1.5 8 6.01796
    endloop
  endfacet
  facet normal 0 -1 0
    outer loop
      vertex 4.3384 8 7.67871
      vertex 1.5 8 10
      vertex 4.16953 8 7.69467
    endloop
  endfacet
  facet normal 0 -1 0
    outer loop
      vertex 1.5 8 10
      vertex 4.3384 8 7.67871
      vertex 8 8 10
    endloop
  endfacet
  facet normal 0 -1 0
    outer loop
      vertex 4.50593 8 7.65217
      vertex 8 8 10
      vertex 4.3384 8 7.67871
    endloop
  endfacet
  facet normal 0 -1 0
    outer loop
      vertex 4.67146 8 7.61517
      vertex 8 8 10
      vertex 4.50593 8 7.65217
    endloop
  endfacet
  facet normal 0 -1 0
    outer loop
      vertex 4.83435 8 7.56785
      vertex 8 8 10
      vertex 4.67146 8 7.61517
    endloop
  endfacet
  facet normal 0 -1 0
    outer loop
      vertex 4.99394 8 7.5104
      vertex 8 8 10
      vertex 4.83435 8 7.56785
    endloop
  endfacet
  facet normal 0 -1 0
    outer loop
      vertex 5.1496 8 7.44303
      vertex 8 8 10
      vertex 4.99394 8 7.5104
    endloop
  endfacet
  facet normal 0 -1 0
    outer loop
      vertex 5.30073 8 7.36603
      vertex 8 8 10
      vertex 5.1496 8 7.44303
    endloop
  endfacet
  facet normal 0 -1 0
    outer loop
      vertex 5.44673 8 7.27969
      vertex 8 8 10
      vertex 5.30073 8 7.36603
    endloop
  endfacet
  facet normal 0 -1 0
    outer loop
      vertex 5.58702 8 7.18435
      vertex 8 8 10
      vertex 5.44673 8 7.27969
    endloop
  endfacet
  facet normal 0 -1 0
    outer loop
      vertex 5.72104 8 7.08039
      vertex 8 8 10
      vertex 5.58702 8 7.18435
    endloop
  endfacet
  facet normal 0 -1 0
    outer loop
      vertex 5.84828 8 6.96821
      vertex 8 8 10
      vertex 5.72104 8 7.08039
    endloop
  endfacet
  facet normal 0 -1 0
    outer loop
      vertex 5.96821 8 6.84828
      vertex 8 8 10
      vertex 5.84828 8 6.96821
    endloop
  endfacet
  facet normal 0 -1 0
    outer loop
      vertex 6.08039 8 6.72104
      vertex 8 8 10
      vertex 5.96821 8 6.84828
    endloop
  endfacet
  facet normal 0 -1 0
    outer loop
      vertex 6.18435 8 6.58702
      vertex 8 8 10
      vertex 6.08039 8 6.72104
    endloop
  endfacet
  facet normal 0 -1 0
    outer loop
      vertex 6.27969 8 6.44673
      vertex 8 8 10
      vertex 6.18435 8 6.58702
    endloop
  endfacet
  facet normal 0 -1 0
    outer loop
      vertex 6.36603 8 6.30073
      vertex 8 8 10
      vertex 6.27969 8 6.44673
    endloop
  endfacet
  facet normal 0 -1 0
    outer loop
      vertex 6.44303 8 6.1496
      vertex 8 8 10
      vertex 6.36603 8 6.30073
    endloop
  endfacet
  facet normal 0 -1 0
    outer loop
      vertex 6.5104 8 5.99394
      vertex 8 8 10
      vertex 6.44303 8 6.1496
    endloop
  endfacet
  facet normal 0 -1 0
    outer loop
      vertex 6.56785 8 5.83435
      vertex 8 8 10
      vertex 6.5104 8 5.99394
    endloop
  endfacet
  facet normal 0 -1 0
    outer loop
      vertex 6.61517 8 5.67146
      vertex 8 8 10
      vertex 6.56785 8 5.83435
    endloop
  endfacet
  facet normal 0 -1 0
    outer loop
      vertex 6.65217 8 5.50593
      vertex 8 8 10
      vertex 6.61517 8 5.67146
    endloop
  endfacet
  facet normal 0 -1 0
    outer loop
      vertex 6.67871 8 5.3384
      vertex 8 8 10
      vertex 6.65217 8 5.50593
    endloop
  endfacet
  facet normal 0 -1 0
    outer loop
      vertex 6.69467 8 5.16953
      vertex 8 8 10
      vertex 6.67871 8 5.3384
    endloop
  endfacet
  facet normal 0 -1 0
    outer loop
      vertex 6.7 8 5
      vertex 8 8 10
      vertex 6.69467 8 5.16953
    endloop
  endfacet
  facet normal 0 -1 0
    outer loop
      vertex 8 8 0
      vertex 6.7 8 5
      vertex 6.69467 8 4.83047
    endloop
  endfacet
  facet normal 0 -1 0
    outer loop
      vertex 8 8 0
      vertex 6.69467 8 4.83047
      vertex 6.67871 8 4.6616
    endloop
  endfacet
  facet normal 0 -1 0
    outer loop
      vertex 8 8 0
      vertex 6.67871 8 4.6616
      vertex 6.65217 8 4.49407
    endloop
  endfacet
  facet normal 0 -1 0
    outer loop
      vertex 8 8 0
      vertex 6.65217 8 4.49407
      vertex 6.61517 8 4.32854
    endloop
  endfacet
  facet normal 0 -1 0
    outer loop
      vertex 1.5 8 0
      vertex 4.16953 8 2.30533
      vertex 4 8 2.3
    endloop
  endfacet
  facet normal 0 -1 0
    outer loop
      vertex 1.5 8 0
      vertex 4.3384 8 2.32129
      vertex 4.16953 8 2.30533
    endloop
  endfacet
  facet normal 0 -1 0
    outer loop
      vertex 8 8 0
      vertex 4.3384 8 2.32129
      vertex 1.5 8 0
    endloop
  endfacet
  facet normal 0 -1 0
    outer loop
      vertex 4.3384 8 2.32129
      vertex 8 8 0
      vertex 4.50593 8 2.34782
    endloop
  endfacet
  facet normal 0 -1 0
    outer loop
      vertex 4.50593 8 2.34782
      vertex 8 8 0
      vertex 4.67146 8 2.38482
    endloop
  endfacet
  facet normal 0 -1 0
    outer loop
      vertex 4.67146 8 2.38482
      vertex 8 8 0
      vertex 4.83435 8 2.43215
    endloop
  endfacet
  facet normal 0 -1 0
    outer loop
      vertex 4.83435 8 2.43215
      vertex 8 8 0
      vertex 4.99394 8 2.4896
    endloop
  endfacet
  facet normal 0 -1 0
    outer loop
      vertex 4.99394 8 2.4896
      vertex 8 8 0
      vertex 5.1496 8 2.55697
    endloop
  endfacet
  facet normal 0 -1 0
    outer loop
      vertex 5.1496 8 2.55697
      vertex 8 8 0
      vertex 5.30073 8 2.63397
    endloop
  endfacet
  facet normal 0 -1 0
    outer loop
      vertex 5.30073 8 2.63397
      vertex 8 8 0
      vertex 5.44673 8 2.72031
    endloop
  endfacet
  facet normal 0 -1 0
    outer loop
      vertex 6.7 8 5
      vertex 8 8 0
      vertex 8 8 10
    endloop
  endfacet
  facet normal 0 -1 0
    outer loop
      vertex 6.56785 8 4.16565
      vertex 8 8 0
      vertex 6.61517 8 4.32854
    endloop
  endfacet
  facet normal 0 -1 0
    outer loop
      vertex 6.5104 8 4.00606
      vertex 8 8 0
      vertex 6.56785 8 4.16565
    endloop
  endfacet
  facet normal 0 -1 0
    outer loop
      vertex 6.44303 8 3.8504
      vertex 8 8 0
      vertex 6.5104 8 4.00606
    endloop
  endfacet
  facet normal 0 -1 0
    outer loop
      vertex 6.36603 8 3.69926
      vertex 8 8 0
      vertex 6.44303 8 3.8504
    endloop
  endfacet
  facet normal 0 -1 0
    outer loop
      vertex 6.27969 8 3.55327
      vertex 8 8 0
      vertex 6.36603 8 3.69926
    endloop
  endfacet
  facet normal 0 -1 0
    outer loop
      vertex 6.18435 8 3.41298
      vertex 8 8 0
      vertex 6.27969 8 3.55327
    endloop
  endfacet
  facet normal 0 -1 0
    outer loop
      vertex 6.08039 8 3.27895
      vertex 8 8 0
      vertex 6.18435 8 3.41298
    endloop
  endfacet
  facet normal 0 -1 0
    outer loop
      vertex 5.96821 8 3.15172
      vertex 8 8 0
      vertex 6.08039 8 3.27895
    endloop
  endfacet
  facet normal 0 -1 0
    outer loop
      vertex 5.84828 8 3.03178
      vertex 8 8 0
      vertex 5.96821 8 3.15172
    endloop
  endfacet
  facet normal 0 -1 0
    outer loop
      vertex 5.72104 8 2.91961
      vertex 8 8 0
      vertex 5.84828 8 3.03178
    endloop
  endfacet
  facet normal 0 -1 0
    outer loop
      vertex 5.58702 8 2.81565
      vertex 8 8 0
      vertex 5.72104 8 2.91961
    endloop
  endfacet
  facet normal 0 -1 0
    outer loop
      vertex 5.44673 8 2.72031
      vertex 8 8 0
      vertex 5.58702 8 2.81565
    endloop
  endfacet
  facet normal 1 -0 0
    outer loop
      vertex 8 8 10
      vertex 8 9.5 0
      vertex 8 9.5 10
    endloop
  endfacet
  facet normal 1 0 0
    outer loop
      vertex 8 9.5 0
      vertex 8 8 10
      vertex 8 8 0
    endloop
  endfacet
  facet normal -0.999506 0 -0.0314129
    outer loop
      vertex 6.7 8 5
      vertex 6.69467 9.5 5.16953
      vertex 6.7 9.5 5
    endloop
  endfacet
  facet normal -0.999506 -0 -0.0314129
    outer loop
      vertex 6.69467 9.5 5.16953
      vertex 6.7 8 5
      vertex 6.69467 8 5.16953
    endloop
  endfacet
  facet normal -0.995562 0 -0.0941091
    outer loop
      vertex 6.69467 8 5.16953
      vertex 6.67871 9.5 5.3384
      vertex 6.69467 9.5 5.16953
    endloop
  endfacet
  facet normal -0.995562 -0 -0.0941091
    outer loop
      vertex 6.67871 9.5 5.3384
      vertex 6.69467 8 5.16953
      vertex 6.67871 8 5.3384
    endloop
  endfacet
  facet normal -0.707107 0 -0.707107
    outer loop
      vertex 5.96821 8 6.84828
      vertex 5.84828 9.5 6.96821
      vertex 5.96821 9.5 6.84828
    endloop
  endfacet
  facet normal -0.707107 -0 -0.707107
    outer loop
      vertex 5.84828 9.5 6.96821
      vertex 5.96821 8 6.84828
      vertex 5.84828 8 6.96821
    endloop
  endfacet
  facet normal 0.0314127 0 -0.999506
    outer loop
      vertex 3.83047 8 7.69467
      vertex 4 9.5 7.7
      vertex 4 8 7.7
    endloop
  endfacet
  facet normal 0.0314127 0 -0.999506
    outer loop
      vertex 4 9.5 7.7
      vertex 3.83047 8 7.69467
      vertex 3.83047 9.5 7.69467
    endloop
  endfacet
  facet normal -0.0941091 0 0.995562
    outer loop
      vertex 4.16953 9.5 2.30533
      vertex 4.3384 8 2.32129
      vertex 4.3384 9.5 2.32129
    endloop
  endfacet
  facet normal -0.0941091 0 0.995562
    outer loop
      vertex 4.3384 8 2.32129
      vertex 4.16953 9.5 2.30533
      vertex 4.16953 8 2.30533
    endloop
  endfacet
  facet normal -0.975917 0 -0.218141
    outer loop
      vertex 6.65217 8 5.50593
      vertex 6.61517 9.5 5.67146
      vertex 6.65217 9.5 5.50593
    endloop
  endfacet
  facet normal -0.975917 -0 -0.218141
    outer loop
      vertex 6.61517 9.5 5.67146
      vertex 6.65217 8 5.50593
      vertex 6.61517 8 5.67146
    endloop
  endfacet
  facet normal 0.397148 0 -0.917754
    outer loop
      vertex 2.8504 8 7.44303
      vertex 3.00606 9.5 7.5104
      vertex 3.00606 8 7.5104
    endloop
  endfacet
  facet normal 0.397148 0 -0.917754
    outer loop
      vertex 3.00606 9.5 7.5104
      vertex 2.8504 8 7.44303
      vertex 2.8504 9.5 7.44303
    endloop
  endfacet
  facet normal -0.750112 0 0.661311
    outer loop
      vertex 5.96821 8 3.15172
      vertex 6.08039 9.5 3.27895
      vertex 5.96821 9.5 3.15172
    endloop
  endfacet
  facet normal -0.750112 0 0.661311
    outer loop
      vertex 6.08039 9.5 3.27895
      vertex 5.96821 8 3.15172
      vertex 6.08039 8 3.27895
    endloop
  endfacet
  facet normal -0.790155 0 0.612907
    outer loop
      vertex 6.08039 8 3.27895
      vertex 6.18435 9.5 3.41298
      vertex 6.08039 9.5 3.27895
    endloop
  endfacet
  facet normal -0.790155 0 0.612907
    outer loop
      vertex 6.18435 9.5 3.41298
      vertex 6.08039 8 3.27895
      vertex 6.18435 8 3.41298
    endloop
  endfacet
  facet normal -0.827081 0 -0.562083
    outer loop
      vertex 6.27969 8 6.44673
      vertex 6.18435 9.5 6.58702
      vertex 6.27969 9.5 6.44673
    endloop
  endfacet
  facet normal -0.827081 -0 -0.562083
    outer loop
      vertex 6.18435 9.5 6.58702
      vertex 6.27969 8 6.44673
      vertex 6.18435 8 6.58702
    endloop
  endfacet
  facet normal -0.338739 0 -0.94088
    outer loop
      vertex 4.83435 8 7.56785
      vertex 4.99394 9.5 7.5104
      vertex 4.99394 8 7.5104
    endloop
  endfacet
  facet normal -0.338739 0 -0.94088
    outer loop
      vertex 4.99394 9.5 7.5104
      vertex 4.83435 8 7.56785
      vertex 4.83435 9.5 7.56785
    endloop
  endfacet
  facet normal -0.509043 0 -0.860741
    outer loop
      vertex 5.30073 8 7.36603
      vertex 5.44673 9.5 7.27969
      vertex 5.44673 8 7.27969
    endloop
  endfacet
  facet normal -0.509043 0 -0.860741
    outer loop
      vertex 5.44673 9.5 7.27969
      vertex 5.30073 8 7.36603
      vertex 5.30073 9.5 7.36603
    endloop
  endfacet
  facet normal 0 1 0
    outer loop
      vertex 1.5 5 4.88703
      vertex 1.30533 5 5.16953
      vertex 1.32129 5 5.3384
    endloop
  endfacet
  facet normal 0 1 0
    outer loop
      vertex 1.30533 5 5.16953
      vertex 1.5 5 4.88703
      vertex 1.5 5 4.71967
    endloop
  endfacet
  facet normal 0.0941091 0 -0.995562
    outer loop
      vertex 3.6616 8 7.67871
      vertex 3.83047 9.5 7.69467
      vertex 3.83047 8 7.69467
    endloop
  endfacet
  facet normal 0.0941091 0 -0.995562
    outer loop
      vertex 3.83047 9.5 7.69467
      vertex 3.6616 8 7.67871
      vertex 3.6616 9.5 7.67871
    endloop
  endfacet
  facet normal 0 1 0
    outer loop
      vertex 1.5 5 5.60079
      vertex 1.38482 5 5.67146
      vertex 1.43215 5 5.83435
    endloop
  endfacet
  facet normal 0 1 0
    outer loop
      vertex 1.38482 5 5.67146
      vertex 1.5 5 5.60079
      vertex 1.5 5 5.31699
    endloop
  endfacet
  facet normal 0.750112 0 -0.661311
    outer loop
      vertex 2.03178 8 6.84828
      vertex 1.91961 9.5 6.72104
      vertex 2.03178 9.5 6.84828
    endloop
  endfacet
  facet normal 0.750112 0 -0.661311
    outer loop
      vertex 1.91961 9.5 6.72104
      vertex 2.03178 8 6.84828
      vertex 1.91961 8 6.72104
    endloop
  endfacet
  facet normal 0.661311 0 0.750112
    outer loop
      vertex 2.15172 9.5 3.03178
      vertex 2.27895 8 2.91961
      vertex 2.27895 9.5 2.91961
    endloop
  endfacet
  facet normal 0.661311 0 0.750112
    outer loop
      vertex 2.27895 8 2.91961
      vertex 2.15172 9.5 3.03178
      vertex 2.15172 8 3.03178
    endloop
  endfacet
  facet normal -0.960293 0 -0.278992
    outer loop
      vertex 6.61517 8 5.67146
      vertex 6.56785 9.5 5.83435
      vertex 6.61517 9.5 5.67146
    endloop
  endfacet
  facet normal -0.960293 -0 -0.278992
    outer loop
      vertex 6.56785 9.5 5.83435
      vertex 6.61517 8 5.67146
      vertex 6.56785 8 5.83435
    endloop
  endfacet
  facet normal -0.891008 0 -0.453988
    outer loop
      vertex 6.44303 8 6.1496
      vertex 6.36603 9.5 6.30073
      vertex 6.44303 9.5 6.1496
    endloop
  endfacet
  facet normal -0.891008 -0 -0.453988
    outer loop
      vertex 6.36603 9.5 6.30073
      vertex 6.44303 8 6.1496
      vertex 6.36603 8 6.30073
    endloop
  endfacet
  facet normal -0.661311 0 0.750112
    outer loop
      vertex 5.72104 9.5 2.91961
      vertex 5.84828 8 3.03178
      vertex 5.84828 9.5 3.03178
    endloop
  endfacet
  facet normal -0.661311 0 0.750112
    outer loop
      vertex 5.84828 8 3.03178
      vertex 5.72104 9.5 2.91961
      vertex 5.72104 8 2.91961
    endloop
  endfacet
  facet normal -0.156434 0 -0.987688
    outer loop
      vertex 4.3384 8 7.67871
      vertex 4.50593 9.5 7.65217
      vertex 4.50593 8 7.65217
    endloop
  endfacet
  facet normal -0.156434 0 -0.987688
    outer loop
      vertex 4.50593 9.5 7.65217
      vertex 4.3384 8 7.67871
      vertex 4.3384 9.5 7.67871
    endloop
  endfacet
  facet normal -0.397148 0 -0.917754
    outer loop
      vertex 4.99394 8 7.5104
      vertex 5.1496 9.5 7.44303
      vertex 5.1496 8 7.44303
    endloop
  endfacet
  facet normal -0.397148 0 -0.917754
    outer loop
      vertex 5.1496 9.5 7.44303
      vertex 4.99394 8 7.5104
      vertex 4.99394 9.5 7.5104
    endloop
  endfacet
  facet normal -0.278992 0 -0.960293
    outer loop
      vertex 4.67146 8 7.61517
      vertex 4.83435 9.5 7.56785
      vertex 4.83435 8 7.56785
    endloop
  endfacet
  facet normal -0.278992 0 -0.960293
    outer loop
      vertex 4.83435 9.5 7.56785
      vertex 4.67146 8 7.61517
      vertex 4.67146 9.5 7.61517
    endloop
  endfacet
  facet normal -0.612907 0 -0.790155
    outer loop
      vertex 5.58702 8 7.18435
      vertex 5.72104 9.5 7.08039
      vertex 5.72104 8 7.08039
    endloop
  endfacet
  facet normal -0.612907 0 -0.790155
    outer loop
      vertex 5.72104 9.5 7.08039
      vertex 5.58702 8 7.18435
      vertex 5.58702 9.5 7.18435
    endloop
  endfacet
  facet normal 0 1 0
    outer loop
      vertex 1.5 5 4.57498
      vertex 1.30533 5 4.83047
      vertex 1.3 5 5
    endloop
  endfacet
  facet normal 0 1 0
    outer loop
      vertex 1.30533 5 4.83047
      vertex 1.5 5 4.57498
      vertex 1.5 5 4.4484
    endloop
  endfacet
  facet normal 0 1 0
    outer loop
      vertex 1.5 5 4.14705
      vertex 1.43215 5 4.16565
      vertex 1.38482 5 4.32854
    endloop
  endfacet
  facet normal 0 1 0
    outer loop
      vertex 1.43215 5 4.16565
      vertex 1.5 5 4.14705
      vertex 1.5 5 4.06581
    endloop
  endfacet
  facet normal 0.453988 0 -0.891008
    outer loop
      vertex 2.69926 8 7.36603
      vertex 2.8504 9.5 7.44303
      vertex 2.8504 8 7.44303
    endloop
  endfacet
  facet normal 0.453988 0 -0.891008
    outer loop
      vertex 2.8504 9.5 7.44303
      vertex 2.69926 8 7.36603
      vertex 2.69926 9.5 7.36603
    endloop
  endfacet
  facet normal 0.218141 0 -0.975917
    outer loop
      vertex 3.32854 8 7.61517
      vertex 3.49407 9.5 7.65217
      vertex 3.49407 8 7.65217
    endloop
  endfacet
  facet normal 0.218141 0 -0.975917
    outer loop
      vertex 3.49407 9.5 7.65217
      vertex 3.32854 8 7.61517
      vertex 3.32854 9.5 7.61517
    endloop
  endfacet
  facet normal 0.790155 0 -0.612907
    outer loop
      vertex 1.91961 8 6.72104
      vertex 1.81565 9.5 6.58702
      vertex 1.91961 9.5 6.72104
    endloop
  endfacet
  facet normal 0.790155 0 -0.612907
    outer loop
      vertex 1.81565 9.5 6.58702
      vertex 1.91961 8 6.72104
      vertex 1.81565 8 6.58702
    endloop
  endfacet
  facet normal -0.218141 0 0.975917
    outer loop
      vertex 4.50593 9.5 2.34782
      vertex 4.67146 8 2.38482
      vertex 4.67146 9.5 2.38482
    endloop
  endfacet
  facet normal -0.218141 0 0.975917
    outer loop
      vertex 4.67146 8 2.38482
      vertex 4.50593 9.5 2.34782
      vertex 4.50593 8 2.34782
    endloop
  endfacet
  facet normal -0.278992 0 0.960293
    outer loop
      vertex 4.67146 9.5 2.38482
      vertex 4.83435 8 2.43215
      vertex 4.83435 9.5 2.43215
    endloop
  endfacet
  facet normal -0.278992 0 0.960293
    outer loop
      vertex 4.83435 8 2.43215
      vertex 4.67146 9.5 2.38482
      vertex 4.67146 8 2.38482
    endloop
  endfacet
  facet normal -0.987688 0 -0.156434
    outer loop
      vertex 6.67871 8 5.3384
      vertex 6.65217 9.5 5.50593
      vertex 6.67871 9.5 5.3384
    endloop
  endfacet
  facet normal -0.987688 -0 -0.156434
    outer loop
      vertex 6.65217 9.5 5.50593
      vertex 6.67871 8 5.3384
      vertex 6.65217 8 5.50593
    endloop
  endfacet
  facet normal -0.750112 0 -0.661311
    outer loop
      vertex 6.08039 8 6.72104
      vertex 5.96821 9.5 6.84828
      vertex 6.08039 9.5 6.72104
    endloop
  endfacet
  facet normal -0.750112 -0 -0.661311
    outer loop
      vertex 5.96821 9.5 6.84828
      vertex 6.08039 8 6.72104
      vertex 5.96821 8 6.84828
    endloop
  endfacet
  facet normal -0.860741 0 -0.509043
    outer loop
      vertex 6.36603 8 6.30073
      vertex 6.27969 9.5 6.44673
      vertex 6.36603 9.5 6.30073
    endloop
  endfacet
  facet normal -0.860741 -0 -0.509043
    outer loop
      vertex 6.27969 9.5 6.44673
      vertex 6.36603 8 6.30073
      vertex 6.27969 8 6.44673
    endloop
  endfacet
  facet normal -0.790155 0 -0.612907
    outer loop
      vertex 6.18435 8 6.58702
      vertex 6.08039 9.5 6.72104
      vertex 6.18435 9.5 6.58702
    endloop
  endfacet
  facet normal -0.790155 -0 -0.612907
    outer loop
      vertex 6.08039 9.5 6.72104
      vertex 6.18435 8 6.58702
      vertex 6.08039 8 6.72104
    endloop
  endfacet
  facet normal -0.987688 0 0.156434
    outer loop
      vertex 6.65217 8 4.49407
      vertex 6.67871 9.5 4.6616
      vertex 6.65217 9.5 4.49407
    endloop
  endfacet
  facet normal -0.987688 0 0.156434
    outer loop
      vertex 6.67871 9.5 4.6616
      vertex 6.65217 8 4.49407
      vertex 6.67871 8 4.6616
    endloop
  endfacet
  facet normal -0.0314129 0 -0.999506
    outer loop
      vertex 4 8 7.7
      vertex 4.16953 9.5 7.69467
      vertex 4.16953 8 7.69467
    endloop
  endfacet
  facet normal -0.0314129 0 -0.999506
    outer loop
      vertex 4.16953 9.5 7.69467
      vertex 4 8 7.7
      vertex 4 9.5 7.7
    endloop
  endfacet
  facet normal -0.218141 0 -0.975917
    outer loop
      vertex 4.50593 8 7.65217
      vertex 4.67146 9.5 7.61517
      vertex 4.67146 8 7.61517
    endloop
  endfacet
  facet normal -0.218141 0 -0.975917
    outer loop
      vertex 4.67146 9.5 7.61517
      vertex 4.50593 8 7.65217
      vertex 4.50593 9.5 7.65217
    endloop
  endfacet
  facet normal -0.0941091 0 -0.995562
    outer loop
      vertex 4.16953 8 7.69467
      vertex 4.3384 9.5 7.67871
      vertex 4.3384 8 7.67871
    endloop
  endfacet
  facet normal -0.0941091 0 -0.995562
    outer loop
      vertex 4.3384 9.5 7.67871
      vertex 4.16953 8 7.69467
      vertex 4.16953 9.5 7.69467
    endloop
  endfacet
  facet normal -0.453988 0 -0.891008
    outer loop
      vertex 5.1496 8 7.44303
      vertex 5.30073 9.5 7.36603
      vertex 5.30073 8 7.36603
    endloop
  endfacet
  facet normal -0.453988 0 -0.891008
    outer loop
      vertex 5.30073 9.5 7.36603
      vertex 5.1496 8 7.44303
      vertex 5.1496 9.5 7.44303
    endloop
  endfacet
  facet normal -0.562083 0 -0.827081
    outer loop
      vertex 5.44673 8 7.27969
      vertex 5.58702 9.5 7.18435
      vertex 5.58702 8 7.18435
    endloop
  endfacet
  facet normal -0.562083 0 -0.827081
    outer loop
      vertex 5.58702 9.5 7.18435
      vertex 5.44673 8 7.27969
      vertex 5.44673 9.5 7.27969
    endloop
  endfacet
  facet normal -0.661311 0 -0.750112
    outer loop
      vertex 5.72104 8 7.08039
      vertex 5.84828 9.5 6.96821
      vertex 5.84828 8 6.96821
    endloop
  endfacet
  facet normal -0.661311 0 -0.750112
    outer loop
      vertex 5.84828 9.5 6.96821
      vertex 5.72104 8 7.08039
      vertex 5.72104 9.5 7.08039
    endloop
  endfacet
  facet normal 0 1 0
    outer loop
      vertex 1.5 5 4.71967
      vertex 1.3 5 5
      vertex 1.30533 5 5.16953
    endloop
  endfacet
  facet normal 0 1 0
    outer loop
      vertex 1.3 5 5
      vertex 1.5 5 4.71967
      vertex 1.5 5 4.57498
    endloop
  endfacet
  facet normal 0.860741 0 -0.509043
    outer loop
      vertex 1.72031 8 6.44673
      vertex 1.63397 9.5 6.30073
      vertex 1.72031 9.5 6.44673
    endloop
  endfacet
  facet normal 0.860741 0 -0.509043
    outer loop
      vertex 1.63397 9.5 6.30073
      vertex 1.72031 8 6.44673
      vertex 1.63397 8 6.30073
    endloop
  endfacet
  facet normal 0.987688 0 -0.156434
    outer loop
      vertex 1.34782 5 5.50593
      vertex 1.32129 9.5 5.3384
      vertex 1.34782 9.5 5.50593
    endloop
  endfacet
  facet normal 0.987688 0 -0.156434
    outer loop
      vertex 1.32129 9.5 5.3384
      vertex 1.34782 5 5.50593
      vertex 1.32129 5 5.3384
    endloop
  endfacet
  facet normal 0.960293 0 -0.278992
    outer loop
      vertex 1.43215 5 5.83435
      vertex 1.38482 9.5 5.67146
      vertex 1.43215 9.5 5.83435
    endloop
  endfacet
  facet normal 0.960293 0 -0.278992
    outer loop
      vertex 1.38482 9.5 5.67146
      vertex 1.43215 5 5.83435
      vertex 1.38482 5 5.67146
    endloop
  endfacet
  facet normal 0.891008 -0 0.453988
    outer loop
      vertex 1.55697 8 3.8504
      vertex 1.63397 9.5 3.69926
      vertex 1.55697 9.5 3.8504
    endloop
  endfacet
  facet normal 0.891008 0 0.453988
    outer loop
      vertex 1.63397 9.5 3.69926
      vertex 1.55697 8 3.8504
      vertex 1.63397 8 3.69926
    endloop
  endfacet
  facet normal 0.960293 -0 0.278992
    outer loop
      vertex 1.38482 5 4.32854
      vertex 1.43215 9.5 4.16565
      vertex 1.38482 9.5 4.32854
    endloop
  endfacet
  facet normal 0.960293 0 0.278992
    outer loop
      vertex 1.43215 9.5 4.16565
      vertex 1.38482 5 4.32854
      vertex 1.43215 5 4.16565
    endloop
  endfacet
  facet normal 0 1 0
    outer loop
      vertex 1.5 5 4.33653
      vertex 1.34782 5 4.49407
      vertex 1.32129 5 4.6616
    endloop
  endfacet
  facet normal 0 1 0
    outer loop
      vertex 1.34782 5 4.49407
      vertex 1.5 5 4.33653
      vertex 1.5 5 4.23675
    endloop
  endfacet
  facet normal 0.509043 0 -0.860741
    outer loop
      vertex 2.55327 8 7.27969
      vertex 2.69926 9.5 7.36603
      vertex 2.69926 8 7.36603
    endloop
  endfacet
  facet normal 0.509043 0 -0.860741
    outer loop
      vertex 2.69926 9.5 7.36603
      vertex 2.55327 8 7.27969
      vertex 2.55327 9.5 7.27969
    endloop
  endfacet
  facet normal 0.612907 0 -0.790155
    outer loop
      vertex 2.27895 8 7.08039
      vertex 2.41298 9.5 7.18435
      vertex 2.41298 8 7.18435
    endloop
  endfacet
  facet normal 0.612907 0 -0.790155
    outer loop
      vertex 2.41298 9.5 7.18435
      vertex 2.27895 8 7.08039
      vertex 2.27895 9.5 7.08039
    endloop
  endfacet
  facet normal 0.278992 0 0.960293
    outer loop
      vertex 3.16565 9.5 2.43215
      vertex 3.32854 8 2.38482
      vertex 3.32854 9.5 2.38482
    endloop
  endfacet
  facet normal 0.278992 0 0.960293
    outer loop
      vertex 3.32854 8 2.38482
      vertex 3.16565 9.5 2.43215
      vertex 3.16565 8 2.43215
    endloop
  endfacet
  facet normal 0.612907 0 0.790155
    outer loop
      vertex 2.27895 9.5 2.91961
      vertex 2.41298 8 2.81565
      vertex 2.41298 9.5 2.81565
    endloop
  endfacet
  facet normal 0.612907 0 0.790155
    outer loop
      vertex 2.41298 8 2.81565
      vertex 2.27895 9.5 2.91961
      vertex 2.27895 8 2.91961
    endloop
  endfacet
  facet normal -0.156434 0 0.987688
    outer loop
      vertex 4.3384 9.5 2.32129
      vertex 4.50593 8 2.34782
      vertex 4.50593 9.5 2.34782
    endloop
  endfacet
  facet normal -0.156434 0 0.987688
    outer loop
      vertex 4.50593 8 2.34782
      vertex 4.3384 9.5 2.32129
      vertex 4.3384 8 2.32129
    endloop
  endfacet
  facet normal -0.94088 0 -0.338739
    outer loop
      vertex 6.56785 8 5.83435
      vertex 6.5104 9.5 5.99394
      vertex 6.56785 9.5 5.83435
    endloop
  endfacet
  facet normal -0.94088 -0 -0.338739
    outer loop
      vertex 6.5104 9.5 5.99394
      vertex 6.56785 8 5.83435
      vertex 6.5104 8 5.99394
    endloop
  endfacet
  facet normal -0.917754 0 -0.397148
    outer loop
      vertex 6.5104 8 5.99394
      vertex 6.44303 9.5 6.1496
      vertex 6.5104 9.5 5.99394
    endloop
  endfacet
  facet normal -0.917754 -0 -0.397148
    outer loop
      vertex 6.44303 9.5 6.1496
      vertex 6.5104 8 5.99394
      vertex 6.44303 8 6.1496
    endloop
  endfacet
  facet normal -0.707107 0 0.707107
    outer loop
      vertex 5.84828 8 3.03178
      vertex 5.96821 9.5 3.15172
      vertex 5.84828 9.5 3.03178
    endloop
  endfacet
  facet normal -0.707107 0 0.707107
    outer loop
      vertex 5.96821 9.5 3.15172
      vertex 5.84828 8 3.03178
      vertex 5.96821 8 3.15172
    endloop
  endfacet
  facet normal -0.509043 0 0.860741
    outer loop
      vertex 5.30073 9.5 2.63397
      vertex 5.44673 8 2.72031
      vertex 5.44673 9.5 2.72031
    endloop
  endfacet
  facet normal -0.509043 0 0.860741
    outer loop
      vertex 5.44673 8 2.72031
      vertex 5.30073 9.5 2.63397
      vertex 5.30073 8 2.63397
    endloop
  endfacet
  facet normal -0.999506 0 0.0314127
    outer loop
      vertex 6.69467 8 4.83047
      vertex 6.7 9.5 5
      vertex 6.69467 9.5 4.83047
    endloop
  endfacet
  facet normal -0.999506 0 0.0314127
    outer loop
      vertex 6.7 9.5 5
      vertex 6.69467 8 4.83047
      vertex 6.7 8 5
    endloop
  endfacet
  facet normal -0.960293 0 0.278992
    outer loop
      vertex 6.56785 8 4.16565
      vertex 6.61517 9.5 4.32854
      vertex 6.56785 9.5 4.16565
    endloop
  endfacet
  facet normal -0.960293 0 0.278992
    outer loop
      vertex 6.61517 9.5 4.32854
      vertex 6.56785 8 4.16565
      vertex 6.61517 8 4.32854
    endloop
  endfacet
  facet normal -0.827081 0 0.562083
    outer loop
      vertex 6.18435 8 3.41298
      vertex 6.27969 9.5 3.55327
      vertex 6.18435 9.5 3.41298
    endloop
  endfacet
  facet normal -0.827081 0 0.562083
    outer loop
      vertex 6.27969 9.5 3.55327
      vertex 6.18435 8 3.41298
      vertex 6.27969 8 3.55327
    endloop
  endfacet
  facet normal -0.94088 0 0.338739
    outer loop
      vertex 6.5104 8 4.00606
      vertex 6.56785 9.5 4.16565
      vertex 6.5104 9.5 4.00606
    endloop
  endfacet
  facet normal -0.94088 0 0.338739
    outer loop
      vertex 6.56785 9.5 4.16565
      vertex 6.5104 8 4.00606
      vertex 6.56785 8 4.16565
    endloop
  endfacet
  facet normal -0.891008 0 0.453988
    outer loop
      vertex 6.36603 8 3.69926
      vertex 6.44303 9.5 3.8504
      vertex 6.36603 9.5 3.69926
    endloop
  endfacet
  facet normal -0.891008 0 0.453988
    outer loop
      vertex 6.44303 9.5 3.8504
      vertex 6.36603 8 3.69926
      vertex 6.44303 8 3.8504
    endloop
  endfacet
  facet normal 0.999506 0 -0.0314129
    outer loop
      vertex 1.30533 5 5.16953
      vertex 1.3 9.5 5
      vertex 1.30533 9.5 5.16953
    endloop
  endfacet
  facet normal 0.999506 0 -0.0314129
    outer loop
      vertex 1.3 9.5 5
      vertex 1.30533 5 5.16953
      vertex 1.3 5 5
    endloop
  endfacet
  facet normal 0.999506 -0 0.0314127
    outer loop
      vertex 1.3 5 5
      vertex 1.30533 9.5 4.83047
      vertex 1.3 9.5 5
    endloop
  endfacet
  facet normal 0.999506 0 0.0314127
    outer loop
      vertex 1.30533 9.5 4.83047
      vertex 1.3 5 5
      vertex 1.30533 5 4.83047
    endloop
  endfacet
  facet normal 0 1 0
    outer loop
      vertex 1.5 5 5.31699
      vertex 1.34782 5 5.50593
      vertex 1.38482 5 5.67146
    endloop
  endfacet
  facet normal 0 1 0
    outer loop
      vertex 1.34782 5 5.50593
      vertex 1.5 5 5.31699
      vertex 1.5 5 5.08324
    endloop
  endfacet
  facet normal 0.975917 0 -0.218141
    outer loop
      vertex 1.38482 5 5.67146
      vertex 1.34782 9.5 5.50593
      vertex 1.38482 9.5 5.67146
    endloop
  endfacet
  facet normal 0.975917 0 -0.218141
    outer loop
      vertex 1.34782 9.5 5.50593
      vertex 1.38482 5 5.67146
      vertex 1.34782 5 5.50593
    endloop
  endfacet
  facet normal 0.995562 0 -0.0941091
    outer loop
      vertex 1.32129 5 5.3384
      vertex 1.30533 9.5 5.16953
      vertex 1.32129 9.5 5.3384
    endloop
  endfacet
  facet normal 0.995562 0 -0.0941091
    outer loop
      vertex 1.30533 9.5 5.16953
      vertex 1.32129 5 5.3384
      vertex 1.30533 5 5.16953
    endloop
  endfacet
  facet normal 0.827081 0 -0.562083
    outer loop
      vertex 1.81565 8 6.58702
      vertex 1.72031 9.5 6.44673
      vertex 1.81565 9.5 6.58702
    endloop
  endfacet
  facet normal 0.827081 0 -0.562083
    outer loop
      vertex 1.72031 9.5 6.44673
      vertex 1.81565 8 6.58702
      vertex 1.72031 8 6.44673
    endloop
  endfacet
  facet normal 0.790155 -0 0.612907
    outer loop
      vertex 1.81565 8 3.41298
      vertex 1.91961 9.5 3.27895
      vertex 1.81565 9.5 3.41298
    endloop
  endfacet
  facet normal 0.790155 0 0.612907
    outer loop
      vertex 1.91961 9.5 3.27895
      vertex 1.81565 8 3.41298
      vertex 1.91961 8 3.27895
    endloop
  endfacet
  facet normal 0.707107 -0 0.707107
    outer loop
      vertex 2.03178 8 3.15172
      vertex 2.15172 9.5 3.03178
      vertex 2.03178 9.5 3.15172
    endloop
  endfacet
  facet normal 0.707107 0 0.707107
    outer loop
      vertex 2.15172 9.5 3.03178
      vertex 2.03178 8 3.15172
      vertex 2.15172 8 3.03178
    endloop
  endfacet
  facet normal 0.987688 -0 0.156434
    outer loop
      vertex 1.32129 5 4.6616
      vertex 1.34782 9.5 4.49407
      vertex 1.32129 9.5 4.6616
    endloop
  endfacet
  facet normal 0.987688 0 0.156434
    outer loop
      vertex 1.34782 9.5 4.49407
      vertex 1.32129 5 4.6616
      vertex 1.34782 5 4.49407
    endloop
  endfacet
  facet normal 0 1 0
    outer loop
      vertex 1.5 5 4.06581
      vertex 1.4896 5 4.00606
      vertex 1.43215 5 4.16565
    endloop
  endfacet
  facet normal -0 1 0
    outer loop
      vertex 1.4896 5 4.00606
      vertex 1.5 5 4.06581
      vertex 1.5 5 3.99175
    endloop
  endfacet
  facet normal 0.94088 -0 0.338739
    outer loop
      vertex 1.43215 5 4.16565
      vertex 1.4896 9.5 4.00606
      vertex 1.43215 9.5 4.16565
    endloop
  endfacet
  facet normal 0.94088 0 0.338739
    outer loop
      vertex 1.4896 9.5 4.00606
      vertex 1.43215 5 4.16565
      vertex 1.4896 5 4.00606
    endloop
  endfacet
  facet normal 0 1 0
    outer loop
      vertex 1.5 5 4.4484
      vertex 1.32129 5 4.6616
      vertex 1.30533 5 4.83047
    endloop
  endfacet
  facet normal 0 1 0
    outer loop
      vertex 1.32129 5 4.6616
      vertex 1.5 5 4.4484
      vertex 1.5 5 4.33653
    endloop
  endfacet
  facet normal 0.995562 -0 0.0941091
    outer loop
      vertex 1.30533 5 4.83047
      vertex 1.32129 9.5 4.6616
      vertex 1.30533 9.5 4.83047
    endloop
  endfacet
  facet normal 0.995562 0 0.0941091
    outer loop
      vertex 1.32129 9.5 4.6616
      vertex 1.30533 5 4.83047
      vertex 1.32129 5 4.6616
    endloop
  endfacet
  facet normal 0.156434 0 -0.987688
    outer loop
      vertex 3.49407 8 7.65217
      vertex 3.6616 9.5 7.67871
      vertex 3.6616 8 7.67871
    endloop
  endfacet
  facet normal 0.156434 0 -0.987688
    outer loop
      vertex 3.6616 9.5 7.67871
      vertex 3.49407 8 7.65217
      vertex 3.49407 9.5 7.65217
    endloop
  endfacet
  facet normal 0.278992 0 -0.960293
    outer loop
      vertex 3.16565 8 7.56785
      vertex 3.32854 9.5 7.61517
      vertex 3.32854 8 7.61517
    endloop
  endfacet
  facet normal 0.278992 0 -0.960293
    outer loop
      vertex 3.32854 9.5 7.61517
      vertex 3.16565 8 7.56785
      vertex 3.16565 9.5 7.56785
    endloop
  endfacet
  facet normal 0.338739 0 -0.94088
    outer loop
      vertex 3.00606 8 7.5104
      vertex 3.16565 9.5 7.56785
      vertex 3.16565 8 7.56785
    endloop
  endfacet
  facet normal 0.338739 0 -0.94088
    outer loop
      vertex 3.16565 9.5 7.56785
      vertex 3.00606 8 7.5104
      vertex 3.00606 9.5 7.5104
    endloop
  endfacet
  facet normal 0.562083 0 -0.827081
    outer loop
      vertex 2.41298 8 7.18435
      vertex 2.55327 9.5 7.27969
      vertex 2.55327 8 7.27969
    endloop
  endfacet
  facet normal 0.562083 0 -0.827081
    outer loop
      vertex 2.55327 9.5 7.27969
      vertex 2.41298 8 7.18435
      vertex 2.41298 9.5 7.18435
    endloop
  endfacet
  facet normal 0.218141 0 0.975917
    outer loop
      vertex 3.32854 9.5 2.38482
      vertex 3.49407 8 2.34782
      vertex 3.49407 9.5 2.34782
    endloop
  endfacet
  facet normal 0.218141 0 0.975917
    outer loop
      vertex 3.49407 8 2.34782
      vertex 3.32854 9.5 2.38482
      vertex 3.32854 8 2.38482
    endloop
  endfacet
  facet normal -0.0314127 0 0.999506
    outer loop
      vertex 4 9.5 2.3
      vertex 4.16953 8 2.30533
      vertex 4.16953 9.5 2.30533
    endloop
  endfacet
  facet normal -0.0314127 0 0.999506
    outer loop
      vertex 4.16953 8 2.30533
      vertex 4 9.5 2.3
      vertex 4 8 2.3
    endloop
  endfacet
  facet normal -0.453988 0 0.891008
    outer loop
      vertex 5.1496 9.5 2.55697
      vertex 5.30073 8 2.63397
      vertex 5.30073 9.5 2.63397
    endloop
  endfacet
  facet normal -0.453988 0 0.891008
    outer loop
      vertex 5.30073 8 2.63397
      vertex 5.1496 9.5 2.55697
      vertex 5.1496 8 2.55697
    endloop
  endfacet
  facet normal -0.562083 0 0.827081
    outer loop
      vertex 5.44673 9.5 2.72031
      vertex 5.58702 8 2.81565
      vertex 5.58702 9.5 2.81565
    endloop
  endfacet
  facet normal -0.562083 0 0.827081
    outer loop
      vertex 5.58702 8 2.81565
      vertex 5.44673 9.5 2.72031
      vertex 5.44673 8 2.72031
    endloop
  endfacet
  facet normal -0.612907 0 0.790155
    outer loop
      vertex 5.58702 9.5 2.81565
      vertex 5.72104 8 2.91961
      vertex 5.72104 9.5 2.91961
    endloop
  endfacet
  facet normal -0.612907 0 0.790155
    outer loop
      vertex 5.72104 8 2.91961
      vertex 5.58702 9.5 2.81565
      vertex 5.58702 8 2.81565
    endloop
  endfacet
  facet normal -0.995562 0 0.0941091
    outer loop
      vertex 6.67871 8 4.6616
      vertex 6.69467 9.5 4.83047
      vertex 6.67871 9.5 4.6616
    endloop
  endfacet
  facet normal -0.995562 0 0.0941091
    outer loop
      vertex 6.69467 9.5 4.83047
      vertex 6.67871 8 4.6616
      vertex 6.69467 8 4.83047
    endloop
  endfacet
  facet normal -0.975917 0 0.218141
    outer loop
      vertex 6.61517 8 4.32854
      vertex 6.65217 9.5 4.49407
      vertex 6.61517 9.5 4.32854
    endloop
  endfacet
  facet normal -0.975917 0 0.218141
    outer loop
      vertex 6.65217 9.5 4.49407
      vertex 6.61517 8 4.32854
      vertex 6.65217 8 4.49407
    endloop
  endfacet
  facet normal -0.860741 0 0.509043
    outer loop
      vertex 6.27969 8 3.55327
      vertex 6.36603 9.5 3.69926
      vertex 6.27969 9.5 3.55327
    endloop
  endfacet
  facet normal -0.860741 0 0.509043
    outer loop
      vertex 6.36603 9.5 3.69926
      vertex 6.27969 8 3.55327
      vertex 6.36603 8 3.69926
    endloop
  endfacet
  facet normal -0.917754 0 0.397148
    outer loop
      vertex 6.44303 8 3.8504
      vertex 6.5104 9.5 4.00606
      vertex 6.44303 9.5 3.8504
    endloop
  endfacet
  facet normal -0.917754 0 0.397148
    outer loop
      vertex 6.5104 9.5 4.00606
      vertex 6.44303 8 3.8504
      vertex 6.5104 8 4.00606
    endloop
  endfacet
  facet normal 0 1 0
    outer loop
      vertex 1.5 5 5.08324
      vertex 1.32129 5 5.3384
      vertex 1.34782 5 5.50593
    endloop
  endfacet
  facet normal 0 1 0
    outer loop
      vertex 1.32129 5 5.3384
      vertex 1.5 5 5.08324
      vertex 1.5 5 4.88703
    endloop
  endfacet
  facet normal 0 1 0
    outer loop
      vertex 1.5 5 5.95344
      vertex 1.43215 5 5.83435
      vertex 1.4896 5 5.99394
    endloop
  endfacet
  facet normal -0 1 0
    outer loop
      vertex 1.43215 5 5.83435
      vertex 1.5 5 5.95344
      vertex 1.5 5 5.60079
    endloop
  endfacet
  facet normal 0.94088 0 -0.338739
    outer loop
      vertex 1.4896 5 5.99394
      vertex 1.43215 9.5 5.83435
      vertex 1.4896 9.5 5.99394
    endloop
  endfacet
  facet normal 0.94088 0 -0.338739
    outer loop
      vertex 1.43215 9.5 5.83435
      vertex 1.4896 5 5.99394
      vertex 1.43215 5 5.83435
    endloop
  endfacet
  facet normal 0.917754 0 -0.397148
    outer loop
      vertex 1.5 8 6.01796
      vertex 1.55697 9.5 6.1496
      vertex 1.55697 8 6.1496
    endloop
  endfacet
  facet normal 0.917754 2.54516e-09 -0.397148
    outer loop
      vertex 1.55697 9.5 6.1496
      vertex 1.5 8 6.01796
      vertex 1.4896 9.5 5.99394
    endloop
  endfacet
  facet normal 0.917754 0 -0.397148
    outer loop
      vertex 1.4896 5 5.99394
      vertex 1.5 8 6.01796
      vertex 1.5 5 6.01796
    endloop
  endfacet
  facet normal 0.917754 0 -0.397148
    outer loop
      vertex 1.5 8 6.01796
      vertex 1.4896 5 5.99394
      vertex 1.4896 9.5 5.99394
    endloop
  endfacet
  facet normal 0 1 0
    outer loop
      vertex 1.5 5 6.01796
      vertex 1.5 5 5.95344
      vertex 1.4896 5 5.99394
    endloop
  endfacet
  facet normal 0.750112 -0 0.661311
    outer loop
      vertex 1.91961 8 3.27895
      vertex 2.03178 9.5 3.15172
      vertex 1.91961 9.5 3.27895
    endloop
  endfacet
  facet normal 0.750112 0 0.661311
    outer loop
      vertex 2.03178 9.5 3.15172
      vertex 1.91961 8 3.27895
      vertex 2.03178 8 3.15172
    endloop
  endfacet
  facet normal 0.827081 -0 0.562083
    outer loop
      vertex 1.72031 8 3.55327
      vertex 1.81565 9.5 3.41298
      vertex 1.72031 9.5 3.55327
    endloop
  endfacet
  facet normal 0.827081 0 0.562083
    outer loop
      vertex 1.81565 9.5 3.41298
      vertex 1.72031 8 3.55327
      vertex 1.81565 8 3.41298
    endloop
  endfacet
  facet normal 0.860741 -0 0.509043
    outer loop
      vertex 1.63397 8 3.69926
      vertex 1.72031 9.5 3.55327
      vertex 1.63397 9.5 3.69926
    endloop
  endfacet
  facet normal 0.860741 0 0.509043
    outer loop
      vertex 1.72031 9.5 3.55327
      vertex 1.63397 8 3.69926
      vertex 1.72031 8 3.55327
    endloop
  endfacet
  facet normal 0.917754 2.54516e-09 0.397148
    outer loop
      vertex 1.4896 9.5 4.00606
      vertex 1.5 8 3.98204
      vertex 1.55697 9.5 3.8504
    endloop
  endfacet
  facet normal 0.917754 -0 0.397148
    outer loop
      vertex 1.4896 5 4.00606
      vertex 1.5 8 3.98204
      vertex 1.4896 9.5 4.00606
    endloop
  endfacet
  facet normal 0.917754 0 0.397148
    outer loop
      vertex 1.5 8 3.98204
      vertex 1.4896 5 4.00606
      vertex 1.5 5 3.98204
    endloop
  endfacet
  facet normal 0.917754 0 0.397148
    outer loop
      vertex 1.55697 9.5 3.8504
      vertex 1.5 8 3.98204
      vertex 1.55697 8 3.8504
    endloop
  endfacet
  facet normal 0 1 0
    outer loop
      vertex 1.5 5 3.99175
      vertex 1.5 5 3.98204
      vertex 1.4896 5 4.00606
    endloop
  endfacet
  facet normal 0.975917 -0 0.218141
    outer loop
      vertex 1.34782 5 4.49407
      vertex 1.38482 9.5 4.32854
      vertex 1.34782 9.5 4.49407
    endloop
  endfacet
  facet normal 0.975917 0 0.218141
    outer loop
      vertex 1.38482 9.5 4.32854
      vertex 1.34782 5 4.49407
      vertex 1.38482 5 4.32854
    endloop
  endfacet
  facet normal 0 1 0
    outer loop
      vertex 1.5 5 4.23675
      vertex 1.38482 5 4.32854
      vertex 1.34782 5 4.49407
    endloop
  endfacet
  facet normal 0 1 0
    outer loop
      vertex 1.38482 5 4.32854
      vertex 1.5 5 4.23675
      vertex 1.5 5 4.14705
    endloop
  endfacet
  facet normal 0.661311 0 -0.750112
    outer loop
      vertex 2.15172 8 6.96821
      vertex 2.27895 9.5 7.08039
      vertex 2.27895 8 7.08039
    endloop
  endfacet
  facet normal 0.661311 0 -0.750112
    outer loop
      vertex 2.27895 9.5 7.08039
      vertex 2.15172 8 6.96821
      vertex 2.15172 9.5 6.96821
    endloop
  endfacet
  facet normal 0.707107 0 -0.707107
    outer loop
      vertex 2.15172 8 6.96821
      vertex 2.03178 9.5 6.84828
      vertex 2.15172 9.5 6.96821
    endloop
  endfacet
  facet normal 0.707107 0 -0.707107
    outer loop
      vertex 2.03178 9.5 6.84828
      vertex 2.15172 8 6.96821
      vertex 2.03178 8 6.84828
    endloop
  endfacet
  facet normal 0.453988 0 0.891008
    outer loop
      vertex 2.69926 9.5 2.63397
      vertex 2.8504 8 2.55697
      vertex 2.8504 9.5 2.55697
    endloop
  endfacet
  facet normal 0.453988 0 0.891008
    outer loop
      vertex 2.8504 8 2.55697
      vertex 2.69926 9.5 2.63397
      vertex 2.69926 8 2.63397
    endloop
  endfacet
  facet normal 0.338739 0 0.94088
    outer loop
      vertex 3.00606 9.5 2.4896
      vertex 3.16565 8 2.43215
      vertex 3.16565 9.5 2.43215
    endloop
  endfacet
  facet normal 0.338739 0 0.94088
    outer loop
      vertex 3.16565 8 2.43215
      vertex 3.00606 9.5 2.4896
      vertex 3.00606 8 2.4896
    endloop
  endfacet
  facet normal -0.338739 0 0.94088
    outer loop
      vertex 4.83435 9.5 2.43215
      vertex 4.99394 8 2.4896
      vertex 4.99394 9.5 2.4896
    endloop
  endfacet
  facet normal -0.338739 0 0.94088
    outer loop
      vertex 4.99394 8 2.4896
      vertex 4.83435 9.5 2.43215
      vertex 4.83435 8 2.43215
    endloop
  endfacet
  facet normal 0.891008 0 -0.453988
    outer loop
      vertex 1.63397 8 6.30073
      vertex 1.55697 9.5 6.1496
      vertex 1.63397 9.5 6.30073
    endloop
  endfacet
  facet normal 0.891008 0 -0.453988
    outer loop
      vertex 1.55697 9.5 6.1496
      vertex 1.63397 8 6.30073
      vertex 1.55697 8 6.1496
    endloop
  endfacet
  facet normal 0.0941091 0 0.995562
    outer loop
      vertex 3.6616 9.5 2.32129
      vertex 3.83047 8 2.30533
      vertex 3.83047 9.5 2.30533
    endloop
  endfacet
  facet normal 0.0941091 0 0.995562
    outer loop
      vertex 3.83047 8 2.30533
      vertex 3.6616 9.5 2.32129
      vertex 3.6616 8 2.32129
    endloop
  endfacet
  facet normal 0.0314129 0 0.999506
    outer loop
      vertex 3.83047 9.5 2.30533
      vertex 4 8 2.3
      vertex 4 9.5 2.3
    endloop
  endfacet
  facet normal 0.0314129 0 0.999506
    outer loop
      vertex 4 8 2.3
      vertex 3.83047 9.5 2.30533
      vertex 3.83047 8 2.30533
    endloop
  endfacet
  facet normal 0.562083 0 0.827081
    outer loop
      vertex 2.41298 9.5 2.81565
      vertex 2.55327 8 2.72031
      vertex 2.55327 9.5 2.72031
    endloop
  endfacet
  facet normal 0.562083 0 0.827081
    outer loop
      vertex 2.55327 8 2.72031
      vertex 2.41298 9.5 2.81565
      vertex 2.41298 8 2.81565
    endloop
  endfacet
  facet normal 0.509043 0 0.860741
    outer loop
      vertex 2.55327 9.5 2.72031
      vertex 2.69926 8 2.63397
      vertex 2.69926 9.5 2.63397
    endloop
  endfacet
  facet normal 0.509043 0 0.860741
    outer loop
      vertex 2.69926 8 2.63397
      vertex 2.55327 9.5 2.72031
      vertex 2.55327 8 2.72031
    endloop
  endfacet
  facet normal 0.397148 0 0.917754
    outer loop
      vertex 2.8504 9.5 2.55697
      vertex 3.00606 8 2.4896
      vertex 3.00606 9.5 2.4896
    endloop
  endfacet
  facet normal 0.397148 0 0.917754
    outer loop
      vertex 3.00606 8 2.4896
      vertex 2.8504 9.5 2.55697
      vertex 2.8504 8 2.55697
    endloop
  endfacet
  facet normal -0.397148 0 0.917754
    outer loop
      vertex 4.99394 9.5 2.4896
      vertex 5.1496 8 2.55697
      vertex 5.1496 9.5 2.55697
    endloop
  endfacet
  facet normal -0.397148 0 0.917754
    outer loop
      vertex 5.1496 8 2.55697
      vertex 4.99394 9.5 2.4896
      vertex 4.99394 8 2.4896
    endloop
  endfacet
  facet normal 0.156434 0 0.987688
    outer loop
      vertex 3.49407 9.5 2.34782
      vertex 3.6616 8 2.32129
      vertex 3.6616 9.5 2.32129
    endloop
  endfacet
  facet normal 0.156434 0 0.987688
    outer loop
      vertex 3.6616 8 2.32129
      vertex 3.49407 9.5 2.34782
      vertex 3.49407 8 2.34782
    endloop
  endfacet
endsolid OpenSCAD_Model
