solid OpenSCAD_Model
  facet normal 0.862459 -0.090648 0.497942
    outer loop
      vertex -27.8061 0 0
      vertex -27.417 3.70209 0
      vertex -30 0 3.79999
    endloop
  endfacet
  facet normal 0.862459 -0.0906485 0.497942
    outer loop
      vertex -29.3444 6.23735 3.79999
      vertex -27.417 3.70209 0
      vertex -27.1984 5.78121 0
    endloop
  endfacet
  facet normal 0.862459 -0.0906483 0.497942
    outer loop
      vertex -27.417 3.70209 0
      vertex -29.3444 6.23735 3.79999
      vertex -30 0 3.79999
    endloop
  endfacet
  facet normal -0.86246 0.0906478 0.497942
    outer loop
      vertex -30 0 3.79999
      vertex -31.9754 2.07912 0
      vertex -32.1939 0 0
    endloop
  endfacet
  facet normal -0.862459 0.0906483 0.497942
    outer loop
      vertex -31.9754 2.07912 0
      vertex -30 0 3.79999
      vertex -29.3444 6.23735 3.79999
    endloop
  endfacet
  facet normal -0.862459 0.0906482 0.497942
    outer loop
      vertex -29.3444 6.23735 3.79999
      vertex -31.4904 6.69349 0
      vertex -31.9754 2.07912 0
    endloop
  endfacet
  facet normal 0.824766 -0.267983 0.497942
    outer loop
      vertex -27.1984 5.78121 0
      vertex -26.0481 9.3215 0
      vertex -29.3444 6.23735 3.79999
    endloop
  endfacet
  facet normal 0.824766 -0.267982 0.497943
    outer loop
      vertex -27.4064 12.2021 3.79999
      vertex -26.0481 9.3215 0
      vertex -25.4021 11.3097 0
    endloop
  endfacet
  facet normal 0.824766 -0.267982 0.497943
    outer loop
      vertex -26.0481 9.3215 0
      vertex -27.4064 12.2021 3.79999
      vertex -29.3444 6.23735 3.79999
    endloop
  endfacet
  facet normal -0.824766 0.267982 0.497942
    outer loop
      vertex -29.3444 6.23735 3.79999
      vertex -30.8444 8.68174 0
      vertex -31.4904 6.69349 0
    endloop
  endfacet
  facet normal -0.824766 0.267982 0.497942
    outer loop
      vertex -30.8444 8.68174 0
      vertex -29.3444 6.23735 3.79999
      vertex -27.4064 12.2021 3.79999
    endloop
  endfacet
  facet normal -0.824766 0.267983 0.497942
    outer loop
      vertex -27.4064 12.2021 3.79999
      vertex -29.4106 13.0944 0
      vertex -30.8444 8.68174 0
    endloop
  endfacet
  facet normal 0.751026 -0.433605 0.497943
    outer loop
      vertex -25.4021 11.3097 0
      vertex -23.5409 14.5335 0
      vertex -27.4064 12.2021 3.79999
    endloop
  endfacet
  facet normal 0.751026 -0.433605 0.497942
    outer loop
      vertex -24.2705 17.6336 3.79999
      vertex -23.5409 14.5335 0
      vertex -22.4956 16.344 0
    endloop
  endfacet
  facet normal 0.751026 -0.433605 0.497942
    outer loop
      vertex -23.5409 14.5335 0
      vertex -24.2705 17.6336 3.79999
      vertex -27.4064 12.2021 3.79999
    endloop
  endfacet
  facet normal -0.751026 0.433605 0.497942
    outer loop
      vertex -27.4064 12.2021 3.79999
      vertex -28.3653 14.9049 0
      vertex -29.4106 13.0944 0
    endloop
  endfacet
  facet normal -0.751026 0.433605 0.497942
    outer loop
      vertex -28.3653 14.9049 0
      vertex -27.4064 12.2021 3.79999
      vertex -24.2705 17.6336 3.79999
    endloop
  endfacet
  facet normal -0.751026 0.433605 0.497942
    outer loop
      vertex -24.2705 17.6336 3.79999
      vertex -26.0454 18.9231 0
      vertex -28.3653 14.9049 0
    endloop
  endfacet
  facet normal 0.644463 -0.580277 0.497942
    outer loop
      vertex -22.4956 16.344 0
      vertex -20.0048 19.1103 0
      vertex -24.2705 17.6336 3.79999
    endloop
  endfacet
  facet normal 0.644463 -0.580277 0.497942
    outer loop
      vertex -24.2705 17.6336 3.79999
      vertex -18.6059 20.6639 0
      vertex -20.0739 22.2943 3.79999
    endloop
  endfacet
  facet normal 0.644463 -0.580278 0.497942
    outer loop
      vertex -18.6059 20.6639 0
      vertex -24.2705 17.6336 3.79999
      vertex -20.0048 19.1103 0
    endloop
  endfacet
  facet normal -0.644463 0.580277 0.497942
    outer loop
      vertex -24.2705 17.6336 3.79999
      vertex -24.6466 20.4767 0
      vertex -26.0454 18.9231 0
    endloop
  endfacet
  facet normal -0.644463 0.580277 0.497942
    outer loop
      vertex -24.6466 20.4767 0
      vertex -24.2705 17.6336 3.79999
      vertex -20.0739 22.2943 3.79999
    endloop
  endfacet
  facet normal -0.644463 0.580277 0.497942
    outer loop
      vertex -20.0739 22.2943 3.79999
      vertex -21.5419 23.9248 0
      vertex -24.6466 20.4767 0
    endloop
  endfacet
  facet normal 0.509733 -0.701588 0.497942
    outer loop
      vertex -18.6059 20.6639 0
      vertex -15.5943 22.852 0
      vertex -20.0739 22.2943 3.79999
    endloop
  endfacet
  facet normal 0.509733 -0.701588 0.497942
    outer loop
      vertex -15.5943 22.852 0
      vertex -15 25.9808 3.79999
      vertex -20.0739 22.2943 3.79999
    endloop
  endfacet
  facet normal 0.509733 -0.701588 0.497943
    outer loop
      vertex -15 25.9808 3.79999
      vertex -15.5943 22.852 0
      vertex -13.903 24.0808 0
    endloop
  endfacet
  facet normal -0.509733 0.701588 0.497942
    outer loop
      vertex -19.8506 25.1536 0
      vertex -20.0739 22.2943 3.79999
      vertex -15 25.9808 3.79999
    endloop
  endfacet
  facet normal -0.509733 0.701588 0.497942
    outer loop
      vertex -20.0739 22.2943 3.79999
      vertex -19.8506 25.1536 0
      vertex -21.5419 23.9248 0
    endloop
  endfacet
  facet normal -0.509733 0.701588 0.497942
    outer loop
      vertex -15 25.9808 3.79999
      vertex -16.097 27.8808 0
      vertex -19.8506 25.1536 0
    endloop
  endfacet
  facet normal 0.352726 -0.792236 0.497943
    outer loop
      vertex -13.903 24.0808 0
      vertex -10.5024 25.5948 0
      vertex -15 25.9808 3.79999
    endloop
  endfacet
  facet normal 0.352726 -0.792236 0.497943
    outer loop
      vertex -10.5024 25.5948 0
      vertex -9.27051 28.5317 3.79999
      vertex -15 25.9808 3.79999
    endloop
  endfacet
  facet normal 0.352726 -0.792236 0.497943
    outer loop
      vertex -9.27051 28.5317 3.79999
      vertex -10.5024 25.5948 0
      vertex -8.59255 26.4451 0
    endloop
  endfacet
  facet normal -0.352726 0.792236 0.497942
    outer loop
      vertex -14.1871 28.7311 0
      vertex -15 25.9808 3.79999
      vertex -9.27051 28.5317 3.79999
    endloop
  endfacet
  facet normal -0.352726 0.792236 0.497942
    outer loop
      vertex -15 25.9808 3.79999
      vertex -14.1871 28.7311 0
      vertex -16.097 27.8808 0
    endloop
  endfacet
  facet normal -0.352726 0.792236 0.497942
    outer loop
      vertex -9.27051 28.5317 3.79999
      vertex -9.94847 30.6182 0
      vertex -14.1871 28.7311 0
    endloop
  endfacet
  facet normal 0.180303 -0.848259 0.497943
    outer loop
      vertex -8.59255 26.4451 0
      vertex -4.95141 27.2191 0
      vertex -9.27051 28.5317 3.79999
    endloop
  endfacet
  facet normal 0.180303 -0.84826 0.497942
    outer loop
      vertex -4.95141 27.2191 0
      vertex -3.13585 29.8357 3.79999
      vertex -9.27051 28.5317 3.79999
    endloop
  endfacet
  facet normal 0.180303 -0.84826 0.497942
    outer loop
      vertex -3.13585 29.8357 3.79999
      vertex -4.95141 27.2191 0
      vertex -2.90653 27.6537 0
    endloop
  endfacet
  facet normal -0.180303 0.84826 0.497942
    outer loop
      vertex -7.90359 31.0529 0
      vertex -9.27051 28.5317 3.79999
      vertex -3.13585 29.8357 3.79999
    endloop
  endfacet
  facet normal -0.180303 0.84826 0.497942
    outer loop
      vertex -9.27051 28.5317 3.79999
      vertex -7.90359 31.0529 0
      vertex -9.94847 30.6182 0
    endloop
  endfacet
  facet normal -0.180303 0.848259 0.497942
    outer loop
      vertex -3.13585 29.8357 3.79999
      vertex -3.36518 32.0176 0
      vertex -7.90359 31.0529 0
    endloop
  endfacet
  facet normal 0 -0.86721 0.497942
    outer loop
      vertex -2.90653 27.6537 0
      vertex 0.0999994 29.8357 3.79999
      vertex -3.13585 29.8357 3.79999
    endloop
  endfacet
  facet normal 0 -0.86721 0.497942
    outer loop
      vertex 0.0999994 29.8357 3.79999
      vertex -2.90653 27.6537 0
      vertex 0.0999994 27.6537 0
    endloop
  endfacet
  facet normal 0 0.86721 0.497943
    outer loop
      vertex 0.0999994 32.0176 0
      vertex -3.13585 29.8357 3.79999
      vertex 0.0999994 29.8357 3.79999
    endloop
  endfacet
  facet normal 0 0.86721 0.497943
    outer loop
      vertex -3.13585 29.8357 3.79999
      vertex 0.0999994 32.0176 0
      vertex -3.36518 32.0176 0
    endloop
  endfacet
  facet normal 0.180303 0.84826 0.497942
    outer loop
      vertex -4.89605 -28.3107 1.83953
      vertex -4.71238 -27.2699 0
      vertex -6.54766 -26.8798 0
    endloop
  endfacet
  facet normal 0.180303 0.84826 0.497942
    outer loop
      vertex -4.89605 -28.3107 1.83953
      vertex -9.27051 -28.5317 3.79999
      vertex -5.09179 -29.4199 3.79999
    endloop
  endfacet
  facet normal 0.180303 0.84826 0.497942
    outer loop
      vertex -6.54766 -26.8798 0
      vertex -9.27051 -28.5317 3.79999
      vertex -4.89605 -28.3107 1.83953
    endloop
  endfacet
  facet normal 0.180303 0.848259 0.497943
    outer loop
      vertex -9.27051 -28.5317 3.79999
      vertex -6.54766 -26.8798 0
      vertex -8.59255 -26.4451 0
    endloop
  endfacet
  facet normal -0.180303 -0.84826 0.497942
    outer loop
      vertex -5.46574 -31.5389 0.0547985
      vertex -5.09179 -29.4199 3.79999
      vertex -9.27051 -28.5317 3.79999
    endloop
  endfacet
  facet normal -0.180303 -0.84826 0.497942
    outer loop
      vertex -9.94847 -30.6182 0
      vertex -5.46574 -31.5389 0.0547985
      vertex -9.27051 -28.5317 3.79999
    endloop
  endfacet
  facet normal -0.180301 -0.848252 0.497956
    outer loop
      vertex -5.46574 -31.5389 0.0547985
      vertex -9.94847 -30.6182 0
      vertex -5.47121 -31.5699 0
    endloop
  endfacet
  facet normal 0.352726 0.792236 0.497943
    outer loop
      vertex -9.27051 -28.5317 3.79999
      vertex -8.59255 -26.4451 0
      vertex -11.9932 -24.9311 0
    endloop
  endfacet
  facet normal 0.352726 0.792236 0.497943
    outer loop
      vertex -11.9932 -24.9311 0
      vertex -15 -25.9808 3.79999
      vertex -9.27051 -28.5317 3.79999
    endloop
  endfacet
  facet normal 0.352726 0.792236 0.497943
    outer loop
      vertex -15 -25.9808 3.79999
      vertex -11.9932 -24.9311 0
      vertex -13.903 -24.0808 0
    endloop
  endfacet
  facet normal -0.352726 -0.792236 0.497942
    outer loop
      vertex -11.8583 -29.7679 0
      vertex -9.27051 -28.5317 3.79999
      vertex -15 -25.9808 3.79999
    endloop
  endfacet
  facet normal -0.352726 -0.792236 0.497942
    outer loop
      vertex -9.27051 -28.5317 3.79999
      vertex -11.8583 -29.7679 0
      vertex -9.94847 -30.6182 0
    endloop
  endfacet
  facet normal -0.352726 -0.792236 0.497942
    outer loop
      vertex -11.8583 -29.7679 0
      vertex -15 -25.9808 3.79999
      vertex -16.097 -27.8808 0
    endloop
  endfacet
  facet normal 0.509733 0.701588 0.497943
    outer loop
      vertex -15 -25.9808 3.79999
      vertex -13.903 -24.0808 0
      vertex -16.9146 -21.8927 0
    endloop
  endfacet
  facet normal 0.509733 0.701588 0.497942
    outer loop
      vertex -16.9146 -21.8927 0
      vertex -20.0739 -22.2943 3.79999
      vertex -15 -25.9808 3.79999
    endloop
  endfacet
  facet normal 0.509733 0.701588 0.497942
    outer loop
      vertex -20.0739 -22.2943 3.79999
      vertex -16.9146 -21.8927 0
      vertex -18.6059 -20.6639 0
    endloop
  endfacet
  facet normal -0.509733 -0.701588 0.497942
    outer loop
      vertex -17.7883 -26.652 0
      vertex -15 -25.9808 3.79999
      vertex -20.0739 -22.2943 3.79999
    endloop
  endfacet
  facet normal -0.509733 -0.701588 0.497942
    outer loop
      vertex -15 -25.9808 3.79999
      vertex -17.7883 -26.652 0
      vertex -16.097 -27.8808 0
    endloop
  endfacet
  facet normal -0.509733 -0.701588 0.497942
    outer loop
      vertex -17.7883 -26.652 0
      vertex -20.0739 -22.2943 3.79999
      vertex -21.5419 -23.9248 0
    endloop
  endfacet
  facet normal 0.644462 0.580277 0.497942
    outer loop
      vertex -20.0739 -22.2943 3.79999
      vertex -18.6059 -20.6639 0
      vertex -21.0967 -17.8976 0
    endloop
  endfacet
  facet normal 0.644463 0.580277 0.497942
    outer loop
      vertex -24.2705 -17.6336 3.79999
      vertex -21.0967 -17.8976 0
      vertex -22.4956 -16.344 0
    endloop
  endfacet
  facet normal 0.644463 0.580277 0.497942
    outer loop
      vertex -21.0967 -17.8976 0
      vertex -24.2705 -17.6336 3.79999
      vertex -20.0739 -22.2943 3.79999
    endloop
  endfacet
  facet normal -0.644463 -0.580277 0.497942
    outer loop
      vertex -22.9408 -22.3712 0
      vertex -20.0739 -22.2943 3.79999
      vertex -24.2705 -17.6336 3.79999
    endloop
  endfacet
  facet normal -0.644463 -0.580277 0.497942
    outer loop
      vertex -20.0739 -22.2943 3.79999
      vertex -22.9408 -22.3712 0
      vertex -21.5419 -23.9248 0
    endloop
  endfacet
  facet normal -0.644463 -0.580277 0.497942
    outer loop
      vertex -22.9408 -22.3712 0
      vertex -24.2705 -17.6336 3.79999
      vertex -26.0454 -18.9231 0
    endloop
  endfacet
  facet normal 0.751026 0.433605 0.497942
    outer loop
      vertex -24.2705 -17.6336 3.79999
      vertex -22.4956 -16.344 0
      vertex -24.3568 -13.1202 0
    endloop
  endfacet
  facet normal 0.751026 0.433605 0.497943
    outer loop
      vertex -27.4064 -12.2021 3.79999
      vertex -24.3568 -13.1202 0
      vertex -25.4021 -11.3097 0
    endloop
  endfacet
  facet normal 0.751026 0.433605 0.497942
    outer loop
      vertex -24.3568 -13.1202 0
      vertex -27.4064 -12.2021 3.79999
      vertex -24.2705 -17.6336 3.79999
    endloop
  endfacet
  facet normal -0.751026 -0.433605 0.497943
    outer loop
      vertex -27.0907 -17.1126 0
      vertex -24.2705 -17.6336 3.79999
      vertex -27.4064 -12.2021 3.79999
    endloop
  endfacet
  facet normal -0.751026 -0.433606 0.497942
    outer loop
      vertex -24.2705 -17.6336 3.79999
      vertex -27.0907 -17.1126 0
      vertex -26.0454 -18.9231 0
    endloop
  endfacet
  facet normal -0.751026 -0.433605 0.497942
    outer loop
      vertex -27.0907 -17.1126 0
      vertex -27.4064 -12.2021 3.79999
      vertex -29.4106 -13.0944 0
    endloop
  endfacet
  facet normal 0.824766 0.267983 0.497943
    outer loop
      vertex -25.4021 -11.3097 0
      vertex -26.5524 -7.76946 0
      vertex -27.4064 -12.2021 3.79999
    endloop
  endfacet
  facet normal 0.824766 0.267982 0.497942
    outer loop
      vertex -29.3444 -6.23735 3.79999
      vertex -26.5524 -7.76946 0
      vertex -27.1984 -5.78121 0
    endloop
  endfacet
  facet normal 0.824766 0.267982 0.497942
    outer loop
      vertex -26.5524 -7.76946 0
      vertex -29.3444 -6.23735 3.79999
      vertex -27.4064 -12.2021 3.79999
    endloop
  endfacet
  facet normal -0.824766 -0.267982 0.497942
    outer loop
      vertex -30.0566 -11.1062 0
      vertex -27.4064 -12.2021 3.79999
      vertex -29.3444 -6.23735 3.79999
    endloop
  endfacet
  facet normal -0.824766 -0.267982 0.497942
    outer loop
      vertex -27.4064 -12.2021 3.79999
      vertex -30.0566 -11.1062 0
      vertex -29.4106 -13.0944 0
    endloop
  endfacet
  facet normal -0.824766 -0.267983 0.497942
    outer loop
      vertex -30.0566 -11.1062 0
      vertex -29.3444 -6.23735 3.79999
      vertex -31.4904 -6.69349 0
    endloop
  endfacet
  facet normal 0.862459 0.0906485 0.497942
    outer loop
      vertex -27.1984 -5.78121 0
      vertex -27.5875 -2.07912 0
      vertex -29.3444 -6.23735 3.79999
    endloop
  endfacet
  facet normal 0.862459 0.0906477 0.497942
    outer loop
      vertex -30 0 3.79999
      vertex -27.5875 -2.07912 0
      vertex -27.8061 0 0
    endloop
  endfacet
  facet normal 0.86246 0.0906483 0.497942
    outer loop
      vertex -27.5875 -2.07912 0
      vertex -30 0 3.79999
      vertex -29.3444 -6.23735 3.79999
    endloop
  endfacet
  facet normal -0.862459 -0.0906483 0.497942
    outer loop
      vertex -31.7089 -4.61438 0
      vertex -29.3444 -6.23735 3.79999
      vertex -30 0 3.79999
    endloop
  endfacet
  facet normal -0.862459 -0.0906485 0.497942
    outer loop
      vertex -29.3444 -6.23735 3.79999
      vertex -31.7089 -4.61438 0
      vertex -31.4904 -6.69349 0
    endloop
  endfacet
  facet normal -0.86246 -0.0906479 0.497942
    outer loop
      vertex -31.7089 -4.61438 0
      vertex -30 0 3.79999
      vertex -32.1939 0 0
    endloop
  endfacet
  facet normal 0.984783 -0.173787 2.81071e-08
    outer loop
      vertex -5.46574 -31.5389 0.0547985
      vertex -4.89605 -28.3107 1.83953
      vertex -5.09179 -29.4199 3.79999
    endloop
  endfacet
  facet normal 0.984783 -0.173787 9.33175e-08
    outer loop
      vertex -4.89605 -28.3107 1.83953
      vertex -5.46574 -31.5389 0.0547985
      vertex -4.71238 -27.2699 0
    endloop
  endfacet
  facet normal 0.984783 -0.173787 7.83848e-06
    outer loop
      vertex -4.71238 -27.2699 0
      vertex -5.46574 -31.5389 0.0547985
      vertex -5.47121 -31.5699 0
    endloop
  endfacet
  facet normal 1 0 0
    outer loop
      vertex 0.0999994 29.8357 3.79999
      vertex 0.0999994 27.6537 0
      vertex 0.0999994 32.0176 0
    endloop
  endfacet
  facet normal 0 0 -1
    outer loop
      vertex -5.47121 -31.5699 0
      vertex -6.54766 -26.8798 0
      vertex -4.71238 -27.2699 0
    endloop
  endfacet
  facet normal 0 0 -1
    outer loop
      vertex -9.94847 -30.6182 0
      vertex -6.54766 -26.8798 0
      vertex -5.47121 -31.5699 0
    endloop
  endfacet
  facet normal -0 0 -1
    outer loop
      vertex -6.54766 -26.8798 0
      vertex -9.94847 -30.6182 0
      vertex -8.59255 -26.4451 0
    endloop
  endfacet
  facet normal 0 0 -1
    outer loop
      vertex -11.8583 -29.7679 0
      vertex -8.59255 -26.4451 0
      vertex -9.94847 -30.6182 0
    endloop
  endfacet
  facet normal 0 0 -1
    outer loop
      vertex -11.8583 -29.7679 0
      vertex -11.9932 -24.9311 0
      vertex -8.59255 -26.4451 0
    endloop
  endfacet
  facet normal 0 0 -1
    outer loop
      vertex -16.097 -27.8808 0
      vertex -11.9932 -24.9311 0
      vertex -11.8583 -29.7679 0
    endloop
  endfacet
  facet normal -0 0 -1
    outer loop
      vertex -11.9932 -24.9311 0
      vertex -16.097 -27.8808 0
      vertex -13.903 -24.0808 0
    endloop
  endfacet
  facet normal 0 0 -1
    outer loop
      vertex -17.7883 -26.652 0
      vertex -13.903 -24.0808 0
      vertex -16.097 -27.8808 0
    endloop
  endfacet
  facet normal -0 0 -1
    outer loop
      vertex -13.903 -24.0808 0
      vertex -17.7883 -26.652 0
      vertex -16.9146 -21.8927 0
    endloop
  endfacet
  facet normal 0 0 -1
    outer loop
      vertex -21.5419 -23.9248 0
      vertex -16.9146 -21.8927 0
      vertex -17.7883 -26.652 0
    endloop
  endfacet
  facet normal -0 0 -1
    outer loop
      vertex -16.9146 -21.8927 0
      vertex -21.5419 -23.9248 0
      vertex -18.6059 -20.6639 0
    endloop
  endfacet
  facet normal 0 0 -1
    outer loop
      vertex -22.9408 -22.3712 0
      vertex -18.6059 -20.6639 0
      vertex -21.5419 -23.9248 0
    endloop
  endfacet
  facet normal -0 0 -1
    outer loop
      vertex -18.6059 -20.6639 0
      vertex -22.9408 -22.3712 0
      vertex -21.0967 -17.8976 0
    endloop
  endfacet
  facet normal 0 0 -1
    outer loop
      vertex -26.0454 -18.9231 0
      vertex -21.0967 -17.8976 0
      vertex -22.9408 -22.3712 0
    endloop
  endfacet
  facet normal -0 0 -1
    outer loop
      vertex -21.0967 -17.8976 0
      vertex -26.0454 -18.9231 0
      vertex -22.4956 -16.344 0
    endloop
  endfacet
  facet normal 0 0 -1
    outer loop
      vertex -27.0907 -17.1126 0
      vertex -22.4956 -16.344 0
      vertex -26.0454 -18.9231 0
    endloop
  endfacet
  facet normal -0 0 -1
    outer loop
      vertex -22.4956 -16.344 0
      vertex -27.0907 -17.1126 0
      vertex -24.3568 -13.1202 0
    endloop
  endfacet
  facet normal 0 0 -1
    outer loop
      vertex -29.4106 -13.0944 0
      vertex -24.3568 -13.1202 0
      vertex -27.0907 -17.1126 0
    endloop
  endfacet
  facet normal 0 0 -1
    outer loop
      vertex -24.3568 -13.1202 0
      vertex -29.4106 -13.0944 0
      vertex -25.4021 -11.3097 0
    endloop
  endfacet
  facet normal 0 0 -1
    outer loop
      vertex -30.0566 -11.1062 0
      vertex -25.4021 -11.3097 0
      vertex -29.4106 -13.0944 0
    endloop
  endfacet
  facet normal 0 0 -1
    outer loop
      vertex -25.4021 -11.3097 0
      vertex -30.0566 -11.1062 0
      vertex -26.5524 -7.76946 0
    endloop
  endfacet
  facet normal 0 0 -1
    outer loop
      vertex -31.4904 -6.69349 0
      vertex -26.5524 -7.76946 0
      vertex -30.0566 -11.1062 0
    endloop
  endfacet
  facet normal 0 0 -1
    outer loop
      vertex -26.5524 -7.76946 0
      vertex -31.4904 -6.69349 0
      vertex -27.1984 -5.78121 0
    endloop
  endfacet
  facet normal 0 0 -1
    outer loop
      vertex -31.7089 -4.61438 0
      vertex -27.1984 -5.78121 0
      vertex -31.4904 -6.69349 0
    endloop
  endfacet
  facet normal 0 0 -1
    outer loop
      vertex -27.1984 -5.78121 0
      vertex -31.7089 -4.61438 0
      vertex -27.5875 -2.07912 0
    endloop
  endfacet
  facet normal 0 -0 -1
    outer loop
      vertex -29.4106 13.0944 0
      vertex -27.8061 0 0
      vertex -30.8444 8.68174 0
    endloop
  endfacet
  facet normal 0 0 -1
    outer loop
      vertex -27.8061 0 0
      vertex -29.4106 13.0944 0
      vertex -28.3653 14.9049 0
    endloop
  endfacet
  facet normal 0 0 -1
    outer loop
      vertex -32.1939 0 0
      vertex -27.5875 -2.07912 0
      vertex -31.7089 -4.61438 0
    endloop
  endfacet
  facet normal 0 0 -1
    outer loop
      vertex -27.5875 -2.07912 0
      vertex -32.1939 0 0
      vertex -27.8061 0 0
    endloop
  endfacet
  facet normal 0 -0 -1
    outer loop
      vertex -31.4904 6.69349 0
      vertex -27.8061 0 0
      vertex -31.9754 2.07912 0
    endloop
  endfacet
  facet normal 0 0 -1
    outer loop
      vertex -27.8061 0 0
      vertex -31.4904 6.69349 0
      vertex -30.8444 8.68174 0
    endloop
  endfacet
  facet normal 0 0 -1
    outer loop
      vertex -27.8061 0 0
      vertex -32.1939 0 0
      vertex -31.9754 2.07912 0
    endloop
  endfacet
  facet normal 0 0 -1
    outer loop
      vertex -2.90653 27.6537 0
      vertex 0.0999994 32.0176 0
      vertex 0.0999994 27.6537 0
    endloop
  endfacet
  facet normal 0 0 -1
    outer loop
      vertex -2.90653 27.6537 0
      vertex -3.36518 32.0176 0
      vertex 0.0999994 32.0176 0
    endloop
  endfacet
  facet normal 0 0 -1
    outer loop
      vertex -4.95141 27.2191 0
      vertex -3.36518 32.0176 0
      vertex -2.90653 27.6537 0
    endloop
  endfacet
  facet normal 0 0 -1
    outer loop
      vertex -4.95141 27.2191 0
      vertex -7.90359 31.0529 0
      vertex -3.36518 32.0176 0
    endloop
  endfacet
  facet normal 0 0 -1
    outer loop
      vertex -8.59255 26.4451 0
      vertex -7.90359 31.0529 0
      vertex -4.95141 27.2191 0
    endloop
  endfacet
  facet normal 0 0 -1
    outer loop
      vertex -8.59255 26.4451 0
      vertex -9.94847 30.6182 0
      vertex -7.90359 31.0529 0
    endloop
  endfacet
  facet normal 0 0 -1
    outer loop
      vertex -10.5024 25.5948 0
      vertex -9.94847 30.6182 0
      vertex -8.59255 26.4451 0
    endloop
  endfacet
  facet normal 0 0 -1
    outer loop
      vertex -14.1871 28.7311 0
      vertex -10.5024 25.5948 0
      vertex -13.903 24.0808 0
    endloop
  endfacet
  facet normal 0 0 -1
    outer loop
      vertex -10.5024 25.5948 0
      vertex -14.1871 28.7311 0
      vertex -9.94847 30.6182 0
    endloop
  endfacet
  facet normal 0 0 -1
    outer loop
      vertex -16.097 27.8808 0
      vertex -13.903 24.0808 0
      vertex -15.5943 22.852 0
    endloop
  endfacet
  facet normal 0 0 -1
    outer loop
      vertex -13.903 24.0808 0
      vertex -16.097 27.8808 0
      vertex -14.1871 28.7311 0
    endloop
  endfacet
  facet normal 0 0 -1
    outer loop
      vertex -19.8506 25.1536 0
      vertex -15.5943 22.852 0
      vertex -18.6059 20.6639 0
    endloop
  endfacet
  facet normal 0 0 -1
    outer loop
      vertex -15.5943 22.852 0
      vertex -19.8506 25.1536 0
      vertex -16.097 27.8808 0
    endloop
  endfacet
  facet normal 0 0 -1
    outer loop
      vertex -21.5419 23.9248 0
      vertex -18.6059 20.6639 0
      vertex -20.0048 19.1103 0
    endloop
  endfacet
  facet normal 0 0 -1
    outer loop
      vertex -18.6059 20.6639 0
      vertex -21.5419 23.9248 0
      vertex -19.8506 25.1536 0
    endloop
  endfacet
  facet normal 0 0 -1
    outer loop
      vertex -24.6466 20.4767 0
      vertex -20.0048 19.1103 0
      vertex -22.4956 16.344 0
    endloop
  endfacet
  facet normal 0 0 -1
    outer loop
      vertex -26.0454 18.9231 0
      vertex -22.4956 16.344 0
      vertex -23.5409 14.5335 0
    endloop
  endfacet
  facet normal 0 0 -1
    outer loop
      vertex -20.0048 19.1103 0
      vertex -24.6466 20.4767 0
      vertex -21.5419 23.9248 0
    endloop
  endfacet
  facet normal 0 0 -1
    outer loop
      vertex -28.3653 14.9049 0
      vertex -23.5409 14.5335 0
      vertex -25.4021 11.3097 0
    endloop
  endfacet
  facet normal 0 0 -1
    outer loop
      vertex -22.4956 16.344 0
      vertex -26.0454 18.9231 0
      vertex -24.6466 20.4767 0
    endloop
  endfacet
  facet normal 0 0 -1
    outer loop
      vertex -28.3653 14.9049 0
      vertex -25.4021 11.3097 0
      vertex -26.0481 9.3215 0
    endloop
  endfacet
  facet normal 0 0 -1
    outer loop
      vertex -28.3653 14.9049 0
      vertex -26.0481 9.3215 0
      vertex -27.1984 5.78121 0
    endloop
  endfacet
  facet normal 0 0 -1
    outer loop
      vertex -28.3653 14.9049 0
      vertex -27.1984 5.78121 0
      vertex -27.417 3.70209 0
    endloop
  endfacet
  facet normal 0 0 -1
    outer loop
      vertex -28.3653 14.9049 0
      vertex -27.417 3.70209 0
      vertex -27.8061 0 0
    endloop
  endfacet
  facet normal 0 0 -1
    outer loop
      vertex -23.5409 14.5335 0
      vertex -28.3653 14.9049 0
      vertex -26.0454 18.9231 0
    endloop
  endfacet
  facet normal 0.862459 -0.0906483 0.497942
    outer loop
      vertex -7.80607 0 0
      vertex -7.70833 0.929934 0
      vertex -10 0 3.79999
    endloop
  endfacet
  facet normal 0.862459 -0.0906485 0.497942
    outer loop
      vertex -9.78148 2.07912 3.79999
      vertex -7.70833 0.929934 0
      vertex -7.63549 1.62297 0
    endloop
  endfacet
  facet normal 0.862459 -0.0906485 0.497942
    outer loop
      vertex -7.70833 0.929934 0
      vertex -9.78148 2.07912 3.79999
      vertex -10 0 3.79999
    endloop
  endfacet
  facet normal -0.862459 0.0906485 0.497942
    outer loop
      vertex -10 0 3.79999
      vertex -12.1211 0.693039 0
      vertex -12.1939 0 0
    endloop
  endfacet
  facet normal -0.862459 0.0906485 0.497942
    outer loop
      vertex -12.1211 0.693039 0
      vertex -10 0 3.79999
      vertex -9.78148 2.07912 3.79999
    endloop
  endfacet
  facet normal -0.862459 0.0906482 0.497942
    outer loop
      vertex -9.78148 2.07912 3.79999
      vertex -11.9275 2.53526 0
      vertex -12.1211 0.693039 0
    endloop
  endfacet
  facet normal 0.824766 -0.267983 0.497942
    outer loop
      vertex -7.63549 1.62297 0
      vertex -7.34654 2.51226 0
      vertex -9.78148 2.07912 3.79999
    endloop
  endfacet
  facet normal 0.824766 -0.267983 0.497942
    outer loop
      vertex -9.78148 2.07912 3.79999
      vertex -7.1312 3.17501 0
      vertex -9.13545 4.06737 3.79999
    endloop
  endfacet
  facet normal 0.824766 -0.267982 0.497942
    outer loop
      vertex -7.1312 3.17501 0
      vertex -9.78148 2.07912 3.79999
      vertex -7.34654 2.51226 0
    endloop
  endfacet
  facet normal -0.824766 0.267983 0.497942
    outer loop
      vertex -9.78148 2.07912 3.79999
      vertex -11.7121 3.19801 0
      vertex -11.9275 2.53526 0
    endloop
  endfacet
  facet normal -0.824766 0.267983 0.497942
    outer loop
      vertex -11.7121 3.19801 0
      vertex -9.78148 2.07912 3.79999
      vertex -9.13545 4.06737 3.79999
    endloop
  endfacet
  facet normal -0.824766 0.267982 0.497942
    outer loop
      vertex -9.13545 4.06737 3.79999
      vertex -11.1397 4.95972 0
      vertex -11.7121 3.19801 0
    endloop
  endfacet
  facet normal 0.751026 -0.433605 0.497942
    outer loop
      vertex -7.1312 3.17501 0
      vertex -6.66367 3.9848 0
      vertex -9.13545 4.06737 3.79999
    endloop
  endfacet
  facet normal 0.751026 -0.433605 0.497942
    outer loop
      vertex -9.13545 4.06737 3.79999
      vertex -6.31524 4.58829 0
      vertex -8.09017 5.87785 3.79999
    endloop
  endfacet
  facet normal 0.751026 -0.433605 0.497942
    outer loop
      vertex -6.31524 4.58829 0
      vertex -9.13545 4.06737 3.79999
      vertex -6.66367 3.9848 0
    endloop
  endfacet
  facet normal -0.751026 0.433605 0.497942
    outer loop
      vertex -11.1397 4.95972 0
      vertex -8.09017 5.87785 3.79999
      vertex -10.7913 5.56321 0
    endloop
  endfacet
  facet normal -0.751026 0.433605 0.497942
    outer loop
      vertex -8.09017 5.87785 3.79999
      vertex -11.1397 4.95972 0
      vertex -9.13545 4.06737 3.79999
    endloop
  endfacet
  facet normal -0.751026 0.433605 0.497942
    outer loop
      vertex -8.09017 5.87785 3.79999
      vertex -9.8651 7.16741 0
      vertex -10.7913 5.56321 0
    endloop
  endfacet
  facet normal 0.644463 -0.580277 0.497942
    outer loop
      vertex -6.31524 4.58829 0
      vertex -5.68957 5.28318 0
      vertex -8.09017 5.87785 3.79999
    endloop
  endfacet
  facet normal 0.644463 -0.580277 0.497942
    outer loop
      vertex -8.09017 5.87785 3.79999
      vertex -5.22328 5.80104 0
      vertex -6.69131 7.43145 3.79999
    endloop
  endfacet
  facet normal 0.644462 -0.580277 0.497942
    outer loop
      vertex -5.22328 5.80104 0
      vertex -8.09017 5.87785 3.79999
      vertex -5.68957 5.28318 0
    endloop
  endfacet
  facet normal -0.644462 0.580277 0.497942
    outer loop
      vertex -9.8651 7.16741 0
      vertex -6.69131 7.43145 3.79999
      vertex -9.39881 7.68528 0
    endloop
  endfacet
  facet normal -0.644463 0.580277 0.497942
    outer loop
      vertex -6.69131 7.43145 3.79999
      vertex -9.8651 7.16741 0
      vertex -8.09017 5.87785 3.79999
    endloop
  endfacet
  facet normal -0.644463 0.580277 0.497942
    outer loop
      vertex -6.69131 7.43145 3.79999
      vertex -8.15933 9.06185 0
      vertex -9.39881 7.68528 0
    endloop
  endfacet
  facet normal 0.509733 -0.701588 0.497942
    outer loop
      vertex -5.22328 5.80104 0
      vertex -4.4668 6.35065 0
      vertex -6.69131 7.43145 3.79999
    endloop
  endfacet
  facet normal 0.509733 -0.701588 0.497942
    outer loop
      vertex -4.4668 6.35065 0
      vertex -5 8.66025 3.79999
      vertex -6.69131 7.43145 3.79999
    endloop
  endfacet
  facet normal 0.509734 -0.701588 0.497942
    outer loop
      vertex -5 8.66025 3.79999
      vertex -4.4668 6.35065 0
      vertex -3.90304 6.76026 0
    endloop
  endfacet
  facet normal -0.509733 0.701588 0.497942
    outer loop
      vertex -7.59556 9.47146 0
      vertex -6.69131 7.43145 3.79999
      vertex -5 8.66025 3.79999
    endloop
  endfacet
  facet normal -0.509734 0.701587 0.497942
    outer loop
      vertex -6.69131 7.43145 3.79999
      vertex -7.59556 9.47146 0
      vertex -8.15933 9.06185 0
    endloop
  endfacet
  facet normal -0.509734 0.701588 0.497942
    outer loop
      vertex -5 8.66025 3.79999
      vertex -6.09696 10.5603 0
      vertex -7.59556 9.47146 0
    endloop
  endfacet
  facet normal 0.352726 -0.792236 0.497942
    outer loop
      vertex -3.90304 6.76026 0
      vertex -3.04882 7.14058 0
      vertex -5 8.66025 3.79999
    endloop
  endfacet
  facet normal 0.352726 -0.792236 0.497942
    outer loop
      vertex -3.04882 7.14058 0
      vertex -3.09017 9.51056 3.79999
      vertex -5 8.66025 3.79999
    endloop
  endfacet
  facet normal 0.352726 -0.792236 0.497942
    outer loop
      vertex -3.09017 9.51056 3.79999
      vertex -3.04882 7.14058 0
      vertex -2.41221 7.42401 0
    endloop
  endfacet
  facet normal -0.352726 0.792236 0.497942
    outer loop
      vertex -5.46035 10.8437 0
      vertex -5 8.66025 3.79999
      vertex -3.09017 9.51056 3.79999
    endloop
  endfacet
  facet normal -0.352726 0.792236 0.497942
    outer loop
      vertex -5 8.66025 3.79999
      vertex -5.46035 10.8437 0
      vertex -6.09696 10.5603 0
    endloop
  endfacet
  facet normal -0.352726 0.792236 0.497942
    outer loop
      vertex -3.09017 9.51056 3.79999
      vertex -3.76813 11.5971 0
      vertex -5.46035 10.8437 0
    endloop
  endfacet
  facet normal 0.180303 -0.84826 0.497942
    outer loop
      vertex -2.41221 7.42401 0
      vertex -1.49758 7.61842 0
      vertex -3.09017 9.51056 3.79999
    endloop
  endfacet
  facet normal 0.180303 -0.84826 0.497942
    outer loop
      vertex -1.49758 7.61842 0
      vertex -1.04528 9.94522 3.79999
      vertex -3.09017 9.51056 3.79999
    endloop
  endfacet
  facet normal 0.180303 -0.84826 0.497942
    outer loop
      vertex -1.04528 9.94522 3.79999
      vertex -1.49758 7.61842 0
      vertex -0.815956 7.76331 0
    endloop
  endfacet
  facet normal -0.180303 0.84826 0.497942
    outer loop
      vertex -3.0865 11.742 0
      vertex -3.09017 9.51056 3.79999
      vertex -1.04528 9.94522 3.79999
    endloop
  endfacet
  facet normal -0.180303 0.84826 0.497942
    outer loop
      vertex -3.09017 9.51056 3.79999
      vertex -3.0865 11.742 0
      vertex -3.76813 11.5971 0
    endloop
  endfacet
  facet normal -0.180303 0.84826 0.497942
    outer loop
      vertex -1.04528 9.94522 3.79999
      vertex -1.27461 12.1271 0
      vertex -3.0865 11.742 0
    endloop
  endfacet
  facet normal 0 -0.86721 0.497942
    outer loop
      vertex -0.815956 7.76331 0
      vertex 0.0999994 9.94522 3.79999
      vertex -1.04528 9.94522 3.79999
    endloop
  endfacet
  facet normal 0 -0.86721 0.497942
    outer loop
      vertex 0.0999994 9.94522 3.79999
      vertex -0.815956 7.76331 0
      vertex 0.0999994 7.76331 0
    endloop
  endfacet
  facet normal 0 0.86721 0.497942
    outer loop
      vertex 0.0999994 12.1271 0
      vertex -1.04528 9.94522 3.79999
      vertex 0.0999994 9.94522 3.79999
    endloop
  endfacet
  facet normal 0 0.86721 0.497942
    outer loop
      vertex -1.04528 9.94522 3.79999
      vertex 0.0999994 12.1271 0
      vertex -1.27461 12.1271 0
    endloop
  endfacet
  facet normal 0.180303 0.84826 0.497942
    outer loop
      vertex -1.42357 -8.63348 1.70239
      vertex -1.25359 -7.67029 0
      vertex -1.73058 -7.5689 0
    endloop
  endfacet
  facet normal 0.180303 0.84826 0.497942
    outer loop
      vertex -1.42357 -8.63348 1.70239
      vertex -3.09017 -9.51056 3.79999
      vertex -1.63301 -9.82029 3.79999
    endloop
  endfacet
  facet normal 0.180303 0.84826 0.497942
    outer loop
      vertex -2.41221 -7.42401 0
      vertex -1.42357 -8.63348 1.70239
      vertex -1.73058 -7.5689 0
    endloop
  endfacet
  facet normal 0.180303 0.84826 0.497942
    outer loop
      vertex -1.42357 -8.63348 1.70239
      vertex -2.41221 -7.42401 0
      vertex -3.09017 -9.51056 3.79999
    endloop
  endfacet
  facet normal -0.180303 -0.84826 0.497943
    outer loop
      vertex -1.99834 -11.8905 0.141075
      vertex -1.63301 -9.82029 3.79999
      vertex -3.09017 -9.51056 3.79999
    endloop
  endfacet
  facet normal -0.180303 -0.84826 0.497942
    outer loop
      vertex -3.76813 -11.5971 0
      vertex -1.99834 -11.8905 0.141075
      vertex -3.09017 -9.51056 3.79999
    endloop
  endfacet
  facet normal -0.180303 -0.848259 0.497943
    outer loop
      vertex -1.99834 -11.8905 0.141075
      vertex -3.76813 -11.5971 0
      vertex -2.01242 -11.9703 0
    endloop
  endfacet
  facet normal 0.352727 0.792236 0.497942
    outer loop
      vertex -3.09017 -9.51056 3.79999
      vertex -2.41221 -7.42401 0
      vertex -3.26643 -7.04369 0
    endloop
  endfacet
  facet normal 0.352726 0.792236 0.497942
    outer loop
      vertex -3.90304 -6.76026 0
      vertex -3.09017 -9.51056 3.79999
      vertex -3.26643 -7.04369 0
    endloop
  endfacet
  facet normal 0.352726 0.792236 0.497942
    outer loop
      vertex -3.09017 -9.51056 3.79999
      vertex -3.90304 -6.76026 0
      vertex -5 -8.66025 3.79999
    endloop
  endfacet
  facet normal -0.352727 -0.792236 0.497942
    outer loop
      vertex -3.76813 -11.5971 0
      vertex -5 -8.66025 3.79999
      vertex -4.40474 -11.3137 0
    endloop
  endfacet
  facet normal -0.352726 -0.792236 0.497942
    outer loop
      vertex -5 -8.66025 3.79999
      vertex -3.76813 -11.5971 0
      vertex -3.09017 -9.51056 3.79999
    endloop
  endfacet
  facet normal -0.352726 -0.792236 0.497942
    outer loop
      vertex -4.40474 -11.3137 0
      vertex -5 -8.66025 3.79999
      vertex -6.09696 -10.5603 0
    endloop
  endfacet
  facet normal 0.509734 0.701588 0.497942
    outer loop
      vertex -3.90304 -6.76026 0
      vertex -4.65951 -6.21064 0
      vertex -5 -8.66025 3.79999
    endloop
  endfacet
  facet normal 0.509733 0.701588 0.497942
    outer loop
      vertex -5.22328 -5.80104 0
      vertex -5 -8.66025 3.79999
      vertex -4.65951 -6.21064 0
    endloop
  endfacet
  facet normal 0.509733 0.701588 0.497942
    outer loop
      vertex -5 -8.66025 3.79999
      vertex -5.22328 -5.80104 0
      vertex -6.69131 -7.43145 3.79999
    endloop
  endfacet
  facet normal -0.509734 -0.701588 0.497942
    outer loop
      vertex -6.09696 -10.5603 0
      vertex -6.69131 -7.43145 3.79999
      vertex -6.66073 -10.1507 0
    endloop
  endfacet
  facet normal -0.509733 -0.701588 0.497942
    outer loop
      vertex -6.69131 -7.43145 3.79999
      vertex -6.09696 -10.5603 0
      vertex -5 -8.66025 3.79999
    endloop
  endfacet
  facet normal -0.509734 -0.701588 0.497942
    outer loop
      vertex -6.66073 -10.1507 0
      vertex -6.69131 -7.43145 3.79999
      vertex -8.15933 -9.06185 0
    endloop
  endfacet
  facet normal 0.644463 0.580277 0.497942
    outer loop
      vertex -5.22328 -5.80104 0
      vertex -5.84896 -5.10616 0
      vertex -6.69131 -7.43145 3.79999
    endloop
  endfacet
  facet normal 0.644462 0.580277 0.497942
    outer loop
      vertex -8.09017 -5.87785 3.79999
      vertex -5.84896 -5.10616 0
      vertex -6.31524 -4.58829 0
    endloop
  endfacet
  facet normal 0.644462 0.580277 0.497942
    outer loop
      vertex -5.84896 -5.10616 0
      vertex -8.09017 -5.87785 3.79999
      vertex -6.69131 -7.43145 3.79999
    endloop
  endfacet
  facet normal -0.644463 -0.580277 0.497942
    outer loop
      vertex -8.62562 -8.54399 0
      vertex -6.69131 -7.43145 3.79999
      vertex -8.09017 -5.87785 3.79999
    endloop
  endfacet
  facet normal -0.644462 -0.580277 0.497942
    outer loop
      vertex -6.69131 -7.43145 3.79999
      vertex -8.62562 -8.54399 0
      vertex -8.15933 -9.06185 0
    endloop
  endfacet
  facet normal -0.644463 -0.580277 0.497942
    outer loop
      vertex -8.62562 -8.54399 0
      vertex -8.09017 -5.87785 3.79999
      vertex -9.8651 -7.16741 0
    endloop
  endfacet
  facet normal 0.751026 0.433605 0.497942
    outer loop
      vertex -6.31524 -4.58829 0
      vertex -6.78277 -3.77851 0
      vertex -8.09017 -5.87785 3.79999
    endloop
  endfacet
  facet normal 0.751026 0.433605 0.497942
    outer loop
      vertex -9.13545 -4.06737 3.79999
      vertex -6.78277 -3.77851 0
      vertex -7.1312 -3.17501 0
    endloop
  endfacet
  facet normal 0.751026 0.433605 0.497942
    outer loop
      vertex -6.78277 -3.77851 0
      vertex -9.13545 -4.06737 3.79999
      vertex -8.09017 -5.87785 3.79999
    endloop
  endfacet
  facet normal -0.751026 -0.433605 0.497942
    outer loop
      vertex -10.2135 -6.56392 0
      vertex -8.09017 -5.87785 3.79999
      vertex -9.13545 -4.06737 3.79999
    endloop
  endfacet
  facet normal -0.751026 -0.433605 0.497942
    outer loop
      vertex -8.09017 -5.87785 3.79999
      vertex -10.2135 -6.56392 0
      vertex -9.8651 -7.16741 0
    endloop
  endfacet
  facet normal -0.751026 -0.433605 0.497942
    outer loop
      vertex -10.2135 -6.56392 0
      vertex -9.13545 -4.06737 3.79999
      vertex -11.1397 -4.95972 0
    endloop
  endfacet
  facet normal 0.824766 0.267983 0.497942
    outer loop
      vertex -7.1312 -3.17501 0
      vertex -7.42015 -2.28572 0
      vertex -9.13545 -4.06737 3.79999
    endloop
  endfacet
  facet normal 0.824766 0.267982 0.497942
    outer loop
      vertex -9.78148 -2.07912 3.79999
      vertex -7.42015 -2.28572 0
      vertex -7.63549 -1.62297 0
    endloop
  endfacet
  facet normal 0.824766 0.267983 0.497942
    outer loop
      vertex -7.42015 -2.28572 0
      vertex -9.78148 -2.07912 3.79999
      vertex -9.13545 -4.06737 3.79999
    endloop
  endfacet
  facet normal -0.824766 -0.267983 0.497942
    outer loop
      vertex -11.355 -4.29697 0
      vertex -9.13545 -4.06737 3.79999
      vertex -9.78148 -2.07912 3.79999
    endloop
  endfacet
  facet normal -0.824766 -0.267982 0.497942
    outer loop
      vertex -9.13545 -4.06737 3.79999
      vertex -11.355 -4.29697 0
      vertex -11.1397 -4.95972 0
    endloop
  endfacet
  facet normal -0.824766 -0.267983 0.497942
    outer loop
      vertex -11.355 -4.29697 0
      vertex -9.78148 -2.07912 3.79999
      vertex -11.9275 -2.53526 0
    endloop
  endfacet
  facet normal 0.862459 0.0906483 0.497942
    outer loop
      vertex -7.63549 -1.62297 0
      vertex -7.73323 -0.693039 0
      vertex -9.78148 -2.07912 3.79999
    endloop
  endfacet
  facet normal 0.862459 0.0906485 0.497942
    outer loop
      vertex -10 0 3.79999
      vertex -7.73323 -0.693039 0
      vertex -7.80607 0 0
    endloop
  endfacet
  facet normal 0.862459 0.0906485 0.497942
    outer loop
      vertex -7.73323 -0.693039 0
      vertex -10 0 3.79999
      vertex -9.78148 -2.07912 3.79999
    endloop
  endfacet
  facet normal -0.862459 -0.0906485 0.497942
    outer loop
      vertex -12.0003 -1.84222 0
      vertex -9.78148 -2.07912 3.79999
      vertex -10 0 3.79999
    endloop
  endfacet
  facet normal -0.862459 -0.0906485 0.497942
    outer loop
      vertex -9.78148 -2.07912 3.79999
      vertex -12.0003 -1.84222 0
      vertex -11.9275 -2.53526 0
    endloop
  endfacet
  facet normal -0.862459 -0.0906483 0.497942
    outer loop
      vertex -12.0003 -1.84222 0
      vertex -10 0 3.79999
      vertex -12.1939 0 0
    endloop
  endfacet
  facet normal 0.984783 -0.173787 9.31647e-09
    outer loop
      vertex -1.99834 -11.8905 0.141075
      vertex -1.42357 -8.63348 1.70239
      vertex -1.63301 -9.82029 3.79999
    endloop
  endfacet
  facet normal 0.984783 -0.173787 6.92573e-08
    outer loop
      vertex -1.42357 -8.63348 1.70239
      vertex -1.99834 -11.8905 0.141075
      vertex -1.25359 -7.67029 0
    endloop
  endfacet
  facet normal 0.984783 -0.173787 3.6087e-07
    outer loop
      vertex -1.25359 -7.67029 0
      vertex -1.99834 -11.8905 0.141075
      vertex -2.01242 -11.9703 0
    endloop
  endfacet
  facet normal 1 0 0
    outer loop
      vertex 0.0999994 9.94522 3.79999
      vertex 0.0999994 7.76331 0
      vertex 0.0999994 12.1271 0
    endloop
  endfacet
  facet normal 0 0 -1
    outer loop
      vertex -2.01242 -11.9703 0
      vertex -1.73058 -7.5689 0
      vertex -1.25359 -7.67029 0
    endloop
  endfacet
  facet normal 0 0 -1
    outer loop
      vertex -3.76813 -11.5971 0
      vertex -1.73058 -7.5689 0
      vertex -2.01242 -11.9703 0
    endloop
  endfacet
  facet normal -0 0 -1
    outer loop
      vertex -1.73058 -7.5689 0
      vertex -3.76813 -11.5971 0
      vertex -2.41221 -7.42401 0
    endloop
  endfacet
  facet normal 0 0 -1
    outer loop
      vertex -4.40474 -11.3137 0
      vertex -2.41221 -7.42401 0
      vertex -3.76813 -11.5971 0
    endloop
  endfacet
  facet normal -0 0 -1
    outer loop
      vertex -2.41221 -7.42401 0
      vertex -4.40474 -11.3137 0
      vertex -3.26643 -7.04369 0
    endloop
  endfacet
  facet normal 0 0 -1
    outer loop
      vertex -6.09696 -10.5603 0
      vertex -3.26643 -7.04369 0
      vertex -4.40474 -11.3137 0
    endloop
  endfacet
  facet normal -0 0 -1
    outer loop
      vertex -3.26643 -7.04369 0
      vertex -6.09696 -10.5603 0
      vertex -3.90304 -6.76026 0
    endloop
  endfacet
  facet normal 0 0 -1
    outer loop
      vertex -6.66073 -10.1507 0
      vertex -3.90304 -6.76026 0
      vertex -6.09696 -10.5603 0
    endloop
  endfacet
  facet normal -0 0 -1
    outer loop
      vertex -3.90304 -6.76026 0
      vertex -6.66073 -10.1507 0
      vertex -4.65951 -6.21064 0
    endloop
  endfacet
  facet normal 0 0 -1
    outer loop
      vertex -8.15933 -9.06185 0
      vertex -4.65951 -6.21064 0
      vertex -6.66073 -10.1507 0
    endloop
  endfacet
  facet normal -0 0 -1
    outer loop
      vertex -4.65951 -6.21064 0
      vertex -8.15933 -9.06185 0
      vertex -5.22328 -5.80104 0
    endloop
  endfacet
  facet normal 0 0 -1
    outer loop
      vertex -8.62562 -8.54399 0
      vertex -5.22328 -5.80104 0
      vertex -8.15933 -9.06185 0
    endloop
  endfacet
  facet normal -0 0 -1
    outer loop
      vertex -5.22328 -5.80104 0
      vertex -8.62562 -8.54399 0
      vertex -5.84896 -5.10616 0
    endloop
  endfacet
  facet normal 0 0 -1
    outer loop
      vertex -9.8651 -7.16741 0
      vertex -5.84896 -5.10616 0
      vertex -8.62562 -8.54399 0
    endloop
  endfacet
  facet normal -0 0 -1
    outer loop
      vertex -5.84896 -5.10616 0
      vertex -9.8651 -7.16741 0
      vertex -6.31524 -4.58829 0
    endloop
  endfacet
  facet normal 0 0 -1
    outer loop
      vertex -10.2135 -6.56392 0
      vertex -6.31524 -4.58829 0
      vertex -9.8651 -7.16741 0
    endloop
  endfacet
  facet normal 0 0 -1
    outer loop
      vertex -12.0003 -1.84222 0
      vertex -7.73323 -0.693039 0
      vertex -7.63549 -1.62297 0
    endloop
  endfacet
  facet normal 0 0 -1
    outer loop
      vertex -11.1397 -4.95972 0
      vertex -6.78277 -3.77851 0
      vertex -10.2135 -6.56392 0
    endloop
  endfacet
  facet normal -0 0 -1
    outer loop
      vertex -6.31524 -4.58829 0
      vertex -10.2135 -6.56392 0
      vertex -6.78277 -3.77851 0
    endloop
  endfacet
  facet normal 0 0 -1
    outer loop
      vertex -0.815956 7.76331 0
      vertex 0.0999994 12.1271 0
      vertex 0.0999994 7.76331 0
    endloop
  endfacet
  facet normal 0 0 -1
    outer loop
      vertex -0.815956 7.76331 0
      vertex -1.27461 12.1271 0
      vertex 0.0999994 12.1271 0
    endloop
  endfacet
  facet normal 0 0 -1
    outer loop
      vertex -1.49758 7.61842 0
      vertex -1.27461 12.1271 0
      vertex -0.815956 7.76331 0
    endloop
  endfacet
  facet normal 0 0 -1
    outer loop
      vertex -3.0865 11.742 0
      vertex -1.49758 7.61842 0
      vertex -2.41221 7.42401 0
    endloop
  endfacet
  facet normal 0 0 -1
    outer loop
      vertex -3.76813 11.5971 0
      vertex -2.41221 7.42401 0
      vertex -3.04882 7.14058 0
    endloop
  endfacet
  facet normal 0 0 -1
    outer loop
      vertex -1.49758 7.61842 0
      vertex -3.0865 11.742 0
      vertex -1.27461 12.1271 0
    endloop
  endfacet
  facet normal 0 0 -1
    outer loop
      vertex -2.41221 7.42401 0
      vertex -3.76813 11.5971 0
      vertex -3.0865 11.742 0
    endloop
  endfacet
  facet normal 0 0 -1
    outer loop
      vertex -5.46035 10.8437 0
      vertex -3.04882 7.14058 0
      vertex -3.90304 6.76026 0
    endloop
  endfacet
  facet normal 0 0 -1
    outer loop
      vertex -6.09696 10.5603 0
      vertex -3.90304 6.76026 0
      vertex -4.4668 6.35065 0
    endloop
  endfacet
  facet normal 0 0 -1
    outer loop
      vertex -7.59556 9.47146 0
      vertex -4.4668 6.35065 0
      vertex -5.22328 5.80104 0
    endloop
  endfacet
  facet normal 0 0 -1
    outer loop
      vertex -3.04882 7.14058 0
      vertex -5.46035 10.8437 0
      vertex -3.76813 11.5971 0
    endloop
  endfacet
  facet normal 0 0 -1
    outer loop
      vertex -8.15933 9.06185 0
      vertex -5.22328 5.80104 0
      vertex -5.68957 5.28318 0
    endloop
  endfacet
  facet normal 0 0 -1
    outer loop
      vertex -3.90304 6.76026 0
      vertex -6.09696 10.5603 0
      vertex -5.46035 10.8437 0
    endloop
  endfacet
  facet normal 0 0 -1
    outer loop
      vertex -9.39881 7.68528 0
      vertex -5.68957 5.28318 0
      vertex -6.31524 4.58829 0
    endloop
  endfacet
  facet normal 0 0 -1
    outer loop
      vertex -9.8651 7.16741 0
      vertex -6.31524 4.58829 0
      vertex -6.66367 3.9848 0
    endloop
  endfacet
  facet normal 0 0 -1
    outer loop
      vertex -10.7913 5.56321 0
      vertex -6.66367 3.9848 0
      vertex -7.1312 3.17501 0
    endloop
  endfacet
  facet normal 0 0 -1
    outer loop
      vertex -11.1397 4.95972 0
      vertex -7.1312 3.17501 0
      vertex -7.34654 2.51226 0
    endloop
  endfacet
  facet normal 0 0 -1
    outer loop
      vertex -4.4668 6.35065 0
      vertex -7.59556 9.47146 0
      vertex -6.09696 10.5603 0
    endloop
  endfacet
  facet normal 0 0 -1
    outer loop
      vertex -11.7121 3.19801 0
      vertex -7.34654 2.51226 0
      vertex -7.63549 1.62297 0
    endloop
  endfacet
  facet normal 0 0 -1
    outer loop
      vertex -11.9275 2.53526 0
      vertex -7.63549 1.62297 0
      vertex -7.70833 0.929934 0
    endloop
  endfacet
  facet normal 0 0 -1
    outer loop
      vertex -12.1211 0.693039 0
      vertex -7.70833 0.929934 0
      vertex -7.80607 0 0
    endloop
  endfacet
  facet normal -0 0 -1
    outer loop
      vertex -6.78277 -3.77851 0
      vertex -11.1397 -4.95972 0
      vertex -7.1312 -3.17501 0
    endloop
  endfacet
  facet normal 0 0 -1
    outer loop
      vertex -11.355 -4.29697 0
      vertex -7.1312 -3.17501 0
      vertex -11.1397 -4.95972 0
    endloop
  endfacet
  facet normal 0 0 -1
    outer loop
      vertex -5.68957 5.28318 0
      vertex -9.39881 7.68528 0
      vertex -8.15933 9.06185 0
    endloop
  endfacet
  facet normal 0 0 -1
    outer loop
      vertex -5.22328 5.80104 0
      vertex -8.15933 9.06185 0
      vertex -7.59556 9.47146 0
    endloop
  endfacet
  facet normal -0 0 -1
    outer loop
      vertex -7.1312 -3.17501 0
      vertex -11.355 -4.29697 0
      vertex -7.42015 -2.28572 0
    endloop
  endfacet
  facet normal 0 0 -1
    outer loop
      vertex -11.9275 -2.53526 0
      vertex -7.42015 -2.28572 0
      vertex -11.355 -4.29697 0
    endloop
  endfacet
  facet normal 0 0 -1
    outer loop
      vertex -6.66367 3.9848 0
      vertex -10.7913 5.56321 0
      vertex -9.8651 7.16741 0
    endloop
  endfacet
  facet normal 0 0 -1
    outer loop
      vertex -6.31524 4.58829 0
      vertex -9.8651 7.16741 0
      vertex -9.39881 7.68528 0
    endloop
  endfacet
  facet normal -0 0 -1
    outer loop
      vertex -7.42015 -2.28572 0
      vertex -11.9275 -2.53526 0
      vertex -7.63549 -1.62297 0
    endloop
  endfacet
  facet normal 0 0 -1
    outer loop
      vertex -12.0003 -1.84222 0
      vertex -7.63549 -1.62297 0
      vertex -11.9275 -2.53526 0
    endloop
  endfacet
  facet normal 0 0 -1
    outer loop
      vertex -7.34654 2.51226 0
      vertex -11.7121 3.19801 0
      vertex -11.1397 4.95972 0
    endloop
  endfacet
  facet normal 0 0 -1
    outer loop
      vertex -7.1312 3.17501 0
      vertex -11.1397 4.95972 0
      vertex -10.7913 5.56321 0
    endloop
  endfacet
  facet normal 0 0 -1
    outer loop
      vertex -12.1939 0 0
      vertex -7.73323 -0.693039 0
      vertex -12.0003 -1.84222 0
    endloop
  endfacet
  facet normal 0 0 -1
    outer loop
      vertex -7.73323 -0.693039 0
      vertex -12.1939 0 0
      vertex -7.80607 0 0
    endloop
  endfacet
  facet normal -0 0 -1
    outer loop
      vertex -7.70833 0.929934 0
      vertex -12.1211 0.693039 0
      vertex -11.9275 2.53526 0
    endloop
  endfacet
  facet normal 0 0 -1
    outer loop
      vertex -7.63549 1.62297 0
      vertex -11.9275 2.53526 0
      vertex -11.7121 3.19801 0
    endloop
  endfacet
  facet normal 0 0 -1
    outer loop
      vertex -7.80607 0 0
      vertex -12.1939 0 0
      vertex -12.1211 0.693039 0
    endloop
  endfacet
endsolid OpenSCAD_Model
