solid OpenSCAD_Model
  facet normal 0.862459 -0.0906477 0.497942
    outer loop
      vertex -17.8061 0 0
      vertex -17.5626 2.31601 0
      vertex -20 0 3.79999
    endloop
  endfacet
  facet normal 0.86246 -0.0906485 0.497942
    outer loop
      vertex -19.563 4.15823 3.79999
      vertex -17.5626 2.31601 0
      vertex -17.417 3.70209 0
    endloop
  endfacet
  facet normal 0.86246 -0.0906485 0.497942
    outer loop
      vertex -17.5626 2.31601 0
      vertex -19.563 4.15823 3.79999
      vertex -20 0 3.79999
    endloop
  endfacet
  facet normal -0.862459 0.0906485 0.497942
    outer loop
      vertex -20 0 3.79999
      vertex -22.0482 1.38608 0
      vertex -22.1939 0 0
    endloop
  endfacet
  facet normal -0.862459 0.0906485 0.497942
    outer loop
      vertex -22.0482 1.38608 0
      vertex -20 0 3.79999
      vertex -19.563 4.15823 3.79999
    endloop
  endfacet
  facet normal -0.862459 0.0906481 0.497943
    outer loop
      vertex -19.563 4.15823 3.79999
      vertex -21.7089 4.61438 0
      vertex -22.0482 1.38608 0
    endloop
  endfacet
  facet normal 0.824766 -0.267983 0.497942
    outer loop
      vertex -17.417 3.70209 0
      vertex -16.6973 5.91688 0
      vertex -19.563 4.15823 3.79999
    endloop
  endfacet
  facet normal 0.824766 -0.267983 0.497942
    outer loop
      vertex -18.2709 8.13473 3.79999
      vertex -16.6973 5.91688 0
      vertex -16.2667 7.24238 0
    endloop
  endfacet
  facet normal 0.824766 -0.267983 0.497942
    outer loop
      vertex -16.6973 5.91688 0
      vertex -18.2709 8.13473 3.79999
      vertex -19.563 4.15823 3.79999
    endloop
  endfacet
  facet normal -0.824766 0.267983 0.497943
    outer loop
      vertex -19.563 4.15823 3.79999
      vertex -21.2783 5.93988 0
      vertex -21.7089 4.61438 0
    endloop
  endfacet
  facet normal -0.824766 0.267982 0.497943
    outer loop
      vertex -21.2783 5.93988 0
      vertex -19.563 4.15823 3.79999
      vertex -18.2709 8.13473 3.79999
    endloop
  endfacet
  facet normal -0.824766 0.267983 0.497942
    outer loop
      vertex -18.2709 8.13473 3.79999
      vertex -20.2752 9.02708 0
      vertex -21.2783 5.93988 0
    endloop
  endfacet
  facet normal 0.751026 -0.433605 0.497942
    outer loop
      vertex -16.2667 7.24238 0
      vertex -15.1023 9.25916 0
      vertex -18.2709 8.13473 3.79999
    endloop
  endfacet
  facet normal 0.751026 -0.433605 0.497942
    outer loop
      vertex -18.2709 8.13473 3.79999
      vertex -14.4054 10.4661 0
      vertex -16.1803 11.7557 3.79999
    endloop
  endfacet
  facet normal 0.751026 -0.433605 0.497942
    outer loop
      vertex -14.4054 10.4661 0
      vertex -18.2709 8.13473 3.79999
      vertex -15.1023 9.25916 0
    endloop
  endfacet
  facet normal -0.751026 0.433605 0.497942
    outer loop
      vertex -18.2709 8.13473 3.79999
      vertex -19.5783 10.2341 0
      vertex -20.2752 9.02708 0
    endloop
  endfacet
  facet normal -0.751026 0.433605 0.497942
    outer loop
      vertex -19.5783 10.2341 0
      vertex -18.2709 8.13473 3.79999
      vertex -16.1803 11.7557 3.79999
    endloop
  endfacet
  facet normal -0.751026 0.433605 0.497942
    outer loop
      vertex -16.1803 11.7557 3.79999
      vertex -17.9553 13.0453 0
      vertex -19.5783 10.2341 0
    endloop
  endfacet
  facet normal 0.644463 -0.580277 0.497942
    outer loop
      vertex -14.4054 10.4661 0
      vertex -12.8472 12.1968 0
      vertex -16.1803 11.7557 3.79999
    endloop
  endfacet
  facet normal 0.644463 -0.580277 0.497942
    outer loop
      vertex -16.1803 11.7557 3.79999
      vertex -11.9146 13.2325 0
      vertex -13.3826 14.8629 3.79999
    endloop
  endfacet
  facet normal 0.644463 -0.580277 0.497942
    outer loop
      vertex -11.9146 13.2325 0
      vertex -16.1803 11.7557 3.79999
      vertex -12.8472 12.1968 0
    endloop
  endfacet
  facet normal -0.644463 0.580277 0.497943
    outer loop
      vertex -17.9553 13.0453 0
      vertex -13.3826 14.8629 3.79999
      vertex -17.0227 14.081 0
    endloop
  endfacet
  facet normal -0.644463 0.580277 0.497942
    outer loop
      vertex -13.3826 14.8629 3.79999
      vertex -17.9553 13.0453 0
      vertex -16.1803 11.7557 3.79999
    endloop
  endfacet
  facet normal -0.644463 0.580277 0.497942
    outer loop
      vertex -13.3826 14.8629 3.79999
      vertex -14.8506 16.4933 0
      vertex -17.0227 14.081 0
    endloop
  endfacet
  facet normal 0.509733 -0.701588 0.497942
    outer loop
      vertex -11.9146 13.2325 0
      vertex -10.0306 14.6013 0
      vertex -13.3826 14.8629 3.79999
    endloop
  endfacet
  facet normal 0.509733 -0.701588 0.497942
    outer loop
      vertex -10.0306 14.6013 0
      vertex -10 17.3205 3.79999
      vertex -13.3826 14.8629 3.79999
    endloop
  endfacet
  facet normal 0.509733 -0.701588 0.497942
    outer loop
      vertex -10 17.3205 3.79999
      vertex -10.0306 14.6013 0
      vertex -8.90304 15.4205 0
    endloop
  endfacet
  facet normal -0.509733 0.701588 0.497943
    outer loop
      vertex -13.7231 17.3125 0
      vertex -13.3826 14.8629 3.79999
      vertex -10 17.3205 3.79999
    endloop
  endfacet
  facet normal -0.509734 0.701587 0.497942
    outer loop
      vertex -13.3826 14.8629 3.79999
      vertex -13.7231 17.3125 0
      vertex -14.8506 16.4933 0
    endloop
  endfacet
  facet normal -0.509733 0.701588 0.497942
    outer loop
      vertex -10 17.3205 3.79999
      vertex -11.097 19.2205 0
      vertex -13.7231 17.3125 0
    endloop
  endfacet
  facet normal 0.352727 -0.792236 0.497942
    outer loop
      vertex -8.90304 15.4205 0
      vertex -6.7756 16.3677 0
      vertex -10 17.3205 3.79999
    endloop
  endfacet
  facet normal 0.352726 -0.792236 0.497942
    outer loop
      vertex -6.7756 16.3677 0
      vertex -6.18034 19.0211 3.79999
      vertex -10 17.3205 3.79999
    endloop
  endfacet
  facet normal 0.352726 -0.792236 0.497942
    outer loop
      vertex -6.18034 19.0211 3.79999
      vertex -6.7756 16.3677 0
      vertex -5.50238 16.9346 0
    endloop
  endfacet
  facet normal -0.352726 0.792236 0.497942
    outer loop
      vertex -9.82374 19.7874 0
      vertex -10 17.3205 3.79999
      vertex -6.18034 19.0211 3.79999
    endloop
  endfacet
  facet normal -0.352727 0.792236 0.497942
    outer loop
      vertex -10 17.3205 3.79999
      vertex -9.82374 19.7874 0
      vertex -11.097 19.2205 0
    endloop
  endfacet
  facet normal -0.352726 0.792236 0.497942
    outer loop
      vertex -6.18034 19.0211 3.79999
      vertex -6.8583 21.1077 0
      vertex -9.82374 19.7874 0
    endloop
  endfacet
  facet normal 0.180303 -0.84826 0.497942
    outer loop
      vertex -5.50238 16.9346 0
      vertex -3.2245 17.4188 0
      vertex -6.18034 19.0211 3.79999
    endloop
  endfacet
  facet normal 0.180303 -0.84826 0.497942
    outer loop
      vertex -3.2245 17.4188 0
      vertex -2.09057 19.8904 3.79999
      vertex -6.18034 19.0211 3.79999
    endloop
  endfacet
  facet normal 0.180302 -0.84826 0.497943
    outer loop
      vertex -2.09057 19.8904 3.79999
      vertex -3.2245 17.4188 0
      vertex -1.86124 17.7085 0
    endloop
  endfacet
  facet normal -0.180303 0.848259 0.497942
    outer loop
      vertex -5.49504 21.3974 0
      vertex -6.18034 19.0211 3.79999
      vertex -2.09057 19.8904 3.79999
    endloop
  endfacet
  facet normal -0.180304 0.848259 0.497942
    outer loop
      vertex -6.18034 19.0211 3.79999
      vertex -5.49504 21.3974 0
      vertex -6.8583 21.1077 0
    endloop
  endfacet
  facet normal -0.180303 0.84826 0.497942
    outer loop
      vertex -2.09057 19.8904 3.79999
      vertex -2.3199 22.0723 0
      vertex -5.49504 21.3974 0
    endloop
  endfacet
  facet normal 0 -0.86721 0.497943
    outer loop
      vertex -1.86124 17.7085 0
      vertex 0.0999994 19.8904 3.79999
      vertex -2.09057 19.8904 3.79999
    endloop
  endfacet
  facet normal 0 -0.86721 0.497943
    outer loop
      vertex 0.0999994 19.8904 3.79999
      vertex -1.86124 17.7085 0
      vertex 0.0999994 17.7085 0
    endloop
  endfacet
  facet normal 0 0.86721 0.497942
    outer loop
      vertex 0.0999994 22.0723 0
      vertex -2.09057 19.8904 3.79999
      vertex 0.0999994 19.8904 3.79999
    endloop
  endfacet
  facet normal 0 0.86721 0.497942
    outer loop
      vertex -2.09057 19.8904 3.79999
      vertex 0.0999994 22.0723 0
      vertex -2.3199 22.0723 0
    endloop
  endfacet
  facet normal 1 0 0
    outer loop
      vertex 0.0999994 19.8904 3.79999
      vertex 0.0999994 17.7085 0
      vertex 0.0999994 22.0723 0
    endloop
  endfacet
  facet normal 0 0 -1
    outer loop
      vertex -1.86124 17.7085 0
      vertex 0.0999994 22.0723 0
      vertex 0.0999994 17.7085 0
    endloop
  endfacet
  facet normal 0 0 -1
    outer loop
      vertex -1.86124 17.7085 0
      vertex -2.3199 22.0723 0
      vertex 0.0999994 22.0723 0
    endloop
  endfacet
  facet normal 0 0 -1
    outer loop
      vertex -3.2245 17.4188 0
      vertex -2.3199 22.0723 0
      vertex -1.86124 17.7085 0
    endloop
  endfacet
  facet normal 0 0 -1
    outer loop
      vertex -3.2245 17.4188 0
      vertex -5.49504 21.3974 0
      vertex -2.3199 22.0723 0
    endloop
  endfacet
  facet normal 0 0 -1
    outer loop
      vertex -5.50238 16.9346 0
      vertex -5.49504 21.3974 0
      vertex -3.2245 17.4188 0
    endloop
  endfacet
  facet normal 0 0 -1
    outer loop
      vertex -6.8583 21.1077 0
      vertex -5.50238 16.9346 0
      vertex -6.7756 16.3677 0
    endloop
  endfacet
  facet normal 0 0 -1
    outer loop
      vertex -5.50238 16.9346 0
      vertex -6.8583 21.1077 0
      vertex -5.49504 21.3974 0
    endloop
  endfacet
  facet normal 0 0 -1
    outer loop
      vertex -9.82374 19.7874 0
      vertex -6.7756 16.3677 0
      vertex -8.90304 15.4205 0
    endloop
  endfacet
  facet normal 0 0 -1
    outer loop
      vertex -6.7756 16.3677 0
      vertex -9.82374 19.7874 0
      vertex -6.8583 21.1077 0
    endloop
  endfacet
  facet normal 0 0 -1
    outer loop
      vertex -11.097 19.2205 0
      vertex -8.90304 15.4205 0
      vertex -10.0306 14.6013 0
    endloop
  endfacet
  facet normal 0 0 -1
    outer loop
      vertex -8.90304 15.4205 0
      vertex -11.097 19.2205 0
      vertex -9.82374 19.7874 0
    endloop
  endfacet
  facet normal 0 0 -1
    outer loop
      vertex -13.7231 17.3125 0
      vertex -10.0306 14.6013 0
      vertex -11.9146 13.2325 0
    endloop
  endfacet
  facet normal 0 0 -1
    outer loop
      vertex -14.8506 16.4933 0
      vertex -11.9146 13.2325 0
      vertex -12.8472 12.1968 0
    endloop
  endfacet
  facet normal 0 0 -1
    outer loop
      vertex -10.0306 14.6013 0
      vertex -13.7231 17.3125 0
      vertex -11.097 19.2205 0
    endloop
  endfacet
  facet normal 0 0 -1
    outer loop
      vertex -17.0227 14.081 0
      vertex -12.8472 12.1968 0
      vertex -14.4054 10.4661 0
    endloop
  endfacet
  facet normal 0 0 -1
    outer loop
      vertex -11.9146 13.2325 0
      vertex -14.8506 16.4933 0
      vertex -13.7231 17.3125 0
    endloop
  endfacet
  facet normal 0 0 -1
    outer loop
      vertex -17.9553 13.0453 0
      vertex -14.4054 10.4661 0
      vertex -15.1023 9.25916 0
    endloop
  endfacet
  facet normal 0 0 -1
    outer loop
      vertex -19.5783 10.2341 0
      vertex -15.1023 9.25916 0
      vertex -16.2667 7.24238 0
    endloop
  endfacet
  facet normal 0 0 -1
    outer loop
      vertex -20.2752 9.02708 0
      vertex -16.2667 7.24238 0
      vertex -16.6973 5.91688 0
    endloop
  endfacet
  facet normal 0 0 -1
    outer loop
      vertex -12.8472 12.1968 0
      vertex -17.0227 14.081 0
      vertex -14.8506 16.4933 0
    endloop
  endfacet
  facet normal 0 0 -1
    outer loop
      vertex -21.2783 5.93988 0
      vertex -16.6973 5.91688 0
      vertex -17.417 3.70209 0
    endloop
  endfacet
  facet normal 0 0 -1
    outer loop
      vertex -21.7089 4.61438 0
      vertex -17.417 3.70209 0
      vertex -17.5626 2.31601 0
    endloop
  endfacet
  facet normal 0 0 -1
    outer loop
      vertex -22.0482 1.38608 0
      vertex -17.5626 2.31601 0
      vertex -17.8061 0 0
    endloop
  endfacet
  facet normal 0 0 -1
    outer loop
      vertex -14.4054 10.4661 0
      vertex -17.9553 13.0453 0
      vertex -17.0227 14.081 0
    endloop
  endfacet
  facet normal 0 0 -1
    outer loop
      vertex -15.1023 9.25916 0
      vertex -19.5783 10.2341 0
      vertex -17.9553 13.0453 0
    endloop
  endfacet
  facet normal 0 0 -1
    outer loop
      vertex -16.2667 7.24238 0
      vertex -20.2752 9.02708 0
      vertex -19.5783 10.2341 0
    endloop
  endfacet
  facet normal 0 0 -1
    outer loop
      vertex -16.6973 5.91688 0
      vertex -21.2783 5.93988 0
      vertex -20.2752 9.02708 0
    endloop
  endfacet
  facet normal 0 0 -1
    outer loop
      vertex -17.417 3.70209 0
      vertex -21.7089 4.61438 0
      vertex -21.2783 5.93988 0
    endloop
  endfacet
  facet normal -0 0 -1
    outer loop
      vertex -17.5626 2.31601 0
      vertex -22.0482 1.38608 0
      vertex -21.7089 4.61438 0
    endloop
  endfacet
  facet normal 0 -0 -1
    outer loop
      vertex -22.0482 1.38608 0
      vertex -17.8061 0 0
      vertex -22.1939 0 0
    endloop
  endfacet
  facet normal 0 -1 -0
    outer loop
      vertex -20 0 3.79999
      vertex -22.1939 0 0
      vertex -17.8061 0 0
    endloop
  endfacet
  facet normal 0.862459 -0.0906483 0.497942
    outer loop
      vertex -7.80607 0 0
      vertex -7.70833 0.929934 0
      vertex -10 0 3.79999
    endloop
  endfacet
  facet normal 0.862459 -0.0906485 0.497942
    outer loop
      vertex -9.78148 2.07912 3.79999
      vertex -7.70833 0.929934 0
      vertex -7.63549 1.62297 0
    endloop
  endfacet
  facet normal 0.862459 -0.0906485 0.497942
    outer loop
      vertex -7.70833 0.929934 0
      vertex -9.78148 2.07912 3.79999
      vertex -10 0 3.79999
    endloop
  endfacet
  facet normal -0.862459 0.0906485 0.497942
    outer loop
      vertex -10 0 3.79999
      vertex -12.1211 0.693039 0
      vertex -12.1939 0 0
    endloop
  endfacet
  facet normal -0.862459 0.0906485 0.497942
    outer loop
      vertex -12.1211 0.693039 0
      vertex -10 0 3.79999
      vertex -9.78148 2.07912 3.79999
    endloop
  endfacet
  facet normal -0.862459 0.0906482 0.497942
    outer loop
      vertex -9.78148 2.07912 3.79999
      vertex -11.9275 2.53526 0
      vertex -12.1211 0.693039 0
    endloop
  endfacet
  facet normal 0.824766 -0.267983 0.497942
    outer loop
      vertex -7.63549 1.62297 0
      vertex -7.34654 2.51226 0
      vertex -9.78148 2.07912 3.79999
    endloop
  endfacet
  facet normal 0.824766 -0.267983 0.497942
    outer loop
      vertex -9.78148 2.07912 3.79999
      vertex -7.1312 3.17501 0
      vertex -9.13545 4.06737 3.79999
    endloop
  endfacet
  facet normal 0.824766 -0.267982 0.497942
    outer loop
      vertex -7.1312 3.17501 0
      vertex -9.78148 2.07912 3.79999
      vertex -7.34654 2.51226 0
    endloop
  endfacet
  facet normal -0.824766 0.267983 0.497942
    outer loop
      vertex -9.78148 2.07912 3.79999
      vertex -11.7121 3.19801 0
      vertex -11.9275 2.53526 0
    endloop
  endfacet
  facet normal -0.824766 0.267983 0.497942
    outer loop
      vertex -11.7121 3.19801 0
      vertex -9.78148 2.07912 3.79999
      vertex -9.13545 4.06737 3.79999
    endloop
  endfacet
  facet normal -0.824766 0.267982 0.497942
    outer loop
      vertex -9.13545 4.06737 3.79999
      vertex -11.1397 4.95972 0
      vertex -11.7121 3.19801 0
    endloop
  endfacet
  facet normal 0.751026 -0.433605 0.497942
    outer loop
      vertex -7.1312 3.17501 0
      vertex -6.66367 3.9848 0
      vertex -9.13545 4.06737 3.79999
    endloop
  endfacet
  facet normal 0.751026 -0.433605 0.497942
    outer loop
      vertex -9.13545 4.06737 3.79999
      vertex -6.31524 4.58829 0
      vertex -8.09017 5.87785 3.79999
    endloop
  endfacet
  facet normal 0.751026 -0.433605 0.497942
    outer loop
      vertex -6.31524 4.58829 0
      vertex -9.13545 4.06737 3.79999
      vertex -6.66367 3.9848 0
    endloop
  endfacet
  facet normal -0.751026 0.433605 0.497942
    outer loop
      vertex -11.1397 4.95972 0
      vertex -8.09017 5.87785 3.79999
      vertex -10.7913 5.56321 0
    endloop
  endfacet
  facet normal -0.751026 0.433605 0.497942
    outer loop
      vertex -8.09017 5.87785 3.79999
      vertex -11.1397 4.95972 0
      vertex -9.13545 4.06737 3.79999
    endloop
  endfacet
  facet normal -0.751026 0.433605 0.497942
    outer loop
      vertex -8.09017 5.87785 3.79999
      vertex -9.8651 7.16741 0
      vertex -10.7913 5.56321 0
    endloop
  endfacet
  facet normal 0.644463 -0.580277 0.497942
    outer loop
      vertex -6.31524 4.58829 0
      vertex -5.68957 5.28318 0
      vertex -8.09017 5.87785 3.79999
    endloop
  endfacet
  facet normal 0.644463 -0.580277 0.497942
    outer loop
      vertex -8.09017 5.87785 3.79999
      vertex -5.22328 5.80104 0
      vertex -6.69131 7.43145 3.79999
    endloop
  endfacet
  facet normal 0.644462 -0.580277 0.497942
    outer loop
      vertex -5.22328 5.80104 0
      vertex -8.09017 5.87785 3.79999
      vertex -5.68957 5.28318 0
    endloop
  endfacet
  facet normal -0.644462 0.580277 0.497942
    outer loop
      vertex -9.8651 7.16741 0
      vertex -6.69131 7.43145 3.79999
      vertex -9.39881 7.68528 0
    endloop
  endfacet
  facet normal -0.644463 0.580277 0.497942
    outer loop
      vertex -6.69131 7.43145 3.79999
      vertex -9.8651 7.16741 0
      vertex -8.09017 5.87785 3.79999
    endloop
  endfacet
  facet normal -0.644463 0.580277 0.497942
    outer loop
      vertex -6.69131 7.43145 3.79999
      vertex -8.15933 9.06185 0
      vertex -9.39881 7.68528 0
    endloop
  endfacet
  facet normal 0.509733 -0.701588 0.497942
    outer loop
      vertex -5.22328 5.80104 0
      vertex -4.4668 6.35065 0
      vertex -6.69131 7.43145 3.79999
    endloop
  endfacet
  facet normal 0.509733 -0.701588 0.497942
    outer loop
      vertex -4.4668 6.35065 0
      vertex -5 8.66025 3.79999
      vertex -6.69131 7.43145 3.79999
    endloop
  endfacet
  facet normal 0.509734 -0.701588 0.497942
    outer loop
      vertex -5 8.66025 3.79999
      vertex -4.4668 6.35065 0
      vertex -3.90304 6.76026 0
    endloop
  endfacet
  facet normal -0.509733 0.701588 0.497942
    outer loop
      vertex -7.59556 9.47146 0
      vertex -6.69131 7.43145 3.79999
      vertex -5 8.66025 3.79999
    endloop
  endfacet
  facet normal -0.509734 0.701587 0.497942
    outer loop
      vertex -6.69131 7.43145 3.79999
      vertex -7.59556 9.47146 0
      vertex -8.15933 9.06185 0
    endloop
  endfacet
  facet normal -0.509734 0.701588 0.497942
    outer loop
      vertex -5 8.66025 3.79999
      vertex -6.09696 10.5603 0
      vertex -7.59556 9.47146 0
    endloop
  endfacet
  facet normal 0.352726 -0.792236 0.497942
    outer loop
      vertex -3.90304 6.76026 0
      vertex -3.04882 7.14058 0
      vertex -5 8.66025 3.79999
    endloop
  endfacet
  facet normal 0.352726 -0.792236 0.497942
    outer loop
      vertex -3.04882 7.14058 0
      vertex -3.09017 9.51056 3.79999
      vertex -5 8.66025 3.79999
    endloop
  endfacet
  facet normal 0.352726 -0.792236 0.497942
    outer loop
      vertex -3.09017 9.51056 3.79999
      vertex -3.04882 7.14058 0
      vertex -2.41221 7.42401 0
    endloop
  endfacet
  facet normal -0.352726 0.792236 0.497942
    outer loop
      vertex -5.46035 10.8437 0
      vertex -5 8.66025 3.79999
      vertex -3.09017 9.51056 3.79999
    endloop
  endfacet
  facet normal -0.352726 0.792236 0.497942
    outer loop
      vertex -5 8.66025 3.79999
      vertex -5.46035 10.8437 0
      vertex -6.09696 10.5603 0
    endloop
  endfacet
  facet normal -0.352726 0.792236 0.497942
    outer loop
      vertex -3.09017 9.51056 3.79999
      vertex -3.76813 11.5971 0
      vertex -5.46035 10.8437 0
    endloop
  endfacet
  facet normal 0.180303 -0.84826 0.497942
    outer loop
      vertex -2.41221 7.42401 0
      vertex -1.49758 7.61842 0
      vertex -3.09017 9.51056 3.79999
    endloop
  endfacet
  facet normal 0.180303 -0.84826 0.497942
    outer loop
      vertex -1.49758 7.61842 0
      vertex -1.04528 9.94522 3.79999
      vertex -3.09017 9.51056 3.79999
    endloop
  endfacet
  facet normal 0.180303 -0.84826 0.497942
    outer loop
      vertex -1.04528 9.94522 3.79999
      vertex -1.49758 7.61842 0
      vertex -0.815956 7.76331 0
    endloop
  endfacet
  facet normal -0.180303 0.84826 0.497942
    outer loop
      vertex -3.0865 11.742 0
      vertex -3.09017 9.51056 3.79999
      vertex -1.04528 9.94522 3.79999
    endloop
  endfacet
  facet normal -0.180303 0.84826 0.497942
    outer loop
      vertex -3.09017 9.51056 3.79999
      vertex -3.0865 11.742 0
      vertex -3.76813 11.5971 0
    endloop
  endfacet
  facet normal -0.180303 0.84826 0.497942
    outer loop
      vertex -1.04528 9.94522 3.79999
      vertex -1.27461 12.1271 0
      vertex -3.0865 11.742 0
    endloop
  endfacet
  facet normal 0 -0.86721 0.497942
    outer loop
      vertex -0.815956 7.76331 0
      vertex 0.0999994 9.94522 3.79999
      vertex -1.04528 9.94522 3.79999
    endloop
  endfacet
  facet normal 0 -0.86721 0.497942
    outer loop
      vertex 0.0999994 9.94522 3.79999
      vertex -0.815956 7.76331 0
      vertex 0.0999994 7.76331 0
    endloop
  endfacet
  facet normal 0 0.86721 0.497942
    outer loop
      vertex 0.0999994 12.1271 0
      vertex -1.04528 9.94522 3.79999
      vertex 0.0999994 9.94522 3.79999
    endloop
  endfacet
  facet normal 0 0.86721 0.497942
    outer loop
      vertex -1.04528 9.94522 3.79999
      vertex 0.0999994 12.1271 0
      vertex -1.27461 12.1271 0
    endloop
  endfacet
  facet normal 1 0 0
    outer loop
      vertex 0.0999994 9.94522 3.79999
      vertex 0.0999994 7.76331 0
      vertex 0.0999994 12.1271 0
    endloop
  endfacet
  facet normal 0 0 -1
    outer loop
      vertex -0.815956 7.76331 0
      vertex 0.0999994 12.1271 0
      vertex 0.0999994 7.76331 0
    endloop
  endfacet
  facet normal 0 0 -1
    outer loop
      vertex -0.815956 7.76331 0
      vertex -1.27461 12.1271 0
      vertex 0.0999994 12.1271 0
    endloop
  endfacet
  facet normal 0 0 -1
    outer loop
      vertex -1.49758 7.61842 0
      vertex -1.27461 12.1271 0
      vertex -0.815956 7.76331 0
    endloop
  endfacet
  facet normal 0 0 -1
    outer loop
      vertex -3.0865 11.742 0
      vertex -1.49758 7.61842 0
      vertex -2.41221 7.42401 0
    endloop
  endfacet
  facet normal 0 0 -1
    outer loop
      vertex -3.76813 11.5971 0
      vertex -2.41221 7.42401 0
      vertex -3.04882 7.14058 0
    endloop
  endfacet
  facet normal 0 0 -1
    outer loop
      vertex -1.49758 7.61842 0
      vertex -3.0865 11.742 0
      vertex -1.27461 12.1271 0
    endloop
  endfacet
  facet normal 0 0 -1
    outer loop
      vertex -2.41221 7.42401 0
      vertex -3.76813 11.5971 0
      vertex -3.0865 11.742 0
    endloop
  endfacet
  facet normal 0 0 -1
    outer loop
      vertex -5.46035 10.8437 0
      vertex -3.04882 7.14058 0
      vertex -3.90304 6.76026 0
    endloop
  endfacet
  facet normal 0 0 -1
    outer loop
      vertex -6.09696 10.5603 0
      vertex -3.90304 6.76026 0
      vertex -4.4668 6.35065 0
    endloop
  endfacet
  facet normal 0 0 -1
    outer loop
      vertex -7.59556 9.47146 0
      vertex -4.4668 6.35065 0
      vertex -5.22328 5.80104 0
    endloop
  endfacet
  facet normal 0 0 -1
    outer loop
      vertex -3.04882 7.14058 0
      vertex -5.46035 10.8437 0
      vertex -3.76813 11.5971 0
    endloop
  endfacet
  facet normal 0 0 -1
    outer loop
      vertex -8.15933 9.06185 0
      vertex -5.22328 5.80104 0
      vertex -5.68957 5.28318 0
    endloop
  endfacet
  facet normal 0 0 -1
    outer loop
      vertex -3.90304 6.76026 0
      vertex -6.09696 10.5603 0
      vertex -5.46035 10.8437 0
    endloop
  endfacet
  facet normal 0 0 -1
    outer loop
      vertex -9.39881 7.68528 0
      vertex -5.68957 5.28318 0
      vertex -6.31524 4.58829 0
    endloop
  endfacet
  facet normal 0 0 -1
    outer loop
      vertex -9.8651 7.16741 0
      vertex -6.31524 4.58829 0
      vertex -6.66367 3.9848 0
    endloop
  endfacet
  facet normal 0 0 -1
    outer loop
      vertex -10.7913 5.56321 0
      vertex -6.66367 3.9848 0
      vertex -7.1312 3.17501 0
    endloop
  endfacet
  facet normal 0 0 -1
    outer loop
      vertex -11.1397 4.95972 0
      vertex -7.1312 3.17501 0
      vertex -7.34654 2.51226 0
    endloop
  endfacet
  facet normal 0 0 -1
    outer loop
      vertex -4.4668 6.35065 0
      vertex -7.59556 9.47146 0
      vertex -6.09696 10.5603 0
    endloop
  endfacet
  facet normal 0 0 -1
    outer loop
      vertex -11.7121 3.19801 0
      vertex -7.34654 2.51226 0
      vertex -7.63549 1.62297 0
    endloop
  endfacet
  facet normal 0 0 -1
    outer loop
      vertex -11.9275 2.53526 0
      vertex -7.63549 1.62297 0
      vertex -7.70833 0.929934 0
    endloop
  endfacet
  facet normal 0 0 -1
    outer loop
      vertex -12.1211 0.693039 0
      vertex -7.70833 0.929934 0
      vertex -7.80607 0 0
    endloop
  endfacet
  facet normal 0 0 -1
    outer loop
      vertex -5.22328 5.80104 0
      vertex -8.15933 9.06185 0
      vertex -7.59556 9.47146 0
    endloop
  endfacet
  facet normal 0 0 -1
    outer loop
      vertex -5.68957 5.28318 0
      vertex -9.39881 7.68528 0
      vertex -8.15933 9.06185 0
    endloop
  endfacet
  facet normal 0 0 -1
    outer loop
      vertex -6.31524 4.58829 0
      vertex -9.8651 7.16741 0
      vertex -9.39881 7.68528 0
    endloop
  endfacet
  facet normal 0 0 -1
    outer loop
      vertex -6.66367 3.9848 0
      vertex -10.7913 5.56321 0
      vertex -9.8651 7.16741 0
    endloop
  endfacet
  facet normal 0 0 -1
    outer loop
      vertex -7.1312 3.17501 0
      vertex -11.1397 4.95972 0
      vertex -10.7913 5.56321 0
    endloop
  endfacet
  facet normal 0 0 -1
    outer loop
      vertex -7.34654 2.51226 0
      vertex -11.7121 3.19801 0
      vertex -11.1397 4.95972 0
    endloop
  endfacet
  facet normal 0 0 -1
    outer loop
      vertex -7.63549 1.62297 0
      vertex -11.9275 2.53526 0
      vertex -11.7121 3.19801 0
    endloop
  endfacet
  facet normal -0 0 -1
    outer loop
      vertex -7.70833 0.929934 0
      vertex -12.1211 0.693039 0
      vertex -11.9275 2.53526 0
    endloop
  endfacet
  facet normal 0 -0 -1
    outer loop
      vertex -12.1211 0.693039 0
      vertex -7.80607 0 0
      vertex -12.1939 0 0
    endloop
  endfacet
  facet normal 0 -1 -0
    outer loop
      vertex -10 0 3.79999
      vertex -12.1939 0 0
      vertex -7.80607 0 0
    endloop
  endfacet
endsolid OpenSCAD_Model
