solid OpenSCAD_Model
  facet normal 0.862459 -0.090648 0.497942
    outer loop
      vertex -27.8061 0 0
      vertex -27.417 3.70209 0
      vertex -30 0 3.79999
    endloop
  endfacet
  facet normal 0.862459 -0.0906485 0.497942
    outer loop
      vertex -29.3444 6.23735 3.79999
      vertex -27.417 3.70209 0
      vertex -27.1984 5.78121 0
    endloop
  endfacet
  facet normal 0.862459 -0.0906483 0.497942
    outer loop
      vertex -27.417 3.70209 0
      vertex -29.3444 6.23735 3.79999
      vertex -30 0 3.79999
    endloop
  endfacet
  facet normal -0.86246 0.0906478 0.497942
    outer loop
      vertex -30 0 3.79999
      vertex -31.9754 2.07912 0
      vertex -32.1939 0 0
    endloop
  endfacet
  facet normal -0.862459 0.0906483 0.497942
    outer loop
      vertex -31.9754 2.07912 0
      vertex -30 0 3.79999
      vertex -29.3444 6.23735 3.79999
    endloop
  endfacet
  facet normal -0.862459 0.0906482 0.497942
    outer loop
      vertex -29.3444 6.23735 3.79999
      vertex -31.4904 6.69349 0
      vertex -31.9754 2.07912 0
    endloop
  endfacet
  facet normal 0.824766 -0.267983 0.497942
    outer loop
      vertex -27.1984 5.78121 0
      vertex -26.0481 9.3215 0
      vertex -29.3444 6.23735 3.79999
    endloop
  endfacet
  facet normal 0.824766 -0.267982 0.497943
    outer loop
      vertex -27.4064 12.2021 3.79999
      vertex -26.0481 9.3215 0
      vertex -25.4021 11.3097 0
    endloop
  endfacet
  facet normal 0.824766 -0.267982 0.497943
    outer loop
      vertex -26.0481 9.3215 0
      vertex -27.4064 12.2021 3.79999
      vertex -29.3444 6.23735 3.79999
    endloop
  endfacet
  facet normal -0.824766 0.267982 0.497942
    outer loop
      vertex -29.3444 6.23735 3.79999
      vertex -30.8444 8.68174 0
      vertex -31.4904 6.69349 0
    endloop
  endfacet
  facet normal -0.824766 0.267982 0.497942
    outer loop
      vertex -30.8444 8.68174 0
      vertex -29.3444 6.23735 3.79999
      vertex -27.4064 12.2021 3.79999
    endloop
  endfacet
  facet normal -0.824766 0.267983 0.497942
    outer loop
      vertex -27.4064 12.2021 3.79999
      vertex -29.4106 13.0944 0
      vertex -30.8444 8.68174 0
    endloop
  endfacet
  facet normal 0.751026 -0.433605 0.497943
    outer loop
      vertex -25.4021 11.3097 0
      vertex -23.5409 14.5335 0
      vertex -27.4064 12.2021 3.79999
    endloop
  endfacet
  facet normal 0.751026 -0.433605 0.497942
    outer loop
      vertex -24.2705 17.6336 3.79999
      vertex -23.5409 14.5335 0
      vertex -22.4956 16.344 0
    endloop
  endfacet
  facet normal 0.751026 -0.433605 0.497942
    outer loop
      vertex -23.5409 14.5335 0
      vertex -24.2705 17.6336 3.79999
      vertex -27.4064 12.2021 3.79999
    endloop
  endfacet
  facet normal -0.751026 0.433605 0.497942
    outer loop
      vertex -27.4064 12.2021 3.79999
      vertex -28.3653 14.9049 0
      vertex -29.4106 13.0944 0
    endloop
  endfacet
  facet normal -0.751026 0.433605 0.497942
    outer loop
      vertex -28.3653 14.9049 0
      vertex -27.4064 12.2021 3.79999
      vertex -24.2705 17.6336 3.79999
    endloop
  endfacet
  facet normal -0.751026 0.433605 0.497942
    outer loop
      vertex -24.2705 17.6336 3.79999
      vertex -26.0454 18.9231 0
      vertex -28.3653 14.9049 0
    endloop
  endfacet
  facet normal 0.644463 -0.580277 0.497942
    outer loop
      vertex -22.4956 16.344 0
      vertex -20.0048 19.1103 0
      vertex -24.2705 17.6336 3.79999
    endloop
  endfacet
  facet normal 0.644463 -0.580277 0.497942
    outer loop
      vertex -24.2705 17.6336 3.79999
      vertex -18.6059 20.6639 0
      vertex -20.0739 22.2943 3.79999
    endloop
  endfacet
  facet normal 0.644463 -0.580278 0.497942
    outer loop
      vertex -18.6059 20.6639 0
      vertex -24.2705 17.6336 3.79999
      vertex -20.0048 19.1103 0
    endloop
  endfacet
  facet normal -0.644463 0.580277 0.497942
    outer loop
      vertex -24.2705 17.6336 3.79999
      vertex -24.6466 20.4767 0
      vertex -26.0454 18.9231 0
    endloop
  endfacet
  facet normal -0.644463 0.580277 0.497942
    outer loop
      vertex -24.6466 20.4767 0
      vertex -24.2705 17.6336 3.79999
      vertex -20.0739 22.2943 3.79999
    endloop
  endfacet
  facet normal -0.644463 0.580277 0.497942
    outer loop
      vertex -20.0739 22.2943 3.79999
      vertex -21.5419 23.9248 0
      vertex -24.6466 20.4767 0
    endloop
  endfacet
  facet normal 0.509733 -0.701588 0.497942
    outer loop
      vertex -18.6059 20.6639 0
      vertex -15.5943 22.852 0
      vertex -20.0739 22.2943 3.79999
    endloop
  endfacet
  facet normal 0.509733 -0.701588 0.497942
    outer loop
      vertex -15.5943 22.852 0
      vertex -15 25.9808 3.79999
      vertex -20.0739 22.2943 3.79999
    endloop
  endfacet
  facet normal 0.509733 -0.701588 0.497943
    outer loop
      vertex -15 25.9808 3.79999
      vertex -15.5943 22.852 0
      vertex -13.903 24.0808 0
    endloop
  endfacet
  facet normal -0.509733 0.701588 0.497942
    outer loop
      vertex -19.8506 25.1536 0
      vertex -20.0739 22.2943 3.79999
      vertex -15 25.9808 3.79999
    endloop
  endfacet
  facet normal -0.509733 0.701588 0.497942
    outer loop
      vertex -20.0739 22.2943 3.79999
      vertex -19.8506 25.1536 0
      vertex -21.5419 23.9248 0
    endloop
  endfacet
  facet normal -0.509733 0.701588 0.497942
    outer loop
      vertex -15 25.9808 3.79999
      vertex -16.097 27.8808 0
      vertex -19.8506 25.1536 0
    endloop
  endfacet
  facet normal 0.352726 -0.792236 0.497943
    outer loop
      vertex -13.903 24.0808 0
      vertex -10.5024 25.5948 0
      vertex -15 25.9808 3.79999
    endloop
  endfacet
  facet normal 0.352726 -0.792236 0.497943
    outer loop
      vertex -10.5024 25.5948 0
      vertex -9.27051 28.5317 3.79999
      vertex -15 25.9808 3.79999
    endloop
  endfacet
  facet normal 0.352726 -0.792236 0.497943
    outer loop
      vertex -9.27051 28.5317 3.79999
      vertex -10.5024 25.5948 0
      vertex -8.59255 26.4451 0
    endloop
  endfacet
  facet normal -0.352726 0.792236 0.497942
    outer loop
      vertex -14.1871 28.7311 0
      vertex -15 25.9808 3.79999
      vertex -9.27051 28.5317 3.79999
    endloop
  endfacet
  facet normal -0.352726 0.792236 0.497942
    outer loop
      vertex -15 25.9808 3.79999
      vertex -14.1871 28.7311 0
      vertex -16.097 27.8808 0
    endloop
  endfacet
  facet normal -0.352726 0.792236 0.497942
    outer loop
      vertex -9.27051 28.5317 3.79999
      vertex -9.94847 30.6182 0
      vertex -14.1871 28.7311 0
    endloop
  endfacet
  facet normal 0.180303 -0.848259 0.497943
    outer loop
      vertex -8.59255 26.4451 0
      vertex -4.95141 27.2191 0
      vertex -9.27051 28.5317 3.79999
    endloop
  endfacet
  facet normal 0.180303 -0.84826 0.497942
    outer loop
      vertex -4.95141 27.2191 0
      vertex -3.13585 29.8357 3.79999
      vertex -9.27051 28.5317 3.79999
    endloop
  endfacet
  facet normal 0.180303 -0.84826 0.497942
    outer loop
      vertex -3.13585 29.8357 3.79999
      vertex -4.95141 27.2191 0
      vertex -2.90653 27.6537 0
    endloop
  endfacet
  facet normal -0.180303 0.84826 0.497942
    outer loop
      vertex -7.90359 31.0529 0
      vertex -9.27051 28.5317 3.79999
      vertex -3.13585 29.8357 3.79999
    endloop
  endfacet
  facet normal -0.180303 0.84826 0.497942
    outer loop
      vertex -9.27051 28.5317 3.79999
      vertex -7.90359 31.0529 0
      vertex -9.94847 30.6182 0
    endloop
  endfacet
  facet normal -0.180303 0.848259 0.497942
    outer loop
      vertex -3.13585 29.8357 3.79999
      vertex -3.36518 32.0176 0
      vertex -7.90359 31.0529 0
    endloop
  endfacet
  facet normal 0 -0.86721 0.497942
    outer loop
      vertex -2.90653 27.6537 0
      vertex 0.0999994 29.8357 3.79999
      vertex -3.13585 29.8357 3.79999
    endloop
  endfacet
  facet normal 0 -0.86721 0.497942
    outer loop
      vertex 0.0999994 29.8357 3.79999
      vertex -2.90653 27.6537 0
      vertex 0.0999994 27.6537 0
    endloop
  endfacet
  facet normal 0 0.86721 0.497943
    outer loop
      vertex 0.0999994 32.0176 0
      vertex -3.13585 29.8357 3.79999
      vertex 0.0999994 29.8357 3.79999
    endloop
  endfacet
  facet normal 0 0.86721 0.497943
    outer loop
      vertex -3.13585 29.8357 3.79999
      vertex 0.0999994 32.0176 0
      vertex -3.36518 32.0176 0
    endloop
  endfacet
  facet normal 0.180303 0.84826 0.497942
    outer loop
      vertex -4.89605 -28.3107 1.83953
      vertex -4.71238 -27.2699 0
      vertex -6.54766 -26.8798 0
    endloop
  endfacet
  facet normal 0.180303 0.84826 0.497942
    outer loop
      vertex -4.89605 -28.3107 1.83953
      vertex -9.27051 -28.5317 3.79999
      vertex -5.09179 -29.4199 3.79999
    endloop
  endfacet
  facet normal 0.180303 0.84826 0.497942
    outer loop
      vertex -6.54766 -26.8798 0
      vertex -9.27051 -28.5317 3.79999
      vertex -4.89605 -28.3107 1.83953
    endloop
  endfacet
  facet normal 0.180303 0.848259 0.497943
    outer loop
      vertex -9.27051 -28.5317 3.79999
      vertex -6.54766 -26.8798 0
      vertex -8.59255 -26.4451 0
    endloop
  endfacet
  facet normal -0.180303 -0.84826 0.497942
    outer loop
      vertex -5.46574 -31.5389 0.0547985
      vertex -5.09179 -29.4199 3.79999
      vertex -9.27051 -28.5317 3.79999
    endloop
  endfacet
  facet normal -0.180303 -0.84826 0.497942
    outer loop
      vertex -9.94847 -30.6182 0
      vertex -5.46574 -31.5389 0.0547985
      vertex -9.27051 -28.5317 3.79999
    endloop
  endfacet
  facet normal -0.180301 -0.848252 0.497956
    outer loop
      vertex -5.46574 -31.5389 0.0547985
      vertex -9.94847 -30.6182 0
      vertex -5.47121 -31.5699 0
    endloop
  endfacet
  facet normal 0.352726 0.792236 0.497943
    outer loop
      vertex -9.27051 -28.5317 3.79999
      vertex -8.59255 -26.4451 0
      vertex -11.9932 -24.9311 0
    endloop
  endfacet
  facet normal 0.352726 0.792236 0.497943
    outer loop
      vertex -11.9932 -24.9311 0
      vertex -15 -25.9808 3.79999
      vertex -9.27051 -28.5317 3.79999
    endloop
  endfacet
  facet normal 0.352726 0.792236 0.497943
    outer loop
      vertex -15 -25.9808 3.79999
      vertex -11.9932 -24.9311 0
      vertex -13.903 -24.0808 0
    endloop
  endfacet
  facet normal -0.352726 -0.792236 0.497942
    outer loop
      vertex -11.8583 -29.7679 0
      vertex -9.27051 -28.5317 3.79999
      vertex -15 -25.9808 3.79999
    endloop
  endfacet
  facet normal -0.352726 -0.792236 0.497942
    outer loop
      vertex -9.27051 -28.5317 3.79999
      vertex -11.8583 -29.7679 0
      vertex -9.94847 -30.6182 0
    endloop
  endfacet
  facet normal -0.352726 -0.792236 0.497942
    outer loop
      vertex -11.8583 -29.7679 0
      vertex -15 -25.9808 3.79999
      vertex -16.097 -27.8808 0
    endloop
  endfacet
  facet normal 0.509733 0.701588 0.497943
    outer loop
      vertex -15 -25.9808 3.79999
      vertex -13.903 -24.0808 0
      vertex -16.9146 -21.8927 0
    endloop
  endfacet
  facet normal 0.509733 0.701588 0.497942
    outer loop
      vertex -16.9146 -21.8927 0
      vertex -20.0739 -22.2943 3.79999
      vertex -15 -25.9808 3.79999
    endloop
  endfacet
  facet normal 0.509733 0.701588 0.497942
    outer loop
      vertex -20.0739 -22.2943 3.79999
      vertex -16.9146 -21.8927 0
      vertex -18.6059 -20.6639 0
    endloop
  endfacet
  facet normal -0.509733 -0.701588 0.497942
    outer loop
      vertex -17.7883 -26.652 0
      vertex -15 -25.9808 3.79999
      vertex -20.0739 -22.2943 3.79999
    endloop
  endfacet
  facet normal -0.509733 -0.701588 0.497942
    outer loop
      vertex -15 -25.9808 3.79999
      vertex -17.7883 -26.652 0
      vertex -16.097 -27.8808 0
    endloop
  endfacet
  facet normal -0.509733 -0.701588 0.497942
    outer loop
      vertex -17.7883 -26.652 0
      vertex -20.0739 -22.2943 3.79999
      vertex -21.5419 -23.9248 0
    endloop
  endfacet
  facet normal 0.644462 0.580277 0.497942
    outer loop
      vertex -20.0739 -22.2943 3.79999
      vertex -18.6059 -20.6639 0
      vertex -21.0967 -17.8976 0
    endloop
  endfacet
  facet normal 0.644463 0.580277 0.497942
    outer loop
      vertex -24.2705 -17.6336 3.79999
      vertex -21.0967 -17.8976 0
      vertex -22.4956 -16.344 0
    endloop
  endfacet
  facet normal 0.644463 0.580277 0.497942
    outer loop
      vertex -21.0967 -17.8976 0
      vertex -24.2705 -17.6336 3.79999
      vertex -20.0739 -22.2943 3.79999
    endloop
  endfacet
  facet normal -0.644463 -0.580277 0.497942
    outer loop
      vertex -22.9408 -22.3712 0
      vertex -20.0739 -22.2943 3.79999
      vertex -24.2705 -17.6336 3.79999
    endloop
  endfacet
  facet normal -0.644463 -0.580277 0.497942
    outer loop
      vertex -20.0739 -22.2943 3.79999
      vertex -22.9408 -22.3712 0
      vertex -21.5419 -23.9248 0
    endloop
  endfacet
  facet normal -0.644463 -0.580277 0.497942
    outer loop
      vertex -22.9408 -22.3712 0
      vertex -24.2705 -17.6336 3.79999
      vertex -26.0454 -18.9231 0
    endloop
  endfacet
  facet normal 0.751026 0.433605 0.497942
    outer loop
      vertex -24.2705 -17.6336 3.79999
      vertex -22.4956 -16.344 0
      vertex -24.3568 -13.1202 0
    endloop
  endfacet
  facet normal 0.751026 0.433605 0.497943
    outer loop
      vertex -27.4064 -12.2021 3.79999
      vertex -24.3568 -13.1202 0
      vertex -25.4021 -11.3097 0
    endloop
  endfacet
  facet normal 0.751026 0.433605 0.497942
    outer loop
      vertex -24.3568 -13.1202 0
      vertex -27.4064 -12.2021 3.79999
      vertex -24.2705 -17.6336 3.79999
    endloop
  endfacet
  facet normal -0.751026 -0.433605 0.497943
    outer loop
      vertex -27.0907 -17.1126 0
      vertex -24.2705 -17.6336 3.79999
      vertex -27.4064 -12.2021 3.79999
    endloop
  endfacet
  facet normal -0.751026 -0.433606 0.497942
    outer loop
      vertex -24.2705 -17.6336 3.79999
      vertex -27.0907 -17.1126 0
      vertex -26.0454 -18.9231 0
    endloop
  endfacet
  facet normal -0.751026 -0.433605 0.497942
    outer loop
      vertex -27.0907 -17.1126 0
      vertex -27.4064 -12.2021 3.79999
      vertex -29.4106 -13.0944 0
    endloop
  endfacet
  facet normal 0.824766 0.267983 0.497943
    outer loop
      vertex -25.4021 -11.3097 0
      vertex -26.5524 -7.76946 0
      vertex -27.4064 -12.2021 3.79999
    endloop
  endfacet
  facet normal 0.824766 0.267982 0.497942
    outer loop
      vertex -29.3444 -6.23735 3.79999
      vertex -26.5524 -7.76946 0
      vertex -27.1984 -5.78121 0
    endloop
  endfacet
  facet normal 0.824766 0.267982 0.497942
    outer loop
      vertex -26.5524 -7.76946 0
      vertex -29.3444 -6.23735 3.79999
      vertex -27.4064 -12.2021 3.79999
    endloop
  endfacet
  facet normal -0.824766 -0.267982 0.497942
    outer loop
      vertex -30.0566 -11.1062 0
      vertex -27.4064 -12.2021 3.79999
      vertex -29.3444 -6.23735 3.79999
    endloop
  endfacet
  facet normal -0.824766 -0.267982 0.497942
    outer loop
      vertex -27.4064 -12.2021 3.79999
      vertex -30.0566 -11.1062 0
      vertex -29.4106 -13.0944 0
    endloop
  endfacet
  facet normal -0.824766 -0.267983 0.497942
    outer loop
      vertex -30.0566 -11.1062 0
      vertex -29.3444 -6.23735 3.79999
      vertex -31.4904 -6.69349 0
    endloop
  endfacet
  facet normal 0.862459 0.0906485 0.497942
    outer loop
      vertex -27.1984 -5.78121 0
      vertex -27.5875 -2.07912 0
      vertex -29.3444 -6.23735 3.79999
    endloop
  endfacet
  facet normal 0.862459 0.0906477 0.497942
    outer loop
      vertex -30 0 3.79999
      vertex -27.5875 -2.07912 0
      vertex -27.8061 0 0
    endloop
  endfacet
  facet normal 0.86246 0.0906483 0.497942
    outer loop
      vertex -27.5875 -2.07912 0
      vertex -30 0 3.79999
      vertex -29.3444 -6.23735 3.79999
    endloop
  endfacet
  facet normal -0.862459 -0.0906483 0.497942
    outer loop
      vertex -31.7089 -4.61438 0
      vertex -29.3444 -6.23735 3.79999
      vertex -30 0 3.79999
    endloop
  endfacet
  facet normal -0.862459 -0.0906485 0.497942
    outer loop
      vertex -29.3444 -6.23735 3.79999
      vertex -31.7089 -4.61438 0
      vertex -31.4904 -6.69349 0
    endloop
  endfacet
  facet normal -0.86246 -0.0906479 0.497942
    outer loop
      vertex -31.7089 -4.61438 0
      vertex -30 0 3.79999
      vertex -32.1939 0 0
    endloop
  endfacet
  facet normal 0.984783 -0.173787 2.81071e-08
    outer loop
      vertex -5.46574 -31.5389 0.0547985
      vertex -4.89605 -28.3107 1.83953
      vertex -5.09179 -29.4199 3.79999
    endloop
  endfacet
  facet normal 0.984783 -0.173787 9.33175e-08
    outer loop
      vertex -4.89605 -28.3107 1.83953
      vertex -5.46574 -31.5389 0.0547985
      vertex -4.71238 -27.2699 0
    endloop
  endfacet
  facet normal 0.984783 -0.173787 7.83848e-06
    outer loop
      vertex -4.71238 -27.2699 0
      vertex -5.46574 -31.5389 0.0547985
      vertex -5.47121 -31.5699 0
    endloop
  endfacet
  facet normal 1 0 0
    outer loop
      vertex 0.0999994 29.8357 3.79999
      vertex 0.0999994 27.6537 0
      vertex 0.0999994 32.0176 0
    endloop
  endfacet
  facet normal 0 0 -1
    outer loop
      vertex -5.47121 -31.5699 0
      vertex -6.54766 -26.8798 0
      vertex -4.71238 -27.2699 0
    endloop
  endfacet
  facet normal 0 0 -1
    outer loop
      vertex -9.94847 -30.6182 0
      vertex -6.54766 -26.8798 0
      vertex -5.47121 -31.5699 0
    endloop
  endfacet
  facet normal -0 0 -1
    outer loop
      vertex -6.54766 -26.8798 0
      vertex -9.94847 -30.6182 0
      vertex -8.59255 -26.4451 0
    endloop
  endfacet
  facet normal 0 0 -1
    outer loop
      vertex -11.8583 -29.7679 0
      vertex -8.59255 -26.4451 0
      vertex -9.94847 -30.6182 0
    endloop
  endfacet
  facet normal 0 0 -1
    outer loop
      vertex -11.8583 -29.7679 0
      vertex -11.9932 -24.9311 0
      vertex -8.59255 -26.4451 0
    endloop
  endfacet
  facet normal 0 0 -1
    outer loop
      vertex -16.097 -27.8808 0
      vertex -11.9932 -24.9311 0
      vertex -11.8583 -29.7679 0
    endloop
  endfacet
  facet normal -0 0 -1
    outer loop
      vertex -11.9932 -24.9311 0
      vertex -16.097 -27.8808 0
      vertex -13.903 -24.0808 0
    endloop
  endfacet
  facet normal 0 0 -1
    outer loop
      vertex -17.7883 -26.652 0
      vertex -13.903 -24.0808 0
      vertex -16.097 -27.8808 0
    endloop
  endfacet
  facet normal -0 0 -1
    outer loop
      vertex -13.903 -24.0808 0
      vertex -17.7883 -26.652 0
      vertex -16.9146 -21.8927 0
    endloop
  endfacet
  facet normal 0 0 -1
    outer loop
      vertex -21.5419 -23.9248 0
      vertex -16.9146 -21.8927 0
      vertex -17.7883 -26.652 0
    endloop
  endfacet
  facet normal -0 0 -1
    outer loop
      vertex -16.9146 -21.8927 0
      vertex -21.5419 -23.9248 0
      vertex -18.6059 -20.6639 0
    endloop
  endfacet
  facet normal 0 0 -1
    outer loop
      vertex -22.9408 -22.3712 0
      vertex -18.6059 -20.6639 0
      vertex -21.5419 -23.9248 0
    endloop
  endfacet
  facet normal -0 0 -1
    outer loop
      vertex -18.6059 -20.6639 0
      vertex -22.9408 -22.3712 0
      vertex -21.0967 -17.8976 0
    endloop
  endfacet
  facet normal 0 0 -1
    outer loop
      vertex -26.0454 -18.9231 0
      vertex -21.0967 -17.8976 0
      vertex -22.9408 -22.3712 0
    endloop
  endfacet
  facet normal -0 0 -1
    outer loop
      vertex -21.0967 -17.8976 0
      vertex -26.0454 -18.9231 0
      vertex -22.4956 -16.344 0
    endloop
  endfacet
  facet normal 0 0 -1
    outer loop
      vertex -27.0907 -17.1126 0
      vertex -22.4956 -16.344 0
      vertex -26.0454 -18.9231 0
    endloop
  endfacet
  facet normal -0 0 -1
    outer loop
      vertex -22.4956 -16.344 0
      vertex -27.0907 -17.1126 0
      vertex -24.3568 -13.1202 0
    endloop
  endfacet
  facet normal 0 0 -1
    outer loop
      vertex -29.4106 -13.0944 0
      vertex -24.3568 -13.1202 0
      vertex -27.0907 -17.1126 0
    endloop
  endfacet
  facet normal 0 0 -1
    outer loop
      vertex -24.3568 -13.1202 0
      vertex -29.4106 -13.0944 0
      vertex -25.4021 -11.3097 0
    endloop
  endfacet
  facet normal 0 0 -1
    outer loop
      vertex -30.0566 -11.1062 0
      vertex -25.4021 -11.3097 0
      vertex -29.4106 -13.0944 0
    endloop
  endfacet
  facet normal 0 0 -1
    outer loop
      vertex -25.4021 -11.3097 0
      vertex -30.0566 -11.1062 0
      vertex -26.5524 -7.76946 0
    endloop
  endfacet
  facet normal 0 0 -1
    outer loop
      vertex -31.4904 -6.69349 0
      vertex -26.5524 -7.76946 0
      vertex -30.0566 -11.1062 0
    endloop
  endfacet
  facet normal 0 0 -1
    outer loop
      vertex -26.5524 -7.76946 0
      vertex -31.4904 -6.69349 0
      vertex -27.1984 -5.78121 0
    endloop
  endfacet
  facet normal 0 0 -1
    outer loop
      vertex -31.7089 -4.61438 0
      vertex -27.1984 -5.78121 0
      vertex -31.4904 -6.69349 0
    endloop
  endfacet
  facet normal 0 0 -1
    outer loop
      vertex -27.1984 -5.78121 0
      vertex -31.7089 -4.61438 0
      vertex -27.5875 -2.07912 0
    endloop
  endfacet
  facet normal 0 -0 -1
    outer loop
      vertex -29.4106 13.0944 0
      vertex -27.8061 0 0
      vertex -30.8444 8.68174 0
    endloop
  endfacet
  facet normal 0 0 -1
    outer loop
      vertex -27.8061 0 0
      vertex -29.4106 13.0944 0
      vertex -28.3653 14.9049 0
    endloop
  endfacet
  facet normal 0 0 -1
    outer loop
      vertex -32.1939 0 0
      vertex -27.5875 -2.07912 0
      vertex -31.7089 -4.61438 0
    endloop
  endfacet
  facet normal 0 0 -1
    outer loop
      vertex -27.5875 -2.07912 0
      vertex -32.1939 0 0
      vertex -27.8061 0 0
    endloop
  endfacet
  facet normal 0 -0 -1
    outer loop
      vertex -31.4904 6.69349 0
      vertex -27.8061 0 0
      vertex -31.9754 2.07912 0
    endloop
  endfacet
  facet normal 0 0 -1
    outer loop
      vertex -27.8061 0 0
      vertex -31.4904 6.69349 0
      vertex -30.8444 8.68174 0
    endloop
  endfacet
  facet normal 0 0 -1
    outer loop
      vertex -27.8061 0 0
      vertex -32.1939 0 0
      vertex -31.9754 2.07912 0
    endloop
  endfacet
  facet normal 0 0 -1
    outer loop
      vertex -2.90653 27.6537 0
      vertex 0.0999994 32.0176 0
      vertex 0.0999994 27.6537 0
    endloop
  endfacet
  facet normal 0 0 -1
    outer loop
      vertex -2.90653 27.6537 0
      vertex -3.36518 32.0176 0
      vertex 0.0999994 32.0176 0
    endloop
  endfacet
  facet normal 0 0 -1
    outer loop
      vertex -4.95141 27.2191 0
      vertex -3.36518 32.0176 0
      vertex -2.90653 27.6537 0
    endloop
  endfacet
  facet normal 0 0 -1
    outer loop
      vertex -4.95141 27.2191 0
      vertex -7.90359 31.0529 0
      vertex -3.36518 32.0176 0
    endloop
  endfacet
  facet normal 0 0 -1
    outer loop
      vertex -8.59255 26.4451 0
      vertex -7.90359 31.0529 0
      vertex -4.95141 27.2191 0
    endloop
  endfacet
  facet normal 0 0 -1
    outer loop
      vertex -8.59255 26.4451 0
      vertex -9.94847 30.6182 0
      vertex -7.90359 31.0529 0
    endloop
  endfacet
  facet normal 0 0 -1
    outer loop
      vertex -10.5024 25.5948 0
      vertex -9.94847 30.6182 0
      vertex -8.59255 26.4451 0
    endloop
  endfacet
  facet normal 0 0 -1
    outer loop
      vertex -14.1871 28.7311 0
      vertex -10.5024 25.5948 0
      vertex -13.903 24.0808 0
    endloop
  endfacet
  facet normal 0 0 -1
    outer loop
      vertex -10.5024 25.5948 0
      vertex -14.1871 28.7311 0
      vertex -9.94847 30.6182 0
    endloop
  endfacet
  facet normal 0 0 -1
    outer loop
      vertex -16.097 27.8808 0
      vertex -13.903 24.0808 0
      vertex -15.5943 22.852 0
    endloop
  endfacet
  facet normal 0 0 -1
    outer loop
      vertex -13.903 24.0808 0
      vertex -16.097 27.8808 0
      vertex -14.1871 28.7311 0
    endloop
  endfacet
  facet normal 0 0 -1
    outer loop
      vertex -19.8506 25.1536 0
      vertex -15.5943 22.852 0
      vertex -18.6059 20.6639 0
    endloop
  endfacet
  facet normal 0 0 -1
    outer loop
      vertex -15.5943 22.852 0
      vertex -19.8506 25.1536 0
      vertex -16.097 27.8808 0
    endloop
  endfacet
  facet normal 0 0 -1
    outer loop
      vertex -21.5419 23.9248 0
      vertex -18.6059 20.6639 0
      vertex -20.0048 19.1103 0
    endloop
  endfacet
  facet normal 0 0 -1
    outer loop
      vertex -18.6059 20.6639 0
      vertex -21.5419 23.9248 0
      vertex -19.8506 25.1536 0
    endloop
  endfacet
  facet normal 0 0 -1
    outer loop
      vertex -24.6466 20.4767 0
      vertex -20.0048 19.1103 0
      vertex -22.4956 16.344 0
    endloop
  endfacet
  facet normal 0 0 -1
    outer loop
      vertex -26.0454 18.9231 0
      vertex -22.4956 16.344 0
      vertex -23.5409 14.5335 0
    endloop
  endfacet
  facet normal 0 0 -1
    outer loop
      vertex -20.0048 19.1103 0
      vertex -24.6466 20.4767 0
      vertex -21.5419 23.9248 0
    endloop
  endfacet
  facet normal 0 0 -1
    outer loop
      vertex -28.3653 14.9049 0
      vertex -23.5409 14.5335 0
      vertex -25.4021 11.3097 0
    endloop
  endfacet
  facet normal 0 0 -1
    outer loop
      vertex -22.4956 16.344 0
      vertex -26.0454 18.9231 0
      vertex -24.6466 20.4767 0
    endloop
  endfacet
  facet normal 0 0 -1
    outer loop
      vertex -28.3653 14.9049 0
      vertex -25.4021 11.3097 0
      vertex -26.0481 9.3215 0
    endloop
  endfacet
  facet normal 0 0 -1
    outer loop
      vertex -28.3653 14.9049 0
      vertex -26.0481 9.3215 0
      vertex -27.1984 5.78121 0
    endloop
  endfacet
  facet normal 0 0 -1
    outer loop
      vertex -28.3653 14.9049 0
      vertex -27.1984 5.78121 0
      vertex -27.417 3.70209 0
    endloop
  endfacet
  facet normal 0 0 -1
    outer loop
      vertex -28.3653 14.9049 0
      vertex -27.417 3.70209 0
      vertex -27.8061 0 0
    endloop
  endfacet
  facet normal 0 0 -1
    outer loop
      vertex -23.5409 14.5335 0
      vertex -28.3653 14.9049 0
      vertex -26.0454 18.9231 0
    endloop
  endfacet
  facet normal 0.862459 -0.0906477 0.497942
    outer loop
      vertex -17.8061 0 0
      vertex -17.5626 2.31601 0
      vertex -20 0 3.79999
    endloop
  endfacet
  facet normal 0.86246 -0.0906485 0.497942
    outer loop
      vertex -19.563 4.15823 3.79999
      vertex -17.5626 2.31601 0
      vertex -17.417 3.70209 0
    endloop
  endfacet
  facet normal 0.86246 -0.0906485 0.497942
    outer loop
      vertex -17.5626 2.31601 0
      vertex -19.563 4.15823 3.79999
      vertex -20 0 3.79999
    endloop
  endfacet
  facet normal -0.862459 0.0906485 0.497942
    outer loop
      vertex -20 0 3.79999
      vertex -22.0482 1.38608 0
      vertex -22.1939 0 0
    endloop
  endfacet
  facet normal -0.862459 0.0906485 0.497942
    outer loop
      vertex -22.0482 1.38608 0
      vertex -20 0 3.79999
      vertex -19.563 4.15823 3.79999
    endloop
  endfacet
  facet normal -0.862459 0.0906481 0.497943
    outer loop
      vertex -19.563 4.15823 3.79999
      vertex -21.7089 4.61438 0
      vertex -22.0482 1.38608 0
    endloop
  endfacet
  facet normal 0.824766 -0.267983 0.497942
    outer loop
      vertex -17.417 3.70209 0
      vertex -16.6973 5.91688 0
      vertex -19.563 4.15823 3.79999
    endloop
  endfacet
  facet normal 0.824766 -0.267983 0.497942
    outer loop
      vertex -18.2709 8.13473 3.79999
      vertex -16.6973 5.91688 0
      vertex -16.2667 7.24238 0
    endloop
  endfacet
  facet normal 0.824766 -0.267983 0.497942
    outer loop
      vertex -16.6973 5.91688 0
      vertex -18.2709 8.13473 3.79999
      vertex -19.563 4.15823 3.79999
    endloop
  endfacet
  facet normal -0.824766 0.267983 0.497943
    outer loop
      vertex -19.563 4.15823 3.79999
      vertex -21.2783 5.93988 0
      vertex -21.7089 4.61438 0
    endloop
  endfacet
  facet normal -0.824766 0.267982 0.497943
    outer loop
      vertex -21.2783 5.93988 0
      vertex -19.563 4.15823 3.79999
      vertex -18.2709 8.13473 3.79999
    endloop
  endfacet
  facet normal -0.824766 0.267983 0.497942
    outer loop
      vertex -18.2709 8.13473 3.79999
      vertex -20.2752 9.02708 0
      vertex -21.2783 5.93988 0
    endloop
  endfacet
  facet normal 0.751026 -0.433605 0.497942
    outer loop
      vertex -16.2667 7.24238 0
      vertex -15.1023 9.25916 0
      vertex -18.2709 8.13473 3.79999
    endloop
  endfacet
  facet normal 0.751026 -0.433605 0.497942
    outer loop
      vertex -18.2709 8.13473 3.79999
      vertex -14.4054 10.4661 0
      vertex -16.1803 11.7557 3.79999
    endloop
  endfacet
  facet normal 0.751026 -0.433605 0.497942
    outer loop
      vertex -14.4054 10.4661 0
      vertex -18.2709 8.13473 3.79999
      vertex -15.1023 9.25916 0
    endloop
  endfacet
  facet normal -0.751026 0.433605 0.497942
    outer loop
      vertex -18.2709 8.13473 3.79999
      vertex -19.5783 10.2341 0
      vertex -20.2752 9.02708 0
    endloop
  endfacet
  facet normal -0.751026 0.433605 0.497942
    outer loop
      vertex -19.5783 10.2341 0
      vertex -18.2709 8.13473 3.79999
      vertex -16.1803 11.7557 3.79999
    endloop
  endfacet
  facet normal -0.751026 0.433605 0.497942
    outer loop
      vertex -16.1803 11.7557 3.79999
      vertex -17.9553 13.0453 0
      vertex -19.5783 10.2341 0
    endloop
  endfacet
  facet normal 0.644463 -0.580277 0.497942
    outer loop
      vertex -14.4054 10.4661 0
      vertex -12.8472 12.1968 0
      vertex -16.1803 11.7557 3.79999
    endloop
  endfacet
  facet normal 0.644463 -0.580277 0.497942
    outer loop
      vertex -16.1803 11.7557 3.79999
      vertex -11.9146 13.2325 0
      vertex -13.3826 14.8629 3.79999
    endloop
  endfacet
  facet normal 0.644463 -0.580277 0.497942
    outer loop
      vertex -11.9146 13.2325 0
      vertex -16.1803 11.7557 3.79999
      vertex -12.8472 12.1968 0
    endloop
  endfacet
  facet normal -0.644463 0.580277 0.497943
    outer loop
      vertex -17.9553 13.0453 0
      vertex -13.3826 14.8629 3.79999
      vertex -17.0227 14.081 0
    endloop
  endfacet
  facet normal -0.644463 0.580277 0.497942
    outer loop
      vertex -13.3826 14.8629 3.79999
      vertex -17.9553 13.0453 0
      vertex -16.1803 11.7557 3.79999
    endloop
  endfacet
  facet normal -0.644463 0.580277 0.497942
    outer loop
      vertex -13.3826 14.8629 3.79999
      vertex -14.8506 16.4933 0
      vertex -17.0227 14.081 0
    endloop
  endfacet
  facet normal 0.509733 -0.701588 0.497942
    outer loop
      vertex -11.9146 13.2325 0
      vertex -10.0306 14.6013 0
      vertex -13.3826 14.8629 3.79999
    endloop
  endfacet
  facet normal 0.509733 -0.701588 0.497942
    outer loop
      vertex -10.0306 14.6013 0
      vertex -10 17.3205 3.79999
      vertex -13.3826 14.8629 3.79999
    endloop
  endfacet
  facet normal 0.509733 -0.701588 0.497942
    outer loop
      vertex -10 17.3205 3.79999
      vertex -10.0306 14.6013 0
      vertex -8.90304 15.4205 0
    endloop
  endfacet
  facet normal -0.509733 0.701588 0.497943
    outer loop
      vertex -13.7231 17.3125 0
      vertex -13.3826 14.8629 3.79999
      vertex -10 17.3205 3.79999
    endloop
  endfacet
  facet normal -0.509734 0.701587 0.497942
    outer loop
      vertex -13.3826 14.8629 3.79999
      vertex -13.7231 17.3125 0
      vertex -14.8506 16.4933 0
    endloop
  endfacet
  facet normal -0.509733 0.701588 0.497942
    outer loop
      vertex -10 17.3205 3.79999
      vertex -11.097 19.2205 0
      vertex -13.7231 17.3125 0
    endloop
  endfacet
  facet normal 0.352727 -0.792236 0.497942
    outer loop
      vertex -8.90304 15.4205 0
      vertex -6.7756 16.3677 0
      vertex -10 17.3205 3.79999
    endloop
  endfacet
  facet normal 0.352726 -0.792236 0.497942
    outer loop
      vertex -6.7756 16.3677 0
      vertex -6.18034 19.0211 3.79999
      vertex -10 17.3205 3.79999
    endloop
  endfacet
  facet normal 0.352726 -0.792236 0.497942
    outer loop
      vertex -6.18034 19.0211 3.79999
      vertex -6.7756 16.3677 0
      vertex -5.50238 16.9346 0
    endloop
  endfacet
  facet normal -0.352726 0.792236 0.497942
    outer loop
      vertex -9.82374 19.7874 0
      vertex -10 17.3205 3.79999
      vertex -6.18034 19.0211 3.79999
    endloop
  endfacet
  facet normal -0.352727 0.792236 0.497942
    outer loop
      vertex -10 17.3205 3.79999
      vertex -9.82374 19.7874 0
      vertex -11.097 19.2205 0
    endloop
  endfacet
  facet normal -0.352726 0.792236 0.497942
    outer loop
      vertex -6.18034 19.0211 3.79999
      vertex -6.8583 21.1077 0
      vertex -9.82374 19.7874 0
    endloop
  endfacet
  facet normal 0.180303 -0.84826 0.497942
    outer loop
      vertex -5.50238 16.9346 0
      vertex -3.2245 17.4188 0
      vertex -6.18034 19.0211 3.79999
    endloop
  endfacet
  facet normal 0.180303 -0.84826 0.497942
    outer loop
      vertex -3.2245 17.4188 0
      vertex -2.09057 19.8904 3.79999
      vertex -6.18034 19.0211 3.79999
    endloop
  endfacet
  facet normal 0.180302 -0.84826 0.497943
    outer loop
      vertex -2.09057 19.8904 3.79999
      vertex -3.2245 17.4188 0
      vertex -1.86124 17.7085 0
    endloop
  endfacet
  facet normal -0.180303 0.848259 0.497942
    outer loop
      vertex -5.49504 21.3974 0
      vertex -6.18034 19.0211 3.79999
      vertex -2.09057 19.8904 3.79999
    endloop
  endfacet
  facet normal -0.180304 0.848259 0.497942
    outer loop
      vertex -6.18034 19.0211 3.79999
      vertex -5.49504 21.3974 0
      vertex -6.8583 21.1077 0
    endloop
  endfacet
  facet normal -0.180303 0.84826 0.497942
    outer loop
      vertex -2.09057 19.8904 3.79999
      vertex -2.3199 22.0723 0
      vertex -5.49504 21.3974 0
    endloop
  endfacet
  facet normal 0 -0.86721 0.497943
    outer loop
      vertex -1.86124 17.7085 0
      vertex 0.0999994 19.8904 3.79999
      vertex -2.09057 19.8904 3.79999
    endloop
  endfacet
  facet normal 0 -0.86721 0.497943
    outer loop
      vertex 0.0999994 19.8904 3.79999
      vertex -1.86124 17.7085 0
      vertex 0.0999994 17.7085 0
    endloop
  endfacet
  facet normal 0 0.86721 0.497942
    outer loop
      vertex 0.0999994 22.0723 0
      vertex -2.09057 19.8904 3.79999
      vertex 0.0999994 19.8904 3.79999
    endloop
  endfacet
  facet normal 0 0.86721 0.497942
    outer loop
      vertex -2.09057 19.8904 3.79999
      vertex 0.0999994 22.0723 0
      vertex -2.3199 22.0723 0
    endloop
  endfacet
  facet normal 0.180303 0.848259 0.497943
    outer loop
      vertex -3.16365 -18.4939 1.80946
      vertex -2.98298 -17.4701 0
      vertex -4.13912 -17.2243 0
    endloop
  endfacet
  facet normal 0.180303 0.848259 0.497942
    outer loop
      vertex -3.16365 -18.4939 1.80946
      vertex -6.18034 -19.0211 3.79999
      vertex -3.3624 -19.6201 3.79999
    endloop
  endfacet
  facet normal 0.180302 0.848259 0.497943
    outer loop
      vertex -5.50238 -16.9346 0
      vertex -3.16365 -18.4939 1.80946
      vertex -4.13912 -17.2243 0
    endloop
  endfacet
  facet normal 0.180303 0.84826 0.497942
    outer loop
      vertex -3.16365 -18.4939 1.80946
      vertex -5.50238 -16.9346 0
      vertex -6.18034 -19.0211 3.79999
    endloop
  endfacet
  facet normal -0.180303 -0.848259 0.497942
    outer loop
      vertex -3.73408 -21.7263 0.077493
      vertex -3.3624 -19.6201 3.79999
      vertex -6.18034 -19.0211 3.79999
    endloop
  endfacet
  facet normal -0.180303 -0.848259 0.497942
    outer loop
      vertex -6.8583 -21.1077 0
      vertex -3.73408 -21.7263 0.077493
      vertex -6.18034 -19.0211 3.79999
    endloop
  endfacet
  facet normal -0.180304 -0.848263 0.497935
    outer loop
      vertex -3.73408 -21.7263 0.077493
      vertex -6.8583 -21.1077 0
      vertex -3.74182 -21.7701 0
    endloop
  endfacet
  facet normal 0.352726 0.792236 0.497942
    outer loop
      vertex -6.18034 -19.0211 3.79999
      vertex -5.50238 -16.9346 0
      vertex -7.62982 -15.9874 0
    endloop
  endfacet
  facet normal 0.352726 0.792236 0.497942
    outer loop
      vertex -7.62982 -15.9874 0
      vertex -10 -17.3205 3.79999
      vertex -6.18034 -19.0211 3.79999
    endloop
  endfacet
  facet normal 0.352726 0.792236 0.497942
    outer loop
      vertex -10 -17.3205 3.79999
      vertex -7.62982 -15.9874 0
      vertex -8.90304 -15.4205 0
    endloop
  endfacet
  facet normal -0.352726 -0.792236 0.497942
    outer loop
      vertex -8.13152 -20.5408 0
      vertex -6.18034 -19.0211 3.79999
      vertex -10 -17.3205 3.79999
    endloop
  endfacet
  facet normal -0.352726 -0.792236 0.497942
    outer loop
      vertex -6.18034 -19.0211 3.79999
      vertex -8.13152 -20.5408 0
      vertex -6.8583 -21.1077 0
    endloop
  endfacet
  facet normal -0.352726 -0.792236 0.497942
    outer loop
      vertex -8.13152 -20.5408 0
      vertex -10 -17.3205 3.79999
      vertex -11.097 -19.2205 0
    endloop
  endfacet
  facet normal 0.509733 0.701588 0.497942
    outer loop
      vertex -10 -17.3205 3.79999
      vertex -8.90304 -15.4205 0
      vertex -10.787 -14.0517 0
    endloop
  endfacet
  facet normal 0.509733 0.701588 0.497942
    outer loop
      vertex -11.9146 -13.2325 0
      vertex -10 -17.3205 3.79999
      vertex -10.787 -14.0517 0
    endloop
  endfacet
  facet normal 0.509733 0.701588 0.497942
    outer loop
      vertex -10 -17.3205 3.79999
      vertex -11.9146 -13.2325 0
      vertex -13.3826 -14.8629 3.79999
    endloop
  endfacet
  facet normal -0.509733 -0.701588 0.497942
    outer loop
      vertex -12.2245 -18.4013 0
      vertex -10 -17.3205 3.79999
      vertex -13.3826 -14.8629 3.79999
    endloop
  endfacet
  facet normal -0.509733 -0.701588 0.497942
    outer loop
      vertex -10 -17.3205 3.79999
      vertex -12.2245 -18.4013 0
      vertex -11.097 -19.2205 0
    endloop
  endfacet
  facet normal -0.509733 -0.701588 0.497942
    outer loop
      vertex -12.2245 -18.4013 0
      vertex -13.3826 -14.8629 3.79999
      vertex -14.8506 -16.4933 0
    endloop
  endfacet
  facet normal 0.644463 0.580277 0.497942
    outer loop
      vertex -13.3826 -14.8629 3.79999
      vertex -11.9146 -13.2325 0
      vertex -13.4728 -11.5019 0
    endloop
  endfacet
  facet normal 0.644463 0.580277 0.497942
    outer loop
      vertex -16.1803 -11.7557 3.79999
      vertex -13.4728 -11.5019 0
      vertex -14.4054 -10.4661 0
    endloop
  endfacet
  facet normal 0.644463 0.580277 0.497942
    outer loop
      vertex -13.4728 -11.5019 0
      vertex -16.1803 -11.7557 3.79999
      vertex -13.3826 -14.8629 3.79999
    endloop
  endfacet
  facet normal -0.644463 -0.580277 0.497942
    outer loop
      vertex -15.7832 -15.4576 0
      vertex -13.3826 -14.8629 3.79999
      vertex -16.1803 -11.7557 3.79999
    endloop
  endfacet
  facet normal -0.644463 -0.580277 0.497942
    outer loop
      vertex -13.3826 -14.8629 3.79999
      vertex -15.7832 -15.4576 0
      vertex -14.8506 -16.4933 0
    endloop
  endfacet
  facet normal -0.644463 -0.580277 0.497942
    outer loop
      vertex -15.7832 -15.4576 0
      vertex -16.1803 -11.7557 3.79999
      vertex -17.9553 -13.0453 0
    endloop
  endfacet
  facet normal 0.751026 0.433605 0.497942
    outer loop
      vertex -14.4054 -10.4661 0
      vertex -15.5698 -8.44937 0
      vertex -16.1803 -11.7557 3.79999
    endloop
  endfacet
  facet normal 0.751026 0.433605 0.497942
    outer loop
      vertex -18.2709 -8.13473 3.79999
      vertex -15.5698 -8.44937 0
      vertex -16.2667 -7.24238 0
    endloop
  endfacet
  facet normal 0.751026 0.433605 0.497942
    outer loop
      vertex -15.5698 -8.44937 0
      vertex -18.2709 -8.13473 3.79999
      vertex -16.1803 -11.7557 3.79999
    endloop
  endfacet
  facet normal -0.751026 -0.433605 0.497942
    outer loop
      vertex -18.6521 -11.8383 0
      vertex -16.1803 -11.7557 3.79999
      vertex -18.2709 -8.13473 3.79999
    endloop
  endfacet
  facet normal -0.751026 -0.433605 0.497942
    outer loop
      vertex -16.1803 -11.7557 3.79999
      vertex -18.6521 -11.8383 0
      vertex -17.9553 -13.0453 0
    endloop
  endfacet
  facet normal -0.751026 -0.433605 0.497942
    outer loop
      vertex -18.6521 -11.8383 0
      vertex -18.2709 -8.13473 3.79999
      vertex -20.2752 -9.02708 0
    endloop
  endfacet
  facet normal 0.824766 0.267983 0.497942
    outer loop
      vertex -16.2667 -7.24238 0
      vertex -16.9863 -5.02759 0
      vertex -18.2709 -8.13473 3.79999
    endloop
  endfacet
  facet normal 0.824766 0.267983 0.497942
    outer loop
      vertex -19.563 -4.15823 3.79999
      vertex -16.9863 -5.02759 0
      vertex -17.417 -3.70209 0
    endloop
  endfacet
  facet normal 0.824766 0.267983 0.497942
    outer loop
      vertex -16.9863 -5.02759 0
      vertex -19.563 -4.15823 3.79999
      vertex -18.2709 -8.13473 3.79999
    endloop
  endfacet
  facet normal -0.824766 -0.267982 0.497942
    outer loop
      vertex -20.7058 -7.70158 0
      vertex -18.2709 -8.13473 3.79999
      vertex -19.563 -4.15823 3.79999
    endloop
  endfacet
  facet normal -0.824766 -0.267983 0.497942
    outer loop
      vertex -18.2709 -8.13473 3.79999
      vertex -20.7058 -7.70158 0
      vertex -20.2752 -9.02708 0
    endloop
  endfacet
  facet normal -0.824766 -0.267983 0.497943
    outer loop
      vertex -20.7058 -7.70158 0
      vertex -19.563 -4.15823 3.79999
      vertex -21.7089 -4.61438 0
    endloop
  endfacet
  facet normal 0.86246 0.0906484 0.497942
    outer loop
      vertex -17.417 -3.70209 0
      vertex -17.6604 -1.38608 0
      vertex -19.563 -4.15823 3.79999
    endloop
  endfacet
  facet normal 0.862459 0.0906473 0.497942
    outer loop
      vertex -20 0 3.79999
      vertex -17.6604 -1.38608 0
      vertex -17.8061 0 0
    endloop
  endfacet
  facet normal 0.86246 0.0906485 0.497942
    outer loop
      vertex -17.6604 -1.38608 0
      vertex -20 0 3.79999
      vertex -19.563 -4.15823 3.79999
    endloop
  endfacet
  facet normal -0.862459 -0.0906485 0.497942
    outer loop
      vertex -21.8546 -3.2283 0
      vertex -19.563 -4.15823 3.79999
      vertex -20 0 3.79999
    endloop
  endfacet
  facet normal -0.862459 -0.0906474 0.497943
    outer loop
      vertex -19.563 -4.15823 3.79999
      vertex -21.8546 -3.2283 0
      vertex -21.7089 -4.61438 0
    endloop
  endfacet
  facet normal -0.862459 -0.0906486 0.497942
    outer loop
      vertex -21.8546 -3.2283 0
      vertex -20 0 3.79999
      vertex -22.1939 0 0
    endloop
  endfacet
  facet normal 0.984783 -0.173787 -8.7515e-09
    outer loop
      vertex -3.73408 -21.7263 0.077493
      vertex -3.16365 -18.4939 1.80946
      vertex -3.3624 -19.6201 3.79999
    endloop
  endfacet
  facet normal 0.984783 -0.173787 -1.72712e-07
    outer loop
      vertex -3.73408 -21.7263 0.077493
      vertex -2.98298 -17.4701 0
      vertex -3.16365 -18.4939 1.80946
    endloop
  endfacet
  facet normal 0.984783 -0.173787 -1.50462e-06
    outer loop
      vertex -2.98298 -17.4701 0
      vertex -3.73408 -21.7263 0.077493
      vertex -3.74182 -21.7701 0
    endloop
  endfacet
  facet normal 1 0 0
    outer loop
      vertex 0.0999994 19.8904 3.79999
      vertex 0.0999994 17.7085 0
      vertex 0.0999994 22.0723 0
    endloop
  endfacet
  facet normal 0 0 -1
    outer loop
      vertex -3.74182 -21.7701 0
      vertex -4.13912 -17.2243 0
      vertex -2.98298 -17.4701 0
    endloop
  endfacet
  facet normal 0 0 -1
    outer loop
      vertex -6.8583 -21.1077 0
      vertex -4.13912 -17.2243 0
      vertex -3.74182 -21.7701 0
    endloop
  endfacet
  facet normal -0 0 -1
    outer loop
      vertex -4.13912 -17.2243 0
      vertex -6.8583 -21.1077 0
      vertex -5.50238 -16.9346 0
    endloop
  endfacet
  facet normal 0 0 -1
    outer loop
      vertex -8.13152 -20.5408 0
      vertex -5.50238 -16.9346 0
      vertex -6.8583 -21.1077 0
    endloop
  endfacet
  facet normal -0 0 -1
    outer loop
      vertex -5.50238 -16.9346 0
      vertex -8.13152 -20.5408 0
      vertex -7.62982 -15.9874 0
    endloop
  endfacet
  facet normal 0 0 -1
    outer loop
      vertex -11.097 -19.2205 0
      vertex -7.62982 -15.9874 0
      vertex -8.13152 -20.5408 0
    endloop
  endfacet
  facet normal -0 0 -1
    outer loop
      vertex -7.62982 -15.9874 0
      vertex -11.097 -19.2205 0
      vertex -8.90304 -15.4205 0
    endloop
  endfacet
  facet normal 0 0 -1
    outer loop
      vertex -12.2245 -18.4013 0
      vertex -8.90304 -15.4205 0
      vertex -11.097 -19.2205 0
    endloop
  endfacet
  facet normal -0 0 -1
    outer loop
      vertex -8.90304 -15.4205 0
      vertex -12.2245 -18.4013 0
      vertex -10.787 -14.0517 0
    endloop
  endfacet
  facet normal 0 0 -1
    outer loop
      vertex -14.8506 -16.4933 0
      vertex -10.787 -14.0517 0
      vertex -12.2245 -18.4013 0
    endloop
  endfacet
  facet normal -0 0 -1
    outer loop
      vertex -10.787 -14.0517 0
      vertex -14.8506 -16.4933 0
      vertex -11.9146 -13.2325 0
    endloop
  endfacet
  facet normal 0 0 -1
    outer loop
      vertex -15.7832 -15.4576 0
      vertex -11.9146 -13.2325 0
      vertex -14.8506 -16.4933 0
    endloop
  endfacet
  facet normal -0 0 -1
    outer loop
      vertex -11.9146 -13.2325 0
      vertex -15.7832 -15.4576 0
      vertex -13.4728 -11.5019 0
    endloop
  endfacet
  facet normal 0 0 -1
    outer loop
      vertex -17.9553 -13.0453 0
      vertex -13.4728 -11.5019 0
      vertex -15.7832 -15.4576 0
    endloop
  endfacet
  facet normal -0 0 -1
    outer loop
      vertex -13.4728 -11.5019 0
      vertex -17.9553 -13.0453 0
      vertex -14.4054 -10.4661 0
    endloop
  endfacet
  facet normal 0 0 -1
    outer loop
      vertex -18.6521 -11.8383 0
      vertex -14.4054 -10.4661 0
      vertex -17.9553 -13.0453 0
    endloop
  endfacet
  facet normal -0 0 -1
    outer loop
      vertex -14.4054 -10.4661 0
      vertex -18.6521 -11.8383 0
      vertex -15.5698 -8.44937 0
    endloop
  endfacet
  facet normal 0 0 -1
    outer loop
      vertex -20.2752 -9.02708 0
      vertex -15.5698 -8.44937 0
      vertex -18.6521 -11.8383 0
    endloop
  endfacet
  facet normal -0 0 -1
    outer loop
      vertex -16.2667 -7.24238 0
      vertex -20.7058 -7.70158 0
      vertex -16.9863 -5.02759 0
    endloop
  endfacet
  facet normal 0 0 -1
    outer loop
      vertex -20.7058 -7.70158 0
      vertex -16.2667 -7.24238 0
      vertex -20.2752 -9.02708 0
    endloop
  endfacet
  facet normal -0 0 -1
    outer loop
      vertex -15.5698 -8.44937 0
      vertex -20.2752 -9.02708 0
      vertex -16.2667 -7.24238 0
    endloop
  endfacet
  facet normal 0 0 -1
    outer loop
      vertex -1.86124 17.7085 0
      vertex 0.0999994 22.0723 0
      vertex 0.0999994 17.7085 0
    endloop
  endfacet
  facet normal 0 0 -1
    outer loop
      vertex -1.86124 17.7085 0
      vertex -2.3199 22.0723 0
      vertex 0.0999994 22.0723 0
    endloop
  endfacet
  facet normal 0 0 -1
    outer loop
      vertex -3.2245 17.4188 0
      vertex -2.3199 22.0723 0
      vertex -1.86124 17.7085 0
    endloop
  endfacet
  facet normal 0 0 -1
    outer loop
      vertex -3.2245 17.4188 0
      vertex -5.49504 21.3974 0
      vertex -2.3199 22.0723 0
    endloop
  endfacet
  facet normal 0 0 -1
    outer loop
      vertex -5.50238 16.9346 0
      vertex -5.49504 21.3974 0
      vertex -3.2245 17.4188 0
    endloop
  endfacet
  facet normal 0 0 -1
    outer loop
      vertex -6.8583 21.1077 0
      vertex -5.50238 16.9346 0
      vertex -6.7756 16.3677 0
    endloop
  endfacet
  facet normal 0 0 -1
    outer loop
      vertex -5.50238 16.9346 0
      vertex -6.8583 21.1077 0
      vertex -5.49504 21.3974 0
    endloop
  endfacet
  facet normal 0 0 -1
    outer loop
      vertex -9.82374 19.7874 0
      vertex -6.7756 16.3677 0
      vertex -8.90304 15.4205 0
    endloop
  endfacet
  facet normal 0 0 -1
    outer loop
      vertex -6.7756 16.3677 0
      vertex -9.82374 19.7874 0
      vertex -6.8583 21.1077 0
    endloop
  endfacet
  facet normal 0 0 -1
    outer loop
      vertex -11.097 19.2205 0
      vertex -8.90304 15.4205 0
      vertex -10.0306 14.6013 0
    endloop
  endfacet
  facet normal 0 0 -1
    outer loop
      vertex -8.90304 15.4205 0
      vertex -11.097 19.2205 0
      vertex -9.82374 19.7874 0
    endloop
  endfacet
  facet normal 0 0 -1
    outer loop
      vertex -13.7231 17.3125 0
      vertex -10.0306 14.6013 0
      vertex -11.9146 13.2325 0
    endloop
  endfacet
  facet normal 0 0 -1
    outer loop
      vertex -14.8506 16.4933 0
      vertex -11.9146 13.2325 0
      vertex -12.8472 12.1968 0
    endloop
  endfacet
  facet normal 0 0 -1
    outer loop
      vertex -10.0306 14.6013 0
      vertex -13.7231 17.3125 0
      vertex -11.097 19.2205 0
    endloop
  endfacet
  facet normal 0 0 -1
    outer loop
      vertex -17.0227 14.081 0
      vertex -12.8472 12.1968 0
      vertex -14.4054 10.4661 0
    endloop
  endfacet
  facet normal 0 0 -1
    outer loop
      vertex -11.9146 13.2325 0
      vertex -14.8506 16.4933 0
      vertex -13.7231 17.3125 0
    endloop
  endfacet
  facet normal 0 0 -1
    outer loop
      vertex -17.9553 13.0453 0
      vertex -14.4054 10.4661 0
      vertex -15.1023 9.25916 0
    endloop
  endfacet
  facet normal 0 0 -1
    outer loop
      vertex -19.5783 10.2341 0
      vertex -15.1023 9.25916 0
      vertex -16.2667 7.24238 0
    endloop
  endfacet
  facet normal 0 0 -1
    outer loop
      vertex -20.2752 9.02708 0
      vertex -16.2667 7.24238 0
      vertex -16.6973 5.91688 0
    endloop
  endfacet
  facet normal 0 0 -1
    outer loop
      vertex -12.8472 12.1968 0
      vertex -17.0227 14.081 0
      vertex -14.8506 16.4933 0
    endloop
  endfacet
  facet normal 0 0 -1
    outer loop
      vertex -21.2783 5.93988 0
      vertex -16.6973 5.91688 0
      vertex -17.417 3.70209 0
    endloop
  endfacet
  facet normal 0 0 -1
    outer loop
      vertex -21.7089 4.61438 0
      vertex -17.417 3.70209 0
      vertex -17.5626 2.31601 0
    endloop
  endfacet
  facet normal 0 0 -1
    outer loop
      vertex -22.0482 1.38608 0
      vertex -17.5626 2.31601 0
      vertex -17.8061 0 0
    endloop
  endfacet
  facet normal 0 0 -1
    outer loop
      vertex -14.4054 10.4661 0
      vertex -17.9553 13.0453 0
      vertex -17.0227 14.081 0
    endloop
  endfacet
  facet normal 0 0 -1
    outer loop
      vertex -21.7089 -4.61438 0
      vertex -16.9863 -5.02759 0
      vertex -20.7058 -7.70158 0
    endloop
  endfacet
  facet normal 0 0 -1
    outer loop
      vertex -16.9863 -5.02759 0
      vertex -21.7089 -4.61438 0
      vertex -17.417 -3.70209 0
    endloop
  endfacet
  facet normal 0 0 -1
    outer loop
      vertex -15.1023 9.25916 0
      vertex -19.5783 10.2341 0
      vertex -17.9553 13.0453 0
    endloop
  endfacet
  facet normal 0 0 -1
    outer loop
      vertex -21.8546 -3.2283 0
      vertex -17.417 -3.70209 0
      vertex -21.7089 -4.61438 0
    endloop
  endfacet
  facet normal 0 0 -1
    outer loop
      vertex -17.417 -3.70209 0
      vertex -21.8546 -3.2283 0
      vertex -17.6604 -1.38608 0
    endloop
  endfacet
  facet normal 0 0 -1
    outer loop
      vertex -16.6973 5.91688 0
      vertex -21.2783 5.93988 0
      vertex -20.2752 9.02708 0
    endloop
  endfacet
  facet normal 0 0 -1
    outer loop
      vertex -16.2667 7.24238 0
      vertex -20.2752 9.02708 0
      vertex -19.5783 10.2341 0
    endloop
  endfacet
  facet normal 0 0 -1
    outer loop
      vertex -22.1939 0 0
      vertex -17.6604 -1.38608 0
      vertex -21.8546 -3.2283 0
    endloop
  endfacet
  facet normal 0 0 -1
    outer loop
      vertex -17.6604 -1.38608 0
      vertex -22.1939 0 0
      vertex -17.8061 0 0
    endloop
  endfacet
  facet normal -0 0 -1
    outer loop
      vertex -17.5626 2.31601 0
      vertex -22.0482 1.38608 0
      vertex -21.7089 4.61438 0
    endloop
  endfacet
  facet normal 0 0 -1
    outer loop
      vertex -17.417 3.70209 0
      vertex -21.7089 4.61438 0
      vertex -21.2783 5.93988 0
    endloop
  endfacet
  facet normal 0 0 -1
    outer loop
      vertex -17.8061 0 0
      vertex -22.1939 0 0
      vertex -22.0482 1.38608 0
    endloop
  endfacet
endsolid OpenSCAD_Model
