solid OpenSCAD_Model
  facet normal 0 1 -0
    outer loop
      vertex -11.9182 6.5 0
      vertex -36 6.5 4
      vertex -11.9182 6.5 4
    endloop
  endfacet
  facet normal 0 1 0
    outer loop
      vertex -36 6.5 4
      vertex -11.9182 6.5 0
      vertex -36 6.5 0
    endloop
  endfacet
  facet normal 0 0 1
    outer loop
      vertex -6.23546 2.2574 4
      vertex -6 0.0615487 4
      vertex -6 2.25 4
    endloop
  endfacet
  facet normal 0 0 1
    outer loop
      vertex -6.49548 0.0204926 4
      vertex -6.23546 2.2574 4
      vertex -6.47 2.27957 4
    endloop
  endfacet
  facet normal 0 0 1
    outer loop
      vertex -6.23546 2.2574 4
      vertex -6.49548 0.0204926 4
      vertex -6 0.0615487 4
    endloop
  endfacet
  facet normal 0 0 1
    outer loop
      vertex -6.70268 2.31642 4
      vertex -6.49548 0.0204926 4
      vertex -6.47 2.27957 4
    endloop
  endfacet
  facet normal 0 0 1
    outer loop
      vertex -6.93259 2.36781 4
      vertex -6.49548 0.0204926 4
      vertex -6.70268 2.31642 4
    endloop
  endfacet
  facet normal 0 0 1
    outer loop
      vertex -8.41017 0.50536 4
      vertex -6.93259 2.36781 4
      vertex -7.15881 2.43354 4
    endloop
  endfacet
  facet normal 0 0 1
    outer loop
      vertex -8.41017 0.50536 4
      vertex -7.15881 2.43354 4
      vertex -7.38047 2.51334 4
    endloop
  endfacet
  facet normal 0 0 1
    outer loop
      vertex -8.41017 0.50536 4
      vertex -7.38047 2.51334 4
      vertex -7.59667 2.6069 4
    endloop
  endfacet
  facet normal 0 0 1
    outer loop
      vertex -8.41017 0.50536 4
      vertex -7.59667 2.6069 4
      vertex -7.80658 2.71385 4
    endloop
  endfacet
  facet normal 0 0 1
    outer loop
      vertex -8.41017 0.50536 4
      vertex -7.80658 2.71385 4
      vertex -8.00935 2.83377 4
    endloop
  endfacet
  facet normal 0 0 1
    outer loop
      vertex -10.0637 1.58566 4
      vertex -8.00935 2.83377 4
      vertex -8.20419 2.96619 4
    endloop
  endfacet
  facet normal 0 0 1
    outer loop
      vertex -10.0637 1.58566 4
      vertex -8.20419 2.96619 4
      vertex -8.39034 3.11057 4
    endloop
  endfacet
  facet normal 0 0 1
    outer loop
      vertex -6.93259 2.36781 4
      vertex -8.41017 0.50536 4
      vertex -6.49548 0.0204926 4
    endloop
  endfacet
  facet normal 0 0 1
    outer loop
      vertex -10.0637 1.58566 4
      vertex -8.39034 3.11057 4
      vertex -8.56705 3.26637 4
    endloop
  endfacet
  facet normal 0 0 1
    outer loop
      vertex -10.0637 1.58566 4
      vertex -8.56705 3.26637 4
      vertex -8.73363 3.43295 4
    endloop
  endfacet
  facet normal 0 0 1
    outer loop
      vertex -10.0637 1.58566 4
      vertex -8.73363 3.43295 4
      vertex -8.88942 3.60966 4
    endloop
  endfacet
  facet normal 0 0 1
    outer loop
      vertex -10.0637 1.58566 4
      vertex -8.88942 3.60966 4
      vertex -9.03381 3.7958 4
    endloop
  endfacet
  facet normal 0 0 1
    outer loop
      vertex -11.2768 3.14431 4
      vertex -9.03381 3.7958 4
      vertex -9.16623 3.99065 4
    endloop
  endfacet
  facet normal 0 0 1
    outer loop
      vertex -11.2768 3.14431 4
      vertex -9.16623 3.99065 4
      vertex -9.28615 4.19342 4
    endloop
  endfacet
  facet normal 0 0 1
    outer loop
      vertex -11.2768 3.14431 4
      vertex -9.28615 4.19342 4
      vertex -9.3931 4.40333 4
    endloop
  endfacet
  facet normal 0 0 1
    outer loop
      vertex -11.2768 3.14431 4
      vertex -9.3931 4.40333 4
      vertex -9.48666 4.61953 4
    endloop
  endfacet
  facet normal 0 0 1
    outer loop
      vertex -11.2768 3.14431 4
      vertex -9.48666 4.61953 4
      vertex -9.56646 4.84119 4
    endloop
  endfacet
  facet normal -0 0 1
    outer loop
      vertex -11.9139 5 4
      vertex -9.56646 4.84119 4
      vertex -9.63219 5.06741 4
    endloop
  endfacet
  facet normal -0 0 1
    outer loop
      vertex -11.9182 6.5 4
      vertex -9.72043 6.47 4
      vertex -11.9182 6.98757 4
    endloop
  endfacet
  facet normal 0 0 1
    outer loop
      vertex -8.00935 2.83377 4
      vertex -10.0637 1.58566 4
      vertex -8.41017 0.50536 4
    endloop
  endfacet
  facet normal 0 0 1
    outer loop
      vertex -11.9139 5 4
      vertex -9.63219 5.06741 4
      vertex -9.68358 5.29732 4
    endloop
  endfacet
  facet normal 0 0 1
    outer loop
      vertex -11.9139 5 4
      vertex -9.68358 5.29732 4
      vertex -9.72043 5.53 4
    endloop
  endfacet
  facet normal 0 0 1
    outer loop
      vertex -11.9139 5 4
      vertex -9.72043 5.53 4
      vertex -9.7426 5.76453 4
    endloop
  endfacet
  facet normal 0 0 1
    outer loop
      vertex -9.72043 6.47 4
      vertex -11.9182 6.5 4
      vertex -9.7426 6.23546 4
    endloop
  endfacet
  facet normal 0 0 1
    outer loop
      vertex -9.7426 6.23546 4
      vertex -11.9182 6.5 4
      vertex -9.75 6 4
    endloop
  endfacet
  facet normal 0 -0 1
    outer loop
      vertex -11.9139 5 4
      vertex -9.7426 5.76453 4
      vertex -11.9182 6.5 4
    endloop
  endfacet
  facet normal 0 0 1
    outer loop
      vertex -9.03381 3.7958 4
      vertex -11.2768 3.14431 4
      vertex -10.0637 1.58566 4
    endloop
  endfacet
  facet normal 0 0 1
    outer loop
      vertex -9.75 6 4
      vertex -11.9182 6.5 4
      vertex -9.7426 5.76453 4
    endloop
  endfacet
  facet normal 0 0 1
    outer loop
      vertex -9.56646 4.84119 4
      vertex -11.9139 5 4
      vertex -11.2768 3.14431 4
    endloop
  endfacet
  facet normal -0 0 1
    outer loop
      vertex -36 6.5 4
      vertex -11.9139 5 4
      vertex -11.9182 6.5 4
    endloop
  endfacet
  facet normal 0 0 1
    outer loop
      vertex -11.9139 5 4
      vertex -36 6.5 4
      vertex -36 5 4
    endloop
  endfacet
  facet normal -0 0 1
    outer loop
      vertex -6 11.9384 4
      vertex -4.5 11.8045 4
      vertex -4.5 36 4
    endloop
  endfacet
  facet normal 0 -0 1
    outer loop
      vertex -5.53 9.72043 4
      vertex -4.5 11.8045 4
      vertex -6 11.9384 4
    endloop
  endfacet
  facet normal 0 0 1
    outer loop
      vertex -4.5 11.8045 4
      vertex -4.84119 9.56646 4
      vertex -4.61953 9.48666 4
    endloop
  endfacet
  facet normal 0 0 1
    outer loop
      vertex -4.5 11.8045 4
      vertex -5.06741 9.63219 4
      vertex -4.84119 9.56646 4
    endloop
  endfacet
  facet normal 0 0 1
    outer loop
      vertex -4.5 11.8045 4
      vertex -5.29732 9.68358 4
      vertex -5.06741 9.63219 4
    endloop
  endfacet
  facet normal 0 0 1
    outer loop
      vertex -4.5 11.8045 4
      vertex -5.53 9.72043 4
      vertex -5.29732 9.68358 4
    endloop
  endfacet
  facet normal 0 0 1
    outer loop
      vertex -6 11.9384 4
      vertex -4.5 36 4
      vertex -6 36 4
    endloop
  endfacet
  facet normal 0 0 1
    outer loop
      vertex -5.53 9.72043 4
      vertex -6 11.9384 4
      vertex -5.76453 9.7426 4
    endloop
  endfacet
  facet normal 0 0 1
    outer loop
      vertex -6 11.9384 4
      vertex -6 9.75 4
      vertex -5.76453 9.7426 4
    endloop
  endfacet
  facet normal 0 0 1
    outer loop
      vertex -6 11.9384 4
      vertex -6.23546 9.7426 4
      vertex -6 9.75 4
    endloop
  endfacet
  facet normal 0 0 1
    outer loop
      vertex -6.49548 11.9795 4
      vertex -6.23546 9.7426 4
      vertex -6 11.9384 4
    endloop
  endfacet
  facet normal 0 0 1
    outer loop
      vertex -6.23546 9.7426 4
      vertex -6.49548 11.9795 4
      vertex -6.47 9.72043 4
    endloop
  endfacet
  facet normal 0 0 1
    outer loop
      vertex -6.49548 11.9795 4
      vertex -6.70268 9.68358 4
      vertex -6.47 9.72043 4
    endloop
  endfacet
  facet normal 0 0 1
    outer loop
      vertex -6.49548 11.9795 4
      vertex -6.93259 9.63219 4
      vertex -6.70268 9.68358 4
    endloop
  endfacet
  facet normal -0 0 1
    outer loop
      vertex -8.41017 11.4946 4
      vertex -6.93259 9.63219 4
      vertex -6.49548 11.9795 4
    endloop
  endfacet
  facet normal 0 0 1
    outer loop
      vertex -6.93259 9.63219 4
      vertex -8.41017 11.4946 4
      vertex -7.15881 9.56646 4
    endloop
  endfacet
  facet normal 0 0 1
    outer loop
      vertex -7.15881 9.56646 4
      vertex -8.41017 11.4946 4
      vertex -7.38047 9.48666 4
    endloop
  endfacet
  facet normal 0 0 1
    outer loop
      vertex -7.38047 9.48666 4
      vertex -8.41017 11.4946 4
      vertex -7.59667 9.3931 4
    endloop
  endfacet
  facet normal 0 0 1
    outer loop
      vertex -7.59667 9.3931 4
      vertex -8.41017 11.4946 4
      vertex -7.80658 9.28615 4
    endloop
  endfacet
  facet normal 0 0 1
    outer loop
      vertex -7.80658 9.28615 4
      vertex -8.41017 11.4946 4
      vertex -8.00935 9.16623 4
    endloop
  endfacet
  facet normal -0 0 1
    outer loop
      vertex -10.0637 10.4143 4
      vertex -8.00935 9.16623 4
      vertex -8.41017 11.4946 4
    endloop
  endfacet
  facet normal 0 0 1
    outer loop
      vertex -8.00935 9.16623 4
      vertex -10.0637 10.4143 4
      vertex -8.20419 9.03381 4
    endloop
  endfacet
  facet normal 0 0 1
    outer loop
      vertex -8.20419 9.03381 4
      vertex -10.0637 10.4143 4
      vertex -8.39034 8.88942 4
    endloop
  endfacet
  facet normal 0 0 1
    outer loop
      vertex -8.39034 8.88942 4
      vertex -10.0637 10.4143 4
      vertex -8.56705 8.73363 4
    endloop
  endfacet
  facet normal 0 0 1
    outer loop
      vertex -8.56705 8.73363 4
      vertex -10.0637 10.4143 4
      vertex -8.73363 8.56705 4
    endloop
  endfacet
  facet normal 0 0 1
    outer loop
      vertex -8.73363 8.56705 4
      vertex -10.0637 10.4143 4
      vertex -8.88942 8.39034 4
    endloop
  endfacet
  facet normal 0 0 1
    outer loop
      vertex -8.88942 8.39034 4
      vertex -10.0637 10.4143 4
      vertex -9.03381 8.20419 4
    endloop
  endfacet
  facet normal -0 0 1
    outer loop
      vertex -11.2768 8.85568 4
      vertex -9.03381 8.20419 4
      vertex -10.0637 10.4143 4
    endloop
  endfacet
  facet normal 0 0 1
    outer loop
      vertex -9.03381 8.20419 4
      vertex -11.2768 8.85568 4
      vertex -9.16623 8.00935 4
    endloop
  endfacet
  facet normal 0 0 1
    outer loop
      vertex -9.16623 8.00935 4
      vertex -11.2768 8.85568 4
      vertex -9.28615 7.80658 4
    endloop
  endfacet
  facet normal 0 0 1
    outer loop
      vertex -9.28615 7.80658 4
      vertex -11.2768 8.85568 4
      vertex -9.3931 7.59667 4
    endloop
  endfacet
  facet normal 0 0 1
    outer loop
      vertex -9.3931 7.59667 4
      vertex -11.2768 8.85568 4
      vertex -9.48666 7.38047 4
    endloop
  endfacet
  facet normal 0 0 1
    outer loop
      vertex -9.68358 6.70268 4
      vertex -11.9182 6.98757 4
      vertex -9.72043 6.47 4
    endloop
  endfacet
  facet normal 0 0 1
    outer loop
      vertex -9.63219 6.93259 4
      vertex -11.9182 6.98757 4
      vertex -9.68358 6.70268 4
    endloop
  endfacet
  facet normal 0 0 1
    outer loop
      vertex -9.56646 7.15881 4
      vertex -11.9182 6.98757 4
      vertex -9.63219 6.93259 4
    endloop
  endfacet
  facet normal 0 0 1
    outer loop
      vertex -11.9182 6.98757 4
      vertex -9.56646 7.15881 4
      vertex -11.2768 8.85568 4
    endloop
  endfacet
  facet normal 0 0 1
    outer loop
      vertex -9.48666 7.38047 4
      vertex -11.2768 8.85568 4
      vertex -9.56646 7.15881 4
    endloop
  endfacet
  facet normal 0 0 1
    outer loop
      vertex 23 7 4
      vertex -0.0834351 5.5 4
      vertex 23 5.5 4
    endloop
  endfacet
  facet normal -0 0 1
    outer loop
      vertex -0.16687 7 4
      vertex -0.0834351 5.5 4
      vertex 23 7 4
    endloop
  endfacet
  facet normal 0 0 1
    outer loop
      vertex -2.36781 6.93259 4
      vertex -0.16687 7 4
      vertex -0.325096 7.9482 4
    endloop
  endfacet
  facet normal 0 -0 1
    outer loop
      vertex -2.2574 6.23546 4
      vertex -0.16687 7 4
      vertex -2.27957 6.47 4
    endloop
  endfacet
  facet normal 0 0 1
    outer loop
      vertex -2.71385 7.80658 4
      vertex -0.325096 7.9482 4
      vertex -1.26516 9.68528 4
    endloop
  endfacet
  facet normal 0 0 1
    outer loop
      vertex -0.16687 7 4
      vertex -2.31642 6.70268 4
      vertex -2.27957 6.47 4
    endloop
  endfacet
  facet normal -0 0 1
    outer loop
      vertex -2.27957 5.53 4
      vertex -0.0834351 5.5 4
      vertex -2.2574 5.76453 4
    endloop
  endfacet
  facet normal -0 0 1
    outer loop
      vertex -2.2574 5.76453 4
      vertex -0.0834351 5.5 4
      vertex -2.25 6 4
    endloop
  endfacet
  facet normal 0 0 1
    outer loop
      vertex -0.0834351 5.5 4
      vertex -2.2574 6.23546 4
      vertex -2.25 6 4
    endloop
  endfacet
  facet normal 0 0 1
    outer loop
      vertex -0.16687 7 4
      vertex -2.2574 6.23546 4
      vertex -0.0834351 5.5 4
    endloop
  endfacet
  facet normal 0 0 1
    outer loop
      vertex -0.16687 7 4
      vertex -2.36781 6.93259 4
      vertex -2.31642 6.70268 4
    endloop
  endfacet
  facet normal 0 0 1
    outer loop
      vertex -0.325096 7.9482 4
      vertex -2.43354 7.15881 4
      vertex -2.36781 6.93259 4
    endloop
  endfacet
  facet normal 0 0 1
    outer loop
      vertex -0.325096 7.9482 4
      vertex -2.51334 7.38047 4
      vertex -2.43354 7.15881 4
    endloop
  endfacet
  facet normal 0 0 1
    outer loop
      vertex -0.325096 7.9482 4
      vertex -2.6069 7.59667 4
      vertex -2.51334 7.38047 4
    endloop
  endfacet
  facet normal 0 0 1
    outer loop
      vertex -0.325096 7.9482 4
      vertex -2.71385 7.80658 4
      vertex -2.6069 7.59667 4
    endloop
  endfacet
  facet normal 0 0 1
    outer loop
      vertex -3.43295 8.73363 4
      vertex -1.26516 9.68528 4
      vertex -2.71831 11.023 4
    endloop
  endfacet
  facet normal 0 0 1
    outer loop
      vertex -1.26516 9.68528 4
      vertex -2.83377 8.00935 4
      vertex -2.71385 7.80658 4
    endloop
  endfacet
  facet normal 0 0 1
    outer loop
      vertex -1.26516 9.68528 4
      vertex -2.96619 8.20419 4
      vertex -2.83377 8.00935 4
    endloop
  endfacet
  facet normal 0 0 1
    outer loop
      vertex -1.26516 9.68528 4
      vertex -3.11057 8.39034 4
      vertex -2.96619 8.20419 4
    endloop
  endfacet
  facet normal 0 0 1
    outer loop
      vertex -1.26516 9.68528 4
      vertex -3.26637 8.56705 4
      vertex -3.11057 8.39034 4
    endloop
  endfacet
  facet normal 0 0 1
    outer loop
      vertex -1.26516 9.68528 4
      vertex -3.43295 8.73363 4
      vertex -3.26637 8.56705 4
    endloop
  endfacet
  facet normal 0 0 1
    outer loop
      vertex -2.71831 11.023 4
      vertex -3.60966 8.88942 4
      vertex -3.43295 8.73363 4
    endloop
  endfacet
  facet normal 0 0 1
    outer loop
      vertex -2.71831 11.023 4
      vertex -3.7958 9.03381 4
      vertex -3.60966 8.88942 4
    endloop
  endfacet
  facet normal 0 0 1
    outer loop
      vertex -2.71831 11.023 4
      vertex -3.99065 9.16623 4
      vertex -3.7958 9.03381 4
    endloop
  endfacet
  facet normal 0 0 1
    outer loop
      vertex -2.71831 11.023 4
      vertex -4.19342 9.28615 4
      vertex -3.99065 9.16623 4
    endloop
  endfacet
  facet normal 0 0 1
    outer loop
      vertex -2.71831 11.023 4
      vertex -4.40333 9.3931 4
      vertex -4.19342 9.28615 4
    endloop
  endfacet
  facet normal 0 0 1
    outer loop
      vertex -4.5 11.8045 4
      vertex -4.40333 9.3931 4
      vertex -2.71831 11.023 4
    endloop
  endfacet
  facet normal 0 0 1
    outer loop
      vertex -4.40333 9.3931 4
      vertex -4.5 11.8045 4
      vertex -4.61953 9.48666 4
    endloop
  endfacet
  facet normal 0 0 1
    outer loop
      vertex -2.31642 5.29732 4
      vertex -0.0834351 5.5 4
      vertex -2.27957 5.53 4
    endloop
  endfacet
  facet normal 0 0 1
    outer loop
      vertex -0.0834351 5.5 4
      vertex -2.31642 5.29732 4
      vertex -0.325096 4.0518 4
    endloop
  endfacet
  facet normal -0 0 1
    outer loop
      vertex -2.36781 5.06741 4
      vertex -0.325096 4.0518 4
      vertex -2.31642 5.29732 4
    endloop
  endfacet
  facet normal -0 0 1
    outer loop
      vertex -2.43354 4.84119 4
      vertex -0.325096 4.0518 4
      vertex -2.36781 5.06741 4
    endloop
  endfacet
  facet normal -0 0 1
    outer loop
      vertex -2.51334 4.61953 4
      vertex -0.325096 4.0518 4
      vertex -2.43354 4.84119 4
    endloop
  endfacet
  facet normal -0 0 1
    outer loop
      vertex -2.6069 4.40333 4
      vertex -0.325096 4.0518 4
      vertex -2.51334 4.61953 4
    endloop
  endfacet
  facet normal -0 0 1
    outer loop
      vertex -2.71385 4.19342 4
      vertex -0.325096 4.0518 4
      vertex -2.6069 4.40333 4
    endloop
  endfacet
  facet normal 0 0 1
    outer loop
      vertex -0.325096 4.0518 4
      vertex -2.71385 4.19342 4
      vertex -1.26516 2.31472 4
    endloop
  endfacet
  facet normal -0 0 1
    outer loop
      vertex -2.83377 3.99065 4
      vertex -1.26516 2.31472 4
      vertex -2.71385 4.19342 4
    endloop
  endfacet
  facet normal -0 0 1
    outer loop
      vertex -2.96619 3.7958 4
      vertex -1.26516 2.31472 4
      vertex -2.83377 3.99065 4
    endloop
  endfacet
  facet normal -0 0 1
    outer loop
      vertex -3.11057 3.60966 4
      vertex -1.26516 2.31472 4
      vertex -2.96619 3.7958 4
    endloop
  endfacet
  facet normal -0 0 1
    outer loop
      vertex -3.26637 3.43295 4
      vertex -1.26516 2.31472 4
      vertex -3.11057 3.60966 4
    endloop
  endfacet
  facet normal -0 0 1
    outer loop
      vertex -3.43295 3.26637 4
      vertex -1.26516 2.31472 4
      vertex -3.26637 3.43295 4
    endloop
  endfacet
  facet normal 0 0 1
    outer loop
      vertex -1.26516 2.31472 4
      vertex -3.43295 3.26637 4
      vertex -2.71831 0.977 4
    endloop
  endfacet
  facet normal -0 0 1
    outer loop
      vertex -3.60966 3.11057 4
      vertex -2.71831 0.977 4
      vertex -3.43295 3.26637 4
    endloop
  endfacet
  facet normal -0 0 1
    outer loop
      vertex -3.7958 2.96619 4
      vertex -2.71831 0.977 4
      vertex -3.60966 3.11057 4
    endloop
  endfacet
  facet normal -0 0 1
    outer loop
      vertex -3.99065 2.83377 4
      vertex -2.71831 0.977 4
      vertex -3.7958 2.96619 4
    endloop
  endfacet
  facet normal -0 0 1
    outer loop
      vertex -4.19342 2.71385 4
      vertex -2.71831 0.977 4
      vertex -3.99065 2.83377 4
    endloop
  endfacet
  facet normal -0 0 1
    outer loop
      vertex -4.40333 2.6069 4
      vertex -2.71831 0.977 4
      vertex -4.19342 2.71385 4
    endloop
  endfacet
  facet normal 0 0 1
    outer loop
      vertex -4.40333 2.6069 4
      vertex -4.5 0.195479 4
      vertex -2.71831 0.977 4
    endloop
  endfacet
  facet normal -0 0 1
    outer loop
      vertex -4.61953 2.51334 4
      vertex -4.5 0.195479 4
      vertex -4.40333 2.6069 4
    endloop
  endfacet
  facet normal -0 0 1
    outer loop
      vertex -4.84119 2.43354 4
      vertex -4.5 0.195479 4
      vertex -4.61953 2.51334 4
    endloop
  endfacet
  facet normal -0 0 1
    outer loop
      vertex -5.06741 2.36781 4
      vertex -4.5 0.195479 4
      vertex -4.84119 2.43354 4
    endloop
  endfacet
  facet normal -0 0 1
    outer loop
      vertex -5.29732 2.31642 4
      vertex -4.5 0.195479 4
      vertex -5.06741 2.36781 4
    endloop
  endfacet
  facet normal -0 0 1
    outer loop
      vertex -5.53 2.27957 4
      vertex -4.5 0.195479 4
      vertex -5.29732 2.31642 4
    endloop
  endfacet
  facet normal 0 0 1
    outer loop
      vertex -4.5 0.195479 4
      vertex -5.53 2.27957 4
      vertex -6 0.0615487 4
    endloop
  endfacet
  facet normal 0 0 1
    outer loop
      vertex -6 0.0615487 4
      vertex -5.53 2.27957 4
      vertex -5.76453 2.2574 4
    endloop
  endfacet
  facet normal 0 0 1
    outer loop
      vertex -6 0.0615487 4
      vertex -5.76453 2.2574 4
      vertex -6 2.25 4
    endloop
  endfacet
  facet normal 0 0 1
    outer loop
      vertex -4.5 0.195479 4
      vertex -6 0.0615487 4
      vertex -4.5 -24 4
    endloop
  endfacet
  facet normal 0 0 1
    outer loop
      vertex -4.5 -24 4
      vertex -6 0.0615487 4
      vertex -6 -24 4
    endloop
  endfacet
  facet normal 0 -1 0
    outer loop
      vertex -36 5 0
      vertex -11.9139 5 4
      vertex -36 5 4
    endloop
  endfacet
  facet normal 0 -1 -0
    outer loop
      vertex -11.9139 5 4
      vertex -36 5 0
      vertex -11.9139 5 0
    endloop
  endfacet
  facet normal 0 0 -1
    outer loop
      vertex -36 5 0
      vertex -11.9182 6.5 0
      vertex -11.9139 5 0
    endloop
  endfacet
  facet normal -0 0 -1
    outer loop
      vertex -11.9182 6.5 0
      vertex -36 5 0
      vertex -36 6.5 0
    endloop
  endfacet
  facet normal 0 0 -1
    outer loop
      vertex -6.23546 9.7426 0
      vertex -6 11.9384 0
      vertex -6 9.75 0
    endloop
  endfacet
  facet normal 0 0 -1
    outer loop
      vertex -6.49548 11.9795 0
      vertex -6.23546 9.7426 0
      vertex -6.47 9.72043 0
    endloop
  endfacet
  facet normal 0 0 -1
    outer loop
      vertex -6.23546 9.7426 0
      vertex -6.49548 11.9795 0
      vertex -6 11.9384 0
    endloop
  endfacet
  facet normal 0 0 -1
    outer loop
      vertex -6.70268 9.68358 0
      vertex -6.49548 11.9795 0
      vertex -6.47 9.72043 0
    endloop
  endfacet
  facet normal 0 0 -1
    outer loop
      vertex -6.93259 9.63219 0
      vertex -6.49548 11.9795 0
      vertex -6.70268 9.68358 0
    endloop
  endfacet
  facet normal 0 0 -1
    outer loop
      vertex -8.41017 11.4946 0
      vertex -6.93259 9.63219 0
      vertex -7.15881 9.56646 0
    endloop
  endfacet
  facet normal 0 0 -1
    outer loop
      vertex -8.41017 11.4946 0
      vertex -7.15881 9.56646 0
      vertex -7.38047 9.48666 0
    endloop
  endfacet
  facet normal 0 0 -1
    outer loop
      vertex -8.41017 11.4946 0
      vertex -7.38047 9.48666 0
      vertex -7.59667 9.3931 0
    endloop
  endfacet
  facet normal 0 0 -1
    outer loop
      vertex -8.41017 11.4946 0
      vertex -7.59667 9.3931 0
      vertex -7.80658 9.28615 0
    endloop
  endfacet
  facet normal 0 0 -1
    outer loop
      vertex -8.41017 11.4946 0
      vertex -7.80658 9.28615 0
      vertex -8.00935 9.16623 0
    endloop
  endfacet
  facet normal 0 0 -1
    outer loop
      vertex -10.0637 10.4143 0
      vertex -8.00935 9.16623 0
      vertex -8.20419 9.03381 0
    endloop
  endfacet
  facet normal 0 0 -1
    outer loop
      vertex -10.0637 10.4143 0
      vertex -8.20419 9.03381 0
      vertex -8.39034 8.88942 0
    endloop
  endfacet
  facet normal 0 0 -1
    outer loop
      vertex -6.93259 9.63219 0
      vertex -8.41017 11.4946 0
      vertex -6.49548 11.9795 0
    endloop
  endfacet
  facet normal 0 0 -1
    outer loop
      vertex -10.0637 10.4143 0
      vertex -8.39034 8.88942 0
      vertex -8.56705 8.73363 0
    endloop
  endfacet
  facet normal 0 0 -1
    outer loop
      vertex -10.0637 10.4143 0
      vertex -8.56705 8.73363 0
      vertex -8.73363 8.56705 0
    endloop
  endfacet
  facet normal 0 0 -1
    outer loop
      vertex -10.0637 10.4143 0
      vertex -8.73363 8.56705 0
      vertex -8.88942 8.39034 0
    endloop
  endfacet
  facet normal 0 0 -1
    outer loop
      vertex -10.0637 10.4143 0
      vertex -8.88942 8.39034 0
      vertex -9.03381 8.20419 0
    endloop
  endfacet
  facet normal 0 0 -1
    outer loop
      vertex -11.2768 8.85568 0
      vertex -9.03381 8.20419 0
      vertex -9.16623 8.00935 0
    endloop
  endfacet
  facet normal 0 0 -1
    outer loop
      vertex -11.2768 8.85568 0
      vertex -9.16623 8.00935 0
      vertex -9.28615 7.80658 0
    endloop
  endfacet
  facet normal 0 0 -1
    outer loop
      vertex -11.2768 8.85568 0
      vertex -9.28615 7.80658 0
      vertex -9.3931 7.59667 0
    endloop
  endfacet
  facet normal 0 0 -1
    outer loop
      vertex -11.2768 8.85568 0
      vertex -9.3931 7.59667 0
      vertex -9.48666 7.38047 0
    endloop
  endfacet
  facet normal 0 0 -1
    outer loop
      vertex -11.2768 8.85568 0
      vertex -9.48666 7.38047 0
      vertex -9.56646 7.15881 0
    endloop
  endfacet
  facet normal 0 0 -1
    outer loop
      vertex -11.9182 6.98757 0
      vertex -9.56646 7.15881 0
      vertex -9.63219 6.93259 0
    endloop
  endfacet
  facet normal -0 0 -1
    outer loop
      vertex -9.72043 5.53 0
      vertex -11.9139 5 0
      vertex -9.7426 5.76453 0
    endloop
  endfacet
  facet normal 0 0 -1
    outer loop
      vertex -8.00935 9.16623 0
      vertex -10.0637 10.4143 0
      vertex -8.41017 11.4946 0
    endloop
  endfacet
  facet normal 0 0 -1
    outer loop
      vertex -11.9182 6.98757 0
      vertex -9.63219 6.93259 0
      vertex -9.68358 6.70268 0
    endloop
  endfacet
  facet normal 0 0 -1
    outer loop
      vertex -11.9182 6.98757 0
      vertex -9.68358 6.70268 0
      vertex -9.72043 6.47 0
    endloop
  endfacet
  facet normal 0 0 -1
    outer loop
      vertex -11.9182 6.5 0
      vertex -9.72043 6.47 0
      vertex -9.7426 6.23546 0
    endloop
  endfacet
  facet normal 0 0 -1
    outer loop
      vertex -11.9182 6.5 0
      vertex -9.7426 5.76453 0
      vertex -11.9139 5 0
    endloop
  endfacet
  facet normal 0 0 -1
    outer loop
      vertex -9.7426 5.76453 0
      vertex -11.9182 6.5 0
      vertex -9.75 6 0
    endloop
  endfacet
  facet normal 0 0 -1
    outer loop
      vertex -9.72043 6.47 0
      vertex -11.9182 6.5 0
      vertex -11.9182 6.98757 0
    endloop
  endfacet
  facet normal 0 0 -1
    outer loop
      vertex -9.75 6 0
      vertex -11.9182 6.5 0
      vertex -9.7426 6.23546 0
    endloop
  endfacet
  facet normal 0 0 -1
    outer loop
      vertex -9.03381 8.20419 0
      vertex -11.2768 8.85568 0
      vertex -10.0637 10.4143 0
    endloop
  endfacet
  facet normal -0 0 -1
    outer loop
      vertex -9.56646 7.15881 0
      vertex -11.9182 6.98757 0
      vertex -11.2768 8.85568 0
    endloop
  endfacet
  facet normal 0 0 -1
    outer loop
      vertex -6 0.0615487 0
      vertex -4.5 0.195479 0
      vertex -4.5 -24 0
    endloop
  endfacet
  facet normal 0 -0 -1
    outer loop
      vertex -5.53 2.27957 0
      vertex -4.5 0.195479 0
      vertex -6 0.0615487 0
    endloop
  endfacet
  facet normal 0 0 -1
    outer loop
      vertex -4.5 0.195479 0
      vertex -4.84119 2.43354 0
      vertex -4.61953 2.51334 0
    endloop
  endfacet
  facet normal 0 0 -1
    outer loop
      vertex -4.5 0.195479 0
      vertex -5.06741 2.36781 0
      vertex -4.84119 2.43354 0
    endloop
  endfacet
  facet normal 0 0 -1
    outer loop
      vertex -4.5 0.195479 0
      vertex -5.29732 2.31642 0
      vertex -5.06741 2.36781 0
    endloop
  endfacet
  facet normal 0 0 -1
    outer loop
      vertex -4.5 0.195479 0
      vertex -5.53 2.27957 0
      vertex -5.29732 2.31642 0
    endloop
  endfacet
  facet normal 0 0 -1
    outer loop
      vertex -6 0.0615487 0
      vertex -4.5 -24 0
      vertex -6 -24 0
    endloop
  endfacet
  facet normal 0 0 -1
    outer loop
      vertex -5.53 2.27957 0
      vertex -6 0.0615487 0
      vertex -5.76453 2.2574 0
    endloop
  endfacet
  facet normal 0 0 -1
    outer loop
      vertex -6 0.0615487 0
      vertex -6 2.25 0
      vertex -5.76453 2.2574 0
    endloop
  endfacet
  facet normal 0 0 -1
    outer loop
      vertex -6 0.0615487 0
      vertex -6.23546 2.2574 0
      vertex -6 2.25 0
    endloop
  endfacet
  facet normal 0 0 -1
    outer loop
      vertex -6.49548 0.0204926 0
      vertex -6.23546 2.2574 0
      vertex -6 0.0615487 0
    endloop
  endfacet
  facet normal -0 0 -1
    outer loop
      vertex -6.23546 2.2574 0
      vertex -6.49548 0.0204926 0
      vertex -6.47 2.27957 0
    endloop
  endfacet
  facet normal 0 0 -1
    outer loop
      vertex -6.49548 0.0204926 0
      vertex -6.70268 2.31642 0
      vertex -6.47 2.27957 0
    endloop
  endfacet
  facet normal 0 0 -1
    outer loop
      vertex -6.49548 0.0204926 0
      vertex -6.93259 2.36781 0
      vertex -6.70268 2.31642 0
    endloop
  endfacet
  facet normal 0 0 -1
    outer loop
      vertex -8.41017 0.50536 0
      vertex -6.93259 2.36781 0
      vertex -6.49548 0.0204926 0
    endloop
  endfacet
  facet normal -0 0 -1
    outer loop
      vertex -6.93259 2.36781 0
      vertex -8.41017 0.50536 0
      vertex -7.15881 2.43354 0
    endloop
  endfacet
  facet normal -0 0 -1
    outer loop
      vertex -7.15881 2.43354 0
      vertex -8.41017 0.50536 0
      vertex -7.38047 2.51334 0
    endloop
  endfacet
  facet normal -0 0 -1
    outer loop
      vertex -7.38047 2.51334 0
      vertex -8.41017 0.50536 0
      vertex -7.59667 2.6069 0
    endloop
  endfacet
  facet normal -0 0 -1
    outer loop
      vertex -7.59667 2.6069 0
      vertex -8.41017 0.50536 0
      vertex -7.80658 2.71385 0
    endloop
  endfacet
  facet normal -0 0 -1
    outer loop
      vertex -7.80658 2.71385 0
      vertex -8.41017 0.50536 0
      vertex -8.00935 2.83377 0
    endloop
  endfacet
  facet normal 0 0 -1
    outer loop
      vertex -10.0637 1.58566 0
      vertex -8.00935 2.83377 0
      vertex -8.41017 0.50536 0
    endloop
  endfacet
  facet normal -0 0 -1
    outer loop
      vertex -8.00935 2.83377 0
      vertex -10.0637 1.58566 0
      vertex -8.20419 2.96619 0
    endloop
  endfacet
  facet normal -0 0 -1
    outer loop
      vertex -8.20419 2.96619 0
      vertex -10.0637 1.58566 0
      vertex -8.39034 3.11057 0
    endloop
  endfacet
  facet normal -0 0 -1
    outer loop
      vertex -8.39034 3.11057 0
      vertex -10.0637 1.58566 0
      vertex -8.56705 3.26637 0
    endloop
  endfacet
  facet normal -0 0 -1
    outer loop
      vertex -8.56705 3.26637 0
      vertex -10.0637 1.58566 0
      vertex -8.73363 3.43295 0
    endloop
  endfacet
  facet normal -0 0 -1
    outer loop
      vertex -8.73363 3.43295 0
      vertex -10.0637 1.58566 0
      vertex -8.88942 3.60966 0
    endloop
  endfacet
  facet normal -0 0 -1
    outer loop
      vertex -8.88942 3.60966 0
      vertex -10.0637 1.58566 0
      vertex -9.03381 3.7958 0
    endloop
  endfacet
  facet normal 0 0 -1
    outer loop
      vertex -11.2768 3.14431 0
      vertex -9.03381 3.7958 0
      vertex -10.0637 1.58566 0
    endloop
  endfacet
  facet normal -0 0 -1
    outer loop
      vertex -9.03381 3.7958 0
      vertex -11.2768 3.14431 0
      vertex -9.16623 3.99065 0
    endloop
  endfacet
  facet normal -0 0 -1
    outer loop
      vertex -9.16623 3.99065 0
      vertex -11.2768 3.14431 0
      vertex -9.28615 4.19342 0
    endloop
  endfacet
  facet normal -0 0 -1
    outer loop
      vertex -9.28615 4.19342 0
      vertex -11.2768 3.14431 0
      vertex -9.3931 4.40333 0
    endloop
  endfacet
  facet normal -0 0 -1
    outer loop
      vertex -9.3931 4.40333 0
      vertex -11.2768 3.14431 0
      vertex -9.48666 4.61953 0
    endloop
  endfacet
  facet normal -0 0 -1
    outer loop
      vertex -9.68358 5.29732 0
      vertex -11.9139 5 0
      vertex -9.72043 5.53 0
    endloop
  endfacet
  facet normal -0 0 -1
    outer loop
      vertex -9.63219 5.06741 0
      vertex -11.9139 5 0
      vertex -9.68358 5.29732 0
    endloop
  endfacet
  facet normal 0 0 -1
    outer loop
      vertex -9.56646 4.84119 0
      vertex -11.9139 5 0
      vertex -9.63219 5.06741 0
    endloop
  endfacet
  facet normal 0 0 -1
    outer loop
      vertex -11.9139 5 0
      vertex -9.56646 4.84119 0
      vertex -11.2768 3.14431 0
    endloop
  endfacet
  facet normal -0 0 -1
    outer loop
      vertex -9.48666 4.61953 0
      vertex -11.2768 3.14431 0
      vertex -9.56646 4.84119 0
    endloop
  endfacet
  facet normal 0 0 -1
    outer loop
      vertex -0.0834351 5.5 0
      vertex 23 7 0
      vertex 23 5.5 0
    endloop
  endfacet
  facet normal 0 0 -1
    outer loop
      vertex -0.0834351 5.5 0
      vertex -0.16687 7 0
      vertex 23 7 0
    endloop
  endfacet
  facet normal 0 0 -1
    outer loop
      vertex -2.31642 5.29732 0
      vertex -0.0834351 5.5 0
      vertex -0.325096 4.0518 0
    endloop
  endfacet
  facet normal 0 -0 -1
    outer loop
      vertex -2.25 6 0
      vertex -0.0834351 5.5 0
      vertex -2.2574 5.76453 0
    endloop
  endfacet
  facet normal 0 0 -1
    outer loop
      vertex -2.71385 4.19342 0
      vertex -0.325096 4.0518 0
      vertex -1.26516 2.31472 0
    endloop
  endfacet
  facet normal -0 0 -1
    outer loop
      vertex -0.0834351 5.5 0
      vertex -2.31642 5.29732 0
      vertex -2.27957 5.53 0
    endloop
  endfacet
  facet normal 0 0 -1
    outer loop
      vertex -2.27957 6.47 0
      vertex -0.16687 7 0
      vertex -2.2574 6.23546 0
    endloop
  endfacet
  facet normal 0 0 -1
    outer loop
      vertex -0.0834351 5.5 0
      vertex -2.2574 6.23546 0
      vertex -0.16687 7 0
    endloop
  endfacet
  facet normal 0 0 -1
    outer loop
      vertex -2.2574 6.23546 0
      vertex -0.0834351 5.5 0
      vertex -2.25 6 0
    endloop
  endfacet
  facet normal 0 0 -1
    outer loop
      vertex -0.0834351 5.5 0
      vertex -2.27957 5.53 0
      vertex -2.2574 5.76453 0
    endloop
  endfacet
  facet normal 0 0 -1
    outer loop
      vertex -0.325096 4.0518 0
      vertex -2.36781 5.06741 0
      vertex -2.31642 5.29732 0
    endloop
  endfacet
  facet normal 0 0 -1
    outer loop
      vertex -0.325096 4.0518 0
      vertex -2.43354 4.84119 0
      vertex -2.36781 5.06741 0
    endloop
  endfacet
  facet normal 0 0 -1
    outer loop
      vertex -0.325096 4.0518 0
      vertex -2.51334 4.61953 0
      vertex -2.43354 4.84119 0
    endloop
  endfacet
  facet normal 0 0 -1
    outer loop
      vertex -0.325096 4.0518 0
      vertex -2.6069 4.40333 0
      vertex -2.51334 4.61953 0
    endloop
  endfacet
  facet normal 0 0 -1
    outer loop
      vertex -0.325096 4.0518 0
      vertex -2.71385 4.19342 0
      vertex -2.6069 4.40333 0
    endloop
  endfacet
  facet normal 0 0 -1
    outer loop
      vertex -3.43295 3.26637 0
      vertex -1.26516 2.31472 0
      vertex -2.71831 0.977 0
    endloop
  endfacet
  facet normal 0 0 -1
    outer loop
      vertex -1.26516 2.31472 0
      vertex -2.83377 3.99065 0
      vertex -2.71385 4.19342 0
    endloop
  endfacet
  facet normal 0 0 -1
    outer loop
      vertex -1.26516 2.31472 0
      vertex -2.96619 3.7958 0
      vertex -2.83377 3.99065 0
    endloop
  endfacet
  facet normal 0 0 -1
    outer loop
      vertex -1.26516 2.31472 0
      vertex -3.11057 3.60966 0
      vertex -2.96619 3.7958 0
    endloop
  endfacet
  facet normal 0 0 -1
    outer loop
      vertex -1.26516 2.31472 0
      vertex -3.26637 3.43295 0
      vertex -3.11057 3.60966 0
    endloop
  endfacet
  facet normal 0 0 -1
    outer loop
      vertex -1.26516 2.31472 0
      vertex -3.43295 3.26637 0
      vertex -3.26637 3.43295 0
    endloop
  endfacet
  facet normal 0 0 -1
    outer loop
      vertex -2.71831 0.977 0
      vertex -3.60966 3.11057 0
      vertex -3.43295 3.26637 0
    endloop
  endfacet
  facet normal 0 0 -1
    outer loop
      vertex -2.71831 0.977 0
      vertex -3.7958 2.96619 0
      vertex -3.60966 3.11057 0
    endloop
  endfacet
  facet normal 0 0 -1
    outer loop
      vertex -2.71831 0.977 0
      vertex -3.99065 2.83377 0
      vertex -3.7958 2.96619 0
    endloop
  endfacet
  facet normal 0 0 -1
    outer loop
      vertex -2.71831 0.977 0
      vertex -4.19342 2.71385 0
      vertex -3.99065 2.83377 0
    endloop
  endfacet
  facet normal 0 0 -1
    outer loop
      vertex -2.71831 0.977 0
      vertex -4.40333 2.6069 0
      vertex -4.19342 2.71385 0
    endloop
  endfacet
  facet normal 0 0 -1
    outer loop
      vertex -4.5 0.195479 0
      vertex -4.40333 2.6069 0
      vertex -2.71831 0.977 0
    endloop
  endfacet
  facet normal 0 0 -1
    outer loop
      vertex -4.40333 2.6069 0
      vertex -4.5 0.195479 0
      vertex -4.61953 2.51334 0
    endloop
  endfacet
  facet normal 0 0 -1
    outer loop
      vertex -2.31642 6.70268 0
      vertex -0.16687 7 0
      vertex -2.27957 6.47 0
    endloop
  endfacet
  facet normal 0 0 -1
    outer loop
      vertex -2.36781 6.93259 0
      vertex -0.16687 7 0
      vertex -2.31642 6.70268 0
    endloop
  endfacet
  facet normal -0 0 -1
    outer loop
      vertex -0.16687 7 0
      vertex -2.36781 6.93259 0
      vertex -0.325096 7.9482 0
    endloop
  endfacet
  facet normal 0 0 -1
    outer loop
      vertex -2.43354 7.15881 0
      vertex -0.325096 7.9482 0
      vertex -2.36781 6.93259 0
    endloop
  endfacet
  facet normal 0 0 -1
    outer loop
      vertex -2.51334 7.38047 0
      vertex -0.325096 7.9482 0
      vertex -2.43354 7.15881 0
    endloop
  endfacet
  facet normal 0 0 -1
    outer loop
      vertex -2.6069 7.59667 0
      vertex -0.325096 7.9482 0
      vertex -2.51334 7.38047 0
    endloop
  endfacet
  facet normal 0 0 -1
    outer loop
      vertex -2.71385 7.80658 0
      vertex -0.325096 7.9482 0
      vertex -2.6069 7.59667 0
    endloop
  endfacet
  facet normal -0 0 -1
    outer loop
      vertex -0.325096 7.9482 0
      vertex -2.71385 7.80658 0
      vertex -1.26516 9.68528 0
    endloop
  endfacet
  facet normal 0 0 -1
    outer loop
      vertex -2.83377 8.00935 0
      vertex -1.26516 9.68528 0
      vertex -2.71385 7.80658 0
    endloop
  endfacet
  facet normal 0 0 -1
    outer loop
      vertex -2.96619 8.20419 0
      vertex -1.26516 9.68528 0
      vertex -2.83377 8.00935 0
    endloop
  endfacet
  facet normal 0 0 -1
    outer loop
      vertex -3.11057 8.39034 0
      vertex -1.26516 9.68528 0
      vertex -2.96619 8.20419 0
    endloop
  endfacet
  facet normal 0 0 -1
    outer loop
      vertex -3.26637 8.56705 0
      vertex -1.26516 9.68528 0
      vertex -3.11057 8.39034 0
    endloop
  endfacet
  facet normal 0 0 -1
    outer loop
      vertex -3.43295 8.73363 0
      vertex -1.26516 9.68528 0
      vertex -3.26637 8.56705 0
    endloop
  endfacet
  facet normal -0 0 -1
    outer loop
      vertex -1.26516 9.68528 0
      vertex -3.43295 8.73363 0
      vertex -2.71831 11.023 0
    endloop
  endfacet
  facet normal 0 0 -1
    outer loop
      vertex -3.60966 8.88942 0
      vertex -2.71831 11.023 0
      vertex -3.43295 8.73363 0
    endloop
  endfacet
  facet normal 0 0 -1
    outer loop
      vertex -3.7958 9.03381 0
      vertex -2.71831 11.023 0
      vertex -3.60966 8.88942 0
    endloop
  endfacet
  facet normal 0 0 -1
    outer loop
      vertex -3.99065 9.16623 0
      vertex -2.71831 11.023 0
      vertex -3.7958 9.03381 0
    endloop
  endfacet
  facet normal 0 0 -1
    outer loop
      vertex -4.19342 9.28615 0
      vertex -2.71831 11.023 0
      vertex -3.99065 9.16623 0
    endloop
  endfacet
  facet normal 0 0 -1
    outer loop
      vertex -4.40333 9.3931 0
      vertex -2.71831 11.023 0
      vertex -4.19342 9.28615 0
    endloop
  endfacet
  facet normal 0 0 -1
    outer loop
      vertex -4.40333 9.3931 0
      vertex -4.5 11.8045 0
      vertex -2.71831 11.023 0
    endloop
  endfacet
  facet normal 0 0 -1
    outer loop
      vertex -4.61953 9.48666 0
      vertex -4.5 11.8045 0
      vertex -4.40333 9.3931 0
    endloop
  endfacet
  facet normal 0 0 -1
    outer loop
      vertex -4.84119 9.56646 0
      vertex -4.5 11.8045 0
      vertex -4.61953 9.48666 0
    endloop
  endfacet
  facet normal 0 0 -1
    outer loop
      vertex -5.06741 9.63219 0
      vertex -4.5 11.8045 0
      vertex -4.84119 9.56646 0
    endloop
  endfacet
  facet normal 0 0 -1
    outer loop
      vertex -5.29732 9.68358 0
      vertex -4.5 11.8045 0
      vertex -5.06741 9.63219 0
    endloop
  endfacet
  facet normal 0 0 -1
    outer loop
      vertex -5.53 9.72043 0
      vertex -4.5 11.8045 0
      vertex -5.29732 9.68358 0
    endloop
  endfacet
  facet normal -0 0 -1
    outer loop
      vertex -4.5 11.8045 0
      vertex -5.53 9.72043 0
      vertex -6 11.9384 0
    endloop
  endfacet
  facet normal 0 0 -1
    outer loop
      vertex -6 11.9384 0
      vertex -5.53 9.72043 0
      vertex -5.76453 9.7426 0
    endloop
  endfacet
  facet normal 0 0 -1
    outer loop
      vertex -6 11.9384 0
      vertex -5.76453 9.7426 0
      vertex -6 9.75 0
    endloop
  endfacet
  facet normal 0 0 -1
    outer loop
      vertex -4.5 11.8045 0
      vertex -6 11.9384 0
      vertex -4.5 36 0
    endloop
  endfacet
  facet normal -0 0 -1
    outer loop
      vertex -4.5 36 0
      vertex -6 11.9384 0
      vertex -6 36 0
    endloop
  endfacet
  facet normal -1 0 0
    outer loop
      vertex -36 5 0
      vertex -36 6.5 4
      vertex -36 6.5 0
    endloop
  endfacet
  facet normal -1 -0 0
    outer loop
      vertex -36 6.5 4
      vertex -36 5 0
      vertex -36 5 4
    endloop
  endfacet
  facet normal -1 0 0
    outer loop
      vertex -6 11.9384 0
      vertex -6 36 4
      vertex -6 36 0
    endloop
  endfacet
  facet normal -1 -0 0
    outer loop
      vertex -6 36 4
      vertex -6 11.9384 0
      vertex -6 11.9384 4
    endloop
  endfacet
  facet normal 1 -0 0
    outer loop
      vertex -4.5 11.8045 4
      vertex -4.5 36 0
      vertex -4.5 36 4
    endloop
  endfacet
  facet normal 1 0 0
    outer loop
      vertex -4.5 36 0
      vertex -4.5 11.8045 4
      vertex -4.5 11.8045 0
    endloop
  endfacet
  facet normal 0 1 -0
    outer loop
      vertex -4.5 36 0
      vertex -6 36 4
      vertex -4.5 36 4
    endloop
  endfacet
  facet normal 0 1 0
    outer loop
      vertex -6 36 4
      vertex -4.5 36 0
      vertex -6 36 0
    endloop
  endfacet
  facet normal 0 1 -0
    outer loop
      vertex 23 7 0
      vertex -0.16687 7 4
      vertex 23 7 4
    endloop
  endfacet
  facet normal 0 1 0
    outer loop
      vertex -0.16687 7 4
      vertex 23 7 0
      vertex -0.16687 7 0
    endloop
  endfacet
  facet normal 0 -1 0
    outer loop
      vertex -0.0834351 5.5 0
      vertex 23 5.5 4
      vertex -0.0834351 5.5 4
    endloop
  endfacet
  facet normal 0 -1 -0
    outer loop
      vertex 23 5.5 4
      vertex -0.0834351 5.5 0
      vertex 23 5.5 0
    endloop
  endfacet
  facet normal 1 -0 0
    outer loop
      vertex 23 5.5 4
      vertex 23 7 0
      vertex 23 7 4
    endloop
  endfacet
  facet normal 1 0 0
    outer loop
      vertex 23 7 0
      vertex 23 5.5 4
      vertex 23 5.5 0
    endloop
  endfacet
  facet normal 0.986361 0.164594 0
    outer loop
      vertex -0.16687 7 4
      vertex -0.325096 7.9482 0
      vertex -0.325096 7.9482 4
    endloop
  endfacet
  facet normal 0.986361 0.164594 0
    outer loop
      vertex -0.325096 7.9482 0
      vertex -0.16687 7 4
      vertex -0.16687 7 0
    endloop
  endfacet
  facet normal -1 0 0
    outer loop
      vertex -11.9182 6.5 0
      vertex -11.9182 6.98757 4
      vertex -11.9182 6.98757 0
    endloop
  endfacet
  facet normal -1 -0 0
    outer loop
      vertex -11.9182 6.98757 4
      vertex -11.9182 6.5 0
      vertex -11.9182 6.5 4
    endloop
  endfacet
  facet normal 0.08258 0.996584 -0
    outer loop
      vertex -6 11.9384 0
      vertex -6.49548 11.9795 4
      vertex -6 11.9384 4
    endloop
  endfacet
  facet normal 0.08258 0.996584 0
    outer loop
      vertex -6.49548 11.9795 4
      vertex -6 11.9384 0
      vertex -6.49548 11.9795 0
    endloop
  endfacet
  facet normal 0.677282 0.735724 -0
    outer loop
      vertex -1.26516 9.68528 0
      vertex -2.71831 11.023 4
      vertex -1.26516 9.68528 4
    endloop
  endfacet
  facet normal 0.677282 0.735724 0
    outer loop
      vertex -2.71831 11.023 4
      vertex -1.26516 9.68528 0
      vertex -2.71831 11.023 0
    endloop
  endfacet
  facet normal 0.879474 0.475947 0
    outer loop
      vertex -0.325096 7.9482 4
      vertex -1.26516 9.68528 0
      vertex -1.26516 9.68528 4
    endloop
  endfacet
  facet normal 0.879474 0.475947 0
    outer loop
      vertex -1.26516 9.68528 0
      vertex -0.325096 7.9482 4
      vertex -0.325096 7.9482 0
    endloop
  endfacet
  facet normal 0.401696 0.915773 -0
    outer loop
      vertex -2.71831 11.023 0
      vertex -4.5 11.8045 4
      vertex -2.71831 11.023 4
    endloop
  endfacet
  facet normal 0.401696 0.915773 0
    outer loop
      vertex -4.5 11.8045 4
      vertex -2.71831 11.023 0
      vertex -4.5 11.8045 0
    endloop
  endfacet
  facet normal -0.78914 0.614213 0
    outer loop
      vertex -11.2768 8.85568 0
      vertex -10.0637 10.4143 4
      vertex -10.0637 10.4143 0
    endloop
  endfacet
  facet normal -0.78914 0.614213 0
    outer loop
      vertex -10.0637 10.4143 4
      vertex -11.2768 8.85568 0
      vertex -11.2768 8.85568 4
    endloop
  endfacet
  facet normal -0.945817 0.324699 0
    outer loop
      vertex -11.9182 6.98757 0
      vertex -11.2768 8.85568 4
      vertex -11.2768 8.85568 0
    endloop
  endfacet
  facet normal -0.945817 0.324699 0
    outer loop
      vertex -11.2768 8.85568 4
      vertex -11.9182 6.98757 0
      vertex -11.9182 6.98757 4
    endloop
  endfacet
  facet normal -0.245486 0.9694 0
    outer loop
      vertex -6.49548 11.9795 0
      vertex -8.41017 11.4946 4
      vertex -6.49548 11.9795 4
    endloop
  endfacet
  facet normal -0.245486 0.9694 0
    outer loop
      vertex -8.41017 11.4946 4
      vertex -6.49548 11.9795 0
      vertex -8.41017 11.4946 0
    endloop
  endfacet
  facet normal 0.401695 -0.915773 0
    outer loop
      vertex -4.5 0.195479 0
      vertex -2.71831 0.977 4
      vertex -4.5 0.195479 4
    endloop
  endfacet
  facet normal 0.401695 -0.915773 0
    outer loop
      vertex -2.71831 0.977 4
      vertex -4.5 0.195479 0
      vertex -2.71831 0.977 0
    endloop
  endfacet
  facet normal 0.986361 -0.164594 0
    outer loop
      vertex -0.325096 4.0518 4
      vertex -0.0834351 5.5 0
      vertex -0.0834351 5.5 4
    endloop
  endfacet
  facet normal 0.986361 -0.164594 0
    outer loop
      vertex -0.0834351 5.5 0
      vertex -0.325096 4.0518 4
      vertex -0.325096 4.0518 0
    endloop
  endfacet
  facet normal -0.245486 -0.9694 0
    outer loop
      vertex -8.41017 0.50536 0
      vertex -6.49548 0.0204926 4
      vertex -8.41017 0.50536 4
    endloop
  endfacet
  facet normal -0.245486 -0.9694 -0
    outer loop
      vertex -6.49548 0.0204926 4
      vertex -8.41017 0.50536 0
      vertex -6.49548 0.0204926 0
    endloop
  endfacet
  facet normal -0.945817 -0.324699 0
    outer loop
      vertex -11.2768 3.14431 0
      vertex -11.9139 5 4
      vertex -11.9139 5 0
    endloop
  endfacet
  facet normal -0.945817 -0.324699 0
    outer loop
      vertex -11.9139 5 4
      vertex -11.2768 3.14431 0
      vertex -11.2768 3.14431 4
    endloop
  endfacet
  facet normal -0.546948 0.837166 0
    outer loop
      vertex -8.41017 11.4946 0
      vertex -10.0637 10.4143 4
      vertex -8.41017 11.4946 4
    endloop
  endfacet
  facet normal -0.546948 0.837166 0
    outer loop
      vertex -10.0637 10.4143 4
      vertex -8.41017 11.4946 0
      vertex -10.0637 10.4143 0
    endloop
  endfacet
  facet normal 0.677282 -0.735724 0
    outer loop
      vertex -2.71831 0.977 0
      vertex -1.26516 2.31472 4
      vertex -2.71831 0.977 4
    endloop
  endfacet
  facet normal 0.677282 -0.735724 0
    outer loop
      vertex -1.26516 2.31472 4
      vertex -2.71831 0.977 0
      vertex -1.26516 2.31472 0
    endloop
  endfacet
  facet normal 0.0825791 -0.996585 0
    outer loop
      vertex -6.49548 0.0204926 0
      vertex -6 0.0615487 4
      vertex -6.49548 0.0204926 4
    endloop
  endfacet
  facet normal 0.0825791 -0.996585 0
    outer loop
      vertex -6 0.0615487 4
      vertex -6.49548 0.0204926 0
      vertex -6 0.0615487 0
    endloop
  endfacet
  facet normal -0.78914 -0.614213 0
    outer loop
      vertex -10.0637 1.58566 0
      vertex -11.2768 3.14431 4
      vertex -11.2768 3.14431 0
    endloop
  endfacet
  facet normal -0.78914 -0.614213 0
    outer loop
      vertex -11.2768 3.14431 4
      vertex -10.0637 1.58566 0
      vertex -10.0637 1.58566 4
    endloop
  endfacet
  facet normal 0.879474 -0.475947 0
    outer loop
      vertex -1.26516 2.31472 4
      vertex -0.325096 4.0518 0
      vertex -0.325096 4.0518 4
    endloop
  endfacet
  facet normal 0.879474 -0.475947 0
    outer loop
      vertex -0.325096 4.0518 0
      vertex -1.26516 2.31472 4
      vertex -1.26516 2.31472 0
    endloop
  endfacet
  facet normal -0.546948 -0.837166 0
    outer loop
      vertex -10.0637 1.58566 0
      vertex -8.41017 0.50536 4
      vertex -10.0637 1.58566 4
    endloop
  endfacet
  facet normal -0.546948 -0.837166 -0
    outer loop
      vertex -8.41017 0.50536 4
      vertex -10.0637 1.58566 0
      vertex -8.41017 0.50536 0
    endloop
  endfacet
  facet normal -1 0 0
    outer loop
      vertex -6 -24 0
      vertex -6 0.0615487 4
      vertex -6 0.0615487 0
    endloop
  endfacet
  facet normal -1 -0 0
    outer loop
      vertex -6 0.0615487 4
      vertex -6 -24 0
      vertex -6 -24 4
    endloop
  endfacet
  facet normal 1 -0 0
    outer loop
      vertex -4.5 -24 4
      vertex -4.5 0.195479 0
      vertex -4.5 0.195479 4
    endloop
  endfacet
  facet normal 1 0 0
    outer loop
      vertex -4.5 0.195479 0
      vertex -4.5 -24 4
      vertex -4.5 -24 0
    endloop
  endfacet
  facet normal 0 -1 0
    outer loop
      vertex -6 -24 0
      vertex -4.5 -24 4
      vertex -6 -24 4
    endloop
  endfacet
  facet normal 0 -1 -0
    outer loop
      vertex -4.5 -24 4
      vertex -6 -24 0
      vertex -4.5 -24 0
    endloop
  endfacet
  facet normal -0.999507 -0.0314099 0
    outer loop
      vertex -2.25 6 0
      vertex -2.2574 6.23546 4
      vertex -2.2574 6.23546 0
    endloop
  endfacet
  facet normal -0.999507 -0.0314099 0
    outer loop
      vertex -2.2574 6.23546 4
      vertex -2.25 6 0
      vertex -2.25 6 4
    endloop
  endfacet
  facet normal 0.999506 -0.031414 0
    outer loop
      vertex -9.75 6 4
      vertex -9.7426 6.23546 0
      vertex -9.7426 6.23546 4
    endloop
  endfacet
  facet normal 0.999506 -0.031414 0
    outer loop
      vertex -9.7426 6.23546 0
      vertex -9.75 6 4
      vertex -9.75 6 0
    endloop
  endfacet
  facet normal -0.0314138 -0.999506 0
    outer loop
      vertex -6 9.75 0
      vertex -5.76453 9.7426 4
      vertex -6 9.75 4
    endloop
  endfacet
  facet normal -0.0314138 -0.999506 -0
    outer loop
      vertex -5.76453 9.7426 4
      vertex -6 9.75 0
      vertex -5.76453 9.7426 0
    endloop
  endfacet
  facet normal -0.0314098 0.999507 0
    outer loop
      vertex -5.76453 2.2574 0
      vertex -6 2.25 4
      vertex -5.76453 2.2574 4
    endloop
  endfacet
  facet normal -0.0314098 0.999507 0
    outer loop
      vertex -6 2.25 4
      vertex -5.76453 2.2574 0
      vertex -6 2.25 0
    endloop
  endfacet
  facet normal -0.707107 -0.707107 0
    outer loop
      vertex -3.26637 8.56705 0
      vertex -3.43295 8.73363 4
      vertex -3.43295 8.73363 0
    endloop
  endfacet
  facet normal -0.707107 -0.707107 0
    outer loop
      vertex -3.43295 8.73363 4
      vertex -3.26637 8.56705 0
      vertex -3.26637 8.56705 4
    endloop
  endfacet
  facet normal 0.661313 -0.75011 0
    outer loop
      vertex -8.56705 8.73363 0
      vertex -8.39034 8.88942 4
      vertex -8.56705 8.73363 4
    endloop
  endfacet
  facet normal 0.661313 -0.75011 0
    outer loop
      vertex -8.39034 8.88942 4
      vertex -8.56705 8.73363 0
      vertex -8.39034 8.88942 0
    endloop
  endfacet
  facet normal 0.33874 -0.94088 0
    outer loop
      vertex -7.38047 9.48666 0
      vertex -7.15881 9.56646 4
      vertex -7.38047 9.48666 4
    endloop
  endfacet
  facet normal 0.33874 -0.94088 0
    outer loop
      vertex -7.15881 9.56646 4
      vertex -7.38047 9.48666 0
      vertex -7.15881 9.56646 0
    endloop
  endfacet
  facet normal -0.917755 -0.397147 0
    outer loop
      vertex -2.51334 7.38047 0
      vertex -2.6069 7.59667 4
      vertex -2.6069 7.59667 0
    endloop
  endfacet
  facet normal -0.917755 -0.397147 0
    outer loop
      vertex -2.6069 7.59667 4
      vertex -2.51334 7.38047 0
      vertex -2.51334 7.38047 4
    endloop
  endfacet
  facet normal -0.397147 -0.917755 0
    outer loop
      vertex -4.61953 9.48666 0
      vertex -4.40333 9.3931 4
      vertex -4.61953 9.48666 4
    endloop
  endfacet
  facet normal -0.397147 -0.917755 -0
    outer loop
      vertex -4.40333 9.3931 4
      vertex -4.61953 9.48666 0
      vertex -4.40333 9.3931 0
    endloop
  endfacet
  facet normal -0.562083 -0.827081 0
    outer loop
      vertex -3.99065 9.16623 0
      vertex -3.7958 9.03381 4
      vertex -3.99065 9.16623 4
    endloop
  endfacet
  facet normal -0.562083 -0.827081 -0
    outer loop
      vertex -3.7958 9.03381 4
      vertex -3.99065 9.16623 0
      vertex -3.7958 9.03381 0
    endloop
  endfacet
  facet normal 0.891007 -0.453989 0
    outer loop
      vertex -9.3931 7.59667 4
      vertex -9.28615 7.80658 0
      vertex -9.28615 7.80658 4
    endloop
  endfacet
  facet normal 0.891007 -0.453989 0
    outer loop
      vertex -9.28615 7.80658 0
      vertex -9.3931 7.59667 4
      vertex -9.3931 7.59667 0
    endloop
  endfacet
  facet normal 0.156434 -0.987688 0
    outer loop
      vertex -6.70268 9.68358 0
      vertex -6.47 9.72043 4
      vertex -6.70268 9.68358 4
    endloop
  endfacet
  facet normal 0.156434 -0.987688 0
    outer loop
      vertex -6.47 9.72043 4
      vertex -6.70268 9.68358 0
      vertex -6.47 9.72043 0
    endloop
  endfacet
  facet normal -0.975916 -0.218145 0
    outer loop
      vertex -2.31642 6.70268 0
      vertex -2.36781 6.93259 4
      vertex -2.36781 6.93259 0
    endloop
  endfacet
  facet normal -0.975916 -0.218145 0
    outer loop
      vertex -2.36781 6.93259 4
      vertex -2.31642 6.70268 0
      vertex -2.31642 6.70268 4
    endloop
  endfacet
  facet normal -0.960294 -0.278989 0
    outer loop
      vertex -2.36781 6.93259 0
      vertex -2.43354 7.15881 4
      vertex -2.43354 7.15881 0
    endloop
  endfacet
  facet normal -0.960294 -0.278989 0
    outer loop
      vertex -2.43354 7.15881 4
      vertex -2.36781 6.93259 0
      vertex -2.36781 6.93259 4
    endloop
  endfacet
  facet normal -0.827081 -0.562083 0
    outer loop
      vertex -2.83377 8.00935 0
      vertex -2.96619 8.20419 4
      vertex -2.96619 8.20419 0
    endloop
  endfacet
  facet normal -0.827081 -0.562083 0
    outer loop
      vertex -2.96619 8.20419 4
      vertex -2.83377 8.00935 0
      vertex -2.83377 8.00935 4
    endloop
  endfacet
  facet normal -0.790156 -0.612906 0
    outer loop
      vertex -2.96619 8.20419 0
      vertex -3.11057 8.39034 4
      vertex -3.11057 8.39034 0
    endloop
  endfacet
  facet normal -0.790156 -0.612906 0
    outer loop
      vertex -3.11057 8.39034 4
      vertex -2.96619 8.20419 0
      vertex -2.96619 8.20419 4
    endloop
  endfacet
  facet normal -0.891007 -0.453989 0
    outer loop
      vertex -2.6069 7.59667 0
      vertex -2.71385 7.80658 4
      vertex -2.71385 7.80658 0
    endloop
  endfacet
  facet normal -0.891007 -0.453989 0
    outer loop
      vertex -2.71385 7.80658 4
      vertex -2.6069 7.59667 0
      vertex -2.6069 7.59667 4
    endloop
  endfacet
  facet normal -0.218145 -0.975916 0
    outer loop
      vertex -5.29732 9.68358 0
      vertex -5.06741 9.63219 4
      vertex -5.29732 9.68358 4
    endloop
  endfacet
  facet normal -0.218145 -0.975916 -0
    outer loop
      vertex -5.06741 9.63219 4
      vertex -5.29732 9.68358 0
      vertex -5.06741 9.63219 0
    endloop
  endfacet
  facet normal -0.33874 -0.94088 0
    outer loop
      vertex -4.84119 9.56646 0
      vertex -4.61953 9.48666 4
      vertex -4.84119 9.56646 4
    endloop
  endfacet
  facet normal -0.33874 -0.94088 -0
    outer loop
      vertex -4.61953 9.48666 4
      vertex -4.84119 9.56646 0
      vertex -4.61953 9.48666 0
    endloop
  endfacet
  facet normal -0.156434 -0.987688 0
    outer loop
      vertex -5.53 9.72043 0
      vertex -5.29732 9.68358 4
      vertex -5.53 9.72043 4
    endloop
  endfacet
  facet normal -0.156434 -0.987688 -0
    outer loop
      vertex -5.29732 9.68358 4
      vertex -5.53 9.72043 0
      vertex -5.29732 9.68358 0
    endloop
  endfacet
  facet normal -0.509043 -0.860741 0
    outer loop
      vertex -4.19342 9.28615 0
      vertex -3.99065 9.16623 4
      vertex -4.19342 9.28615 4
    endloop
  endfacet
  facet normal -0.509043 -0.860741 -0
    outer loop
      vertex -3.99065 9.16623 4
      vertex -4.19342 9.28615 0
      vertex -3.99065 9.16623 0
    endloop
  endfacet
  facet normal -0.661313 -0.75011 0
    outer loop
      vertex -3.60966 8.88942 0
      vertex -3.43295 8.73363 4
      vertex -3.60966 8.88942 4
    endloop
  endfacet
  facet normal -0.661313 -0.75011 -0
    outer loop
      vertex -3.43295 8.73363 4
      vertex -3.60966 8.88942 0
      vertex -3.43295 8.73363 0
    endloop
  endfacet
  facet normal 0.975916 -0.218145 0
    outer loop
      vertex -9.68358 6.70268 4
      vertex -9.63219 6.93259 0
      vertex -9.63219 6.93259 4
    endloop
  endfacet
  facet normal 0.975916 -0.218145 0
    outer loop
      vertex -9.63219 6.93259 0
      vertex -9.68358 6.70268 4
      vertex -9.68358 6.70268 0
    endloop
  endfacet
  facet normal 0.790156 -0.612906 0
    outer loop
      vertex -9.03381 8.20419 4
      vertex -8.88942 8.39034 0
      vertex -8.88942 8.39034 4
    endloop
  endfacet
  facet normal 0.790156 -0.612906 0
    outer loop
      vertex -8.88942 8.39034 0
      vertex -9.03381 8.20419 4
      vertex -9.03381 8.20419 0
    endloop
  endfacet
  facet normal 0.987688 -0.156434 0
    outer loop
      vertex -9.72043 6.47 4
      vertex -9.68358 6.70268 0
      vertex -9.68358 6.70268 4
    endloop
  endfacet
  facet normal 0.987688 -0.156434 0
    outer loop
      vertex -9.68358 6.70268 0
      vertex -9.72043 6.47 4
      vertex -9.72043 6.47 0
    endloop
  endfacet
  facet normal 0.509043 -0.860741 0
    outer loop
      vertex -8.00935 9.16623 0
      vertex -7.80658 9.28615 4
      vertex -8.00935 9.16623 4
    endloop
  endfacet
  facet normal 0.509043 -0.860741 0
    outer loop
      vertex -7.80658 9.28615 4
      vertex -8.00935 9.16623 0
      vertex -7.80658 9.28615 0
    endloop
  endfacet
  facet normal 0.0941082 -0.995562 0
    outer loop
      vertex -6.47 9.72043 0
      vertex -6.23546 9.7426 4
      vertex -6.47 9.72043 4
    endloop
  endfacet
  facet normal 0.0941082 -0.995562 0
    outer loop
      vertex -6.23546 9.7426 4
      vertex -6.47 9.72043 0
      vertex -6.23546 9.7426 0
    endloop
  endfacet
  facet normal -0.75011 0.661313 0
    outer loop
      vertex -3.26637 3.43295 0
      vertex -3.11057 3.60966 4
      vertex -3.11057 3.60966 0
    endloop
  endfacet
  facet normal -0.75011 0.661313 0
    outer loop
      vertex -3.11057 3.60966 4
      vertex -3.26637 3.43295 0
      vertex -3.26637 3.43295 4
    endloop
  endfacet
  facet normal -0.94088 0.33874 0
    outer loop
      vertex -2.51334 4.61953 0
      vertex -2.43354 4.84119 4
      vertex -2.43354 4.84119 0
    endloop
  endfacet
  facet normal -0.94088 0.33874 0
    outer loop
      vertex -2.43354 4.84119 4
      vertex -2.51334 4.61953 0
      vertex -2.51334 4.61953 4
    endloop
  endfacet
  facet normal -0.987688 -0.156434 0
    outer loop
      vertex -2.27957 6.47 0
      vertex -2.31642 6.70268 4
      vertex -2.31642 6.70268 0
    endloop
  endfacet
  facet normal -0.987688 -0.156434 0
    outer loop
      vertex -2.31642 6.70268 4
      vertex -2.27957 6.47 0
      vertex -2.27957 6.47 4
    endloop
  endfacet
  facet normal -0.995562 -0.0941082 0
    outer loop
      vertex -2.2574 6.23546 0
      vertex -2.27957 6.47 4
      vertex -2.27957 6.47 0
    endloop
  endfacet
  facet normal -0.995562 -0.0941082 0
    outer loop
      vertex -2.27957 6.47 4
      vertex -2.2574 6.23546 0
      vertex -2.2574 6.23546 4
    endloop
  endfacet
  facet normal -0.94088 -0.33874 0
    outer loop
      vertex -2.43354 7.15881 0
      vertex -2.51334 7.38047 4
      vertex -2.51334 7.38047 0
    endloop
  endfacet
  facet normal -0.94088 -0.33874 0
    outer loop
      vertex -2.51334 7.38047 4
      vertex -2.43354 7.15881 0
      vertex -2.43354 7.15881 4
    endloop
  endfacet
  facet normal -0.75011 -0.661313 0
    outer loop
      vertex -3.11057 8.39034 0
      vertex -3.26637 8.56705 4
      vertex -3.26637 8.56705 0
    endloop
  endfacet
  facet normal -0.75011 -0.661313 0
    outer loop
      vertex -3.26637 8.56705 4
      vertex -3.11057 8.39034 0
      vertex -3.11057 8.39034 4
    endloop
  endfacet
  facet normal -0.860741 -0.509043 0
    outer loop
      vertex -2.71385 7.80658 0
      vertex -2.83377 8.00935 4
      vertex -2.83377 8.00935 0
    endloop
  endfacet
  facet normal -0.860741 -0.509043 0
    outer loop
      vertex -2.83377 8.00935 4
      vertex -2.71385 7.80658 0
      vertex -2.71385 7.80658 4
    endloop
  endfacet
  facet normal -0.278989 -0.960294 0
    outer loop
      vertex -5.06741 9.63219 0
      vertex -4.84119 9.56646 4
      vertex -5.06741 9.63219 4
    endloop
  endfacet
  facet normal -0.278989 -0.960294 -0
    outer loop
      vertex -4.84119 9.56646 4
      vertex -5.06741 9.63219 0
      vertex -4.84119 9.56646 0
    endloop
  endfacet
  facet normal -0.0941082 -0.995562 0
    outer loop
      vertex -5.76453 9.7426 0
      vertex -5.53 9.72043 4
      vertex -5.76453 9.7426 4
    endloop
  endfacet
  facet normal -0.0941082 -0.995562 -0
    outer loop
      vertex -5.53 9.72043 4
      vertex -5.76453 9.7426 0
      vertex -5.53 9.72043 0
    endloop
  endfacet
  facet normal -0.453989 -0.891007 0
    outer loop
      vertex -4.40333 9.3931 0
      vertex -4.19342 9.28615 4
      vertex -4.40333 9.3931 4
    endloop
  endfacet
  facet normal -0.453989 -0.891007 -0
    outer loop
      vertex -4.19342 9.28615 4
      vertex -4.40333 9.3931 0
      vertex -4.19342 9.28615 0
    endloop
  endfacet
  facet normal -0.612906 -0.790156 0
    outer loop
      vertex -3.7958 9.03381 0
      vertex -3.60966 8.88942 4
      vertex -3.7958 9.03381 4
    endloop
  endfacet
  facet normal -0.612906 -0.790156 -0
    outer loop
      vertex -3.60966 8.88942 4
      vertex -3.7958 9.03381 0
      vertex -3.60966 8.88942 0
    endloop
  endfacet
  facet normal 0.75011 -0.661313 0
    outer loop
      vertex -8.88942 8.39034 4
      vertex -8.73363 8.56705 0
      vertex -8.73363 8.56705 4
    endloop
  endfacet
  facet normal 0.75011 -0.661313 0
    outer loop
      vertex -8.73363 8.56705 0
      vertex -8.88942 8.39034 4
      vertex -8.88942 8.39034 0
    endloop
  endfacet
  facet normal 0.707107 -0.707107 0
    outer loop
      vertex -8.73363 8.56705 4
      vertex -8.56705 8.73363 0
      vertex -8.56705 8.73363 4
    endloop
  endfacet
  facet normal 0.707107 -0.707107 0
    outer loop
      vertex -8.56705 8.73363 0
      vertex -8.73363 8.56705 4
      vertex -8.73363 8.56705 0
    endloop
  endfacet
  facet normal 0.860741 -0.509043 0
    outer loop
      vertex -9.28615 7.80658 4
      vertex -9.16623 8.00935 0
      vertex -9.16623 8.00935 4
    endloop
  endfacet
  facet normal 0.860741 -0.509043 0
    outer loop
      vertex -9.16623 8.00935 0
      vertex -9.28615 7.80658 4
      vertex -9.28615 7.80658 0
    endloop
  endfacet
  facet normal 0.827081 -0.562083 0
    outer loop
      vertex -9.16623 8.00935 4
      vertex -9.03381 8.20419 0
      vertex -9.03381 8.20419 4
    endloop
  endfacet
  facet normal 0.827081 -0.562083 0
    outer loop
      vertex -9.03381 8.20419 0
      vertex -9.16623 8.00935 4
      vertex -9.16623 8.00935 0
    endloop
  endfacet
  facet normal 0.94088 -0.33874 0
    outer loop
      vertex -9.56646 7.15881 4
      vertex -9.48666 7.38047 0
      vertex -9.48666 7.38047 4
    endloop
  endfacet
  facet normal 0.94088 -0.33874 0
    outer loop
      vertex -9.48666 7.38047 0
      vertex -9.56646 7.15881 4
      vertex -9.56646 7.15881 0
    endloop
  endfacet
  facet normal 0.917755 -0.397147 0
    outer loop
      vertex -9.48666 7.38047 4
      vertex -9.3931 7.59667 0
      vertex -9.3931 7.59667 4
    endloop
  endfacet
  facet normal 0.917755 -0.397147 0
    outer loop
      vertex -9.3931 7.59667 0
      vertex -9.48666 7.38047 4
      vertex -9.48666 7.38047 0
    endloop
  endfacet
  facet normal 0.960294 -0.278989 0
    outer loop
      vertex -9.63219 6.93259 4
      vertex -9.56646 7.15881 0
      vertex -9.56646 7.15881 4
    endloop
  endfacet
  facet normal 0.960294 -0.278989 0
    outer loop
      vertex -9.56646 7.15881 0
      vertex -9.63219 6.93259 4
      vertex -9.63219 6.93259 0
    endloop
  endfacet
  facet normal 0.995562 -0.0941082 0
    outer loop
      vertex -9.7426 6.23546 4
      vertex -9.72043 6.47 0
      vertex -9.72043 6.47 4
    endloop
  endfacet
  facet normal 0.995562 -0.0941082 0
    outer loop
      vertex -9.72043 6.47 0
      vertex -9.7426 6.23546 4
      vertex -9.7426 6.23546 0
    endloop
  endfacet
  facet normal 0.453989 -0.891007 0
    outer loop
      vertex -7.80658 9.28615 0
      vertex -7.59667 9.3931 4
      vertex -7.80658 9.28615 4
    endloop
  endfacet
  facet normal 0.453989 -0.891007 0
    outer loop
      vertex -7.59667 9.3931 4
      vertex -7.80658 9.28615 0
      vertex -7.59667 9.3931 0
    endloop
  endfacet
  facet normal 0.397147 -0.917755 0
    outer loop
      vertex -7.59667 9.3931 0
      vertex -7.38047 9.48666 4
      vertex -7.59667 9.3931 4
    endloop
  endfacet
  facet normal 0.397147 -0.917755 0
    outer loop
      vertex -7.38047 9.48666 4
      vertex -7.59667 9.3931 0
      vertex -7.38047 9.48666 0
    endloop
  endfacet
  facet normal 0.562083 -0.827081 0
    outer loop
      vertex -8.20419 9.03381 0
      vertex -8.00935 9.16623 4
      vertex -8.20419 9.03381 4
    endloop
  endfacet
  facet normal 0.562083 -0.827081 0
    outer loop
      vertex -8.00935 9.16623 4
      vertex -8.20419 9.03381 0
      vertex -8.00935 9.16623 0
    endloop
  endfacet
  facet normal 0.612906 -0.790156 0
    outer loop
      vertex -8.39034 8.88942 0
      vertex -8.20419 9.03381 4
      vertex -8.39034 8.88942 4
    endloop
  endfacet
  facet normal 0.612906 -0.790156 0
    outer loop
      vertex -8.20419 9.03381 4
      vertex -8.39034 8.88942 0
      vertex -8.20419 9.03381 0
    endloop
  endfacet
  facet normal 0.218145 -0.975916 0
    outer loop
      vertex -6.93259 9.63219 0
      vertex -6.70268 9.68358 4
      vertex -6.93259 9.63219 4
    endloop
  endfacet
  facet normal 0.218145 -0.975916 0
    outer loop
      vertex -6.70268 9.68358 4
      vertex -6.93259 9.63219 0
      vertex -6.70268 9.68358 0
    endloop
  endfacet
  facet normal 0.278989 -0.960294 0
    outer loop
      vertex -7.15881 9.56646 0
      vertex -6.93259 9.63219 4
      vertex -7.15881 9.56646 4
    endloop
  endfacet
  facet normal 0.278989 -0.960294 0
    outer loop
      vertex -6.93259 9.63219 4
      vertex -7.15881 9.56646 0
      vertex -6.93259 9.63219 0
    endloop
  endfacet
  facet normal 0.031414 -0.999506 0
    outer loop
      vertex -6.23546 9.7426 0
      vertex -6 9.75 4
      vertex -6.23546 9.7426 4
    endloop
  endfacet
  facet normal 0.031414 -0.999506 0
    outer loop
      vertex -6 9.75 4
      vertex -6.23546 9.7426 0
      vertex -6 9.75 0
    endloop
  endfacet
  facet normal -0.999507 0.0314098 0
    outer loop
      vertex -2.2574 5.76453 0
      vertex -2.25 6 4
      vertex -2.25 6 0
    endloop
  endfacet
  facet normal -0.999507 0.0314098 0
    outer loop
      vertex -2.25 6 4
      vertex -2.2574 5.76453 0
      vertex -2.2574 5.76453 4
    endloop
  endfacet
  facet normal -0.987688 0.156434 0
    outer loop
      vertex -2.31642 5.29732 0
      vertex -2.27957 5.53 4
      vertex -2.27957 5.53 0
    endloop
  endfacet
  facet normal -0.987688 0.156434 0
    outer loop
      vertex -2.27957 5.53 4
      vertex -2.31642 5.29732 0
      vertex -2.31642 5.29732 4
    endloop
  endfacet
  facet normal -0.995562 0.0941082 0
    outer loop
      vertex -2.27957 5.53 0
      vertex -2.2574 5.76453 4
      vertex -2.2574 5.76453 0
    endloop
  endfacet
  facet normal -0.995562 0.0941082 0
    outer loop
      vertex -2.2574 5.76453 4
      vertex -2.27957 5.53 0
      vertex -2.27957 5.53 4
    endloop
  endfacet
  facet normal -0.891007 0.453989 0
    outer loop
      vertex -2.71385 4.19342 0
      vertex -2.6069 4.40333 4
      vertex -2.6069 4.40333 0
    endloop
  endfacet
  facet normal -0.891007 0.453989 0
    outer loop
      vertex -2.6069 4.40333 4
      vertex -2.71385 4.19342 0
      vertex -2.71385 4.19342 4
    endloop
  endfacet
  facet normal -0.790156 0.612906 0
    outer loop
      vertex -3.11057 3.60966 0
      vertex -2.96619 3.7958 4
      vertex -2.96619 3.7958 0
    endloop
  endfacet
  facet normal -0.790156 0.612906 0
    outer loop
      vertex -2.96619 3.7958 4
      vertex -3.11057 3.60966 0
      vertex -3.11057 3.60966 4
    endloop
  endfacet
  facet normal 0.975916 0.218145 0
    outer loop
      vertex -9.63219 5.06741 4
      vertex -9.68358 5.29732 0
      vertex -9.68358 5.29732 4
    endloop
  endfacet
  facet normal 0.975916 0.218145 0
    outer loop
      vertex -9.68358 5.29732 0
      vertex -9.63219 5.06741 4
      vertex -9.63219 5.06741 0
    endloop
  endfacet
  facet normal -0.218145 0.975916 0
    outer loop
      vertex -5.06741 2.36781 0
      vertex -5.29732 2.31642 4
      vertex -5.06741 2.36781 4
    endloop
  endfacet
  facet normal -0.218145 0.975916 0
    outer loop
      vertex -5.29732 2.31642 4
      vertex -5.06741 2.36781 0
      vertex -5.29732 2.31642 0
    endloop
  endfacet
  facet normal -0.453989 0.891007 0
    outer loop
      vertex -4.19342 2.71385 0
      vertex -4.40333 2.6069 4
      vertex -4.19342 2.71385 4
    endloop
  endfacet
  facet normal -0.453989 0.891007 0
    outer loop
      vertex -4.40333 2.6069 4
      vertex -4.19342 2.71385 0
      vertex -4.40333 2.6069 0
    endloop
  endfacet
  facet normal -0.397147 0.917755 0
    outer loop
      vertex -4.40333 2.6069 0
      vertex -4.61953 2.51334 4
      vertex -4.40333 2.6069 4
    endloop
  endfacet
  facet normal -0.397147 0.917755 0
    outer loop
      vertex -4.61953 2.51334 4
      vertex -4.40333 2.6069 0
      vertex -4.61953 2.51334 0
    endloop
  endfacet
  facet normal -0.707107 0.707107 0
    outer loop
      vertex -3.43295 3.26637 0
      vertex -3.26637 3.43295 4
      vertex -3.26637 3.43295 0
    endloop
  endfacet
  facet normal -0.707107 0.707107 0
    outer loop
      vertex -3.26637 3.43295 4
      vertex -3.43295 3.26637 0
      vertex -3.43295 3.26637 4
    endloop
  endfacet
  facet normal -0.612906 0.790156 0
    outer loop
      vertex -3.60966 3.11057 0
      vertex -3.7958 2.96619 4
      vertex -3.60966 3.11057 4
    endloop
  endfacet
  facet normal -0.612906 0.790156 0
    outer loop
      vertex -3.7958 2.96619 4
      vertex -3.60966 3.11057 0
      vertex -3.7958 2.96619 0
    endloop
  endfacet
  facet normal -0.917755 0.397147 0
    outer loop
      vertex -2.6069 4.40333 0
      vertex -2.51334 4.61953 4
      vertex -2.51334 4.61953 0
    endloop
  endfacet
  facet normal -0.917755 0.397147 0
    outer loop
      vertex -2.51334 4.61953 4
      vertex -2.6069 4.40333 0
      vertex -2.6069 4.40333 4
    endloop
  endfacet
  facet normal -0.860741 0.509043 0
    outer loop
      vertex -2.83377 3.99065 0
      vertex -2.71385 4.19342 4
      vertex -2.71385 4.19342 0
    endloop
  endfacet
  facet normal -0.860741 0.509043 0
    outer loop
      vertex -2.71385 4.19342 4
      vertex -2.83377 3.99065 0
      vertex -2.83377 3.99065 4
    endloop
  endfacet
  facet normal -0.827081 0.562083 0
    outer loop
      vertex -2.96619 3.7958 0
      vertex -2.83377 3.99065 4
      vertex -2.83377 3.99065 0
    endloop
  endfacet
  facet normal -0.827081 0.562083 0
    outer loop
      vertex -2.83377 3.99065 4
      vertex -2.96619 3.7958 0
      vertex -2.96619 3.7958 4
    endloop
  endfacet
  facet normal 0.33874 0.94088 -0
    outer loop
      vertex -7.15881 2.43354 0
      vertex -7.38047 2.51334 4
      vertex -7.15881 2.43354 4
    endloop
  endfacet
  facet normal 0.33874 0.94088 0
    outer loop
      vertex -7.38047 2.51334 4
      vertex -7.15881 2.43354 0
      vertex -7.38047 2.51334 0
    endloop
  endfacet
  facet normal 0.987688 0.156434 0
    outer loop
      vertex -9.68358 5.29732 4
      vertex -9.72043 5.53 0
      vertex -9.72043 5.53 4
    endloop
  endfacet
  facet normal 0.987688 0.156434 0
    outer loop
      vertex -9.72043 5.53 0
      vertex -9.68358 5.29732 4
      vertex -9.68358 5.29732 0
    endloop
  endfacet
  facet normal -0.975916 0.218145 0
    outer loop
      vertex -2.36781 5.06741 0
      vertex -2.31642 5.29732 4
      vertex -2.31642 5.29732 0
    endloop
  endfacet
  facet normal -0.975916 0.218145 0
    outer loop
      vertex -2.31642 5.29732 4
      vertex -2.36781 5.06741 0
      vertex -2.36781 5.06741 4
    endloop
  endfacet
  facet normal -0.960294 0.278989 0
    outer loop
      vertex -2.43354 4.84119 0
      vertex -2.36781 5.06741 4
      vertex -2.36781 5.06741 0
    endloop
  endfacet
  facet normal -0.960294 0.278989 0
    outer loop
      vertex -2.36781 5.06741 4
      vertex -2.43354 4.84119 0
      vertex -2.43354 4.84119 4
    endloop
  endfacet
  facet normal -0.661313 0.75011 0
    outer loop
      vertex -3.43295 3.26637 0
      vertex -3.60966 3.11057 4
      vertex -3.43295 3.26637 4
    endloop
  endfacet
  facet normal -0.661313 0.75011 0
    outer loop
      vertex -3.60966 3.11057 4
      vertex -3.43295 3.26637 0
      vertex -3.60966 3.11057 0
    endloop
  endfacet
  facet normal 0.0314099 0.999507 -0
    outer loop
      vertex -6 2.25 0
      vertex -6.23546 2.2574 4
      vertex -6 2.25 4
    endloop
  endfacet
  facet normal 0.0314099 0.999507 0
    outer loop
      vertex -6.23546 2.2574 4
      vertex -6 2.25 0
      vertex -6.23546 2.2574 0
    endloop
  endfacet
  facet normal 0.156434 0.987688 -0
    outer loop
      vertex -6.47 2.27957 0
      vertex -6.70268 2.31642 4
      vertex -6.47 2.27957 4
    endloop
  endfacet
  facet normal 0.156434 0.987688 0
    outer loop
      vertex -6.70268 2.31642 4
      vertex -6.47 2.27957 0
      vertex -6.70268 2.31642 0
    endloop
  endfacet
  facet normal 0.0941082 0.995562 -0
    outer loop
      vertex -6.23546 2.2574 0
      vertex -6.47 2.27957 4
      vertex -6.23546 2.2574 4
    endloop
  endfacet
  facet normal 0.0941082 0.995562 0
    outer loop
      vertex -6.47 2.27957 4
      vertex -6.23546 2.2574 0
      vertex -6.47 2.27957 0
    endloop
  endfacet
  facet normal 0.453989 0.891007 -0
    outer loop
      vertex -7.59667 2.6069 0
      vertex -7.80658 2.71385 4
      vertex -7.59667 2.6069 4
    endloop
  endfacet
  facet normal 0.453989 0.891007 0
    outer loop
      vertex -7.80658 2.71385 4
      vertex -7.59667 2.6069 0
      vertex -7.80658 2.71385 0
    endloop
  endfacet
  facet normal 0.75011 0.661313 0
    outer loop
      vertex -8.73363 3.43295 4
      vertex -8.88942 3.60966 0
      vertex -8.88942 3.60966 4
    endloop
  endfacet
  facet normal 0.75011 0.661313 0
    outer loop
      vertex -8.88942 3.60966 0
      vertex -8.73363 3.43295 4
      vertex -8.73363 3.43295 0
    endloop
  endfacet
  facet normal 0.707107 0.707107 0
    outer loop
      vertex -8.56705 3.26637 4
      vertex -8.73363 3.43295 0
      vertex -8.73363 3.43295 4
    endloop
  endfacet
  facet normal 0.707107 0.707107 0
    outer loop
      vertex -8.73363 3.43295 0
      vertex -8.56705 3.26637 4
      vertex -8.56705 3.26637 0
    endloop
  endfacet
  facet normal 0.94088 0.33874 0
    outer loop
      vertex -9.48666 4.61953 4
      vertex -9.56646 4.84119 0
      vertex -9.56646 4.84119 4
    endloop
  endfacet
  facet normal 0.94088 0.33874 0
    outer loop
      vertex -9.56646 4.84119 0
      vertex -9.48666 4.61953 4
      vertex -9.48666 4.61953 0
    endloop
  endfacet
  facet normal 0.917755 0.397147 0
    outer loop
      vertex -9.3931 4.40333 4
      vertex -9.48666 4.61953 0
      vertex -9.48666 4.61953 4
    endloop
  endfacet
  facet normal 0.917755 0.397147 0
    outer loop
      vertex -9.48666 4.61953 0
      vertex -9.3931 4.40333 4
      vertex -9.3931 4.40333 0
    endloop
  endfacet
  facet normal 0.995562 0.0941082 0
    outer loop
      vertex -9.72043 5.53 4
      vertex -9.7426 5.76453 0
      vertex -9.7426 5.76453 4
    endloop
  endfacet
  facet normal 0.995562 0.0941082 0
    outer loop
      vertex -9.7426 5.76453 0
      vertex -9.72043 5.53 4
      vertex -9.72043 5.53 0
    endloop
  endfacet
  facet normal 0.999506 0.0314138 0
    outer loop
      vertex -9.7426 5.76453 4
      vertex -9.75 6 0
      vertex -9.75 6 4
    endloop
  endfacet
  facet normal 0.999506 0.0314138 0
    outer loop
      vertex -9.75 6 0
      vertex -9.7426 5.76453 4
      vertex -9.7426 5.76453 0
    endloop
  endfacet
  facet normal -0.156434 0.987688 0
    outer loop
      vertex -5.29732 2.31642 0
      vertex -5.53 2.27957 4
      vertex -5.29732 2.31642 4
    endloop
  endfacet
  facet normal -0.156434 0.987688 0
    outer loop
      vertex -5.53 2.27957 4
      vertex -5.29732 2.31642 0
      vertex -5.53 2.27957 0
    endloop
  endfacet
  facet normal -0.0941082 0.995562 0
    outer loop
      vertex -5.53 2.27957 0
      vertex -5.76453 2.2574 4
      vertex -5.53 2.27957 4
    endloop
  endfacet
  facet normal -0.0941082 0.995562 0
    outer loop
      vertex -5.76453 2.2574 4
      vertex -5.53 2.27957 0
      vertex -5.76453 2.2574 0
    endloop
  endfacet
  facet normal -0.33874 0.94088 0
    outer loop
      vertex -4.61953 2.51334 0
      vertex -4.84119 2.43354 4
      vertex -4.61953 2.51334 4
    endloop
  endfacet
  facet normal -0.33874 0.94088 0
    outer loop
      vertex -4.84119 2.43354 4
      vertex -4.61953 2.51334 0
      vertex -4.84119 2.43354 0
    endloop
  endfacet
  facet normal -0.562083 0.827081 0
    outer loop
      vertex -3.7958 2.96619 0
      vertex -3.99065 2.83377 4
      vertex -3.7958 2.96619 4
    endloop
  endfacet
  facet normal -0.562083 0.827081 0
    outer loop
      vertex -3.99065 2.83377 4
      vertex -3.7958 2.96619 0
      vertex -3.99065 2.83377 0
    endloop
  endfacet
  facet normal -0.509043 0.860741 0
    outer loop
      vertex -3.99065 2.83377 0
      vertex -4.19342 2.71385 4
      vertex -3.99065 2.83377 4
    endloop
  endfacet
  facet normal -0.509043 0.860741 0
    outer loop
      vertex -4.19342 2.71385 4
      vertex -3.99065 2.83377 0
      vertex -4.19342 2.71385 0
    endloop
  endfacet
  facet normal 0.278989 0.960294 -0
    outer loop
      vertex -6.93259 2.36781 0
      vertex -7.15881 2.43354 4
      vertex -6.93259 2.36781 4
    endloop
  endfacet
  facet normal 0.278989 0.960294 0
    outer loop
      vertex -7.15881 2.43354 4
      vertex -6.93259 2.36781 0
      vertex -7.15881 2.43354 0
    endloop
  endfacet
  facet normal 0.397147 0.917755 -0
    outer loop
      vertex -7.38047 2.51334 0
      vertex -7.59667 2.6069 4
      vertex -7.38047 2.51334 4
    endloop
  endfacet
  facet normal 0.397147 0.917755 0
    outer loop
      vertex -7.59667 2.6069 4
      vertex -7.38047 2.51334 0
      vertex -7.59667 2.6069 0
    endloop
  endfacet
  facet normal 0.661313 0.75011 -0
    outer loop
      vertex -8.39034 3.11057 0
      vertex -8.56705 3.26637 4
      vertex -8.39034 3.11057 4
    endloop
  endfacet
  facet normal 0.661313 0.75011 0
    outer loop
      vertex -8.56705 3.26637 4
      vertex -8.39034 3.11057 0
      vertex -8.56705 3.26637 0
    endloop
  endfacet
  facet normal 0.612906 0.790156 -0
    outer loop
      vertex -8.20419 2.96619 0
      vertex -8.39034 3.11057 4
      vertex -8.20419 2.96619 4
    endloop
  endfacet
  facet normal 0.612906 0.790156 0
    outer loop
      vertex -8.39034 3.11057 4
      vertex -8.20419 2.96619 0
      vertex -8.39034 3.11057 0
    endloop
  endfacet
  facet normal 0.891007 0.453989 0
    outer loop
      vertex -9.28615 4.19342 4
      vertex -9.3931 4.40333 0
      vertex -9.3931 4.40333 4
    endloop
  endfacet
  facet normal 0.891007 0.453989 0
    outer loop
      vertex -9.3931 4.40333 0
      vertex -9.28615 4.19342 4
      vertex -9.28615 4.19342 0
    endloop
  endfacet
  facet normal 0.790156 0.612906 0
    outer loop
      vertex -8.88942 3.60966 4
      vertex -9.03381 3.7958 0
      vertex -9.03381 3.7958 4
    endloop
  endfacet
  facet normal 0.790156 0.612906 0
    outer loop
      vertex -9.03381 3.7958 0
      vertex -8.88942 3.60966 4
      vertex -8.88942 3.60966 0
    endloop
  endfacet
  facet normal 0.960294 0.278989 0
    outer loop
      vertex -9.56646 4.84119 4
      vertex -9.63219 5.06741 0
      vertex -9.63219 5.06741 4
    endloop
  endfacet
  facet normal 0.960294 0.278989 0
    outer loop
      vertex -9.63219 5.06741 0
      vertex -9.56646 4.84119 4
      vertex -9.56646 4.84119 0
    endloop
  endfacet
  facet normal -0.278989 0.960294 0
    outer loop
      vertex -4.84119 2.43354 0
      vertex -5.06741 2.36781 4
      vertex -4.84119 2.43354 4
    endloop
  endfacet
  facet normal -0.278989 0.960294 0
    outer loop
      vertex -5.06741 2.36781 4
      vertex -4.84119 2.43354 0
      vertex -5.06741 2.36781 0
    endloop
  endfacet
  facet normal 0.218145 0.975916 -0
    outer loop
      vertex -6.70268 2.31642 0
      vertex -6.93259 2.36781 4
      vertex -6.70268 2.31642 4
    endloop
  endfacet
  facet normal 0.218145 0.975916 0
    outer loop
      vertex -6.93259 2.36781 4
      vertex -6.70268 2.31642 0
      vertex -6.93259 2.36781 0
    endloop
  endfacet
  facet normal 0.562083 0.827081 -0
    outer loop
      vertex -8.00935 2.83377 0
      vertex -8.20419 2.96619 4
      vertex -8.00935 2.83377 4
    endloop
  endfacet
  facet normal 0.562083 0.827081 0
    outer loop
      vertex -8.20419 2.96619 4
      vertex -8.00935 2.83377 0
      vertex -8.20419 2.96619 0
    endloop
  endfacet
  facet normal 0.509043 0.860741 -0
    outer loop
      vertex -7.80658 2.71385 0
      vertex -8.00935 2.83377 4
      vertex -7.80658 2.71385 4
    endloop
  endfacet
  facet normal 0.509043 0.860741 0
    outer loop
      vertex -8.00935 2.83377 4
      vertex -7.80658 2.71385 0
      vertex -8.00935 2.83377 0
    endloop
  endfacet
  facet normal 0.827081 0.562083 0
    outer loop
      vertex -9.03381 3.7958 4
      vertex -9.16623 3.99065 0
      vertex -9.16623 3.99065 4
    endloop
  endfacet
  facet normal 0.827081 0.562083 0
    outer loop
      vertex -9.16623 3.99065 0
      vertex -9.03381 3.7958 4
      vertex -9.03381 3.7958 0
    endloop
  endfacet
  facet normal 0.860741 0.509043 0
    outer loop
      vertex -9.16623 3.99065 4
      vertex -9.28615 4.19342 0
      vertex -9.28615 4.19342 4
    endloop
  endfacet
  facet normal 0.860741 0.509043 0
    outer loop
      vertex -9.28615 4.19342 0
      vertex -9.16623 3.99065 4
      vertex -9.16623 3.99065 0
    endloop
  endfacet
endsolid OpenSCAD_Model
