solid OpenSCAD_Model
  facet normal -1 0 -2.22045e-16
    outer loop
      vertex 4.09249e-16 1.29055 -1.84309
      vertex -4.99524e-16 0.0392679 2.24966
      vertex -1.46069e-16 2.15168 0.657836
    endloop
  endfacet
  facet normal -1 0 -2.22045e-16
    outer loop
      vertex 3.98998e-16 -1.35408 -1.79693
      vertex -4.99524e-16 0.0392679 2.24966
      vertex 4.09249e-16 1.29055 -1.84309
    endloop
  endfacet
  facet normal -1 0 -2.22045e-16
    outer loop
      vertex -4.99524e-16 0.0392679 2.24966
      vertex 3.98998e-16 -1.35408 -1.79693
      vertex -1.62654e-16 -2.12742 0.732528
    endloop
  endfacet
  facet normal 0 -0.0174527 -0.999848
    outer loop
      vertex 10 -1.35408 -1.79693
      vertex 4.09249e-16 1.29055 -1.84309
      vertex 10 1.29055 -1.84309
    endloop
  endfacet
  facet normal 0 -0.0174527 -0.999848
    outer loop
      vertex 4.09249e-16 1.29055 -1.84309
      vertex 10 -1.35408 -1.79693
      vertex 3.98998e-16 -1.35408 -1.79693
    endloop
  endfacet
  facet normal 0 0.945519 -0.325568
    outer loop
      vertex 10 1.29055 -1.84309
      vertex -1.46069e-16 2.15168 0.657836
      vertex 10 2.15168 0.657836
    endloop
  endfacet
  facet normal 0 0.945519 -0.325568
    outer loop
      vertex -1.46069e-16 2.15168 0.657836
      vertex 10 1.29055 -1.84309
      vertex 4.09249e-16 1.29055 -1.84309
    endloop
  endfacet
  facet normal 0 -0.956305 -0.292372
    outer loop
      vertex 3.98998e-16 -1.35408 -1.79693
      vertex 10 -2.12742 0.732528
      vertex -1.62654e-16 -2.12742 0.732528
    endloop
  endfacet
  facet normal 0 -0.956305 -0.292372
    outer loop
      vertex 10 -2.12742 0.732528
      vertex 3.98998e-16 -1.35408 -1.79693
      vertex 10 -1.35408 -1.79693
    endloop
  endfacet
  facet normal 1 0 0
    outer loop
      vertex 10 0.0392679 2.24966
      vertex 10 1.29055 -1.84309
      vertex 10 2.15168 0.657836
    endloop
  endfacet
  facet normal 1 0 0
    outer loop
      vertex 10 0.0392679 2.24966
      vertex 10 -1.35408 -1.79693
      vertex 10 1.29055 -1.84309
    endloop
  endfacet
  facet normal 1 0 -0
    outer loop
      vertex 10 -1.35408 -1.79693
      vertex 10 0.0392679 2.24966
      vertex 10 -2.12742 0.732528
    endloop
  endfacet
  facet normal -0 0.601815 0.798635
    outer loop
      vertex -1.46069e-16 2.15168 0.657836
      vertex 10 0.0392679 2.24966
      vertex 10 2.15168 0.657836
    endloop
  endfacet
  facet normal 0 0.601815 0.798635
    outer loop
      vertex 10 0.0392679 2.24966
      vertex -1.46069e-16 2.15168 0.657836
      vertex -4.99524e-16 0.0392679 2.24966
    endloop
  endfacet
  facet normal 0 -0.573576 0.819152
    outer loop
      vertex 10 0.0392679 2.24966
      vertex -1.62654e-16 -2.12742 0.732528
      vertex 10 -2.12742 0.732528
    endloop
  endfacet
  facet normal 0 -0.573576 0.819152
    outer loop
      vertex -1.62654e-16 -2.12742 0.732528
      vertex 10 0.0392679 2.24966
      vertex -4.99524e-16 0.0392679 2.24966
    endloop
  endfacet
endsolid OpenSCAD_Model
