solid OpenSCAD_Model
  facet normal 0.980785 0.19509 0
    outer loop
      vertex 0 5 5
      vertex -0.380602 6.91342 0
      vertex -0.380602 6.91342 5
    endloop
  endfacet
  facet normal 0.980785 0.19509 0
    outer loop
      vertex -0.380602 6.91342 0
      vertex 0 5 5
      vertex 0 5 0
    endloop
  endfacet
  facet normal -0.980785 0.195091 0
    outer loop
      vertex -10 5 0
      vertex -9.6194 6.91342 5
      vertex -9.6194 6.91342 0
    endloop
  endfacet
  facet normal -0.980785 0.195091 0
    outer loop
      vertex -9.6194 6.91342 5
      vertex -10 5 0
      vertex -10 5 5
    endloop
  endfacet
  facet normal 0.195091 0.980785 -0
    outer loop
      vertex -3.08658 9.6194 0
      vertex -5 10 5
      vertex -3.08658 9.6194 5
    endloop
  endfacet
  facet normal 0.195091 0.980785 0
    outer loop
      vertex -5 10 5
      vertex -3.08658 9.6194 0
      vertex -5 10 0
    endloop
  endfacet
  facet normal 0.83147 0.55557 0
    outer loop
      vertex -0.380602 6.91342 5
      vertex -1.46447 8.53553 0
      vertex -1.46447 8.53553 5
    endloop
  endfacet
  facet normal 0.83147 0.55557 0
    outer loop
      vertex -1.46447 8.53553 0
      vertex -0.380602 6.91342 5
      vertex -0.380602 6.91342 0
    endloop
  endfacet
  facet normal 0.55557 0.83147 -0
    outer loop
      vertex -1.46447 8.53553 0
      vertex -2.36429 9.13678 5
      vertex -1.46447 8.53553 5
    endloop
  endfacet
  facet normal 0.55557 0.83147 0
    outer loop
      vertex -2.36429 9.13678 5
      vertex -1.46447 8.53553 0
      vertex -2.36429 9.13678 0
    endloop
  endfacet
  facet normal 0.55557 0.83147 -0
    outer loop
      vertex -2.65869 9.33349 0
      vertex -3.08658 9.6194 5
      vertex -2.65869 9.33349 5
    endloop
  endfacet
  facet normal 0.55557 0.83147 0
    outer loop
      vertex -3.08658 9.6194 5
      vertex -2.65869 9.33349 0
      vertex -3.08658 9.6194 0
    endloop
  endfacet
  facet normal -0.19509 0.980785 0
    outer loop
      vertex -5 10 0
      vertex -5.67604 9.86553 5
      vertex -5 10 5
    endloop
  endfacet
  facet normal -0.19509 0.980785 0
    outer loop
      vertex -5.67604 9.86553 5
      vertex -5 10 0
      vertex -5.67604 9.86553 0
    endloop
  endfacet
  facet normal -0.555571 0.831469 0
    outer loop
      vertex -8.1672 8.78165 0
      vertex -8.53553 8.53553 5
      vertex -8.1672 8.78165 5
    endloop
  endfacet
  facet normal -0.555571 0.831469 0
    outer loop
      vertex -8.53553 8.53553 5
      vertex -8.1672 8.78165 0
      vertex -8.53553 8.53553 0
    endloop
  endfacet
  facet normal 0 0 1
    outer loop
      vertex -0.380602 6.91342 5
      vertex -3.30572 5.58209 5
      vertex -3.3 5.4 5
    endloop
  endfacet
  facet normal 0 0 1
    outer loop
      vertex -2.65869 9.33349 5
      vertex -3.32287 5.76347 5
      vertex -3.30572 5.58209 5
    endloop
  endfacet
  facet normal 0 0 1
    outer loop
      vertex -2.65869 9.33349 5
      vertex -3.35137 5.94341 5
      vertex -3.32287 5.76347 5
    endloop
  endfacet
  facet normal 0 0 1
    outer loop
      vertex -2.65869 9.33349 5
      vertex -3.39111 6.1212 5
      vertex -3.35137 5.94341 5
    endloop
  endfacet
  facet normal 0 0 1
    outer loop
      vertex -2.65869 9.33349 5
      vertex -3.44194 6.29615 5
      vertex -3.39111 6.1212 5
    endloop
  endfacet
  facet normal 0 0 1
    outer loop
      vertex -2.65869 9.33349 5
      vertex -3.50365 6.46756 5
      vertex -3.44194 6.29615 5
    endloop
  endfacet
  facet normal 0 0 1
    outer loop
      vertex -2.65869 9.33349 5
      vertex -3.576 6.63476 5
      vertex -3.50365 6.46756 5
    endloop
  endfacet
  facet normal 0 0 1
    outer loop
      vertex -2.65869 9.33349 5
      vertex -3.65871 6.79708 5
      vertex -3.576 6.63476 5
    endloop
  endfacet
  facet normal 0 0 1
    outer loop
      vertex -2.65869 9.33349 5
      vertex -3.75145 6.9539 5
      vertex -3.65871 6.79708 5
    endloop
  endfacet
  facet normal 0 0 1
    outer loop
      vertex -2.65869 9.33349 5
      vertex -3.85385 7.10458 5
      vertex -3.75145 6.9539 5
    endloop
  endfacet
  facet normal 0 0 1
    outer loop
      vertex -2.65869 9.33349 5
      vertex -3.96551 7.24853 5
      vertex -3.85385 7.10458 5
    endloop
  endfacet
  facet normal 0 0 1
    outer loop
      vertex -2.65869 9.33349 5
      vertex -4.08599 7.38519 5
      vertex -3.96551 7.24853 5
    endloop
  endfacet
  facet normal 0 0 1
    outer loop
      vertex -2.65869 9.33349 5
      vertex -4.21481 7.51401 5
      vertex -4.08599 7.38519 5
    endloop
  endfacet
  facet normal 0 0 1
    outer loop
      vertex -2.65869 9.33349 5
      vertex -4.35147 7.63449 5
      vertex -4.21481 7.51401 5
    endloop
  endfacet
  facet normal 0 0 1
    outer loop
      vertex -3.08658 9.6194 5
      vertex -4.49542 7.74615 5
      vertex -4.35147 7.63449 5
    endloop
  endfacet
  facet normal 0 0 1
    outer loop
      vertex -3.08658 9.6194 5
      vertex -4.6461 7.84855 5
      vertex -4.49542 7.74615 5
    endloop
  endfacet
  facet normal 0 0 1
    outer loop
      vertex -3.08658 9.6194 5
      vertex -4.80291 7.94129 5
      vertex -4.6461 7.84855 5
    endloop
  endfacet
  facet normal 0 0 1
    outer loop
      vertex -5 10 5
      vertex -4.80291 7.94129 5
      vertex -3.08658 9.6194 5
    endloop
  endfacet
  facet normal 0 0 1
    outer loop
      vertex -4.80291 7.94129 5
      vertex -5 10 5
      vertex -4.96524 8.024 5
    endloop
  endfacet
  facet normal 0 0 1
    outer loop
      vertex -5 10 5
      vertex -5.13244 8.09635 5
      vertex -4.96524 8.024 5
    endloop
  endfacet
  facet normal 0 0 1
    outer loop
      vertex -5 10 5
      vertex -5.30385 8.15806 5
      vertex -5.13244 8.09635 5
    endloop
  endfacet
  facet normal 0 0 1
    outer loop
      vertex -5 10 5
      vertex -5.4788 8.20889 5
      vertex -5.30385 8.15806 5
    endloop
  endfacet
  facet normal -0 0 1
    outer loop
      vertex -5.67604 9.86553 5
      vertex -5.4788 8.20889 5
      vertex -5 10 5
    endloop
  endfacet
  facet normal 0 0 1
    outer loop
      vertex -5.4788 8.20889 5
      vertex -5.67604 9.86553 5
      vertex -5.65659 8.24863 5
    endloop
  endfacet
  facet normal 0 0 1
    outer loop
      vertex -5.67604 9.86553 5
      vertex -5.83653 8.27713 5
      vertex -5.65659 8.24863 5
    endloop
  endfacet
  facet normal 0 0 1
    outer loop
      vertex -5.67604 9.86553 5
      vertex -6.01791 8.29428 5
      vertex -5.83653 8.27713 5
    endloop
  endfacet
  facet normal 0 0 1
    outer loop
      vertex -5.67604 9.86553 5
      vertex -6.2 8.3 5
      vertex -6.01791 8.29428 5
    endloop
  endfacet
  facet normal 0 0 1
    outer loop
      vertex -5.67604 9.86553 5
      vertex -6.38209 8.29428 5
      vertex -6.2 8.3 5
    endloop
  endfacet
  facet normal 0 0 1
    outer loop
      vertex -5.67604 9.86553 5
      vertex -6.56347 8.27713 5
      vertex -6.38209 8.29428 5
    endloop
  endfacet
  facet normal 0 0 1
    outer loop
      vertex -5.67604 9.86553 5
      vertex -6.74341 8.24863 5
      vertex -6.56347 8.27713 5
    endloop
  endfacet
  facet normal -0 0 1
    outer loop
      vertex -8.1672 8.78165 5
      vertex -6.74341 8.24863 5
      vertex -5.67604 9.86553 5
    endloop
  endfacet
  facet normal 0 0 1
    outer loop
      vertex -6.74341 8.24863 5
      vertex -8.1672 8.78165 5
      vertex -6.9212 8.20889 5
    endloop
  endfacet
  facet normal 0 0 1
    outer loop
      vertex -6.9212 8.20889 5
      vertex -8.1672 8.78165 5
      vertex -7.09615 8.15806 5
    endloop
  endfacet
  facet normal 0 0 1
    outer loop
      vertex -7.09615 8.15806 5
      vertex -8.1672 8.78165 5
      vertex -7.26756 8.09635 5
    endloop
  endfacet
  facet normal 0 0 1
    outer loop
      vertex -7.26756 8.09635 5
      vertex -8.1672 8.78165 5
      vertex -7.43476 8.024 5
    endloop
  endfacet
  facet normal 0 0 1
    outer loop
      vertex -7.43476 8.024 5
      vertex -8.1672 8.78165 5
      vertex -7.59708 7.94129 5
    endloop
  endfacet
  facet normal 0 0 1
    outer loop
      vertex -7.59708 7.94129 5
      vertex -8.1672 8.78165 5
      vertex -7.7539 7.84855 5
    endloop
  endfacet
  facet normal -0 0 1
    outer loop
      vertex -8.53553 8.53553 5
      vertex -7.7539 7.84855 5
      vertex -8.1672 8.78165 5
    endloop
  endfacet
  facet normal 0 0 1
    outer loop
      vertex -7.7539 7.84855 5
      vertex -8.53553 8.53553 5
      vertex -7.90458 7.74615 5
    endloop
  endfacet
  facet normal 0 0 1
    outer loop
      vertex -31.8838 14.4867 5
      vertex -8.1672 8.78165 5
      vertex -5.67604 9.86553 5
    endloop
  endfacet
  facet normal 0 0 1
    outer loop
      vertex -8.1672 8.78165 5
      vertex -31.8838 14.4867 5
      vertex -32.1442 13.0094 5
    endloop
  endfacet
  facet normal 0 0 1
    outer loop
      vertex -7.90458 7.74615 5
      vertex -8.53553 8.53553 5
      vertex -8.04853 7.63449 5
    endloop
  endfacet
  facet normal 0 0 1
    outer loop
      vertex -8.04853 7.63449 5
      vertex -8.53553 8.53553 5
      vertex -8.18519 7.51401 5
    endloop
  endfacet
  facet normal 0 0 1
    outer loop
      vertex -8.18519 7.51401 5
      vertex -8.53553 8.53553 5
      vertex -8.31401 7.38519 5
    endloop
  endfacet
  facet normal 0 0 1
    outer loop
      vertex -8.31401 7.38519 5
      vertex -8.53553 8.53553 5
      vertex -8.43449 7.24853 5
    endloop
  endfacet
  facet normal 0 0 1
    outer loop
      vertex -9.6194 6.91342 5
      vertex -8.43449 7.24853 5
      vertex -8.53553 8.53553 5
    endloop
  endfacet
  facet normal 0 0 1
    outer loop
      vertex -8.43449 7.24853 5
      vertex -9.6194 6.91342 5
      vertex -8.54615 7.10458 5
    endloop
  endfacet
  facet normal 0 0 1
    outer loop
      vertex -8.54615 7.10458 5
      vertex -9.6194 6.91342 5
      vertex -8.64855 6.9539 5
    endloop
  endfacet
  facet normal 0 0 1
    outer loop
      vertex -8.64855 6.9539 5
      vertex -9.6194 6.91342 5
      vertex -8.74129 6.79708 5
    endloop
  endfacet
  facet normal 0 0 1
    outer loop
      vertex -8.74129 6.79708 5
      vertex -9.6194 6.91342 5
      vertex -8.824 6.63476 5
    endloop
  endfacet
  facet normal 0 0 1
    outer loop
      vertex -8.824 6.63476 5
      vertex -9.6194 6.91342 5
      vertex -8.89635 6.46756 5
    endloop
  endfacet
  facet normal 0 0 1
    outer loop
      vertex -8.89635 6.46756 5
      vertex -9.6194 6.91342 5
      vertex -8.95806 6.29615 5
    endloop
  endfacet
  facet normal 0 0 1
    outer loop
      vertex -8.95806 6.29615 5
      vertex -9.6194 6.91342 5
      vertex -9.00889 6.1212 5
    endloop
  endfacet
  facet normal 0 0 1
    outer loop
      vertex -9.07713 5.76347 5
      vertex -10 5 5
      vertex -9.09428 5.58209 5
    endloop
  endfacet
  facet normal 0 0 1
    outer loop
      vertex -10 5 5
      vertex -9.07713 5.76347 5
      vertex -9.6194 6.91342 5
    endloop
  endfacet
  facet normal 0 0 1
    outer loop
      vertex -9.04863 5.94341 5
      vertex -9.6194 6.91342 5
      vertex -9.07713 5.76347 5
    endloop
  endfacet
  facet normal 0 0 1
    outer loop
      vertex -9.00889 6.1212 5
      vertex -9.6194 6.91342 5
      vertex -9.04863 5.94341 5
    endloop
  endfacet
  facet normal 0 0 1
    outer loop
      vertex -2.33953 9.27721 5
      vertex -2.65869 9.33349 5
      vertex -2.36429 9.13678 5
    endloop
  endfacet
  facet normal 0 0 1
    outer loop
      vertex -0.5 2.90789 5
      vertex -2.2 2 5
      vertex -2 1.10663 5
    endloop
  endfacet
  facet normal 0 0 1
    outer loop
      vertex -3.30572 5.58209 5
      vertex -1.46447 8.53553 5
      vertex -2.36429 9.13678 5
    endloop
  endfacet
  facet normal 0 0 1
    outer loop
      vertex -3.30572 5.58209 5
      vertex -2.36429 9.13678 5
      vertex -2.65869 9.33349 5
    endloop
  endfacet
  facet normal 0 0 1
    outer loop
      vertex -4.35147 7.63449 5
      vertex -2.65869 9.33349 5
      vertex -3.08658 9.6194 5
    endloop
  endfacet
  facet normal 0 0 1
    outer loop
      vertex -0.380602 6.91342 5
      vertex -3.3 5.4 5
      vertex -3.30572 5.21791 5
    endloop
  endfacet
  facet normal 0 0 1
    outer loop
      vertex -3.32287 5.03653 5
      vertex -0.380602 6.91342 5
      vertex -3.30572 5.21791 5
    endloop
  endfacet
  facet normal 0 0 1
    outer loop
      vertex -3.35137 4.85659 5
      vertex -0.380602 6.91342 5
      vertex -3.32287 5.03653 5
    endloop
  endfacet
  facet normal 0 0 1
    outer loop
      vertex -0.380602 6.91342 5
      vertex -3.35137 4.85659 5
      vertex -2.2 2 5
    endloop
  endfacet
  facet normal -0 0 1
    outer loop
      vertex -3.39111 4.6788 5
      vertex -2.2 2 5
      vertex -3.35137 4.85659 5
    endloop
  endfacet
  facet normal -0 0 1
    outer loop
      vertex -3.44194 4.50385 5
      vertex -2.2 2 5
      vertex -3.39111 4.6788 5
    endloop
  endfacet
  facet normal -0 0 1
    outer loop
      vertex -3.50365 4.33244 5
      vertex -2.2 2 5
      vertex -3.44194 4.50385 5
    endloop
  endfacet
  facet normal -0 0 1
    outer loop
      vertex -3.576 4.16524 5
      vertex -2.2 2 5
      vertex -3.50365 4.33244 5
    endloop
  endfacet
  facet normal -0 0 1
    outer loop
      vertex -3.65871 4.00291 5
      vertex -2.2 2 5
      vertex -3.576 4.16524 5
    endloop
  endfacet
  facet normal -0 0 1
    outer loop
      vertex -3.75145 3.8461 5
      vertex -2.2 2 5
      vertex -3.65871 4.00291 5
    endloop
  endfacet
  facet normal -0 0 1
    outer loop
      vertex -3.85385 3.69542 5
      vertex -2.2 2 5
      vertex -3.75145 3.8461 5
    endloop
  endfacet
  facet normal -0 0 1
    outer loop
      vertex -3.96551 3.55147 5
      vertex -2.2 2 5
      vertex -3.85385 3.69542 5
    endloop
  endfacet
  facet normal -0 0 1
    outer loop
      vertex -4.08599 3.41481 5
      vertex -2.2 2 5
      vertex -3.96551 3.55147 5
    endloop
  endfacet
  facet normal -0 0 1
    outer loop
      vertex -4.21481 3.28599 5
      vertex -2.2 2 5
      vertex -4.08599 3.41481 5
    endloop
  endfacet
  facet normal -0 0 1
    outer loop
      vertex -4.35147 3.16551 5
      vertex -2.2 2 5
      vertex -4.21481 3.28599 5
    endloop
  endfacet
  facet normal -0 0 1
    outer loop
      vertex -4.49542 3.05385 5
      vertex -2.2 2 5
      vertex -4.35147 3.16551 5
    endloop
  endfacet
  facet normal -0 0 1
    outer loop
      vertex -4.6461 2.95145 5
      vertex -2.2 2 5
      vertex -4.49542 3.05385 5
    endloop
  endfacet
  facet normal -0 0 1
    outer loop
      vertex -4.80291 2.85871 5
      vertex -2.2 2 5
      vertex -4.6461 2.95145 5
    endloop
  endfacet
  facet normal -0 0 1
    outer loop
      vertex -4.96524 2.776 5
      vertex -2.2 2 5
      vertex -4.80291 2.85871 5
    endloop
  endfacet
  facet normal -0 0 1
    outer loop
      vertex -5.13244 2.70365 5
      vertex -2.2 2 5
      vertex -4.96524 2.776 5
    endloop
  endfacet
  facet normal -0 0 1
    outer loop
      vertex -5.30385 2.64194 5
      vertex -2.2 2 5
      vertex -5.13244 2.70365 5
    endloop
  endfacet
  facet normal -0 0 1
    outer loop
      vertex -5.4788 2.59111 5
      vertex -2.2 2 5
      vertex -5.30385 2.64194 5
    endloop
  endfacet
  facet normal -0 0 1
    outer loop
      vertex -5.65659 2.55137 5
      vertex -2.2 2 5
      vertex -5.4788 2.59111 5
    endloop
  endfacet
  facet normal 0 0 1
    outer loop
      vertex -7 2 5
      vertex -5.65659 2.55137 5
      vertex -5.83653 2.52287 5
    endloop
  endfacet
  facet normal 0 0 1
    outer loop
      vertex -7 2 5
      vertex -5.83653 2.52287 5
      vertex -6.01791 2.50572 5
    endloop
  endfacet
  facet normal 0 0 1
    outer loop
      vertex -7 2 5
      vertex -6.01791 2.50572 5
      vertex -6.2 2.5 5
    endloop
  endfacet
  facet normal 0 0 1
    outer loop
      vertex -7 2 5
      vertex -6.2 2.5 5
      vertex -6.38209 2.50572 5
    endloop
  endfacet
  facet normal 0 0 1
    outer loop
      vertex -7 2 5
      vertex -6.38209 2.50572 5
      vertex -6.56347 2.52287 5
    endloop
  endfacet
  facet normal 0 0 1
    outer loop
      vertex -5.65659 2.55137 5
      vertex -7 2 5
      vertex -2.2 2 5
    endloop
  endfacet
  facet normal 0 0 1
    outer loop
      vertex -6.74341 2.55137 5
      vertex -7 2 5
      vertex -6.56347 2.52287 5
    endloop
  endfacet
  facet normal 0 0 1
    outer loop
      vertex -6.9212 2.59111 5
      vertex -7 2 5
      vertex -6.74341 2.55137 5
    endloop
  endfacet
  facet normal 0 0 1
    outer loop
      vertex -7 2 5
      vertex -6.9212 2.59111 5
      vertex -7 2.614 5
    endloop
  endfacet
  facet normal 0 0 1
    outer loop
      vertex -2.2 2 5
      vertex 0 5 5
      vertex -0.380602 6.91342 5
    endloop
  endfacet
  facet normal 0 0 1
    outer loop
      vertex -2.2 2 5
      vertex -0.380602 3.08658 5
      vertex 0 5 5
    endloop
  endfacet
  facet normal 0 0 1
    outer loop
      vertex -3.30572 5.58209 5
      vertex -0.380602 6.91342 5
      vertex -1.46447 8.53553 5
    endloop
  endfacet
  facet normal 0 0 1
    outer loop
      vertex -0.380602 3.08658 5
      vertex -2.2 2 5
      vertex -0.5 2.90789 5
    endloop
  endfacet
  facet normal 0 0 1
    outer loop
      vertex -0.5 2.90789 5
      vertex -2 1.10663 5
      vertex -0.5 -18 5
    endloop
  endfacet
  facet normal 0 0 1
    outer loop
      vertex -0.5 -18 5
      vertex -2 1.10663 5
      vertex -2 -18 5
    endloop
  endfacet
  facet normal 0 0 1
    outer loop
      vertex -2 1.10663 5
      vertex -2.2 2 5
      vertex -2.2 0.972997 5
    endloop
  endfacet
  facet normal 0 0 1
    outer loop
      vertex -9.09428 5.58209 5
      vertex -10 5 5
      vertex -9.1 5.4 5
    endloop
  endfacet
  facet normal 0 0 1
    outer loop
      vertex -9.1 5.4 5
      vertex -10 5 5
      vertex -9.09428 5.21791 5
    endloop
  endfacet
  facet normal 0 0 1
    outer loop
      vertex -9.09428 5.21791 5
      vertex -10 5 5
      vertex -9.07713 5.03653 5
    endloop
  endfacet
  facet normal 0 0 1
    outer loop
      vertex -9.07713 5.03653 5
      vertex -10 5 5
      vertex -9.07135 5 5
    endloop
  endfacet
  facet normal -0.83147 0.55557 0
    outer loop
      vertex -9.6194 6.91342 0
      vertex -8.53553 8.53553 5
      vertex -8.53553 8.53553 0
    endloop
  endfacet
  facet normal -0.83147 0.55557 0
    outer loop
      vertex -8.53553 8.53553 5
      vertex -9.6194 6.91342 0
      vertex -9.6194 6.91342 5
    endloop
  endfacet
  facet normal 0.55557 -0.83147 0
    outer loop
      vertex -2.2 0.972997 0
      vertex -2 1.10663 5
      vertex -2.2 0.972997 5
    endloop
  endfacet
  facet normal 0.55557 -0.83147 0
    outer loop
      vertex -2 1.10663 5
      vertex -2.2 0.972997 0
      vertex -2 1.10663 0
    endloop
  endfacet
  facet normal 0.83147 -0.55557 0
    outer loop
      vertex -0.5 2.90789 5
      vertex -0.380602 3.08658 0
      vertex -0.380602 3.08658 5
    endloop
  endfacet
  facet normal 0.83147 -0.55557 0
    outer loop
      vertex -0.380602 3.08658 0
      vertex -0.5 2.90789 5
      vertex -0.5 2.90789 0
    endloop
  endfacet
  facet normal 0.980785 -0.19509 0
    outer loop
      vertex -0.380602 3.08658 5
      vertex 0 5 0
      vertex 0 5 5
    endloop
  endfacet
  facet normal 0.980785 -0.19509 0
    outer loop
      vertex 0 5 0
      vertex -0.380602 3.08658 5
      vertex -0.380602 3.08658 0
    endloop
  endfacet
  facet normal 0 0 -1
    outer loop
      vertex -10 5 0
      vertex -9.1 5.4 0
      vertex -9.09428 5.21791 0
    endloop
  endfacet
  facet normal 0 0 -1
    outer loop
      vertex -10 5 0
      vertex -9.09428 5.21791 0
      vertex -9.07713 5.03653 0
    endloop
  endfacet
  facet normal 0 0 -1
    outer loop
      vertex -10 5 0
      vertex -9.07713 5.03653 0
      vertex -9.07135 5 0
    endloop
  endfacet
  facet normal -0 0 -1
    outer loop
      vertex -9.1 5.4 0
      vertex -10 5 0
      vertex -9.6194 6.91342 0
    endloop
  endfacet
  facet normal 0 0 -1
    outer loop
      vertex -8.53553 8.53553 0
      vertex -8.04853 7.63449 0
      vertex -8.18519 7.51401 0
    endloop
  endfacet
  facet normal 0 0 -1
    outer loop
      vertex -8.53553 8.53553 0
      vertex -8.18519 7.51401 0
      vertex -8.31401 7.38519 0
    endloop
  endfacet
  facet normal 0 0 -1
    outer loop
      vertex -8.53553 8.53553 0
      vertex -8.31401 7.38519 0
      vertex -8.43449 7.24853 0
    endloop
  endfacet
  facet normal 0 0 -1
    outer loop
      vertex -8.04853 7.63449 0
      vertex -8.53553 8.53553 0
      vertex -8.1672 8.78165 0
    endloop
  endfacet
  facet normal 0 0 -1
    outer loop
      vertex -9.6194 6.91342 0
      vertex -8.43449 7.24853 0
      vertex -8.54615 7.10458 0
    endloop
  endfacet
  facet normal 0 0 -1
    outer loop
      vertex -9.6194 6.91342 0
      vertex -8.54615 7.10458 0
      vertex -8.64855 6.9539 0
    endloop
  endfacet
  facet normal 0 0 -1
    outer loop
      vertex -9.6194 6.91342 0
      vertex -8.64855 6.9539 0
      vertex -8.74129 6.79708 0
    endloop
  endfacet
  facet normal 0 0 -1
    outer loop
      vertex -9.6194 6.91342 0
      vertex -8.74129 6.79708 0
      vertex -8.824 6.63476 0
    endloop
  endfacet
  facet normal 0 0 -1
    outer loop
      vertex -9.6194 6.91342 0
      vertex -8.824 6.63476 0
      vertex -8.89635 6.46756 0
    endloop
  endfacet
  facet normal 0 0 -1
    outer loop
      vertex -9.6194 6.91342 0
      vertex -8.89635 6.46756 0
      vertex -8.95806 6.29615 0
    endloop
  endfacet
  facet normal 0 0 -1
    outer loop
      vertex -9.6194 6.91342 0
      vertex -8.95806 6.29615 0
      vertex -9.00889 6.1212 0
    endloop
  endfacet
  facet normal 0 0 -1
    outer loop
      vertex -9.6194 6.91342 0
      vertex -9.00889 6.1212 0
      vertex -9.04863 5.94341 0
    endloop
  endfacet
  facet normal -0 0 -1
    outer loop
      vertex -8.43449 7.24853 0
      vertex -9.6194 6.91342 0
      vertex -8.53553 8.53553 0
    endloop
  endfacet
  facet normal 0 0 -1
    outer loop
      vertex -9.07713 5.76347 0
      vertex -9.6194 6.91342 0
      vertex -9.04863 5.94341 0
    endloop
  endfacet
  facet normal 0 0 -1
    outer loop
      vertex -9.09428 5.58209 0
      vertex -9.6194 6.91342 0
      vertex -9.07713 5.76347 0
    endloop
  endfacet
  facet normal 0 0 -1
    outer loop
      vertex -9.6194 6.91342 0
      vertex -9.09428 5.58209 0
      vertex -9.1 5.4 0
    endloop
  endfacet
  facet normal 0 0 -1
    outer loop
      vertex -2 1.10663 0
      vertex -0.5 2.90789 0
      vertex -0.5 -18 0
    endloop
  endfacet
  facet normal 0 0 -1
    outer loop
      vertex -2 1.10663 0
      vertex -0.5 -18 0
      vertex -2 -18 0
    endloop
  endfacet
  facet normal 0 0 -1
    outer loop
      vertex -2.2 2 0
      vertex -0.5 2.90789 0
      vertex -2 1.10663 0
    endloop
  endfacet
  facet normal 0 0 -1
    outer loop
      vertex -2.2 2 0
      vertex -2 1.10663 0
      vertex -2.2 0.972997 0
    endloop
  endfacet
  facet normal 0 0 -1
    outer loop
      vertex -3.50365 4.33244 0
      vertex -0.5 2.90789 0
      vertex -2.2 2 0
    endloop
  endfacet
  facet normal 0 -0 -1
    outer loop
      vertex -3.3 5.4 0
      vertex -0.5 2.90789 0
      vertex -3.30572 5.21791 0
    endloop
  endfacet
  facet normal 0 0 -1
    outer loop
      vertex -3.32287 5.76347 0
      vertex -1.46447 8.53553 0
      vertex -3.30572 5.58209 0
    endloop
  endfacet
  facet normal 0 0 -1
    outer loop
      vertex -3.35137 5.94341 0
      vertex -1.46447 8.53553 0
      vertex -3.32287 5.76347 0
    endloop
  endfacet
  facet normal 0 0 -1
    outer loop
      vertex -0.5 2.90789 0
      vertex -3.30572 5.58209 0
      vertex -1.46447 8.53553 0
    endloop
  endfacet
  facet normal 0 0 -1
    outer loop
      vertex -3.30572 5.58209 0
      vertex -0.5 2.90789 0
      vertex -3.3 5.4 0
    endloop
  endfacet
  facet normal 0 0 -1
    outer loop
      vertex -0.5 2.90789 0
      vertex -3.32287 5.03653 0
      vertex -3.30572 5.21791 0
    endloop
  endfacet
  facet normal 0 0 -1
    outer loop
      vertex -0.5 2.90789 0
      vertex -3.35137 4.85659 0
      vertex -3.32287 5.03653 0
    endloop
  endfacet
  facet normal 0 0 -1
    outer loop
      vertex -0.5 2.90789 0
      vertex -3.39111 4.6788 0
      vertex -3.35137 4.85659 0
    endloop
  endfacet
  facet normal 0 0 -1
    outer loop
      vertex -0.5 2.90789 0
      vertex -3.44194 4.50385 0
      vertex -3.39111 4.6788 0
    endloop
  endfacet
  facet normal 0 0 -1
    outer loop
      vertex -0.5 2.90789 0
      vertex -3.50365 4.33244 0
      vertex -3.44194 4.50385 0
    endloop
  endfacet
  facet normal 0 0 -1
    outer loop
      vertex -2.2 2 0
      vertex -3.576 4.16524 0
      vertex -3.50365 4.33244 0
    endloop
  endfacet
  facet normal 0 0 -1
    outer loop
      vertex -2.2 2 0
      vertex -3.65871 4.00291 0
      vertex -3.576 4.16524 0
    endloop
  endfacet
  facet normal 0 0 -1
    outer loop
      vertex -2.2 2 0
      vertex -3.75145 3.8461 0
      vertex -3.65871 4.00291 0
    endloop
  endfacet
  facet normal 0 0 -1
    outer loop
      vertex -2.2 2 0
      vertex -3.85385 3.69542 0
      vertex -3.75145 3.8461 0
    endloop
  endfacet
  facet normal 0 0 -1
    outer loop
      vertex -2.2 2 0
      vertex -3.96551 3.55147 0
      vertex -3.85385 3.69542 0
    endloop
  endfacet
  facet normal 0 0 -1
    outer loop
      vertex -2.2 2 0
      vertex -4.08599 3.41481 0
      vertex -3.96551 3.55147 0
    endloop
  endfacet
  facet normal 0 0 -1
    outer loop
      vertex -2.2 2 0
      vertex -4.21481 3.28599 0
      vertex -4.08599 3.41481 0
    endloop
  endfacet
  facet normal 0 0 -1
    outer loop
      vertex -2.2 2 0
      vertex -4.35147 3.16551 0
      vertex -4.21481 3.28599 0
    endloop
  endfacet
  facet normal 0 0 -1
    outer loop
      vertex -2.2 2 0
      vertex -4.49542 3.05385 0
      vertex -4.35147 3.16551 0
    endloop
  endfacet
  facet normal 0 0 -1
    outer loop
      vertex -2.2 2 0
      vertex -4.6461 2.95145 0
      vertex -4.49542 3.05385 0
    endloop
  endfacet
  facet normal 0 0 -1
    outer loop
      vertex -2.2 2 0
      vertex -4.80291 2.85871 0
      vertex -4.6461 2.95145 0
    endloop
  endfacet
  facet normal 0 0 -1
    outer loop
      vertex -2.2 2 0
      vertex -4.96524 2.776 0
      vertex -4.80291 2.85871 0
    endloop
  endfacet
  facet normal 0 0 -1
    outer loop
      vertex -2.2 2 0
      vertex -5.13244 2.70365 0
      vertex -4.96524 2.776 0
    endloop
  endfacet
  facet normal 0 0 -1
    outer loop
      vertex -2.2 2 0
      vertex -5.30385 2.64194 0
      vertex -5.13244 2.70365 0
    endloop
  endfacet
  facet normal 0 0 -1
    outer loop
      vertex -2.2 2 0
      vertex -5.4788 2.59111 0
      vertex -5.30385 2.64194 0
    endloop
  endfacet
  facet normal 0 0 -1
    outer loop
      vertex -2.2 2 0
      vertex -5.65659 2.55137 0
      vertex -5.4788 2.59111 0
    endloop
  endfacet
  facet normal 0 0 -1
    outer loop
      vertex -7 2 0
      vertex -5.65659 2.55137 0
      vertex -2.2 2 0
    endloop
  endfacet
  facet normal 0 0 -1
    outer loop
      vertex -5.65659 2.55137 0
      vertex -7 2 0
      vertex -5.83653 2.52287 0
    endloop
  endfacet
  facet normal 0 0 -1
    outer loop
      vertex -5.83653 2.52287 0
      vertex -7 2 0
      vertex -6.01791 2.50572 0
    endloop
  endfacet
  facet normal 0 0 -1
    outer loop
      vertex -6.01791 2.50572 0
      vertex -7 2 0
      vertex -6.2 2.5 0
    endloop
  endfacet
  facet normal -0 0 -1
    outer loop
      vertex -6.2 2.5 0
      vertex -7 2 0
      vertex -6.38209 2.50572 0
    endloop
  endfacet
  facet normal -0 0 -1
    outer loop
      vertex -6.38209 2.50572 0
      vertex -7 2 0
      vertex -6.56347 2.52287 0
    endloop
  endfacet
  facet normal 0 0 -1
    outer loop
      vertex -7 2 0
      vertex -6.74341 2.55137 0
      vertex -6.56347 2.52287 0
    endloop
  endfacet
  facet normal 0 0 -1
    outer loop
      vertex -7 2 0
      vertex -6.9212 2.59111 0
      vertex -6.74341 2.55137 0
    endloop
  endfacet
  facet normal -0 0 -1
    outer loop
      vertex -6.9212 2.59111 0
      vertex -7 2 0
      vertex -7 2.614 0
    endloop
  endfacet
  facet normal 0 0 -1
    outer loop
      vertex -0.5 2.90789 0
      vertex 0 5 0
      vertex -0.380602 3.08658 0
    endloop
  endfacet
  facet normal -0 0 -1
    outer loop
      vertex 0 5 0
      vertex -0.5 2.90789 0
      vertex -0.380602 6.91342 0
    endloop
  endfacet
  facet normal -0 0 -1
    outer loop
      vertex -0.380602 6.91342 0
      vertex -0.5 2.90789 0
      vertex -1.46447 8.53553 0
    endloop
  endfacet
  facet normal -0 0 -1
    outer loop
      vertex -2.33953 9.27721 0
      vertex -2.36429 9.13678 0
      vertex -2.65869 9.33349 0
    endloop
  endfacet
  facet normal 0 0 -1
    outer loop
      vertex -3.39111 6.1212 0
      vertex -1.46447 8.53553 0
      vertex -3.35137 5.94341 0
    endloop
  endfacet
  facet normal 0 0 -1
    outer loop
      vertex -3.44194 6.29615 0
      vertex -1.46447 8.53553 0
      vertex -3.39111 6.1212 0
    endloop
  endfacet
  facet normal 0 0 -1
    outer loop
      vertex -3.50365 6.46756 0
      vertex -1.46447 8.53553 0
      vertex -3.44194 6.29615 0
    endloop
  endfacet
  facet normal 0 0 -1
    outer loop
      vertex -3.576 6.63476 0
      vertex -1.46447 8.53553 0
      vertex -3.50365 6.46756 0
    endloop
  endfacet
  facet normal 0 0 -1
    outer loop
      vertex -3.65871 6.79708 0
      vertex -1.46447 8.53553 0
      vertex -3.576 6.63476 0
    endloop
  endfacet
  facet normal 0 0 -1
    outer loop
      vertex -3.75145 6.9539 0
      vertex -1.46447 8.53553 0
      vertex -3.65871 6.79708 0
    endloop
  endfacet
  facet normal -0 0 -1
    outer loop
      vertex -1.46447 8.53553 0
      vertex -3.75145 6.9539 0
      vertex -2.36429 9.13678 0
    endloop
  endfacet
  facet normal 0 0 -1
    outer loop
      vertex -3.85385 7.10458 0
      vertex -2.36429 9.13678 0
      vertex -3.75145 6.9539 0
    endloop
  endfacet
  facet normal 0 0 -1
    outer loop
      vertex -3.96551 7.24853 0
      vertex -2.36429 9.13678 0
      vertex -3.85385 7.10458 0
    endloop
  endfacet
  facet normal 0 0 -1
    outer loop
      vertex -4.08599 7.38519 0
      vertex -2.36429 9.13678 0
      vertex -3.96551 7.24853 0
    endloop
  endfacet
  facet normal -0 0 -1
    outer loop
      vertex -2.36429 9.13678 0
      vertex -4.08599 7.38519 0
      vertex -2.65869 9.33349 0
    endloop
  endfacet
  facet normal 0 0 -1
    outer loop
      vertex -4.21481 7.51401 0
      vertex -2.65869 9.33349 0
      vertex -4.08599 7.38519 0
    endloop
  endfacet
  facet normal 0 0 -1
    outer loop
      vertex -4.35147 7.63449 0
      vertex -2.65869 9.33349 0
      vertex -4.21481 7.51401 0
    endloop
  endfacet
  facet normal -0 0 -1
    outer loop
      vertex -2.65869 9.33349 0
      vertex -4.35147 7.63449 0
      vertex -3.08658 9.6194 0
    endloop
  endfacet
  facet normal 0 0 -1
    outer loop
      vertex -4.49542 7.74615 0
      vertex -3.08658 9.6194 0
      vertex -4.35147 7.63449 0
    endloop
  endfacet
  facet normal 0 0 -1
    outer loop
      vertex -4.6461 7.84855 0
      vertex -3.08658 9.6194 0
      vertex -4.49542 7.74615 0
    endloop
  endfacet
  facet normal 0 0 -1
    outer loop
      vertex -4.80291 7.94129 0
      vertex -3.08658 9.6194 0
      vertex -4.6461 7.84855 0
    endloop
  endfacet
  facet normal 0 0 -1
    outer loop
      vertex -5 10 0
      vertex -4.80291 7.94129 0
      vertex -4.96524 8.024 0
    endloop
  endfacet
  facet normal 0 0 -1
    outer loop
      vertex -4.80291 7.94129 0
      vertex -5 10 0
      vertex -3.08658 9.6194 0
    endloop
  endfacet
  facet normal 0 0 -1
    outer loop
      vertex -5.13244 8.09635 0
      vertex -5 10 0
      vertex -4.96524 8.024 0
    endloop
  endfacet
  facet normal 0 0 -1
    outer loop
      vertex -5.30385 8.15806 0
      vertex -5 10 0
      vertex -5.13244 8.09635 0
    endloop
  endfacet
  facet normal 0 0 -1
    outer loop
      vertex -5.4788 8.20889 0
      vertex -5 10 0
      vertex -5.30385 8.15806 0
    endloop
  endfacet
  facet normal 0 0 -1
    outer loop
      vertex -5.67604 9.86553 0
      vertex -5.4788 8.20889 0
      vertex -5.65659 8.24863 0
    endloop
  endfacet
  facet normal 0 0 -1
    outer loop
      vertex -5.4788 8.20889 0
      vertex -5.67604 9.86553 0
      vertex -5 10 0
    endloop
  endfacet
  facet normal 0 0 -1
    outer loop
      vertex -5.83653 8.27713 0
      vertex -5.67604 9.86553 0
      vertex -5.65659 8.24863 0
    endloop
  endfacet
  facet normal 0 0 -1
    outer loop
      vertex -6.01791 8.29428 0
      vertex -5.67604 9.86553 0
      vertex -5.83653 8.27713 0
    endloop
  endfacet
  facet normal 0 0 -1
    outer loop
      vertex -6.2 8.3 0
      vertex -5.67604 9.86553 0
      vertex -6.01791 8.29428 0
    endloop
  endfacet
  facet normal 0 0 -1
    outer loop
      vertex -6.38209 8.29428 0
      vertex -5.67604 9.86553 0
      vertex -6.2 8.3 0
    endloop
  endfacet
  facet normal 0 0 -1
    outer loop
      vertex -6.56347 8.27713 0
      vertex -5.67604 9.86553 0
      vertex -6.38209 8.29428 0
    endloop
  endfacet
  facet normal 0 0 -1
    outer loop
      vertex -6.74341 8.24863 0
      vertex -5.67604 9.86553 0
      vertex -6.56347 8.27713 0
    endloop
  endfacet
  facet normal 0 0 -1
    outer loop
      vertex -8.1672 8.78165 0
      vertex -6.74341 8.24863 0
      vertex -6.9212 8.20889 0
    endloop
  endfacet
  facet normal 0 0 -1
    outer loop
      vertex -8.1672 8.78165 0
      vertex -6.9212 8.20889 0
      vertex -7.09615 8.15806 0
    endloop
  endfacet
  facet normal 0 0 -1
    outer loop
      vertex -8.1672 8.78165 0
      vertex -7.09615 8.15806 0
      vertex -7.26756 8.09635 0
    endloop
  endfacet
  facet normal 0 0 -1
    outer loop
      vertex -8.1672 8.78165 0
      vertex -7.26756 8.09635 0
      vertex -7.43476 8.024 0
    endloop
  endfacet
  facet normal 0 0 -1
    outer loop
      vertex -8.1672 8.78165 0
      vertex -7.43476 8.024 0
      vertex -7.59708 7.94129 0
    endloop
  endfacet
  facet normal 0 0 -1
    outer loop
      vertex -8.1672 8.78165 0
      vertex -7.59708 7.94129 0
      vertex -7.7539 7.84855 0
    endloop
  endfacet
  facet normal 0 0 -1
    outer loop
      vertex -8.1672 8.78165 0
      vertex -7.7539 7.84855 0
      vertex -7.90458 7.74615 0
    endloop
  endfacet
  facet normal 0 0 -1
    outer loop
      vertex -8.1672 8.78165 0
      vertex -7.90458 7.74615 0
      vertex -8.04853 7.63449 0
    endloop
  endfacet
  facet normal 0 0 -1
    outer loop
      vertex -6.74341 8.24863 0
      vertex -8.1672 8.78165 0
      vertex -5.67604 9.86553 0
    endloop
  endfacet
  facet normal 0 0 -1
    outer loop
      vertex -27.2202 12.1412 0
      vertex -5.67604 9.86553 0
      vertex -8.1672 8.78165 0
    endloop
  endfacet
  facet normal 0 0 -1
    outer loop
      vertex -27.2202 12.1412 0
      vertex -31.8838 14.4867 0
      vertex -5.67604 9.86553 0
    endloop
  endfacet
  facet normal 0 0 -1
    outer loop
      vertex -33.0125 8.08541 0
      vertex -27.2202 12.1412 0
      vertex -28.0884 7.21717 0
    endloop
  endfacet
  facet normal -0 0 -1
    outer loop
      vertex -27.2202 12.1412 0
      vertex -33.0125 8.08541 0
      vertex -31.8838 14.4867 0
    endloop
  endfacet
  facet normal -1 0 0
    outer loop
      vertex -2 -18 0
      vertex -2 1.10663 5
      vertex -2 1.10663 0
    endloop
  endfacet
  facet normal -1 -0 0
    outer loop
      vertex -2 1.10663 5
      vertex -2 -18 0
      vertex -2 -18 5
    endloop
  endfacet
  facet normal 1 -0 0
    outer loop
      vertex -0.5 -18 5
      vertex -0.5 2.90789 0
      vertex -0.5 2.90789 5
    endloop
  endfacet
  facet normal 1 0 0
    outer loop
      vertex -0.5 2.90789 0
      vertex -0.5 -18 5
      vertex -0.5 -18 0
    endloop
  endfacet
  facet normal 0 -1 0
    outer loop
      vertex -2 -18 0
      vertex -0.5 -18 5
      vertex -2 -18 5
    endloop
  endfacet
  facet normal 0 -1 -0
    outer loop
      vertex -0.5 -18 5
      vertex -2 -18 0
      vertex -0.5 -18 0
    endloop
  endfacet
  facet normal -1 0 0
    outer loop
      vertex -2.2 0.972997 0
      vertex -2.2 2 5
      vertex -2.2 2 0
    endloop
  endfacet
  facet normal -1 -0 0
    outer loop
      vertex -2.2 2 5
      vertex -2.2 0.972997 0
      vertex -2.2 0.972997 5
    endloop
  endfacet
  facet normal 0 -1 0
    outer loop
      vertex -7 2 0
      vertex -2.2 2 5
      vertex -7 2 5
    endloop
  endfacet
  facet normal 0 -1 -0
    outer loop
      vertex -2.2 2 5
      vertex -7 2 0
      vertex -2.2 2 0
    endloop
  endfacet
  facet normal -1 0 0
    outer loop
      vertex -7 2 0
      vertex -7 2.614 5
      vertex -7 2.614 0
    endloop
  endfacet
  facet normal -1 -0 0
    outer loop
      vertex -7 2.614 5
      vertex -7 2 0
      vertex -7 2 5
    endloop
  endfacet
  facet normal 0 -1 0
    outer loop
      vertex -10 5 0
      vertex -9.07135 5 5
      vertex -10 5 5
    endloop
  endfacet
  facet normal 0 -1 -0
    outer loop
      vertex -9.07135 5 5
      vertex -10 5 0
      vertex -9.07135 5 0
    endloop
  endfacet
  facet normal -0.999506 -0.0314135 0
    outer loop
      vertex -3.3 5.4 0
      vertex -3.30572 5.58209 5
      vertex -3.30572 5.58209 0
    endloop
  endfacet
  facet normal -0.999506 -0.0314135 0
    outer loop
      vertex -3.30572 5.58209 5
      vertex -3.3 5.4 0
      vertex -3.3 5.4 5
    endloop
  endfacet
  facet normal 0.999507 0.0314083 0
    outer loop
      vertex -9.09428 5.21791 5
      vertex -9.1 5.4 0
      vertex -9.1 5.4 5
    endloop
  endfacet
  facet normal 0.999507 0.0314083 0
    outer loop
      vertex -9.1 5.4 0
      vertex -9.09428 5.21791 5
      vertex -9.09428 5.21791 0
    endloop
  endfacet
  facet normal 0.0314083 -0.999507 0
    outer loop
      vertex -6.38209 8.29428 0
      vertex -6.2 8.3 5
      vertex -6.38209 8.29428 5
    endloop
  endfacet
  facet normal 0.0314083 -0.999507 0
    outer loop
      vertex -6.2 8.3 5
      vertex -6.38209 8.29428 0
      vertex -6.2 8.3 0
    endloop
  endfacet
  facet normal -0.661313 -0.75011 0
    outer loop
      vertex -4.35147 7.63449 0
      vertex -4.21481 7.51401 5
      vertex -4.35147 7.63449 5
    endloop
  endfacet
  facet normal -0.661313 -0.75011 -0
    outer loop
      vertex -4.21481 7.51401 5
      vertex -4.35147 7.63449 0
      vertex -4.21481 7.51401 0
    endloop
  endfacet
  facet normal 0.75011 -0.661313 0
    outer loop
      vertex -8.43449 7.24853 5
      vertex -8.31401 7.38519 0
      vertex -8.31401 7.38519 5
    endloop
  endfacet
  facet normal 0.75011 -0.661313 0
    outer loop
      vertex -8.31401 7.38519 0
      vertex -8.43449 7.24853 5
      vertex -8.43449 7.24853 0
    endloop
  endfacet
  facet normal -0.917755 -0.397147 0
    outer loop
      vertex -3.50365 6.46756 0
      vertex -3.576 6.63476 5
      vertex -3.576 6.63476 0
    endloop
  endfacet
  facet normal -0.917755 -0.397147 0
    outer loop
      vertex -3.576 6.63476 5
      vertex -3.50365 6.46756 0
      vertex -3.50365 6.46756 5
    endloop
  endfacet
  facet normal -0.707107 -0.707107 0
    outer loop
      vertex -4.08599 7.38519 0
      vertex -4.21481 7.51401 5
      vertex -4.21481 7.51401 0
    endloop
  endfacet
  facet normal -0.707107 -0.707107 0
    outer loop
      vertex -4.21481 7.51401 5
      vertex -4.08599 7.38519 0
      vertex -4.08599 7.38519 5
    endloop
  endfacet
  facet normal -0.397147 -0.917755 0
    outer loop
      vertex -5.13244 8.09635 0
      vertex -4.96524 8.024 5
      vertex -5.13244 8.09635 5
    endloop
  endfacet
  facet normal -0.397147 -0.917755 -0
    outer loop
      vertex -4.96524 8.024 5
      vertex -5.13244 8.09635 0
      vertex -4.96524 8.024 0
    endloop
  endfacet
  facet normal 0.891005 -0.453993 0
    outer loop
      vertex -8.824 6.63476 5
      vertex -8.74129 6.79708 0
      vertex -8.74129 6.79708 5
    endloop
  endfacet
  facet normal 0.891005 -0.453993 0
    outer loop
      vertex -8.74129 6.79708 0
      vertex -8.824 6.63476 5
      vertex -8.824 6.63476 0
    endloop
  endfacet
  facet normal 0.707107 -0.707107 0
    outer loop
      vertex -8.31401 7.38519 5
      vertex -8.18519 7.51401 0
      vertex -8.18519 7.51401 5
    endloop
  endfacet
  facet normal 0.707107 -0.707107 0
    outer loop
      vertex -8.18519 7.51401 0
      vertex -8.31401 7.38519 5
      vertex -8.31401 7.38519 0
    endloop
  endfacet
  facet normal 0.156435 -0.987688 0
    outer loop
      vertex -6.74341 8.24863 0
      vertex -6.56347 8.27713 5
      vertex -6.74341 8.24863 5
    endloop
  endfacet
  facet normal 0.156435 -0.987688 0
    outer loop
      vertex -6.56347 8.27713 5
      vertex -6.74341 8.24863 0
      vertex -6.56347 8.27713 0
    endloop
  endfacet
  facet normal -0.891006 0.453991 0
    outer loop
      vertex -3.65871 4.00291 0
      vertex -3.576 4.16524 5
      vertex -3.576 4.16524 0
    endloop
  endfacet
  facet normal -0.891006 0.453991 0
    outer loop
      vertex -3.576 4.16524 5
      vertex -3.65871 4.00291 0
      vertex -3.65871 4.00291 5
    endloop
  endfacet
  facet normal -0.27899 0.960294 0
    outer loop
      vertex -5.30385 2.64194 0
      vertex -5.4788 2.59111 5
      vertex -5.30385 2.64194 5
    endloop
  endfacet
  facet normal -0.27899 0.960294 0
    outer loop
      vertex -5.4788 2.59111 5
      vertex -5.30385 2.64194 0
      vertex -5.4788 2.59111 0
    endloop
  endfacet
  facet normal -0.707107 0.707107 0
    outer loop
      vertex -4.21481 3.28599 0
      vertex -4.08599 3.41481 5
      vertex -4.08599 3.41481 0
    endloop
  endfacet
  facet normal -0.707107 0.707107 0
    outer loop
      vertex -4.08599 3.41481 5
      vertex -4.21481 3.28599 0
      vertex -4.21481 3.28599 5
    endloop
  endfacet
  facet normal -0.995562 -0.0941048 0
    outer loop
      vertex -3.30572 5.58209 0
      vertex -3.32287 5.76347 5
      vertex -3.32287 5.76347 0
    endloop
  endfacet
  facet normal -0.995562 -0.0941048 0
    outer loop
      vertex -3.32287 5.76347 5
      vertex -3.30572 5.58209 0
      vertex -3.30572 5.58209 5
    endloop
  endfacet
  facet normal -0.960294 -0.27899 0
    outer loop
      vertex -3.39111 6.1212 0
      vertex -3.44194 6.29615 5
      vertex -3.44194 6.29615 0
    endloop
  endfacet
  facet normal -0.960294 -0.27899 0
    outer loop
      vertex -3.44194 6.29615 5
      vertex -3.39111 6.1212 0
      vertex -3.39111 6.1212 5
    endloop
  endfacet
  facet normal -0.827081 -0.562083 0
    outer loop
      vertex -3.75145 6.9539 0
      vertex -3.85385 7.10458 5
      vertex -3.85385 7.10458 0
    endloop
  endfacet
  facet normal -0.827081 -0.562083 0
    outer loop
      vertex -3.85385 7.10458 5
      vertex -3.75145 6.9539 0
      vertex -3.75145 6.9539 5
    endloop
  endfacet
  facet normal -0.75011 -0.661313 0
    outer loop
      vertex -3.96551 7.24853 0
      vertex -4.08599 7.38519 5
      vertex -4.08599 7.38519 0
    endloop
  endfacet
  facet normal -0.75011 -0.661313 0
    outer loop
      vertex -4.08599 7.38519 5
      vertex -3.96551 7.24853 0
      vertex -3.96551 7.24853 5
    endloop
  endfacet
  facet normal -0.156434 -0.987688 0
    outer loop
      vertex -5.83653 8.27713 0
      vertex -5.65659 8.24863 5
      vertex -5.83653 8.27713 5
    endloop
  endfacet
  facet normal -0.156434 -0.987688 -0
    outer loop
      vertex -5.65659 8.24863 5
      vertex -5.83653 8.27713 0
      vertex -5.65659 8.24863 0
    endloop
  endfacet
  facet normal -0.27899 -0.960294 0
    outer loop
      vertex -5.4788 8.20889 0
      vertex -5.30385 8.15806 5
      vertex -5.4788 8.20889 5
    endloop
  endfacet
  facet normal -0.27899 -0.960294 -0
    outer loop
      vertex -5.30385 8.15806 5
      vertex -5.4788 8.20889 0
      vertex -5.30385 8.15806 0
    endloop
  endfacet
  facet normal -0.09411 -0.995562 0
    outer loop
      vertex -6.01791 8.29428 0
      vertex -5.83653 8.27713 5
      vertex -6.01791 8.29428 5
    endloop
  endfacet
  facet normal -0.09411 -0.995562 -0
    outer loop
      vertex -5.83653 8.27713 5
      vertex -6.01791 8.29428 0
      vertex -5.83653 8.27713 0
    endloop
  endfacet
  facet normal -0.612907 -0.790155 0
    outer loop
      vertex -4.49542 7.74615 0
      vertex -4.35147 7.63449 5
      vertex -4.49542 7.74615 5
    endloop
  endfacet
  facet normal -0.612907 -0.790155 -0
    outer loop
      vertex -4.35147 7.63449 5
      vertex -4.49542 7.74615 0
      vertex -4.35147 7.63449 0
    endloop
  endfacet
  facet normal 0.790155 -0.612907 0
    outer loop
      vertex -8.54615 7.10458 5
      vertex -8.43449 7.24853 0
      vertex -8.43449 7.24853 5
    endloop
  endfacet
  facet normal 0.790155 -0.612907 0
    outer loop
      vertex -8.43449 7.24853 0
      vertex -8.54615 7.10458 5
      vertex -8.54615 7.10458 0
    endloop
  endfacet
  facet normal 0.987688 -0.156435 0
    outer loop
      vertex -9.07713 5.76347 5
      vertex -9.04863 5.94341 0
      vertex -9.04863 5.94341 5
    endloop
  endfacet
  facet normal 0.987688 -0.156435 0
    outer loop
      vertex -9.04863 5.94341 0
      vertex -9.07713 5.76347 5
      vertex -9.07713 5.76347 0
    endloop
  endfacet
  facet normal 0.960293 -0.278995 0
    outer loop
      vertex -9.00889 6.1212 5
      vertex -8.95806 6.29615 0
      vertex -8.95806 6.29615 5
    endloop
  endfacet
  facet normal 0.960293 -0.278995 0
    outer loop
      vertex -8.95806 6.29615 0
      vertex -9.00889 6.1212 5
      vertex -9.00889 6.1212 0
    endloop
  endfacet
  facet normal 0.995562 -0.09411 0
    outer loop
      vertex -9.09428 5.58209 5
      vertex -9.07713 5.76347 0
      vertex -9.07713 5.76347 5
    endloop
  endfacet
  facet normal 0.995562 -0.09411 0
    outer loop
      vertex -9.07713 5.76347 0
      vertex -9.09428 5.58209 5
      vertex -9.09428 5.58209 0
    endloop
  endfacet
  facet normal 0.562086 -0.827079 0
    outer loop
      vertex -7.90458 7.74615 0
      vertex -7.7539 7.84855 5
      vertex -7.90458 7.74615 5
    endloop
  endfacet
  facet normal 0.562086 -0.827079 0
    outer loop
      vertex -7.7539 7.84855 5
      vertex -7.90458 7.74615 0
      vertex -7.7539 7.84855 0
    endloop
  endfacet
  facet normal 0.661311 -0.750112 0
    outer loop
      vertex -8.18519 7.51401 0
      vertex -8.04853 7.63449 5
      vertex -8.18519 7.51401 5
    endloop
  endfacet
  facet normal 0.661311 -0.750112 0
    outer loop
      vertex -8.04853 7.63449 5
      vertex -8.18519 7.51401 0
      vertex -8.04853 7.63449 0
    endloop
  endfacet
  facet normal 0.27899 -0.960294 0
    outer loop
      vertex -7.09615 8.15806 0
      vertex -6.9212 8.20889 5
      vertex -7.09615 8.15806 5
    endloop
  endfacet
  facet normal 0.27899 -0.960294 0
    outer loop
      vertex -6.9212 8.20889 5
      vertex -7.09615 8.15806 0
      vertex -6.9212 8.20889 0
    endloop
  endfacet
  facet normal 0.338738 -0.940881 0
    outer loop
      vertex -7.26756 8.09635 0
      vertex -7.09615 8.15806 5
      vertex -7.26756 8.09635 5
    endloop
  endfacet
  facet normal 0.338738 -0.940881 0
    outer loop
      vertex -7.09615 8.15806 5
      vertex -7.26756 8.09635 0
      vertex -7.09615 8.15806 0
    endloop
  endfacet
  facet normal 0.09411 -0.995562 0
    outer loop
      vertex -6.56347 8.27713 0
      vertex -6.38209 8.29428 5
      vertex -6.56347 8.27713 5
    endloop
  endfacet
  facet normal 0.09411 -0.995562 0
    outer loop
      vertex -6.38209 8.29428 5
      vertex -6.56347 8.27713 0
      vertex -6.38209 8.29428 0
    endloop
  endfacet
  facet normal -0.790155 0.612907 0
    outer loop
      vertex -3.96551 3.55147 0
      vertex -3.85385 3.69542 5
      vertex -3.85385 3.69542 0
    endloop
  endfacet
  facet normal -0.790155 0.612907 0
    outer loop
      vertex -3.85385 3.69542 5
      vertex -3.96551 3.55147 0
      vertex -3.96551 3.55147 5
    endloop
  endfacet
  facet normal 0.09411 0.995562 -0
    outer loop
      vertex -6.38209 2.50572 0
      vertex -6.56347 2.52287 5
      vertex -6.38209 2.50572 5
    endloop
  endfacet
  facet normal 0.09411 0.995562 0
    outer loop
      vertex -6.56347 2.52287 5
      vertex -6.38209 2.50572 0
      vertex -6.56347 2.52287 0
    endloop
  endfacet
  facet normal 0.995562 0.09411 0
    outer loop
      vertex -9.07713 5.03653 5
      vertex -9.09428 5.21791 0
      vertex -9.09428 5.21791 5
    endloop
  endfacet
  facet normal 0.995562 0.09411 0
    outer loop
      vertex -9.09428 5.21791 0
      vertex -9.07713 5.03653 5
      vertex -9.07713 5.03653 0
    endloop
  endfacet
  facet normal -0.975916 -0.218146 0
    outer loop
      vertex -3.35137 5.94341 0
      vertex -3.39111 6.1212 5
      vertex -3.39111 6.1212 0
    endloop
  endfacet
  facet normal -0.975916 -0.218146 0
    outer loop
      vertex -3.39111 6.1212 5
      vertex -3.35137 5.94341 0
      vertex -3.35137 5.94341 5
    endloop
  endfacet
  facet normal -0.987688 -0.156435 0
    outer loop
      vertex -3.32287 5.76347 0
      vertex -3.35137 5.94341 5
      vertex -3.35137 5.94341 0
    endloop
  endfacet
  facet normal -0.987688 -0.156435 0
    outer loop
      vertex -3.35137 5.94341 5
      vertex -3.32287 5.76347 0
      vertex -3.32287 5.76347 5
    endloop
  endfacet
  facet normal -0.94088 -0.338739 0
    outer loop
      vertex -3.44194 6.29615 0
      vertex -3.50365 6.46756 5
      vertex -3.50365 6.46756 0
    endloop
  endfacet
  facet normal -0.94088 -0.338739 0
    outer loop
      vertex -3.50365 6.46756 5
      vertex -3.44194 6.29615 0
      vertex -3.44194 6.29615 5
    endloop
  endfacet
  facet normal -0.790155 -0.612907 0
    outer loop
      vertex -3.85385 7.10458 0
      vertex -3.96551 7.24853 5
      vertex -3.96551 7.24853 0
    endloop
  endfacet
  facet normal -0.790155 -0.612907 0
    outer loop
      vertex -3.96551 7.24853 5
      vertex -3.85385 7.10458 0
      vertex -3.85385 7.10458 5
    endloop
  endfacet
  facet normal -0.860743 -0.509039 0
    outer loop
      vertex -3.65871 6.79708 0
      vertex -3.75145 6.9539 5
      vertex -3.75145 6.9539 0
    endloop
  endfacet
  facet normal -0.860743 -0.509039 0
    outer loop
      vertex -3.75145 6.9539 5
      vertex -3.65871 6.79708 0
      vertex -3.65871 6.79708 5
    endloop
  endfacet
  facet normal -0.891005 -0.453993 0
    outer loop
      vertex -3.576 6.63476 0
      vertex -3.65871 6.79708 5
      vertex -3.65871 6.79708 0
    endloop
  endfacet
  facet normal -0.891005 -0.453993 0
    outer loop
      vertex -3.65871 6.79708 5
      vertex -3.576 6.63476 0
      vertex -3.576 6.63476 5
    endloop
  endfacet
  facet normal -0.218142 -0.975917 0
    outer loop
      vertex -5.65659 8.24863 0
      vertex -5.4788 8.20889 5
      vertex -5.65659 8.24863 5
    endloop
  endfacet
  facet normal -0.218142 -0.975917 -0
    outer loop
      vertex -5.4788 8.20889 5
      vertex -5.65659 8.24863 0
      vertex -5.4788 8.20889 0
    endloop
  endfacet
  facet normal -0.0314083 -0.999507 0
    outer loop
      vertex -6.2 8.3 0
      vertex -6.01791 8.29428 5
      vertex -6.2 8.3 5
    endloop
  endfacet
  facet normal -0.0314083 -0.999507 -0
    outer loop
      vertex -6.01791 8.29428 5
      vertex -6.2 8.3 0
      vertex -6.01791 8.29428 0
    endloop
  endfacet
  facet normal -0.338739 -0.94088 0
    outer loop
      vertex -5.30385 8.15806 0
      vertex -5.13244 8.09635 5
      vertex -5.30385 8.15806 5
    endloop
  endfacet
  facet normal -0.338739 -0.94088 -0
    outer loop
      vertex -5.13244 8.09635 5
      vertex -5.30385 8.15806 0
      vertex -5.13244 8.09635 0
    endloop
  endfacet
  facet normal -0.453991 -0.891006 0
    outer loop
      vertex -4.96524 8.024 0
      vertex -4.80291 7.94129 5
      vertex -4.96524 8.024 5
    endloop
  endfacet
  facet normal -0.453991 -0.891006 -0
    outer loop
      vertex -4.80291 7.94129 5
      vertex -4.96524 8.024 0
      vertex -4.80291 7.94129 0
    endloop
  endfacet
  facet normal -0.509041 -0.860742 0
    outer loop
      vertex -4.80291 7.94129 0
      vertex -4.6461 7.84855 5
      vertex -4.80291 7.94129 5
    endloop
  endfacet
  facet normal -0.509041 -0.860742 -0
    outer loop
      vertex -4.6461 7.84855 5
      vertex -4.80291 7.94129 0
      vertex -4.6461 7.84855 0
    endloop
  endfacet
  facet normal -0.562083 -0.827081 0
    outer loop
      vertex -4.6461 7.84855 0
      vertex -4.49542 7.74615 5
      vertex -4.6461 7.84855 5
    endloop
  endfacet
  facet normal -0.562083 -0.827081 -0
    outer loop
      vertex -4.49542 7.74615 5
      vertex -4.6461 7.84855 0
      vertex -4.49542 7.74615 0
    endloop
  endfacet
  facet normal 0.94088 -0.338739 0
    outer loop
      vertex -8.95806 6.29615 5
      vertex -8.89635 6.46756 0
      vertex -8.89635 6.46756 5
    endloop
  endfacet
  facet normal 0.94088 -0.338739 0
    outer loop
      vertex -8.89635 6.46756 0
      vertex -8.95806 6.29615 5
      vertex -8.95806 6.29615 0
    endloop
  endfacet
  facet normal 0.917757 -0.397143 0
    outer loop
      vertex -8.89635 6.46756 5
      vertex -8.824 6.63476 0
      vertex -8.824 6.63476 5
    endloop
  endfacet
  facet normal 0.917757 -0.397143 0
    outer loop
      vertex -8.824 6.63476 0
      vertex -8.89635 6.46756 5
      vertex -8.89635 6.46756 0
    endloop
  endfacet
  facet normal 0.975917 -0.218141 0
    outer loop
      vertex -9.04863 5.94341 5
      vertex -9.00889 6.1212 0
      vertex -9.00889 6.1212 5
    endloop
  endfacet
  facet normal 0.975917 -0.218141 0
    outer loop
      vertex -9.00889 6.1212 0
      vertex -9.04863 5.94341 5
      vertex -9.04863 5.94341 0
    endloop
  endfacet
  facet normal 0.999507 -0.0314083 0
    outer loop
      vertex -9.1 5.4 5
      vertex -9.09428 5.58209 0
      vertex -9.09428 5.58209 5
    endloop
  endfacet
  facet normal 0.999507 -0.0314083 0
    outer loop
      vertex -9.09428 5.58209 0
      vertex -9.1 5.4 5
      vertex -9.1 5.4 0
    endloop
  endfacet
  facet normal 0.453991 -0.891006 0
    outer loop
      vertex -7.59708 7.94129 0
      vertex -7.43476 8.024 5
      vertex -7.59708 7.94129 5
    endloop
  endfacet
  facet normal 0.453991 -0.891006 0
    outer loop
      vertex -7.43476 8.024 5
      vertex -7.59708 7.94129 0
      vertex -7.43476 8.024 0
    endloop
  endfacet
  facet normal 0.509039 -0.860743 0
    outer loop
      vertex -7.7539 7.84855 0
      vertex -7.59708 7.94129 5
      vertex -7.7539 7.84855 5
    endloop
  endfacet
  facet normal 0.509039 -0.860743 0
    outer loop
      vertex -7.59708 7.94129 5
      vertex -7.7539 7.84855 0
      vertex -7.59708 7.94129 0
    endloop
  endfacet
  facet normal 0.612907 -0.790155 0
    outer loop
      vertex -8.04853 7.63449 0
      vertex -7.90458 7.74615 5
      vertex -8.04853 7.63449 5
    endloop
  endfacet
  facet normal 0.612907 -0.790155 0
    outer loop
      vertex -7.90458 7.74615 5
      vertex -8.04853 7.63449 0
      vertex -7.90458 7.74615 0
    endloop
  endfacet
  facet normal 0.397149 -0.917754 0
    outer loop
      vertex -7.43476 8.024 0
      vertex -7.26756 8.09635 5
      vertex -7.43476 8.024 5
    endloop
  endfacet
  facet normal 0.397149 -0.917754 0
    outer loop
      vertex -7.26756 8.09635 5
      vertex -7.43476 8.024 0
      vertex -7.26756 8.09635 0
    endloop
  endfacet
  facet normal 0.218142 -0.975917 0
    outer loop
      vertex -6.9212 8.20889 0
      vertex -6.74341 8.24863 5
      vertex -6.9212 8.20889 5
    endloop
  endfacet
  facet normal 0.218142 -0.975917 0
    outer loop
      vertex -6.74341 8.24863 5
      vertex -6.9212 8.20889 0
      vertex -6.74341 8.24863 0
    endloop
  endfacet
  facet normal -0.09411 0.995562 0
    outer loop
      vertex -5.83653 2.52287 0
      vertex -6.01791 2.50572 5
      vertex -5.83653 2.52287 5
    endloop
  endfacet
  facet normal -0.09411 0.995562 0
    outer loop
      vertex -6.01791 2.50572 5
      vertex -5.83653 2.52287 0
      vertex -6.01791 2.50572 0
    endloop
  endfacet
  facet normal -0.218142 0.975917 0
    outer loop
      vertex -5.4788 2.59111 0
      vertex -5.65659 2.55137 5
      vertex -5.4788 2.59111 5
    endloop
  endfacet
  facet normal -0.218142 0.975917 0
    outer loop
      vertex -5.65659 2.55137 5
      vertex -5.4788 2.59111 0
      vertex -5.65659 2.55137 0
    endloop
  endfacet
  facet normal -0.338739 0.94088 0
    outer loop
      vertex -5.13244 2.70365 0
      vertex -5.30385 2.64194 5
      vertex -5.13244 2.70365 5
    endloop
  endfacet
  facet normal -0.338739 0.94088 0
    outer loop
      vertex -5.30385 2.64194 5
      vertex -5.13244 2.70365 0
      vertex -5.30385 2.64194 0
    endloop
  endfacet
  facet normal -0.612907 0.790155 0
    outer loop
      vertex -4.35147 3.16551 0
      vertex -4.49542 3.05385 5
      vertex -4.35147 3.16551 5
    endloop
  endfacet
  facet normal -0.612907 0.790155 0
    outer loop
      vertex -4.49542 3.05385 5
      vertex -4.35147 3.16551 0
      vertex -4.49542 3.05385 0
    endloop
  endfacet
  facet normal -0.562083 0.827081 0
    outer loop
      vertex -4.49542 3.05385 0
      vertex -4.6461 2.95145 5
      vertex -4.49542 3.05385 5
    endloop
  endfacet
  facet normal -0.562083 0.827081 0
    outer loop
      vertex -4.6461 2.95145 5
      vertex -4.49542 3.05385 0
      vertex -4.6461 2.95145 0
    endloop
  endfacet
  facet normal -0.453991 0.891006 0
    outer loop
      vertex -4.80291 2.85871 0
      vertex -4.96524 2.776 5
      vertex -4.80291 2.85871 5
    endloop
  endfacet
  facet normal -0.453991 0.891006 0
    outer loop
      vertex -4.96524 2.776 5
      vertex -4.80291 2.85871 0
      vertex -4.96524 2.776 0
    endloop
  endfacet
  facet normal -0.827081 0.562083 0
    outer loop
      vertex -3.85385 3.69542 0
      vertex -3.75145 3.8461 5
      vertex -3.75145 3.8461 0
    endloop
  endfacet
  facet normal -0.827081 0.562083 0
    outer loop
      vertex -3.75145 3.8461 5
      vertex -3.85385 3.69542 0
      vertex -3.85385 3.69542 5
    endloop
  endfacet
  facet normal -0.917755 0.397147 0
    outer loop
      vertex -3.576 4.16524 0
      vertex -3.50365 4.33244 5
      vertex -3.50365 4.33244 0
    endloop
  endfacet
  facet normal -0.917755 0.397147 0
    outer loop
      vertex -3.50365 4.33244 5
      vertex -3.576 4.16524 0
      vertex -3.576 4.16524 5
    endloop
  endfacet
  facet normal -0.987688 0.156435 0
    outer loop
      vertex -3.35137 4.85659 0
      vertex -3.32287 5.03653 5
      vertex -3.32287 5.03653 0
    endloop
  endfacet
  facet normal -0.987688 0.156435 0
    outer loop
      vertex -3.32287 5.03653 5
      vertex -3.35137 4.85659 0
      vertex -3.35137 4.85659 5
    endloop
  endfacet
  facet normal -0.960294 0.27899 0
    outer loop
      vertex -3.44194 4.50385 0
      vertex -3.39111 4.6788 5
      vertex -3.39111 4.6788 0
    endloop
  endfacet
  facet normal -0.960294 0.27899 0
    outer loop
      vertex -3.39111 4.6788 5
      vertex -3.44194 4.50385 0
      vertex -3.44194 4.50385 5
    endloop
  endfacet
  facet normal 0.156435 0.987688 -0
    outer loop
      vertex -6.56347 2.52287 0
      vertex -6.74341 2.55137 5
      vertex -6.56347 2.52287 5
    endloop
  endfacet
  facet normal 0.156435 0.987688 0
    outer loop
      vertex -6.74341 2.55137 5
      vertex -6.56347 2.52287 0
      vertex -6.74341 2.55137 0
    endloop
  endfacet
  facet normal 0.218142 0.975917 -0
    outer loop
      vertex -6.74341 2.55137 0
      vertex -6.9212 2.59111 5
      vertex -6.74341 2.55137 5
    endloop
  endfacet
  facet normal 0.218142 0.975917 0
    outer loop
      vertex -6.9212 2.59111 5
      vertex -6.74341 2.55137 0
      vertex -6.9212 2.59111 0
    endloop
  endfacet
  facet normal 0.0314083 0.999507 -0
    outer loop
      vertex -6.2 2.5 0
      vertex -6.38209 2.50572 5
      vertex -6.2 2.5 5
    endloop
  endfacet
  facet normal 0.0314083 0.999507 0
    outer loop
      vertex -6.38209 2.50572 5
      vertex -6.2 2.5 0
      vertex -6.38209 2.50572 0
    endloop
  endfacet
  facet normal 0.98769 0.156425 0
    outer loop
      vertex -9.07135 5 5
      vertex -9.07713 5.03653 0
      vertex -9.07713 5.03653 5
    endloop
  endfacet
  facet normal 0.98769 0.156425 0
    outer loop
      vertex -9.07713 5.03653 0
      vertex -9.07135 5 5
      vertex -9.07135 5 0
    endloop
  endfacet
  facet normal 0.860741 -0.509043 0
    outer loop
      vertex -8.74129 6.79708 5
      vertex -8.64855 6.9539 0
      vertex -8.64855 6.9539 5
    endloop
  endfacet
  facet normal 0.860741 -0.509043 0
    outer loop
      vertex -8.64855 6.9539 0
      vertex -8.74129 6.79708 5
      vertex -8.74129 6.79708 0
    endloop
  endfacet
  facet normal 0.827083 -0.56208 0
    outer loop
      vertex -8.64855 6.9539 5
      vertex -8.54615 7.10458 0
      vertex -8.54615 7.10458 5
    endloop
  endfacet
  facet normal 0.827083 -0.56208 0
    outer loop
      vertex -8.54615 7.10458 0
      vertex -8.64855 6.9539 5
      vertex -8.64855 6.9539 0
    endloop
  endfacet
  facet normal -0.156434 0.987688 0
    outer loop
      vertex -5.65659 2.55137 0
      vertex -5.83653 2.52287 5
      vertex -5.65659 2.55137 5
    endloop
  endfacet
  facet normal -0.156434 0.987688 0
    outer loop
      vertex -5.83653 2.52287 5
      vertex -5.65659 2.55137 0
      vertex -5.83653 2.52287 0
    endloop
  endfacet
  facet normal -0.397147 0.917755 0
    outer loop
      vertex -4.96524 2.776 0
      vertex -5.13244 2.70365 5
      vertex -4.96524 2.776 5
    endloop
  endfacet
  facet normal -0.397147 0.917755 0
    outer loop
      vertex -5.13244 2.70365 5
      vertex -4.96524 2.776 0
      vertex -5.13244 2.70365 0
    endloop
  endfacet
  facet normal -0.75011 0.661313 0
    outer loop
      vertex -4.08599 3.41481 0
      vertex -3.96551 3.55147 5
      vertex -3.96551 3.55147 0
    endloop
  endfacet
  facet normal -0.75011 0.661313 0
    outer loop
      vertex -3.96551 3.55147 5
      vertex -4.08599 3.41481 0
      vertex -4.08599 3.41481 5
    endloop
  endfacet
  facet normal -0.661313 0.75011 0
    outer loop
      vertex -4.21481 3.28599 0
      vertex -4.35147 3.16551 5
      vertex -4.21481 3.28599 5
    endloop
  endfacet
  facet normal -0.661313 0.75011 0
    outer loop
      vertex -4.35147 3.16551 5
      vertex -4.21481 3.28599 0
      vertex -4.35147 3.16551 0
    endloop
  endfacet
  facet normal -0.509041 0.860742 0
    outer loop
      vertex -4.6461 2.95145 0
      vertex -4.80291 2.85871 5
      vertex -4.6461 2.95145 5
    endloop
  endfacet
  facet normal -0.509041 0.860742 0
    outer loop
      vertex -4.80291 2.85871 5
      vertex -4.6461 2.95145 0
      vertex -4.80291 2.85871 0
    endloop
  endfacet
  facet normal -0.860742 0.509041 0
    outer loop
      vertex -3.75145 3.8461 0
      vertex -3.65871 4.00291 5
      vertex -3.65871 4.00291 0
    endloop
  endfacet
  facet normal -0.860742 0.509041 0
    outer loop
      vertex -3.65871 4.00291 5
      vertex -3.75145 3.8461 0
      vertex -3.75145 3.8461 5
    endloop
  endfacet
  facet normal -0.94088 0.338739 0
    outer loop
      vertex -3.50365 4.33244 0
      vertex -3.44194 4.50385 5
      vertex -3.44194 4.50385 0
    endloop
  endfacet
  facet normal -0.94088 0.338739 0
    outer loop
      vertex -3.44194 4.50385 5
      vertex -3.50365 4.33244 0
      vertex -3.50365 4.33244 5
    endloop
  endfacet
  facet normal -0.995562 0.0941048 0
    outer loop
      vertex -3.32287 5.03653 0
      vertex -3.30572 5.21791 5
      vertex -3.30572 5.21791 0
    endloop
  endfacet
  facet normal -0.995562 0.0941048 0
    outer loop
      vertex -3.30572 5.21791 5
      vertex -3.32287 5.03653 0
      vertex -3.32287 5.03653 5
    endloop
  endfacet
  facet normal -0.975916 0.218146 0
    outer loop
      vertex -3.39111 4.6788 0
      vertex -3.35137 4.85659 5
      vertex -3.35137 4.85659 0
    endloop
  endfacet
  facet normal -0.975916 0.218146 0
    outer loop
      vertex -3.35137 4.85659 5
      vertex -3.39111 4.6788 0
      vertex -3.39111 4.6788 5
    endloop
  endfacet
  facet normal 0.278989 0.960294 -0
    outer loop
      vertex -6.9212 2.59111 0
      vertex -7 2.614 5
      vertex -6.9212 2.59111 5
    endloop
  endfacet
  facet normal 0.278989 0.960294 0
    outer loop
      vertex -7 2.614 5
      vertex -6.9212 2.59111 0
      vertex -7 2.614 0
    endloop
  endfacet
  facet normal -0.0314083 0.999507 0
    outer loop
      vertex -6.01791 2.50572 0
      vertex -6.2 2.5 5
      vertex -6.01791 2.50572 5
    endloop
  endfacet
  facet normal -0.0314083 0.999507 0
    outer loop
      vertex -6.2 2.5 5
      vertex -6.01791 2.50572 0
      vertex -6.2 2.5 0
    endloop
  endfacet
  facet normal -0.999506 0.0314135 0
    outer loop
      vertex -3.30572 5.21791 0
      vertex -3.3 5.4 5
      vertex -3.3 5.4 0
    endloop
  endfacet
  facet normal -0.999506 0.0314135 0
    outer loop
      vertex -3.3 5.4 5
      vertex -3.30572 5.21791 0
      vertex -3.30572 5.21791 5
    endloop
  endfacet
  facet normal -0.173648 -0.984808 0
    outer loop
      vertex -27.2202 12.1412 2
      vertex -32.1442 13.0094 5
      vertex -32.1442 13.0094 2
    endloop
  endfacet
  facet normal -0.173648 -0.984808 -1.96171e-07
    outer loop
      vertex -32.1442 13.0094 5
      vertex -27.2202 12.1412 2
      vertex -8.1672 8.78165 5
    endloop
  endfacet
  facet normal -0.173648 -0.984808 0
    outer loop
      vertex -8.1672 8.78165 0
      vertex -27.2202 12.1412 2
      vertex -27.2202 12.1412 0
    endloop
  endfacet
  facet normal -0.173648 -0.984808 0
    outer loop
      vertex -27.2202 12.1412 2
      vertex -8.1672 8.78165 0
      vertex -8.1672 8.78165 5
    endloop
  endfacet
  facet normal 0.17365 0.984807 -0
    outer loop
      vertex -2.33953 9.27721 0
      vertex -2.65869 9.33349 5
      vertex -2.33953 9.27721 5
    endloop
  endfacet
  facet normal 0.17365 0.984807 0
    outer loop
      vertex -2.65869 9.33349 5
      vertex -2.33953 9.27721 0
      vertex -2.65869 9.33349 0
    endloop
  endfacet
  facet normal 0.173648 0.984808 -0
    outer loop
      vertex -5.67604 9.86553 0
      vertex -31.8838 14.4867 5
      vertex -5.67604 9.86553 5
    endloop
  endfacet
  facet normal 0.173648 0.984808 0
    outer loop
      vertex -31.8838 14.4867 5
      vertex -5.67604 9.86553 0
      vertex -31.8838 14.4867 0
    endloop
  endfacet
  facet normal 0.984808 -0.173647 0
    outer loop
      vertex -2.36429 9.13678 5
      vertex -2.33953 9.27721 0
      vertex -2.33953 9.27721 5
    endloop
  endfacet
  facet normal 0.984808 -0.173647 0
    outer loop
      vertex -2.33953 9.27721 0
      vertex -2.36429 9.13678 5
      vertex -2.36429 9.13678 0
    endloop
  endfacet
  facet normal -0.984808 0.173649 0
    outer loop
      vertex -31.8838 14.4867 0
      vertex -32.1442 13.0094 2
      vertex -31.8838 14.4867 5
    endloop
  endfacet
  facet normal -0.984808 0.173648 -4.14362e-07
    outer loop
      vertex -33.0125 8.08541 0
      vertex -32.1442 13.0094 2
      vertex -31.8838 14.4867 0
    endloop
  endfacet
  facet normal -0.984808 0.173648 0
    outer loop
      vertex -32.1442 13.0094 2
      vertex -33.0125 8.08541 0
      vertex -33.0125 8.08541 2
    endloop
  endfacet
  facet normal -0.984808 0.173649 0
    outer loop
      vertex -31.8838 14.4867 5
      vertex -32.1442 13.0094 2
      vertex -32.1442 13.0094 5
    endloop
  endfacet
  facet normal -0.173648 -0.984808 0
    outer loop
      vertex -33.0125 8.08541 0
      vertex -28.0884 7.21717 2
      vertex -33.0125 8.08541 2
    endloop
  endfacet
  facet normal -0.173648 -0.984808 -0
    outer loop
      vertex -28.0884 7.21717 2
      vertex -33.0125 8.08541 0
      vertex -28.0884 7.21717 0
    endloop
  endfacet
  facet normal 0 0 1
    outer loop
      vertex -32.1442 13.0094 2
      vertex -28.0884 7.21717 2
      vertex -27.2202 12.1412 2
    endloop
  endfacet
  facet normal 0 0 1
    outer loop
      vertex -28.0884 7.21717 2
      vertex -32.1442 13.0094 2
      vertex -33.0125 8.08541 2
    endloop
  endfacet
  facet normal 0.984808 -0.173648 0
    outer loop
      vertex -28.0884 7.21717 2
      vertex -27.2202 12.1412 0
      vertex -27.2202 12.1412 2
    endloop
  endfacet
  facet normal 0.984808 -0.173648 0
    outer loop
      vertex -27.2202 12.1412 0
      vertex -28.0884 7.21717 2
      vertex -28.0884 7.21717 0
    endloop
  endfacet
endsolid OpenSCAD_Model
