solid OpenSCAD_Model
  facet normal 0 -1 0
    outer loop
      vertex -7 2 0
      vertex -1.10663 2 5
      vertex -7 2 5
    endloop
  endfacet
  facet normal 0 -1 -0
    outer loop
      vertex -1.10663 2 5
      vertex -7 2 0
      vertex -1.10663 2 0
    endloop
  endfacet
  facet normal 0 0 -1
    outer loop
      vertex -8.53553 8.53553 0
      vertex -7.79708 7.74129 0
      vertex -7.9539 7.64855 0
    endloop
  endfacet
  facet normal 0 0 -1
    outer loop
      vertex -8.53553 8.53553 0
      vertex -7.9539 7.64855 0
      vertex -8.10458 7.54615 0
    endloop
  endfacet
  facet normal 0 0 -1
    outer loop
      vertex -8.53553 8.53553 0
      vertex -8.10458 7.54615 0
      vertex -8.24853 7.43449 0
    endloop
  endfacet
  facet normal 0 0 -1
    outer loop
      vertex -8.53553 8.53553 0
      vertex -8.24853 7.43449 0
      vertex -8.38519 7.31401 0
    endloop
  endfacet
  facet normal 0 0 -1
    outer loop
      vertex -8.53553 8.53553 0
      vertex -8.38519 7.31401 0
      vertex -8.51401 7.18519 0
    endloop
  endfacet
  facet normal 0 0 -1
    outer loop
      vertex -7.79708 7.74129 0
      vertex -8.53553 8.53553 0
      vertex -7.87868 8.97443 0
    endloop
  endfacet
  facet normal 0 0 -1
    outer loop
      vertex -9.6194 6.91342 0
      vertex -8.51401 7.18519 0
      vertex -8.63449 7.04853 0
    endloop
  endfacet
  facet normal 0 0 -1
    outer loop
      vertex -9.6194 6.91342 0
      vertex -8.63449 7.04853 0
      vertex -8.74615 6.90458 0
    endloop
  endfacet
  facet normal 0 0 -1
    outer loop
      vertex -9.6194 6.91342 0
      vertex -8.74615 6.90458 0
      vertex -8.84855 6.7539 0
    endloop
  endfacet
  facet normal 0 0 -1
    outer loop
      vertex -9.6194 6.91342 0
      vertex -8.84855 6.7539 0
      vertex -8.94129 6.59708 0
    endloop
  endfacet
  facet normal 0 0 -1
    outer loop
      vertex -9.6194 6.91342 0
      vertex -8.94129 6.59708 0
      vertex -9.024 6.43476 0
    endloop
  endfacet
  facet normal 0 0 -1
    outer loop
      vertex -9.6194 6.91342 0
      vertex -9.024 6.43476 0
      vertex -9.09635 6.26756 0
    endloop
  endfacet
  facet normal 0 0 -1
    outer loop
      vertex -9.80109 6 0
      vertex -9.09635 6.26756 0
      vertex -9.15806 6.09615 0
    endloop
  endfacet
  facet normal 0 0 -1
    outer loop
      vertex -9.80109 6 0
      vertex -9.15806 6.09615 0
      vertex -9.186 6 0
    endloop
  endfacet
  facet normal -0 0 -1
    outer loop
      vertex -8.51401 7.18519 0
      vertex -9.6194 6.91342 0
      vertex -8.53553 8.53553 0
    endloop
  endfacet
  facet normal -0 0 -1
    outer loop
      vertex -9.09635 6.26756 0
      vertex -9.80109 6 0
      vertex -9.6194 6.91342 0
    endloop
  endfacet
  facet normal 0 0 -1
    outer loop
      vertex -3.55137 4.65659 0
      vertex 0 5 0
      vertex -0.380602 3.08658 0
    endloop
  endfacet
  facet normal 0 0 -1
    outer loop
      vertex -3.70365 4.13244 0
      vertex -0.380602 3.08658 0
      vertex -1.10663 2 0
    endloop
  endfacet
  facet normal -0 0 -1
    outer loop
      vertex 0 5 0
      vertex -3.52287 4.83653 0
      vertex -3.50572 5.01791 0
    endloop
  endfacet
  facet normal 0 0 -1
    outer loop
      vertex 0 5 0
      vertex -3.50572 5.38209 0
      vertex -0.380602 6.91342 0
    endloop
  endfacet
  facet normal 0 0 -1
    outer loop
      vertex -3.52287 5.56347 0
      vertex -0.380602 6.91342 0
      vertex -3.50572 5.38209 0
    endloop
  endfacet
  facet normal 0 0 -1
    outer loop
      vertex -3.50572 5.38209 0
      vertex 0 5 0
      vertex -3.5 5.2 0
    endloop
  endfacet
  facet normal 0 -0 -1
    outer loop
      vertex -3.5 5.2 0
      vertex 0 5 0
      vertex -3.50572 5.01791 0
    endloop
  endfacet
  facet normal 0 0 -1
    outer loop
      vertex 0 5 0
      vertex -3.55137 4.65659 0
      vertex -3.52287 4.83653 0
    endloop
  endfacet
  facet normal 0 0 -1
    outer loop
      vertex -0.380602 3.08658 0
      vertex -3.59111 4.4788 0
      vertex -3.55137 4.65659 0
    endloop
  endfacet
  facet normal 0 0 -1
    outer loop
      vertex -0.380602 3.08658 0
      vertex -3.64194 4.30385 0
      vertex -3.59111 4.4788 0
    endloop
  endfacet
  facet normal 0 0 -1
    outer loop
      vertex -0.380602 3.08658 0
      vertex -3.70365 4.13244 0
      vertex -3.64194 4.30385 0
    endloop
  endfacet
  facet normal 0 0 -1
    outer loop
      vertex -1.10663 2 0
      vertex -3.776 3.96524 0
      vertex -3.70365 4.13244 0
    endloop
  endfacet
  facet normal 0 0 -1
    outer loop
      vertex -1.10663 2 0
      vertex -3.85871 3.80291 0
      vertex -3.776 3.96524 0
    endloop
  endfacet
  facet normal 0 0 -1
    outer loop
      vertex -1.10663 2 0
      vertex -3.95145 3.6461 0
      vertex -3.85871 3.80291 0
    endloop
  endfacet
  facet normal 0 0 -1
    outer loop
      vertex -1.10663 2 0
      vertex -4.05385 3.49542 0
      vertex -3.95145 3.6461 0
    endloop
  endfacet
  facet normal 0 0 -1
    outer loop
      vertex -1.10663 2 0
      vertex -4.16551 3.35147 0
      vertex -4.05385 3.49542 0
    endloop
  endfacet
  facet normal 0 0 -1
    outer loop
      vertex -1.10663 2 0
      vertex -4.28599 3.21481 0
      vertex -4.16551 3.35147 0
    endloop
  endfacet
  facet normal 0 0 -1
    outer loop
      vertex -1.10663 2 0
      vertex -4.41481 3.08599 0
      vertex -4.28599 3.21481 0
    endloop
  endfacet
  facet normal 0 0 -1
    outer loop
      vertex -1.10663 2 0
      vertex -4.55147 2.96551 0
      vertex -4.41481 3.08599 0
    endloop
  endfacet
  facet normal 0 0 -1
    outer loop
      vertex -1.10663 2 0
      vertex -4.69542 2.85385 0
      vertex -4.55147 2.96551 0
    endloop
  endfacet
  facet normal 0 0 -1
    outer loop
      vertex -1.10663 2 0
      vertex -4.8461 2.75145 0
      vertex -4.69542 2.85385 0
    endloop
  endfacet
  facet normal 0 0 -1
    outer loop
      vertex -1.10663 2 0
      vertex -5.00291 2.65871 0
      vertex -4.8461 2.75145 0
    endloop
  endfacet
  facet normal 0 0 -1
    outer loop
      vertex -1.10663 2 0
      vertex -5.16524 2.576 0
      vertex -5.00291 2.65871 0
    endloop
  endfacet
  facet normal 0 0 -1
    outer loop
      vertex -1.10663 2 0
      vertex -5.33244 2.50365 0
      vertex -5.16524 2.576 0
    endloop
  endfacet
  facet normal 0 0 -1
    outer loop
      vertex -1.10663 2 0
      vertex -5.50385 2.44194 0
      vertex -5.33244 2.50365 0
    endloop
  endfacet
  facet normal 0 0 -1
    outer loop
      vertex -1.10663 2 0
      vertex -5.6788 2.39111 0
      vertex -5.50385 2.44194 0
    endloop
  endfacet
  facet normal 0 0 -1
    outer loop
      vertex -1.10663 2 0
      vertex -5.85659 2.35137 0
      vertex -5.6788 2.39111 0
    endloop
  endfacet
  facet normal 0 0 -1
    outer loop
      vertex -7 2 0
      vertex -5.85659 2.35137 0
      vertex -1.10663 2 0
    endloop
  endfacet
  facet normal 0 0 -1
    outer loop
      vertex -5.85659 2.35137 0
      vertex -7 2 0
      vertex -6.03653 2.32287 0
    endloop
  endfacet
  facet normal 0 0 -1
    outer loop
      vertex -6.03653 2.32287 0
      vertex -7 2 0
      vertex -6.21791 2.30572 0
    endloop
  endfacet
  facet normal 0 0 -1
    outer loop
      vertex -6.21791 2.30572 0
      vertex -7 2 0
      vertex -6.4 2.3 0
    endloop
  endfacet
  facet normal -0 0 -1
    outer loop
      vertex -6.4 2.3 0
      vertex -7 2 0
      vertex -6.58209 2.30572 0
    endloop
  endfacet
  facet normal 0 0 -1
    outer loop
      vertex -7 2 0
      vertex -6.76347 2.32287 0
      vertex -6.58209 2.30572 0
    endloop
  endfacet
  facet normal 0 0 -1
    outer loop
      vertex -7 2 0
      vertex -6.94341 2.35137 0
      vertex -6.76347 2.32287 0
    endloop
  endfacet
  facet normal -0 0 -1
    outer loop
      vertex -6.94341 2.35137 0
      vertex -7 2 0
      vertex -7 2.36402 0
    endloop
  endfacet
  facet normal 0 0 -1
    outer loop
      vertex -3.55137 5.74341 0
      vertex -0.380602 6.91342 0
      vertex -3.52287 5.56347 0
    endloop
  endfacet
  facet normal 0 0 -1
    outer loop
      vertex -3.59111 5.9212 0
      vertex -0.380602 6.91342 0
      vertex -3.55137 5.74341 0
    endloop
  endfacet
  facet normal 0 0 -1
    outer loop
      vertex -3.64194 6.09615 0
      vertex -0.380602 6.91342 0
      vertex -3.59111 5.9212 0
    endloop
  endfacet
  facet normal 0 0 -1
    outer loop
      vertex -3.70365 6.26756 0
      vertex -0.380602 6.91342 0
      vertex -3.64194 6.09615 0
    endloop
  endfacet
  facet normal -0 0 -1
    outer loop
      vertex -0.380602 6.91342 0
      vertex -3.70365 6.26756 0
      vertex -1.46447 8.53553 0
    endloop
  endfacet
  facet normal 0 0 -1
    outer loop
      vertex -3.776 6.43476 0
      vertex -1.46447 8.53553 0
      vertex -3.70365 6.26756 0
    endloop
  endfacet
  facet normal 0 0 -1
    outer loop
      vertex -3.85871 6.59708 0
      vertex -1.46447 8.53553 0
      vertex -3.776 6.43476 0
    endloop
  endfacet
  facet normal 0 0 -1
    outer loop
      vertex -3.95145 6.7539 0
      vertex -1.46447 8.53553 0
      vertex -3.85871 6.59708 0
    endloop
  endfacet
  facet normal 0 0 -1
    outer loop
      vertex -4.05385 6.90458 0
      vertex -1.46447 8.53553 0
      vertex -3.95145 6.7539 0
    endloop
  endfacet
  facet normal 0 0 -1
    outer loop
      vertex -4.16551 7.04853 0
      vertex -1.46447 8.53553 0
      vertex -4.05385 6.90458 0
    endloop
  endfacet
  facet normal -0 0 -1
    outer loop
      vertex -1.46447 8.53553 0
      vertex -4.16551 7.04853 0
      vertex -3.08658 9.6194 0
    endloop
  endfacet
  facet normal 0 0 -1
    outer loop
      vertex -4.28599 7.18519 0
      vertex -3.08658 9.6194 0
      vertex -4.16551 7.04853 0
    endloop
  endfacet
  facet normal 0 0 -1
    outer loop
      vertex -4.41481 7.31401 0
      vertex -3.08658 9.6194 0
      vertex -4.28599 7.18519 0
    endloop
  endfacet
  facet normal 0 0 -1
    outer loop
      vertex -4.52362 7.40994 0
      vertex -3.08658 9.6194 0
      vertex -4.41481 7.31401 0
    endloop
  endfacet
  facet normal 0 0 -1
    outer loop
      vertex -4.52362 7.40994 0
      vertex -5 10 0
      vertex -3.08658 9.6194 0
    endloop
  endfacet
  facet normal 0 0 -1
    outer loop
      vertex -5.91219 8.05744 0
      vertex -5 10 0
      vertex -4.52362 7.40994 0
    endloop
  endfacet
  facet normal 0 0 -1
    outer loop
      vertex -6.07161 9.78684 0
      vertex -5.91219 8.05744 0
      vertex -6.03653 8.07713 0
    endloop
  endfacet
  facet normal 0 0 -1
    outer loop
      vertex -5.91219 8.05744 0
      vertex -6.07161 9.78684 0
      vertex -5 10 0
    endloop
  endfacet
  facet normal 0 0 -1
    outer loop
      vertex -6.21791 8.09428 0
      vertex -6.07161 9.78684 0
      vertex -6.03653 8.07713 0
    endloop
  endfacet
  facet normal 0 0 -1
    outer loop
      vertex -6.4 8.1 0
      vertex -6.07161 9.78684 0
      vertex -6.21791 8.09428 0
    endloop
  endfacet
  facet normal 0 0 -1
    outer loop
      vertex -6.58209 8.09428 0
      vertex -6.07161 9.78684 0
      vertex -6.4 8.1 0
    endloop
  endfacet
  facet normal 0 0 -1
    outer loop
      vertex -6.76347 8.07713 0
      vertex -6.07161 9.78684 0
      vertex -6.58209 8.09428 0
    endloop
  endfacet
  facet normal 0 0 -1
    outer loop
      vertex -7.87868 8.97443 0
      vertex -6.76347 8.07713 0
      vertex -6.94341 8.04863 0
    endloop
  endfacet
  facet normal 0 0 -1
    outer loop
      vertex -7.87868 8.97443 0
      vertex -6.94341 8.04863 0
      vertex -7.1212 8.00889 0
    endloop
  endfacet
  facet normal 0 0 -1
    outer loop
      vertex -7.87868 8.97443 0
      vertex -7.1212 8.00889 0
      vertex -7.29615 7.95806 0
    endloop
  endfacet
  facet normal 0 0 -1
    outer loop
      vertex -7.87868 8.97443 0
      vertex -7.29615 7.95806 0
      vertex -7.46756 7.89635 0
    endloop
  endfacet
  facet normal 0 0 -1
    outer loop
      vertex -7.87868 8.97443 0
      vertex -7.46756 7.89635 0
      vertex -7.63476 7.824 0
    endloop
  endfacet
  facet normal 0 0 -1
    outer loop
      vertex -7.87868 8.97443 0
      vertex -7.63476 7.824 0
      vertex -7.79708 7.74129 0
    endloop
  endfacet
  facet normal 0 0 -1
    outer loop
      vertex -6.76347 8.07713 0
      vertex -7.87868 8.97443 0
      vertex -6.07161 9.78684 0
    endloop
  endfacet
  facet normal 0 0 -1
    outer loop
      vertex -7.87868 8.97443 0
      vertex -18.9922 15.8118 0
      vertex -6.07161 9.78684 0
    endloop
  endfacet
  facet normal 0 -0 -1
    outer loop
      vertex -18.9922 15.8118 0
      vertex -7.87868 8.97443 0
      vertex -19.6262 14.4524 0
    endloop
  endfacet
  facet normal -1 0 0
    outer loop
      vertex -7 2 0
      vertex -7 2.36402 5
      vertex -7 2.36402 0
    endloop
  endfacet
  facet normal -1 -0 0
    outer loop
      vertex -7 2.36402 5
      vertex -7 2 0
      vertex -7 2 5
    endloop
  endfacet
  facet normal 0 -1 0
    outer loop
      vertex -9.80109 6 0
      vertex -9.186 6 5
      vertex -9.80109 6 5
    endloop
  endfacet
  facet normal 0 -1 -0
    outer loop
      vertex -9.186 6 5
      vertex -9.80109 6 0
      vertex -9.186 6 0
    endloop
  endfacet
  facet normal 0.980785 0.19509 0
    outer loop
      vertex 0 5 5
      vertex -0.380602 6.91342 0
      vertex -0.380602 6.91342 5
    endloop
  endfacet
  facet normal 0.980785 0.19509 0
    outer loop
      vertex -0.380602 6.91342 0
      vertex 0 5 5
      vertex 0 5 0
    endloop
  endfacet
  facet normal -0.980785 0.195091 0
    outer loop
      vertex -9.80109 6 0
      vertex -9.6194 6.91342 5
      vertex -9.6194 6.91342 0
    endloop
  endfacet
  facet normal -0.980785 0.195091 0
    outer loop
      vertex -9.6194 6.91342 5
      vertex -9.80109 6 0
      vertex -9.80109 6 5
    endloop
  endfacet
  facet normal 0.195091 0.980785 -0
    outer loop
      vertex -3.08658 9.6194 0
      vertex -5 10 5
      vertex -3.08658 9.6194 5
    endloop
  endfacet
  facet normal 0.195091 0.980785 0
    outer loop
      vertex -5 10 5
      vertex -3.08658 9.6194 0
      vertex -5 10 0
    endloop
  endfacet
  facet normal 0.83147 0.55557 0
    outer loop
      vertex -0.380602 6.91342 5
      vertex -1.46447 8.53553 0
      vertex -1.46447 8.53553 5
    endloop
  endfacet
  facet normal 0.83147 0.55557 0
    outer loop
      vertex -1.46447 8.53553 0
      vertex -0.380602 6.91342 5
      vertex -0.380602 6.91342 0
    endloop
  endfacet
  facet normal 0.55557 0.83147 -0
    outer loop
      vertex -1.46447 8.53553 0
      vertex -3.08658 9.6194 5
      vertex -1.46447 8.53553 5
    endloop
  endfacet
  facet normal 0.55557 0.83147 0
    outer loop
      vertex -3.08658 9.6194 5
      vertex -1.46447 8.53553 0
      vertex -3.08658 9.6194 0
    endloop
  endfacet
  facet normal -0.55557 0.83147 0
    outer loop
      vertex -7.87868 8.97443 0
      vertex -8.53553 8.53553 5
      vertex -7.87868 8.97443 5
    endloop
  endfacet
  facet normal -0.55557 0.83147 0
    outer loop
      vertex -8.53553 8.53553 5
      vertex -7.87868 8.97443 0
      vertex -8.53553 8.53553 0
    endloop
  endfacet
  facet normal -0.83147 0.55557 0
    outer loop
      vertex -9.6194 6.91342 0
      vertex -8.53553 8.53553 5
      vertex -8.53553 8.53553 0
    endloop
  endfacet
  facet normal -0.83147 0.55557 0
    outer loop
      vertex -8.53553 8.53553 5
      vertex -9.6194 6.91342 0
      vertex -9.6194 6.91342 5
    endloop
  endfacet
  facet normal 0 0 1
    outer loop
      vertex 0 5 5
      vertex -3.50572 5.38209 5
      vertex -3.5 5.2 5
    endloop
  endfacet
  facet normal 0 0 1
    outer loop
      vertex -1.46447 8.53553 5
      vertex -3.52287 5.56347 5
      vertex -3.50572 5.38209 5
    endloop
  endfacet
  facet normal 0 0 1
    outer loop
      vertex -1.46447 8.53553 5
      vertex -3.55137 5.74341 5
      vertex -3.52287 5.56347 5
    endloop
  endfacet
  facet normal 0 0 1
    outer loop
      vertex -1.46447 8.53553 5
      vertex -3.59111 5.9212 5
      vertex -3.55137 5.74341 5
    endloop
  endfacet
  facet normal 0 0 1
    outer loop
      vertex -1.46447 8.53553 5
      vertex -3.64194 6.09615 5
      vertex -3.59111 5.9212 5
    endloop
  endfacet
  facet normal 0 0 1
    outer loop
      vertex -1.46447 8.53553 5
      vertex -3.70365 6.26756 5
      vertex -3.64194 6.09615 5
    endloop
  endfacet
  facet normal 0 0 1
    outer loop
      vertex -1.46447 8.53553 5
      vertex -3.776 6.43476 5
      vertex -3.70365 6.26756 5
    endloop
  endfacet
  facet normal 0 0 1
    outer loop
      vertex -1.46447 8.53553 5
      vertex -3.85871 6.59708 5
      vertex -3.776 6.43476 5
    endloop
  endfacet
  facet normal 0 0 1
    outer loop
      vertex -1.46447 8.53553 5
      vertex -3.95145 6.7539 5
      vertex -3.85871 6.59708 5
    endloop
  endfacet
  facet normal 0 0 1
    outer loop
      vertex -1.46447 8.53553 5
      vertex -4.05385 6.90458 5
      vertex -3.95145 6.7539 5
    endloop
  endfacet
  facet normal 0 0 1
    outer loop
      vertex -1.46447 8.53553 5
      vertex -4.16551 7.04853 5
      vertex -4.05385 6.90458 5
    endloop
  endfacet
  facet normal 0 0 1
    outer loop
      vertex -3.08658 9.6194 5
      vertex -4.28599 7.18519 5
      vertex -4.16551 7.04853 5
    endloop
  endfacet
  facet normal 0 0 1
    outer loop
      vertex -3.08658 9.6194 5
      vertex -4.41481 7.31401 5
      vertex -4.28599 7.18519 5
    endloop
  endfacet
  facet normal 0 0 1
    outer loop
      vertex -3.08658 9.6194 5
      vertex -4.52362 7.40994 5
      vertex -4.41481 7.31401 5
    endloop
  endfacet
  facet normal 0 0 1
    outer loop
      vertex -5 10 5
      vertex -4.52362 7.40994 5
      vertex -3.08658 9.6194 5
    endloop
  endfacet
  facet normal 0 0 1
    outer loop
      vertex -5 10 5
      vertex -5.91219 8.05744 5
      vertex -4.52362 7.40994 5
    endloop
  endfacet
  facet normal -0 0 1
    outer loop
      vertex -6.07161 9.78684 5
      vertex -5.91219 8.05744 5
      vertex -5 10 5
    endloop
  endfacet
  facet normal 0 0 1
    outer loop
      vertex -5.91219 8.05744 5
      vertex -6.07161 9.78684 5
      vertex -6.03653 8.07713 5
    endloop
  endfacet
  facet normal 0 0 1
    outer loop
      vertex -6.07161 9.78684 5
      vertex -6.21791 8.09428 5
      vertex -6.03653 8.07713 5
    endloop
  endfacet
  facet normal 0 0 1
    outer loop
      vertex -6.07161 9.78684 5
      vertex -6.4 8.1 5
      vertex -6.21791 8.09428 5
    endloop
  endfacet
  facet normal 0 0 1
    outer loop
      vertex -6.07161 9.78684 5
      vertex -6.58209 8.09428 5
      vertex -6.4 8.1 5
    endloop
  endfacet
  facet normal 0 0 1
    outer loop
      vertex -6.07161 9.78684 5
      vertex -6.76347 8.07713 5
      vertex -6.58209 8.09428 5
    endloop
  endfacet
  facet normal -0 0 1
    outer loop
      vertex -7.87868 8.97443 5
      vertex -6.76347 8.07713 5
      vertex -6.07161 9.78684 5
    endloop
  endfacet
  facet normal 0 0 1
    outer loop
      vertex -6.76347 8.07713 5
      vertex -7.87868 8.97443 5
      vertex -6.94341 8.04863 5
    endloop
  endfacet
  facet normal 0 0 1
    outer loop
      vertex -6.94341 8.04863 5
      vertex -7.87868 8.97443 5
      vertex -7.1212 8.00889 5
    endloop
  endfacet
  facet normal 0 0 1
    outer loop
      vertex -7.1212 8.00889 5
      vertex -7.87868 8.97443 5
      vertex -7.29615 7.95806 5
    endloop
  endfacet
  facet normal 0 0 1
    outer loop
      vertex -7.29615 7.95806 5
      vertex -7.87868 8.97443 5
      vertex -7.46756 7.89635 5
    endloop
  endfacet
  facet normal 0 0 1
    outer loop
      vertex -7.46756 7.89635 5
      vertex -7.87868 8.97443 5
      vertex -7.63476 7.824 5
    endloop
  endfacet
  facet normal -0 0 1
    outer loop
      vertex -8.53553 8.53553 5
      vertex -7.63476 7.824 5
      vertex -7.87868 8.97443 5
    endloop
  endfacet
  facet normal 0 0 1
    outer loop
      vertex -18.9922 15.8118 5
      vertex -7.87868 8.97443 5
      vertex -6.07161 9.78684 5
    endloop
  endfacet
  facet normal 0 0 1
    outer loop
      vertex -7.87868 8.97443 5
      vertex -18.9922 15.8118 5
      vertex -19.6262 14.4524 5
    endloop
  endfacet
  facet normal -0 0 1
    outer loop
      vertex -3.50572 5.38209 5
      vertex 0 5 5
      vertex -0.380602 6.91342 5
    endloop
  endfacet
  facet normal 0 0 1
    outer loop
      vertex -3.52287 4.83653 5
      vertex 0 5 5
      vertex -3.50572 5.01791 5
    endloop
  endfacet
  facet normal 0 0 1
    outer loop
      vertex -3.50572 5.38209 5
      vertex -0.380602 6.91342 5
      vertex -1.46447 8.53553 5
    endloop
  endfacet
  facet normal 0 0 1
    outer loop
      vertex -4.16551 7.04853 5
      vertex -1.46447 8.53553 5
      vertex -3.08658 9.6194 5
    endloop
  endfacet
  facet normal 0 0 1
    outer loop
      vertex 0 5 5
      vertex -3.5 5.2 5
      vertex -3.50572 5.01791 5
    endloop
  endfacet
  facet normal 0 0 1
    outer loop
      vertex -3.55137 4.65659 5
      vertex 0 5 5
      vertex -3.52287 4.83653 5
    endloop
  endfacet
  facet normal 0 0 1
    outer loop
      vertex 0 5 5
      vertex -3.55137 4.65659 5
      vertex -0.380602 3.08658 5
    endloop
  endfacet
  facet normal -0 0 1
    outer loop
      vertex -3.59111 4.4788 5
      vertex -0.380602 3.08658 5
      vertex -3.55137 4.65659 5
    endloop
  endfacet
  facet normal -0 0 1
    outer loop
      vertex -3.64194 4.30385 5
      vertex -0.380602 3.08658 5
      vertex -3.59111 4.4788 5
    endloop
  endfacet
  facet normal -0 0 1
    outer loop
      vertex -3.70365 4.13244 5
      vertex -0.380602 3.08658 5
      vertex -3.64194 4.30385 5
    endloop
  endfacet
  facet normal 0 0 1
    outer loop
      vertex -0.380602 3.08658 5
      vertex -3.70365 4.13244 5
      vertex -1.10663 2 5
    endloop
  endfacet
  facet normal -0 0 1
    outer loop
      vertex -3.776 3.96524 5
      vertex -1.10663 2 5
      vertex -3.70365 4.13244 5
    endloop
  endfacet
  facet normal -0 0 1
    outer loop
      vertex -3.85871 3.80291 5
      vertex -1.10663 2 5
      vertex -3.776 3.96524 5
    endloop
  endfacet
  facet normal -0 0 1
    outer loop
      vertex -3.95145 3.6461 5
      vertex -1.10663 2 5
      vertex -3.85871 3.80291 5
    endloop
  endfacet
  facet normal -0 0 1
    outer loop
      vertex -4.05385 3.49542 5
      vertex -1.10663 2 5
      vertex -3.95145 3.6461 5
    endloop
  endfacet
  facet normal -0 0 1
    outer loop
      vertex -4.16551 3.35147 5
      vertex -1.10663 2 5
      vertex -4.05385 3.49542 5
    endloop
  endfacet
  facet normal -0 0 1
    outer loop
      vertex -4.28599 3.21481 5
      vertex -1.10663 2 5
      vertex -4.16551 3.35147 5
    endloop
  endfacet
  facet normal -0 0 1
    outer loop
      vertex -4.41481 3.08599 5
      vertex -1.10663 2 5
      vertex -4.28599 3.21481 5
    endloop
  endfacet
  facet normal -0 0 1
    outer loop
      vertex -4.55147 2.96551 5
      vertex -1.10663 2 5
      vertex -4.41481 3.08599 5
    endloop
  endfacet
  facet normal -0 0 1
    outer loop
      vertex -4.69542 2.85385 5
      vertex -1.10663 2 5
      vertex -4.55147 2.96551 5
    endloop
  endfacet
  facet normal -0 0 1
    outer loop
      vertex -4.8461 2.75145 5
      vertex -1.10663 2 5
      vertex -4.69542 2.85385 5
    endloop
  endfacet
  facet normal -0 0 1
    outer loop
      vertex -5.00291 2.65871 5
      vertex -1.10663 2 5
      vertex -4.8461 2.75145 5
    endloop
  endfacet
  facet normal -0 0 1
    outer loop
      vertex -5.16524 2.576 5
      vertex -1.10663 2 5
      vertex -5.00291 2.65871 5
    endloop
  endfacet
  facet normal -0 0 1
    outer loop
      vertex -5.33244 2.50365 5
      vertex -1.10663 2 5
      vertex -5.16524 2.576 5
    endloop
  endfacet
  facet normal -0 0 1
    outer loop
      vertex -5.50385 2.44194 5
      vertex -1.10663 2 5
      vertex -5.33244 2.50365 5
    endloop
  endfacet
  facet normal -0 0 1
    outer loop
      vertex -5.6788 2.39111 5
      vertex -1.10663 2 5
      vertex -5.50385 2.44194 5
    endloop
  endfacet
  facet normal -0 0 1
    outer loop
      vertex -5.85659 2.35137 5
      vertex -1.10663 2 5
      vertex -5.6788 2.39111 5
    endloop
  endfacet
  facet normal 0 0 1
    outer loop
      vertex -7 2 5
      vertex -5.85659 2.35137 5
      vertex -6.03653 2.32287 5
    endloop
  endfacet
  facet normal 0 0 1
    outer loop
      vertex -7 2 5
      vertex -6.03653 2.32287 5
      vertex -6.21791 2.30572 5
    endloop
  endfacet
  facet normal 0 0 1
    outer loop
      vertex -7 2 5
      vertex -6.21791 2.30572 5
      vertex -6.4 2.3 5
    endloop
  endfacet
  facet normal 0 0 1
    outer loop
      vertex -7 2 5
      vertex -6.4 2.3 5
      vertex -6.58209 2.30572 5
    endloop
  endfacet
  facet normal 0 0 1
    outer loop
      vertex -5.85659 2.35137 5
      vertex -7 2 5
      vertex -1.10663 2 5
    endloop
  endfacet
  facet normal 0 0 1
    outer loop
      vertex -6.76347 2.32287 5
      vertex -7 2 5
      vertex -6.58209 2.30572 5
    endloop
  endfacet
  facet normal 0 0 1
    outer loop
      vertex -6.94341 2.35137 5
      vertex -7 2 5
      vertex -6.76347 2.32287 5
    endloop
  endfacet
  facet normal 0 0 1
    outer loop
      vertex -7 2 5
      vertex -6.94341 2.35137 5
      vertex -7 2.36402 5
    endloop
  endfacet
  facet normal 0 0 1
    outer loop
      vertex -7.63476 7.824 5
      vertex -8.53553 8.53553 5
      vertex -7.79708 7.74129 5
    endloop
  endfacet
  facet normal 0 0 1
    outer loop
      vertex -7.79708 7.74129 5
      vertex -8.53553 8.53553 5
      vertex -7.9539 7.64855 5
    endloop
  endfacet
  facet normal 0 0 1
    outer loop
      vertex -7.9539 7.64855 5
      vertex -8.53553 8.53553 5
      vertex -8.10458 7.54615 5
    endloop
  endfacet
  facet normal 0 0 1
    outer loop
      vertex -8.10458 7.54615 5
      vertex -8.53553 8.53553 5
      vertex -8.24853 7.43449 5
    endloop
  endfacet
  facet normal 0 0 1
    outer loop
      vertex -8.24853 7.43449 5
      vertex -8.53553 8.53553 5
      vertex -8.38519 7.31401 5
    endloop
  endfacet
  facet normal 0 0 1
    outer loop
      vertex -8.38519 7.31401 5
      vertex -8.53553 8.53553 5
      vertex -8.51401 7.18519 5
    endloop
  endfacet
  facet normal 0 0 1
    outer loop
      vertex -9.6194 6.91342 5
      vertex -8.51401 7.18519 5
      vertex -8.53553 8.53553 5
    endloop
  endfacet
  facet normal 0 0 1
    outer loop
      vertex -8.51401 7.18519 5
      vertex -9.6194 6.91342 5
      vertex -8.63449 7.04853 5
    endloop
  endfacet
  facet normal 0 0 1
    outer loop
      vertex -8.63449 7.04853 5
      vertex -9.6194 6.91342 5
      vertex -8.74615 6.90458 5
    endloop
  endfacet
  facet normal 0 0 1
    outer loop
      vertex -8.74615 6.90458 5
      vertex -9.6194 6.91342 5
      vertex -8.84855 6.7539 5
    endloop
  endfacet
  facet normal 0 0 1
    outer loop
      vertex -8.84855 6.7539 5
      vertex -9.6194 6.91342 5
      vertex -8.94129 6.59708 5
    endloop
  endfacet
  facet normal 0 0 1
    outer loop
      vertex -8.94129 6.59708 5
      vertex -9.6194 6.91342 5
      vertex -9.024 6.43476 5
    endloop
  endfacet
  facet normal 0 0 1
    outer loop
      vertex -9.024 6.43476 5
      vertex -9.6194 6.91342 5
      vertex -9.09635 6.26756 5
    endloop
  endfacet
  facet normal 0 0 1
    outer loop
      vertex -9.80109 6 5
      vertex -9.09635 6.26756 5
      vertex -9.6194 6.91342 5
    endloop
  endfacet
  facet normal 0 0 1
    outer loop
      vertex -9.09635 6.26756 5
      vertex -9.80109 6 5
      vertex -9.15806 6.09615 5
    endloop
  endfacet
  facet normal 0 0 1
    outer loop
      vertex -9.15806 6.09615 5
      vertex -9.80109 6 5
      vertex -9.186 6 5
    endloop
  endfacet
  facet normal -0.195091 0.980785 0
    outer loop
      vertex -5 10 0
      vertex -6.07161 9.78684 5
      vertex -5 10 5
    endloop
  endfacet
  facet normal -0.195091 0.980785 0
    outer loop
      vertex -6.07161 9.78684 5
      vertex -5 10 0
      vertex -6.07161 9.78684 0
    endloop
  endfacet
  facet normal 0.83147 -0.55557 0
    outer loop
      vertex -1.10663 2 5
      vertex -0.380602 3.08658 0
      vertex -0.380602 3.08658 5
    endloop
  endfacet
  facet normal 0.83147 -0.55557 0
    outer loop
      vertex -0.380602 3.08658 0
      vertex -1.10663 2 5
      vertex -1.10663 2 0
    endloop
  endfacet
  facet normal 0.980785 -0.19509 0
    outer loop
      vertex -0.380602 3.08658 5
      vertex 0 5 0
      vertex 0 5 5
    endloop
  endfacet
  facet normal 0.980785 -0.19509 0
    outer loop
      vertex 0 5 0
      vertex -0.380602 3.08658 5
      vertex -0.380602 3.08658 0
    endloop
  endfacet
  facet normal -0.999507 -0.0314083 0
    outer loop
      vertex -3.5 5.2 0
      vertex -3.50572 5.38209 5
      vertex -3.50572 5.38209 0
    endloop
  endfacet
  facet normal -0.999507 -0.0314083 0
    outer loop
      vertex -3.50572 5.38209 5
      vertex -3.5 5.2 0
      vertex -3.5 5.2 5
    endloop
  endfacet
  facet normal 0.0314083 -0.999507 0
    outer loop
      vertex -6.58209 8.09428 0
      vertex -6.4 8.1 5
      vertex -6.58209 8.09428 5
    endloop
  endfacet
  facet normal 0.0314083 -0.999507 0
    outer loop
      vertex -6.4 8.1 5
      vertex -6.58209 8.09428 0
      vertex -6.4 8.1 0
    endloop
  endfacet
  facet normal 0.0314135 0.999506 -0
    outer loop
      vertex -6.4 2.3 0
      vertex -6.58209 2.30572 5
      vertex -6.4 2.3 5
    endloop
  endfacet
  facet normal 0.0314135 0.999506 0
    outer loop
      vertex -6.58209 2.30572 5
      vertex -6.4 2.3 0
      vertex -6.58209 2.30572 0
    endloop
  endfacet
  facet normal -0.661314 -0.75011 0
    outer loop
      vertex -4.52362 7.40994 0
      vertex -4.41481 7.31401 5
      vertex -4.52362 7.40994 5
    endloop
  endfacet
  facet normal -0.661314 -0.75011 -0
    outer loop
      vertex -4.41481 7.31401 5
      vertex -4.52362 7.40994 0
      vertex -4.41481 7.31401 0
    endloop
  endfacet
  facet normal 0.707107 -0.707107 0
    outer loop
      vertex -8.51401 7.18519 5
      vertex -8.38519 7.31401 0
      vertex -8.38519 7.31401 5
    endloop
  endfacet
  facet normal 0.707107 -0.707107 0
    outer loop
      vertex -8.38519 7.31401 0
      vertex -8.51401 7.18519 5
      vertex -8.51401 7.18519 0
    endloop
  endfacet
  facet normal 0.397143 -0.917757 0
    outer loop
      vertex -7.63476 7.824 0
      vertex -7.46756 7.89635 5
      vertex -7.63476 7.824 5
    endloop
  endfacet
  facet normal 0.397143 -0.917757 0
    outer loop
      vertex -7.46756 7.89635 5
      vertex -7.63476 7.824 0
      vertex -7.46756 7.89635 0
    endloop
  endfacet
  facet normal -0.917754 -0.397149 0
    outer loop
      vertex -3.70365 6.26756 0
      vertex -3.776 6.43476 5
      vertex -3.776 6.43476 0
    endloop
  endfacet
  facet normal -0.917754 -0.397149 0
    outer loop
      vertex -3.776 6.43476 5
      vertex -3.70365 6.26756 0
      vertex -3.70365 6.26756 5
    endloop
  endfacet
  facet normal 0.917754 -0.397149 0
    outer loop
      vertex -9.09635 6.26756 5
      vertex -9.024 6.43476 0
      vertex -9.024 6.43476 5
    endloop
  endfacet
  facet normal 0.917754 -0.397149 0
    outer loop
      vertex -9.024 6.43476 0
      vertex -9.09635 6.26756 5
      vertex -9.09635 6.26756 0
    endloop
  endfacet
  facet normal 0.218141 -0.975917 0
    outer loop
      vertex -7.1212 8.00889 0
      vertex -6.94341 8.04863 5
      vertex -7.1212 8.00889 5
    endloop
  endfacet
  facet normal 0.218141 -0.975917 0
    outer loop
      vertex -6.94341 8.04863 5
      vertex -7.1212 8.00889 0
      vertex -6.94341 8.04863 0
    endloop
  endfacet
  facet normal -0.987688 -0.156435 0
    outer loop
      vertex -3.52287 5.56347 0
      vertex -3.55137 5.74341 5
      vertex -3.55137 5.74341 0
    endloop
  endfacet
  facet normal -0.987688 -0.156435 0
    outer loop
      vertex -3.55137 5.74341 5
      vertex -3.52287 5.56347 0
      vertex -3.52287 5.56347 5
    endloop
  endfacet
  facet normal -0.995562 -0.09411 0
    outer loop
      vertex -3.50572 5.38209 0
      vertex -3.52287 5.56347 5
      vertex -3.52287 5.56347 0
    endloop
  endfacet
  facet normal -0.995562 -0.09411 0
    outer loop
      vertex -3.52287 5.56347 5
      vertex -3.50572 5.38209 0
      vertex -3.50572 5.38209 5
    endloop
  endfacet
  facet normal -0.960294 -0.27899 0
    outer loop
      vertex -3.59111 5.9212 0
      vertex -3.64194 6.09615 5
      vertex -3.64194 6.09615 0
    endloop
  endfacet
  facet normal -0.960294 -0.27899 0
    outer loop
      vertex -3.64194 6.09615 5
      vertex -3.59111 5.9212 0
      vertex -3.59111 5.9212 5
    endloop
  endfacet
  facet normal -0.827079 -0.562086 0
    outer loop
      vertex -3.95145 6.7539 0
      vertex -4.05385 6.90458 5
      vertex -4.05385 6.90458 0
    endloop
  endfacet
  facet normal -0.827079 -0.562086 0
    outer loop
      vertex -4.05385 6.90458 5
      vertex -3.95145 6.7539 0
      vertex -3.95145 6.7539 5
    endloop
  endfacet
  facet normal -0.860743 -0.509039 0
    outer loop
      vertex -3.85871 6.59708 0
      vertex -3.95145 6.7539 5
      vertex -3.95145 6.7539 0
    endloop
  endfacet
  facet normal -0.860743 -0.509039 0
    outer loop
      vertex -3.95145 6.7539 5
      vertex -3.85871 6.59708 0
      vertex -3.85871 6.59708 5
    endloop
  endfacet
  facet normal -0.09411 -0.995562 0
    outer loop
      vertex -6.21791 8.09428 0
      vertex -6.03653 8.07713 5
      vertex -6.21791 8.09428 5
    endloop
  endfacet
  facet normal -0.09411 -0.995562 -0
    outer loop
      vertex -6.03653 8.07713 5
      vertex -6.21791 8.09428 0
      vertex -6.03653 8.07713 0
    endloop
  endfacet
  facet normal 0.960295 -0.278986 0
    outer loop
      vertex -9.186 6 5
      vertex -9.15806 6.09615 0
      vertex -9.15806 6.09615 5
    endloop
  endfacet
  facet normal 0.960295 -0.278986 0
    outer loop
      vertex -9.15806 6.09615 0
      vertex -9.186 6 5
      vertex -9.186 6 0
    endloop
  endfacet
  facet normal 0.790155 -0.612907 0
    outer loop
      vertex -8.74615 6.90458 5
      vertex -8.63449 7.04853 0
      vertex -8.63449 7.04853 5
    endloop
  endfacet
  facet normal 0.790155 -0.612907 0
    outer loop
      vertex -8.63449 7.04853 0
      vertex -8.74615 6.90458 5
      vertex -8.74615 6.90458 0
    endloop
  endfacet
  facet normal 0.750112 -0.661311 0
    outer loop
      vertex -8.63449 7.04853 5
      vertex -8.51401 7.18519 0
      vertex -8.51401 7.18519 5
    endloop
  endfacet
  facet normal 0.750112 -0.661311 0
    outer loop
      vertex -8.51401 7.18519 0
      vertex -8.63449 7.04853 5
      vertex -8.63449 7.04853 0
    endloop
  endfacet
  facet normal 0.940881 -0.338738 0
    outer loop
      vertex -9.15806 6.09615 5
      vertex -9.09635 6.26756 0
      vertex -9.09635 6.26756 5
    endloop
  endfacet
  facet normal 0.940881 -0.338738 0
    outer loop
      vertex -9.09635 6.26756 0
      vertex -9.15806 6.09615 5
      vertex -9.15806 6.09615 0
    endloop
  endfacet
  facet normal 0.509043 -0.860741 0
    outer loop
      vertex -7.9539 7.64855 0
      vertex -7.79708 7.74129 5
      vertex -7.9539 7.64855 5
    endloop
  endfacet
  facet normal 0.509043 -0.860741 0
    outer loop
      vertex -7.79708 7.74129 5
      vertex -7.9539 7.64855 0
      vertex -7.79708 7.74129 0
    endloop
  endfacet
  facet normal 0.453993 -0.891005 0
    outer loop
      vertex -7.79708 7.74129 0
      vertex -7.63476 7.824 5
      vertex -7.79708 7.74129 5
    endloop
  endfacet
  facet normal 0.453993 -0.891005 0
    outer loop
      vertex -7.63476 7.824 5
      vertex -7.79708 7.74129 0
      vertex -7.63476 7.824 0
    endloop
  endfacet
  facet normal 0.612907 -0.790155 0
    outer loop
      vertex -8.24853 7.43449 0
      vertex -8.10458 7.54615 5
      vertex -8.24853 7.43449 5
    endloop
  endfacet
  facet normal 0.612907 -0.790155 0
    outer loop
      vertex -8.10458 7.54615 5
      vertex -8.24853 7.43449 0
      vertex -8.10458 7.54615 0
    endloop
  endfacet
  facet normal 0.278995 -0.960293 0
    outer loop
      vertex -7.29615 7.95806 0
      vertex -7.1212 8.00889 5
      vertex -7.29615 7.95806 5
    endloop
  endfacet
  facet normal 0.278995 -0.960293 0
    outer loop
      vertex -7.1212 8.00889 5
      vertex -7.29615 7.95806 0
      vertex -7.1212 8.00889 0
    endloop
  endfacet
  facet normal 0.09411 -0.995562 0
    outer loop
      vertex -6.76347 8.07713 0
      vertex -6.58209 8.09428 5
      vertex -6.76347 8.07713 5
    endloop
  endfacet
  facet normal 0.09411 -0.995562 0
    outer loop
      vertex -6.58209 8.09428 5
      vertex -6.76347 8.07713 0
      vertex -6.58209 8.09428 0
    endloop
  endfacet
  facet normal -0.975917 0.218142 0
    outer loop
      vertex -3.59111 4.4788 0
      vertex -3.55137 4.65659 5
      vertex -3.55137 4.65659 0
    endloop
  endfacet
  facet normal -0.975917 0.218142 0
    outer loop
      vertex -3.55137 4.65659 5
      vertex -3.59111 4.4788 0
      vertex -3.59111 4.4788 5
    endloop
  endfacet
  facet normal -0.397147 0.917755 0
    outer loop
      vertex -5.16524 2.576 0
      vertex -5.33244 2.50365 5
      vertex -5.16524 2.576 5
    endloop
  endfacet
  facet normal -0.397147 0.917755 0
    outer loop
      vertex -5.33244 2.50365 5
      vertex -5.16524 2.576 0
      vertex -5.33244 2.50365 0
    endloop
  endfacet
  facet normal -0.612907 0.790155 0
    outer loop
      vertex -4.55147 2.96551 0
      vertex -4.69542 2.85385 5
      vertex -4.55147 2.96551 5
    endloop
  endfacet
  facet normal -0.612907 0.790155 0
    outer loop
      vertex -4.69542 2.85385 5
      vertex -4.55147 2.96551 0
      vertex -4.69542 2.85385 0
    endloop
  endfacet
  facet normal -0.707107 0.707107 0
    outer loop
      vertex -4.41481 3.08599 0
      vertex -4.28599 3.21481 5
      vertex -4.28599 3.21481 0
    endloop
  endfacet
  facet normal -0.707107 0.707107 0
    outer loop
      vertex -4.28599 3.21481 5
      vertex -4.41481 3.08599 0
      vertex -4.41481 3.08599 5
    endloop
  endfacet
  facet normal -0.453991 0.891006 0
    outer loop
      vertex -5.00291 2.65871 0
      vertex -5.16524 2.576 5
      vertex -5.00291 2.65871 5
    endloop
  endfacet
  facet normal -0.453991 0.891006 0
    outer loop
      vertex -5.16524 2.576 5
      vertex -5.00291 2.65871 0
      vertex -5.16524 2.576 0
    endloop
  endfacet
  facet normal -0.790155 0.612907 0
    outer loop
      vertex -4.16551 3.35147 0
      vertex -4.05385 3.49542 5
      vertex -4.05385 3.49542 0
    endloop
  endfacet
  facet normal -0.790155 0.612907 0
    outer loop
      vertex -4.05385 3.49542 5
      vertex -4.16551 3.35147 0
      vertex -4.16551 3.35147 5
    endloop
  endfacet
  facet normal -0.75011 0.661313 0
    outer loop
      vertex -4.28599 3.21481 0
      vertex -4.16551 3.35147 5
      vertex -4.16551 3.35147 0
    endloop
  endfacet
  facet normal -0.75011 0.661313 0
    outer loop
      vertex -4.16551 3.35147 5
      vertex -4.28599 3.21481 0
      vertex -4.28599 3.21481 5
    endloop
  endfacet
  facet normal -0.94088 0.338739 0
    outer loop
      vertex -3.70365 4.13244 0
      vertex -3.64194 4.30385 5
      vertex -3.64194 4.30385 0
    endloop
  endfacet
  facet normal -0.94088 0.338739 0
    outer loop
      vertex -3.64194 4.30385 5
      vertex -3.70365 4.13244 0
      vertex -3.70365 4.13244 5
    endloop
  endfacet
  facet normal -0.960294 0.27899 0
    outer loop
      vertex -3.64194 4.30385 0
      vertex -3.59111 4.4788 5
      vertex -3.59111 4.4788 0
    endloop
  endfacet
  facet normal -0.960294 0.27899 0
    outer loop
      vertex -3.59111 4.4788 5
      vertex -3.64194 4.30385 0
      vertex -3.64194 4.30385 5
    endloop
  endfacet
  facet normal -0.995562 0.09411 0
    outer loop
      vertex -3.52287 4.83653 0
      vertex -3.50572 5.01791 5
      vertex -3.50572 5.01791 0
    endloop
  endfacet
  facet normal -0.995562 0.09411 0
    outer loop
      vertex -3.50572 5.01791 5
      vertex -3.52287 4.83653 0
      vertex -3.52287 4.83653 5
    endloop
  endfacet
  facet normal 0.156435 0.987688 -0
    outer loop
      vertex -6.76347 2.32287 0
      vertex -6.94341 2.35137 5
      vertex -6.76347 2.32287 5
    endloop
  endfacet
  facet normal 0.156435 0.987688 0
    outer loop
      vertex -6.94341 2.35137 5
      vertex -6.76347 2.32287 0
      vertex -6.94341 2.35137 0
    endloop
  endfacet
  facet normal -0.975917 -0.218142 0
    outer loop
      vertex -3.55137 5.74341 0
      vertex -3.59111 5.9212 5
      vertex -3.59111 5.9212 0
    endloop
  endfacet
  facet normal -0.975917 -0.218142 0
    outer loop
      vertex -3.59111 5.9212 5
      vertex -3.55137 5.74341 0
      vertex -3.55137 5.74341 5
    endloop
  endfacet
  facet normal -0.790155 -0.612907 0
    outer loop
      vertex -4.05385 6.90458 0
      vertex -4.16551 7.04853 5
      vertex -4.16551 7.04853 0
    endloop
  endfacet
  facet normal -0.790155 -0.612907 0
    outer loop
      vertex -4.16551 7.04853 5
      vertex -4.05385 6.90458 0
      vertex -4.05385 6.90458 5
    endloop
  endfacet
  facet normal -0.750112 -0.661311 0
    outer loop
      vertex -4.16551 7.04853 0
      vertex -4.28599 7.18519 5
      vertex -4.28599 7.18519 0
    endloop
  endfacet
  facet normal -0.750112 -0.661311 0
    outer loop
      vertex -4.28599 7.18519 5
      vertex -4.16551 7.04853 0
      vertex -4.16551 7.04853 5
    endloop
  endfacet
  facet normal -0.707107 -0.707107 0
    outer loop
      vertex -4.28599 7.18519 0
      vertex -4.41481 7.31401 5
      vertex -4.41481 7.31401 0
    endloop
  endfacet
  facet normal -0.707107 -0.707107 0
    outer loop
      vertex -4.41481 7.31401 5
      vertex -4.28599 7.18519 0
      vertex -4.28599 7.18519 5
    endloop
  endfacet
  facet normal -0.891006 -0.453991 0
    outer loop
      vertex -3.776 6.43476 0
      vertex -3.85871 6.59708 5
      vertex -3.85871 6.59708 0
    endloop
  endfacet
  facet normal -0.891006 -0.453991 0
    outer loop
      vertex -3.85871 6.59708 5
      vertex -3.776 6.43476 0
      vertex -3.776 6.43476 5
    endloop
  endfacet
  facet normal -0.156437 -0.987688 0
    outer loop
      vertex -6.03653 8.07713 0
      vertex -5.91219 8.05744 5
      vertex -6.03653 8.07713 5
    endloop
  endfacet
  facet normal -0.156437 -0.987688 -0
    outer loop
      vertex -5.91219 8.05744 5
      vertex -6.03653 8.07713 0
      vertex -5.91219 8.05744 0
    endloop
  endfacet
  facet normal -0.0314083 -0.999507 0
    outer loop
      vertex -6.4 8.1 0
      vertex -6.21791 8.09428 5
      vertex -6.4 8.1 5
    endloop
  endfacet
  facet normal -0.0314083 -0.999507 -0
    outer loop
      vertex -6.21791 8.09428 5
      vertex -6.4 8.1 0
      vertex -6.21791 8.09428 0
    endloop
  endfacet
  facet normal 0.827079 -0.562086 0
    outer loop
      vertex -8.84855 6.7539 5
      vertex -8.74615 6.90458 0
      vertex -8.74615 6.90458 5
    endloop
  endfacet
  facet normal 0.827079 -0.562086 0
    outer loop
      vertex -8.74615 6.90458 0
      vertex -8.84855 6.7539 5
      vertex -8.84855 6.7539 0
    endloop
  endfacet
  facet normal 0.860743 -0.509039 0
    outer loop
      vertex -8.94129 6.59708 5
      vertex -8.84855 6.7539 0
      vertex -8.84855 6.7539 5
    endloop
  endfacet
  facet normal 0.860743 -0.509039 0
    outer loop
      vertex -8.84855 6.7539 0
      vertex -8.94129 6.59708 5
      vertex -8.94129 6.59708 0
    endloop
  endfacet
  facet normal 0.891006 -0.453991 0
    outer loop
      vertex -9.024 6.43476 5
      vertex -8.94129 6.59708 0
      vertex -8.94129 6.59708 5
    endloop
  endfacet
  facet normal 0.891006 -0.453991 0
    outer loop
      vertex -8.94129 6.59708 0
      vertex -9.024 6.43476 5
      vertex -9.024 6.43476 0
    endloop
  endfacet
  facet normal 0.56208 -0.827083 0
    outer loop
      vertex -8.10458 7.54615 0
      vertex -7.9539 7.64855 5
      vertex -8.10458 7.54615 5
    endloop
  endfacet
  facet normal 0.56208 -0.827083 0
    outer loop
      vertex -7.9539 7.64855 5
      vertex -8.10458 7.54615 0
      vertex -7.9539 7.64855 0
    endloop
  endfacet
  facet normal 0.661313 -0.75011 0
    outer loop
      vertex -8.38519 7.31401 0
      vertex -8.24853 7.43449 5
      vertex -8.38519 7.31401 5
    endloop
  endfacet
  facet normal 0.661313 -0.75011 0
    outer loop
      vertex -8.24853 7.43449 5
      vertex -8.38519 7.31401 0
      vertex -8.24853 7.43449 0
    endloop
  endfacet
  facet normal 0.338739 -0.94088 0
    outer loop
      vertex -7.46756 7.89635 0
      vertex -7.29615 7.95806 5
      vertex -7.46756 7.89635 5
    endloop
  endfacet
  facet normal 0.338739 -0.94088 0
    outer loop
      vertex -7.29615 7.95806 5
      vertex -7.46756 7.89635 0
      vertex -7.29615 7.95806 0
    endloop
  endfacet
  facet normal -0.999507 0.0314083 0
    outer loop
      vertex -3.50572 5.01791 0
      vertex -3.5 5.2 5
      vertex -3.5 5.2 0
    endloop
  endfacet
  facet normal -0.999507 0.0314083 0
    outer loop
      vertex -3.5 5.2 5
      vertex -3.50572 5.01791 0
      vertex -3.50572 5.01791 5
    endloop
  endfacet
  facet normal -0.0314135 0.999506 0
    outer loop
      vertex -6.21791 2.30572 0
      vertex -6.4 2.3 5
      vertex -6.21791 2.30572 5
    endloop
  endfacet
  facet normal -0.0314135 0.999506 0
    outer loop
      vertex -6.4 2.3 5
      vertex -6.21791 2.30572 0
      vertex -6.4 2.3 0
    endloop
  endfacet
  facet normal -0.156435 0.987688 0
    outer loop
      vertex -5.85659 2.35137 0
      vertex -6.03653 2.32287 5
      vertex -5.85659 2.35137 5
    endloop
  endfacet
  facet normal -0.156435 0.987688 0
    outer loop
      vertex -6.03653 2.32287 5
      vertex -5.85659 2.35137 0
      vertex -6.03653 2.32287 0
    endloop
  endfacet
  facet normal -0.218146 0.975916 0
    outer loop
      vertex -5.6788 2.39111 0
      vertex -5.85659 2.35137 5
      vertex -5.6788 2.39111 5
    endloop
  endfacet
  facet normal -0.218146 0.975916 0
    outer loop
      vertex -5.85659 2.35137 5
      vertex -5.6788 2.39111 0
      vertex -5.85659 2.35137 0
    endloop
  endfacet
  facet normal -0.338739 0.94088 0
    outer loop
      vertex -5.33244 2.50365 0
      vertex -5.50385 2.44194 5
      vertex -5.33244 2.50365 5
    endloop
  endfacet
  facet normal -0.338739 0.94088 0
    outer loop
      vertex -5.50385 2.44194 5
      vertex -5.33244 2.50365 0
      vertex -5.50385 2.44194 0
    endloop
  endfacet
  facet normal -0.27899 0.960294 0
    outer loop
      vertex -5.50385 2.44194 0
      vertex -5.6788 2.39111 5
      vertex -5.50385 2.44194 5
    endloop
  endfacet
  facet normal -0.27899 0.960294 0
    outer loop
      vertex -5.6788 2.39111 5
      vertex -5.50385 2.44194 0
      vertex -5.6788 2.39111 0
    endloop
  endfacet
  facet normal -0.661313 0.75011 0
    outer loop
      vertex -4.41481 3.08599 0
      vertex -4.55147 2.96551 5
      vertex -4.41481 3.08599 5
    endloop
  endfacet
  facet normal -0.661313 0.75011 0
    outer loop
      vertex -4.55147 2.96551 5
      vertex -4.41481 3.08599 0
      vertex -4.55147 2.96551 0
    endloop
  endfacet
  facet normal -0.562083 0.827081 0
    outer loop
      vertex -4.69542 2.85385 0
      vertex -4.8461 2.75145 5
      vertex -4.69542 2.85385 5
    endloop
  endfacet
  facet normal -0.562083 0.827081 0
    outer loop
      vertex -4.8461 2.75145 5
      vertex -4.69542 2.85385 0
      vertex -4.8461 2.75145 0
    endloop
  endfacet
  facet normal -0.860742 0.509041 0
    outer loop
      vertex -3.95145 3.6461 0
      vertex -3.85871 3.80291 5
      vertex -3.85871 3.80291 0
    endloop
  endfacet
  facet normal -0.860742 0.509041 0
    outer loop
      vertex -3.85871 3.80291 5
      vertex -3.95145 3.6461 0
      vertex -3.95145 3.6461 5
    endloop
  endfacet
  facet normal -0.917755 0.397147 0
    outer loop
      vertex -3.776 3.96524 0
      vertex -3.70365 4.13244 5
      vertex -3.70365 4.13244 0
    endloop
  endfacet
  facet normal -0.917755 0.397147 0
    outer loop
      vertex -3.70365 4.13244 5
      vertex -3.776 3.96524 0
      vertex -3.776 3.96524 5
    endloop
  endfacet
  facet normal -0.891006 0.453991 0
    outer loop
      vertex -3.85871 3.80291 0
      vertex -3.776 3.96524 5
      vertex -3.776 3.96524 0
    endloop
  endfacet
  facet normal -0.891006 0.453991 0
    outer loop
      vertex -3.776 3.96524 5
      vertex -3.85871 3.80291 0
      vertex -3.85871 3.80291 5
    endloop
  endfacet
  facet normal 0.0941048 0.995562 -0
    outer loop
      vertex -6.58209 2.30572 0
      vertex -6.76347 2.32287 5
      vertex -6.58209 2.30572 5
    endloop
  endfacet
  facet normal 0.0941048 0.995562 0
    outer loop
      vertex -6.76347 2.32287 5
      vertex -6.58209 2.30572 0
      vertex -6.76347 2.32287 0
    endloop
  endfacet
  facet normal -0.940881 -0.338738 0
    outer loop
      vertex -3.64194 6.09615 0
      vertex -3.70365 6.26756 5
      vertex -3.70365 6.26756 0
    endloop
  endfacet
  facet normal -0.940881 -0.338738 0
    outer loop
      vertex -3.70365 6.26756 5
      vertex -3.64194 6.09615 0
      vertex -3.64194 6.09615 5
    endloop
  endfacet
  facet normal 0.156435 -0.987688 0
    outer loop
      vertex -6.94341 8.04863 0
      vertex -6.76347 8.07713 5
      vertex -6.94341 8.04863 5
    endloop
  endfacet
  facet normal 0.156435 -0.987688 0
    outer loop
      vertex -6.76347 8.07713 5
      vertex -6.94341 8.04863 0
      vertex -6.76347 8.07713 0
    endloop
  endfacet
  facet normal -0.0941048 0.995562 0
    outer loop
      vertex -6.03653 2.32287 0
      vertex -6.21791 2.30572 5
      vertex -6.03653 2.32287 5
    endloop
  endfacet
  facet normal -0.0941048 0.995562 0
    outer loop
      vertex -6.21791 2.30572 5
      vertex -6.03653 2.32287 0
      vertex -6.21791 2.30572 0
    endloop
  endfacet
  facet normal -0.509041 0.860742 0
    outer loop
      vertex -4.8461 2.75145 0
      vertex -5.00291 2.65871 5
      vertex -4.8461 2.75145 5
    endloop
  endfacet
  facet normal -0.509041 0.860742 0
    outer loop
      vertex -5.00291 2.65871 5
      vertex -4.8461 2.75145 0
      vertex -5.00291 2.65871 0
    endloop
  endfacet
  facet normal -0.827081 0.562083 0
    outer loop
      vertex -4.05385 3.49542 0
      vertex -3.95145 3.6461 5
      vertex -3.95145 3.6461 0
    endloop
  endfacet
  facet normal -0.827081 0.562083 0
    outer loop
      vertex -3.95145 3.6461 5
      vertex -4.05385 3.49542 0
      vertex -4.05385 3.49542 5
    endloop
  endfacet
  facet normal -0.987688 0.156434 0
    outer loop
      vertex -3.55137 4.65659 0
      vertex -3.52287 4.83653 5
      vertex -3.52287 4.83653 0
    endloop
  endfacet
  facet normal -0.987688 0.156434 0
    outer loop
      vertex -3.52287 4.83653 5
      vertex -3.55137 4.65659 0
      vertex -3.55137 4.65659 5
    endloop
  endfacet
  facet normal 0.218144 0.975917 -0
    outer loop
      vertex -6.94341 2.35137 0
      vertex -7 2.36402 5
      vertex -6.94341 2.35137 5
    endloop
  endfacet
  facet normal 0.218144 0.975917 0
    outer loop
      vertex -7 2.36402 5
      vertex -6.94341 2.35137 0
      vertex -7 2.36402 0
    endloop
  endfacet
  facet normal 0.422618 0.906308 -0
    outer loop
      vertex -6.07161 9.78684 0
      vertex -18.9922 15.8118 5
      vertex -6.07161 9.78684 5
    endloop
  endfacet
  facet normal 0.422618 0.906308 0
    outer loop
      vertex -18.9922 15.8118 5
      vertex -6.07161 9.78684 0
      vertex -18.9922 15.8118 0
    endloop
  endfacet
  facet normal -0.422618 -0.906308 0
    outer loop
      vertex -19.6262 14.4524 0
      vertex -7.87868 8.97443 5
      vertex -19.6262 14.4524 5
    endloop
  endfacet
  facet normal -0.422618 -0.906308 -0
    outer loop
      vertex -7.87868 8.97443 5
      vertex -19.6262 14.4524 0
      vertex -7.87868 8.97443 0
    endloop
  endfacet
  facet normal -0.422618 -0.906308 0
    outer loop
      vertex -5.91219 8.05744 0
      vertex -4.52362 7.40994 5
      vertex -5.91219 8.05744 5
    endloop
  endfacet
  facet normal -0.422618 -0.906308 -0
    outer loop
      vertex -4.52362 7.40994 5
      vertex -5.91219 8.05744 0
      vertex -4.52362 7.40994 0
    endloop
  endfacet
  facet normal -0.906308 0.422619 0
    outer loop
      vertex -19.6262 14.4524 0
      vertex -18.9922 15.8118 5
      vertex -18.9922 15.8118 0
    endloop
  endfacet
  facet normal -0.906308 0.422619 0
    outer loop
      vertex -18.9922 15.8118 5
      vertex -19.6262 14.4524 0
      vertex -19.6262 14.4524 5
    endloop
  endfacet
endsolid OpenSCAD_Model
